%TF.GenerationSoftware,KiCad,Pcbnew,(6.0.4)*%
%TF.CreationDate,2022-08-13T18:47:35+03:00*%
%TF.ProjectId,Tail_Light_001,5461696c-5f4c-4696-9768-745f3030312e,rev?*%
%TF.SameCoordinates,Original*%
%TF.FileFunction,Copper,L1,Top*%
%TF.FilePolarity,Positive*%
%FSLAX46Y46*%
G04 Gerber Fmt 4.6, Leading zero omitted, Abs format (unit mm)*
G04 Created by KiCad (PCBNEW (6.0.4)) date 2022-08-13 18:47:35*
%MOMM*%
%LPD*%
G01*
G04 APERTURE LIST*
%TA.AperFunction,ComponentPad*%
%ADD10C,2.600000*%
%TD*%
%TA.AperFunction,ComponentPad*%
%ADD11C,0.900000*%
%TD*%
%TA.AperFunction,SMDPad,CuDef*%
%ADD12R,0.500000X3.300000*%
%TD*%
%TA.AperFunction,SMDPad,CuDef*%
%ADD13R,1.300000X3.300000*%
%TD*%
%TA.AperFunction,ViaPad*%
%ADD14C,0.800000*%
%TD*%
%TA.AperFunction,Conductor*%
%ADD15C,0.500000*%
%TD*%
G04 APERTURE END LIST*
D10*
%TO.P,U2,1,Mnt*%
%TO.N,Net-(D1-Pad3)*%
X53731800Y-34148400D03*
%TD*%
D11*
%TO.P,D3,1*%
%TO.N,Net-(D1-Pad1)*%
X57231800Y-33398400D03*
%TD*%
D10*
%TO.P,U1,1,Mnt*%
%TO.N,Net-(D1-Pad3)*%
X65731800Y-34148400D03*
%TD*%
D11*
%TO.P,D2,1*%
%TO.N,Net-(D1-Pad2)*%
X57231800Y-34898400D03*
%TD*%
D12*
%TO.P,D1,1,K*%
%TO.N,Net-(D1-Pad1)*%
X58331800Y-34148400D03*
%TO.P,D1,2,A*%
%TO.N,Net-(D1-Pad2)*%
X61131800Y-34148400D03*
D13*
%TO.P,D1,3,PAD*%
%TO.N,Net-(D1-Pad3)*%
X59731800Y-34148400D03*
%TD*%
D14*
%TO.N,Net-(D1-Pad2)*%
X61798200Y-34137600D03*
%TO.N,Net-(D1-Pad3)*%
X56362600Y-32283400D03*
X64008000Y-32308800D03*
X67640200Y-32207200D03*
X67589400Y-36042600D03*
X62331600Y-36017200D03*
X59740800Y-35077400D03*
X62331600Y-32334200D03*
X63119000Y-34163000D03*
X56311800Y-35966400D03*
X56108600Y-33502600D03*
X59740800Y-33223200D03*
X56108600Y-34645600D03*
X64211200Y-35991800D03*
X52095400Y-35991800D03*
X51943000Y-32385000D03*
%TD*%
D15*
%TO.N,Net-(D1-Pad2)*%
X61142600Y-34137600D02*
X61131800Y-34148400D01*
X61798200Y-34137600D02*
X61142600Y-34137600D01*
%TO.N,Net-(D1-Pad1)*%
X57231800Y-33635200D02*
X57745000Y-34148400D01*
X57231800Y-33398400D02*
X57231800Y-33635200D01*
X57745000Y-34148400D02*
X58331800Y-34148400D01*
%TD*%
%TA.AperFunction,Conductor*%
%TO.N,Net-(D1-Pad3)*%
G36*
X68065421Y-31776902D02*
G01*
X68111914Y-31830558D01*
X68123300Y-31882900D01*
X68123300Y-36413900D01*
X68103298Y-36482021D01*
X68049642Y-36528514D01*
X67997300Y-36539900D01*
X51466300Y-36539900D01*
X51398179Y-36519898D01*
X51351686Y-36466242D01*
X51340300Y-36413900D01*
X51340300Y-34891538D01*
X56576558Y-34891538D01*
X56593835Y-35048033D01*
X56647943Y-35195890D01*
X56735758Y-35326572D01*
X56758926Y-35347653D01*
X56822096Y-35405133D01*
X56852210Y-35432535D01*
X56873685Y-35444195D01*
X56983899Y-35504037D01*
X56983901Y-35504038D01*
X56990576Y-35507662D01*
X56997925Y-35509590D01*
X57135519Y-35545687D01*
X57135521Y-35545687D01*
X57142869Y-35547615D01*
X57226180Y-35548924D01*
X57292698Y-35549969D01*
X57292701Y-35549969D01*
X57300295Y-35550088D01*
X57453768Y-35514938D01*
X57594425Y-35444195D01*
X57673472Y-35376683D01*
X57738259Y-35347653D01*
X57808459Y-35358258D01*
X57861782Y-35405133D01*
X57881300Y-35472495D01*
X57881300Y-35818148D01*
X57892933Y-35876631D01*
X57937248Y-35942952D01*
X58003569Y-35987267D01*
X58015738Y-35989688D01*
X58015739Y-35989688D01*
X58055984Y-35997693D01*
X58062052Y-35998900D01*
X58601548Y-35998900D01*
X58607616Y-35997693D01*
X58647861Y-35989688D01*
X58647862Y-35989688D01*
X58660031Y-35987267D01*
X58726352Y-35942952D01*
X58770667Y-35876631D01*
X58782300Y-35818148D01*
X58782300Y-34214455D01*
X58783639Y-34202753D01*
X58783119Y-34202712D01*
X58783459Y-34198394D01*
X60678962Y-34198394D01*
X60680846Y-34205500D01*
X60681300Y-34213747D01*
X60681300Y-35818148D01*
X60692933Y-35876631D01*
X60737248Y-35942952D01*
X60803569Y-35987267D01*
X60815738Y-35989688D01*
X60815739Y-35989688D01*
X60855984Y-35997693D01*
X60862052Y-35998900D01*
X61401548Y-35998900D01*
X61407616Y-35997693D01*
X61447861Y-35989688D01*
X61447862Y-35989688D01*
X61460031Y-35987267D01*
X61526352Y-35942952D01*
X61570667Y-35876631D01*
X61582300Y-35818148D01*
X61582300Y-34858534D01*
X61602302Y-34790413D01*
X61655958Y-34743920D01*
X61724746Y-34733612D01*
X61790011Y-34742204D01*
X61790012Y-34742204D01*
X61798200Y-34743282D01*
X61806388Y-34742204D01*
X61946774Y-34723722D01*
X61954962Y-34722644D01*
X62101041Y-34662136D01*
X62226482Y-34565882D01*
X62322736Y-34440441D01*
X62383244Y-34294362D01*
X62403882Y-34137600D01*
X62383244Y-33980838D01*
X62322736Y-33834759D01*
X62226482Y-33709318D01*
X62101041Y-33613064D01*
X61954962Y-33552556D01*
X61798200Y-33531918D01*
X61790012Y-33532996D01*
X61790011Y-33532996D01*
X61724746Y-33541588D01*
X61654597Y-33530648D01*
X61601499Y-33483520D01*
X61582300Y-33416666D01*
X61582300Y-32478652D01*
X61570667Y-32420169D01*
X61526352Y-32353848D01*
X61460031Y-32309533D01*
X61447862Y-32307112D01*
X61447861Y-32307112D01*
X61407616Y-32299107D01*
X61401548Y-32297900D01*
X60862052Y-32297900D01*
X60855984Y-32299107D01*
X60815739Y-32307112D01*
X60815738Y-32307112D01*
X60803569Y-32309533D01*
X60737248Y-32353848D01*
X60692933Y-32420169D01*
X60681300Y-32478652D01*
X60681300Y-34136416D01*
X60681203Y-34141362D01*
X60678962Y-34198394D01*
X58783459Y-34198394D01*
X58783858Y-34193321D01*
X58785985Y-34184145D01*
X58782615Y-34136550D01*
X58782300Y-34127652D01*
X58782300Y-32478652D01*
X58770667Y-32420169D01*
X58726352Y-32353848D01*
X58660031Y-32309533D01*
X58647862Y-32307112D01*
X58647861Y-32307112D01*
X58607616Y-32299107D01*
X58601548Y-32297900D01*
X58062052Y-32297900D01*
X58055984Y-32299107D01*
X58015739Y-32307112D01*
X58015738Y-32307112D01*
X58003569Y-32309533D01*
X57937248Y-32353848D01*
X57892933Y-32420169D01*
X57881300Y-32478652D01*
X57881300Y-32824784D01*
X57861298Y-32892905D01*
X57807642Y-32939398D01*
X57737368Y-32949502D01*
X57671481Y-32918860D01*
X57611448Y-32865372D01*
X57611445Y-32865370D01*
X57605776Y-32860319D01*
X57466631Y-32786645D01*
X57449922Y-32782448D01*
X57321298Y-32750140D01*
X57321296Y-32750140D01*
X57313928Y-32748289D01*
X57306330Y-32748249D01*
X57306328Y-32748249D01*
X57239119Y-32747897D01*
X57156484Y-32747465D01*
X57149105Y-32749237D01*
X57149101Y-32749237D01*
X57010767Y-32782448D01*
X57010763Y-32782449D01*
X57003388Y-32784220D01*
X56863479Y-32856432D01*
X56857757Y-32861424D01*
X56857755Y-32861425D01*
X56750559Y-32954938D01*
X56750556Y-32954941D01*
X56744834Y-32959933D01*
X56654301Y-33088748D01*
X56597109Y-33235439D01*
X56596118Y-33242968D01*
X56581941Y-33350653D01*
X56576558Y-33391538D01*
X56593835Y-33548033D01*
X56647943Y-33695890D01*
X56652180Y-33702196D01*
X56652182Y-33702199D01*
X56656966Y-33709318D01*
X56735758Y-33826572D01*
X56852210Y-33932535D01*
X56917750Y-33968121D01*
X56936404Y-33980515D01*
X56940549Y-33983836D01*
X56946946Y-33990756D01*
X56953306Y-33994450D01*
X56959462Y-33999965D01*
X57040497Y-34081000D01*
X57074523Y-34143312D01*
X57069458Y-34214127D01*
X57026911Y-34270963D01*
X57003216Y-34283888D01*
X57003388Y-34284220D01*
X56863479Y-34356432D01*
X56857757Y-34361424D01*
X56857755Y-34361425D01*
X56750559Y-34454938D01*
X56750556Y-34454941D01*
X56744834Y-34459933D01*
X56740467Y-34466147D01*
X56670372Y-34565882D01*
X56654301Y-34588748D01*
X56597109Y-34735439D01*
X56590308Y-34787100D01*
X56581941Y-34850653D01*
X56576558Y-34891538D01*
X51340300Y-34891538D01*
X51340300Y-31882900D01*
X51360302Y-31814779D01*
X51413958Y-31768286D01*
X51466300Y-31756900D01*
X67997300Y-31756900D01*
X68065421Y-31776902D01*
G37*
%TD.AperFunction*%
%TD*%
M02*
