M48
; DRILL file {KiCad (6.0.4)} date Sat Aug 13 18:47:35 2022
; FORMAT={-:-/ absolute / inch / decimal}
; #@! TF.CreationDate,2022-08-13T18:47:35+03:00
; #@! TF.GenerationSoftware,Kicad,Pcbnew,(6.0.4)
; #@! TF.FileFunction,Plated,1,2,PTH
FMAT,2
INCH
; #@! TA.AperFunction,Plated,PTH,ViaDrill
T1C0.0157
; #@! TA.AperFunction,Plated,PTH,ComponentDrill
T2C0.0276
; #@! TA.AperFunction,Plated,PTH,ComponentDrill
T3C0.0866
%
G90
G05
T1
X2.045Y-1.275
X2.051Y-1.417
X2.209Y-1.319
X2.209Y-1.364
X2.217Y-1.416
X2.219Y-1.271
X2.352Y-1.308
X2.352Y-1.381
X2.433Y-1.344
X2.454Y-1.273
X2.454Y-1.418
X2.485Y-1.345
X2.52Y-1.272
X2.528Y-1.417
X2.661Y-1.419
X2.663Y-1.268
T2
X2.2532Y-1.3149
X2.2532Y-1.374
T3
X2.1154Y-1.3444
X2.5879Y-1.3444
T0
M30
