M48
; DRILL file {KiCad 7.0.7} date Sun Nov 19 15:36:35 2023
; FORMAT={-:-/ absolute / inch / decimal}
; #@! TF.CreationDate,2023-11-19T15:36:35+03:00
; #@! TF.GenerationSoftware,Kicad,Pcbnew,7.0.7
; #@! TF.FileFunction,Plated,1,2,PTH
FMAT,2
INCH
; #@! TA.AperFunction,Plated,PTH,ViaDrill
T1C0.0157
; #@! TA.AperFunction,Plated,PTH,ComponentDrill
T2C0.0472
%
G90
G05
T1
X4.981Y-4.777
X4.983Y-4.47
X4.996Y-4.125
X5.096Y-3.918
X5.24Y-4.19
X5.24Y-4.393
X5.24Y-4.73
X5.243Y-4.531
X5.378Y-4.098
X5.51Y-4.495
X5.516Y-4.629
X5.516Y-4.735
X5.558Y-4.418
X5.577Y-4.303
X5.648Y-4.635
X5.675Y-4.307
X5.687Y-4.735
X5.694Y-4.556
X5.825Y-4.32
X5.8659Y-4.6881
X5.867Y-4.564
X5.89Y-3.843
X5.89Y-4.733
X5.894Y-4.621
X5.905Y-3.983
X6.015Y-4.134
X6.084Y-4.733
X6.149Y-4.37
X6.158Y-3.841
X6.181Y-4.21
X6.268Y-4.15
X6.287Y-4.259
X6.346Y-4.733
X6.369Y-3.843
X6.435Y-4.493
X6.477Y-4.186
X6.559Y-3.841
X6.567Y-4.338
T2
X4.993Y-4.011
X4.995Y-3.886
X6.159Y-4.468
X6.361Y-4.65
X6.52Y-4.46
X6.524Y-4.259
T0
M30
