%TF.GenerationSoftware,KiCad,Pcbnew,(6.0.4)*%
%TF.CreationDate,2022-08-13T18:44:58+03:00*%
%TF.ProjectId,Wing,57696e67-2e6b-4696-9361-645f70636258,rev?*%
%TF.SameCoordinates,Original*%
%TF.FileFunction,Copper,L1,Top*%
%TF.FilePolarity,Positive*%
%FSLAX46Y46*%
G04 Gerber Fmt 4.6, Leading zero omitted, Abs format (unit mm)*
G04 Created by KiCad (PCBNEW (6.0.4)) date 2022-08-13 18:44:58*
%MOMM*%
%LPD*%
G01*
G04 APERTURE LIST*
%TA.AperFunction,SMDPad,CuDef*%
%ADD10R,0.500000X3.300000*%
%TD*%
%TA.AperFunction,SMDPad,CuDef*%
%ADD11R,1.300000X3.300000*%
%TD*%
%TA.AperFunction,ComponentPad*%
%ADD12C,0.900000*%
%TD*%
%TA.AperFunction,ComponentPad*%
%ADD13C,2.600000*%
%TD*%
%TA.AperFunction,ViaPad*%
%ADD14C,0.800000*%
%TD*%
%TA.AperFunction,Conductor*%
%ADD15C,0.500000*%
%TD*%
G04 APERTURE END LIST*
D10*
%TO.P,D1,1,K*%
%TO.N,Net-(D1-Pad1)*%
X123314000Y-96469200D03*
%TO.P,D1,2,A*%
%TO.N,Net-(D1-Pad2)*%
X126114000Y-96469200D03*
D11*
%TO.P,D1,3,PAD*%
%TO.N,Net-(D1-Pad3)*%
X124714000Y-96469200D03*
%TD*%
D10*
%TO.P,D4,1,K*%
%TO.N,Net-(D3-Pad2)*%
X156308600Y-96469200D03*
%TO.P,D4,2,A*%
%TO.N,Net-(D4-Pad2)*%
X159108600Y-96469200D03*
D11*
%TO.P,D4,3,PAD*%
%TO.N,Net-(D1-Pad3)*%
X157708600Y-96469200D03*
%TD*%
D12*
%TO.P,D5,1*%
%TO.N,Net-(D4-Pad2)*%
X162839400Y-97139000D03*
%TD*%
D13*
%TO.P,U2,1,Mnt*%
%TO.N,Net-(D1-Pad3)*%
X119710200Y-96427800D03*
%TD*%
D12*
%TO.P,D6,1*%
%TO.N,Net-(D1-Pad1)*%
X162839400Y-95792800D03*
%TD*%
D10*
%TO.P,D3,1,K*%
%TO.N,Net-(D2-Pad2)*%
X145310400Y-96469200D03*
%TO.P,D3,2,A*%
%TO.N,Net-(D3-Pad2)*%
X148110400Y-96469200D03*
D11*
%TO.P,D3,3,PAD*%
%TO.N,Net-(D1-Pad3)*%
X146710400Y-96469200D03*
%TD*%
D13*
%TO.P,U1,1,Mnt*%
%TO.N,Net-(D1-Pad3)*%
X172212000Y-96453200D03*
%TD*%
D10*
%TO.P,D2,1,K*%
%TO.N,Net-(D1-Pad2)*%
X134312200Y-96418400D03*
%TO.P,D2,2,A*%
%TO.N,Net-(D2-Pad2)*%
X137112200Y-96418400D03*
D11*
%TO.P,D2,3,PAD*%
%TO.N,Net-(D1-Pad3)*%
X135712200Y-96418400D03*
%TD*%
D14*
%TO.N,Net-(D1-Pad1)*%
X122428000Y-96504000D03*
%TO.N,Net-(D1-Pad3)*%
X149047200Y-97342200D03*
X155244800Y-94472000D03*
X160223200Y-97291400D03*
X158140400Y-94243400D03*
X155321000Y-95538800D03*
X131597400Y-97342200D03*
X124231400Y-94319600D03*
X139674600Y-95615000D03*
X135102600Y-98536000D03*
X157073600Y-98612200D03*
X146227800Y-98637600D03*
X149047200Y-98409000D03*
X144424400Y-95640400D03*
X133350000Y-94421200D03*
X157175200Y-94243400D03*
X149123400Y-94319600D03*
X122402600Y-97545400D03*
X138150600Y-95615000D03*
X138125200Y-97367600D03*
X164084000Y-96478600D03*
X163982400Y-95310200D03*
X160096200Y-94446600D03*
X162382200Y-98282000D03*
X133426200Y-97291400D03*
X162356800Y-94700600D03*
X135077200Y-94268800D03*
X133451600Y-98536000D03*
X136245600Y-94192600D03*
X124231400Y-98637600D03*
X170002200Y-96478600D03*
X150241000Y-97342200D03*
X144373600Y-94421200D03*
X149047200Y-95564200D03*
X160070800Y-98459800D03*
X153949400Y-95615000D03*
X157708600Y-97520000D03*
X144449800Y-98637600D03*
X142138400Y-95640400D03*
X131597400Y-95538800D03*
X124714000Y-97570800D03*
X158191200Y-98637600D03*
X147116800Y-94268800D03*
X161645600Y-97316800D03*
X127177800Y-97342200D03*
X161645600Y-95538800D03*
X163982400Y-97672400D03*
X160223200Y-95665800D03*
X125323600Y-98637600D03*
X136372600Y-98586800D03*
X147193000Y-98637600D03*
X155346400Y-98434400D03*
X157708600Y-95386400D03*
X122504200Y-98637600D03*
X150266400Y-95564200D03*
X135712200Y-97520000D03*
X129387600Y-95538800D03*
X146710400Y-95361000D03*
X139649200Y-97367600D03*
X125171200Y-94319600D03*
X142163800Y-97367600D03*
X155321000Y-97342200D03*
X129387600Y-97342200D03*
X127177800Y-95538800D03*
X127127000Y-94370400D03*
X144424400Y-97316800D03*
X133426200Y-95564200D03*
X137972800Y-98586800D03*
X127000000Y-98637600D03*
X151968200Y-97316800D03*
X153924000Y-97342200D03*
X135712200Y-95310200D03*
X138176000Y-94268800D03*
X122428000Y-95462600D03*
X122326400Y-94497400D03*
X146710400Y-97570800D03*
X146202400Y-94294200D03*
X151968200Y-95564200D03*
X124714000Y-95361000D03*
%TD*%
D15*
%TO.N,Net-(D1-Pad2)*%
X126130000Y-96453200D02*
X126114000Y-96469200D01*
X134277400Y-96453200D02*
X126130000Y-96453200D01*
X134312200Y-96418400D02*
X134277400Y-96453200D01*
%TO.N,Net-(D1-Pad1)*%
X122428000Y-96504000D02*
X122462800Y-96469200D01*
X122462800Y-96469200D02*
X123314000Y-96469200D01*
%TO.N,Net-(D2-Pad2)*%
X137163000Y-96469200D02*
X137112200Y-96418400D01*
X145310400Y-96469200D02*
X137163000Y-96469200D01*
%TO.N,Net-(D3-Pad2)*%
X156308600Y-96469200D02*
X148110400Y-96469200D01*
%TO.N,Net-(D4-Pad2)*%
X159108600Y-96469200D02*
X159124600Y-96453200D01*
X159124600Y-96453200D02*
X162179000Y-96453200D01*
X162179000Y-96478600D02*
X162839400Y-97139000D01*
X162179000Y-96453200D02*
X162179000Y-96478600D01*
%TD*%
%TA.AperFunction,Conductor*%
%TO.N,Net-(D1-Pad3)*%
G36*
X174032721Y-93705602D02*
G01*
X174079214Y-93759258D01*
X174090600Y-93811600D01*
X174090600Y-99044057D01*
X174070598Y-99112178D01*
X174016942Y-99158671D01*
X173964656Y-99170057D01*
X148503683Y-99181423D01*
X117322655Y-99195343D01*
X117254527Y-99175371D01*
X117208010Y-99121736D01*
X117196600Y-99069343D01*
X117196600Y-96504000D01*
X121822318Y-96504000D01*
X121842956Y-96660762D01*
X121903464Y-96806841D01*
X121908491Y-96813392D01*
X121990064Y-96919700D01*
X121999718Y-96932282D01*
X122125159Y-97028536D01*
X122271238Y-97089044D01*
X122428000Y-97109682D01*
X122436188Y-97108604D01*
X122576574Y-97090122D01*
X122584762Y-97089044D01*
X122689283Y-97045750D01*
X122759871Y-97038161D01*
X122823358Y-97069940D01*
X122859586Y-97130998D01*
X122863500Y-97162159D01*
X122863500Y-98138948D01*
X122875133Y-98197431D01*
X122919448Y-98263752D01*
X122985769Y-98308067D01*
X122997938Y-98310488D01*
X122997939Y-98310488D01*
X123038184Y-98318493D01*
X123044252Y-98319700D01*
X123583748Y-98319700D01*
X123589816Y-98318493D01*
X123630061Y-98310488D01*
X123630062Y-98310488D01*
X123642231Y-98308067D01*
X123708552Y-98263752D01*
X123752867Y-98197431D01*
X123764500Y-98138948D01*
X123764500Y-96535255D01*
X123765839Y-96523553D01*
X123765319Y-96523512D01*
X123765659Y-96519194D01*
X125661162Y-96519194D01*
X125663046Y-96526300D01*
X125663500Y-96534547D01*
X125663500Y-98138948D01*
X125675133Y-98197431D01*
X125719448Y-98263752D01*
X125785769Y-98308067D01*
X125797938Y-98310488D01*
X125797939Y-98310488D01*
X125838184Y-98318493D01*
X125844252Y-98319700D01*
X126383748Y-98319700D01*
X126389816Y-98318493D01*
X126430061Y-98310488D01*
X126430062Y-98310488D01*
X126442231Y-98308067D01*
X126508552Y-98263752D01*
X126552867Y-98197431D01*
X126564500Y-98138948D01*
X126564500Y-97029700D01*
X126584502Y-96961579D01*
X126638158Y-96915086D01*
X126690500Y-96903700D01*
X133735700Y-96903700D01*
X133803821Y-96923702D01*
X133850314Y-96977358D01*
X133861700Y-97029700D01*
X133861700Y-98088148D01*
X133873333Y-98146631D01*
X133917648Y-98212952D01*
X133983969Y-98257267D01*
X133996138Y-98259688D01*
X133996139Y-98259688D01*
X134016571Y-98263752D01*
X134042452Y-98268900D01*
X134581948Y-98268900D01*
X134607829Y-98263752D01*
X134628261Y-98259688D01*
X134628262Y-98259688D01*
X134640431Y-98257267D01*
X134706752Y-98212952D01*
X134751067Y-98146631D01*
X134762700Y-98088148D01*
X134762700Y-96432710D01*
X136656836Y-96432710D01*
X136658528Y-96441974D01*
X136658528Y-96441976D01*
X136659650Y-96448119D01*
X136661700Y-96470756D01*
X136661700Y-98088148D01*
X136673333Y-98146631D01*
X136717648Y-98212952D01*
X136783969Y-98257267D01*
X136796138Y-98259688D01*
X136796139Y-98259688D01*
X136816571Y-98263752D01*
X136842452Y-98268900D01*
X137381948Y-98268900D01*
X137407829Y-98263752D01*
X137428261Y-98259688D01*
X137428262Y-98259688D01*
X137440431Y-98257267D01*
X137506752Y-98212952D01*
X137551067Y-98146631D01*
X137562700Y-98088148D01*
X137562700Y-97045700D01*
X137582702Y-96977579D01*
X137636358Y-96931086D01*
X137688700Y-96919700D01*
X144733900Y-96919700D01*
X144802021Y-96939702D01*
X144848514Y-96993358D01*
X144859900Y-97045700D01*
X144859900Y-98138948D01*
X144871533Y-98197431D01*
X144915848Y-98263752D01*
X144982169Y-98308067D01*
X144994338Y-98310488D01*
X144994339Y-98310488D01*
X145034584Y-98318493D01*
X145040652Y-98319700D01*
X145580148Y-98319700D01*
X145586216Y-98318493D01*
X145626461Y-98310488D01*
X145626462Y-98310488D01*
X145638631Y-98308067D01*
X145704952Y-98263752D01*
X145749267Y-98197431D01*
X145760900Y-98138948D01*
X145760900Y-96535255D01*
X145762239Y-96523553D01*
X145761719Y-96523512D01*
X145762458Y-96514121D01*
X145764585Y-96504945D01*
X145761215Y-96457350D01*
X145760900Y-96448452D01*
X145760900Y-96433455D01*
X147656215Y-96433455D01*
X147656880Y-96442850D01*
X147656880Y-96442853D01*
X147659585Y-96481049D01*
X147659900Y-96489948D01*
X147659900Y-98138948D01*
X147671533Y-98197431D01*
X147715848Y-98263752D01*
X147782169Y-98308067D01*
X147794338Y-98310488D01*
X147794339Y-98310488D01*
X147834584Y-98318493D01*
X147840652Y-98319700D01*
X148380148Y-98319700D01*
X148386216Y-98318493D01*
X148426461Y-98310488D01*
X148426462Y-98310488D01*
X148438631Y-98308067D01*
X148504952Y-98263752D01*
X148549267Y-98197431D01*
X148560900Y-98138948D01*
X148560900Y-97045700D01*
X148580902Y-96977579D01*
X148634558Y-96931086D01*
X148686900Y-96919700D01*
X155732100Y-96919700D01*
X155800221Y-96939702D01*
X155846714Y-96993358D01*
X155858100Y-97045700D01*
X155858100Y-98138948D01*
X155869733Y-98197431D01*
X155914048Y-98263752D01*
X155980369Y-98308067D01*
X155992538Y-98310488D01*
X155992539Y-98310488D01*
X156032784Y-98318493D01*
X156038852Y-98319700D01*
X156578348Y-98319700D01*
X156584416Y-98318493D01*
X156624661Y-98310488D01*
X156624662Y-98310488D01*
X156636831Y-98308067D01*
X156703152Y-98263752D01*
X156747467Y-98197431D01*
X156759100Y-98138948D01*
X156759100Y-96535255D01*
X156760439Y-96523553D01*
X156759919Y-96523512D01*
X156760259Y-96519194D01*
X158655762Y-96519194D01*
X158657646Y-96526300D01*
X158658100Y-96534547D01*
X158658100Y-98138948D01*
X158669733Y-98197431D01*
X158714048Y-98263752D01*
X158780369Y-98308067D01*
X158792538Y-98310488D01*
X158792539Y-98310488D01*
X158832784Y-98318493D01*
X158838852Y-98319700D01*
X159378348Y-98319700D01*
X159384416Y-98318493D01*
X159424661Y-98310488D01*
X159424662Y-98310488D01*
X159436831Y-98308067D01*
X159503152Y-98263752D01*
X159547467Y-98197431D01*
X159559100Y-98138948D01*
X159559100Y-97029700D01*
X159579102Y-96961579D01*
X159632758Y-96915086D01*
X159685100Y-96903700D01*
X161914807Y-96903700D01*
X161982928Y-96923702D01*
X162003902Y-96940605D01*
X162151470Y-97088173D01*
X162185496Y-97150485D01*
X162187614Y-97163441D01*
X162201435Y-97288633D01*
X162255543Y-97436490D01*
X162259780Y-97442796D01*
X162259782Y-97442799D01*
X162300109Y-97502811D01*
X162343358Y-97567172D01*
X162459810Y-97673135D01*
X162466485Y-97676759D01*
X162591499Y-97744637D01*
X162591501Y-97744638D01*
X162598176Y-97748262D01*
X162605525Y-97750190D01*
X162743119Y-97786287D01*
X162743121Y-97786287D01*
X162750469Y-97788215D01*
X162833780Y-97789524D01*
X162900298Y-97790569D01*
X162900301Y-97790569D01*
X162907895Y-97790688D01*
X163061368Y-97755538D01*
X163202025Y-97684795D01*
X163228269Y-97662381D01*
X163315974Y-97587474D01*
X163315976Y-97587471D01*
X163321748Y-97582542D01*
X163413624Y-97454683D01*
X163472350Y-97308598D01*
X163479353Y-97259393D01*
X163493953Y-97156807D01*
X163493953Y-97156804D01*
X163494534Y-97152723D01*
X163494678Y-97139000D01*
X163475763Y-96982694D01*
X163456262Y-96931086D01*
X163422794Y-96842514D01*
X163422793Y-96842511D01*
X163420110Y-96835412D01*
X163330931Y-96705657D01*
X163271352Y-96652574D01*
X163219048Y-96605972D01*
X163219045Y-96605970D01*
X163213376Y-96600919D01*
X163169504Y-96577690D01*
X163118661Y-96528137D01*
X163102680Y-96458962D01*
X163126634Y-96392129D01*
X163171851Y-96353771D01*
X163195236Y-96342010D01*
X163195239Y-96342008D01*
X163202025Y-96338595D01*
X163228269Y-96316181D01*
X163315974Y-96241274D01*
X163315976Y-96241271D01*
X163321748Y-96236342D01*
X163413624Y-96108483D01*
X163426796Y-96075718D01*
X163454294Y-96007314D01*
X163472350Y-95962398D01*
X163482269Y-95892700D01*
X163493953Y-95810607D01*
X163493953Y-95810604D01*
X163494534Y-95806523D01*
X163494678Y-95792800D01*
X163475763Y-95636494D01*
X163420110Y-95489212D01*
X163330931Y-95359457D01*
X163284371Y-95317974D01*
X163219048Y-95259772D01*
X163219045Y-95259770D01*
X163213376Y-95254719D01*
X163074231Y-95181045D01*
X163057522Y-95176848D01*
X162928898Y-95144540D01*
X162928896Y-95144540D01*
X162921528Y-95142689D01*
X162913930Y-95142649D01*
X162913928Y-95142649D01*
X162846719Y-95142297D01*
X162764084Y-95141865D01*
X162756705Y-95143637D01*
X162756701Y-95143637D01*
X162618367Y-95176848D01*
X162618363Y-95176849D01*
X162610988Y-95178620D01*
X162471079Y-95250832D01*
X162465357Y-95255824D01*
X162465355Y-95255825D01*
X162358159Y-95349338D01*
X162358156Y-95349341D01*
X162352434Y-95354333D01*
X162261901Y-95483148D01*
X162204709Y-95629839D01*
X162184158Y-95785938D01*
X162192652Y-95862873D01*
X162180246Y-95932777D01*
X162132017Y-95984878D01*
X162067413Y-96002700D01*
X159685100Y-96002700D01*
X159616979Y-95982698D01*
X159570486Y-95929042D01*
X159559100Y-95876700D01*
X159559100Y-94799452D01*
X159547467Y-94740969D01*
X159503152Y-94674648D01*
X159436831Y-94630333D01*
X159424662Y-94627912D01*
X159424661Y-94627912D01*
X159384416Y-94619907D01*
X159378348Y-94618700D01*
X158838852Y-94618700D01*
X158832784Y-94619907D01*
X158792539Y-94627912D01*
X158792538Y-94627912D01*
X158780369Y-94630333D01*
X158714048Y-94674648D01*
X158669733Y-94740969D01*
X158658100Y-94799452D01*
X158658100Y-96457216D01*
X158658003Y-96462162D01*
X158655762Y-96519194D01*
X156760259Y-96519194D01*
X156760658Y-96514121D01*
X156762785Y-96504945D01*
X156759415Y-96457350D01*
X156759100Y-96448452D01*
X156759100Y-94799452D01*
X156747467Y-94740969D01*
X156703152Y-94674648D01*
X156636831Y-94630333D01*
X156624662Y-94627912D01*
X156624661Y-94627912D01*
X156584416Y-94619907D01*
X156578348Y-94618700D01*
X156038852Y-94618700D01*
X156032784Y-94619907D01*
X155992539Y-94627912D01*
X155992538Y-94627912D01*
X155980369Y-94630333D01*
X155914048Y-94674648D01*
X155869733Y-94740969D01*
X155858100Y-94799452D01*
X155858100Y-95892700D01*
X155838098Y-95960821D01*
X155784442Y-96007314D01*
X155732100Y-96018700D01*
X148686900Y-96018700D01*
X148618779Y-95998698D01*
X148572286Y-95945042D01*
X148560900Y-95892700D01*
X148560900Y-94799452D01*
X148549267Y-94740969D01*
X148504952Y-94674648D01*
X148438631Y-94630333D01*
X148426462Y-94627912D01*
X148426461Y-94627912D01*
X148386216Y-94619907D01*
X148380148Y-94618700D01*
X147840652Y-94618700D01*
X147834584Y-94619907D01*
X147794339Y-94627912D01*
X147794338Y-94627912D01*
X147782169Y-94630333D01*
X147715848Y-94674648D01*
X147671533Y-94740969D01*
X147659900Y-94799452D01*
X147659900Y-96403145D01*
X147658561Y-96414847D01*
X147659081Y-96414888D01*
X147658342Y-96424279D01*
X147656215Y-96433455D01*
X145760900Y-96433455D01*
X145760900Y-94799452D01*
X145749267Y-94740969D01*
X145704952Y-94674648D01*
X145638631Y-94630333D01*
X145626462Y-94627912D01*
X145626461Y-94627912D01*
X145586216Y-94619907D01*
X145580148Y-94618700D01*
X145040652Y-94618700D01*
X145034584Y-94619907D01*
X144994339Y-94627912D01*
X144994338Y-94627912D01*
X144982169Y-94630333D01*
X144915848Y-94674648D01*
X144871533Y-94740969D01*
X144859900Y-94799452D01*
X144859900Y-95892700D01*
X144839898Y-95960821D01*
X144786242Y-96007314D01*
X144733900Y-96018700D01*
X137688700Y-96018700D01*
X137620579Y-95998698D01*
X137574086Y-95945042D01*
X137562700Y-95892700D01*
X137562700Y-94748652D01*
X137551067Y-94690169D01*
X137506752Y-94623848D01*
X137440431Y-94579533D01*
X137428262Y-94577112D01*
X137428261Y-94577112D01*
X137388016Y-94569107D01*
X137381948Y-94567900D01*
X136842452Y-94567900D01*
X136836384Y-94569107D01*
X136796139Y-94577112D01*
X136796138Y-94577112D01*
X136783969Y-94579533D01*
X136717648Y-94623848D01*
X136673333Y-94690169D01*
X136661700Y-94748652D01*
X136661700Y-96384180D01*
X136660827Y-96398989D01*
X136656836Y-96432710D01*
X134762700Y-96432710D01*
X134762700Y-96430409D01*
X134762797Y-96425462D01*
X134763108Y-96417557D01*
X134765039Y-96368406D01*
X134763154Y-96361297D01*
X134762700Y-96353048D01*
X134762700Y-94748652D01*
X134751067Y-94690169D01*
X134706752Y-94623848D01*
X134640431Y-94579533D01*
X134628262Y-94577112D01*
X134628261Y-94577112D01*
X134588016Y-94569107D01*
X134581948Y-94567900D01*
X134042452Y-94567900D01*
X134036384Y-94569107D01*
X133996139Y-94577112D01*
X133996138Y-94577112D01*
X133983969Y-94579533D01*
X133917648Y-94623848D01*
X133873333Y-94690169D01*
X133861700Y-94748652D01*
X133861700Y-95876700D01*
X133841698Y-95944821D01*
X133788042Y-95991314D01*
X133735700Y-96002700D01*
X126690500Y-96002700D01*
X126622379Y-95982698D01*
X126575886Y-95929042D01*
X126564500Y-95876700D01*
X126564500Y-94799452D01*
X126552867Y-94740969D01*
X126508552Y-94674648D01*
X126442231Y-94630333D01*
X126430062Y-94627912D01*
X126430061Y-94627912D01*
X126389816Y-94619907D01*
X126383748Y-94618700D01*
X125844252Y-94618700D01*
X125838184Y-94619907D01*
X125797939Y-94627912D01*
X125797938Y-94627912D01*
X125785769Y-94630333D01*
X125719448Y-94674648D01*
X125675133Y-94740969D01*
X125663500Y-94799452D01*
X125663500Y-96457216D01*
X125663403Y-96462162D01*
X125661162Y-96519194D01*
X123765659Y-96519194D01*
X123766058Y-96514121D01*
X123768185Y-96504945D01*
X123764815Y-96457350D01*
X123764500Y-96448452D01*
X123764500Y-94799452D01*
X123752867Y-94740969D01*
X123708552Y-94674648D01*
X123642231Y-94630333D01*
X123630062Y-94627912D01*
X123630061Y-94627912D01*
X123589816Y-94619907D01*
X123583748Y-94618700D01*
X123044252Y-94618700D01*
X123038184Y-94619907D01*
X122997939Y-94627912D01*
X122997938Y-94627912D01*
X122985769Y-94630333D01*
X122919448Y-94674648D01*
X122875133Y-94740969D01*
X122863500Y-94799452D01*
X122863500Y-95845841D01*
X122843498Y-95913962D01*
X122789842Y-95960455D01*
X122719568Y-95970559D01*
X122689284Y-95962251D01*
X122584762Y-95918956D01*
X122428000Y-95898318D01*
X122271238Y-95918956D01*
X122125159Y-95979464D01*
X121999718Y-96075718D01*
X121903464Y-96201159D01*
X121842956Y-96347238D01*
X121841878Y-96355426D01*
X121837114Y-96391613D01*
X121822318Y-96504000D01*
X117196600Y-96504000D01*
X117196600Y-93811600D01*
X117216602Y-93743479D01*
X117270258Y-93696986D01*
X117322600Y-93685600D01*
X173964600Y-93685600D01*
X174032721Y-93705602D01*
G37*
%TD.AperFunction*%
%TD*%
M02*
