%TF.GenerationSoftware,KiCad,Pcbnew,(6.0.4)*%
%TF.CreationDate,2022-08-13T18:44:58+03:00*%
%TF.ProjectId,Wing,57696e67-2e6b-4696-9361-645f70636258,rev?*%
%TF.SameCoordinates,Original*%
%TF.FileFunction,Legend,Top*%
%TF.FilePolarity,Positive*%
%FSLAX46Y46*%
G04 Gerber Fmt 4.6, Leading zero omitted, Abs format (unit mm)*
G04 Created by KiCad (PCBNEW (6.0.4)) date 2022-08-13 18:44:58*
%MOMM*%
%LPD*%
G01*
G04 APERTURE LIST*
%ADD10C,0.150000*%
%ADD11C,0.120000*%
%ADD12R,0.500000X3.300000*%
%ADD13R,1.300000X3.300000*%
%ADD14C,0.900000*%
%ADD15C,2.600000*%
%ADD16C,0.800000*%
G04 APERTURE END LIST*
D10*
X136855200Y-94141800D02*
X137464800Y-94141800D01*
X144983200Y-94243400D02*
X145592800Y-94243400D01*
X137160000Y-93837000D02*
X137160000Y-94446600D01*
X122936000Y-94218000D02*
X123545600Y-94218000D01*
X126111000Y-93837000D02*
X126111000Y-94446600D01*
X163245800Y-97774000D02*
X163245800Y-98383600D01*
X155930600Y-94243400D02*
X156540200Y-94243400D01*
X162941000Y-98078800D02*
X163550600Y-98078800D01*
X125806200Y-94141800D02*
X126415800Y-94141800D01*
X158775400Y-94218000D02*
X159385000Y-94218000D01*
X163322000Y-94446600D02*
X163322000Y-95056200D01*
X147802600Y-94192600D02*
X148412200Y-94192600D01*
X148107400Y-93887800D02*
X148107400Y-94497400D01*
X159080200Y-93913200D02*
X159080200Y-94522800D01*
X133934200Y-94218000D02*
X134543800Y-94218000D01*
D11*
%TO.C,D1*%
X122864000Y-98319200D02*
X122864000Y-97319200D01*
X122864000Y-94619200D02*
X122864000Y-95619200D01*
X125464000Y-98319200D02*
X122864000Y-98319200D01*
X125464000Y-94619200D02*
X122864000Y-94619200D01*
%TO.C,D4*%
X158458600Y-98319200D02*
X155858600Y-98319200D01*
X155858600Y-98319200D02*
X155858600Y-97319200D01*
X158458600Y-94619200D02*
X155858600Y-94619200D01*
X155858600Y-94619200D02*
X155858600Y-95619200D01*
%TO.C,D3*%
X147460400Y-98319200D02*
X144860400Y-98319200D01*
X147460400Y-94619200D02*
X144860400Y-94619200D01*
X144860400Y-94619200D02*
X144860400Y-95619200D01*
X144860400Y-98319200D02*
X144860400Y-97319200D01*
%TO.C,D2*%
X136462200Y-98268400D02*
X133862200Y-98268400D01*
X133862200Y-98268400D02*
X133862200Y-97268400D01*
X133862200Y-94568400D02*
X133862200Y-95568400D01*
X136462200Y-94568400D02*
X133862200Y-94568400D01*
%TD*%
%LPC*%
D12*
%TO.C,D1*%
X123314000Y-96469200D03*
X126114000Y-96469200D03*
D13*
X124714000Y-96469200D03*
%TD*%
D12*
%TO.C,D4*%
X156308600Y-96469200D03*
X159108600Y-96469200D03*
D13*
X157708600Y-96469200D03*
%TD*%
D14*
%TO.C,D5*%
X162839400Y-97139000D03*
%TD*%
D15*
%TO.C,U2*%
X119710200Y-96427800D03*
%TD*%
D14*
%TO.C,D6*%
X162839400Y-95792800D03*
%TD*%
D12*
%TO.C,D3*%
X145310400Y-96469200D03*
X148110400Y-96469200D03*
D13*
X146710400Y-96469200D03*
%TD*%
D15*
%TO.C,U1*%
X172212000Y-96453200D03*
%TD*%
D12*
%TO.C,D2*%
X134312200Y-96418400D03*
X137112200Y-96418400D03*
D13*
X135712200Y-96418400D03*
%TD*%
D16*
X122428000Y-96504000D03*
X149047200Y-97342200D03*
X155244800Y-94472000D03*
X160223200Y-97291400D03*
X158140400Y-94243400D03*
X155321000Y-95538800D03*
X131597400Y-97342200D03*
X124231400Y-94319600D03*
X139674600Y-95615000D03*
X135102600Y-98536000D03*
X157073600Y-98612200D03*
X146227800Y-98637600D03*
X149047200Y-98409000D03*
X144424400Y-95640400D03*
X133350000Y-94421200D03*
X157175200Y-94243400D03*
X149123400Y-94319600D03*
X122402600Y-97545400D03*
X138150600Y-95615000D03*
X138125200Y-97367600D03*
X164084000Y-96478600D03*
X163982400Y-95310200D03*
X160096200Y-94446600D03*
X162382200Y-98282000D03*
X133426200Y-97291400D03*
X162356800Y-94700600D03*
X135077200Y-94268800D03*
X133451600Y-98536000D03*
X136245600Y-94192600D03*
X124231400Y-98637600D03*
X170002200Y-96478600D03*
X150241000Y-97342200D03*
X144373600Y-94421200D03*
X149047200Y-95564200D03*
X160070800Y-98459800D03*
X153949400Y-95615000D03*
X157708600Y-97520000D03*
X144449800Y-98637600D03*
X142138400Y-95640400D03*
X131597400Y-95538800D03*
X124714000Y-97570800D03*
X158191200Y-98637600D03*
X147116800Y-94268800D03*
X161645600Y-97316800D03*
X127177800Y-97342200D03*
X161645600Y-95538800D03*
X163982400Y-97672400D03*
X160223200Y-95665800D03*
X125323600Y-98637600D03*
X136372600Y-98586800D03*
X147193000Y-98637600D03*
X155346400Y-98434400D03*
X157708600Y-95386400D03*
X122504200Y-98637600D03*
X150266400Y-95564200D03*
X135712200Y-97520000D03*
X129387600Y-95538800D03*
X146710400Y-95361000D03*
X139649200Y-97367600D03*
X125171200Y-94319600D03*
X142163800Y-97367600D03*
X155321000Y-97342200D03*
X129387600Y-97342200D03*
X127177800Y-95538800D03*
X127127000Y-94370400D03*
X144424400Y-97316800D03*
X133426200Y-95564200D03*
X137972800Y-98586800D03*
X127000000Y-98637600D03*
X151968200Y-97316800D03*
X153924000Y-97342200D03*
X135712200Y-95310200D03*
X138176000Y-94268800D03*
X122428000Y-95462600D03*
X122326400Y-94497400D03*
X146710400Y-97570800D03*
X146202400Y-94294200D03*
X151968200Y-95564200D03*
X124714000Y-95361000D03*
M02*
