M48
; DRILL file {KiCad (6.0.4)} date Sat Aug 13 18:44:58 2022
; FORMAT={-:-/ absolute / inch / decimal}
; #@! TF.CreationDate,2022-08-13T18:44:58+03:00
; #@! TF.GenerationSoftware,Kicad,Pcbnew,(6.0.4)
; #@! TF.FileFunction,Plated,1,2,PTH
FMAT,2
INCH
; #@! TA.AperFunction,Plated,PTH,ViaDrill
T1C0.0157
; #@! TA.AperFunction,Plated,PTH,ComponentDrill
T2C0.0276
; #@! TA.AperFunction,Plated,PTH,ComponentDrill
T3C0.0866
%
G90
G05
T1
X4.816Y-3.7204
X4.819Y-3.8404
X4.82Y-3.7584
X4.82Y-3.7994
X4.823Y-3.8834
X4.891Y-3.7134
X4.891Y-3.8834
X4.91Y-3.7544
X4.91Y-3.8414
X4.928Y-3.7134
X4.934Y-3.8834
X5.0Y-3.8834
X5.005Y-3.7154
X5.007Y-3.7614
X5.007Y-3.8324
X5.094Y-3.7614
X5.094Y-3.8324
X5.181Y-3.7614
X5.181Y-3.8324
X5.25Y-3.7174
X5.253Y-3.7624
X5.253Y-3.8304
X5.254Y-3.8794
X5.318Y-3.7114
X5.319Y-3.8794
X5.343Y-3.7524
X5.343Y-3.8394
X5.364Y-3.7084
X5.369Y-3.8814
X5.432Y-3.8814
X5.438Y-3.8334
X5.439Y-3.7644
X5.44Y-3.7114
X5.498Y-3.8334
X5.499Y-3.7644
X5.596Y-3.7654
X5.597Y-3.8334
X5.684Y-3.7174
X5.686Y-3.7654
X5.686Y-3.8314
X5.687Y-3.8834
X5.756Y-3.7124
X5.757Y-3.8834
X5.776Y-3.7544
X5.776Y-3.8414
X5.792Y-3.7114
X5.795Y-3.8834
X5.868Y-3.7624
X5.868Y-3.8324
X5.868Y-3.8744
X5.871Y-3.7134
X5.915Y-3.8324
X5.916Y-3.7624
X5.983Y-3.7624
X5.983Y-3.8314
X6.06Y-3.8324
X6.061Y-3.7644
X6.112Y-3.7194
X6.115Y-3.7614
X6.115Y-3.8324
X6.116Y-3.8754
X6.184Y-3.8824
X6.188Y-3.7104
X6.209Y-3.7554
X6.209Y-3.8394
X6.226Y-3.7104
X6.228Y-3.8834
X6.302Y-3.8764
X6.303Y-3.7184
X6.308Y-3.7664
X6.308Y-3.8304
X6.364Y-3.7614
X6.364Y-3.8314
X6.392Y-3.7284
X6.393Y-3.8694
X6.456Y-3.7524
X6.456Y-3.8454
X6.46Y-3.7984
X6.693Y-3.7984
T2
X6.411Y-3.7714
X6.411Y-3.8244
T3
X4.713Y-3.7964
X6.78Y-3.7974
T0
M30
