%TF.GenerationSoftware,KiCad,Pcbnew,7.0.7*%
%TF.CreationDate,2023-11-19T09:16:51+03:00*%
%TF.ProjectId,Main_PCB_002,4d61696e-5f50-4434-925f-3030322e6b69,rev?*%
%TF.SameCoordinates,Original*%
%TF.FileFunction,Legend,Top*%
%TF.FilePolarity,Positive*%
%FSLAX46Y46*%
G04 Gerber Fmt 4.6, Leading zero omitted, Abs format (unit mm)*
G04 Created by KiCad (PCBNEW 7.0.7) date 2023-11-19 09:16:51*
%MOMM*%
%LPD*%
G01*
G04 APERTURE LIST*
G04 Aperture macros list*
%AMRoundRect*
0 Rectangle with rounded corners*
0 $1 Rounding radius*
0 $2 $3 $4 $5 $6 $7 $8 $9 X,Y pos of 4 corners*
0 Add a 4 corners polygon primitive as box body*
4,1,4,$2,$3,$4,$5,$6,$7,$8,$9,$2,$3,0*
0 Add four circle primitives for the rounded corners*
1,1,$1+$1,$2,$3*
1,1,$1+$1,$4,$5*
1,1,$1+$1,$6,$7*
1,1,$1+$1,$8,$9*
0 Add four rect primitives between the rounded corners*
20,1,$1+$1,$2,$3,$4,$5,0*
20,1,$1+$1,$4,$5,$6,$7,0*
20,1,$1+$1,$6,$7,$8,$9,0*
20,1,$1+$1,$8,$9,$2,$3,0*%
G04 Aperture macros list end*
%ADD10C,0.100000*%
%ADD11C,0.150000*%
%ADD12C,0.120000*%
%ADD13C,0.152400*%
%ADD14RoundRect,0.250000X0.337500X0.475000X-0.337500X0.475000X-0.337500X-0.475000X0.337500X-0.475000X0*%
%ADD15RoundRect,0.150000X-0.512500X-0.150000X0.512500X-0.150000X0.512500X0.150000X-0.512500X0.150000X0*%
%ADD16RoundRect,0.237500X-0.250000X-0.237500X0.250000X-0.237500X0.250000X0.237500X-0.250000X0.237500X0*%
%ADD17C,1.600000*%
%ADD18RoundRect,0.250000X0.475000X-0.337500X0.475000X0.337500X-0.475000X0.337500X-0.475000X-0.337500X0*%
%ADD19RoundRect,0.237500X-0.300000X-0.237500X0.300000X-0.237500X0.300000X0.237500X-0.300000X0.237500X0*%
%ADD20R,1.168400X2.209800*%
%ADD21RoundRect,0.237500X0.300000X0.237500X-0.300000X0.237500X-0.300000X-0.237500X0.300000X-0.237500X0*%
%ADD22R,0.249999X0.599999*%
%ADD23R,0.599999X0.249999*%
%ADD24R,1.825000X0.249999*%
G04 APERTURE END LIST*
D10*
X63500000Y-53340000D02*
X196850000Y-53340000D01*
X196850000Y-149860000D02*
X63500000Y-149860000D01*
X196850000Y-53340000D02*
X196850000Y-149860000D01*
X63500000Y-149860000D02*
X63500000Y-53340000D01*
D11*
X137988922Y-105295819D02*
X138322255Y-106295819D01*
X138322255Y-106295819D02*
X138655588Y-105295819D01*
X139163636Y-106549819D02*
X139068398Y-106502200D01*
X139068398Y-106502200D02*
X139020779Y-106454580D01*
X139020779Y-106454580D02*
X138973160Y-106359342D01*
X138973160Y-106359342D02*
X138973160Y-106073628D01*
X138973160Y-106073628D02*
X139020779Y-105978390D01*
X139020779Y-105978390D02*
X139068398Y-105930771D01*
X139068398Y-105930771D02*
X139163636Y-105883152D01*
X139163636Y-105883152D02*
X139306493Y-105883152D01*
X139306493Y-105883152D02*
X139401731Y-105930771D01*
X139401731Y-105930771D02*
X139449350Y-105978390D01*
X139449350Y-105978390D02*
X139496969Y-106073628D01*
X139496969Y-106073628D02*
X139496969Y-106359342D01*
X139496969Y-106359342D02*
X139449350Y-106454580D01*
X139449350Y-106454580D02*
X139401731Y-106502200D01*
X139401731Y-106502200D02*
X139306493Y-106549819D01*
X139306493Y-106549819D02*
X139163636Y-106549819D01*
X140354112Y-105883152D02*
X140354112Y-106549819D01*
X139925541Y-105883152D02*
X139925541Y-106406961D01*
X139925541Y-106406961D02*
X139973160Y-106502200D01*
X139973160Y-106502200D02*
X140068398Y-106549819D01*
X140068398Y-106549819D02*
X140211255Y-106549819D01*
X140211255Y-106549819D02*
X140306493Y-106502200D01*
X140306493Y-106502200D02*
X140354112Y-106454580D01*
X140687446Y-105883152D02*
X141068398Y-105883152D01*
X140830303Y-105549819D02*
X140830303Y-106406961D01*
X140830303Y-106406961D02*
X140877922Y-106502200D01*
X140877922Y-106502200D02*
X140973160Y-106549819D01*
X140973160Y-106549819D02*
X141068398Y-106549819D01*
X120970922Y-105041819D02*
X121304255Y-106041819D01*
X121304255Y-106041819D02*
X121637588Y-105041819D01*
X121637588Y-97215438D02*
X121542350Y-97167819D01*
X121542350Y-97167819D02*
X121399493Y-97167819D01*
X121399493Y-97167819D02*
X121256636Y-97215438D01*
X121256636Y-97215438D02*
X121161398Y-97310676D01*
X121161398Y-97310676D02*
X121113779Y-97405914D01*
X121113779Y-97405914D02*
X121066160Y-97596390D01*
X121066160Y-97596390D02*
X121066160Y-97739247D01*
X121066160Y-97739247D02*
X121113779Y-97929723D01*
X121113779Y-97929723D02*
X121161398Y-98024961D01*
X121161398Y-98024961D02*
X121256636Y-98120200D01*
X121256636Y-98120200D02*
X121399493Y-98167819D01*
X121399493Y-98167819D02*
X121494731Y-98167819D01*
X121494731Y-98167819D02*
X121637588Y-98120200D01*
X121637588Y-98120200D02*
X121685207Y-98072580D01*
X121685207Y-98072580D02*
X121685207Y-97739247D01*
X121685207Y-97739247D02*
X121494731Y-97739247D01*
X122113779Y-98167819D02*
X122113779Y-97167819D01*
X122113779Y-97167819D02*
X122685207Y-98167819D01*
X122685207Y-98167819D02*
X122685207Y-97167819D01*
X123161398Y-98167819D02*
X123161398Y-97167819D01*
X123161398Y-97167819D02*
X123399493Y-97167819D01*
X123399493Y-97167819D02*
X123542350Y-97215438D01*
X123542350Y-97215438D02*
X123637588Y-97310676D01*
X123637588Y-97310676D02*
X123685207Y-97405914D01*
X123685207Y-97405914D02*
X123732826Y-97596390D01*
X123732826Y-97596390D02*
X123732826Y-97739247D01*
X123732826Y-97739247D02*
X123685207Y-97929723D01*
X123685207Y-97929723D02*
X123637588Y-98024961D01*
X123637588Y-98024961D02*
X123542350Y-98120200D01*
X123542350Y-98120200D02*
X123399493Y-98167819D01*
X123399493Y-98167819D02*
X123161398Y-98167819D01*
X122256779Y-106422819D02*
X122256779Y-105756152D01*
X122256779Y-105422819D02*
X122209160Y-105470438D01*
X122209160Y-105470438D02*
X122256779Y-105518057D01*
X122256779Y-105518057D02*
X122304398Y-105470438D01*
X122304398Y-105470438D02*
X122256779Y-105422819D01*
X122256779Y-105422819D02*
X122256779Y-105518057D01*
X122732969Y-105756152D02*
X122732969Y-106422819D01*
X122732969Y-105851390D02*
X122780588Y-105803771D01*
X122780588Y-105803771D02*
X122875826Y-105756152D01*
X122875826Y-105756152D02*
X123018683Y-105756152D01*
X123018683Y-105756152D02*
X123113921Y-105803771D01*
X123113921Y-105803771D02*
X123161540Y-105899009D01*
X123161540Y-105899009D02*
X123161540Y-106422819D01*
X138782588Y-97342438D02*
X138687350Y-97294819D01*
X138687350Y-97294819D02*
X138544493Y-97294819D01*
X138544493Y-97294819D02*
X138401636Y-97342438D01*
X138401636Y-97342438D02*
X138306398Y-97437676D01*
X138306398Y-97437676D02*
X138258779Y-97532914D01*
X138258779Y-97532914D02*
X138211160Y-97723390D01*
X138211160Y-97723390D02*
X138211160Y-97866247D01*
X138211160Y-97866247D02*
X138258779Y-98056723D01*
X138258779Y-98056723D02*
X138306398Y-98151961D01*
X138306398Y-98151961D02*
X138401636Y-98247200D01*
X138401636Y-98247200D02*
X138544493Y-98294819D01*
X138544493Y-98294819D02*
X138639731Y-98294819D01*
X138639731Y-98294819D02*
X138782588Y-98247200D01*
X138782588Y-98247200D02*
X138830207Y-98199580D01*
X138830207Y-98199580D02*
X138830207Y-97866247D01*
X138830207Y-97866247D02*
X138639731Y-97866247D01*
X139258779Y-98294819D02*
X139258779Y-97294819D01*
X139258779Y-97294819D02*
X139830207Y-98294819D01*
X139830207Y-98294819D02*
X139830207Y-97294819D01*
X140306398Y-98294819D02*
X140306398Y-97294819D01*
X140306398Y-97294819D02*
X140544493Y-97294819D01*
X140544493Y-97294819D02*
X140687350Y-97342438D01*
X140687350Y-97342438D02*
X140782588Y-97437676D01*
X140782588Y-97437676D02*
X140830207Y-97532914D01*
X140830207Y-97532914D02*
X140877826Y-97723390D01*
X140877826Y-97723390D02*
X140877826Y-97866247D01*
X140877826Y-97866247D02*
X140830207Y-98056723D01*
X140830207Y-98056723D02*
X140782588Y-98151961D01*
X140782588Y-98151961D02*
X140687350Y-98247200D01*
X140687350Y-98247200D02*
X140544493Y-98294819D01*
X140544493Y-98294819D02*
X140306398Y-98294819D01*
D12*
%TO.C,C28*%
X132743752Y-100430000D02*
X132221248Y-100430000D01*
X132743752Y-98960000D02*
X132221248Y-98960000D01*
%TO.C,U17*%
X136033000Y-100903600D02*
X134233000Y-100903600D01*
X136033000Y-100903600D02*
X136833000Y-100903600D01*
X136033000Y-104023600D02*
X135233000Y-104023600D01*
X136033000Y-104023600D02*
X136833000Y-104023600D01*
%TO.C,R26*%
X136012376Y-99197900D02*
X136521824Y-99197900D01*
X136012376Y-100242900D02*
X136521824Y-100242900D01*
%TO.C,C29*%
X123670300Y-102420052D02*
X123670300Y-101897548D01*
X125140300Y-102420052D02*
X125140300Y-101897548D01*
%TO.C,C27*%
X128399233Y-99642200D02*
X128691767Y-99642200D01*
X128399233Y-100662200D02*
X128691767Y-100662200D01*
D13*
%TO.C,L3*%
X131666950Y-101155500D02*
X131215250Y-101155500D01*
X131215250Y-103619300D02*
X131666950Y-103619300D01*
D12*
%TO.C,C26*%
X125288167Y-99976400D02*
X124995633Y-99976400D01*
X125288167Y-98956400D02*
X124995633Y-98956400D01*
%TD*%
%LPC*%
D14*
%TO.C,C28*%
X133520000Y-99695000D03*
X131445000Y-99695000D03*
%TD*%
D15*
%TO.C,U17*%
X134895500Y-101513600D03*
X134895500Y-102463600D03*
X134895500Y-103413600D03*
X137170500Y-103413600D03*
X137170500Y-101513600D03*
%TD*%
D16*
%TO.C,R26*%
X135354600Y-99720400D03*
X137179600Y-99720400D03*
%TD*%
D17*
%TO.C,D27*%
X122322500Y-103505000D03*
%TD*%
%TO.C,D30*%
X122271700Y-99415600D03*
%TD*%
D18*
%TO.C,C29*%
X124405300Y-103196300D03*
X124405300Y-101121300D03*
%TD*%
D17*
%TO.C,D29*%
X139670700Y-103936800D03*
%TD*%
D19*
%TO.C,C27*%
X127683000Y-100152200D03*
X129408000Y-100152200D03*
%TD*%
D20*
%TO.C,L3*%
X132558700Y-102387400D03*
X130323500Y-102387400D03*
%TD*%
D21*
%TO.C,C26*%
X126004400Y-99466400D03*
X124279400Y-99466400D03*
%TD*%
D17*
%TO.C,D28*%
X139569100Y-99542600D03*
%TD*%
D22*
%TO.C,U16*%
X128705299Y-101857398D03*
X128055300Y-101857398D03*
X127405299Y-101857398D03*
X126905300Y-101857398D03*
D23*
X126180300Y-102257400D03*
X126180300Y-102757399D03*
X126180300Y-103257398D03*
D22*
X126905300Y-103657400D03*
X127405299Y-103657400D03*
X128055300Y-103657400D03*
X128705299Y-103657400D03*
D24*
X128368299Y-102757399D03*
%TD*%
%LPD*%
M02*
