%TF.GenerationSoftware,KiCad,Pcbnew,7.0.7*%
%TF.CreationDate,2023-11-19T09:16:51+03:00*%
%TF.ProjectId,Main_PCB_002,4d61696e-5f50-4434-925f-3030322e6b69,rev?*%
%TF.SameCoordinates,Original*%
%TF.FileFunction,Paste,Top*%
%TF.FilePolarity,Positive*%
%FSLAX46Y46*%
G04 Gerber Fmt 4.6, Leading zero omitted, Abs format (unit mm)*
G04 Created by KiCad (PCBNEW 7.0.7) date 2023-11-19 09:16:51*
%MOMM*%
%LPD*%
G01*
G04 APERTURE LIST*
G04 Aperture macros list*
%AMRoundRect*
0 Rectangle with rounded corners*
0 $1 Rounding radius*
0 $2 $3 $4 $5 $6 $7 $8 $9 X,Y pos of 4 corners*
0 Add a 4 corners polygon primitive as box body*
4,1,4,$2,$3,$4,$5,$6,$7,$8,$9,$2,$3,0*
0 Add four circle primitives for the rounded corners*
1,1,$1+$1,$2,$3*
1,1,$1+$1,$4,$5*
1,1,$1+$1,$6,$7*
1,1,$1+$1,$8,$9*
0 Add four rect primitives between the rounded corners*
20,1,$1+$1,$2,$3,$4,$5,0*
20,1,$1+$1,$4,$5,$6,$7,0*
20,1,$1+$1,$6,$7,$8,$9,0*
20,1,$1+$1,$8,$9,$2,$3,0*%
G04 Aperture macros list end*
%ADD10RoundRect,0.250000X0.337500X0.475000X-0.337500X0.475000X-0.337500X-0.475000X0.337500X-0.475000X0*%
%ADD11RoundRect,0.150000X-0.512500X-0.150000X0.512500X-0.150000X0.512500X0.150000X-0.512500X0.150000X0*%
%ADD12RoundRect,0.237500X-0.250000X-0.237500X0.250000X-0.237500X0.250000X0.237500X-0.250000X0.237500X0*%
%ADD13RoundRect,0.250000X0.475000X-0.337500X0.475000X0.337500X-0.475000X0.337500X-0.475000X-0.337500X0*%
%ADD14RoundRect,0.237500X-0.300000X-0.237500X0.300000X-0.237500X0.300000X0.237500X-0.300000X0.237500X0*%
%ADD15R,1.168400X2.209800*%
%ADD16RoundRect,0.237500X0.300000X0.237500X-0.300000X0.237500X-0.300000X-0.237500X0.300000X-0.237500X0*%
%ADD17R,0.249999X0.599999*%
%ADD18R,0.599999X0.249999*%
G04 APERTURE END LIST*
%TO.C,U16*%
G36*
X129280299Y-102682398D02*
G01*
X129280299Y-102832400D01*
X129230299Y-102882400D01*
X128518299Y-102882400D01*
X128468299Y-102832400D01*
X128468299Y-102682398D01*
X128518299Y-102632398D01*
X129230299Y-102632398D01*
X129280299Y-102682398D01*
G37*
G36*
X128268300Y-102682398D02*
G01*
X128268300Y-102832400D01*
X128218300Y-102882400D01*
X127506300Y-102882400D01*
X127456300Y-102832400D01*
X127456300Y-102682398D01*
X127506300Y-102632398D01*
X128218300Y-102632398D01*
X128268300Y-102682398D01*
G37*
%TD*%
D10*
%TO.C,C28*%
X133520000Y-99695000D03*
X131445000Y-99695000D03*
%TD*%
D11*
%TO.C,U17*%
X134895500Y-101513600D03*
X134895500Y-102463600D03*
X134895500Y-103413600D03*
X137170500Y-103413600D03*
X137170500Y-101513600D03*
%TD*%
D12*
%TO.C,R26*%
X135354600Y-99720400D03*
X137179600Y-99720400D03*
%TD*%
D13*
%TO.C,C29*%
X124405300Y-103196300D03*
X124405300Y-101121300D03*
%TD*%
D14*
%TO.C,C27*%
X127683000Y-100152200D03*
X129408000Y-100152200D03*
%TD*%
D15*
%TO.C,L3*%
X132558700Y-102387400D03*
X130323500Y-102387400D03*
%TD*%
D16*
%TO.C,C26*%
X126004400Y-99466400D03*
X124279400Y-99466400D03*
%TD*%
D17*
%TO.C,U16*%
X128705299Y-101857398D03*
X128055300Y-101857398D03*
X127405299Y-101857398D03*
X126905300Y-101857398D03*
D18*
X126180300Y-102257400D03*
X126180300Y-102757399D03*
X126180300Y-103257398D03*
D17*
X126905300Y-103657400D03*
X127405299Y-103657400D03*
X128055300Y-103657400D03*
X128705299Y-103657400D03*
%TD*%
M02*
