%TF.GenerationSoftware,KiCad,Pcbnew,7.0.7*%
%TF.CreationDate,2023-11-19T09:16:51+03:00*%
%TF.ProjectId,Main_PCB_002,4d61696e-5f50-4434-925f-3030322e6b69,rev?*%
%TF.SameCoordinates,Original*%
%TF.FileFunction,Copper,L2,Bot*%
%TF.FilePolarity,Positive*%
%FSLAX46Y46*%
G04 Gerber Fmt 4.6, Leading zero omitted, Abs format (unit mm)*
G04 Created by KiCad (PCBNEW 7.0.7) date 2023-11-19 09:16:51*
%MOMM*%
%LPD*%
G01*
G04 APERTURE LIST*
%TA.AperFunction,ComponentPad*%
%ADD10C,1.600000*%
%TD*%
%TA.AperFunction,ViaPad*%
%ADD11C,0.800000*%
%TD*%
%TA.AperFunction,ViaPad*%
%ADD12C,0.600000*%
%TD*%
%TA.AperFunction,Conductor*%
%ADD13C,0.250000*%
%TD*%
%TA.AperFunction,Conductor*%
%ADD14C,0.400000*%
%TD*%
G04 APERTURE END LIST*
D10*
%TO.P,D27,1,Conn*%
%TO.N,Net-(D27-Conn)*%
X122322500Y-103505000D03*
%TD*%
%TO.P,D30,1,Conn*%
%TO.N,GND2*%
X122271700Y-99415600D03*
%TD*%
%TO.P,D29,1,Conn*%
%TO.N,Net-(D29-Conn)*%
X139670700Y-103936800D03*
%TD*%
%TO.P,D28,1,Conn*%
%TO.N,GND2*%
X139569100Y-99542600D03*
%TD*%
D11*
%TO.N,GND2*%
X129434332Y-104007899D03*
D12*
X132715000Y-104107899D03*
X133485421Y-100919500D03*
X138811000Y-102108000D03*
X127508000Y-98044000D03*
X131445000Y-102870000D03*
X126746000Y-100584000D03*
X122936000Y-101600000D03*
X126238000Y-105410000D03*
X123444000Y-104140000D03*
X130302000Y-105410000D03*
X125603000Y-101346000D03*
X128338413Y-99269060D03*
X135509000Y-100694900D03*
X138049000Y-104140000D03*
X126956297Y-102743000D03*
X121158000Y-102108000D03*
X131445000Y-101854000D03*
X134112000Y-104140000D03*
X128270000Y-105410000D03*
X132588000Y-105410000D03*
X130810000Y-104013000D03*
X136511970Y-104196471D03*
X124206000Y-105410000D03*
X120884388Y-104541057D03*
X134874000Y-105410000D03*
X136510757Y-102296190D03*
X137287000Y-102362000D03*
X132482500Y-99695000D03*
X130048000Y-99187000D03*
X133604000Y-102616000D03*
D11*
%TO.N,Net-(D27-Conn)*%
X128055502Y-101268326D03*
X127982943Y-104008067D03*
%TD*%
D13*
%TO.N,Net-(D27-Conn)*%
X127982943Y-101340885D02*
X128055502Y-101268326D01*
D14*
X127982943Y-104008067D02*
X127982943Y-101340885D01*
%TD*%
%TA.AperFunction,Conductor*%
%TO.N,GND2*%
G36*
X141410539Y-96804185D02*
G01*
X141456294Y-96856989D01*
X141467500Y-96908500D01*
X141467500Y-106799500D01*
X141447815Y-106866539D01*
X141395011Y-106912294D01*
X141343500Y-106923500D01*
X120530500Y-106923500D01*
X120463461Y-106903815D01*
X120417706Y-106851011D01*
X120406500Y-106799500D01*
X120406500Y-103505000D01*
X121266917Y-103505000D01*
X121287199Y-103710932D01*
X121317234Y-103809944D01*
X121347268Y-103908954D01*
X121444815Y-104091450D01*
X121444817Y-104091452D01*
X121576089Y-104251410D01*
X121672709Y-104330702D01*
X121736050Y-104382685D01*
X121918546Y-104480232D01*
X122116566Y-104540300D01*
X122116565Y-104540300D01*
X122136847Y-104542297D01*
X122322500Y-104560583D01*
X122528434Y-104540300D01*
X122726454Y-104480232D01*
X122908950Y-104382685D01*
X123068910Y-104251410D01*
X123200185Y-104091450D01*
X123244755Y-104008067D01*
X127327665Y-104008067D01*
X127346705Y-104164885D01*
X127402723Y-104312589D01*
X127402723Y-104312590D01*
X127492460Y-104442597D01*
X127610703Y-104547350D01*
X127610705Y-104547351D01*
X127750577Y-104620763D01*
X127903957Y-104658567D01*
X127903958Y-104658567D01*
X128061928Y-104658567D01*
X128215308Y-104620763D01*
X128215308Y-104620762D01*
X128355183Y-104547350D01*
X128473426Y-104442597D01*
X128563163Y-104312590D01*
X128619180Y-104164885D01*
X128638221Y-104008067D01*
X128629568Y-103936800D01*
X138615117Y-103936800D01*
X138635399Y-104142732D01*
X138635400Y-104142734D01*
X138695468Y-104340754D01*
X138793015Y-104523250D01*
X138812793Y-104547350D01*
X138924289Y-104683210D01*
X139020909Y-104762502D01*
X139084250Y-104814485D01*
X139266746Y-104912032D01*
X139464766Y-104972100D01*
X139464765Y-104972100D01*
X139483229Y-104973918D01*
X139670700Y-104992383D01*
X139876634Y-104972100D01*
X140074654Y-104912032D01*
X140257150Y-104814485D01*
X140417110Y-104683210D01*
X140548385Y-104523250D01*
X140645932Y-104340754D01*
X140706000Y-104142734D01*
X140726283Y-103936800D01*
X140706000Y-103730866D01*
X140645932Y-103532846D01*
X140548385Y-103350350D01*
X140496402Y-103287009D01*
X140417110Y-103190389D01*
X140257152Y-103059117D01*
X140257153Y-103059117D01*
X140257150Y-103059115D01*
X140074654Y-102961568D01*
X139876634Y-102901500D01*
X139876632Y-102901499D01*
X139876634Y-102901499D01*
X139689163Y-102883035D01*
X139670700Y-102881217D01*
X139670699Y-102881217D01*
X139464767Y-102901499D01*
X139266743Y-102961569D01*
X139156597Y-103020443D01*
X139084250Y-103059115D01*
X139084248Y-103059116D01*
X139084247Y-103059117D01*
X138924289Y-103190389D01*
X138793017Y-103350347D01*
X138695469Y-103532843D01*
X138635399Y-103730867D01*
X138615117Y-103936800D01*
X128629568Y-103936800D01*
X128619180Y-103851249D01*
X128563163Y-103703544D01*
X128473426Y-103573537D01*
X128473422Y-103573533D01*
X128468452Y-103567923D01*
X128469897Y-103566642D01*
X128438091Y-103515942D01*
X128433443Y-103482314D01*
X128433443Y-101858365D01*
X128453128Y-101791326D01*
X128475217Y-101765550D01*
X128545984Y-101702857D01*
X128545985Y-101702856D01*
X128635722Y-101572849D01*
X128691739Y-101425144D01*
X128710780Y-101268326D01*
X128691739Y-101111508D01*
X128635722Y-100963803D01*
X128545985Y-100833796D01*
X128427742Y-100729043D01*
X128427740Y-100729042D01*
X128427739Y-100729041D01*
X128287867Y-100655629D01*
X128134488Y-100617826D01*
X128134487Y-100617826D01*
X127976517Y-100617826D01*
X127976516Y-100617826D01*
X127823136Y-100655629D01*
X127683264Y-100729041D01*
X127565018Y-100833797D01*
X127475283Y-100963801D01*
X127475282Y-100963802D01*
X127419264Y-101111507D01*
X127400224Y-101268325D01*
X127400224Y-101268326D01*
X127419264Y-101425144D01*
X127475282Y-101572849D01*
X127475283Y-101572852D01*
X127510492Y-101623859D01*
X127532376Y-101690213D01*
X127532443Y-101694300D01*
X127532443Y-103482307D01*
X127512758Y-103549346D01*
X127497096Y-103567623D01*
X127497434Y-103567923D01*
X127492458Y-103573539D01*
X127402724Y-103703542D01*
X127402723Y-103703543D01*
X127346705Y-103851248D01*
X127327665Y-104008066D01*
X127327665Y-104008067D01*
X123244755Y-104008067D01*
X123297732Y-103908954D01*
X123357800Y-103710934D01*
X123378083Y-103505000D01*
X123357800Y-103299066D01*
X123297732Y-103101046D01*
X123200185Y-102918550D01*
X123148202Y-102855209D01*
X123068910Y-102758589D01*
X122908952Y-102627317D01*
X122908953Y-102627317D01*
X122908950Y-102627315D01*
X122726454Y-102529768D01*
X122528434Y-102469700D01*
X122528432Y-102469699D01*
X122528434Y-102469699D01*
X122322500Y-102449417D01*
X122116567Y-102469699D01*
X121918543Y-102529769D01*
X121808397Y-102588643D01*
X121736050Y-102627315D01*
X121736048Y-102627316D01*
X121736047Y-102627317D01*
X121576089Y-102758589D01*
X121444817Y-102918547D01*
X121347269Y-103101043D01*
X121287199Y-103299067D01*
X121266917Y-103505000D01*
X120406500Y-103505000D01*
X120406500Y-96908500D01*
X120426185Y-96841461D01*
X120478989Y-96795706D01*
X120530500Y-96784500D01*
X141343500Y-96784500D01*
X141410539Y-96804185D01*
G37*
%TD.AperFunction*%
%TD*%
M02*
