M48
; DRILL file {KiCad 7.0.7} date Sun Nov 19 09:16:51 2023
; FORMAT={-:-/ absolute / inch / decimal}
; #@! TF.CreationDate,2023-11-19T09:16:51+03:00
; #@! TF.GenerationSoftware,Kicad,Pcbnew,7.0.7
; #@! TF.FileFunction,Plated,1,2,PTH
FMAT,2
INCH
; #@! TA.AperFunction,Plated,PTH,ViaDrill
T1C0.0157
; #@! TA.AperFunction,Plated,PTH,ComponentDrill
T2C0.0472
%
G90
G05
T1
X4.7592Y-4.1158
X4.77Y-4.02
X4.84Y-4.0
X4.86Y-4.1
X4.89Y-4.15
X4.945Y-3.99
X4.97Y-4.15
X4.99Y-3.96
X4.9983Y-4.045
X5.02Y-3.86
X5.0387Y-4.0948
X5.0416Y-3.9869
X5.05Y-4.15
X5.0527Y-3.9082
X5.0958Y-4.0948
X5.12Y-3.905
X5.13Y-4.15
X5.15Y-4.095
X5.175Y-4.01
X5.175Y-4.05
X5.2158Y-3.925
X5.22Y-4.15
X5.225Y-4.0987
X5.2553Y-3.9732
X5.26Y-4.04
X5.28Y-4.1
X5.31Y-4.15
X5.335Y-3.9644
X5.3744Y-4.0274
X5.3745Y-4.1022
X5.405Y-4.03
X5.435Y-4.1
X5.465Y-4.02
T2
X4.8138Y-3.914
X4.8158Y-4.075
X5.4948Y-3.919
X5.4988Y-4.092
T0
M30
