%TF.GenerationSoftware,KiCad,Pcbnew,(6.0.4)*%
%TF.CreationDate,2022-06-19T16:10:13+03:00*%
%TF.ProjectId,Main_PCB_001,4d61696e-5f50-4434-925f-3030312e6b69,rev?*%
%TF.SameCoordinates,Original*%
%TF.FileFunction,Copper,L2,Inr*%
%TF.FilePolarity,Positive*%
%FSLAX46Y46*%
G04 Gerber Fmt 4.6, Leading zero omitted, Abs format (unit mm)*
G04 Created by KiCad (PCBNEW (6.0.4)) date 2022-06-19 16:10:13*
%MOMM*%
%LPD*%
G01*
G04 APERTURE LIST*
%TA.AperFunction,ComponentPad*%
%ADD10C,1.350000*%
%TD*%
%TA.AperFunction,ComponentPad*%
%ADD11C,1.600000*%
%TD*%
%TA.AperFunction,ViaPad*%
%ADD12C,0.800000*%
%TD*%
%TA.AperFunction,Conductor*%
%ADD13C,0.500000*%
%TD*%
G04 APERTURE END LIST*
D10*
%TO.N,GND*%
%TO.C,U2*%
X153416000Y-112522000D03*
%TD*%
D11*
%TO.N,Net-(D3-Pad1)*%
%TO.C,D3*%
X122174000Y-105156000D03*
%TD*%
%TO.N,Net-(C11-Pad1)*%
%TO.C,D1*%
X122174000Y-102362000D03*
%TD*%
%TO.N,Net-(C7-Pad1)*%
%TO.C,D2*%
X122174000Y-107950000D03*
%TD*%
D10*
%TO.N,GND*%
%TO.C,U5*%
X101600000Y-112522000D03*
%TD*%
%TO.N,GND*%
%TO.C,U4*%
X153416000Y-100584000D03*
%TD*%
%TO.N,GND*%
%TO.C,U3*%
X101600000Y-100584000D03*
%TD*%
D11*
%TO.N,Net-(D20-Pad1)*%
%TO.C,D20*%
X122174000Y-110744000D03*
%TD*%
D12*
%TO.N,GND*%
X130759200Y-109397800D03*
X114452400Y-108381800D03*
X128727200Y-111988600D03*
X146050000Y-112191800D03*
X146329400Y-101041200D03*
X138531600Y-110236000D03*
X110693200Y-108204000D03*
X146202400Y-104698800D03*
X100685600Y-105232200D03*
X131419600Y-105765600D03*
X150241000Y-103936800D03*
X104267000Y-110236000D03*
X119354600Y-111683800D03*
X139928600Y-112293400D03*
X104419400Y-101523800D03*
X108661200Y-100482400D03*
X151917400Y-112852200D03*
X105664000Y-111683800D03*
X153441400Y-103022400D03*
X103149400Y-99720400D03*
X110210600Y-111709200D03*
X150215600Y-106934000D03*
X141554200Y-112318800D03*
X102412800Y-106400600D03*
X110693200Y-106146600D03*
X148082000Y-107264200D03*
X153466800Y-105867200D03*
X100711000Y-107238800D03*
X146634200Y-109778800D03*
X108254800Y-111709200D03*
X148158200Y-103047800D03*
X150164800Y-109626400D03*
X119303800Y-109372400D03*
X142011400Y-110236000D03*
X132791200Y-104648000D03*
X138633200Y-104775000D03*
X100812600Y-110769400D03*
X120091200Y-102920800D03*
%TO.N,Net-(C11-Pad1)*%
X122478800Y-106527600D03*
%TO.N,Net-(C7-Pad1)*%
X121920000Y-103759000D03*
%TO.N,Net-(C14-Pad1)*%
X146075400Y-108280200D03*
X149682200Y-101092000D03*
%TO.N,Net-(D4-Pad1)*%
X131572000Y-112293400D03*
X101600000Y-109042200D03*
%TO.N,Net-(D5-Pad1)*%
X149682200Y-111760000D03*
X102971600Y-109067600D03*
%TO.N,Net-(D7-Pad1)*%
X148259800Y-111734600D03*
X148285200Y-101092000D03*
%TO.N,Net-(D11-Pad1)*%
X112014000Y-102082600D03*
X153441400Y-109677200D03*
%TO.N,Net-(D13-Pad1)*%
X101549200Y-103657400D03*
%TO.N,Net-(D15-Pad1)*%
X106400600Y-101676200D03*
X102997000Y-103657400D03*
%TO.N,Net-(IC3-Pad3)*%
X122986800Y-111887000D03*
%TD*%
D13*
%TO.N,Net-(C14-Pad1)*%
X149682200Y-101498400D02*
X149682200Y-101092000D01*
X146079000Y-108276600D02*
X148822200Y-108276600D01*
X146075400Y-108280200D02*
X146079000Y-108276600D01*
X148996400Y-102184200D02*
X149682200Y-101498400D01*
X148996400Y-108102400D02*
X148996400Y-102184200D01*
X148822200Y-108276600D02*
X148996400Y-108102400D01*
%TO.N,Net-(D4-Pad1)*%
X102489000Y-110337600D02*
X102844600Y-110337600D01*
X103682800Y-111175800D02*
X103682800Y-112344200D01*
X101600000Y-109448600D02*
X102489000Y-110337600D01*
X103682800Y-112344200D02*
X104521000Y-113182400D01*
X102844600Y-110337600D02*
X103682800Y-111175800D01*
X130683000Y-113182400D02*
X131572000Y-112293400D01*
X101600000Y-109042200D02*
X101600000Y-109448600D01*
X104521000Y-113182400D02*
X130683000Y-113182400D01*
%TO.N,Net-(D11-Pad1)*%
X151587200Y-100228400D02*
X151003000Y-99644200D01*
X111709200Y-102082600D02*
X111963200Y-102082600D01*
X151003000Y-99644200D02*
X111810800Y-99644200D01*
X111810800Y-99644200D02*
X111328200Y-100126800D01*
X151587200Y-108254800D02*
X151587200Y-100228400D01*
X151968200Y-108635800D02*
X151587200Y-108254800D01*
X111328200Y-101701600D02*
X111709200Y-102082600D01*
X111328200Y-100126800D02*
X111328200Y-101701600D01*
X153441400Y-109677200D02*
X152400000Y-108635800D01*
X152400000Y-108635800D02*
X151968200Y-108635800D01*
%TO.N,Net-(D15-Pad1)*%
X104775000Y-99644200D02*
X105816400Y-99644200D01*
X102463600Y-103124000D02*
X102463600Y-101955600D01*
X106400600Y-100228400D02*
X106400600Y-101676200D01*
X102463600Y-101955600D02*
X104775000Y-99644200D01*
X102997000Y-103657400D02*
X102463600Y-103124000D01*
X105816400Y-99644200D02*
X106400600Y-100228400D01*
%TD*%
%TA.AperFunction,Conductor*%
%TO.N,GND*%
G36*
X104210412Y-99333407D02*
G01*
X104246376Y-99382907D01*
X104246376Y-99444093D01*
X104222225Y-99483504D01*
X102154670Y-101551059D01*
X102144590Y-101559112D01*
X102144596Y-101559119D01*
X102139226Y-101563690D01*
X102133261Y-101567453D01*
X102103793Y-101600819D01*
X102097384Y-101608076D01*
X102093184Y-101612545D01*
X102081249Y-101624480D01*
X102079137Y-101627298D01*
X102074395Y-101633625D01*
X102069387Y-101639777D01*
X102037599Y-101675770D01*
X102033169Y-101685206D01*
X102022775Y-101702503D01*
X102016530Y-101710836D01*
X102014053Y-101717443D01*
X102014052Y-101717445D01*
X102006887Y-101736558D01*
X102004411Y-101743164D01*
X101999677Y-101755791D01*
X101996597Y-101763102D01*
X101976183Y-101806582D01*
X101975098Y-101813551D01*
X101974581Y-101816871D01*
X101969458Y-101836400D01*
X101968278Y-101839546D01*
X101968277Y-101839550D01*
X101965802Y-101846152D01*
X101965279Y-101853185D01*
X101965279Y-101853187D01*
X101963374Y-101878827D01*
X101963194Y-101881260D01*
X101962245Y-101894028D01*
X101961339Y-101901920D01*
X101959100Y-101916297D01*
X101959100Y-101932667D01*
X101958828Y-101940003D01*
X101955093Y-101990267D01*
X101956565Y-101997162D01*
X101956565Y-101997164D01*
X101956919Y-101998821D01*
X101959100Y-102019489D01*
X101959100Y-102969376D01*
X101940193Y-103027567D01*
X101890693Y-103063531D01*
X101829507Y-103063531D01*
X101813774Y-103056868D01*
X101790751Y-103044678D01*
X101785474Y-103041884D01*
X101708653Y-103022588D01*
X101637623Y-103004746D01*
X101637620Y-103004746D01*
X101631833Y-103003292D01*
X101551893Y-103002873D01*
X101479387Y-103002493D01*
X101479385Y-103002493D01*
X101473421Y-103002462D01*
X101319384Y-103039443D01*
X101265116Y-103067453D01*
X101183920Y-103109361D01*
X101183918Y-103109363D01*
X101178614Y-103112100D01*
X101059239Y-103216238D01*
X100968150Y-103345844D01*
X100910606Y-103493437D01*
X100889929Y-103650496D01*
X100890584Y-103656429D01*
X100890584Y-103656433D01*
X100897512Y-103719183D01*
X100907313Y-103807953D01*
X100914664Y-103828041D01*
X100959701Y-103951113D01*
X100959703Y-103951117D01*
X100961753Y-103956719D01*
X101050108Y-104088205D01*
X101054519Y-104092219D01*
X101054521Y-104092221D01*
X101162861Y-104190802D01*
X101167276Y-104194819D01*
X101181736Y-104202670D01*
X101301247Y-104267560D01*
X101301249Y-104267561D01*
X101306493Y-104270408D01*
X101312267Y-104271923D01*
X101312270Y-104271924D01*
X101432910Y-104303573D01*
X101459722Y-104310607D01*
X101465691Y-104310701D01*
X101465693Y-104310701D01*
X101523702Y-104311612D01*
X101618116Y-104313095D01*
X101628979Y-104310607D01*
X101766709Y-104279063D01*
X101766712Y-104279062D01*
X101772532Y-104277729D01*
X101787089Y-104270408D01*
X101842348Y-104242616D01*
X101914055Y-104206551D01*
X102034514Y-104103669D01*
X102126955Y-103975024D01*
X102181032Y-103840505D01*
X102182199Y-103837601D01*
X102221447Y-103790662D01*
X102280789Y-103775756D01*
X102337559Y-103798578D01*
X102367025Y-103840505D01*
X102407501Y-103951113D01*
X102407503Y-103951117D01*
X102409553Y-103956719D01*
X102497908Y-104088205D01*
X102502319Y-104092219D01*
X102502321Y-104092221D01*
X102610661Y-104190802D01*
X102615076Y-104194819D01*
X102629536Y-104202670D01*
X102749047Y-104267560D01*
X102749049Y-104267561D01*
X102754293Y-104270408D01*
X102760067Y-104271923D01*
X102760070Y-104271924D01*
X102880710Y-104303573D01*
X102907522Y-104310607D01*
X102913491Y-104310701D01*
X102913493Y-104310701D01*
X102971502Y-104311612D01*
X103065916Y-104313095D01*
X103076779Y-104310607D01*
X103214509Y-104279063D01*
X103214512Y-104279062D01*
X103220332Y-104277729D01*
X103234889Y-104270408D01*
X103290148Y-104242616D01*
X103361855Y-104206551D01*
X103482314Y-104103669D01*
X103574755Y-103975024D01*
X103584368Y-103951113D01*
X103631618Y-103833574D01*
X103631619Y-103833572D01*
X103633842Y-103828041D01*
X103636701Y-103807953D01*
X103655706Y-103674414D01*
X103655706Y-103674408D01*
X103656162Y-103671207D01*
X103656307Y-103657400D01*
X103637276Y-103500133D01*
X103632645Y-103487876D01*
X103583390Y-103357530D01*
X103581280Y-103351946D01*
X103557838Y-103317838D01*
X103494933Y-103226309D01*
X103494930Y-103226306D01*
X103491553Y-103221392D01*
X103373275Y-103116011D01*
X103368004Y-103113220D01*
X103238548Y-103044676D01*
X103238545Y-103044675D01*
X103233274Y-103041884D01*
X103079633Y-103003292D01*
X103080108Y-103001403D01*
X103029859Y-102976788D01*
X102997096Y-102944025D01*
X102969319Y-102889508D01*
X102968100Y-102874021D01*
X102968100Y-102205579D01*
X102987007Y-102147388D01*
X102997096Y-102135575D01*
X104954975Y-100177696D01*
X105009492Y-100149919D01*
X105024979Y-100148700D01*
X105566422Y-100148700D01*
X105624613Y-100167607D01*
X105636425Y-100177696D01*
X105867103Y-100408373D01*
X105894881Y-100462890D01*
X105896100Y-100478377D01*
X105896100Y-101224415D01*
X105878097Y-101281340D01*
X105819550Y-101364644D01*
X105780177Y-101465630D01*
X105771989Y-101486633D01*
X105762006Y-101512237D01*
X105761227Y-101518152D01*
X105761227Y-101518153D01*
X105757669Y-101545179D01*
X105741329Y-101669296D01*
X105741984Y-101675229D01*
X105741984Y-101675233D01*
X105751289Y-101759514D01*
X105758713Y-101826753D01*
X105764093Y-101841455D01*
X105811101Y-101969913D01*
X105811103Y-101969917D01*
X105813153Y-101975519D01*
X105901508Y-102107005D01*
X105905919Y-102111019D01*
X105905921Y-102111021D01*
X106009840Y-102205579D01*
X106018676Y-102213619D01*
X106080771Y-102247334D01*
X106152647Y-102286360D01*
X106152649Y-102286361D01*
X106157893Y-102289208D01*
X106163667Y-102290723D01*
X106163670Y-102290724D01*
X106305343Y-102327891D01*
X106311122Y-102329407D01*
X106317091Y-102329501D01*
X106317093Y-102329501D01*
X106375102Y-102330412D01*
X106469516Y-102331895D01*
X106480379Y-102329407D01*
X106618109Y-102297863D01*
X106618112Y-102297862D01*
X106623932Y-102296529D01*
X106638489Y-102289208D01*
X106760118Y-102228035D01*
X106765455Y-102225351D01*
X106864079Y-102141118D01*
X106881376Y-102126345D01*
X106881377Y-102126344D01*
X106885914Y-102122469D01*
X106941784Y-102044718D01*
X106974871Y-101998673D01*
X106974872Y-101998671D01*
X106978355Y-101993824D01*
X106980651Y-101988114D01*
X107035218Y-101852374D01*
X107035219Y-101852372D01*
X107037442Y-101846841D01*
X107038283Y-101840934D01*
X107059306Y-101693214D01*
X107059306Y-101693208D01*
X107059762Y-101690007D01*
X107059907Y-101676200D01*
X107047387Y-101572738D01*
X107041593Y-101524855D01*
X107041592Y-101524852D01*
X107040876Y-101518933D01*
X107036245Y-101506676D01*
X106986990Y-101376330D01*
X106984880Y-101370746D01*
X106938272Y-101302930D01*
X106922511Y-101279998D01*
X106905100Y-101223924D01*
X106905100Y-100296015D01*
X106906533Y-100283189D01*
X106906525Y-100283188D01*
X106907091Y-100276155D01*
X106908647Y-100269277D01*
X106905290Y-100215170D01*
X106905100Y-100209039D01*
X106905100Y-100192174D01*
X106903481Y-100180866D01*
X106902672Y-100172974D01*
X106900135Y-100132082D01*
X106900135Y-100132081D01*
X106899698Y-100125042D01*
X106896158Y-100115235D01*
X106891278Y-100095660D01*
X106890802Y-100092334D01*
X106890801Y-100092331D01*
X106889801Y-100085348D01*
X106886882Y-100078928D01*
X106886880Y-100078921D01*
X106869929Y-100041640D01*
X106866933Y-100034281D01*
X106853024Y-99995753D01*
X106850628Y-99989116D01*
X106844483Y-99980704D01*
X106834301Y-99963281D01*
X106829988Y-99953795D01*
X106798631Y-99917404D01*
X106793712Y-99911208D01*
X106785127Y-99899456D01*
X106773544Y-99887873D01*
X106768549Y-99882492D01*
X106740261Y-99849662D01*
X106740260Y-99849661D01*
X106735656Y-99844318D01*
X106728320Y-99839563D01*
X106712163Y-99826492D01*
X106369175Y-99483504D01*
X106341398Y-99428987D01*
X106350969Y-99368555D01*
X106394234Y-99325290D01*
X106439179Y-99314500D01*
X111188023Y-99314500D01*
X111246214Y-99333407D01*
X111282178Y-99382907D01*
X111282178Y-99444093D01*
X111258026Y-99483504D01*
X111019271Y-99722258D01*
X111009191Y-99730313D01*
X111009196Y-99730319D01*
X111003826Y-99734890D01*
X110997861Y-99738653D01*
X110964774Y-99776117D01*
X110961984Y-99779276D01*
X110957784Y-99783745D01*
X110945849Y-99795680D01*
X110943737Y-99798498D01*
X110938995Y-99804825D01*
X110933987Y-99810977D01*
X110902199Y-99846970D01*
X110897769Y-99856406D01*
X110887375Y-99873703D01*
X110881130Y-99882036D01*
X110878653Y-99888643D01*
X110878652Y-99888645D01*
X110864277Y-99926991D01*
X110861197Y-99934302D01*
X110840783Y-99977782D01*
X110839698Y-99984751D01*
X110839181Y-99988071D01*
X110834058Y-100007600D01*
X110832878Y-100010746D01*
X110832877Y-100010750D01*
X110830402Y-100017352D01*
X110829879Y-100024385D01*
X110829879Y-100024387D01*
X110826845Y-100065228D01*
X110825939Y-100073120D01*
X110823700Y-100087497D01*
X110823700Y-100103867D01*
X110823428Y-100111203D01*
X110819693Y-100161467D01*
X110821165Y-100168362D01*
X110821165Y-100168364D01*
X110821519Y-100170021D01*
X110823700Y-100190689D01*
X110823700Y-101633992D01*
X110822268Y-101646813D01*
X110822276Y-101646814D01*
X110821710Y-101653846D01*
X110820154Y-101660724D01*
X110822995Y-101706524D01*
X110823510Y-101714820D01*
X110823700Y-101720950D01*
X110823700Y-101737826D01*
X110824200Y-101741315D01*
X110824200Y-101741319D01*
X110825319Y-101749129D01*
X110826129Y-101757032D01*
X110826522Y-101763360D01*
X110828550Y-101796053D01*
X110829102Y-101804959D01*
X110832642Y-101814766D01*
X110837522Y-101834340D01*
X110838999Y-101844652D01*
X110858871Y-101888360D01*
X110861863Y-101895709D01*
X110868395Y-101913801D01*
X110878172Y-101940884D01*
X110884317Y-101949296D01*
X110894499Y-101966719D01*
X110898812Y-101976205D01*
X110930169Y-102012596D01*
X110935088Y-102018792D01*
X110943673Y-102030544D01*
X110955256Y-102042127D01*
X110960251Y-102047508D01*
X110987721Y-102079388D01*
X110993144Y-102085682D01*
X110999064Y-102089519D01*
X111000480Y-102090437D01*
X111016637Y-102103508D01*
X111304659Y-102391530D01*
X111312712Y-102401610D01*
X111312719Y-102401604D01*
X111317290Y-102406974D01*
X111321053Y-102412939D01*
X111345103Y-102434179D01*
X111361676Y-102448816D01*
X111366145Y-102453016D01*
X111378080Y-102464951D01*
X111387224Y-102471804D01*
X111393373Y-102476810D01*
X111429370Y-102508601D01*
X111438800Y-102513028D01*
X111456101Y-102523424D01*
X111464435Y-102529670D01*
X111471041Y-102532146D01*
X111471040Y-102532146D01*
X111509390Y-102546523D01*
X111516712Y-102549608D01*
X111560182Y-102570017D01*
X111564325Y-102570662D01*
X111600401Y-102591197D01*
X111632076Y-102620019D01*
X111646536Y-102627870D01*
X111766047Y-102692760D01*
X111766049Y-102692761D01*
X111771293Y-102695608D01*
X111777067Y-102697123D01*
X111777070Y-102697124D01*
X111918743Y-102734291D01*
X111924522Y-102735807D01*
X111930491Y-102735901D01*
X111930493Y-102735901D01*
X111988502Y-102736812D01*
X112082916Y-102738295D01*
X112093779Y-102735807D01*
X112231509Y-102704263D01*
X112231512Y-102704262D01*
X112237332Y-102702929D01*
X112251889Y-102695608D01*
X112373518Y-102634435D01*
X112378855Y-102631751D01*
X112499314Y-102528869D01*
X112579265Y-102417606D01*
X112588271Y-102405073D01*
X112588272Y-102405071D01*
X112591755Y-102400224D01*
X112594591Y-102393171D01*
X112648618Y-102258774D01*
X112648619Y-102258772D01*
X112650842Y-102253241D01*
X112653063Y-102237638D01*
X112672706Y-102099614D01*
X112672706Y-102099608D01*
X112673162Y-102096407D01*
X112673307Y-102082600D01*
X112658816Y-101962849D01*
X112654993Y-101931255D01*
X112654992Y-101931252D01*
X112654276Y-101925333D01*
X112649919Y-101913801D01*
X112600390Y-101782730D01*
X112598280Y-101777146D01*
X112578039Y-101747695D01*
X112511933Y-101651509D01*
X112511930Y-101651506D01*
X112508553Y-101646592D01*
X112457178Y-101600819D01*
X112394729Y-101545179D01*
X112394727Y-101545178D01*
X112390275Y-101541211D01*
X112359384Y-101524855D01*
X112255548Y-101469876D01*
X112255545Y-101469875D01*
X112250274Y-101467084D01*
X112173453Y-101447788D01*
X112102423Y-101429946D01*
X112102420Y-101429946D01*
X112096633Y-101428492D01*
X112017427Y-101428077D01*
X111944188Y-101427693D01*
X111944186Y-101427693D01*
X111938221Y-101427662D01*
X111938225Y-101426841D01*
X111883106Y-101415731D01*
X111841688Y-101370695D01*
X111832700Y-101329478D01*
X111832700Y-100376779D01*
X111851607Y-100318588D01*
X111861696Y-100306775D01*
X111990775Y-100177696D01*
X112045292Y-100149919D01*
X112060779Y-100148700D01*
X150753022Y-100148700D01*
X150811213Y-100167607D01*
X150823025Y-100177696D01*
X151053703Y-100408373D01*
X151081481Y-100462890D01*
X151082700Y-100478377D01*
X151082700Y-108187192D01*
X151081268Y-108200013D01*
X151081276Y-108200014D01*
X151080710Y-108207046D01*
X151079154Y-108213924D01*
X151080220Y-108231101D01*
X151082510Y-108268020D01*
X151082700Y-108274150D01*
X151082700Y-108291026D01*
X151083200Y-108294515D01*
X151083200Y-108294519D01*
X151084319Y-108302329D01*
X151085129Y-108310232D01*
X151088102Y-108358159D01*
X151091642Y-108367966D01*
X151096522Y-108387540D01*
X151097999Y-108397852D01*
X151117871Y-108441560D01*
X151120863Y-108448909D01*
X151133987Y-108485262D01*
X151137172Y-108494084D01*
X151143317Y-108502496D01*
X151153499Y-108519919D01*
X151157812Y-108529405D01*
X151189169Y-108565796D01*
X151194088Y-108571992D01*
X151198055Y-108577423D01*
X151199587Y-108579519D01*
X151202673Y-108583744D01*
X151214256Y-108595327D01*
X151219251Y-108600708D01*
X151245863Y-108631592D01*
X151252144Y-108638882D01*
X151258064Y-108642719D01*
X151259480Y-108643637D01*
X151275637Y-108656708D01*
X151563659Y-108944730D01*
X151571712Y-108954810D01*
X151571719Y-108954804D01*
X151576290Y-108960174D01*
X151580053Y-108966139D01*
X151599584Y-108983388D01*
X151620676Y-109002016D01*
X151625145Y-109006216D01*
X151637080Y-109018151D01*
X151643509Y-109022969D01*
X151646224Y-109025004D01*
X151652373Y-109030010D01*
X151688370Y-109061801D01*
X151697800Y-109066228D01*
X151715101Y-109076624D01*
X151723435Y-109082870D01*
X151730041Y-109085346D01*
X151730040Y-109085346D01*
X151768390Y-109099723D01*
X151775712Y-109102808D01*
X151819182Y-109123217D01*
X151826152Y-109124302D01*
X151826155Y-109124303D01*
X151829471Y-109124819D01*
X151849000Y-109129942D01*
X151852152Y-109131124D01*
X151852154Y-109131125D01*
X151858752Y-109133598D01*
X151906642Y-109137157D01*
X151914525Y-109138063D01*
X151917455Y-109138519D01*
X151925118Y-109139712D01*
X151925122Y-109139712D01*
X151928897Y-109140300D01*
X151945267Y-109140300D01*
X151952604Y-109140572D01*
X152002866Y-109144307D01*
X152009761Y-109142835D01*
X152009763Y-109142835D01*
X152011420Y-109142481D01*
X152032088Y-109140300D01*
X152150021Y-109140300D01*
X152208212Y-109159207D01*
X152220025Y-109169296D01*
X152765129Y-109714400D01*
X152793527Y-109773539D01*
X152795248Y-109789127D01*
X152799513Y-109827753D01*
X152805137Y-109843122D01*
X152851901Y-109970913D01*
X152851903Y-109970917D01*
X152853953Y-109976519D01*
X152942308Y-110108005D01*
X152946719Y-110112019D01*
X152946721Y-110112021D01*
X152996840Y-110157625D01*
X153059476Y-110214619D01*
X153073936Y-110222470D01*
X153193447Y-110287360D01*
X153193449Y-110287361D01*
X153198693Y-110290208D01*
X153204467Y-110291723D01*
X153204470Y-110291724D01*
X153346143Y-110328891D01*
X153351922Y-110330407D01*
X153357891Y-110330501D01*
X153357893Y-110330501D01*
X153415902Y-110331412D01*
X153510316Y-110332895D01*
X153516132Y-110331563D01*
X153658909Y-110298863D01*
X153658912Y-110298862D01*
X153664732Y-110297529D01*
X153679289Y-110290208D01*
X153800918Y-110229035D01*
X153806255Y-110226351D01*
X153926714Y-110123469D01*
X153994834Y-110028670D01*
X154015671Y-109999673D01*
X154015672Y-109999671D01*
X154019155Y-109994824D01*
X154023541Y-109983915D01*
X154076018Y-109853374D01*
X154076019Y-109853372D01*
X154078242Y-109847841D01*
X154079723Y-109837437D01*
X154100106Y-109694214D01*
X154100106Y-109694208D01*
X154100562Y-109691007D01*
X154100707Y-109677200D01*
X154086354Y-109558589D01*
X154082393Y-109525855D01*
X154082392Y-109525852D01*
X154081676Y-109519933D01*
X154068409Y-109484822D01*
X154027790Y-109377330D01*
X154025680Y-109371746D01*
X154022300Y-109366828D01*
X153939333Y-109246109D01*
X153939330Y-109246106D01*
X153935953Y-109241192D01*
X153855258Y-109169296D01*
X153822129Y-109139779D01*
X153822127Y-109139778D01*
X153817675Y-109135811D01*
X153808823Y-109131124D01*
X153682948Y-109064476D01*
X153682945Y-109064475D01*
X153677674Y-109061684D01*
X153524033Y-109023092D01*
X153524508Y-109021203D01*
X153474259Y-108996588D01*
X153425245Y-108947574D01*
X153397468Y-108893057D01*
X153407039Y-108832625D01*
X153450304Y-108789360D01*
X153475354Y-108781677D01*
X153475252Y-108781303D01*
X153606384Y-108745552D01*
X153722212Y-108674434D01*
X153747087Y-108646953D01*
X153808691Y-108578893D01*
X153808691Y-108578892D01*
X153813423Y-108573665D01*
X153872686Y-108451347D01*
X153874335Y-108441549D01*
X153894602Y-108321082D01*
X153894602Y-108321079D01*
X153895236Y-108317312D01*
X153895379Y-108305600D01*
X153876111Y-108171054D01*
X153862745Y-108141658D01*
X153822775Y-108053749D01*
X153822775Y-108053748D01*
X153819854Y-108047325D01*
X153738371Y-107952759D01*
X153735737Y-107949702D01*
X153735736Y-107949701D01*
X153731132Y-107944358D01*
X153617077Y-107870431D01*
X153610322Y-107868411D01*
X153610318Y-107868409D01*
X153493618Y-107833509D01*
X153486857Y-107831487D01*
X153410213Y-107831018D01*
X153357992Y-107830699D01*
X153357991Y-107830699D01*
X153350941Y-107830656D01*
X153344164Y-107832593D01*
X153344163Y-107832593D01*
X153227035Y-107866068D01*
X153227033Y-107866069D01*
X153220255Y-107868006D01*
X153105305Y-107940535D01*
X153015332Y-108042410D01*
X152957568Y-108165443D01*
X152956483Y-108172412D01*
X152945741Y-108241400D01*
X152918106Y-108295989D01*
X152863662Y-108323908D01*
X152803205Y-108314495D01*
X152782386Y-108300372D01*
X152747525Y-108269584D01*
X152743055Y-108265384D01*
X152731120Y-108253449D01*
X152721975Y-108246595D01*
X152715823Y-108241587D01*
X152679830Y-108209799D01*
X152670394Y-108205369D01*
X152653097Y-108194975D01*
X152650411Y-108192962D01*
X152650410Y-108192962D01*
X152644764Y-108188730D01*
X152638157Y-108186253D01*
X152638155Y-108186252D01*
X152616241Y-108178037D01*
X152599803Y-108171874D01*
X152592498Y-108168797D01*
X152549018Y-108148383D01*
X152542049Y-108147298D01*
X152538729Y-108146781D01*
X152519200Y-108141658D01*
X152516054Y-108140478D01*
X152516050Y-108140477D01*
X152509448Y-108138002D01*
X152502415Y-108137479D01*
X152502413Y-108137479D01*
X152476773Y-108135574D01*
X152461568Y-108134444D01*
X152453680Y-108133539D01*
X152439303Y-108131300D01*
X152422933Y-108131300D01*
X152415597Y-108131028D01*
X152412348Y-108130787D01*
X152365333Y-108127293D01*
X152358438Y-108128765D01*
X152358436Y-108128765D01*
X152356779Y-108129119D01*
X152336111Y-108131300D01*
X152218179Y-108131300D01*
X152159988Y-108112393D01*
X152148175Y-108102304D01*
X152120696Y-108074825D01*
X152092919Y-108020308D01*
X152091700Y-108004821D01*
X152091700Y-100296015D01*
X152093133Y-100283189D01*
X152093125Y-100283188D01*
X152093691Y-100276155D01*
X152095247Y-100269277D01*
X152091890Y-100215170D01*
X152091700Y-100209039D01*
X152091700Y-100192174D01*
X152090081Y-100180866D01*
X152089272Y-100172974D01*
X152086735Y-100132082D01*
X152086735Y-100132081D01*
X152086298Y-100125042D01*
X152082758Y-100115235D01*
X152077878Y-100095660D01*
X152077402Y-100092334D01*
X152077401Y-100092331D01*
X152076401Y-100085348D01*
X152073482Y-100078928D01*
X152073480Y-100078921D01*
X152056529Y-100041640D01*
X152053533Y-100034281D01*
X152039624Y-99995753D01*
X152037228Y-99989116D01*
X152031083Y-99980704D01*
X152020901Y-99963281D01*
X152016588Y-99953795D01*
X151985231Y-99917404D01*
X151980312Y-99911208D01*
X151971727Y-99899456D01*
X151960144Y-99887873D01*
X151955149Y-99882492D01*
X151926861Y-99849662D01*
X151926860Y-99849661D01*
X151922256Y-99844318D01*
X151914920Y-99839563D01*
X151898763Y-99826492D01*
X151555775Y-99483504D01*
X151527998Y-99428987D01*
X151537569Y-99368555D01*
X151580834Y-99325290D01*
X151625779Y-99314500D01*
X154654500Y-99314500D01*
X154712691Y-99333407D01*
X154748655Y-99382907D01*
X154753500Y-99413500D01*
X154753500Y-113692500D01*
X154734593Y-113750691D01*
X154685093Y-113786655D01*
X154654500Y-113791500D01*
X131013295Y-113791500D01*
X130955104Y-113772593D01*
X130919140Y-113723093D01*
X130919140Y-113661907D01*
X130957747Y-113611954D01*
X130957604Y-113611788D01*
X130957605Y-113611788D01*
X130993996Y-113580431D01*
X131000192Y-113575512D01*
X131011944Y-113566927D01*
X131023527Y-113555344D01*
X131028908Y-113550349D01*
X131061738Y-113522061D01*
X131061739Y-113522060D01*
X131067082Y-113517456D01*
X131071837Y-113510120D01*
X131084908Y-113493963D01*
X131606328Y-112972543D01*
X131654230Y-112946046D01*
X131789509Y-112915063D01*
X131789512Y-112915062D01*
X131795332Y-112913729D01*
X131936855Y-112842551D01*
X132057314Y-112739669D01*
X132115286Y-112658993D01*
X132146271Y-112615873D01*
X132146272Y-112615871D01*
X132149755Y-112611024D01*
X132154152Y-112600088D01*
X132206618Y-112469574D01*
X132206619Y-112469572D01*
X132208842Y-112464041D01*
X132209683Y-112458134D01*
X132230706Y-112310414D01*
X132230706Y-112310408D01*
X132231162Y-112307207D01*
X132231307Y-112293400D01*
X132219894Y-112199085D01*
X132212993Y-112142055D01*
X132212992Y-112142052D01*
X132212276Y-112136133D01*
X132207645Y-112123876D01*
X132158390Y-111993530D01*
X132156280Y-111987946D01*
X132148733Y-111976965D01*
X132069933Y-111862309D01*
X132069930Y-111862306D01*
X132066553Y-111857392D01*
X132005503Y-111802999D01*
X131952729Y-111755979D01*
X131952727Y-111755978D01*
X131948275Y-111752011D01*
X131943004Y-111749220D01*
X131902353Y-111727696D01*
X147600529Y-111727696D01*
X147601184Y-111733629D01*
X147601184Y-111733633D01*
X147608843Y-111802999D01*
X147617913Y-111885153D01*
X147624815Y-111904014D01*
X147670301Y-112028313D01*
X147670303Y-112028317D01*
X147672353Y-112033919D01*
X147760708Y-112165405D01*
X147765119Y-112169419D01*
X147765121Y-112169421D01*
X147873461Y-112268002D01*
X147877876Y-112272019D01*
X147942684Y-112307207D01*
X148011847Y-112344760D01*
X148011849Y-112344761D01*
X148017093Y-112347608D01*
X148022867Y-112349123D01*
X148022870Y-112349124D01*
X148164543Y-112386291D01*
X148170322Y-112387807D01*
X148176291Y-112387901D01*
X148176293Y-112387901D01*
X148234302Y-112388812D01*
X148328716Y-112390295D01*
X148339579Y-112387807D01*
X148477309Y-112356263D01*
X148477312Y-112356262D01*
X148483132Y-112354929D01*
X148497689Y-112347608D01*
X148556946Y-112317805D01*
X148624655Y-112283751D01*
X148732933Y-112191273D01*
X148740576Y-112184745D01*
X148740577Y-112184744D01*
X148745114Y-112180869D01*
X148819303Y-112077624D01*
X148834071Y-112057073D01*
X148834072Y-112057071D01*
X148837555Y-112052224D01*
X148874637Y-111959980D01*
X148913885Y-111913041D01*
X148973227Y-111898135D01*
X149029997Y-111920957D01*
X149059463Y-111962884D01*
X149092701Y-112053713D01*
X149092703Y-112053717D01*
X149094753Y-112059319D01*
X149183108Y-112190805D01*
X149187519Y-112194819D01*
X149187521Y-112194821D01*
X149292329Y-112290188D01*
X149300276Y-112297419D01*
X149345219Y-112321821D01*
X149434247Y-112370160D01*
X149434249Y-112370161D01*
X149439493Y-112373008D01*
X149445267Y-112374523D01*
X149445270Y-112374524D01*
X149541015Y-112399642D01*
X149592722Y-112413207D01*
X149598691Y-112413301D01*
X149598693Y-112413301D01*
X149656702Y-112414212D01*
X149751116Y-112415695D01*
X149761979Y-112413207D01*
X149899709Y-112381663D01*
X149899712Y-112381662D01*
X149905532Y-112380329D01*
X149920089Y-112373008D01*
X149999101Y-112333269D01*
X150047055Y-112309151D01*
X150167514Y-112206269D01*
X150222724Y-112129437D01*
X150256471Y-112082473D01*
X150256472Y-112082471D01*
X150259955Y-112077624D01*
X150268217Y-112057073D01*
X150316818Y-111936174D01*
X150316819Y-111936172D01*
X150319042Y-111930641D01*
X150319883Y-111924734D01*
X150340906Y-111777014D01*
X150340906Y-111777008D01*
X150341362Y-111773807D01*
X150341507Y-111760000D01*
X150326900Y-111639292D01*
X150323193Y-111608655D01*
X150323192Y-111608652D01*
X150322476Y-111602733D01*
X150308247Y-111565076D01*
X150268590Y-111460130D01*
X150266480Y-111454546D01*
X150245643Y-111424228D01*
X150180133Y-111328909D01*
X150180130Y-111328906D01*
X150176753Y-111323992D01*
X150081027Y-111238704D01*
X150062929Y-111222579D01*
X150062927Y-111222578D01*
X150058475Y-111218611D01*
X150053204Y-111215820D01*
X149923748Y-111147276D01*
X149923745Y-111147275D01*
X149918474Y-111144484D01*
X149828468Y-111121876D01*
X149770623Y-111107346D01*
X149770620Y-111107346D01*
X149764833Y-111105892D01*
X149684893Y-111105473D01*
X149612387Y-111105093D01*
X149612385Y-111105093D01*
X149606421Y-111105062D01*
X149452384Y-111142043D01*
X149388572Y-111174979D01*
X149316920Y-111211961D01*
X149316918Y-111211963D01*
X149311614Y-111214700D01*
X149192239Y-111318838D01*
X149188810Y-111323717D01*
X149110791Y-111434727D01*
X149101150Y-111448444D01*
X149067990Y-111533496D01*
X149029238Y-111580841D01*
X148970056Y-111596368D01*
X148913050Y-111574143D01*
X148883145Y-111532527D01*
X148846189Y-111434727D01*
X148846189Y-111434726D01*
X148844080Y-111429146D01*
X148793654Y-111355775D01*
X148757733Y-111303509D01*
X148757730Y-111303506D01*
X148754353Y-111298592D01*
X148717029Y-111265338D01*
X148640529Y-111197179D01*
X148640527Y-111197178D01*
X148636075Y-111193211D01*
X148630804Y-111190420D01*
X148501348Y-111121876D01*
X148501345Y-111121875D01*
X148496074Y-111119084D01*
X148419253Y-111099788D01*
X148348223Y-111081946D01*
X148348220Y-111081946D01*
X148342433Y-111080492D01*
X148262493Y-111080073D01*
X148189987Y-111079693D01*
X148189985Y-111079693D01*
X148184021Y-111079662D01*
X148029984Y-111116643D01*
X147978725Y-111143100D01*
X147894520Y-111186561D01*
X147894518Y-111186563D01*
X147889214Y-111189300D01*
X147769839Y-111293438D01*
X147678750Y-111423044D01*
X147621206Y-111570637D01*
X147620427Y-111576552D01*
X147620427Y-111576553D01*
X147616201Y-111608655D01*
X147600529Y-111727696D01*
X131902353Y-111727696D01*
X131813548Y-111680676D01*
X131813545Y-111680675D01*
X131808274Y-111677884D01*
X131731453Y-111658588D01*
X131660423Y-111640746D01*
X131660420Y-111640746D01*
X131654633Y-111639292D01*
X131574693Y-111638873D01*
X131502187Y-111638493D01*
X131502185Y-111638493D01*
X131496221Y-111638462D01*
X131342184Y-111675443D01*
X131270157Y-111712619D01*
X131206720Y-111745361D01*
X131206718Y-111745363D01*
X131201414Y-111748100D01*
X131082039Y-111852238D01*
X130990950Y-111981844D01*
X130933406Y-112129437D01*
X130932627Y-112135352D01*
X130932627Y-112135353D01*
X130924286Y-112198710D01*
X130896137Y-112255792D01*
X130503025Y-112648904D01*
X130448508Y-112676681D01*
X130433021Y-112677900D01*
X123288163Y-112677900D01*
X123229972Y-112658993D01*
X123194008Y-112609493D01*
X123194008Y-112548307D01*
X123229972Y-112498807D01*
X123243681Y-112490456D01*
X123315790Y-112454189D01*
X123351655Y-112436151D01*
X123472114Y-112333269D01*
X123527787Y-112255792D01*
X123561071Y-112209473D01*
X123561072Y-112209471D01*
X123564555Y-112204624D01*
X123566933Y-112198710D01*
X123621418Y-112063174D01*
X123621419Y-112063172D01*
X123623642Y-112057641D01*
X123624483Y-112051734D01*
X123645506Y-111904014D01*
X123645506Y-111904008D01*
X123645962Y-111900807D01*
X123646107Y-111887000D01*
X123632798Y-111777014D01*
X123627793Y-111735655D01*
X123627792Y-111735652D01*
X123627076Y-111729733D01*
X123571080Y-111581546D01*
X123565992Y-111574143D01*
X123484733Y-111455909D01*
X123484730Y-111455906D01*
X123481353Y-111450992D01*
X123448360Y-111421596D01*
X123367529Y-111349579D01*
X123367527Y-111349578D01*
X123363075Y-111345611D01*
X123321725Y-111323717D01*
X123228348Y-111274276D01*
X123228345Y-111274275D01*
X123223074Y-111271484D01*
X123217286Y-111270030D01*
X123211715Y-111267892D01*
X123212695Y-111265338D01*
X123170273Y-111238704D01*
X123147473Y-111181925D01*
X123152307Y-111143980D01*
X123205743Y-110983344D01*
X123205743Y-110983342D01*
X123207270Y-110978753D01*
X123211768Y-110943153D01*
X123224499Y-110842372D01*
X123233189Y-110773586D01*
X123233602Y-110744000D01*
X123213422Y-110538189D01*
X123209047Y-110523696D01*
X123155049Y-110344849D01*
X123153651Y-110340217D01*
X123086869Y-110214619D01*
X123058838Y-110161899D01*
X123058836Y-110161895D01*
X123056565Y-110157625D01*
X123043540Y-110141654D01*
X122928924Y-110001121D01*
X122928923Y-110001120D01*
X122925863Y-109997368D01*
X122822186Y-109911599D01*
X122770249Y-109868633D01*
X122770247Y-109868632D01*
X122766522Y-109865550D01*
X122617564Y-109785009D01*
X122588866Y-109769492D01*
X122588865Y-109769492D01*
X122584612Y-109767192D01*
X122468794Y-109731340D01*
X122391684Y-109707470D01*
X122391680Y-109707469D01*
X122387063Y-109706040D01*
X122382256Y-109705535D01*
X122382252Y-109705534D01*
X122186213Y-109684930D01*
X122186211Y-109684930D01*
X122181397Y-109684424D01*
X122128224Y-109689263D01*
X121980269Y-109702727D01*
X121980264Y-109702728D01*
X121975450Y-109703166D01*
X121907364Y-109723205D01*
X121781713Y-109760186D01*
X121781710Y-109760187D01*
X121777066Y-109761554D01*
X121593801Y-109857363D01*
X121432635Y-109986943D01*
X121421953Y-109999673D01*
X121302817Y-110141654D01*
X121302814Y-110141658D01*
X121299708Y-110145360D01*
X121200082Y-110326578D01*
X121137553Y-110523696D01*
X121135388Y-110542999D01*
X121122898Y-110654350D01*
X121114501Y-110729206D01*
X121120199Y-110797062D01*
X121130516Y-110919912D01*
X121131806Y-110935278D01*
X121133139Y-110939926D01*
X121133139Y-110939927D01*
X121187144Y-111128265D01*
X121188807Y-111134066D01*
X121191022Y-111138376D01*
X121219210Y-111193224D01*
X121283334Y-111317995D01*
X121411786Y-111480061D01*
X121415466Y-111483193D01*
X121415468Y-111483195D01*
X121511678Y-111565076D01*
X121569271Y-111614091D01*
X121749789Y-111714980D01*
X121754387Y-111716474D01*
X121941861Y-111777388D01*
X121941863Y-111777389D01*
X121946466Y-111778884D01*
X122151809Y-111803370D01*
X122156631Y-111802999D01*
X122156632Y-111802999D01*
X122169122Y-111802038D01*
X122222163Y-111797956D01*
X122281631Y-111812343D01*
X122321287Y-111858937D01*
X122328159Y-111885798D01*
X122344913Y-112037553D01*
X122350282Y-112052224D01*
X122397301Y-112180713D01*
X122397303Y-112180717D01*
X122399353Y-112186319D01*
X122487708Y-112317805D01*
X122492119Y-112321819D01*
X122492121Y-112321821D01*
X122595185Y-112415601D01*
X122604876Y-112424419D01*
X122659705Y-112454189D01*
X122729154Y-112491897D01*
X122771271Y-112536280D01*
X122779257Y-112596942D01*
X122750062Y-112650712D01*
X122694837Y-112677053D01*
X122681915Y-112677900D01*
X104770979Y-112677900D01*
X104712788Y-112658993D01*
X104700975Y-112648904D01*
X104216296Y-112164225D01*
X104188519Y-112109708D01*
X104187300Y-112094221D01*
X104187300Y-111243409D01*
X104188732Y-111230588D01*
X104188724Y-111230587D01*
X104189290Y-111223555D01*
X104190846Y-111216677D01*
X104187490Y-111162580D01*
X104187300Y-111156451D01*
X104187300Y-111139574D01*
X104186801Y-111136089D01*
X104186800Y-111136077D01*
X104185681Y-111128265D01*
X104184871Y-111120362D01*
X104182335Y-111079482D01*
X104182335Y-111079480D01*
X104181898Y-111072442D01*
X104178358Y-111062635D01*
X104173478Y-111043060D01*
X104173002Y-111039734D01*
X104173001Y-111039731D01*
X104172001Y-111032748D01*
X104169082Y-111026328D01*
X104169080Y-111026321D01*
X104152129Y-110989040D01*
X104149133Y-110981681D01*
X104135224Y-110943153D01*
X104132828Y-110936516D01*
X104126683Y-110928104D01*
X104116501Y-110910681D01*
X104112188Y-110901195D01*
X104080831Y-110864804D01*
X104075912Y-110858608D01*
X104067327Y-110846856D01*
X104055744Y-110835273D01*
X104050749Y-110829892D01*
X104022461Y-110797062D01*
X104022460Y-110797061D01*
X104017856Y-110791718D01*
X104010520Y-110786963D01*
X103994363Y-110773892D01*
X103249141Y-110028670D01*
X103241088Y-110018590D01*
X103241081Y-110018596D01*
X103236510Y-110013226D01*
X103232747Y-110007261D01*
X103192124Y-109971384D01*
X103187655Y-109967184D01*
X103175720Y-109955249D01*
X103166575Y-109948395D01*
X103160423Y-109943387D01*
X103124430Y-109911599D01*
X103114994Y-109907169D01*
X103097697Y-109896775D01*
X103095009Y-109894761D01*
X103089364Y-109890530D01*
X103085728Y-109889167D01*
X103044762Y-109845698D01*
X103036986Y-109785009D01*
X103066367Y-109731340D01*
X103112163Y-109706886D01*
X103189109Y-109689263D01*
X103189112Y-109689262D01*
X103194932Y-109687929D01*
X103201029Y-109684863D01*
X103292263Y-109638977D01*
X103336455Y-109616751D01*
X103456914Y-109513869D01*
X103549355Y-109385224D01*
X103552529Y-109377330D01*
X103606218Y-109243774D01*
X103606219Y-109243772D01*
X103608442Y-109238241D01*
X103614916Y-109192753D01*
X103630306Y-109084614D01*
X103630306Y-109084608D01*
X103630762Y-109081407D01*
X103630907Y-109067600D01*
X103620967Y-108985457D01*
X103612593Y-108916255D01*
X103612592Y-108916252D01*
X103611876Y-108910333D01*
X103608676Y-108901863D01*
X103557990Y-108767730D01*
X103555880Y-108762146D01*
X103535043Y-108731828D01*
X103469533Y-108636509D01*
X103469530Y-108636506D01*
X103466153Y-108631592D01*
X103417409Y-108588163D01*
X103352329Y-108530179D01*
X103352327Y-108530178D01*
X103347875Y-108526211D01*
X103341790Y-108522989D01*
X103213148Y-108454876D01*
X103213145Y-108454875D01*
X103207874Y-108452084D01*
X103107935Y-108426981D01*
X103060023Y-108414946D01*
X103060020Y-108414946D01*
X103054233Y-108413492D01*
X102974293Y-108413073D01*
X102901787Y-108412693D01*
X102901785Y-108412693D01*
X102895821Y-108412662D01*
X102741784Y-108449643D01*
X102726182Y-108457696D01*
X102606320Y-108519561D01*
X102606318Y-108519563D01*
X102601014Y-108522300D01*
X102481639Y-108626438D01*
X102469551Y-108643637D01*
X102400191Y-108742327D01*
X102390550Y-108756044D01*
X102383188Y-108774928D01*
X102344435Y-108822274D01*
X102285253Y-108837801D01*
X102228247Y-108815576D01*
X102198342Y-108773960D01*
X102196361Y-108768716D01*
X102184280Y-108736746D01*
X102169349Y-108715021D01*
X102097933Y-108611109D01*
X102097930Y-108611106D01*
X102094553Y-108606192D01*
X102009237Y-108530179D01*
X101980729Y-108504779D01*
X101980727Y-108504778D01*
X101976275Y-108500811D01*
X101971004Y-108498020D01*
X101841548Y-108429476D01*
X101841545Y-108429475D01*
X101836274Y-108426684D01*
X101747040Y-108404270D01*
X101688423Y-108389546D01*
X101688420Y-108389546D01*
X101682633Y-108388092D01*
X101602693Y-108387673D01*
X101530187Y-108387293D01*
X101530185Y-108387293D01*
X101524221Y-108387262D01*
X101370184Y-108424243D01*
X101317671Y-108451347D01*
X101234720Y-108494161D01*
X101234718Y-108494163D01*
X101229414Y-108496900D01*
X101110039Y-108601038D01*
X101106610Y-108605917D01*
X101024696Y-108722469D01*
X101018950Y-108730644D01*
X100961406Y-108878237D01*
X100960627Y-108884152D01*
X100960627Y-108884153D01*
X100956401Y-108916255D01*
X100940729Y-109035296D01*
X100941384Y-109041229D01*
X100941384Y-109041233D01*
X100950105Y-109120219D01*
X100958113Y-109192753D01*
X100960165Y-109198360D01*
X101010501Y-109335913D01*
X101010503Y-109335917D01*
X101012553Y-109341519D01*
X101015882Y-109346473D01*
X101079492Y-109441135D01*
X101094570Y-109484955D01*
X101095499Y-109484822D01*
X101097119Y-109496129D01*
X101097929Y-109504032D01*
X101100902Y-109551959D01*
X101104442Y-109561766D01*
X101109322Y-109581340D01*
X101110799Y-109591652D01*
X101130671Y-109635360D01*
X101133663Y-109642709D01*
X101149972Y-109687884D01*
X101156117Y-109696296D01*
X101166299Y-109713719D01*
X101170612Y-109723205D01*
X101201969Y-109759596D01*
X101206888Y-109765792D01*
X101215473Y-109777544D01*
X101227056Y-109789127D01*
X101232051Y-109794508D01*
X101255585Y-109821820D01*
X101264944Y-109832682D01*
X101270864Y-109836519D01*
X101272280Y-109837437D01*
X101288437Y-109850508D01*
X102084459Y-110646530D01*
X102092512Y-110656610D01*
X102092519Y-110656604D01*
X102097090Y-110661974D01*
X102100853Y-110667939D01*
X102138317Y-110701026D01*
X102141476Y-110703816D01*
X102145945Y-110708016D01*
X102157880Y-110719951D01*
X102160698Y-110722063D01*
X102167025Y-110726805D01*
X102173177Y-110731813D01*
X102209170Y-110763601D01*
X102218606Y-110768031D01*
X102235903Y-110778425D01*
X102244236Y-110784670D01*
X102250843Y-110787147D01*
X102250845Y-110787148D01*
X102263036Y-110791718D01*
X102289197Y-110801526D01*
X102296502Y-110804603D01*
X102339982Y-110825017D01*
X102346951Y-110826102D01*
X102350271Y-110826619D01*
X102369800Y-110831742D01*
X102372946Y-110832922D01*
X102372950Y-110832923D01*
X102379552Y-110835398D01*
X102386585Y-110835921D01*
X102386587Y-110835921D01*
X102412227Y-110837826D01*
X102427432Y-110838956D01*
X102435320Y-110839861D01*
X102449697Y-110842100D01*
X102466067Y-110842100D01*
X102473404Y-110842372D01*
X102523667Y-110846107D01*
X102530562Y-110844635D01*
X102530564Y-110844635D01*
X102532221Y-110844281D01*
X102552889Y-110842100D01*
X102594621Y-110842100D01*
X102652812Y-110861007D01*
X102664625Y-110871096D01*
X103149304Y-111355775D01*
X103177081Y-111410292D01*
X103178300Y-111425779D01*
X103178300Y-112276592D01*
X103176868Y-112289413D01*
X103176876Y-112289414D01*
X103176310Y-112296446D01*
X103174754Y-112303324D01*
X103175902Y-112321821D01*
X103178110Y-112357420D01*
X103178300Y-112363550D01*
X103178300Y-112380426D01*
X103178800Y-112383915D01*
X103178800Y-112383919D01*
X103179919Y-112391729D01*
X103180729Y-112399632D01*
X103182017Y-112420402D01*
X103182754Y-112432270D01*
X103183702Y-112447559D01*
X103187242Y-112457366D01*
X103192122Y-112476940D01*
X103193599Y-112487252D01*
X103213471Y-112530960D01*
X103216463Y-112538309D01*
X103230377Y-112576850D01*
X103232772Y-112583484D01*
X103238917Y-112591896D01*
X103249099Y-112609319D01*
X103253412Y-112618805D01*
X103284769Y-112655196D01*
X103289688Y-112661392D01*
X103298273Y-112673144D01*
X103309856Y-112684727D01*
X103314851Y-112690108D01*
X103347744Y-112728282D01*
X103353664Y-112732119D01*
X103355080Y-112733037D01*
X103371237Y-112746108D01*
X104116459Y-113491330D01*
X104124512Y-113501410D01*
X104124519Y-113501404D01*
X104129090Y-113506774D01*
X104132853Y-113512739D01*
X104170317Y-113545826D01*
X104173476Y-113548616D01*
X104177945Y-113552816D01*
X104189880Y-113564751D01*
X104199024Y-113571604D01*
X104205173Y-113576610D01*
X104241170Y-113608401D01*
X104245656Y-113610507D01*
X104283309Y-113657508D01*
X104286190Y-113718625D01*
X104252596Y-113769764D01*
X104190699Y-113791500D01*
X100361500Y-113791500D01*
X100303309Y-113772593D01*
X100267345Y-113723093D01*
X100262500Y-113692500D01*
X100262500Y-107935206D01*
X121114501Y-107935206D01*
X121115975Y-107952759D01*
X121131018Y-108131889D01*
X121131806Y-108141278D01*
X121133139Y-108145926D01*
X121133139Y-108145927D01*
X121184174Y-108323908D01*
X121188807Y-108340066D01*
X121191022Y-108344376D01*
X121210476Y-108382230D01*
X121283334Y-108523995D01*
X121411786Y-108686061D01*
X121415466Y-108689193D01*
X121415468Y-108689195D01*
X121477353Y-108741863D01*
X121569271Y-108820091D01*
X121749789Y-108920980D01*
X121754387Y-108922474D01*
X121941861Y-108983388D01*
X121941863Y-108983389D01*
X121946466Y-108984884D01*
X122151809Y-109009370D01*
X122156631Y-109008999D01*
X122156633Y-109008999D01*
X122353170Y-108993876D01*
X122353175Y-108993875D01*
X122357998Y-108993504D01*
X122557178Y-108937892D01*
X122561491Y-108935713D01*
X122561497Y-108935711D01*
X122737442Y-108846835D01*
X122737444Y-108846833D01*
X122741763Y-108844652D01*
X122904722Y-108717334D01*
X123039848Y-108560789D01*
X123103405Y-108448909D01*
X123139606Y-108385185D01*
X123139607Y-108385182D01*
X123141995Y-108380979D01*
X123177816Y-108273296D01*
X145416129Y-108273296D01*
X145416784Y-108279229D01*
X145416784Y-108279233D01*
X145424284Y-108347164D01*
X145433513Y-108430753D01*
X145435565Y-108436360D01*
X145485901Y-108573913D01*
X145485903Y-108573917D01*
X145487953Y-108579519D01*
X145576308Y-108711005D01*
X145580719Y-108715019D01*
X145580721Y-108715021D01*
X145679410Y-108804820D01*
X145693476Y-108817619D01*
X145747285Y-108846835D01*
X145827447Y-108890360D01*
X145827449Y-108890361D01*
X145832693Y-108893208D01*
X145838467Y-108894723D01*
X145838470Y-108894724D01*
X145980143Y-108931891D01*
X145985922Y-108933407D01*
X145991891Y-108933501D01*
X145991893Y-108933501D01*
X146049902Y-108934412D01*
X146144316Y-108935895D01*
X146155179Y-108933407D01*
X146292909Y-108901863D01*
X146292912Y-108901862D01*
X146298732Y-108900529D01*
X146313289Y-108893208D01*
X146368548Y-108865416D01*
X146440255Y-108829351D01*
X146468978Y-108804819D01*
X146525504Y-108781405D01*
X146533272Y-108781100D01*
X148754592Y-108781100D01*
X148767413Y-108782532D01*
X148767414Y-108782524D01*
X148774446Y-108783090D01*
X148781324Y-108784646D01*
X148835421Y-108781290D01*
X148841550Y-108781100D01*
X148858426Y-108781100D01*
X148861915Y-108780600D01*
X148861919Y-108780600D01*
X148869729Y-108779481D01*
X148877632Y-108778671D01*
X148901828Y-108777170D01*
X148918519Y-108776135D01*
X148918521Y-108776135D01*
X148925559Y-108775698D01*
X148935366Y-108772158D01*
X148954940Y-108767278D01*
X148958270Y-108766801D01*
X148965252Y-108765801D01*
X149008960Y-108745929D01*
X149016309Y-108742937D01*
X149054850Y-108729023D01*
X149061484Y-108726628D01*
X149069896Y-108720483D01*
X149087319Y-108710301D01*
X149096805Y-108705988D01*
X149133196Y-108674631D01*
X149139392Y-108669712D01*
X149151144Y-108661127D01*
X149162727Y-108649544D01*
X149168108Y-108644549D01*
X149200938Y-108616261D01*
X149200939Y-108616260D01*
X149206282Y-108611656D01*
X149211037Y-108604320D01*
X149224108Y-108588163D01*
X149305330Y-108506941D01*
X149315410Y-108498888D01*
X149315404Y-108498881D01*
X149320774Y-108494310D01*
X149326739Y-108490547D01*
X149362616Y-108449924D01*
X149366816Y-108445455D01*
X149378751Y-108433520D01*
X149385605Y-108424375D01*
X149390619Y-108418216D01*
X149394294Y-108414055D01*
X149422401Y-108382230D01*
X149426831Y-108372794D01*
X149437225Y-108355497D01*
X149439238Y-108352811D01*
X149439238Y-108352810D01*
X149443470Y-108347164D01*
X149452189Y-108323908D01*
X149460323Y-108302209D01*
X149463403Y-108294898D01*
X149483817Y-108251418D01*
X149484938Y-108244215D01*
X149485419Y-108241129D01*
X149490542Y-108221600D01*
X149491722Y-108218454D01*
X149491723Y-108218450D01*
X149494198Y-108211848D01*
X149495078Y-108200014D01*
X149497229Y-108171054D01*
X149497756Y-108163968D01*
X149498662Y-108156072D01*
X149499393Y-108151380D01*
X149500900Y-108141703D01*
X149500900Y-108125333D01*
X149501172Y-108117997D01*
X149504384Y-108074766D01*
X149504907Y-108067733D01*
X149503081Y-108059179D01*
X149500900Y-108038511D01*
X149500900Y-102434179D01*
X149519807Y-102375988D01*
X149529896Y-102364176D01*
X149991128Y-101902943D01*
X150001207Y-101894889D01*
X150001202Y-101894883D01*
X150006575Y-101890310D01*
X150012539Y-101886547D01*
X150048415Y-101845925D01*
X150052615Y-101841455D01*
X150064551Y-101829519D01*
X150071399Y-101820381D01*
X150076411Y-101814225D01*
X150083161Y-101806582D01*
X150108201Y-101778230D01*
X150112628Y-101768800D01*
X150123021Y-101751503D01*
X150125041Y-101748808D01*
X150129271Y-101743164D01*
X150146126Y-101698203D01*
X150149208Y-101690888D01*
X150166619Y-101653804D01*
X150166619Y-101653803D01*
X150169617Y-101647418D01*
X150170806Y-101639784D01*
X150171219Y-101637129D01*
X150176342Y-101617600D01*
X150177524Y-101614448D01*
X150177525Y-101614446D01*
X150179998Y-101607848D01*
X150183557Y-101559960D01*
X150184463Y-101552067D01*
X150186112Y-101541477D01*
X150186700Y-101537703D01*
X150186700Y-101535950D01*
X150204804Y-101486374D01*
X150259955Y-101409624D01*
X150269568Y-101385713D01*
X150316818Y-101268174D01*
X150316819Y-101268172D01*
X150319042Y-101262641D01*
X150319883Y-101256734D01*
X150340906Y-101109014D01*
X150340906Y-101109008D01*
X150341362Y-101105807D01*
X150341507Y-101092000D01*
X150322476Y-100934733D01*
X150317845Y-100922476D01*
X150268590Y-100792130D01*
X150266480Y-100786546D01*
X150258933Y-100775565D01*
X150180133Y-100660909D01*
X150180130Y-100660906D01*
X150176753Y-100655992D01*
X150058475Y-100550611D01*
X150053204Y-100547820D01*
X149923748Y-100479276D01*
X149923745Y-100479275D01*
X149918474Y-100476484D01*
X149841654Y-100457188D01*
X149770623Y-100439346D01*
X149770620Y-100439346D01*
X149764833Y-100437892D01*
X149684893Y-100437473D01*
X149612387Y-100437093D01*
X149612385Y-100437093D01*
X149606421Y-100437062D01*
X149452384Y-100474043D01*
X149379224Y-100511804D01*
X149316920Y-100543961D01*
X149316918Y-100543963D01*
X149311614Y-100546700D01*
X149192239Y-100650838D01*
X149101150Y-100780444D01*
X149096594Y-100792130D01*
X149076015Y-100844912D01*
X149037262Y-100892260D01*
X148978079Y-100907786D01*
X148921073Y-100885560D01*
X148891169Y-100843944D01*
X148871590Y-100792129D01*
X148871589Y-100792127D01*
X148869480Y-100786546D01*
X148861933Y-100775565D01*
X148783133Y-100660909D01*
X148783130Y-100660906D01*
X148779753Y-100655992D01*
X148661475Y-100550611D01*
X148656204Y-100547820D01*
X148526748Y-100479276D01*
X148526745Y-100479275D01*
X148521474Y-100476484D01*
X148444654Y-100457188D01*
X148373623Y-100439346D01*
X148373620Y-100439346D01*
X148367833Y-100437892D01*
X148287893Y-100437473D01*
X148215387Y-100437093D01*
X148215385Y-100437093D01*
X148209421Y-100437062D01*
X148055384Y-100474043D01*
X147982224Y-100511804D01*
X147919920Y-100543961D01*
X147919918Y-100543963D01*
X147914614Y-100546700D01*
X147795239Y-100650838D01*
X147704150Y-100780444D01*
X147679015Y-100844912D01*
X147654502Y-100907786D01*
X147646606Y-100928037D01*
X147625929Y-101085096D01*
X147626584Y-101091029D01*
X147626584Y-101091033D01*
X147638951Y-101203046D01*
X147643313Y-101242553D01*
X147650664Y-101262641D01*
X147695701Y-101385713D01*
X147695703Y-101385717D01*
X147697753Y-101391319D01*
X147786108Y-101522805D01*
X147790519Y-101526819D01*
X147790521Y-101526821D01*
X147897848Y-101624480D01*
X147903276Y-101629419D01*
X147965815Y-101663375D01*
X148037247Y-101702160D01*
X148037249Y-101702161D01*
X148042493Y-101705008D01*
X148048267Y-101706523D01*
X148048270Y-101706524D01*
X148189943Y-101743691D01*
X148195722Y-101745207D01*
X148201691Y-101745301D01*
X148201693Y-101745301D01*
X148259702Y-101746212D01*
X148354116Y-101747695D01*
X148498581Y-101714608D01*
X148559523Y-101720047D01*
X148605630Y-101760268D01*
X148619290Y-101819909D01*
X148594887Y-101876642D01*
X148570399Y-101904370D01*
X148565969Y-101913806D01*
X148555575Y-101931103D01*
X148549330Y-101939436D01*
X148546853Y-101946043D01*
X148546852Y-101946045D01*
X148542562Y-101957488D01*
X148532911Y-101983234D01*
X148532477Y-101984391D01*
X148529397Y-101991702D01*
X148508983Y-102035182D01*
X148507898Y-102042151D01*
X148507381Y-102045471D01*
X148502258Y-102065000D01*
X148501078Y-102068146D01*
X148501077Y-102068150D01*
X148498602Y-102074752D01*
X148498079Y-102081785D01*
X148498079Y-102081787D01*
X148495045Y-102122628D01*
X148494139Y-102130520D01*
X148491900Y-102144897D01*
X148491900Y-102161267D01*
X148491628Y-102168603D01*
X148487893Y-102218867D01*
X148489365Y-102225762D01*
X148489365Y-102225764D01*
X148489719Y-102227421D01*
X148491900Y-102248089D01*
X148491900Y-107673100D01*
X148472993Y-107731291D01*
X148423493Y-107767255D01*
X148392900Y-107772100D01*
X146526743Y-107772100D01*
X146468552Y-107753193D01*
X146460884Y-107747016D01*
X146456129Y-107742779D01*
X146456127Y-107742778D01*
X146451675Y-107738811D01*
X146446404Y-107736020D01*
X146316948Y-107667476D01*
X146316945Y-107667475D01*
X146311674Y-107664684D01*
X146234853Y-107645388D01*
X146163823Y-107627546D01*
X146163820Y-107627546D01*
X146158033Y-107626092D01*
X146078093Y-107625673D01*
X146005587Y-107625293D01*
X146005585Y-107625293D01*
X145999621Y-107625262D01*
X145845584Y-107662243D01*
X145772424Y-107700004D01*
X145710120Y-107732161D01*
X145710118Y-107732163D01*
X145704814Y-107734900D01*
X145585439Y-107839038D01*
X145494350Y-107968644D01*
X145436806Y-108116237D01*
X145436027Y-108122152D01*
X145436027Y-108122153D01*
X145435157Y-108128765D01*
X145416129Y-108273296D01*
X123177816Y-108273296D01*
X123198257Y-108211848D01*
X123205743Y-108189344D01*
X123205743Y-108189342D01*
X123207270Y-108184753D01*
X123208119Y-108178037D01*
X123225920Y-108037126D01*
X123233189Y-107979586D01*
X123233602Y-107950000D01*
X123213422Y-107744189D01*
X123211799Y-107738811D01*
X123188261Y-107660850D01*
X123153651Y-107546217D01*
X123056565Y-107363625D01*
X123043540Y-107347654D01*
X122928924Y-107207121D01*
X122928923Y-107207120D01*
X122925863Y-107203368D01*
X122899544Y-107181595D01*
X122866759Y-107129934D01*
X122870601Y-107068870D01*
X122898353Y-107030034D01*
X122964114Y-106973869D01*
X123056555Y-106845224D01*
X123115642Y-106698241D01*
X123118501Y-106678153D01*
X123137506Y-106544614D01*
X123137506Y-106544608D01*
X123137962Y-106541407D01*
X123138107Y-106527600D01*
X123119076Y-106370333D01*
X123114445Y-106358076D01*
X123065190Y-106227730D01*
X123063080Y-106222146D01*
X123036327Y-106183220D01*
X122976733Y-106096509D01*
X122976730Y-106096506D01*
X122973353Y-106091592D01*
X122925226Y-106048712D01*
X122894356Y-105995886D01*
X122900432Y-105935003D01*
X122916141Y-105910106D01*
X123036679Y-105770462D01*
X123036685Y-105770453D01*
X123039848Y-105766789D01*
X123141995Y-105586979D01*
X123207270Y-105390753D01*
X123233189Y-105185586D01*
X123233602Y-105156000D01*
X123213422Y-104950189D01*
X123209047Y-104935696D01*
X123155049Y-104756849D01*
X123153651Y-104752217D01*
X123056565Y-104569625D01*
X123043540Y-104553654D01*
X122928924Y-104413121D01*
X122928923Y-104413120D01*
X122925863Y-104409368D01*
X122804649Y-104309091D01*
X122770249Y-104280633D01*
X122770247Y-104280632D01*
X122766522Y-104277550D01*
X122606084Y-104190802D01*
X122588866Y-104181492D01*
X122588865Y-104181492D01*
X122584612Y-104179192D01*
X122579992Y-104177762D01*
X122579990Y-104177761D01*
X122573368Y-104175711D01*
X122523370Y-104140443D01*
X122503651Y-104082522D01*
X122510785Y-104044212D01*
X122554618Y-103935174D01*
X122554619Y-103935172D01*
X122556842Y-103929641D01*
X122559701Y-103909553D01*
X122578706Y-103776014D01*
X122578706Y-103776008D01*
X122579162Y-103772807D01*
X122579307Y-103759000D01*
X122568292Y-103667974D01*
X122560993Y-103607655D01*
X122560992Y-103607652D01*
X122560276Y-103601733D01*
X122511322Y-103472182D01*
X122508440Y-103411066D01*
X122542031Y-103359927D01*
X122559294Y-103348823D01*
X122565192Y-103345844D01*
X122628397Y-103313917D01*
X122737442Y-103258835D01*
X122737444Y-103258833D01*
X122741763Y-103256652D01*
X122904722Y-103129334D01*
X123039848Y-102972789D01*
X123141995Y-102792979D01*
X123207270Y-102596753D01*
X123211027Y-102567019D01*
X123231485Y-102405073D01*
X123233189Y-102391586D01*
X123233602Y-102362000D01*
X123218265Y-102205579D01*
X123213894Y-102160999D01*
X123213893Y-102160995D01*
X123213422Y-102156189D01*
X123209047Y-102141696D01*
X123190521Y-102080338D01*
X123153651Y-101958217D01*
X123102191Y-101861436D01*
X123058838Y-101779899D01*
X123058836Y-101779895D01*
X123056565Y-101775625D01*
X123051001Y-101768802D01*
X122928924Y-101619121D01*
X122928923Y-101619120D01*
X122925863Y-101615368D01*
X122801199Y-101512237D01*
X122770249Y-101486633D01*
X122770247Y-101486632D01*
X122766522Y-101483550D01*
X122584612Y-101385192D01*
X122502471Y-101359765D01*
X122391684Y-101325470D01*
X122391680Y-101325469D01*
X122387063Y-101324040D01*
X122382256Y-101323535D01*
X122382252Y-101323534D01*
X122186213Y-101302930D01*
X122186211Y-101302930D01*
X122181397Y-101302424D01*
X122120925Y-101307927D01*
X121980269Y-101320727D01*
X121980264Y-101320728D01*
X121975450Y-101321166D01*
X121898815Y-101343721D01*
X121781713Y-101378186D01*
X121781710Y-101378187D01*
X121777066Y-101379554D01*
X121593801Y-101475363D01*
X121432635Y-101604943D01*
X121422015Y-101617600D01*
X121302817Y-101759654D01*
X121302814Y-101759658D01*
X121299708Y-101763360D01*
X121200082Y-101944578D01*
X121137553Y-102141696D01*
X121128123Y-102225764D01*
X121116498Y-102329407D01*
X121114501Y-102347206D01*
X121115926Y-102364176D01*
X121131239Y-102546523D01*
X121131806Y-102553278D01*
X121133139Y-102557926D01*
X121133139Y-102557927D01*
X121184172Y-102735901D01*
X121188807Y-102752066D01*
X121191022Y-102756376D01*
X121211995Y-102797185D01*
X121283334Y-102935995D01*
X121411786Y-103098061D01*
X121415466Y-103101193D01*
X121415468Y-103101195D01*
X121461052Y-103139990D01*
X121493112Y-103192103D01*
X121488418Y-103253108D01*
X121461969Y-103289984D01*
X121430039Y-103317838D01*
X121338950Y-103447444D01*
X121281406Y-103595037D01*
X121260729Y-103752096D01*
X121261384Y-103758029D01*
X121261384Y-103758033D01*
X121270169Y-103837601D01*
X121278113Y-103909553D01*
X121285464Y-103929641D01*
X121330501Y-104052713D01*
X121330503Y-104052717D01*
X121332553Y-104058319D01*
X121420908Y-104189805D01*
X121425320Y-104193819D01*
X121425322Y-104193822D01*
X121462848Y-104227968D01*
X121493162Y-104281116D01*
X121486448Y-104341931D01*
X121458252Y-104378346D01*
X121436406Y-104395910D01*
X121436400Y-104395916D01*
X121432635Y-104398943D01*
X121420738Y-104413121D01*
X121302817Y-104553654D01*
X121302814Y-104553658D01*
X121299708Y-104557360D01*
X121200082Y-104738578D01*
X121137553Y-104935696D01*
X121114501Y-105141206D01*
X121131806Y-105347278D01*
X121133139Y-105351926D01*
X121133139Y-105351927D01*
X121145589Y-105395344D01*
X121188807Y-105546066D01*
X121191022Y-105550376D01*
X121211995Y-105591185D01*
X121283334Y-105729995D01*
X121411786Y-105892061D01*
X121415466Y-105895193D01*
X121415468Y-105895195D01*
X121462243Y-105935003D01*
X121569271Y-106026091D01*
X121749789Y-106126980D01*
X121812195Y-106147257D01*
X121861694Y-106183220D01*
X121880602Y-106241410D01*
X121873839Y-106277372D01*
X121840206Y-106363637D01*
X121819529Y-106520696D01*
X121820184Y-106526629D01*
X121820184Y-106526633D01*
X121832551Y-106638646D01*
X121836913Y-106678153D01*
X121844264Y-106698241D01*
X121890408Y-106824337D01*
X121892650Y-106885481D01*
X121858524Y-106936266D01*
X121825391Y-106953331D01*
X121777066Y-106967554D01*
X121593801Y-107063363D01*
X121590032Y-107066393D01*
X121590031Y-107066394D01*
X121577150Y-107076751D01*
X121432635Y-107192943D01*
X121420738Y-107207121D01*
X121302817Y-107347654D01*
X121302814Y-107347658D01*
X121299708Y-107351360D01*
X121200082Y-107532578D01*
X121137553Y-107729696D01*
X121133340Y-107767255D01*
X121121994Y-107868409D01*
X121114501Y-107935206D01*
X100262500Y-107935206D01*
X100262500Y-99413500D01*
X100281407Y-99355309D01*
X100330907Y-99319345D01*
X100361500Y-99314500D01*
X104152221Y-99314500D01*
X104210412Y-99333407D01*
G37*
%TD.AperFunction*%
%TD*%
M02*
