%TF.GenerationSoftware,KiCad,Pcbnew,(6.0.4)*%
%TF.CreationDate,2022-06-19T16:10:13+03:00*%
%TF.ProjectId,Main_PCB_001,4d61696e-5f50-4434-925f-3030312e6b69,rev?*%
%TF.SameCoordinates,Original*%
%TF.FileFunction,Legend,Bot*%
%TF.FilePolarity,Positive*%
%FSLAX46Y46*%
G04 Gerber Fmt 4.6, Leading zero omitted, Abs format (unit mm)*
G04 Created by KiCad (PCBNEW (6.0.4)) date 2022-06-19 16:10:13*
%MOMM*%
%LPD*%
G01*
G04 APERTURE LIST*
G04 Aperture macros list*
%AMRoundRect*
0 Rectangle with rounded corners*
0 $1 Rounding radius*
0 $2 $3 $4 $5 $6 $7 $8 $9 X,Y pos of 4 corners*
0 Add a 4 corners polygon primitive as box body*
4,1,4,$2,$3,$4,$5,$6,$7,$8,$9,$2,$3,0*
0 Add four circle primitives for the rounded corners*
1,1,$1+$1,$2,$3*
1,1,$1+$1,$4,$5*
1,1,$1+$1,$6,$7*
1,1,$1+$1,$8,$9*
0 Add four rect primitives between the rounded corners*
20,1,$1+$1,$2,$3,$4,$5,0*
20,1,$1+$1,$4,$5,$6,$7,0*
20,1,$1+$1,$6,$7,$8,$9,0*
20,1,$1+$1,$8,$9,$2,$3,0*%
G04 Aperture macros list end*
%ADD10C,0.150000*%
%ADD11C,0.254000*%
%ADD12C,0.120000*%
%ADD13C,0.200000*%
%ADD14C,0.100000*%
%ADD15C,1.350000*%
%ADD16C,1.600000*%
%ADD17RoundRect,0.237500X-0.250000X-0.237500X0.250000X-0.237500X0.250000X0.237500X-0.250000X0.237500X0*%
%ADD18RoundRect,0.250000X-1.450000X0.537500X-1.450000X-0.537500X1.450000X-0.537500X1.450000X0.537500X0*%
%ADD19RoundRect,0.237500X0.300000X0.237500X-0.300000X0.237500X-0.300000X-0.237500X0.300000X-0.237500X0*%
%ADD20RoundRect,0.237500X0.250000X0.237500X-0.250000X0.237500X-0.250000X-0.237500X0.250000X-0.237500X0*%
%ADD21R,1.100000X0.650000*%
%ADD22R,1.800000X1.200000*%
%ADD23R,1.700000X0.650000*%
%ADD24R,1.220000X0.910000*%
%ADD25R,0.650000X1.100000*%
G04 APERTURE END LIST*
D10*
%TO.C,R1*%
X126508166Y-108892580D02*
X126841500Y-108416390D01*
X127079595Y-108892580D02*
X127079595Y-107892580D01*
X126698642Y-107892580D01*
X126603404Y-107940200D01*
X126555785Y-107987819D01*
X126508166Y-108083057D01*
X126508166Y-108225914D01*
X126555785Y-108321152D01*
X126603404Y-108368771D01*
X126698642Y-108416390D01*
X127079595Y-108416390D01*
X125555785Y-108892580D02*
X126127214Y-108892580D01*
X125841500Y-108892580D02*
X125841500Y-107892580D01*
X125936738Y-108035438D01*
X126031976Y-108130676D01*
X126127214Y-108178295D01*
%TO.C,C21*%
X104945942Y-105681542D02*
X104993561Y-105633923D01*
X105041180Y-105491066D01*
X105041180Y-105395828D01*
X104993561Y-105252971D01*
X104898323Y-105157733D01*
X104803085Y-105110114D01*
X104612609Y-105062495D01*
X104469752Y-105062495D01*
X104279276Y-105110114D01*
X104184038Y-105157733D01*
X104088800Y-105252971D01*
X104041180Y-105395828D01*
X104041180Y-105491066D01*
X104088800Y-105633923D01*
X104136419Y-105681542D01*
X104136419Y-106062495D02*
X104088800Y-106110114D01*
X104041180Y-106205352D01*
X104041180Y-106443447D01*
X104088800Y-106538685D01*
X104136419Y-106586304D01*
X104231657Y-106633923D01*
X104326895Y-106633923D01*
X104469752Y-106586304D01*
X105041180Y-106014876D01*
X105041180Y-106633923D01*
X105041180Y-107586304D02*
X105041180Y-107014876D01*
X105041180Y-107300590D02*
X104041180Y-107300590D01*
X104184038Y-107205352D01*
X104279276Y-107110114D01*
X104326895Y-107014876D01*
%TO.C,C22*%
X140469857Y-103702142D02*
X140517476Y-103749761D01*
X140660333Y-103797380D01*
X140755571Y-103797380D01*
X140898428Y-103749761D01*
X140993666Y-103654523D01*
X141041285Y-103559285D01*
X141088904Y-103368809D01*
X141088904Y-103225952D01*
X141041285Y-103035476D01*
X140993666Y-102940238D01*
X140898428Y-102845000D01*
X140755571Y-102797380D01*
X140660333Y-102797380D01*
X140517476Y-102845000D01*
X140469857Y-102892619D01*
X140088904Y-102892619D02*
X140041285Y-102845000D01*
X139946047Y-102797380D01*
X139707952Y-102797380D01*
X139612714Y-102845000D01*
X139565095Y-102892619D01*
X139517476Y-102987857D01*
X139517476Y-103083095D01*
X139565095Y-103225952D01*
X140136523Y-103797380D01*
X139517476Y-103797380D01*
X139136523Y-102892619D02*
X139088904Y-102845000D01*
X138993666Y-102797380D01*
X138755571Y-102797380D01*
X138660333Y-102845000D01*
X138612714Y-102892619D01*
X138565095Y-102987857D01*
X138565095Y-103083095D01*
X138612714Y-103225952D01*
X139184142Y-103797380D01*
X138565095Y-103797380D01*
%TO.C,R12*%
X133865857Y-107302580D02*
X134199190Y-106826390D01*
X134437285Y-107302580D02*
X134437285Y-106302580D01*
X134056333Y-106302580D01*
X133961095Y-106350200D01*
X133913476Y-106397819D01*
X133865857Y-106493057D01*
X133865857Y-106635914D01*
X133913476Y-106731152D01*
X133961095Y-106778771D01*
X134056333Y-106826390D01*
X134437285Y-106826390D01*
X132913476Y-107302580D02*
X133484904Y-107302580D01*
X133199190Y-107302580D02*
X133199190Y-106302580D01*
X133294428Y-106445438D01*
X133389666Y-106540676D01*
X133484904Y-106588295D01*
X132532523Y-106397819D02*
X132484904Y-106350200D01*
X132389666Y-106302580D01*
X132151571Y-106302580D01*
X132056333Y-106350200D01*
X132008714Y-106397819D01*
X131961095Y-106493057D01*
X131961095Y-106588295D01*
X132008714Y-106731152D01*
X132580142Y-107302580D01*
X131961095Y-107302580D01*
D11*
%TO.C,IC2*%
X119146561Y-106746523D02*
X119146561Y-105476523D01*
X117816085Y-106625571D02*
X117876561Y-106686047D01*
X118057990Y-106746523D01*
X118178942Y-106746523D01*
X118360371Y-106686047D01*
X118481323Y-106565095D01*
X118541800Y-106444142D01*
X118602276Y-106202238D01*
X118602276Y-106020809D01*
X118541800Y-105778904D01*
X118481323Y-105657952D01*
X118360371Y-105537000D01*
X118178942Y-105476523D01*
X118057990Y-105476523D01*
X117876561Y-105537000D01*
X117816085Y-105597476D01*
X117332276Y-105597476D02*
X117271800Y-105537000D01*
X117150847Y-105476523D01*
X116848466Y-105476523D01*
X116727514Y-105537000D01*
X116667038Y-105597476D01*
X116606561Y-105718428D01*
X116606561Y-105839380D01*
X116667038Y-106020809D01*
X117392752Y-106746523D01*
X116606561Y-106746523D01*
%TO.C,L10*%
X137302723Y-102840971D02*
X137302723Y-102236209D01*
X136032723Y-102236209D01*
X137302723Y-103929542D02*
X137302723Y-103203828D01*
X137302723Y-103566685D02*
X136032723Y-103566685D01*
X136214152Y-103445733D01*
X136335104Y-103324780D01*
X136395580Y-103203828D01*
X136032723Y-104715733D02*
X136032723Y-104836685D01*
X136093200Y-104957638D01*
X136153676Y-105018114D01*
X136274628Y-105078590D01*
X136516533Y-105139066D01*
X136818914Y-105139066D01*
X137060819Y-105078590D01*
X137181771Y-105018114D01*
X137242247Y-104957638D01*
X137302723Y-104836685D01*
X137302723Y-104715733D01*
X137242247Y-104594780D01*
X137181771Y-104534304D01*
X137060819Y-104473828D01*
X136818914Y-104413352D01*
X136516533Y-104413352D01*
X136274628Y-104473828D01*
X136153676Y-104534304D01*
X136093200Y-104594780D01*
X136032723Y-104715733D01*
%TO.C,IC1*%
X127480311Y-104572323D02*
X127480311Y-103302323D01*
X126149835Y-104451371D02*
X126210311Y-104511847D01*
X126391740Y-104572323D01*
X126512692Y-104572323D01*
X126694121Y-104511847D01*
X126815073Y-104390895D01*
X126875550Y-104269942D01*
X126936026Y-104028038D01*
X126936026Y-103846609D01*
X126875550Y-103604704D01*
X126815073Y-103483752D01*
X126694121Y-103362800D01*
X126512692Y-103302323D01*
X126391740Y-103302323D01*
X126210311Y-103362800D01*
X126149835Y-103423276D01*
X124940311Y-104572323D02*
X125666026Y-104572323D01*
X125303169Y-104572323D02*
X125303169Y-103302323D01*
X125424121Y-103483752D01*
X125545073Y-103604704D01*
X125666026Y-103665180D01*
D10*
%TO.C,U1*%
X141350904Y-104611380D02*
X141350904Y-105420904D01*
X141303285Y-105516142D01*
X141255666Y-105563761D01*
X141160428Y-105611380D01*
X140969952Y-105611380D01*
X140874714Y-105563761D01*
X140827095Y-105516142D01*
X140779476Y-105420904D01*
X140779476Y-104611380D01*
X139779476Y-105611380D02*
X140350904Y-105611380D01*
X140065190Y-105611380D02*
X140065190Y-104611380D01*
X140160428Y-104754238D01*
X140255666Y-104849476D01*
X140350904Y-104897095D01*
D11*
%TO.C,Z1*%
X129456673Y-104290504D02*
X129456673Y-105137171D01*
X130726673Y-104290504D01*
X130726673Y-105137171D01*
X130726673Y-106286219D02*
X130726673Y-105560504D01*
X130726673Y-105923361D02*
X129456673Y-105923361D01*
X129638102Y-105802409D01*
X129759054Y-105681457D01*
X129819530Y-105560504D01*
D10*
%TO.C,R2*%
X117921066Y-102146380D02*
X118254400Y-101670190D01*
X118492495Y-102146380D02*
X118492495Y-101146380D01*
X118111542Y-101146380D01*
X118016304Y-101194000D01*
X117968685Y-101241619D01*
X117921066Y-101336857D01*
X117921066Y-101479714D01*
X117968685Y-101574952D01*
X118016304Y-101622571D01*
X118111542Y-101670190D01*
X118492495Y-101670190D01*
X117540114Y-101241619D02*
X117492495Y-101194000D01*
X117397257Y-101146380D01*
X117159161Y-101146380D01*
X117063923Y-101194000D01*
X117016304Y-101241619D01*
X116968685Y-101336857D01*
X116968685Y-101432095D01*
X117016304Y-101574952D01*
X117587733Y-102146380D01*
X116968685Y-102146380D01*
D11*
%TO.C,Z2*%
X113299723Y-103823104D02*
X113299723Y-104669771D01*
X114569723Y-103823104D01*
X114569723Y-104669771D01*
X113420676Y-105093104D02*
X113360200Y-105153580D01*
X113299723Y-105274533D01*
X113299723Y-105576914D01*
X113360200Y-105697866D01*
X113420676Y-105758342D01*
X113541628Y-105818819D01*
X113662580Y-105818819D01*
X113844009Y-105758342D01*
X114569723Y-105032628D01*
X114569723Y-105818819D01*
D10*
%TO.C,R11*%
X133865857Y-112600980D02*
X134199190Y-112124790D01*
X134437285Y-112600980D02*
X134437285Y-111600980D01*
X134056333Y-111600980D01*
X133961095Y-111648600D01*
X133913476Y-111696219D01*
X133865857Y-111791457D01*
X133865857Y-111934314D01*
X133913476Y-112029552D01*
X133961095Y-112077171D01*
X134056333Y-112124790D01*
X134437285Y-112124790D01*
X132913476Y-112600980D02*
X133484904Y-112600980D01*
X133199190Y-112600980D02*
X133199190Y-111600980D01*
X133294428Y-111743838D01*
X133389666Y-111839076D01*
X133484904Y-111886695D01*
X131961095Y-112600980D02*
X132532523Y-112600980D01*
X132246809Y-112600980D02*
X132246809Y-111600980D01*
X132342047Y-111743838D01*
X132437285Y-111839076D01*
X132532523Y-111886695D01*
%TO.C,C23*%
X140520657Y-101517742D02*
X140568276Y-101565361D01*
X140711133Y-101612980D01*
X140806371Y-101612980D01*
X140949228Y-101565361D01*
X141044466Y-101470123D01*
X141092085Y-101374885D01*
X141139704Y-101184409D01*
X141139704Y-101041552D01*
X141092085Y-100851076D01*
X141044466Y-100755838D01*
X140949228Y-100660600D01*
X140806371Y-100612980D01*
X140711133Y-100612980D01*
X140568276Y-100660600D01*
X140520657Y-100708219D01*
X140139704Y-100708219D02*
X140092085Y-100660600D01*
X139996847Y-100612980D01*
X139758752Y-100612980D01*
X139663514Y-100660600D01*
X139615895Y-100708219D01*
X139568276Y-100803457D01*
X139568276Y-100898695D01*
X139615895Y-101041552D01*
X140187323Y-101612980D01*
X139568276Y-101612980D01*
X139234942Y-100612980D02*
X138615895Y-100612980D01*
X138949228Y-100993933D01*
X138806371Y-100993933D01*
X138711133Y-101041552D01*
X138663514Y-101089171D01*
X138615895Y-101184409D01*
X138615895Y-101422504D01*
X138663514Y-101517742D01*
X138711133Y-101565361D01*
X138806371Y-101612980D01*
X139092085Y-101612980D01*
X139187323Y-101565361D01*
X139234942Y-101517742D01*
D11*
%TO.C,IC6*%
X144109923Y-102417638D02*
X142839923Y-102417638D01*
X143988971Y-103748114D02*
X144049447Y-103687638D01*
X144109923Y-103506209D01*
X144109923Y-103385257D01*
X144049447Y-103203828D01*
X143928495Y-103082876D01*
X143807542Y-103022400D01*
X143565638Y-102961923D01*
X143384209Y-102961923D01*
X143142304Y-103022400D01*
X143021352Y-103082876D01*
X142900400Y-103203828D01*
X142839923Y-103385257D01*
X142839923Y-103506209D01*
X142900400Y-103687638D01*
X142960876Y-103748114D01*
X142839923Y-104836685D02*
X142839923Y-104594780D01*
X142900400Y-104473828D01*
X142960876Y-104413352D01*
X143142304Y-104292400D01*
X143384209Y-104231923D01*
X143868019Y-104231923D01*
X143988971Y-104292400D01*
X144049447Y-104352876D01*
X144109923Y-104473828D01*
X144109923Y-104715733D01*
X144049447Y-104836685D01*
X143988971Y-104897161D01*
X143868019Y-104957638D01*
X143565638Y-104957638D01*
X143444685Y-104897161D01*
X143384209Y-104836685D01*
X143323733Y-104715733D01*
X143323733Y-104473828D01*
X143384209Y-104352876D01*
X143444685Y-104292400D01*
X143565638Y-104231923D01*
D12*
%TO.C,R1*%
X126086776Y-106487700D02*
X126596224Y-106487700D01*
X126086776Y-107532700D02*
X126596224Y-107532700D01*
%TO.C,C21*%
X108948800Y-105163148D02*
X108948800Y-107485652D01*
X105528800Y-105163148D02*
X105528800Y-107485652D01*
%TO.C,C22*%
X139973267Y-105285000D02*
X139680733Y-105285000D01*
X139973267Y-104265000D02*
X139680733Y-104265000D01*
%TO.C,R12*%
X133477724Y-108802700D02*
X132968276Y-108802700D01*
X133477724Y-107757700D02*
X132968276Y-107757700D01*
D13*
%TO.C,IC2*%
X117656800Y-104712000D02*
X117656800Y-107632000D01*
X118156800Y-104712000D02*
X117656800Y-104712000D01*
X118156800Y-107632000D02*
X118156800Y-104712000D01*
X116206800Y-107697000D02*
X117306800Y-107697000D01*
X117656800Y-107632000D02*
X118156800Y-107632000D01*
%TO.C,L10*%
X137428200Y-103657400D02*
X136028200Y-103657400D01*
%TO.C,IC1*%
X125990550Y-102537800D02*
X125990550Y-105457800D01*
X126490550Y-105457800D02*
X126490550Y-102537800D01*
X127940550Y-102472800D02*
X126840550Y-102472800D01*
X125990550Y-105457800D02*
X126490550Y-105457800D01*
X126490550Y-102537800D02*
X125990550Y-102537800D01*
D10*
%TO.C,U1*%
X137839000Y-106084000D02*
X137839000Y-106384000D01*
X143339000Y-106289000D02*
X145089000Y-106289000D01*
X143339000Y-106084000D02*
X137839000Y-106084000D01*
X137839000Y-111594000D02*
X137839000Y-111294000D01*
X143339000Y-111594000D02*
X143339000Y-111294000D01*
X143339000Y-111594000D02*
X137839000Y-111594000D01*
X143339000Y-106084000D02*
X143339000Y-106289000D01*
D13*
%TO.C,Z1*%
X130952150Y-104318600D02*
X130952150Y-106318600D01*
D14*
X130152150Y-102618600D02*
X130152150Y-102618600D01*
X130152150Y-102718600D02*
X130152150Y-102718600D01*
D13*
X129352150Y-104318600D02*
X129352150Y-106318600D01*
D14*
X130152150Y-102618600D02*
G75*
G03*
X130152150Y-102718600I0J-50000D01*
G01*
X130152150Y-102718600D02*
G75*
G03*
X130152150Y-102618600I0J50000D01*
G01*
D12*
%TO.C,R2*%
X118009124Y-103646500D02*
X117499676Y-103646500D01*
X118009124Y-102601500D02*
X117499676Y-102601500D01*
D14*
%TO.C,Z2*%
X113995200Y-107451200D02*
X113995200Y-107451200D01*
D13*
X113195200Y-105851200D02*
X113195200Y-103851200D01*
X114795200Y-105851200D02*
X114795200Y-103851200D01*
D14*
X113995200Y-107551200D02*
X113995200Y-107551200D01*
X113995200Y-107551200D02*
G75*
G03*
X113995200Y-107451200I0J50000D01*
G01*
X113995200Y-107451200D02*
G75*
G03*
X113995200Y-107551200I0J-50000D01*
G01*
D12*
%TO.C,R11*%
X132968276Y-110196100D02*
X133477724Y-110196100D01*
X132968276Y-111241100D02*
X133477724Y-111241100D01*
%TO.C,C23*%
X140024067Y-103100600D02*
X139731533Y-103100600D01*
X140024067Y-102080600D02*
X139731533Y-102080600D01*
D13*
%TO.C,IC6*%
X144985400Y-103807400D02*
X144985400Y-103507400D01*
X145070400Y-105257400D02*
X145070400Y-104157400D01*
X144985400Y-103507400D02*
X142085400Y-103507400D01*
X142085400Y-103507400D02*
X142085400Y-103807400D01*
X142085400Y-103807400D02*
X144985400Y-103807400D01*
%TD*%
%LPC*%
D10*
X152933400Y-107365800D02*
X152933400Y-106680000D01*
X152552400Y-107035600D02*
X153289000Y-107035600D01*
X152501600Y-110769400D02*
X153060400Y-110769400D01*
D15*
%TO.C,U2*%
X153416000Y-112522000D03*
%TD*%
D16*
%TO.C,D3*%
X122174000Y-105156000D03*
%TD*%
%TO.C,D1*%
X122174000Y-102362000D03*
%TD*%
%TO.C,D2*%
X122174000Y-107950000D03*
%TD*%
D15*
%TO.C,U5*%
X101600000Y-112522000D03*
%TD*%
%TO.C,U4*%
X153416000Y-100584000D03*
%TD*%
%TO.C,U3*%
X101600000Y-100584000D03*
%TD*%
D16*
%TO.C,D20*%
X122174000Y-110744000D03*
%TD*%
D17*
%TO.C,R1*%
X125429000Y-107010200D03*
X127254000Y-107010200D03*
%TD*%
D18*
%TO.C,C21*%
X107238800Y-104186900D03*
X107238800Y-108461900D03*
%TD*%
D19*
%TO.C,C22*%
X140689500Y-104775000D03*
X138964500Y-104775000D03*
%TD*%
D20*
%TO.C,R12*%
X134135500Y-108280200D03*
X132310500Y-108280200D03*
%TD*%
D21*
%TO.C,IC2*%
X116756800Y-107122000D03*
X116756800Y-105222000D03*
X119056800Y-106172000D03*
%TD*%
D22*
%TO.C,L10*%
X136728200Y-104507400D03*
X136728200Y-102807400D03*
%TD*%
D21*
%TO.C,IC1*%
X127390550Y-103047800D03*
X127390550Y-104947800D03*
X125090550Y-103997800D03*
%TD*%
D23*
%TO.C,U1*%
X144239000Y-106934000D03*
X144239000Y-108204000D03*
X144239000Y-109474000D03*
X144239000Y-110744000D03*
X136939000Y-110744000D03*
X136939000Y-109474000D03*
X136939000Y-108204000D03*
X136939000Y-106934000D03*
%TD*%
D24*
%TO.C,Z1*%
X130152150Y-103683600D03*
X130152150Y-106953600D03*
%TD*%
D20*
%TO.C,R2*%
X118666900Y-103124000D03*
X116841900Y-103124000D03*
%TD*%
D24*
%TO.C,Z2*%
X113995200Y-106486200D03*
X113995200Y-103216200D03*
%TD*%
D17*
%TO.C,R11*%
X132310500Y-110718600D03*
X134135500Y-110718600D03*
%TD*%
D19*
%TO.C,C23*%
X140740300Y-102590600D03*
X139015300Y-102590600D03*
%TD*%
D25*
%TO.C,IC6*%
X144495400Y-104707400D03*
X142575400Y-104707400D03*
X143535400Y-102607400D03*
%TD*%
M02*
