M48
; DRILL file {KiCad (6.0.4)} date Sun Jun 19 16:10:08 2022
; FORMAT={-:-/ absolute / metric / decimal}
; #@! TF.CreationDate,2022-06-19T16:10:08+03:00
; #@! TF.GenerationSoftware,Kicad,Pcbnew,(6.0.4)
; #@! TF.FileFunction,Plated,1,4,PTH
FMAT,2
METRIC
; #@! TA.AperFunction,Plated,PTH,ViaDrill
T1C0.400
; #@! TA.AperFunction,Plated,PTH,ComponentDrill
T2C1.200
; #@! TA.AperFunction,Plated,PTH,ComponentDrill
T3C1.250
%
G90
G05
T1
X100.686Y-105.232
X100.711Y-107.239
X100.813Y-110.769
X102.413Y-106.401
X103.149Y-99.72
X104.267Y-110.236
X104.419Y-101.524
X105.664Y-111.684
X108.255Y-111.709
X108.661Y-100.482
X110.211Y-111.709
X110.693Y-106.147
X110.693Y-108.204
X114.452Y-108.382
X119.304Y-109.372
X119.355Y-111.684
X120.091Y-102.921
X121.92Y-103.759
X122.479Y-106.528
X122.987Y-111.887
X128.727Y-111.989
X130.759Y-109.398
X131.42Y-105.766
X132.791Y-104.648
X138.532Y-110.236
X138.633Y-104.775
X139.929Y-112.293
X141.554Y-112.319
X142.011Y-110.236
X146.05Y-112.192
X146.202Y-104.699
X146.329Y-101.041
X146.634Y-109.779
X148.082Y-107.264
X148.158Y-103.048
X150.165Y-109.626
X150.216Y-106.934
X150.241Y-103.937
X151.917Y-112.852
X153.416Y-108.306
X153.441Y-103.022
X153.467Y-105.867
T2
X122.174Y-102.362
X122.174Y-105.156
X122.174Y-107.95
X122.174Y-110.744
T3
X101.6Y-100.584
X101.6Y-112.522
X153.416Y-100.584
X153.416Y-112.522
T0
M30
