%TF.GenerationSoftware,KiCad,Pcbnew,(6.0.4)*%
%TF.CreationDate,2022-06-19T16:10:13+03:00*%
%TF.ProjectId,Main_PCB_001,4d61696e-5f50-4434-925f-3030312e6b69,rev?*%
%TF.SameCoordinates,Original*%
%TF.FileFunction,Paste,Top*%
%TF.FilePolarity,Positive*%
%FSLAX46Y46*%
G04 Gerber Fmt 4.6, Leading zero omitted, Abs format (unit mm)*
G04 Created by KiCad (PCBNEW (6.0.4)) date 2022-06-19 16:10:13*
%MOMM*%
%LPD*%
G01*
G04 APERTURE LIST*
G04 Aperture macros list*
%AMRoundRect*
0 Rectangle with rounded corners*
0 $1 Rounding radius*
0 $2 $3 $4 $5 $6 $7 $8 $9 X,Y pos of 4 corners*
0 Add a 4 corners polygon primitive as box body*
4,1,4,$2,$3,$4,$5,$6,$7,$8,$9,$2,$3,0*
0 Add four circle primitives for the rounded corners*
1,1,$1+$1,$2,$3*
1,1,$1+$1,$4,$5*
1,1,$1+$1,$6,$7*
1,1,$1+$1,$8,$9*
0 Add four rect primitives between the rounded corners*
20,1,$1+$1,$2,$3,$4,$5,0*
20,1,$1+$1,$4,$5,$6,$7,0*
20,1,$1+$1,$6,$7,$8,$9,0*
20,1,$1+$1,$8,$9,$2,$3,0*%
G04 Aperture macros list end*
%ADD10RoundRect,0.300000X0.300000X0.450000X-0.300000X0.450000X-0.300000X-0.450000X0.300000X-0.450000X0*%
%ADD11RoundRect,0.237500X0.300000X0.237500X-0.300000X0.237500X-0.300000X-0.237500X0.300000X-0.237500X0*%
%ADD12R,2.150000X1.600000*%
%ADD13R,0.650000X1.525000*%
%ADD14R,2.410000X3.300000*%
%ADD15R,1.200000X1.800000*%
%ADD16RoundRect,0.237500X-0.237500X0.250000X-0.237500X-0.250000X0.237500X-0.250000X0.237500X0.250000X0*%
%ADD17RoundRect,0.155000X-0.155000X0.212500X-0.155000X-0.212500X0.155000X-0.212500X0.155000X0.212500X0*%
%ADD18RoundRect,0.250000X-0.337500X-0.475000X0.337500X-0.475000X0.337500X0.475000X-0.337500X0.475000X0*%
%ADD19RoundRect,0.160000X-0.160000X0.197500X-0.160000X-0.197500X0.160000X-0.197500X0.160000X0.197500X0*%
%ADD20RoundRect,0.300000X-0.300000X-0.450000X0.300000X-0.450000X0.300000X0.450000X-0.300000X0.450000X0*%
%ADD21R,1.400000X0.300000*%
%ADD22R,1.570000X1.880000*%
%ADD23RoundRect,0.300000X0.450000X-0.300000X0.450000X0.300000X-0.450000X0.300000X-0.450000X-0.300000X0*%
%ADD24RoundRect,0.160000X-0.197500X-0.160000X0.197500X-0.160000X0.197500X0.160000X-0.197500X0.160000X0*%
%ADD25R,1.800000X2.100000*%
%ADD26R,1.630000X1.530000*%
%ADD27R,2.100000X1.800000*%
%ADD28RoundRect,0.250000X-0.400000X-0.625000X0.400000X-0.625000X0.400000X0.625000X-0.400000X0.625000X0*%
%ADD29R,1.100000X0.650000*%
%ADD30RoundRect,0.250000X-0.650000X0.412500X-0.650000X-0.412500X0.650000X-0.412500X0.650000X0.412500X0*%
%ADD31RoundRect,0.155000X0.212500X0.155000X-0.212500X0.155000X-0.212500X-0.155000X0.212500X-0.155000X0*%
%ADD32RoundRect,0.155000X0.155000X-0.212500X0.155000X0.212500X-0.155000X0.212500X-0.155000X-0.212500X0*%
%ADD33R,1.800000X1.200000*%
%ADD34RoundRect,0.155000X-0.212500X-0.155000X0.212500X-0.155000X0.212500X0.155000X-0.212500X0.155000X0*%
%ADD35RoundRect,0.237500X-0.237500X0.300000X-0.237500X-0.300000X0.237500X-0.300000X0.237500X0.300000X0*%
%ADD36R,1.250000X0.800000*%
%ADD37RoundRect,0.250000X0.475000X-0.337500X0.475000X0.337500X-0.475000X0.337500X-0.475000X-0.337500X0*%
%ADD38RoundRect,0.160000X0.160000X-0.197500X0.160000X0.197500X-0.160000X0.197500X-0.160000X-0.197500X0*%
%ADD39RoundRect,0.250000X-0.350000X-0.450000X0.350000X-0.450000X0.350000X0.450000X-0.350000X0.450000X0*%
G04 APERTURE END LIST*
D10*
%TO.C,D15*%
X102971600Y-103657400D03*
%TD*%
D11*
%TO.C,C16*%
X133145700Y-105801000D03*
X131420700Y-105801000D03*
%TD*%
D12*
%TO.C,L7*%
X136131600Y-102905400D03*
X140931600Y-102905400D03*
%TD*%
D13*
%TO.C,IC4*%
X114477800Y-104425200D03*
X113207800Y-104425200D03*
X111937800Y-104425200D03*
X110667800Y-104425200D03*
X110667800Y-109849200D03*
X111937800Y-109849200D03*
X113207800Y-109849200D03*
X114477800Y-109849200D03*
D14*
X112572800Y-107137200D03*
%TD*%
D15*
%TO.C,L3*%
X118706000Y-104267000D03*
X117006000Y-104267000D03*
%TD*%
D16*
%TO.C,R10*%
X139954000Y-110476500D03*
X139954000Y-112301500D03*
%TD*%
D17*
%TO.C,C9*%
X126746000Y-106884500D03*
X126746000Y-108019500D03*
%TD*%
D18*
%TO.C,C10*%
X116462900Y-101981000D03*
X118537900Y-101981000D03*
%TD*%
D19*
%TO.C,R5*%
X127203200Y-110947200D03*
X127203200Y-112142200D03*
%TD*%
D20*
%TO.C,D5*%
X102971600Y-109042200D03*
%TD*%
%TO.C,D7*%
X148259800Y-111709200D03*
%TD*%
D21*
%TO.C,IC3*%
X128737000Y-107849000D03*
X128737000Y-108349000D03*
X128737000Y-108849000D03*
X128737000Y-109349000D03*
X128737000Y-109849000D03*
X133137000Y-109849000D03*
X133137000Y-109349000D03*
X133137000Y-108849000D03*
X133137000Y-108349000D03*
X133137000Y-107849000D03*
D22*
X130937000Y-108849000D03*
%TD*%
D23*
%TO.C,D13*%
X153416000Y-108331000D03*
%TD*%
D24*
%TO.C,R9*%
X134911500Y-107833000D03*
X136106500Y-107833000D03*
%TD*%
D25*
%TO.C,L4*%
X127082000Y-102295800D03*
X130982000Y-102295800D03*
%TD*%
D10*
%TO.C,D14*%
X101574600Y-103657400D03*
%TD*%
D26*
%TO.C,D10*%
X116890800Y-106380200D03*
X116890800Y-110180200D03*
%TD*%
D27*
%TO.C,L8*%
X107340400Y-109722200D03*
X107340400Y-105822200D03*
%TD*%
D28*
%TO.C,R6*%
X111429200Y-102108000D03*
X114529200Y-102108000D03*
%TD*%
D29*
%TO.C,IC5*%
X137534000Y-106883000D03*
X137534000Y-108783000D03*
X139834000Y-107833000D03*
%TD*%
D11*
%TO.C,C14*%
X143305700Y-112303400D03*
X141580700Y-112303400D03*
%TD*%
D30*
%TO.C,C12*%
X133502400Y-100834900D03*
X133502400Y-103959900D03*
%TD*%
D31*
%TO.C,C4*%
X127186500Y-109931200D03*
X126051500Y-109931200D03*
%TD*%
D20*
%TO.C,D6*%
X149682200Y-111734600D03*
%TD*%
D32*
%TO.C,C6*%
X126187200Y-112098900D03*
X126187200Y-110963900D03*
%TD*%
D33*
%TO.C,L9*%
X106375200Y-103542200D03*
X106375200Y-101842200D03*
%TD*%
D20*
%TO.C,D4*%
X101600000Y-109042200D03*
%TD*%
D34*
%TO.C,C8*%
X126838900Y-105343800D03*
X127973900Y-105343800D03*
%TD*%
D35*
%TO.C,C7*%
X119227600Y-106249300D03*
X119227600Y-107974300D03*
%TD*%
D24*
%TO.C,R8*%
X134784500Y-106436000D03*
X135979500Y-106436000D03*
%TD*%
%TO.C,R7*%
X127977300Y-106410600D03*
X129172300Y-106410600D03*
%TD*%
D20*
%TO.C,D8*%
X148259800Y-101092000D03*
%TD*%
D36*
%TO.C,Z3*%
X138269600Y-111389000D03*
X134969600Y-111389000D03*
%TD*%
D37*
%TO.C,C20*%
X108737400Y-103729700D03*
X108737400Y-101654700D03*
%TD*%
D34*
%TO.C,C15*%
X134941500Y-108849000D03*
X136076500Y-108849000D03*
%TD*%
D23*
%TO.C,D11*%
X153390600Y-109677200D03*
%TD*%
D20*
%TO.C,D9*%
X149707600Y-101092000D03*
%TD*%
D26*
%TO.C,D12*%
X143916400Y-104653000D03*
X143916400Y-100853000D03*
%TD*%
D38*
%TO.C,R4*%
X132207000Y-112240500D03*
X132207000Y-111045500D03*
%TD*%
D35*
%TO.C,C11*%
X125476000Y-105700500D03*
X125476000Y-107425500D03*
%TD*%
D30*
%TO.C,C17*%
X141884400Y-107134100D03*
X141884400Y-110259100D03*
%TD*%
D33*
%TO.C,L6*%
X144221200Y-108276600D03*
X144221200Y-106576600D03*
%TD*%
D39*
%TO.C,R3*%
X128692400Y-111693800D03*
X130692400Y-111693800D03*
%TD*%
M02*
