%TF.GenerationSoftware,KiCad,Pcbnew,(6.0.4)*%
%TF.CreationDate,2022-06-19T16:10:13+03:00*%
%TF.ProjectId,Main_PCB_001,4d61696e-5f50-4434-925f-3030312e6b69,rev?*%
%TF.SameCoordinates,Original*%
%TF.FileFunction,Copper,L4,Bot*%
%TF.FilePolarity,Positive*%
%FSLAX46Y46*%
G04 Gerber Fmt 4.6, Leading zero omitted, Abs format (unit mm)*
G04 Created by KiCad (PCBNEW (6.0.4)) date 2022-06-19 16:10:13*
%MOMM*%
%LPD*%
G01*
G04 APERTURE LIST*
G04 Aperture macros list*
%AMRoundRect*
0 Rectangle with rounded corners*
0 $1 Rounding radius*
0 $2 $3 $4 $5 $6 $7 $8 $9 X,Y pos of 4 corners*
0 Add a 4 corners polygon primitive as box body*
4,1,4,$2,$3,$4,$5,$6,$7,$8,$9,$2,$3,0*
0 Add four circle primitives for the rounded corners*
1,1,$1+$1,$2,$3*
1,1,$1+$1,$4,$5*
1,1,$1+$1,$6,$7*
1,1,$1+$1,$8,$9*
0 Add four rect primitives between the rounded corners*
20,1,$1+$1,$2,$3,$4,$5,0*
20,1,$1+$1,$4,$5,$6,$7,0*
20,1,$1+$1,$6,$7,$8,$9,0*
20,1,$1+$1,$8,$9,$2,$3,0*%
G04 Aperture macros list end*
%TA.AperFunction,ComponentPad*%
%ADD10C,1.350000*%
%TD*%
%TA.AperFunction,ComponentPad*%
%ADD11C,1.600000*%
%TD*%
%TA.AperFunction,SMDPad,CuDef*%
%ADD12RoundRect,0.300000X0.450000X-0.300000X0.450000X0.300000X-0.450000X0.300000X-0.450000X-0.300000X0*%
%TD*%
%TA.AperFunction,SMDPad,CuDef*%
%ADD13RoundRect,0.237500X-0.250000X-0.237500X0.250000X-0.237500X0.250000X0.237500X-0.250000X0.237500X0*%
%TD*%
%TA.AperFunction,SMDPad,CuDef*%
%ADD14RoundRect,0.250000X-1.450000X0.537500X-1.450000X-0.537500X1.450000X-0.537500X1.450000X0.537500X0*%
%TD*%
%TA.AperFunction,SMDPad,CuDef*%
%ADD15RoundRect,0.237500X0.300000X0.237500X-0.300000X0.237500X-0.300000X-0.237500X0.300000X-0.237500X0*%
%TD*%
%TA.AperFunction,SMDPad,CuDef*%
%ADD16RoundRect,0.237500X0.250000X0.237500X-0.250000X0.237500X-0.250000X-0.237500X0.250000X-0.237500X0*%
%TD*%
%TA.AperFunction,SMDPad,CuDef*%
%ADD17R,1.100000X0.650000*%
%TD*%
%TA.AperFunction,SMDPad,CuDef*%
%ADD18R,1.800000X1.200000*%
%TD*%
%TA.AperFunction,SMDPad,CuDef*%
%ADD19R,1.700000X0.650000*%
%TD*%
%TA.AperFunction,SMDPad,CuDef*%
%ADD20R,1.220000X0.910000*%
%TD*%
%TA.AperFunction,SMDPad,CuDef*%
%ADD21R,0.650000X1.100000*%
%TD*%
%TA.AperFunction,ViaPad*%
%ADD22C,0.800000*%
%TD*%
%TA.AperFunction,Conductor*%
%ADD23C,1.000000*%
%TD*%
%TA.AperFunction,Conductor*%
%ADD24C,0.250000*%
%TD*%
%TA.AperFunction,Conductor*%
%ADD25C,0.500000*%
%TD*%
G04 APERTURE END LIST*
D10*
%TO.P,U2,1,Mnt*%
%TO.N,GND*%
X153416000Y-112522000D03*
%TD*%
D11*
%TO.P,D3,1,Conn*%
%TO.N,Net-(D3-Pad1)*%
X122174000Y-105156000D03*
%TD*%
%TO.P,D1,1,Conn*%
%TO.N,Net-(C11-Pad1)*%
X122174000Y-102362000D03*
%TD*%
D12*
%TO.P,D13,1,Conn*%
%TO.N,Net-(D13-Pad1)*%
X153416000Y-108331000D03*
%TD*%
D11*
%TO.P,D2,1,Conn*%
%TO.N,Net-(C7-Pad1)*%
X122174000Y-107950000D03*
%TD*%
D10*
%TO.P,U5,1,Mnt*%
%TO.N,GND*%
X101600000Y-112522000D03*
%TD*%
%TO.P,U4,1,Mnt*%
%TO.N,GND*%
X153416000Y-100584000D03*
%TD*%
%TO.P,U3,1,Mnt*%
%TO.N,GND*%
X101600000Y-100584000D03*
%TD*%
D11*
%TO.P,D20,1,Conn*%
%TO.N,Net-(D20-Pad1)*%
X122174000Y-110744000D03*
%TD*%
D12*
%TO.P,D11,1,Conn*%
%TO.N,Net-(D11-Pad1)*%
X153390600Y-109677200D03*
%TD*%
D13*
%TO.P,R1,1*%
%TO.N,Net-(C11-Pad1)*%
X125429000Y-107010200D03*
%TO.P,R1,2*%
%TO.N,Net-(IC1-Pad1)*%
X127254000Y-107010200D03*
%TD*%
D14*
%TO.P,C21,1*%
%TO.N,Net-(C11-Pad1)*%
X107238800Y-104186900D03*
%TO.P,C21,2*%
%TO.N,GND*%
X107238800Y-108461900D03*
%TD*%
D15*
%TO.P,C22,1*%
%TO.N,Net-(C22-Pad1)*%
X140689500Y-104775000D03*
%TO.P,C22,2*%
%TO.N,GND*%
X138964500Y-104775000D03*
%TD*%
D16*
%TO.P,R12,1*%
%TO.N,Net-(R12-Pad1)*%
X134135500Y-108280200D03*
%TO.P,R12,2*%
%TO.N,Net-(D20-Pad1)*%
X132310500Y-108280200D03*
%TD*%
D17*
%TO.P,IC2,1,G*%
%TO.N,Net-(IC2-Pad1)*%
X116756800Y-107122000D03*
%TO.P,IC2,2,S*%
%TO.N,GND*%
X116756800Y-105222000D03*
%TO.P,IC2,3,D*%
%TO.N,Net-(D3-Pad1)*%
X119056800Y-106172000D03*
%TD*%
D18*
%TO.P,L10,1*%
%TO.N,Net-(C11-Pad1)*%
X136728200Y-104507400D03*
%TO.P,L10,2*%
%TO.N,Net-(C23-Pad1)*%
X136728200Y-102807400D03*
%TD*%
D17*
%TO.P,IC1,1,G*%
%TO.N,Net-(IC1-Pad1)*%
X127390550Y-103047800D03*
%TO.P,IC1,2,S*%
%TO.N,GND*%
X127390550Y-104947800D03*
%TO.P,IC1,3,D*%
%TO.N,Net-(D3-Pad1)*%
X125090550Y-103997800D03*
%TD*%
D19*
%TO.P,U1,1,~{RESET}/PB5*%
%TO.N,unconnected-(U1-Pad1)*%
X144239000Y-106934000D03*
%TO.P,U1,2,XTAL1/PB3*%
%TO.N,unconnected-(U1-Pad2)*%
X144239000Y-108204000D03*
%TO.P,U1,3,XTAL2/PB4*%
%TO.N,unconnected-(U1-Pad3)*%
X144239000Y-109474000D03*
%TO.P,U1,4,GND*%
%TO.N,GND*%
X144239000Y-110744000D03*
%TO.P,U1,5,AREF/PB0*%
%TO.N,unconnected-(U1-Pad5)*%
X136939000Y-110744000D03*
%TO.P,U1,6,PB1*%
%TO.N,Net-(R11-Pad2)*%
X136939000Y-109474000D03*
%TO.P,U1,7,PB2*%
%TO.N,Net-(R12-Pad1)*%
X136939000Y-108204000D03*
%TO.P,U1,8,VCC*%
%TO.N,Net-(C22-Pad1)*%
X136939000Y-106934000D03*
%TD*%
D20*
%TO.P,Z1,1*%
%TO.N,Net-(IC1-Pad1)*%
X130152150Y-103683600D03*
%TO.P,Z1,2*%
%TO.N,GND*%
X130152150Y-106953600D03*
%TD*%
D16*
%TO.P,R2,1*%
%TO.N,Net-(C7-Pad1)*%
X118666900Y-103124000D03*
%TO.P,R2,2*%
%TO.N,Net-(IC2-Pad1)*%
X116841900Y-103124000D03*
%TD*%
D20*
%TO.P,Z2,1*%
%TO.N,Net-(IC2-Pad1)*%
X113995200Y-106486200D03*
%TO.P,Z2,2*%
%TO.N,GND*%
X113995200Y-103216200D03*
%TD*%
D13*
%TO.P,R11,1*%
%TO.N,Net-(IC3-Pad3)*%
X132310500Y-110718600D03*
%TO.P,R11,2*%
%TO.N,Net-(R11-Pad2)*%
X134135500Y-110718600D03*
%TD*%
D15*
%TO.P,C23,1*%
%TO.N,Net-(C23-Pad1)*%
X140740300Y-102590600D03*
%TO.P,C23,2*%
%TO.N,GND*%
X139015300Y-102590600D03*
%TD*%
D21*
%TO.P,IC6,1,GND*%
%TO.N,GND*%
X144495400Y-104707400D03*
%TO.P,IC6,2,VOUT*%
%TO.N,Net-(C22-Pad1)*%
X142575400Y-104707400D03*
%TO.P,IC6,3,VIN*%
%TO.N,Net-(C23-Pad1)*%
X143535400Y-102607400D03*
%TD*%
D22*
%TO.N,GND*%
X130759200Y-109397800D03*
X114452400Y-108381800D03*
X128727200Y-111988600D03*
X146050000Y-112191800D03*
X146329400Y-101041200D03*
X138531600Y-110236000D03*
X110693200Y-108204000D03*
X146202400Y-104698800D03*
X100685600Y-105232200D03*
X131419600Y-105765600D03*
X150241000Y-103936800D03*
X104267000Y-110236000D03*
X119354600Y-111683800D03*
X139928600Y-112293400D03*
X104419400Y-101523800D03*
X108661200Y-100482400D03*
X151917400Y-112852200D03*
X105664000Y-111683800D03*
X153441400Y-103022400D03*
X103149400Y-99720400D03*
X110210600Y-111709200D03*
X150215600Y-106934000D03*
X141554200Y-112318800D03*
X102412800Y-106400600D03*
X110693200Y-106146600D03*
X148082000Y-107264200D03*
X153466800Y-105867200D03*
X100711000Y-107238800D03*
X146634200Y-109778800D03*
X108254800Y-111709200D03*
X148158200Y-103047800D03*
X150164800Y-109626400D03*
X119303800Y-109372400D03*
X142011400Y-110236000D03*
X132791200Y-104648000D03*
X138633200Y-104775000D03*
X100812600Y-110769400D03*
X120091200Y-102920800D03*
%TO.N,Net-(C11-Pad1)*%
X122478800Y-106527600D03*
%TO.N,Net-(C7-Pad1)*%
X121920000Y-103759000D03*
%TO.N,Net-(D11-Pad1)*%
X153441400Y-109677200D03*
%TO.N,Net-(D13-Pad1)*%
X153416000Y-108305600D03*
%TO.N,Net-(IC3-Pad3)*%
X122986800Y-111887000D03*
%TD*%
D23*
%TO.N,Net-(C11-Pad1)*%
X122174000Y-102311200D02*
X122174000Y-102362000D01*
X108639700Y-104186900D02*
X111048800Y-101777800D01*
D24*
X122478800Y-106527600D02*
X124809850Y-106527600D01*
X124809850Y-106527600D02*
X125429650Y-107147400D01*
D23*
X136728200Y-104507400D02*
X134301600Y-104507400D01*
X107238800Y-104186900D02*
X108639700Y-104186900D01*
X123240800Y-101244400D02*
X122174000Y-102311200D01*
X134301600Y-104507400D02*
X131038600Y-101244400D01*
X111048800Y-101777800D02*
X121589800Y-101777800D01*
X131038600Y-101244400D02*
X123240800Y-101244400D01*
X121589800Y-101777800D02*
X122174000Y-102362000D01*
D25*
%TO.N,Net-(C7-Pad1)*%
X121908689Y-103770311D02*
X119313211Y-103770311D01*
X119313211Y-103770311D02*
X118666900Y-103124000D01*
X121920000Y-103759000D02*
X121908689Y-103770311D01*
D23*
%TO.N,Net-(C22-Pad1)*%
X136939000Y-106934000D02*
X139852400Y-106934000D01*
X140690600Y-104776100D02*
X140689500Y-104775000D01*
X142282200Y-104707400D02*
X142575400Y-104707400D01*
X142214600Y-104775000D02*
X142282200Y-104707400D01*
X139852400Y-106934000D02*
X140690600Y-106095800D01*
X140689500Y-104775000D02*
X142214600Y-104775000D01*
X140690600Y-106095800D02*
X140690600Y-104776100D01*
%TO.N,Net-(C23-Pad1)*%
X137744200Y-101219000D02*
X140131800Y-101219000D01*
X140131800Y-101219000D02*
X140740300Y-101827500D01*
X136728200Y-102235000D02*
X137744200Y-101219000D01*
X140740300Y-101827500D02*
X140740300Y-102590600D01*
X136728200Y-102807400D02*
X136728200Y-102235000D01*
X143518600Y-102590600D02*
X143535400Y-102607400D01*
X140740300Y-102590600D02*
X143518600Y-102590600D01*
%TO.N,Net-(D3-Pad1)*%
X120650000Y-105156000D02*
X120072800Y-105156000D01*
X123840200Y-103997800D02*
X123332200Y-103997800D01*
X122174000Y-105156000D02*
X120650000Y-105156000D01*
X123332200Y-103997800D02*
X122174000Y-105156000D01*
X125090550Y-103997800D02*
X123840200Y-103997800D01*
X120072800Y-105156000D02*
X119056800Y-106172000D01*
D25*
%TO.N,Net-(D20-Pad1)*%
X124949140Y-107968860D02*
X122174000Y-110744000D01*
X131999160Y-107968860D02*
X124949140Y-107968860D01*
X132310500Y-108280200D02*
X131999160Y-107968860D01*
D23*
%TO.N,Net-(IC1-Pad1)*%
X129403450Y-103047800D02*
X127390550Y-103047800D01*
X130152150Y-103683600D02*
X130039250Y-103683600D01*
X130039250Y-103683600D02*
X129403450Y-103047800D01*
X128931050Y-103520200D02*
X129403450Y-103047800D01*
X128931050Y-105928200D02*
X128931050Y-103520200D01*
X127254000Y-107010200D02*
X127849050Y-107010200D01*
X127849050Y-107010200D02*
X128931050Y-105928200D01*
%TO.N,Net-(IC2-Pad1)*%
X116841900Y-103124000D02*
X116586000Y-103124000D01*
X114874000Y-104836000D02*
X114874000Y-107122000D01*
X116586000Y-103124000D02*
X114874000Y-104836000D01*
X116756800Y-107122000D02*
X114874000Y-107122000D01*
X114874000Y-107122000D02*
X114631000Y-107122000D01*
X114631000Y-107122000D02*
X113995200Y-106486200D01*
D24*
%TO.N,Net-(IC3-Pad3)*%
X122986800Y-111785400D02*
X124307600Y-110464600D01*
X132056500Y-110464600D02*
X132310500Y-110718600D01*
X124307600Y-110464600D02*
X132056500Y-110464600D01*
X122986800Y-111887000D02*
X122986800Y-111785400D01*
D25*
%TO.N,Net-(R11-Pad2)*%
X136939000Y-109474000D02*
X135380100Y-109474000D01*
X135380100Y-109474000D02*
X134135500Y-110718600D01*
%TO.N,Net-(R12-Pad1)*%
X134135500Y-108280200D02*
X136862800Y-108280200D01*
X136862800Y-108280200D02*
X136939000Y-108204000D01*
%TD*%
%TA.AperFunction,Conductor*%
%TO.N,GND*%
G36*
X154712691Y-99333407D02*
G01*
X154748655Y-99382907D01*
X154753500Y-99413500D01*
X154753500Y-113692500D01*
X154734593Y-113750691D01*
X154685093Y-113786655D01*
X154654500Y-113791500D01*
X100361500Y-113791500D01*
X100303309Y-113772593D01*
X100267345Y-113723093D01*
X100262500Y-113692500D01*
X100262500Y-104772156D01*
X105284300Y-104772156D01*
X105291002Y-104833848D01*
X105341729Y-104969164D01*
X105428396Y-105084804D01*
X105544036Y-105171471D01*
X105679352Y-105222198D01*
X105741044Y-105228900D01*
X108736556Y-105228900D01*
X108798248Y-105222198D01*
X108933564Y-105171471D01*
X109049204Y-105084804D01*
X109135871Y-104969164D01*
X109186598Y-104833848D01*
X109193300Y-104772156D01*
X109193300Y-104741333D01*
X109212207Y-104683142D01*
X109222296Y-104671329D01*
X111332328Y-102561296D01*
X111386845Y-102533519D01*
X111402332Y-102532300D01*
X115871668Y-102532300D01*
X115929859Y-102551207D01*
X115965823Y-102600707D01*
X115965823Y-102661893D01*
X115941672Y-102701304D01*
X114386252Y-104256724D01*
X114374927Y-104266456D01*
X114366614Y-104272574D01*
X114355929Y-104280437D01*
X114352207Y-104284819D01*
X114352204Y-104284821D01*
X114321211Y-104321303D01*
X114315767Y-104327209D01*
X114309338Y-104333638D01*
X114307559Y-104335887D01*
X114307556Y-104335890D01*
X114291519Y-104356161D01*
X114289327Y-104358834D01*
X114242018Y-104414520D01*
X114239403Y-104419642D01*
X114236209Y-104424430D01*
X114236110Y-104424364D01*
X114234181Y-104427368D01*
X114234283Y-104427431D01*
X114231263Y-104432321D01*
X114227693Y-104436833D01*
X114198828Y-104498594D01*
X114196753Y-104503033D01*
X114195235Y-104506137D01*
X114165467Y-104564436D01*
X114162007Y-104571212D01*
X114160641Y-104576795D01*
X114158635Y-104582188D01*
X114158525Y-104582147D01*
X114157337Y-104585519D01*
X114157449Y-104585556D01*
X114155634Y-104591012D01*
X114153199Y-104596222D01*
X114152029Y-104601849D01*
X114152028Y-104601851D01*
X114138318Y-104667769D01*
X114137562Y-104671111D01*
X114120189Y-104742108D01*
X114119500Y-104753214D01*
X114119282Y-104753200D01*
X114118822Y-104757092D01*
X114119054Y-104757113D01*
X114118542Y-104762847D01*
X114117372Y-104768473D01*
X114117527Y-104774215D01*
X114117527Y-104774219D01*
X114119464Y-104845785D01*
X114119500Y-104848463D01*
X114119500Y-105631678D01*
X114100593Y-105689869D01*
X114051093Y-105725833D01*
X114023178Y-105730642D01*
X113892601Y-105734175D01*
X113892597Y-105734176D01*
X113886854Y-105734331D01*
X113881299Y-105735804D01*
X113881298Y-105735804D01*
X113739521Y-105773395D01*
X113714149Y-105776701D01*
X113360134Y-105776701D01*
X113355368Y-105777649D01*
X113355367Y-105777649D01*
X113327076Y-105783276D01*
X113285899Y-105791466D01*
X113201716Y-105847716D01*
X113145466Y-105931899D01*
X113130700Y-106006133D01*
X113130701Y-106966266D01*
X113145466Y-107040501D01*
X113201716Y-107124684D01*
X113285899Y-107180934D01*
X113295462Y-107182836D01*
X113295464Y-107182837D01*
X113326381Y-107188986D01*
X113360133Y-107195700D01*
X113596668Y-107195700D01*
X113654859Y-107214607D01*
X113666671Y-107224696D01*
X114051724Y-107609748D01*
X114061457Y-107621074D01*
X114075437Y-107640071D01*
X114079820Y-107643795D01*
X114079825Y-107643800D01*
X114116317Y-107674803D01*
X114122216Y-107680241D01*
X114126607Y-107684632D01*
X114126614Y-107684638D01*
X114128638Y-107686662D01*
X114132980Y-107690097D01*
X114151161Y-107704481D01*
X114153834Y-107706673D01*
X114209520Y-107753982D01*
X114214642Y-107756597D01*
X114219430Y-107759791D01*
X114219364Y-107759890D01*
X114222368Y-107761819D01*
X114222431Y-107761717D01*
X114227321Y-107764737D01*
X114231833Y-107768307D01*
X114298046Y-107799253D01*
X114301137Y-107800765D01*
X114361088Y-107831377D01*
X114361091Y-107831378D01*
X114366212Y-107833993D01*
X114371795Y-107835359D01*
X114377188Y-107837365D01*
X114377147Y-107837475D01*
X114380519Y-107838663D01*
X114380556Y-107838551D01*
X114386012Y-107840366D01*
X114391222Y-107842801D01*
X114396849Y-107843971D01*
X114396851Y-107843972D01*
X114439545Y-107852852D01*
X114462776Y-107857683D01*
X114466111Y-107858438D01*
X114537108Y-107875811D01*
X114541506Y-107876084D01*
X114541507Y-107876084D01*
X114548214Y-107876500D01*
X114548200Y-107876718D01*
X114552092Y-107877178D01*
X114552113Y-107876946D01*
X114557847Y-107877458D01*
X114563473Y-107878628D01*
X114569215Y-107878473D01*
X114569219Y-107878473D01*
X114640785Y-107876536D01*
X114643463Y-107876500D01*
X114847150Y-107876500D01*
X114853280Y-107876690D01*
X114909340Y-107880168D01*
X114909341Y-107880168D01*
X114915080Y-107880524D01*
X114930176Y-107877930D01*
X114946942Y-107876500D01*
X116800853Y-107876500D01*
X116931554Y-107861262D01*
X116936960Y-107859300D01*
X116936963Y-107859299D01*
X117091526Y-107803195D01*
X117096934Y-107801232D01*
X117101743Y-107798079D01*
X117101747Y-107798077D01*
X117224330Y-107717707D01*
X117278611Y-107701499D01*
X117331866Y-107701499D01*
X117336632Y-107700551D01*
X117336633Y-107700551D01*
X117396538Y-107688636D01*
X117406101Y-107686734D01*
X117490284Y-107630484D01*
X117546534Y-107546301D01*
X117548643Y-107535702D01*
X117555996Y-107498734D01*
X117561300Y-107472067D01*
X117561299Y-106771934D01*
X117546534Y-106697699D01*
X117490284Y-106613516D01*
X117406101Y-106557266D01*
X117396538Y-106555364D01*
X117396536Y-106555363D01*
X117365619Y-106549214D01*
X117331867Y-106542500D01*
X117276432Y-106542500D01*
X117218241Y-106523593D01*
X117212334Y-106518948D01*
X117182667Y-106493744D01*
X117182662Y-106493740D01*
X117178280Y-106490018D01*
X117173160Y-106487403D01*
X117173156Y-106487401D01*
X117026712Y-106412623D01*
X117026709Y-106412622D01*
X117021588Y-106410007D01*
X117016002Y-106408640D01*
X116854972Y-106369236D01*
X116854969Y-106369235D01*
X116850692Y-106368189D01*
X116846294Y-106367916D01*
X116846293Y-106367916D01*
X116841102Y-106367594D01*
X116841100Y-106367594D01*
X116839586Y-106367500D01*
X115727500Y-106367500D01*
X115669309Y-106348593D01*
X115633345Y-106299093D01*
X115628500Y-106268500D01*
X115628500Y-105189533D01*
X115647407Y-105131342D01*
X115657496Y-105119529D01*
X116875841Y-103901184D01*
X116934381Y-103872854D01*
X117010937Y-103863929D01*
X117010941Y-103863928D01*
X117016654Y-103863262D01*
X117022068Y-103861297D01*
X117027182Y-103859441D01*
X117060960Y-103853500D01*
X117138470Y-103853500D01*
X117157844Y-103851395D01*
X117192462Y-103847635D01*
X117192464Y-103847634D01*
X117198636Y-103846964D01*
X117302308Y-103808099D01*
X117323992Y-103799970D01*
X117323993Y-103799970D01*
X117330599Y-103797493D01*
X117336243Y-103793263D01*
X117336245Y-103793262D01*
X117437726Y-103717207D01*
X117443374Y-103712974D01*
X117459243Y-103691800D01*
X117523662Y-103605845D01*
X117523663Y-103605843D01*
X117527893Y-103600199D01*
X117531248Y-103591251D01*
X117575184Y-103474051D01*
X117577364Y-103468236D01*
X117583900Y-103408070D01*
X117583900Y-103291773D01*
X117587163Y-103269744D01*
X117586844Y-103269687D01*
X117587862Y-103264026D01*
X117589530Y-103258520D01*
X117600424Y-103082920D01*
X117585330Y-102995078D01*
X117583900Y-102978312D01*
X117583900Y-102839930D01*
X117579798Y-102802166D01*
X117578035Y-102785938D01*
X117578034Y-102785936D01*
X117577364Y-102779764D01*
X117534735Y-102666052D01*
X117532012Y-102604927D01*
X117565738Y-102553876D01*
X117627435Y-102532300D01*
X117881365Y-102532300D01*
X117939556Y-102551207D01*
X117975520Y-102600707D01*
X117974065Y-102666052D01*
X117931436Y-102779764D01*
X117930766Y-102785936D01*
X117930765Y-102785938D01*
X117929002Y-102802166D01*
X117924900Y-102839930D01*
X117924900Y-103408070D01*
X117931436Y-103468236D01*
X117933616Y-103474051D01*
X117977553Y-103591251D01*
X117980907Y-103600199D01*
X117985137Y-103605843D01*
X117985138Y-103605845D01*
X118049557Y-103691800D01*
X118065426Y-103712974D01*
X118071074Y-103717207D01*
X118172555Y-103793262D01*
X118172557Y-103793263D01*
X118178201Y-103797493D01*
X118184807Y-103799970D01*
X118184808Y-103799970D01*
X118206492Y-103808099D01*
X118310164Y-103846964D01*
X118316336Y-103847634D01*
X118316338Y-103847635D01*
X118350956Y-103851395D01*
X118370330Y-103853500D01*
X118641921Y-103853500D01*
X118700112Y-103872407D01*
X118711925Y-103882496D01*
X118908670Y-104079241D01*
X118916723Y-104089321D01*
X118916730Y-104089315D01*
X118921301Y-104094685D01*
X118925064Y-104100650D01*
X118955542Y-104127567D01*
X118965687Y-104136527D01*
X118970156Y-104140727D01*
X118982091Y-104152662D01*
X118990293Y-104158809D01*
X118991235Y-104159515D01*
X118997384Y-104164521D01*
X119033381Y-104196312D01*
X119042818Y-104200743D01*
X119060104Y-104211129D01*
X119068447Y-104217382D01*
X119113408Y-104234237D01*
X119120724Y-104237319D01*
X119164193Y-104257728D01*
X119171163Y-104258813D01*
X119171166Y-104258814D01*
X119174482Y-104259330D01*
X119194011Y-104264453D01*
X119197163Y-104265635D01*
X119197165Y-104265636D01*
X119203763Y-104268109D01*
X119233420Y-104270313D01*
X119251651Y-104271668D01*
X119259534Y-104272573D01*
X119273908Y-104274811D01*
X119290269Y-104274811D01*
X119297606Y-104275083D01*
X119347878Y-104278819D01*
X119354773Y-104277347D01*
X119354775Y-104277347D01*
X119356437Y-104276992D01*
X119377104Y-104274811D01*
X119720214Y-104274811D01*
X119778405Y-104293718D01*
X119814369Y-104343218D01*
X119814369Y-104404404D01*
X119778405Y-104453904D01*
X119761747Y-104463637D01*
X119756578Y-104465312D01*
X119751658Y-104468297D01*
X119746431Y-104470690D01*
X119746381Y-104470582D01*
X119743163Y-104472124D01*
X119743216Y-104472229D01*
X119738070Y-104474806D01*
X119732666Y-104476768D01*
X119727856Y-104479921D01*
X119727855Y-104479922D01*
X119671564Y-104516828D01*
X119668642Y-104518672D01*
X119606167Y-104556583D01*
X119597826Y-104563949D01*
X119597681Y-104563785D01*
X119594604Y-104566212D01*
X119594754Y-104566391D01*
X119590341Y-104570081D01*
X119585532Y-104573234D01*
X119581577Y-104577409D01*
X119532368Y-104629355D01*
X119530501Y-104631274D01*
X118598271Y-105563505D01*
X118543754Y-105591282D01*
X118528267Y-105592501D01*
X118481734Y-105592501D01*
X118476968Y-105593449D01*
X118476967Y-105593449D01*
X118429916Y-105602807D01*
X118407499Y-105607266D01*
X118323316Y-105663516D01*
X118267066Y-105747699D01*
X118265164Y-105757262D01*
X118265163Y-105757264D01*
X118259989Y-105783276D01*
X118252300Y-105821933D01*
X118252301Y-106522066D01*
X118267066Y-106596301D01*
X118323316Y-106680484D01*
X118407499Y-106736734D01*
X118417062Y-106738636D01*
X118417064Y-106738637D01*
X118447981Y-106744786D01*
X118481733Y-106751500D01*
X118537982Y-106751500D01*
X118595119Y-106769653D01*
X118688465Y-106835623D01*
X118688468Y-106835625D01*
X118693169Y-106838947D01*
X118698505Y-106841098D01*
X118698506Y-106841098D01*
X118756605Y-106864513D01*
X118856352Y-106904713D01*
X118872043Y-106907100D01*
X119024601Y-106930309D01*
X119024604Y-106930309D01*
X119030289Y-106931174D01*
X119117968Y-106924042D01*
X119199911Y-106917377D01*
X119199915Y-106917376D01*
X119205647Y-106916910D01*
X119373022Y-106862688D01*
X119523433Y-106771417D01*
X119524480Y-106770493D01*
X119582339Y-106751499D01*
X119631866Y-106751499D01*
X119636632Y-106750551D01*
X119636633Y-106750551D01*
X119696538Y-106738636D01*
X119706101Y-106736734D01*
X119790284Y-106680484D01*
X119846534Y-106596301D01*
X119848995Y-106583933D01*
X119857047Y-106543448D01*
X119861300Y-106522067D01*
X119861300Y-106475533D01*
X119880207Y-106417342D01*
X119890296Y-106405530D01*
X120356328Y-105939497D01*
X120410845Y-105911719D01*
X120426332Y-105910500D01*
X121397027Y-105910500D01*
X121455218Y-105929407D01*
X121461191Y-105934108D01*
X121565583Y-106022953D01*
X121565588Y-106022956D01*
X121569271Y-106026091D01*
X121749789Y-106126980D01*
X121812195Y-106147257D01*
X121861694Y-106183220D01*
X121880602Y-106241410D01*
X121873839Y-106277372D01*
X121869144Y-106289416D01*
X121845648Y-106349680D01*
X121840206Y-106363637D01*
X121839427Y-106369552D01*
X121839427Y-106369553D01*
X121834931Y-106403703D01*
X121819529Y-106520696D01*
X121820184Y-106526629D01*
X121820184Y-106526633D01*
X121828305Y-106600189D01*
X121836913Y-106678153D01*
X121838965Y-106683760D01*
X121890408Y-106824337D01*
X121892650Y-106885481D01*
X121858524Y-106936266D01*
X121825391Y-106953331D01*
X121777066Y-106967554D01*
X121593801Y-107063363D01*
X121590032Y-107066393D01*
X121590031Y-107066394D01*
X121577150Y-107076751D01*
X121432635Y-107192943D01*
X121420738Y-107207121D01*
X121302817Y-107347654D01*
X121302814Y-107347658D01*
X121299708Y-107351360D01*
X121200082Y-107532578D01*
X121137553Y-107729696D01*
X121129669Y-107799982D01*
X121118732Y-107897490D01*
X121114501Y-107935206D01*
X121131806Y-108141278D01*
X121133139Y-108145926D01*
X121133139Y-108145927D01*
X121145589Y-108189344D01*
X121188807Y-108340066D01*
X121191022Y-108344376D01*
X121211995Y-108385185D01*
X121283334Y-108523995D01*
X121411786Y-108686061D01*
X121415466Y-108689193D01*
X121415468Y-108689195D01*
X121486670Y-108749792D01*
X121569271Y-108820091D01*
X121749789Y-108920980D01*
X121754387Y-108922474D01*
X121941861Y-108983388D01*
X121941863Y-108983389D01*
X121946466Y-108984884D01*
X122151809Y-109009370D01*
X122156631Y-109008999D01*
X122156633Y-109008999D01*
X122353170Y-108993876D01*
X122353175Y-108993875D01*
X122357998Y-108993504D01*
X122557178Y-108937892D01*
X122561491Y-108935713D01*
X122561497Y-108935711D01*
X122737442Y-108846835D01*
X122737444Y-108846833D01*
X122741763Y-108844652D01*
X122904722Y-108717334D01*
X123039848Y-108560789D01*
X123141995Y-108380979D01*
X123207270Y-108184753D01*
X123233189Y-107979586D01*
X123233602Y-107950000D01*
X123221884Y-107830493D01*
X123213894Y-107748999D01*
X123213893Y-107748995D01*
X123213422Y-107744189D01*
X123210972Y-107736072D01*
X123184958Y-107649911D01*
X123153651Y-107546217D01*
X123056565Y-107363625D01*
X123044424Y-107348738D01*
X122928924Y-107207121D01*
X122928923Y-107207120D01*
X122925863Y-107203368D01*
X122899544Y-107181595D01*
X122866759Y-107129934D01*
X122870601Y-107068870D01*
X122898353Y-107030034D01*
X122959578Y-106977743D01*
X122964114Y-106973869D01*
X122982466Y-106948330D01*
X123031774Y-106912107D01*
X123062861Y-106907100D01*
X124588000Y-106907100D01*
X124646191Y-106926007D01*
X124682155Y-106975507D01*
X124687000Y-107006100D01*
X124687000Y-107294270D01*
X124693536Y-107354436D01*
X124695717Y-107360253D01*
X124695717Y-107360254D01*
X124718056Y-107419845D01*
X124720778Y-107480970D01*
X124687052Y-107532021D01*
X124680299Y-107536851D01*
X124674535Y-107539472D01*
X124638144Y-107570829D01*
X124631948Y-107575748D01*
X124620196Y-107584333D01*
X124608613Y-107595916D01*
X124603232Y-107600911D01*
X124575638Y-107624688D01*
X124565058Y-107633804D01*
X124561221Y-107639724D01*
X124560303Y-107641140D01*
X124547232Y-107657297D01*
X122514379Y-109690150D01*
X122459862Y-109717927D01*
X122415100Y-109714718D01*
X122391693Y-109707472D01*
X122391681Y-109707470D01*
X122387063Y-109706040D01*
X122382256Y-109705535D01*
X122382252Y-109705534D01*
X122186213Y-109684930D01*
X122186211Y-109684930D01*
X122181397Y-109684424D01*
X122120925Y-109689927D01*
X121980269Y-109702727D01*
X121980264Y-109702728D01*
X121975450Y-109703166D01*
X121960820Y-109707472D01*
X121781713Y-109760186D01*
X121781710Y-109760187D01*
X121777066Y-109761554D01*
X121593801Y-109857363D01*
X121432635Y-109986943D01*
X121407172Y-110017289D01*
X121302817Y-110141654D01*
X121302814Y-110141658D01*
X121299708Y-110145360D01*
X121200082Y-110326578D01*
X121137553Y-110523696D01*
X121114501Y-110729206D01*
X121131806Y-110935278D01*
X121133139Y-110939926D01*
X121133139Y-110939927D01*
X121178704Y-111098831D01*
X121188807Y-111134066D01*
X121283334Y-111317995D01*
X121411786Y-111480061D01*
X121569271Y-111614091D01*
X121749789Y-111714980D01*
X121754387Y-111716474D01*
X121941861Y-111777388D01*
X121941863Y-111777389D01*
X121946466Y-111778884D01*
X122151809Y-111803370D01*
X122156631Y-111802999D01*
X122156632Y-111802999D01*
X122169122Y-111802038D01*
X122222163Y-111797956D01*
X122281631Y-111812343D01*
X122321287Y-111858937D01*
X122328159Y-111885798D01*
X122344913Y-112037553D01*
X122352264Y-112057641D01*
X122397301Y-112180713D01*
X122397303Y-112180717D01*
X122399353Y-112186319D01*
X122487708Y-112317805D01*
X122492119Y-112321819D01*
X122492121Y-112321821D01*
X122600461Y-112420402D01*
X122604876Y-112424419D01*
X122619336Y-112432270D01*
X122738847Y-112497160D01*
X122738849Y-112497161D01*
X122744093Y-112500008D01*
X122749867Y-112501523D01*
X122749870Y-112501524D01*
X122891543Y-112538691D01*
X122897322Y-112540207D01*
X122903291Y-112540301D01*
X122903293Y-112540301D01*
X122961302Y-112541212D01*
X123055716Y-112542695D01*
X123066579Y-112540207D01*
X123204309Y-112508663D01*
X123204312Y-112508662D01*
X123210132Y-112507329D01*
X123224689Y-112500008D01*
X123346318Y-112438835D01*
X123351655Y-112436151D01*
X123472114Y-112333269D01*
X123564555Y-112204624D01*
X123574168Y-112180713D01*
X123621418Y-112063174D01*
X123621419Y-112063172D01*
X123623642Y-112057641D01*
X123626501Y-112037553D01*
X123645506Y-111904014D01*
X123645506Y-111904008D01*
X123645962Y-111900807D01*
X123646107Y-111887000D01*
X123627692Y-111734820D01*
X123639472Y-111674779D01*
X123655971Y-111652923D01*
X124435798Y-110873096D01*
X124490315Y-110845319D01*
X124505802Y-110844100D01*
X131469500Y-110844100D01*
X131527691Y-110863007D01*
X131563655Y-110912507D01*
X131568500Y-110943100D01*
X131568500Y-111002670D01*
X131575036Y-111062836D01*
X131577216Y-111068651D01*
X131610988Y-111158736D01*
X131624507Y-111194799D01*
X131709026Y-111307574D01*
X131714674Y-111311807D01*
X131816155Y-111387862D01*
X131816157Y-111387863D01*
X131821801Y-111392093D01*
X131953764Y-111441564D01*
X131959936Y-111442234D01*
X131959938Y-111442235D01*
X131994556Y-111445995D01*
X132013930Y-111448100D01*
X132607070Y-111448100D01*
X132626444Y-111445995D01*
X132661062Y-111442235D01*
X132661064Y-111442234D01*
X132667236Y-111441564D01*
X132799199Y-111392093D01*
X132804843Y-111387863D01*
X132804845Y-111387862D01*
X132906326Y-111311807D01*
X132911974Y-111307574D01*
X132996493Y-111194799D01*
X133010013Y-111158736D01*
X133043784Y-111068651D01*
X133045964Y-111062836D01*
X133052500Y-111002670D01*
X133393500Y-111002670D01*
X133400036Y-111062836D01*
X133402216Y-111068651D01*
X133435988Y-111158736D01*
X133449507Y-111194799D01*
X133534026Y-111307574D01*
X133539674Y-111311807D01*
X133641155Y-111387862D01*
X133641157Y-111387863D01*
X133646801Y-111392093D01*
X133778764Y-111441564D01*
X133784936Y-111442234D01*
X133784938Y-111442235D01*
X133819556Y-111445995D01*
X133838930Y-111448100D01*
X134432070Y-111448100D01*
X134451444Y-111445995D01*
X134486062Y-111442235D01*
X134486064Y-111442234D01*
X134492236Y-111441564D01*
X134624199Y-111392093D01*
X134629843Y-111387863D01*
X134629845Y-111387862D01*
X134731326Y-111311807D01*
X134736974Y-111307574D01*
X134821493Y-111194799D01*
X134835013Y-111158736D01*
X134868784Y-111068651D01*
X134870964Y-111062836D01*
X134877500Y-111002670D01*
X134877500Y-110731079D01*
X134896407Y-110672888D01*
X134906496Y-110661075D01*
X135560075Y-110007496D01*
X135614592Y-109979719D01*
X135630079Y-109978500D01*
X135869522Y-109978500D01*
X135924524Y-109995185D01*
X135962077Y-110020277D01*
X135971667Y-110026685D01*
X136009546Y-110074734D01*
X136011948Y-110135873D01*
X135977955Y-110186746D01*
X135971671Y-110191312D01*
X135905516Y-110235516D01*
X135849266Y-110319699D01*
X135834500Y-110393933D01*
X135834501Y-111094066D01*
X135849266Y-111168301D01*
X135905516Y-111252484D01*
X135989699Y-111308734D01*
X135999262Y-111310636D01*
X135999264Y-111310637D01*
X136030181Y-111316786D01*
X136063933Y-111323500D01*
X136938819Y-111323500D01*
X137814066Y-111323499D01*
X137818832Y-111322551D01*
X137818833Y-111322551D01*
X137878738Y-111310636D01*
X137888301Y-111308734D01*
X137972484Y-111252484D01*
X138028734Y-111168301D01*
X138034687Y-111138376D01*
X138042552Y-111098831D01*
X138043500Y-111094067D01*
X138043499Y-110393934D01*
X138040144Y-110377063D01*
X138033193Y-110342116D01*
X138028734Y-110319699D01*
X137972484Y-110235516D01*
X137906333Y-110191314D01*
X137868454Y-110143265D01*
X137866052Y-110082127D01*
X137900045Y-110031253D01*
X137906333Y-110026685D01*
X137915924Y-110020277D01*
X137972484Y-109982484D01*
X138028734Y-109898301D01*
X138043500Y-109824067D01*
X138043499Y-109123934D01*
X138043499Y-109123933D01*
X143134500Y-109123933D01*
X143134501Y-109824066D01*
X143149266Y-109898301D01*
X143205516Y-109982484D01*
X143289699Y-110038734D01*
X143299262Y-110040636D01*
X143299264Y-110040637D01*
X143321738Y-110045107D01*
X143363933Y-110053500D01*
X144238819Y-110053500D01*
X145114066Y-110053499D01*
X145118832Y-110052551D01*
X145118833Y-110052551D01*
X145178738Y-110040636D01*
X145188301Y-110038734D01*
X145272484Y-109982484D01*
X145328734Y-109898301D01*
X145343500Y-109824067D01*
X145343499Y-109334123D01*
X152386100Y-109334123D01*
X152386101Y-110020276D01*
X152386460Y-110023242D01*
X152386460Y-110023244D01*
X152390121Y-110053499D01*
X152397044Y-110110710D01*
X152399385Y-110116622D01*
X152399385Y-110116623D01*
X152413951Y-110153414D01*
X152452970Y-110251965D01*
X152457050Y-110257340D01*
X152457051Y-110257342D01*
X152511643Y-110329264D01*
X152544823Y-110372977D01*
X152550206Y-110377063D01*
X152578836Y-110398794D01*
X152665835Y-110464830D01*
X152807090Y-110520756D01*
X152897523Y-110531700D01*
X153390517Y-110531700D01*
X153883676Y-110531699D01*
X153886642Y-110531340D01*
X153886644Y-110531340D01*
X153967796Y-110521520D01*
X153974110Y-110520756D01*
X153980026Y-110518414D01*
X154109091Y-110467314D01*
X154115365Y-110464830D01*
X154202365Y-110398794D01*
X154230994Y-110377063D01*
X154236377Y-110372977D01*
X154269557Y-110329264D01*
X154324149Y-110257342D01*
X154324150Y-110257340D01*
X154328230Y-110251965D01*
X154384156Y-110110710D01*
X154395100Y-110020277D01*
X154395099Y-109334124D01*
X154384156Y-109243690D01*
X154328230Y-109102435D01*
X154311720Y-109080684D01*
X154291601Y-109022903D01*
X154311722Y-108960977D01*
X154349550Y-108911140D01*
X154353630Y-108905765D01*
X154409556Y-108764510D01*
X154420500Y-108674077D01*
X154420499Y-107987924D01*
X154419155Y-107976812D01*
X154410320Y-107903804D01*
X154409556Y-107897490D01*
X154375158Y-107810608D01*
X154356114Y-107762509D01*
X154353630Y-107756235D01*
X154349093Y-107750257D01*
X154265863Y-107640606D01*
X154261777Y-107635223D01*
X154253841Y-107629199D01*
X154146142Y-107547451D01*
X154146140Y-107547450D01*
X154140765Y-107543370D01*
X153999510Y-107487444D01*
X153909077Y-107476500D01*
X153416083Y-107476500D01*
X152922924Y-107476501D01*
X152919958Y-107476860D01*
X152919956Y-107476860D01*
X152857315Y-107484440D01*
X152832490Y-107487444D01*
X152826578Y-107489785D01*
X152826577Y-107489785D01*
X152794447Y-107502506D01*
X152691235Y-107543370D01*
X152685860Y-107547450D01*
X152685858Y-107547451D01*
X152578159Y-107629199D01*
X152570223Y-107635223D01*
X152566137Y-107640606D01*
X152482908Y-107750257D01*
X152478370Y-107756235D01*
X152422444Y-107897490D01*
X152411500Y-107987923D01*
X152411501Y-108674076D01*
X152422444Y-108764510D01*
X152424785Y-108770422D01*
X152424785Y-108770423D01*
X152437923Y-108803607D01*
X152478370Y-108905765D01*
X152494880Y-108927516D01*
X152514999Y-108985297D01*
X152494878Y-109047223D01*
X152452970Y-109102435D01*
X152397044Y-109243690D01*
X152386100Y-109334123D01*
X145343499Y-109334123D01*
X145343499Y-109123934D01*
X145337182Y-109092171D01*
X145330636Y-109059262D01*
X145328734Y-109049699D01*
X145272484Y-108965516D01*
X145206333Y-108921314D01*
X145168454Y-108873265D01*
X145166052Y-108812127D01*
X145200045Y-108761253D01*
X145206333Y-108756685D01*
X145264374Y-108717903D01*
X145272484Y-108712484D01*
X145328734Y-108628301D01*
X145343500Y-108554067D01*
X145343499Y-107853934D01*
X145328734Y-107779699D01*
X145272484Y-107695516D01*
X145206333Y-107651314D01*
X145168454Y-107603265D01*
X145166052Y-107542127D01*
X145200045Y-107491253D01*
X145206333Y-107486685D01*
X145206341Y-107486680D01*
X145272484Y-107442484D01*
X145328734Y-107358301D01*
X145343500Y-107284067D01*
X145343499Y-106583934D01*
X145328734Y-106509699D01*
X145272484Y-106425516D01*
X145188301Y-106369266D01*
X145178738Y-106367364D01*
X145178736Y-106367363D01*
X145147819Y-106361214D01*
X145114067Y-106354500D01*
X144239181Y-106354500D01*
X143363934Y-106354501D01*
X143359168Y-106355449D01*
X143359167Y-106355449D01*
X143333330Y-106360588D01*
X143289699Y-106369266D01*
X143205516Y-106425516D01*
X143149266Y-106509699D01*
X143147364Y-106519262D01*
X143147363Y-106519264D01*
X143142553Y-106543448D01*
X143134500Y-106583933D01*
X143134501Y-107284066D01*
X143135449Y-107288831D01*
X143135449Y-107288833D01*
X143137059Y-107296929D01*
X143149266Y-107358301D01*
X143205516Y-107442484D01*
X143271660Y-107486680D01*
X143271667Y-107486685D01*
X143309546Y-107534735D01*
X143311948Y-107595873D01*
X143277955Y-107646747D01*
X143271671Y-107651312D01*
X143205516Y-107695516D01*
X143149266Y-107779699D01*
X143147364Y-107789262D01*
X143147363Y-107789264D01*
X143144983Y-107801232D01*
X143134500Y-107853933D01*
X143134501Y-108554066D01*
X143135449Y-108558831D01*
X143135449Y-108558833D01*
X143136535Y-108564293D01*
X143149266Y-108628301D01*
X143205516Y-108712484D01*
X143213626Y-108717903D01*
X143271667Y-108756685D01*
X143309546Y-108804735D01*
X143311948Y-108865873D01*
X143277955Y-108916747D01*
X143271671Y-108921312D01*
X143205516Y-108965516D01*
X143149266Y-109049699D01*
X143147364Y-109059262D01*
X143147363Y-109059264D01*
X143143527Y-109078549D01*
X143134500Y-109123933D01*
X138043499Y-109123933D01*
X138037182Y-109092171D01*
X138030636Y-109059262D01*
X138028734Y-109049699D01*
X137972484Y-108965516D01*
X137906333Y-108921314D01*
X137868454Y-108873265D01*
X137866052Y-108812127D01*
X137900045Y-108761253D01*
X137906333Y-108756685D01*
X137964374Y-108717903D01*
X137972484Y-108712484D01*
X138028734Y-108628301D01*
X138043500Y-108554067D01*
X138043499Y-107853934D01*
X138040462Y-107838663D01*
X138034127Y-107806812D01*
X138041320Y-107746051D01*
X138082854Y-107701122D01*
X138131225Y-107688500D01*
X139787678Y-107688500D01*
X139802565Y-107689626D01*
X139812663Y-107691162D01*
X139820202Y-107692309D01*
X139820203Y-107692309D01*
X139825889Y-107693174D01*
X139879342Y-107688826D01*
X139887368Y-107688500D01*
X139896453Y-107688500D01*
X139925016Y-107685170D01*
X139928408Y-107684835D01*
X140001247Y-107678910D01*
X140006719Y-107677137D01*
X140012361Y-107676010D01*
X140012384Y-107676126D01*
X140015870Y-107675366D01*
X140015843Y-107675251D01*
X140021439Y-107673928D01*
X140027154Y-107673262D01*
X140095868Y-107648320D01*
X140099137Y-107647198D01*
X140163150Y-107626461D01*
X140163152Y-107626460D01*
X140168622Y-107624688D01*
X140173537Y-107621706D01*
X140178768Y-107619311D01*
X140178817Y-107619419D01*
X140182037Y-107617876D01*
X140181984Y-107617771D01*
X140187130Y-107615194D01*
X140192534Y-107613232D01*
X140202487Y-107606707D01*
X140253636Y-107573172D01*
X140256558Y-107571328D01*
X140290306Y-107550849D01*
X140319033Y-107533417D01*
X140327374Y-107526051D01*
X140327519Y-107526215D01*
X140330596Y-107523788D01*
X140330446Y-107523609D01*
X140334859Y-107519919D01*
X140339668Y-107516766D01*
X140392832Y-107460645D01*
X140394699Y-107458726D01*
X140784555Y-107068870D01*
X141178352Y-106675072D01*
X141189678Y-106665340D01*
X141208671Y-106651363D01*
X141243389Y-106610497D01*
X141248833Y-106604591D01*
X141255262Y-106598162D01*
X141262674Y-106588794D01*
X141273081Y-106575639D01*
X141275273Y-106572966D01*
X141290228Y-106555363D01*
X141322582Y-106517280D01*
X141325197Y-106512158D01*
X141328391Y-106507370D01*
X141328490Y-106507436D01*
X141330419Y-106504432D01*
X141330317Y-106504369D01*
X141333337Y-106499479D01*
X141336907Y-106494967D01*
X141367853Y-106428754D01*
X141369365Y-106425663D01*
X141399977Y-106365712D01*
X141399978Y-106365709D01*
X141402593Y-106360588D01*
X141403959Y-106355005D01*
X141405965Y-106349612D01*
X141406075Y-106349653D01*
X141407263Y-106346281D01*
X141407151Y-106346244D01*
X141408966Y-106340788D01*
X141411401Y-106335578D01*
X141426283Y-106264024D01*
X141427038Y-106260689D01*
X141444411Y-106189692D01*
X141445100Y-106178586D01*
X141445318Y-106178600D01*
X141445778Y-106174708D01*
X141445546Y-106174687D01*
X141446058Y-106168953D01*
X141447228Y-106163327D01*
X141446797Y-106147363D01*
X141445136Y-106085999D01*
X141445100Y-106083322D01*
X141445100Y-105628500D01*
X141464007Y-105570309D01*
X141513507Y-105534345D01*
X141544100Y-105529500D01*
X142149878Y-105529500D01*
X142164765Y-105530626D01*
X142174863Y-105532162D01*
X142182402Y-105533309D01*
X142182403Y-105533309D01*
X142188089Y-105534174D01*
X142241542Y-105529826D01*
X142249568Y-105529500D01*
X142258653Y-105529500D01*
X142287216Y-105526170D01*
X142290608Y-105525835D01*
X142363447Y-105519910D01*
X142368919Y-105518137D01*
X142374561Y-105517010D01*
X142374584Y-105517126D01*
X142378070Y-105516366D01*
X142378043Y-105516251D01*
X142383639Y-105514928D01*
X142389354Y-105514262D01*
X142390122Y-105513983D01*
X142407992Y-105511900D01*
X142773972Y-105511899D01*
X142925466Y-105511899D01*
X142930232Y-105510951D01*
X142930233Y-105510951D01*
X142990138Y-105499036D01*
X142999701Y-105497134D01*
X143083884Y-105440884D01*
X143140134Y-105356701D01*
X143154900Y-105282467D01*
X143154900Y-105232251D01*
X143173807Y-105174060D01*
X143177147Y-105170041D01*
X143179713Y-105166611D01*
X143183664Y-105162440D01*
X143272032Y-105010304D01*
X143289247Y-104953463D01*
X143321363Y-104847426D01*
X143321364Y-104847421D01*
X143323030Y-104841920D01*
X143333138Y-104678995D01*
X143333568Y-104672060D01*
X143333568Y-104672059D01*
X143333924Y-104666320D01*
X143304129Y-104492923D01*
X143281090Y-104438778D01*
X143237495Y-104336322D01*
X143237495Y-104336321D01*
X143235244Y-104331032D01*
X143174163Y-104248032D01*
X143154899Y-104189353D01*
X143154899Y-104132334D01*
X143149526Y-104105317D01*
X143142036Y-104067662D01*
X143140134Y-104058099D01*
X143083884Y-103973916D01*
X142999701Y-103917666D01*
X142990138Y-103915764D01*
X142990136Y-103915763D01*
X142959219Y-103909614D01*
X142925467Y-103902900D01*
X142575473Y-103902900D01*
X142225334Y-103902901D01*
X142220568Y-103903849D01*
X142220567Y-103903849D01*
X142173516Y-103913207D01*
X142151099Y-103917666D01*
X142066916Y-103973916D01*
X142066454Y-103974607D01*
X142033306Y-103994899D01*
X141969154Y-104015681D01*
X141938644Y-104020500D01*
X140777447Y-104020500D01*
X140768430Y-104019573D01*
X140768387Y-104020054D01*
X140762656Y-104019543D01*
X140757027Y-104018372D01*
X140695504Y-104020037D01*
X140686705Y-104019883D01*
X140662034Y-104018352D01*
X140655259Y-104017932D01*
X140655258Y-104017932D01*
X140649520Y-104017576D01*
X140630920Y-104020772D01*
X140616834Y-104022166D01*
X140611366Y-104022314D01*
X140586907Y-104022975D01*
X140586904Y-104022975D01*
X140581154Y-104023131D01*
X140560888Y-104028505D01*
X140555266Y-104029995D01*
X140541360Y-104032635D01*
X140520838Y-104035028D01*
X140514746Y-104035738D01*
X140509342Y-104037699D01*
X140509336Y-104037701D01*
X140504221Y-104039558D01*
X140470440Y-104045500D01*
X140342930Y-104045500D01*
X140323556Y-104047605D01*
X140288938Y-104051365D01*
X140288936Y-104051366D01*
X140282764Y-104052036D01*
X140150801Y-104101507D01*
X140145157Y-104105737D01*
X140145155Y-104105738D01*
X140067860Y-104163667D01*
X140038026Y-104186026D01*
X140033793Y-104191674D01*
X139969586Y-104277347D01*
X139953507Y-104298801D01*
X139951030Y-104305407D01*
X139951030Y-104305408D01*
X139925722Y-104372917D01*
X139904036Y-104430764D01*
X139903366Y-104436936D01*
X139903365Y-104436938D01*
X139901522Y-104453904D01*
X139897500Y-104490930D01*
X139897500Y-105059070D01*
X139904036Y-105119236D01*
X139906216Y-105125051D01*
X139929800Y-105187961D01*
X139936100Y-105222713D01*
X139936100Y-105742268D01*
X139917193Y-105800459D01*
X139907104Y-105812272D01*
X139568872Y-106150504D01*
X139514355Y-106178281D01*
X139498868Y-106179500D01*
X136894947Y-106179500D01*
X136764246Y-106194738D01*
X136758840Y-106196700D01*
X136758837Y-106196701D01*
X136635667Y-106241410D01*
X136598866Y-106254768D01*
X136594057Y-106257921D01*
X136594053Y-106257923D01*
X136471470Y-106338293D01*
X136417189Y-106354501D01*
X136063934Y-106354501D01*
X136059168Y-106355449D01*
X136059167Y-106355449D01*
X136033330Y-106360588D01*
X135989699Y-106369266D01*
X135905516Y-106425516D01*
X135849266Y-106509699D01*
X135847364Y-106519262D01*
X135847363Y-106519264D01*
X135842553Y-106543448D01*
X135834500Y-106583933D01*
X135834501Y-107284066D01*
X135835449Y-107288831D01*
X135835449Y-107288833D01*
X135837059Y-107296929D01*
X135849266Y-107358301D01*
X135905516Y-107442484D01*
X135971660Y-107486680D01*
X135971667Y-107486685D01*
X136009546Y-107534735D01*
X136011948Y-107595873D01*
X135977955Y-107646747D01*
X135971671Y-107651312D01*
X135905516Y-107695516D01*
X135900097Y-107703626D01*
X135881337Y-107731702D01*
X135833287Y-107769581D01*
X135799022Y-107775700D01*
X134849805Y-107775700D01*
X134791614Y-107756793D01*
X134770584Y-107736072D01*
X134741207Y-107696874D01*
X134736974Y-107691226D01*
X134730884Y-107686662D01*
X134629845Y-107610938D01*
X134629843Y-107610937D01*
X134624199Y-107606707D01*
X134608739Y-107600911D01*
X134498051Y-107559416D01*
X134492236Y-107557236D01*
X134486064Y-107556566D01*
X134486062Y-107556565D01*
X134451444Y-107552805D01*
X134432070Y-107550700D01*
X133838930Y-107550700D01*
X133819556Y-107552805D01*
X133784938Y-107556565D01*
X133784936Y-107556566D01*
X133778764Y-107557236D01*
X133772949Y-107559416D01*
X133662262Y-107600911D01*
X133646801Y-107606707D01*
X133641157Y-107610937D01*
X133641155Y-107610938D01*
X133540116Y-107686662D01*
X133534026Y-107691226D01*
X133529793Y-107696874D01*
X133453947Y-107798077D01*
X133449507Y-107804001D01*
X133447030Y-107810607D01*
X133447030Y-107810608D01*
X133436999Y-107837365D01*
X133400036Y-107935964D01*
X133399366Y-107942136D01*
X133399365Y-107942138D01*
X133395605Y-107976756D01*
X133393500Y-107996130D01*
X133393500Y-108564270D01*
X133400036Y-108624436D01*
X133449507Y-108756399D01*
X133453737Y-108762043D01*
X133453738Y-108762045D01*
X133529793Y-108863526D01*
X133534026Y-108869174D01*
X133539674Y-108873407D01*
X133641155Y-108949462D01*
X133641157Y-108949463D01*
X133646801Y-108953693D01*
X133653407Y-108956170D01*
X133653408Y-108956170D01*
X133708481Y-108976816D01*
X133778764Y-109003164D01*
X133784936Y-109003834D01*
X133784938Y-109003835D01*
X133819556Y-109007595D01*
X133838930Y-109009700D01*
X134432070Y-109009700D01*
X134451444Y-109007595D01*
X134486062Y-109003835D01*
X134486064Y-109003834D01*
X134492236Y-109003164D01*
X134562519Y-108976816D01*
X134617592Y-108956170D01*
X134617593Y-108956170D01*
X134624199Y-108953693D01*
X134629843Y-108949463D01*
X134629845Y-108949462D01*
X134731326Y-108873407D01*
X134736974Y-108869174D01*
X134741207Y-108863526D01*
X134770584Y-108824328D01*
X134820612Y-108789102D01*
X134849805Y-108784700D01*
X135237818Y-108784700D01*
X135296009Y-108803607D01*
X135331973Y-108853107D01*
X135331973Y-108914293D01*
X135296009Y-108963793D01*
X135271445Y-108976814D01*
X135266939Y-108978441D01*
X135247360Y-108983322D01*
X135237048Y-108984799D01*
X135230629Y-108987717D01*
X135230627Y-108987718D01*
X135193336Y-109004673D01*
X135185979Y-109007668D01*
X135147449Y-109021578D01*
X135147447Y-109021579D01*
X135140816Y-109023973D01*
X135135123Y-109028132D01*
X135132406Y-109030117D01*
X135114980Y-109040299D01*
X135111918Y-109041691D01*
X135111914Y-109041694D01*
X135105495Y-109044612D01*
X135100152Y-109049216D01*
X135069127Y-109075949D01*
X135062904Y-109080890D01*
X135054244Y-109087217D01*
X135051156Y-109089473D01*
X135039573Y-109101056D01*
X135034192Y-109106051D01*
X135007798Y-109128794D01*
X134996018Y-109138944D01*
X134992181Y-109144864D01*
X134991263Y-109146280D01*
X134978192Y-109162437D01*
X134180525Y-109960104D01*
X134126008Y-109987881D01*
X134110521Y-109989100D01*
X133838930Y-109989100D01*
X133824699Y-109990646D01*
X133784938Y-109994965D01*
X133784936Y-109994966D01*
X133778764Y-109995636D01*
X133772949Y-109997816D01*
X133658725Y-110040637D01*
X133646801Y-110045107D01*
X133641157Y-110049337D01*
X133641155Y-110049338D01*
X133539674Y-110125393D01*
X133534026Y-110129626D01*
X133529793Y-110135274D01*
X133478777Y-110203346D01*
X133449507Y-110242401D01*
X133447030Y-110249007D01*
X133447030Y-110249008D01*
X133443906Y-110257342D01*
X133400036Y-110374364D01*
X133399366Y-110380536D01*
X133399365Y-110380538D01*
X133397910Y-110393933D01*
X133393500Y-110434530D01*
X133393500Y-111002670D01*
X133052500Y-111002670D01*
X133052500Y-110434530D01*
X133048090Y-110393933D01*
X133046635Y-110380538D01*
X133046634Y-110380536D01*
X133045964Y-110374364D01*
X133002094Y-110257342D01*
X132998970Y-110249008D01*
X132998970Y-110249007D01*
X132996493Y-110242401D01*
X132967224Y-110203346D01*
X132916207Y-110135274D01*
X132911974Y-110129626D01*
X132906326Y-110125393D01*
X132804845Y-110049338D01*
X132804843Y-110049337D01*
X132799199Y-110045107D01*
X132787276Y-110040637D01*
X132673051Y-109997816D01*
X132667236Y-109995636D01*
X132661064Y-109994966D01*
X132661062Y-109994965D01*
X132621301Y-109990646D01*
X132607070Y-109989100D01*
X132013930Y-109989100D01*
X131999699Y-109990646D01*
X131959938Y-109994965D01*
X131959936Y-109994966D01*
X131953764Y-109995636D01*
X131947949Y-109997816D01*
X131833725Y-110040637D01*
X131821801Y-110045107D01*
X131816157Y-110049337D01*
X131816155Y-110049338D01*
X131794829Y-110065321D01*
X131735457Y-110085100D01*
X124358647Y-110085100D01*
X124337809Y-110082882D01*
X124333724Y-110082002D01*
X124333721Y-110082002D01*
X124325724Y-110080280D01*
X124290799Y-110084414D01*
X124282629Y-110084896D01*
X124280162Y-110085100D01*
X124276076Y-110085100D01*
X124268122Y-110086424D01*
X124256405Y-110088374D01*
X124251787Y-110089032D01*
X124239382Y-110090500D01*
X124200259Y-110095131D01*
X124193383Y-110098433D01*
X124190505Y-110099342D01*
X124182974Y-110100596D01*
X124164230Y-110110710D01*
X124137286Y-110125248D01*
X124133136Y-110127363D01*
X124086368Y-110149820D01*
X124082092Y-110153414D01*
X124080580Y-110154926D01*
X124079739Y-110155697D01*
X124077761Y-110157366D01*
X124071786Y-110160590D01*
X124047608Y-110186746D01*
X124034854Y-110200543D01*
X124032160Y-110203346D01*
X123402348Y-110833158D01*
X123347831Y-110860935D01*
X123287399Y-110851364D01*
X123244134Y-110808099D01*
X123233354Y-110761773D01*
X123233564Y-110746759D01*
X123233564Y-110746750D01*
X123233602Y-110744000D01*
X123213422Y-110538189D01*
X123212026Y-110533565D01*
X123212024Y-110533555D01*
X123202687Y-110502632D01*
X123203967Y-110441460D01*
X123227457Y-110404013D01*
X125129114Y-108502356D01*
X125183631Y-108474579D01*
X125199118Y-108473360D01*
X131469938Y-108473360D01*
X131528129Y-108492267D01*
X131564093Y-108541767D01*
X131568288Y-108564293D01*
X131568500Y-108564270D01*
X131575036Y-108624436D01*
X131624507Y-108756399D01*
X131628737Y-108762043D01*
X131628738Y-108762045D01*
X131704793Y-108863526D01*
X131709026Y-108869174D01*
X131714674Y-108873407D01*
X131816155Y-108949462D01*
X131816157Y-108949463D01*
X131821801Y-108953693D01*
X131828407Y-108956170D01*
X131828408Y-108956170D01*
X131883481Y-108976816D01*
X131953764Y-109003164D01*
X131959936Y-109003834D01*
X131959938Y-109003835D01*
X131994556Y-109007595D01*
X132013930Y-109009700D01*
X132607070Y-109009700D01*
X132626444Y-109007595D01*
X132661062Y-109003835D01*
X132661064Y-109003834D01*
X132667236Y-109003164D01*
X132737519Y-108976816D01*
X132792592Y-108956170D01*
X132792593Y-108956170D01*
X132799199Y-108953693D01*
X132804843Y-108949463D01*
X132804845Y-108949462D01*
X132906326Y-108873407D01*
X132911974Y-108869174D01*
X132916207Y-108863526D01*
X132992262Y-108762045D01*
X132992263Y-108762043D01*
X132996493Y-108756399D01*
X133045964Y-108624436D01*
X133052500Y-108564270D01*
X133052500Y-107996130D01*
X133050395Y-107976756D01*
X133046635Y-107942138D01*
X133046634Y-107942136D01*
X133045964Y-107935964D01*
X133009001Y-107837365D01*
X132998970Y-107810608D01*
X132998970Y-107810607D01*
X132996493Y-107804001D01*
X132992054Y-107798077D01*
X132916207Y-107696874D01*
X132911974Y-107691226D01*
X132905884Y-107686662D01*
X132804845Y-107610938D01*
X132804843Y-107610937D01*
X132799199Y-107606707D01*
X132783739Y-107600911D01*
X132673051Y-107559416D01*
X132667236Y-107557236D01*
X132661064Y-107556566D01*
X132661062Y-107556565D01*
X132626444Y-107552805D01*
X132607070Y-107550700D01*
X132317774Y-107550700D01*
X132275702Y-107541315D01*
X132269559Y-107538431D01*
X132252257Y-107528035D01*
X132249571Y-107526022D01*
X132249570Y-107526022D01*
X132243924Y-107521790D01*
X132237317Y-107519313D01*
X132237315Y-107519312D01*
X132216230Y-107511408D01*
X132198963Y-107504934D01*
X132191658Y-107501857D01*
X132148178Y-107481443D01*
X132141209Y-107480358D01*
X132137889Y-107479841D01*
X132118360Y-107474718D01*
X132115214Y-107473538D01*
X132115210Y-107473537D01*
X132108608Y-107471062D01*
X132101575Y-107470539D01*
X132101573Y-107470539D01*
X132075933Y-107468634D01*
X132060728Y-107467504D01*
X132052840Y-107466599D01*
X132038463Y-107464360D01*
X132022093Y-107464360D01*
X132014757Y-107464088D01*
X132011508Y-107463847D01*
X131964493Y-107460353D01*
X131957598Y-107461825D01*
X131957596Y-107461825D01*
X131955939Y-107462179D01*
X131935271Y-107464360D01*
X128700923Y-107464360D01*
X128642732Y-107445453D01*
X128606768Y-107395953D01*
X128606768Y-107334767D01*
X128630919Y-107295356D01*
X129418802Y-106507472D01*
X129430128Y-106497740D01*
X129440621Y-106490018D01*
X129449121Y-106483763D01*
X129483839Y-106442897D01*
X129489283Y-106436991D01*
X129495712Y-106430562D01*
X129503992Y-106420097D01*
X129513531Y-106408039D01*
X129515723Y-106405366D01*
X129517579Y-106403181D01*
X129563032Y-106349680D01*
X129565647Y-106344558D01*
X129568841Y-106339770D01*
X129568940Y-106339836D01*
X129570869Y-106336832D01*
X129570767Y-106336769D01*
X129573788Y-106331878D01*
X129577357Y-106327367D01*
X129579792Y-106322158D01*
X129579794Y-106322154D01*
X129608310Y-106261140D01*
X129609828Y-106258035D01*
X129640428Y-106198109D01*
X129643043Y-106192988D01*
X129644409Y-106187405D01*
X129646417Y-106182006D01*
X129646528Y-106182047D01*
X129647712Y-106178685D01*
X129647600Y-106178648D01*
X129649417Y-106173187D01*
X129651851Y-106167979D01*
X129655886Y-106148582D01*
X129666733Y-106096428D01*
X129667496Y-106093056D01*
X129667855Y-106091592D01*
X129678347Y-106048713D01*
X129683814Y-106026372D01*
X129683814Y-106026369D01*
X129684861Y-106022092D01*
X129685550Y-106010986D01*
X129685768Y-106011000D01*
X129686228Y-106007108D01*
X129685996Y-106007087D01*
X129686508Y-106001353D01*
X129687678Y-105995727D01*
X129687158Y-105976481D01*
X129685586Y-105918415D01*
X129685550Y-105915737D01*
X129685550Y-104502416D01*
X129704457Y-104444225D01*
X129753957Y-104408261D01*
X129804708Y-104405490D01*
X129871038Y-104419286D01*
X129874361Y-104420038D01*
X129945358Y-104437411D01*
X129949756Y-104437684D01*
X129949757Y-104437684D01*
X129956464Y-104438100D01*
X129956450Y-104438318D01*
X129960342Y-104438778D01*
X129960363Y-104438546D01*
X129966097Y-104439058D01*
X129971723Y-104440228D01*
X129977465Y-104440073D01*
X129977469Y-104440073D01*
X130049035Y-104438136D01*
X130051713Y-104438100D01*
X130196203Y-104438100D01*
X130207071Y-104436833D01*
X130211093Y-104436364D01*
X130326904Y-104422862D01*
X130332310Y-104420900D01*
X130332313Y-104420899D01*
X130392532Y-104399040D01*
X130426311Y-104393099D01*
X130787216Y-104393099D01*
X130791982Y-104392151D01*
X130791983Y-104392151D01*
X130851888Y-104380236D01*
X130861451Y-104378334D01*
X130945634Y-104322084D01*
X131001884Y-104237901D01*
X131005966Y-104217382D01*
X131011541Y-104189353D01*
X131016650Y-104163667D01*
X131016649Y-103203534D01*
X131013407Y-103187231D01*
X131004987Y-103144900D01*
X131001884Y-103129299D01*
X130945634Y-103045116D01*
X130861451Y-102988866D01*
X130851888Y-102986964D01*
X130851886Y-102986963D01*
X130820969Y-102980814D01*
X130787217Y-102974100D01*
X130439063Y-102974100D01*
X130415533Y-102971263D01*
X130413837Y-102970848D01*
X130367364Y-102944689D01*
X129982726Y-102560052D01*
X129972993Y-102548726D01*
X129972036Y-102547426D01*
X129959013Y-102529729D01*
X129938593Y-102512381D01*
X129928487Y-102502468D01*
X129910759Y-102482395D01*
X129869961Y-102453562D01*
X129863011Y-102448170D01*
X129829310Y-102419539D01*
X129824930Y-102415818D01*
X129819814Y-102413206D01*
X129815021Y-102410009D01*
X129815087Y-102409911D01*
X129812084Y-102407983D01*
X129812021Y-102408084D01*
X129807127Y-102405061D01*
X129802617Y-102401493D01*
X129797409Y-102399059D01*
X129797406Y-102399057D01*
X129791930Y-102396498D01*
X129776713Y-102387659D01*
X129771784Y-102384175D01*
X129771774Y-102384170D01*
X129767081Y-102380853D01*
X129761748Y-102378704D01*
X129761741Y-102378700D01*
X129720752Y-102362181D01*
X129712736Y-102358529D01*
X129700845Y-102352457D01*
X129668238Y-102335807D01*
X129662654Y-102334441D01*
X129657259Y-102332434D01*
X129657300Y-102332324D01*
X129653931Y-102331137D01*
X129653894Y-102331249D01*
X129648437Y-102329433D01*
X129643228Y-102326999D01*
X129637603Y-102325829D01*
X129637600Y-102325828D01*
X129631675Y-102324596D01*
X129614830Y-102319494D01*
X129609232Y-102317238D01*
X129603897Y-102315088D01*
X129588585Y-102312758D01*
X129554504Y-102307573D01*
X129545865Y-102305862D01*
X129501625Y-102295037D01*
X129497342Y-102293989D01*
X129486236Y-102293300D01*
X129486250Y-102293082D01*
X129482359Y-102292622D01*
X129482338Y-102292854D01*
X129476605Y-102292343D01*
X129470977Y-102291172D01*
X129459196Y-102291491D01*
X129441629Y-102290401D01*
X129437025Y-102289701D01*
X129435647Y-102289491D01*
X129435646Y-102289491D01*
X129429961Y-102288626D01*
X129377983Y-102292854D01*
X129376508Y-102292974D01*
X129368482Y-102293300D01*
X127346497Y-102293300D01*
X127215796Y-102308538D01*
X127210390Y-102310500D01*
X127210387Y-102310501D01*
X127068494Y-102362006D01*
X127050416Y-102368568D01*
X127045607Y-102371721D01*
X127045603Y-102371723D01*
X126923020Y-102452093D01*
X126868739Y-102468301D01*
X126815484Y-102468301D01*
X126810718Y-102469249D01*
X126810717Y-102469249D01*
X126763666Y-102478607D01*
X126741249Y-102483066D01*
X126657066Y-102539316D01*
X126600816Y-102623499D01*
X126598914Y-102633062D01*
X126598913Y-102633064D01*
X126595982Y-102647801D01*
X126586050Y-102697733D01*
X126586051Y-103397866D01*
X126586999Y-103402632D01*
X126586999Y-103402633D01*
X126593881Y-103437233D01*
X126600816Y-103472101D01*
X126657066Y-103556284D01*
X126741249Y-103612534D01*
X126750812Y-103614436D01*
X126750814Y-103614437D01*
X126781731Y-103620586D01*
X126815483Y-103627300D01*
X126870918Y-103627300D01*
X126929109Y-103646207D01*
X126935016Y-103650852D01*
X126964683Y-103676056D01*
X126964688Y-103676060D01*
X126969070Y-103679782D01*
X126974190Y-103682397D01*
X126974194Y-103682399D01*
X127120638Y-103757177D01*
X127120641Y-103757178D01*
X127125762Y-103759793D01*
X127131347Y-103761160D01*
X127131348Y-103761160D01*
X127292378Y-103800564D01*
X127292381Y-103800565D01*
X127296658Y-103801611D01*
X127301056Y-103801884D01*
X127301057Y-103801884D01*
X127306248Y-103802206D01*
X127306250Y-103802206D01*
X127307764Y-103802300D01*
X128077550Y-103802300D01*
X128135741Y-103821207D01*
X128171705Y-103870707D01*
X128176550Y-103901300D01*
X128176550Y-105574667D01*
X128157643Y-105632858D01*
X128147554Y-105644671D01*
X127565522Y-106226704D01*
X127511005Y-106254481D01*
X127495518Y-106255700D01*
X127209947Y-106255700D01*
X127079246Y-106270938D01*
X127073839Y-106272900D01*
X127073833Y-106272902D01*
X127068718Y-106274759D01*
X127034940Y-106280700D01*
X126957430Y-106280700D01*
X126938056Y-106282805D01*
X126903438Y-106286565D01*
X126903436Y-106286566D01*
X126897264Y-106287236D01*
X126765301Y-106336707D01*
X126759657Y-106340937D01*
X126759655Y-106340938D01*
X126664005Y-106412623D01*
X126652526Y-106421226D01*
X126648293Y-106426874D01*
X126573381Y-106526831D01*
X126568007Y-106534001D01*
X126565530Y-106540607D01*
X126565530Y-106540608D01*
X126551075Y-106579167D01*
X126518536Y-106665964D01*
X126517866Y-106672136D01*
X126517865Y-106672138D01*
X126514105Y-106706756D01*
X126512000Y-106726130D01*
X126512000Y-106842427D01*
X126508737Y-106864456D01*
X126509056Y-106864513D01*
X126508038Y-106870174D01*
X126506370Y-106875680D01*
X126495476Y-107051280D01*
X126496450Y-107056948D01*
X126510570Y-107139122D01*
X126512000Y-107155888D01*
X126512000Y-107294270D01*
X126512289Y-107296929D01*
X126518536Y-107354436D01*
X126515501Y-107354766D01*
X126511526Y-107403506D01*
X126471657Y-107449918D01*
X126420170Y-107464360D01*
X126262830Y-107464360D01*
X126204639Y-107445453D01*
X126168675Y-107395953D01*
X126166996Y-107354711D01*
X126164464Y-107354436D01*
X126170711Y-107296929D01*
X126171000Y-107294270D01*
X126171000Y-106726130D01*
X126168895Y-106706756D01*
X126165135Y-106672138D01*
X126165134Y-106672136D01*
X126164464Y-106665964D01*
X126131925Y-106579167D01*
X126117470Y-106540608D01*
X126117470Y-106540607D01*
X126114993Y-106534001D01*
X126109620Y-106526831D01*
X126034707Y-106426874D01*
X126030474Y-106421226D01*
X126018995Y-106412623D01*
X125923345Y-106340938D01*
X125923343Y-106340937D01*
X125917699Y-106336707D01*
X125785736Y-106287236D01*
X125779564Y-106286566D01*
X125779562Y-106286565D01*
X125744944Y-106282805D01*
X125725570Y-106280700D01*
X125144024Y-106280700D01*
X125082734Y-106259446D01*
X125066803Y-106246887D01*
X125060693Y-106241458D01*
X125058790Y-106239846D01*
X125055906Y-106236962D01*
X125039689Y-106225373D01*
X125035959Y-106222573D01*
X125001627Y-106195508D01*
X125001626Y-106195507D01*
X124995203Y-106190444D01*
X124988006Y-106187917D01*
X124985331Y-106186527D01*
X124979116Y-106182086D01*
X124929387Y-106167214D01*
X124924956Y-106165774D01*
X124881872Y-106150644D01*
X124881869Y-106150643D01*
X124875999Y-106148582D01*
X124870434Y-106148100D01*
X124868291Y-106148100D01*
X124867177Y-106148052D01*
X124864576Y-106147832D01*
X124858072Y-106145887D01*
X124849896Y-106146208D01*
X124849894Y-106146208D01*
X124803680Y-106148024D01*
X124799793Y-106148100D01*
X123064276Y-106148100D01*
X123006085Y-106129193D01*
X122982692Y-106105180D01*
X122973353Y-106091592D01*
X122968902Y-106087627D01*
X122968900Y-106087624D01*
X122925226Y-106048713D01*
X122894356Y-105995886D01*
X122900432Y-105935003D01*
X122916141Y-105910106D01*
X123036679Y-105770462D01*
X123036685Y-105770453D01*
X123039848Y-105766789D01*
X123118408Y-105628500D01*
X123139606Y-105591185D01*
X123139607Y-105591182D01*
X123141995Y-105586979D01*
X123207270Y-105390753D01*
X123207877Y-105385950D01*
X123232086Y-105194319D01*
X123260301Y-105136724D01*
X123615727Y-104781297D01*
X123670244Y-104753519D01*
X123685731Y-104752300D01*
X125134603Y-104752300D01*
X125265304Y-104737062D01*
X125270710Y-104735100D01*
X125270713Y-104735099D01*
X125425276Y-104678995D01*
X125430684Y-104677032D01*
X125435493Y-104673879D01*
X125435497Y-104673877D01*
X125558080Y-104593507D01*
X125612361Y-104577299D01*
X125665616Y-104577299D01*
X125670382Y-104576351D01*
X125670383Y-104576351D01*
X125730288Y-104564436D01*
X125739851Y-104562534D01*
X125824034Y-104506284D01*
X125880284Y-104422101D01*
X125882475Y-104411090D01*
X125890067Y-104372917D01*
X125895050Y-104347867D01*
X125895049Y-103647734D01*
X125880284Y-103573499D01*
X125824034Y-103489316D01*
X125739851Y-103433066D01*
X125730288Y-103431164D01*
X125730286Y-103431163D01*
X125695540Y-103424252D01*
X125665617Y-103418300D01*
X125610182Y-103418300D01*
X125551991Y-103399393D01*
X125546084Y-103394748D01*
X125516417Y-103369544D01*
X125516412Y-103369540D01*
X125512030Y-103365818D01*
X125506910Y-103363203D01*
X125506906Y-103363201D01*
X125360462Y-103288423D01*
X125360459Y-103288422D01*
X125355338Y-103285807D01*
X125349752Y-103284440D01*
X125188722Y-103245036D01*
X125188719Y-103245035D01*
X125184442Y-103243989D01*
X125180044Y-103243716D01*
X125180043Y-103243716D01*
X125174852Y-103243394D01*
X125174850Y-103243394D01*
X125173336Y-103243300D01*
X123396923Y-103243300D01*
X123382033Y-103242174D01*
X123364399Y-103239491D01*
X123364396Y-103239491D01*
X123358711Y-103238626D01*
X123305258Y-103242974D01*
X123297232Y-103243300D01*
X123288147Y-103243300D01*
X123259584Y-103246630D01*
X123256192Y-103246965D01*
X123183353Y-103252890D01*
X123177881Y-103254663D01*
X123172239Y-103255790D01*
X123172216Y-103255674D01*
X123168730Y-103256434D01*
X123168757Y-103256549D01*
X123163161Y-103257872D01*
X123157446Y-103258538D01*
X123152038Y-103260501D01*
X123088732Y-103283480D01*
X123085463Y-103284602D01*
X123063327Y-103291773D01*
X123015978Y-103307112D01*
X123011061Y-103310096D01*
X123005831Y-103312490D01*
X123005782Y-103312383D01*
X123002560Y-103313926D01*
X123002613Y-103314032D01*
X122997477Y-103316604D01*
X122992066Y-103318568D01*
X122987254Y-103321723D01*
X122987248Y-103321726D01*
X122939223Y-103353213D01*
X122880193Y-103369307D01*
X122858890Y-103361236D01*
X122852381Y-103401420D01*
X122836201Y-103424251D01*
X122828418Y-103432467D01*
X122791768Y-103471155D01*
X122789901Y-103473074D01*
X122696381Y-103566594D01*
X122641864Y-103594371D01*
X122581432Y-103584800D01*
X122538167Y-103541535D01*
X122533772Y-103531592D01*
X122511322Y-103472182D01*
X122508440Y-103411066D01*
X122542032Y-103359927D01*
X122559295Y-103348823D01*
X122719693Y-103267801D01*
X122780158Y-103258441D01*
X122790987Y-103264006D01*
X122792363Y-103235347D01*
X122823991Y-103192408D01*
X122836715Y-103182467D01*
X122904722Y-103129334D01*
X123039848Y-102972789D01*
X123115323Y-102839930D01*
X123139606Y-102797185D01*
X123139607Y-102797182D01*
X123141995Y-102792979D01*
X123195191Y-102633064D01*
X123205743Y-102601344D01*
X123205743Y-102601342D01*
X123207270Y-102596753D01*
X123211907Y-102560052D01*
X123221717Y-102482395D01*
X123233189Y-102391586D01*
X123233293Y-102384175D01*
X123233510Y-102368568D01*
X123233600Y-102362181D01*
X123233602Y-102362000D01*
X123234063Y-102362006D01*
X123249991Y-102304992D01*
X123262438Y-102289787D01*
X123524327Y-102027897D01*
X123578844Y-102000119D01*
X123594331Y-101998900D01*
X130685067Y-101998900D01*
X130743258Y-102017807D01*
X130755071Y-102027896D01*
X133722326Y-104995151D01*
X133732057Y-105006475D01*
X133746037Y-105025471D01*
X133750419Y-105029193D01*
X133750421Y-105029196D01*
X133786903Y-105060189D01*
X133792809Y-105065633D01*
X133799238Y-105072062D01*
X133801487Y-105073841D01*
X133801490Y-105073844D01*
X133821761Y-105089881D01*
X133824434Y-105092073D01*
X133880120Y-105139382D01*
X133885242Y-105141997D01*
X133890030Y-105145191D01*
X133889964Y-105145290D01*
X133892968Y-105147219D01*
X133893031Y-105147117D01*
X133897921Y-105150137D01*
X133902433Y-105153707D01*
X133968646Y-105184653D01*
X133971737Y-105186165D01*
X134031688Y-105216777D01*
X134031691Y-105216778D01*
X134036812Y-105219393D01*
X134042395Y-105220759D01*
X134047788Y-105222765D01*
X134047747Y-105222875D01*
X134051119Y-105224063D01*
X134051156Y-105223951D01*
X134056612Y-105225766D01*
X134061822Y-105228201D01*
X134067449Y-105229371D01*
X134067451Y-105229372D01*
X134110145Y-105238252D01*
X134133376Y-105243083D01*
X134136711Y-105243838D01*
X134207708Y-105261211D01*
X134212106Y-105261484D01*
X134212107Y-105261484D01*
X134218814Y-105261900D01*
X134218800Y-105262118D01*
X134222692Y-105262578D01*
X134222713Y-105262346D01*
X134228447Y-105262858D01*
X134234073Y-105264028D01*
X134239815Y-105263873D01*
X134239819Y-105263873D01*
X134311401Y-105261936D01*
X134314078Y-105261900D01*
X135577415Y-105261900D01*
X135635606Y-105280807D01*
X135641142Y-105285535D01*
X135644716Y-105290884D01*
X135728899Y-105347134D01*
X135738462Y-105349036D01*
X135738464Y-105349037D01*
X135769381Y-105355186D01*
X135803133Y-105361900D01*
X136728009Y-105361900D01*
X137653266Y-105361899D01*
X137658032Y-105360951D01*
X137658033Y-105360951D01*
X137717938Y-105349036D01*
X137727501Y-105347134D01*
X137811684Y-105290884D01*
X137867934Y-105206701D01*
X137870699Y-105192804D01*
X137879506Y-105148525D01*
X137882700Y-105132467D01*
X137882699Y-103882334D01*
X137881607Y-103876841D01*
X137869836Y-103817662D01*
X137867934Y-103808099D01*
X137811684Y-103723916D01*
X137810198Y-103722923D01*
X137784704Y-103672887D01*
X137794275Y-103612455D01*
X137808308Y-103593140D01*
X137811684Y-103590884D01*
X137867934Y-103506701D01*
X137874429Y-103474051D01*
X137875986Y-103466219D01*
X137882700Y-103432467D01*
X137882699Y-102188533D01*
X137901606Y-102130342D01*
X137911695Y-102118529D01*
X138027728Y-102002496D01*
X138082245Y-101974719D01*
X138097732Y-101973500D01*
X139778268Y-101973500D01*
X139836459Y-101992407D01*
X139848266Y-102002491D01*
X139927638Y-102081862D01*
X139947203Y-102101427D01*
X139974980Y-102155944D01*
X139969899Y-102206182D01*
X139957017Y-102240546D01*
X139954836Y-102246364D01*
X139948300Y-102306530D01*
X139948300Y-102874670D01*
X139954836Y-102934836D01*
X140004307Y-103066799D01*
X140008537Y-103072443D01*
X140008538Y-103072445D01*
X140063056Y-103145189D01*
X140088826Y-103179574D01*
X140094474Y-103183807D01*
X140195955Y-103259862D01*
X140195957Y-103259863D01*
X140201601Y-103264093D01*
X140208207Y-103266570D01*
X140208208Y-103266570D01*
X140255876Y-103284440D01*
X140333564Y-103313564D01*
X140339736Y-103314234D01*
X140339738Y-103314235D01*
X140374356Y-103317995D01*
X140393730Y-103320100D01*
X140531255Y-103320100D01*
X140559951Y-103324350D01*
X140605780Y-103338230D01*
X140615241Y-103338817D01*
X140617547Y-103338960D01*
X140634948Y-103341607D01*
X140642127Y-103343364D01*
X140642134Y-103343365D01*
X140646408Y-103344411D01*
X140650804Y-103344684D01*
X140650806Y-103344684D01*
X140655998Y-103345006D01*
X140656000Y-103345006D01*
X140657514Y-103345100D01*
X140713450Y-103345100D01*
X140719580Y-103345290D01*
X140775640Y-103348768D01*
X140775641Y-103348768D01*
X140781380Y-103349124D01*
X140796476Y-103346530D01*
X140813242Y-103345100D01*
X143003194Y-103345100D01*
X143058196Y-103361785D01*
X143069808Y-103369544D01*
X143111099Y-103397134D01*
X143120662Y-103399036D01*
X143120664Y-103399037D01*
X143138744Y-103402633D01*
X143185333Y-103411900D01*
X143535327Y-103411900D01*
X143885466Y-103411899D01*
X143890232Y-103410951D01*
X143890233Y-103410951D01*
X143950138Y-103399036D01*
X143959701Y-103397134D01*
X144043884Y-103340884D01*
X144100134Y-103256701D01*
X144102071Y-103246967D01*
X144110108Y-103206557D01*
X144114900Y-103182467D01*
X144114900Y-103126220D01*
X144133052Y-103069083D01*
X144189744Y-102988866D01*
X144202348Y-102971031D01*
X144219424Y-102928662D01*
X144265964Y-102813181D01*
X144265965Y-102813179D01*
X144268113Y-102807848D01*
X144285590Y-102692969D01*
X144293709Y-102639599D01*
X144293709Y-102639596D01*
X144294574Y-102633911D01*
X144285797Y-102526003D01*
X144280777Y-102464291D01*
X144280777Y-102464289D01*
X144280310Y-102458553D01*
X144278537Y-102453080D01*
X144278536Y-102453075D01*
X144227862Y-102296651D01*
X144226089Y-102291178D01*
X144134817Y-102140767D01*
X144133898Y-102139726D01*
X144114899Y-102081862D01*
X144114899Y-102032334D01*
X144100134Y-101958099D01*
X144043884Y-101873916D01*
X143959701Y-101817666D01*
X143950138Y-101815764D01*
X143950136Y-101815763D01*
X143919219Y-101809614D01*
X143885467Y-101802900D01*
X143535473Y-101802900D01*
X143185334Y-101802901D01*
X143180568Y-101803849D01*
X143180567Y-101803849D01*
X143153986Y-101809136D01*
X143111099Y-101817666D01*
X143102992Y-101823083D01*
X143093982Y-101826815D01*
X143092878Y-101824150D01*
X143053479Y-101836100D01*
X141589291Y-101836100D01*
X141531100Y-101817193D01*
X141495136Y-101767693D01*
X141490617Y-101745126D01*
X141485676Y-101684387D01*
X141485210Y-101678653D01*
X141483437Y-101673181D01*
X141482310Y-101667539D01*
X141482426Y-101667516D01*
X141481666Y-101664030D01*
X141481551Y-101664057D01*
X141480228Y-101658461D01*
X141479562Y-101652746D01*
X141454629Y-101584057D01*
X141453511Y-101580802D01*
X141432761Y-101516746D01*
X141432759Y-101516741D01*
X141430989Y-101511278D01*
X141428008Y-101506365D01*
X141425611Y-101501131D01*
X141425719Y-101501082D01*
X141424177Y-101497864D01*
X141424070Y-101497917D01*
X141421496Y-101492776D01*
X141419532Y-101487366D01*
X141416377Y-101482554D01*
X141416374Y-101482548D01*
X141379461Y-101426247D01*
X141377617Y-101423325D01*
X141342005Y-101364638D01*
X141339717Y-101360867D01*
X141332351Y-101352527D01*
X141332488Y-101352406D01*
X141330070Y-101349324D01*
X141329911Y-101349457D01*
X141326222Y-101345046D01*
X141323066Y-101340232D01*
X141266946Y-101287069D01*
X141265026Y-101285202D01*
X140711076Y-100731252D01*
X140701344Y-100719927D01*
X140690772Y-100705561D01*
X140690771Y-100705560D01*
X140687363Y-100700929D01*
X140682981Y-100697207D01*
X140682979Y-100697204D01*
X140646497Y-100666211D01*
X140640591Y-100660767D01*
X140634162Y-100654338D01*
X140622338Y-100644983D01*
X140611639Y-100636519D01*
X140608966Y-100634327D01*
X140602945Y-100629212D01*
X140553280Y-100587018D01*
X140548158Y-100584403D01*
X140543370Y-100581209D01*
X140543436Y-100581110D01*
X140540432Y-100579181D01*
X140540369Y-100579283D01*
X140535479Y-100576263D01*
X140530967Y-100572693D01*
X140464754Y-100541747D01*
X140461663Y-100540235D01*
X140401712Y-100509623D01*
X140401709Y-100509622D01*
X140396588Y-100507007D01*
X140391005Y-100505641D01*
X140385612Y-100503635D01*
X140385653Y-100503525D01*
X140382281Y-100502337D01*
X140382244Y-100502449D01*
X140376788Y-100500634D01*
X140371578Y-100498199D01*
X140365951Y-100497029D01*
X140365949Y-100497028D01*
X140309205Y-100485226D01*
X140300024Y-100483317D01*
X140296689Y-100482562D01*
X140225692Y-100465189D01*
X140221294Y-100464916D01*
X140221293Y-100464916D01*
X140214586Y-100464500D01*
X140214600Y-100464282D01*
X140210708Y-100463822D01*
X140210687Y-100464054D01*
X140204953Y-100463542D01*
X140199327Y-100462372D01*
X140193585Y-100462527D01*
X140193581Y-100462527D01*
X140122015Y-100464464D01*
X140119337Y-100464500D01*
X137808922Y-100464500D01*
X137794035Y-100463374D01*
X137783937Y-100461838D01*
X137776398Y-100460691D01*
X137776397Y-100460691D01*
X137770711Y-100459826D01*
X137718733Y-100464054D01*
X137717258Y-100464174D01*
X137709232Y-100464500D01*
X137700147Y-100464500D01*
X137671584Y-100467830D01*
X137668192Y-100468165D01*
X137595353Y-100474090D01*
X137589881Y-100475863D01*
X137584239Y-100476990D01*
X137584216Y-100476874D01*
X137580730Y-100477634D01*
X137580757Y-100477749D01*
X137575161Y-100479072D01*
X137569446Y-100479738D01*
X137564038Y-100481701D01*
X137500732Y-100504680D01*
X137497463Y-100505802D01*
X137433450Y-100526539D01*
X137433448Y-100526540D01*
X137427978Y-100528312D01*
X137423063Y-100531294D01*
X137417832Y-100533689D01*
X137417783Y-100533581D01*
X137414563Y-100535124D01*
X137414616Y-100535229D01*
X137409470Y-100537806D01*
X137404066Y-100539768D01*
X137399256Y-100542921D01*
X137399255Y-100542922D01*
X137342964Y-100579828D01*
X137340042Y-100581672D01*
X137277567Y-100619583D01*
X137269226Y-100626949D01*
X137269081Y-100626785D01*
X137266004Y-100629212D01*
X137266154Y-100629391D01*
X137261741Y-100633081D01*
X137256932Y-100636234D01*
X137252977Y-100640409D01*
X137203768Y-100692355D01*
X137201901Y-100694274D01*
X136720081Y-101176095D01*
X136240448Y-101655728D01*
X136229123Y-101665460D01*
X136210129Y-101679437D01*
X136206403Y-101683823D01*
X136175411Y-101720303D01*
X136169967Y-101726209D01*
X136163538Y-101732638D01*
X136161759Y-101734887D01*
X136161756Y-101734890D01*
X136145719Y-101755161D01*
X136143527Y-101757834D01*
X136096218Y-101813520D01*
X136093603Y-101818642D01*
X136090409Y-101823430D01*
X136090310Y-101823364D01*
X136088381Y-101826368D01*
X136088483Y-101826431D01*
X136085463Y-101831321D01*
X136081893Y-101835833D01*
X136079458Y-101841043D01*
X136053857Y-101895819D01*
X136012089Y-101940530D01*
X135964169Y-101952901D01*
X135803134Y-101952901D01*
X135798368Y-101953849D01*
X135798367Y-101953849D01*
X135751316Y-101963207D01*
X135728899Y-101967666D01*
X135644716Y-102023916D01*
X135588466Y-102108099D01*
X135586564Y-102117662D01*
X135586563Y-102117664D01*
X135583627Y-102132427D01*
X135573700Y-102182333D01*
X135573701Y-103432466D01*
X135574649Y-103437231D01*
X135574649Y-103437233D01*
X135581778Y-103473074D01*
X135588466Y-103506701D01*
X135641613Y-103586240D01*
X135641614Y-103586242D01*
X135644716Y-103590884D01*
X135644167Y-103591251D01*
X135668196Y-103638413D01*
X135658625Y-103698845D01*
X135615360Y-103742110D01*
X135570415Y-103752900D01*
X134655132Y-103752900D01*
X134596941Y-103733993D01*
X134585128Y-103723904D01*
X131617876Y-100756652D01*
X131608144Y-100745327D01*
X131597572Y-100730961D01*
X131597571Y-100730960D01*
X131594163Y-100726329D01*
X131589781Y-100722607D01*
X131589779Y-100722604D01*
X131553297Y-100691611D01*
X131547391Y-100686167D01*
X131540962Y-100679738D01*
X131518439Y-100661919D01*
X131515766Y-100659727D01*
X131507325Y-100652556D01*
X131460080Y-100612418D01*
X131454958Y-100609803D01*
X131450170Y-100606609D01*
X131450236Y-100606510D01*
X131447232Y-100604581D01*
X131447169Y-100604683D01*
X131442279Y-100601663D01*
X131437767Y-100598093D01*
X131371554Y-100567147D01*
X131368463Y-100565635D01*
X131308512Y-100535023D01*
X131308509Y-100535022D01*
X131303388Y-100532407D01*
X131297805Y-100531041D01*
X131292412Y-100529035D01*
X131292453Y-100528925D01*
X131289081Y-100527737D01*
X131289044Y-100527849D01*
X131283588Y-100526034D01*
X131278378Y-100523599D01*
X131272751Y-100522429D01*
X131272749Y-100522428D01*
X131230055Y-100513548D01*
X131206824Y-100508717D01*
X131203489Y-100507962D01*
X131132492Y-100490589D01*
X131128094Y-100490316D01*
X131128093Y-100490316D01*
X131121386Y-100489900D01*
X131121400Y-100489682D01*
X131117508Y-100489222D01*
X131117487Y-100489454D01*
X131111753Y-100488942D01*
X131106127Y-100487772D01*
X131100385Y-100487927D01*
X131100381Y-100487927D01*
X131028815Y-100489864D01*
X131026137Y-100489900D01*
X123305522Y-100489900D01*
X123290635Y-100488774D01*
X123280537Y-100487238D01*
X123272998Y-100486091D01*
X123272997Y-100486091D01*
X123267311Y-100485226D01*
X123215333Y-100489454D01*
X123213858Y-100489574D01*
X123205832Y-100489900D01*
X123196747Y-100489900D01*
X123168184Y-100493230D01*
X123164792Y-100493565D01*
X123091953Y-100499490D01*
X123086481Y-100501263D01*
X123080839Y-100502390D01*
X123080816Y-100502274D01*
X123077330Y-100503034D01*
X123077357Y-100503149D01*
X123071761Y-100504472D01*
X123066046Y-100505138D01*
X123060638Y-100507101D01*
X122997332Y-100530080D01*
X122994063Y-100531202D01*
X122930050Y-100551939D01*
X122930048Y-100551940D01*
X122924578Y-100553712D01*
X122919663Y-100556694D01*
X122914432Y-100559089D01*
X122914383Y-100558981D01*
X122911163Y-100560524D01*
X122911216Y-100560629D01*
X122906070Y-100563206D01*
X122900666Y-100565168D01*
X122895856Y-100568321D01*
X122895855Y-100568322D01*
X122839564Y-100605228D01*
X122836642Y-100607072D01*
X122774167Y-100644983D01*
X122765826Y-100652349D01*
X122765681Y-100652185D01*
X122762604Y-100654612D01*
X122762754Y-100654791D01*
X122758341Y-100658481D01*
X122753532Y-100661634D01*
X122700368Y-100717755D01*
X122698501Y-100719673D01*
X122217496Y-101200679D01*
X122162979Y-101228457D01*
X122102547Y-101218886D01*
X122086067Y-101208316D01*
X122069639Y-101195319D01*
X122066966Y-101193127D01*
X122060966Y-101188030D01*
X122011280Y-101145818D01*
X122006158Y-101143203D01*
X122001370Y-101140009D01*
X122001436Y-101139910D01*
X121998432Y-101137981D01*
X121998369Y-101138083D01*
X121993479Y-101135063D01*
X121988967Y-101131493D01*
X121922754Y-101100547D01*
X121919663Y-101099035D01*
X121859712Y-101068423D01*
X121859709Y-101068422D01*
X121854588Y-101065807D01*
X121849005Y-101064441D01*
X121843612Y-101062435D01*
X121843653Y-101062325D01*
X121840281Y-101061137D01*
X121840244Y-101061249D01*
X121834788Y-101059434D01*
X121829578Y-101056999D01*
X121823951Y-101055829D01*
X121823949Y-101055828D01*
X121781255Y-101046948D01*
X121758024Y-101042117D01*
X121754689Y-101041362D01*
X121683692Y-101023989D01*
X121679294Y-101023716D01*
X121679293Y-101023716D01*
X121672586Y-101023300D01*
X121672600Y-101023082D01*
X121668708Y-101022622D01*
X121668687Y-101022854D01*
X121662953Y-101022342D01*
X121657327Y-101021172D01*
X121651585Y-101021327D01*
X121651581Y-101021327D01*
X121580015Y-101023264D01*
X121577337Y-101023300D01*
X111113522Y-101023300D01*
X111098635Y-101022174D01*
X111088537Y-101020638D01*
X111080998Y-101019491D01*
X111080997Y-101019491D01*
X111075311Y-101018626D01*
X111023333Y-101022854D01*
X111021858Y-101022974D01*
X111013832Y-101023300D01*
X111004747Y-101023300D01*
X110976184Y-101026630D01*
X110972792Y-101026965D01*
X110899953Y-101032890D01*
X110894481Y-101034663D01*
X110888839Y-101035790D01*
X110888816Y-101035674D01*
X110885330Y-101036434D01*
X110885357Y-101036549D01*
X110879761Y-101037872D01*
X110874046Y-101038538D01*
X110805357Y-101063471D01*
X110802102Y-101064589D01*
X110738046Y-101085339D01*
X110738041Y-101085341D01*
X110732578Y-101087111D01*
X110727665Y-101090092D01*
X110722431Y-101092489D01*
X110722382Y-101092381D01*
X110719164Y-101093923D01*
X110719217Y-101094030D01*
X110714076Y-101096604D01*
X110708666Y-101098568D01*
X110703854Y-101101723D01*
X110703848Y-101101726D01*
X110647547Y-101138639D01*
X110644634Y-101140478D01*
X110582167Y-101178383D01*
X110573827Y-101185749D01*
X110573706Y-101185612D01*
X110570624Y-101188030D01*
X110570757Y-101188189D01*
X110566346Y-101191878D01*
X110561532Y-101195034D01*
X110548950Y-101208316D01*
X110508369Y-101251154D01*
X110506502Y-101253074D01*
X108643672Y-103115904D01*
X108589155Y-103143681D01*
X108573668Y-103144900D01*
X105741044Y-103144900D01*
X105679352Y-103151602D01*
X105544036Y-103202329D01*
X105428396Y-103288996D01*
X105424163Y-103294644D01*
X105409116Y-103314722D01*
X105341729Y-103404636D01*
X105291002Y-103539952D01*
X105284300Y-103601644D01*
X105284300Y-104772156D01*
X100262500Y-104772156D01*
X100262500Y-99413500D01*
X100281407Y-99355309D01*
X100330907Y-99319345D01*
X100361500Y-99314500D01*
X154654500Y-99314500D01*
X154712691Y-99333407D01*
G37*
%TD.AperFunction*%
%TA.AperFunction,Conductor*%
G36*
X121109380Y-102551207D02*
G01*
X121146353Y-102604011D01*
X121188807Y-102752066D01*
X121191022Y-102756376D01*
X121211995Y-102797185D01*
X121283334Y-102935995D01*
X121411786Y-103098061D01*
X121412891Y-103099001D01*
X121439244Y-103153033D01*
X121428619Y-103213289D01*
X121384606Y-103255792D01*
X121341207Y-103265811D01*
X119563190Y-103265811D01*
X119504999Y-103246904D01*
X119493186Y-103236815D01*
X119437896Y-103181525D01*
X119410119Y-103127008D01*
X119408900Y-103111521D01*
X119408900Y-102839930D01*
X119404798Y-102802166D01*
X119403035Y-102785938D01*
X119403034Y-102785936D01*
X119402364Y-102779764D01*
X119359735Y-102666052D01*
X119357012Y-102604927D01*
X119390738Y-102553876D01*
X119452435Y-102532300D01*
X121051189Y-102532300D01*
X121109380Y-102551207D01*
G37*
%TD.AperFunction*%
%TD*%
M02*
