%TF.GenerationSoftware,KiCad,Pcbnew,(6.0.4)*%
%TF.CreationDate,2022-06-19T16:10:13+03:00*%
%TF.ProjectId,Main_PCB_001,4d61696e-5f50-4434-925f-3030312e6b69,rev?*%
%TF.SameCoordinates,Original*%
%TF.FileFunction,Copper,L1,Top*%
%TF.FilePolarity,Positive*%
%FSLAX46Y46*%
G04 Gerber Fmt 4.6, Leading zero omitted, Abs format (unit mm)*
G04 Created by KiCad (PCBNEW (6.0.4)) date 2022-06-19 16:10:13*
%MOMM*%
%LPD*%
G01*
G04 APERTURE LIST*
G04 Aperture macros list*
%AMRoundRect*
0 Rectangle with rounded corners*
0 $1 Rounding radius*
0 $2 $3 $4 $5 $6 $7 $8 $9 X,Y pos of 4 corners*
0 Add a 4 corners polygon primitive as box body*
4,1,4,$2,$3,$4,$5,$6,$7,$8,$9,$2,$3,0*
0 Add four circle primitives for the rounded corners*
1,1,$1+$1,$2,$3*
1,1,$1+$1,$4,$5*
1,1,$1+$1,$6,$7*
1,1,$1+$1,$8,$9*
0 Add four rect primitives between the rounded corners*
20,1,$1+$1,$2,$3,$4,$5,0*
20,1,$1+$1,$4,$5,$6,$7,0*
20,1,$1+$1,$6,$7,$8,$9,0*
20,1,$1+$1,$8,$9,$2,$3,0*%
G04 Aperture macros list end*
%TA.AperFunction,SMDPad,CuDef*%
%ADD10RoundRect,0.300000X0.300000X0.450000X-0.300000X0.450000X-0.300000X-0.450000X0.300000X-0.450000X0*%
%TD*%
%TA.AperFunction,SMDPad,CuDef*%
%ADD11RoundRect,0.237500X0.300000X0.237500X-0.300000X0.237500X-0.300000X-0.237500X0.300000X-0.237500X0*%
%TD*%
%TA.AperFunction,SMDPad,CuDef*%
%ADD12R,2.150000X1.600000*%
%TD*%
%TA.AperFunction,SMDPad,CuDef*%
%ADD13R,0.650000X1.525000*%
%TD*%
%TA.AperFunction,SMDPad,CuDef*%
%ADD14R,2.410000X3.300000*%
%TD*%
%TA.AperFunction,SMDPad,CuDef*%
%ADD15R,1.200000X1.800000*%
%TD*%
%TA.AperFunction,SMDPad,CuDef*%
%ADD16RoundRect,0.237500X-0.237500X0.250000X-0.237500X-0.250000X0.237500X-0.250000X0.237500X0.250000X0*%
%TD*%
%TA.AperFunction,SMDPad,CuDef*%
%ADD17RoundRect,0.155000X-0.155000X0.212500X-0.155000X-0.212500X0.155000X-0.212500X0.155000X0.212500X0*%
%TD*%
%TA.AperFunction,ComponentPad*%
%ADD18C,1.350000*%
%TD*%
%TA.AperFunction,SMDPad,CuDef*%
%ADD19RoundRect,0.250000X-0.337500X-0.475000X0.337500X-0.475000X0.337500X0.475000X-0.337500X0.475000X0*%
%TD*%
%TA.AperFunction,SMDPad,CuDef*%
%ADD20RoundRect,0.160000X-0.160000X0.197500X-0.160000X-0.197500X0.160000X-0.197500X0.160000X0.197500X0*%
%TD*%
%TA.AperFunction,SMDPad,CuDef*%
%ADD21RoundRect,0.300000X-0.300000X-0.450000X0.300000X-0.450000X0.300000X0.450000X-0.300000X0.450000X0*%
%TD*%
%TA.AperFunction,SMDPad,CuDef*%
%ADD22R,1.400000X0.300000*%
%TD*%
%TA.AperFunction,SMDPad,CuDef*%
%ADD23R,1.570000X1.880000*%
%TD*%
%TA.AperFunction,ComponentPad*%
%ADD24C,1.600000*%
%TD*%
%TA.AperFunction,SMDPad,CuDef*%
%ADD25RoundRect,0.160000X-0.197500X-0.160000X0.197500X-0.160000X0.197500X0.160000X-0.197500X0.160000X0*%
%TD*%
%TA.AperFunction,SMDPad,CuDef*%
%ADD26R,1.800000X2.100000*%
%TD*%
%TA.AperFunction,SMDPad,CuDef*%
%ADD27R,1.630000X1.530000*%
%TD*%
%TA.AperFunction,SMDPad,CuDef*%
%ADD28R,2.100000X1.800000*%
%TD*%
%TA.AperFunction,SMDPad,CuDef*%
%ADD29RoundRect,0.250000X-0.400000X-0.625000X0.400000X-0.625000X0.400000X0.625000X-0.400000X0.625000X0*%
%TD*%
%TA.AperFunction,SMDPad,CuDef*%
%ADD30R,1.100000X0.650000*%
%TD*%
%TA.AperFunction,SMDPad,CuDef*%
%ADD31RoundRect,0.250000X-0.650000X0.412500X-0.650000X-0.412500X0.650000X-0.412500X0.650000X0.412500X0*%
%TD*%
%TA.AperFunction,SMDPad,CuDef*%
%ADD32RoundRect,0.155000X0.212500X0.155000X-0.212500X0.155000X-0.212500X-0.155000X0.212500X-0.155000X0*%
%TD*%
%TA.AperFunction,SMDPad,CuDef*%
%ADD33RoundRect,0.155000X0.155000X-0.212500X0.155000X0.212500X-0.155000X0.212500X-0.155000X-0.212500X0*%
%TD*%
%TA.AperFunction,SMDPad,CuDef*%
%ADD34R,1.800000X1.200000*%
%TD*%
%TA.AperFunction,SMDPad,CuDef*%
%ADD35RoundRect,0.155000X-0.212500X-0.155000X0.212500X-0.155000X0.212500X0.155000X-0.212500X0.155000X0*%
%TD*%
%TA.AperFunction,SMDPad,CuDef*%
%ADD36RoundRect,0.237500X-0.237500X0.300000X-0.237500X-0.300000X0.237500X-0.300000X0.237500X0.300000X0*%
%TD*%
%TA.AperFunction,SMDPad,CuDef*%
%ADD37R,1.250000X0.800000*%
%TD*%
%TA.AperFunction,SMDPad,CuDef*%
%ADD38RoundRect,0.250000X0.475000X-0.337500X0.475000X0.337500X-0.475000X0.337500X-0.475000X-0.337500X0*%
%TD*%
%TA.AperFunction,SMDPad,CuDef*%
%ADD39RoundRect,0.160000X0.160000X-0.197500X0.160000X0.197500X-0.160000X0.197500X-0.160000X-0.197500X0*%
%TD*%
%TA.AperFunction,SMDPad,CuDef*%
%ADD40RoundRect,0.250000X-0.350000X-0.450000X0.350000X-0.450000X0.350000X0.450000X-0.350000X0.450000X0*%
%TD*%
%TA.AperFunction,ViaPad*%
%ADD41C,0.800000*%
%TD*%
%TA.AperFunction,Conductor*%
%ADD42C,1.000000*%
%TD*%
%TA.AperFunction,Conductor*%
%ADD43C,0.250000*%
%TD*%
%TA.AperFunction,Conductor*%
%ADD44C,0.700000*%
%TD*%
%TA.AperFunction,Conductor*%
%ADD45C,0.500000*%
%TD*%
G04 APERTURE END LIST*
D10*
%TO.P,D15,1,Conn*%
%TO.N,Net-(D15-Pad1)*%
X102971600Y-103657400D03*
%TD*%
D11*
%TO.P,C16,1*%
%TO.N,Net-(C16-Pad1)*%
X133145700Y-105801000D03*
%TO.P,C16,2*%
%TO.N,GND*%
X131420700Y-105801000D03*
%TD*%
D12*
%TO.P,L7,1*%
%TO.N,Net-(C12-Pad1)*%
X136131600Y-102905400D03*
%TO.P,L7,2*%
%TO.N,Net-(D12-Pad2)*%
X140931600Y-102905400D03*
%TD*%
D13*
%TO.P,IC4,1,VIN*%
%TO.N,Net-(C10-Pad1)*%
X114477800Y-104425200D03*
%TO.P,IC4,2,ISENSE*%
%TO.N,Net-(D11-Pad1)*%
X113207800Y-104425200D03*
%TO.P,IC4,3,AGND*%
%TO.N,GND*%
X111937800Y-104425200D03*
%TO.P,IC4,4,VSET*%
%TO.N,unconnected-(IC4-Pad4)*%
X110667800Y-104425200D03*
%TO.P,IC4,5,LX_1*%
%TO.N,Net-(D10-Pad2)*%
X110667800Y-109849200D03*
%TO.P,IC4,6,LX_2*%
X111937800Y-109849200D03*
%TO.P,IC4,7,PGND_1*%
%TO.N,GND*%
X113207800Y-109849200D03*
%TO.P,IC4,8,PGND_2*%
X114477800Y-109849200D03*
D14*
%TO.P,IC4,9,EP*%
X112572800Y-107137200D03*
%TD*%
D15*
%TO.P,L3,1*%
%TO.N,Net-(C7-Pad1)*%
X118706000Y-104267000D03*
%TO.P,L3,2*%
%TO.N,Net-(C10-Pad1)*%
X117006000Y-104267000D03*
%TD*%
D16*
%TO.P,R10,1*%
%TO.N,Net-(IC5-Pad2)*%
X139954000Y-110476500D03*
%TO.P,R10,2*%
%TO.N,GND*%
X139954000Y-112301500D03*
%TD*%
D17*
%TO.P,C9,1*%
%TO.N,GND*%
X126746000Y-106884500D03*
%TO.P,C9,2*%
%TO.N,Net-(C9-Pad2)*%
X126746000Y-108019500D03*
%TD*%
D18*
%TO.P,U2,1,Mnt*%
%TO.N,GND*%
X153416000Y-112522000D03*
%TD*%
D19*
%TO.P,C10,1*%
%TO.N,Net-(C10-Pad1)*%
X116462900Y-101981000D03*
%TO.P,C10,2*%
%TO.N,GND*%
X118537900Y-101981000D03*
%TD*%
D20*
%TO.P,R5,1*%
%TO.N,Net-(C4-Pad1)*%
X127203200Y-110947200D03*
%TO.P,R5,2*%
%TO.N,Net-(C6-Pad1)*%
X127203200Y-112142200D03*
%TD*%
D21*
%TO.P,D5,1,Conn*%
%TO.N,Net-(D5-Pad1)*%
X102971600Y-109042200D03*
%TD*%
%TO.P,D7,1,Conn*%
%TO.N,Net-(D7-Pad1)*%
X148259800Y-111709200D03*
%TD*%
D22*
%TO.P,IC3,1,RC*%
%TO.N,Net-(C8-Pad2)*%
X128737000Y-107849000D03*
%TO.P,IC3,2,SS*%
%TO.N,Net-(C9-Pad2)*%
X128737000Y-108349000D03*
%TO.P,IC3,3,DIS/~{EN}*%
%TO.N,Net-(IC3-Pad3)*%
X128737000Y-108849000D03*
%TO.P,IC3,4,COMP*%
%TO.N,Net-(C4-Pad2)*%
X128737000Y-109349000D03*
%TO.P,IC3,5,FB*%
%TO.N,Net-(C4-Pad1)*%
X128737000Y-109849000D03*
%TO.P,IC3,6,GND*%
%TO.N,GND*%
X133137000Y-109849000D03*
%TO.P,IC3,7,ISNS*%
%TO.N,Net-(C15-Pad1)*%
X133137000Y-109349000D03*
%TO.P,IC3,8,GDRV*%
%TO.N,Net-(IC3-Pad8)*%
X133137000Y-108849000D03*
%TO.P,IC3,9,BP*%
%TO.N,unconnected-(IC3-Pad9)*%
X133137000Y-108349000D03*
%TO.P,IC3,10,VDD*%
%TO.N,Net-(C16-Pad1)*%
X133137000Y-107849000D03*
D23*
%TO.P,IC3,11,EP*%
%TO.N,GND*%
X130937000Y-108849000D03*
%TD*%
D24*
%TO.P,D3,1,Conn*%
%TO.N,Net-(D3-Pad1)*%
X122174000Y-105156000D03*
%TD*%
%TO.P,D1,1,Conn*%
%TO.N,Net-(C11-Pad1)*%
X122174000Y-102362000D03*
%TD*%
D25*
%TO.P,R9,1*%
%TO.N,Net-(C15-Pad1)*%
X134911500Y-107833000D03*
%TO.P,R9,2*%
%TO.N,Net-(IC5-Pad2)*%
X136106500Y-107833000D03*
%TD*%
D26*
%TO.P,L4,1*%
%TO.N,Net-(C11-Pad1)*%
X127082000Y-102295800D03*
%TO.P,L4,2*%
%TO.N,Net-(C12-Pad1)*%
X130982000Y-102295800D03*
%TD*%
D10*
%TO.P,D14,1,Conn*%
%TO.N,Net-(D13-Pad1)*%
X101574600Y-103657400D03*
%TD*%
D27*
%TO.P,D10,1*%
%TO.N,Net-(C10-Pad1)*%
X116890800Y-106380200D03*
%TO.P,D10,2*%
%TO.N,Net-(D10-Pad2)*%
X116890800Y-110180200D03*
%TD*%
D24*
%TO.P,D2,1,Conn*%
%TO.N,Net-(C7-Pad1)*%
X122174000Y-107950000D03*
%TD*%
D28*
%TO.P,L8,1*%
%TO.N,Net-(D10-Pad2)*%
X107340400Y-109722200D03*
%TO.P,L8,2*%
%TO.N,Net-(C20-Pad1)*%
X107340400Y-105822200D03*
%TD*%
D29*
%TO.P,R6,1*%
%TO.N,Net-(D11-Pad1)*%
X111429200Y-102108000D03*
%TO.P,R6,2*%
%TO.N,Net-(C10-Pad1)*%
X114529200Y-102108000D03*
%TD*%
D30*
%TO.P,IC5,1,G*%
%TO.N,Net-(IC5-Pad1)*%
X137534000Y-106883000D03*
%TO.P,IC5,2,S*%
%TO.N,Net-(IC5-Pad2)*%
X137534000Y-108783000D03*
%TO.P,IC5,3,D*%
%TO.N,Net-(D12-Pad2)*%
X139834000Y-107833000D03*
%TD*%
D11*
%TO.P,C14,1*%
%TO.N,Net-(C14-Pad1)*%
X143305700Y-112303400D03*
%TO.P,C14,2*%
%TO.N,GND*%
X141580700Y-112303400D03*
%TD*%
D31*
%TO.P,C12,1*%
%TO.N,Net-(C12-Pad1)*%
X133502400Y-100834900D03*
%TO.P,C12,2*%
%TO.N,GND*%
X133502400Y-103959900D03*
%TD*%
D32*
%TO.P,C4,1*%
%TO.N,Net-(C4-Pad1)*%
X127186500Y-109931200D03*
%TO.P,C4,2*%
%TO.N,Net-(C4-Pad2)*%
X126051500Y-109931200D03*
%TD*%
D21*
%TO.P,D6,1,Conn*%
%TO.N,Net-(D5-Pad1)*%
X149682200Y-111734600D03*
%TD*%
D33*
%TO.P,C6,1*%
%TO.N,Net-(C6-Pad1)*%
X126187200Y-112098900D03*
%TO.P,C6,2*%
%TO.N,Net-(C4-Pad2)*%
X126187200Y-110963900D03*
%TD*%
D34*
%TO.P,L9,1*%
%TO.N,Net-(C20-Pad1)*%
X106375200Y-103542200D03*
%TO.P,L9,2*%
%TO.N,Net-(D15-Pad1)*%
X106375200Y-101842200D03*
%TD*%
D21*
%TO.P,D4,1,Conn*%
%TO.N,Net-(D4-Pad1)*%
X101600000Y-109042200D03*
%TD*%
D35*
%TO.P,C8,1*%
%TO.N,GND*%
X126838900Y-105343800D03*
%TO.P,C8,2*%
%TO.N,Net-(C8-Pad2)*%
X127973900Y-105343800D03*
%TD*%
D18*
%TO.P,U5,1,Mnt*%
%TO.N,GND*%
X101600000Y-112522000D03*
%TD*%
D36*
%TO.P,C7,1*%
%TO.N,Net-(C7-Pad1)*%
X119227600Y-106249300D03*
%TO.P,C7,2*%
%TO.N,GND*%
X119227600Y-107974300D03*
%TD*%
D18*
%TO.P,U4,1,Mnt*%
%TO.N,GND*%
X153416000Y-100584000D03*
%TD*%
%TO.P,U3,1,Mnt*%
%TO.N,GND*%
X101600000Y-100584000D03*
%TD*%
D25*
%TO.P,R8,1*%
%TO.N,Net-(IC3-Pad8)*%
X134784500Y-106436000D03*
%TO.P,R8,2*%
%TO.N,Net-(IC5-Pad1)*%
X135979500Y-106436000D03*
%TD*%
D24*
%TO.P,D20,1,Conn*%
%TO.N,Net-(D20-Pad1)*%
X122174000Y-110744000D03*
%TD*%
D25*
%TO.P,R7,1*%
%TO.N,Net-(C8-Pad2)*%
X127977300Y-106410600D03*
%TO.P,R7,2*%
%TO.N,Net-(C16-Pad1)*%
X129172300Y-106410600D03*
%TD*%
D21*
%TO.P,D8,1,Conn*%
%TO.N,Net-(D7-Pad1)*%
X148259800Y-101092000D03*
%TD*%
D37*
%TO.P,Z3,1*%
%TO.N,Net-(C17-Pad1)*%
X138269600Y-111389000D03*
%TO.P,Z3,2*%
%TO.N,Net-(C15-Pad1)*%
X134969600Y-111389000D03*
%TD*%
D38*
%TO.P,C20,1*%
%TO.N,Net-(C20-Pad1)*%
X108737400Y-103729700D03*
%TO.P,C20,2*%
%TO.N,GND*%
X108737400Y-101654700D03*
%TD*%
D35*
%TO.P,C15,1*%
%TO.N,Net-(C15-Pad1)*%
X134941500Y-108849000D03*
%TO.P,C15,2*%
%TO.N,GND*%
X136076500Y-108849000D03*
%TD*%
D21*
%TO.P,D9,1,Conn*%
%TO.N,Net-(C14-Pad1)*%
X149707600Y-101092000D03*
%TD*%
D27*
%TO.P,D12,1*%
%TO.N,Net-(C17-Pad1)*%
X143916400Y-104653000D03*
%TO.P,D12,2*%
%TO.N,Net-(D12-Pad2)*%
X143916400Y-100853000D03*
%TD*%
D39*
%TO.P,R4,1*%
%TO.N,Net-(D4-Pad1)*%
X132207000Y-112240500D03*
%TO.P,R4,2*%
%TO.N,Net-(C4-Pad1)*%
X132207000Y-111045500D03*
%TD*%
D36*
%TO.P,C11,1*%
%TO.N,Net-(C11-Pad1)*%
X125476000Y-105700500D03*
%TO.P,C11,2*%
%TO.N,GND*%
X125476000Y-107425500D03*
%TD*%
D31*
%TO.P,C17,1*%
%TO.N,Net-(C17-Pad1)*%
X141884400Y-107134100D03*
%TO.P,C17,2*%
%TO.N,GND*%
X141884400Y-110259100D03*
%TD*%
D34*
%TO.P,L6,1*%
%TO.N,Net-(C14-Pad1)*%
X144221200Y-108276600D03*
%TO.P,L6,2*%
%TO.N,Net-(C17-Pad1)*%
X144221200Y-106576600D03*
%TD*%
D40*
%TO.P,R3,1*%
%TO.N,GND*%
X128692400Y-111693800D03*
%TO.P,R3,2*%
%TO.N,Net-(D4-Pad1)*%
X130692400Y-111693800D03*
%TD*%
D41*
%TO.N,GND*%
X130759200Y-109397800D03*
X114452400Y-108381800D03*
X128727200Y-111988600D03*
X146050000Y-112191800D03*
X146329400Y-101041200D03*
X138531600Y-110236000D03*
X110693200Y-108204000D03*
X146202400Y-104698800D03*
X100685600Y-105232200D03*
X131419600Y-105765600D03*
X150241000Y-103936800D03*
X104267000Y-110236000D03*
X119354600Y-111683800D03*
X139928600Y-112293400D03*
X104419400Y-101523800D03*
X108661200Y-100482400D03*
X151917400Y-112852200D03*
X105664000Y-111683800D03*
X153441400Y-103022400D03*
X103149400Y-99720400D03*
X110210600Y-111709200D03*
X150215600Y-106934000D03*
X141554200Y-112318800D03*
X102412800Y-106400600D03*
X110693200Y-106146600D03*
X148082000Y-107264200D03*
X153466800Y-105867200D03*
X100711000Y-107238800D03*
X146634200Y-109778800D03*
X108254800Y-111709200D03*
X148158200Y-103047800D03*
X150164800Y-109626400D03*
X119303800Y-109372400D03*
X142011400Y-110236000D03*
X132791200Y-104648000D03*
X138633200Y-104775000D03*
X100812600Y-110769400D03*
X120091200Y-102920800D03*
%TO.N,Net-(C11-Pad1)*%
X122478800Y-106527600D03*
%TO.N,Net-(C7-Pad1)*%
X121920000Y-103759000D03*
%TO.N,Net-(C14-Pad1)*%
X146075400Y-108280200D03*
X149682200Y-101092000D03*
%TO.N,Net-(D4-Pad1)*%
X131572000Y-112293400D03*
X101600000Y-109042200D03*
%TO.N,Net-(D5-Pad1)*%
X149682200Y-111760000D03*
X102971600Y-109067600D03*
%TO.N,Net-(D7-Pad1)*%
X148259800Y-111734600D03*
X148285200Y-101092000D03*
%TO.N,Net-(D11-Pad1)*%
X112014000Y-102082600D03*
%TO.N,Net-(D13-Pad1)*%
X101549200Y-103657400D03*
X153416000Y-108305600D03*
%TO.N,Net-(D15-Pad1)*%
X106400600Y-101676200D03*
X102997000Y-103657400D03*
%TO.N,Net-(IC3-Pad3)*%
X122986800Y-111887000D03*
%TD*%
D42*
%TO.N,Net-(C11-Pad1)*%
X127015800Y-102362000D02*
X125145800Y-102362000D01*
X125145800Y-102362000D02*
X122174000Y-102362000D01*
D43*
X125463300Y-104305100D02*
X125463300Y-102679500D01*
X123240800Y-106527600D02*
X125463300Y-104305100D01*
D42*
X127082000Y-102295800D02*
X127015800Y-102362000D01*
D43*
X125463300Y-102679500D02*
X125145800Y-102362000D01*
X122478800Y-106527600D02*
X123240800Y-106527600D01*
%TO.N,Net-(C4-Pad1)*%
X129506480Y-110618480D02*
X128737000Y-109849000D01*
X128721000Y-109865000D02*
X128737000Y-109849000D01*
X127186500Y-110762700D02*
X127254000Y-110830200D01*
X127186500Y-109865000D02*
X128721000Y-109865000D01*
X127186500Y-109776700D02*
X127186500Y-110762700D01*
X131779980Y-110618480D02*
X129506480Y-110618480D01*
X132207000Y-111045500D02*
X131779980Y-110618480D01*
%TO.N,Net-(C4-Pad2)*%
X126238000Y-109963200D02*
X126051500Y-109776700D01*
X127546343Y-109245400D02*
X127649943Y-109349000D01*
X126051500Y-109776700D02*
X126582800Y-109245400D01*
X126238000Y-110860200D02*
X126238000Y-109963200D01*
X127649943Y-109349000D02*
X128737000Y-109349000D01*
X126582800Y-109245400D02*
X127546343Y-109245400D01*
%TO.N,Net-(C6-Pad1)*%
X127254000Y-112025200D02*
X126268000Y-112025200D01*
X126268000Y-112025200D02*
X126238000Y-111995200D01*
D44*
%TO.N,Net-(C7-Pad1)*%
X120624600Y-103759000D02*
X120363289Y-104020311D01*
D42*
X119425256Y-103809800D02*
X119163200Y-103809800D01*
X122174000Y-107950000D02*
X120473300Y-106249300D01*
X118706000Y-105727700D02*
X119227600Y-106249300D01*
X120473300Y-106249300D02*
X119227600Y-106249300D01*
X119635767Y-104020311D02*
X119425256Y-103809800D01*
X119163200Y-103809800D02*
X118706000Y-104267000D01*
X118706000Y-104267000D02*
X118706000Y-105727700D01*
D44*
X121920000Y-103759000D02*
X120624600Y-103759000D01*
X120363289Y-104020311D02*
X119635767Y-104020311D01*
D43*
%TO.N,Net-(C8-Pad2)*%
X127973900Y-106407200D02*
X127977300Y-106410600D01*
X127977300Y-106410600D02*
X127977300Y-107089300D01*
X127977300Y-107089300D02*
X128737000Y-107849000D01*
X127973900Y-105343800D02*
X127973900Y-106407200D01*
%TO.N,Net-(C9-Pad2)*%
X127577499Y-108019500D02*
X126746000Y-108019500D01*
X128737000Y-108349000D02*
X127906999Y-108349000D01*
X127906999Y-108349000D02*
X127577499Y-108019500D01*
D42*
%TO.N,Net-(C10-Pad1)*%
X114477800Y-104425200D02*
X116847800Y-104425200D01*
X116462900Y-101981000D02*
X114656200Y-101981000D01*
X116890800Y-106380200D02*
X116890800Y-104382200D01*
X116462900Y-103686700D02*
X116462900Y-101981000D01*
X117006000Y-104267000D02*
X117006000Y-104229800D01*
X116847800Y-104425200D02*
X117006000Y-104267000D01*
X116890800Y-104382200D02*
X117006000Y-104267000D01*
X114656200Y-101981000D02*
X114529200Y-102108000D01*
X117006000Y-104229800D02*
X116462900Y-103686700D01*
%TO.N,Net-(C12-Pad1)*%
X133502400Y-102041800D02*
X133756400Y-102295800D01*
X133502400Y-100834900D02*
X133502400Y-102041800D01*
X130982000Y-102295800D02*
X133756400Y-102295800D01*
X133756400Y-102295800D02*
X135522000Y-102295800D01*
X135522000Y-102295800D02*
X136131600Y-102905400D01*
%TO.N,Net-(C14-Pad1)*%
X146075400Y-108280200D02*
X144221200Y-110134400D01*
X144221200Y-110134400D02*
X144221200Y-111387900D01*
X144221200Y-111387900D02*
X143305700Y-112303400D01*
D43*
%TO.N,Net-(C15-Pad1)*%
X134983600Y-109349000D02*
X135026400Y-109306200D01*
D45*
X135002000Y-108909500D02*
X134941500Y-108849000D01*
D43*
X134911500Y-108819000D02*
X134941500Y-108849000D01*
D45*
X134911500Y-107833000D02*
X134911500Y-108819000D01*
X135002000Y-111389000D02*
X135002000Y-108909500D01*
D43*
X133137000Y-109349000D02*
X134983600Y-109349000D01*
%TO.N,Net-(C17-Pad1)*%
X143154400Y-110864093D02*
X143154400Y-109201111D01*
X142629493Y-111389000D02*
X143154400Y-110864093D01*
X141884400Y-107931111D02*
X141884400Y-107134100D01*
D42*
X143916400Y-104653000D02*
X143916400Y-106271800D01*
D43*
X138302000Y-111389000D02*
X142629493Y-111389000D01*
X141884400Y-107134100D02*
X142441900Y-106576600D01*
D42*
X143916400Y-106271800D02*
X144221200Y-106576600D01*
X142441900Y-106576600D02*
X144137480Y-106576600D01*
D43*
X143154400Y-109201111D02*
X141884400Y-107931111D01*
D42*
%TO.N,Net-(C20-Pad1)*%
X107340400Y-103759000D02*
X107369700Y-103729700D01*
X107369700Y-103729700D02*
X106562700Y-103729700D01*
X108737400Y-103729700D02*
X107369700Y-103729700D01*
X106562700Y-103729700D02*
X106375200Y-103542200D01*
X107340400Y-105822200D02*
X107340400Y-103759000D01*
D43*
%TO.N,Net-(D4-Pad1)*%
X130667000Y-111643000D02*
X131327400Y-112303400D01*
X132144100Y-112303400D02*
X132207000Y-112240500D01*
X131327400Y-112303400D02*
X132144100Y-112303400D01*
D45*
%TO.N,Net-(D5-Pad1)*%
X104521000Y-113182400D02*
X103682800Y-112344200D01*
X103682800Y-112344200D02*
X103682800Y-111150400D01*
X138658600Y-113182400D02*
X104521000Y-113182400D01*
X103682800Y-111150400D02*
X103657400Y-111150400D01*
X149072600Y-113360200D02*
X138836400Y-113360200D01*
X138836400Y-113360200D02*
X138658600Y-113182400D01*
X102971600Y-110464600D02*
X102971600Y-109067600D01*
X149682200Y-111760000D02*
X149682200Y-112750600D01*
X149682200Y-112750600D02*
X149072600Y-113360200D01*
X103657400Y-111150400D02*
X102971600Y-110464600D01*
%TO.N,Net-(D7-Pad1)*%
X147964800Y-111496200D02*
X147964800Y-111734600D01*
X148971000Y-110490000D02*
X147964800Y-111496200D01*
X148285200Y-101092000D02*
X148285200Y-101479581D01*
X148285200Y-101479581D02*
X148971000Y-102165381D01*
X148971000Y-102165381D02*
X148971000Y-110490000D01*
D42*
%TO.N,Net-(D10-Pad2)*%
X116890800Y-110180200D02*
X116890800Y-110617000D01*
X107340400Y-109722200D02*
X110540800Y-109722200D01*
X111607600Y-110179400D02*
X111937800Y-109849200D01*
X116890800Y-110617000D02*
X115722400Y-111785400D01*
X110667800Y-109849200D02*
X111277400Y-109849200D01*
X111607600Y-111175800D02*
X111607600Y-110179400D01*
X112217200Y-111785400D02*
X111607600Y-111175800D01*
X110540800Y-109722200D02*
X110667800Y-109849200D01*
X115722400Y-111785400D02*
X112217200Y-111785400D01*
X111277400Y-109849200D02*
X111607600Y-110179400D01*
%TO.N,Net-(D11-Pad1)*%
X113207800Y-103208678D02*
X112107122Y-102108000D01*
X112107122Y-102108000D02*
X111429200Y-102108000D01*
X113207800Y-104425200D02*
X113207800Y-103208678D01*
%TO.N,Net-(D12-Pad2)*%
X140931600Y-102905400D02*
X142984000Y-100853000D01*
X139834000Y-104003000D02*
X140931600Y-102905400D01*
X139834000Y-107833000D02*
X139834000Y-104003000D01*
X142984000Y-100853000D02*
X143762480Y-100853000D01*
D45*
%TO.N,Net-(D13-Pad1)*%
X104755311Y-99638489D02*
X104755311Y-99663889D01*
X152958800Y-108661200D02*
X153416000Y-108204000D01*
X101574600Y-102844600D02*
X101574600Y-103657400D01*
X151993600Y-108661200D02*
X152958800Y-108661200D01*
X104755311Y-99663889D02*
X101574600Y-102844600D01*
X151587200Y-100228400D02*
X151587200Y-108254800D01*
X150997289Y-99638489D02*
X104780711Y-99638489D01*
X101574600Y-103657400D02*
X101498400Y-103657400D01*
X101396800Y-103276400D02*
X101396800Y-103657400D01*
X151003000Y-99644200D02*
X151587200Y-100228400D01*
X151587200Y-108254800D02*
X151993600Y-108661200D01*
D43*
%TO.N,Net-(IC3-Pad3)*%
X126060200Y-108737400D02*
X127674061Y-108737400D01*
X127785661Y-108849000D02*
X128737000Y-108849000D01*
X122986800Y-111887000D02*
X122986800Y-111816801D01*
X127674061Y-108737400D02*
X127785661Y-108849000D01*
X122986800Y-111816801D02*
X126058521Y-108745080D01*
%TO.N,Net-(IC3-Pad8)*%
X133137000Y-108849000D02*
X134112000Y-108849000D01*
X134229480Y-107118020D02*
X134784500Y-106563000D01*
X134112000Y-108849000D02*
X134229480Y-108731520D01*
X134229480Y-108731520D02*
X134229480Y-107118020D01*
%TO.N,Net-(IC5-Pad1)*%
X137353000Y-106883000D02*
X137033000Y-106563000D01*
X137534000Y-106883000D02*
X137353000Y-106883000D01*
X137033000Y-106563000D02*
X135979500Y-106563000D01*
%TO.N,Net-(IC5-Pad2)*%
X136106500Y-107706000D02*
X136271000Y-107706000D01*
X137348000Y-108783000D02*
X137534000Y-108783000D01*
X137534000Y-108783000D02*
X138604700Y-108783000D01*
X138604700Y-108783000D02*
X139991500Y-110169800D01*
X136271000Y-107706000D02*
X137348000Y-108783000D01*
%TO.N,Net-(C16-Pad1)*%
X129172300Y-106410600D02*
X129486900Y-106725200D01*
X133145700Y-105801000D02*
X133137000Y-105809700D01*
D45*
X133137000Y-107721600D02*
X133146800Y-107731400D01*
X133137000Y-105809700D02*
X133137000Y-107721600D01*
D43*
X133146800Y-107731400D02*
X133146800Y-107839200D01*
X129486900Y-106725200D02*
X133137000Y-106725200D01*
X133146800Y-107839200D02*
X133137000Y-107849000D01*
%TD*%
%TA.AperFunction,Conductor*%
%TO.N,GND*%
G36*
X104210412Y-99333407D02*
G01*
X104246376Y-99382907D01*
X104246376Y-99444093D01*
X104222225Y-99483504D01*
X101265670Y-102440059D01*
X101255590Y-102448112D01*
X101255596Y-102448119D01*
X101250226Y-102452690D01*
X101244261Y-102456453D01*
X101220023Y-102483897D01*
X101208384Y-102497076D01*
X101204184Y-102501545D01*
X101192249Y-102513480D01*
X101190137Y-102516298D01*
X101185395Y-102522625D01*
X101180387Y-102528777D01*
X101148599Y-102564770D01*
X101144169Y-102574206D01*
X101133775Y-102591503D01*
X101127530Y-102599836D01*
X101114725Y-102633994D01*
X101112406Y-102640179D01*
X101074275Y-102688029D01*
X101056150Y-102697474D01*
X100999835Y-102719770D01*
X100878823Y-102811623D01*
X100874737Y-102817006D01*
X100798737Y-102917133D01*
X100786970Y-102932635D01*
X100731044Y-103073890D01*
X100720100Y-103164323D01*
X100720101Y-104150476D01*
X100720460Y-104153442D01*
X100720460Y-104153444D01*
X100723268Y-104176648D01*
X100731044Y-104240910D01*
X100786970Y-104382165D01*
X100791050Y-104387540D01*
X100791051Y-104387542D01*
X100864419Y-104484200D01*
X100878823Y-104503177D01*
X100884206Y-104507263D01*
X100992775Y-104589671D01*
X100999835Y-104595030D01*
X101141090Y-104650956D01*
X101231523Y-104661900D01*
X101574542Y-104661900D01*
X101917676Y-104661899D01*
X101920642Y-104661540D01*
X101920644Y-104661540D01*
X102001796Y-104651720D01*
X102008110Y-104650956D01*
X102014026Y-104648614D01*
X102143091Y-104597514D01*
X102149365Y-104595030D01*
X102213247Y-104546541D01*
X102271026Y-104526420D01*
X102332953Y-104546541D01*
X102396835Y-104595030D01*
X102538090Y-104650956D01*
X102628523Y-104661900D01*
X102971542Y-104661900D01*
X103314676Y-104661899D01*
X103317642Y-104661540D01*
X103317644Y-104661540D01*
X103398796Y-104651720D01*
X103405110Y-104650956D01*
X103411026Y-104648614D01*
X103540091Y-104597514D01*
X103546365Y-104595030D01*
X103553426Y-104589671D01*
X103661994Y-104507263D01*
X103667377Y-104503177D01*
X103681781Y-104484200D01*
X103755149Y-104387542D01*
X103755150Y-104387540D01*
X103759230Y-104382165D01*
X103815156Y-104240910D01*
X103826100Y-104150477D01*
X103826099Y-103164324D01*
X103824056Y-103147436D01*
X103815920Y-103080204D01*
X103815156Y-103073890D01*
X103812741Y-103067789D01*
X103761714Y-102938909D01*
X103759230Y-102932635D01*
X103747464Y-102917133D01*
X105220700Y-102917133D01*
X105220701Y-104167266D01*
X105221649Y-104172032D01*
X105221649Y-104172033D01*
X105222788Y-104177761D01*
X105235466Y-104241501D01*
X105291716Y-104325684D01*
X105375899Y-104381934D01*
X105385462Y-104383836D01*
X105385464Y-104383837D01*
X105404092Y-104387542D01*
X105450133Y-104396700D01*
X106185814Y-104396700D01*
X106227706Y-104406000D01*
X106228306Y-104406280D01*
X106229754Y-104406957D01*
X106232820Y-104408455D01*
X106297912Y-104441693D01*
X106303496Y-104443059D01*
X106308894Y-104445067D01*
X106308853Y-104445178D01*
X106312215Y-104446362D01*
X106312252Y-104446250D01*
X106317713Y-104448067D01*
X106322921Y-104450501D01*
X106328548Y-104451671D01*
X106328550Y-104451672D01*
X106346455Y-104455396D01*
X106394478Y-104465384D01*
X106397815Y-104466139D01*
X106423967Y-104472538D01*
X106475995Y-104504735D01*
X106499162Y-104561365D01*
X106484618Y-104620797D01*
X106437919Y-104660330D01*
X106400434Y-104667701D01*
X106265334Y-104667701D01*
X106260568Y-104668649D01*
X106260567Y-104668649D01*
X106213516Y-104678007D01*
X106191099Y-104682466D01*
X106106916Y-104738716D01*
X106050666Y-104822899D01*
X106048764Y-104832462D01*
X106048763Y-104832464D01*
X106045307Y-104849842D01*
X106035900Y-104897133D01*
X106035901Y-106747266D01*
X106036849Y-106752031D01*
X106036849Y-106752033D01*
X106044003Y-106787999D01*
X106050666Y-106821501D01*
X106106916Y-106905684D01*
X106191099Y-106961934D01*
X106200662Y-106963836D01*
X106200664Y-106963837D01*
X106226733Y-106969022D01*
X106265333Y-106976700D01*
X107340178Y-106976700D01*
X108415466Y-106976699D01*
X108420232Y-106975751D01*
X108420233Y-106975751D01*
X108480138Y-106963836D01*
X108489701Y-106961934D01*
X108573884Y-106905684D01*
X108630134Y-106821501D01*
X108632703Y-106808590D01*
X108643952Y-106752031D01*
X108644900Y-106747267D01*
X108644899Y-104897134D01*
X108630134Y-104822899D01*
X108573884Y-104738716D01*
X108571282Y-104736978D01*
X108545404Y-104686187D01*
X108554975Y-104625755D01*
X108598240Y-104582490D01*
X108643185Y-104571700D01*
X109260156Y-104571700D01*
X109321848Y-104564998D01*
X109457164Y-104514271D01*
X109557493Y-104439079D01*
X109567156Y-104431837D01*
X109572804Y-104427604D01*
X109578349Y-104420206D01*
X109611093Y-104376515D01*
X109659471Y-104311964D01*
X109710198Y-104176648D01*
X109716900Y-104114956D01*
X109716900Y-103637633D01*
X110088300Y-103637633D01*
X110088301Y-105212766D01*
X110089249Y-105217531D01*
X110089249Y-105217533D01*
X110098607Y-105264584D01*
X110103066Y-105287001D01*
X110159316Y-105371184D01*
X110243499Y-105427434D01*
X110253062Y-105429336D01*
X110253064Y-105429337D01*
X110283981Y-105435486D01*
X110317733Y-105442200D01*
X110667727Y-105442200D01*
X111017866Y-105442199D01*
X111022632Y-105441251D01*
X111022633Y-105441251D01*
X111082538Y-105429336D01*
X111092101Y-105427434D01*
X111176284Y-105371184D01*
X111232534Y-105287001D01*
X111235039Y-105274410D01*
X111246352Y-105217531D01*
X111247300Y-105212767D01*
X111247299Y-103637634D01*
X111240159Y-103601733D01*
X111234436Y-103572962D01*
X111232534Y-103563399D01*
X111176284Y-103479216D01*
X111097810Y-103426781D01*
X111097808Y-103426779D01*
X111092101Y-103422966D01*
X111092552Y-103422290D01*
X111052670Y-103388226D01*
X111038387Y-103328731D01*
X111061803Y-103272204D01*
X111113972Y-103240235D01*
X111137082Y-103237500D01*
X111876956Y-103237500D01*
X111938648Y-103230798D01*
X112042069Y-103192028D01*
X112103191Y-103189305D01*
X112146822Y-103214724D01*
X112424304Y-103492206D01*
X112452081Y-103546723D01*
X112453300Y-103562210D01*
X112453300Y-104469253D01*
X112468538Y-104599954D01*
X112470500Y-104605360D01*
X112470501Y-104605363D01*
X112516939Y-104733297D01*
X112528568Y-104765334D01*
X112531721Y-104770143D01*
X112531723Y-104770147D01*
X112612093Y-104892730D01*
X112628301Y-104947011D01*
X112628301Y-105212766D01*
X112629249Y-105217531D01*
X112629249Y-105217533D01*
X112638607Y-105264584D01*
X112643066Y-105287001D01*
X112699316Y-105371184D01*
X112783499Y-105427434D01*
X112793062Y-105429336D01*
X112793064Y-105429337D01*
X112823981Y-105435486D01*
X112857733Y-105442200D01*
X113207727Y-105442200D01*
X113557866Y-105442199D01*
X113562632Y-105441251D01*
X113562633Y-105441251D01*
X113622538Y-105429336D01*
X113632101Y-105427434D01*
X113716284Y-105371184D01*
X113760486Y-105305033D01*
X113808535Y-105267154D01*
X113869673Y-105264752D01*
X113920547Y-105298745D01*
X113925112Y-105305029D01*
X113969316Y-105371184D01*
X114053499Y-105427434D01*
X114063062Y-105429336D01*
X114063064Y-105429337D01*
X114093981Y-105435486D01*
X114127733Y-105442200D01*
X114477727Y-105442200D01*
X114827866Y-105442199D01*
X114832632Y-105441251D01*
X114832633Y-105441251D01*
X114892538Y-105429336D01*
X114902101Y-105427434D01*
X114986284Y-105371184D01*
X115042534Y-105287001D01*
X115045039Y-105274410D01*
X115048027Y-105259386D01*
X115077924Y-105206002D01*
X115133489Y-105180386D01*
X115145125Y-105179700D01*
X115956385Y-105179700D01*
X116014576Y-105198607D01*
X116050540Y-105248107D01*
X116050540Y-105309293D01*
X116014576Y-105358793D01*
X115994270Y-105370164D01*
X115986062Y-105373564D01*
X115976499Y-105375466D01*
X115892316Y-105431716D01*
X115836066Y-105515899D01*
X115834164Y-105525462D01*
X115834163Y-105525464D01*
X115831287Y-105539923D01*
X115821300Y-105590133D01*
X115821301Y-107170266D01*
X115822249Y-107175031D01*
X115822249Y-107175033D01*
X115827885Y-107203368D01*
X115836066Y-107244501D01*
X115892316Y-107328684D01*
X115976499Y-107384934D01*
X115986062Y-107386836D01*
X115986064Y-107386837D01*
X116009428Y-107391484D01*
X116050733Y-107399700D01*
X116890627Y-107399700D01*
X117730866Y-107399699D01*
X117735632Y-107398751D01*
X117735633Y-107398751D01*
X117795538Y-107386836D01*
X117805101Y-107384934D01*
X117889284Y-107328684D01*
X117945534Y-107244501D01*
X117947809Y-107233067D01*
X117956671Y-107188512D01*
X117960300Y-107170267D01*
X117960299Y-106290770D01*
X117979206Y-106232580D01*
X118028706Y-106196616D01*
X118089892Y-106196616D01*
X118127383Y-106218899D01*
X118179374Y-106268150D01*
X118181293Y-106270018D01*
X118330061Y-106418785D01*
X118472345Y-106561069D01*
X118500763Y-106620381D01*
X118504636Y-106656036D01*
X118554107Y-106787999D01*
X118558337Y-106793643D01*
X118558338Y-106793645D01*
X118632880Y-106893107D01*
X118638626Y-106900774D01*
X118644274Y-106905007D01*
X118745755Y-106981062D01*
X118745757Y-106981063D01*
X118751401Y-106985293D01*
X118758007Y-106987770D01*
X118758008Y-106987770D01*
X118849005Y-107021883D01*
X118883364Y-107034764D01*
X118889536Y-107035434D01*
X118889538Y-107035435D01*
X118915481Y-107038253D01*
X118943530Y-107041300D01*
X119511670Y-107041300D01*
X119539719Y-107038253D01*
X119565662Y-107035435D01*
X119565664Y-107035434D01*
X119571836Y-107034764D01*
X119637627Y-107010100D01*
X119672379Y-107003800D01*
X120119767Y-107003800D01*
X120177958Y-107022707D01*
X120189771Y-107032796D01*
X121090930Y-107933954D01*
X121118707Y-107988471D01*
X121119578Y-107995668D01*
X121121963Y-108024066D01*
X121130245Y-108122684D01*
X121131806Y-108141278D01*
X121133139Y-108145926D01*
X121133139Y-108145927D01*
X121186643Y-108332518D01*
X121188807Y-108340066D01*
X121191022Y-108344376D01*
X121223463Y-108407499D01*
X121283334Y-108523995D01*
X121411786Y-108686061D01*
X121415466Y-108689193D01*
X121415468Y-108689195D01*
X121522527Y-108780309D01*
X121569271Y-108820091D01*
X121749789Y-108920980D01*
X121754387Y-108922474D01*
X121941861Y-108983388D01*
X121941863Y-108983389D01*
X121946466Y-108984884D01*
X122151809Y-109009370D01*
X122156631Y-109008999D01*
X122156633Y-109008999D01*
X122353170Y-108993876D01*
X122353175Y-108993875D01*
X122357998Y-108993504D01*
X122557178Y-108937892D01*
X122561491Y-108935713D01*
X122561497Y-108935711D01*
X122737442Y-108846835D01*
X122737444Y-108846833D01*
X122741763Y-108844652D01*
X122904722Y-108717334D01*
X123039848Y-108560789D01*
X123107586Y-108441549D01*
X123139606Y-108385185D01*
X123139607Y-108385182D01*
X123141995Y-108380979D01*
X123200472Y-108205190D01*
X123205743Y-108189344D01*
X123205743Y-108189342D01*
X123207270Y-108184753D01*
X123210838Y-108156515D01*
X123223569Y-108055737D01*
X123233189Y-107979586D01*
X123233602Y-107950000D01*
X123216044Y-107770928D01*
X123213894Y-107748999D01*
X123213893Y-107748995D01*
X123213422Y-107744189D01*
X123205849Y-107719104D01*
X123176257Y-107621093D01*
X123153651Y-107546217D01*
X123098284Y-107442087D01*
X123058838Y-107367899D01*
X123058836Y-107367895D01*
X123056565Y-107363625D01*
X123050833Y-107356596D01*
X122928924Y-107207121D01*
X122928923Y-107207120D01*
X122925863Y-107203368D01*
X122899544Y-107181595D01*
X122866759Y-107129934D01*
X122870601Y-107068870D01*
X122898353Y-107030034D01*
X122901406Y-107027427D01*
X122964114Y-106973869D01*
X122982466Y-106948330D01*
X123031774Y-106912107D01*
X123062861Y-106907100D01*
X123189753Y-106907100D01*
X123210591Y-106909318D01*
X123214676Y-106910198D01*
X123214679Y-106910198D01*
X123222676Y-106911920D01*
X123257604Y-106907786D01*
X123265769Y-106907305D01*
X123268246Y-106907100D01*
X123272324Y-106907100D01*
X123284397Y-106905090D01*
X123291982Y-106903828D01*
X123296601Y-106903170D01*
X123325198Y-106899785D01*
X123348141Y-106897070D01*
X123355023Y-106893765D01*
X123357892Y-106892858D01*
X123365426Y-106891604D01*
X123411104Y-106866958D01*
X123415254Y-106864843D01*
X123456415Y-106845078D01*
X123462032Y-106842381D01*
X123466308Y-106838786D01*
X123467809Y-106837285D01*
X123468654Y-106836510D01*
X123470642Y-106834832D01*
X123476614Y-106831610D01*
X123513547Y-106791656D01*
X123516240Y-106788854D01*
X124577496Y-105727598D01*
X124632013Y-105699821D01*
X124692445Y-105709392D01*
X124735710Y-105752657D01*
X124746500Y-105797602D01*
X124746500Y-106047070D01*
X124746789Y-106049729D01*
X124751337Y-106091592D01*
X124753036Y-106107236D01*
X124755216Y-106113051D01*
X124797123Y-106224836D01*
X124802507Y-106239199D01*
X124806737Y-106244843D01*
X124806738Y-106244845D01*
X124865825Y-106323685D01*
X124887026Y-106351974D01*
X124892674Y-106356207D01*
X124994155Y-106432262D01*
X124994157Y-106432263D01*
X124999801Y-106436493D01*
X125131764Y-106485964D01*
X125137936Y-106486634D01*
X125137938Y-106486635D01*
X125172556Y-106490395D01*
X125191930Y-106492500D01*
X125760070Y-106492500D01*
X125779444Y-106490395D01*
X125814062Y-106486635D01*
X125814064Y-106486634D01*
X125820236Y-106485964D01*
X125952199Y-106436493D01*
X125957843Y-106432263D01*
X125957845Y-106432262D01*
X126059326Y-106356207D01*
X126064974Y-106351974D01*
X126086175Y-106323685D01*
X126145262Y-106244845D01*
X126145263Y-106244843D01*
X126149493Y-106239199D01*
X126154878Y-106224836D01*
X126196784Y-106113051D01*
X126198964Y-106107236D01*
X126200664Y-106091592D01*
X126205211Y-106049729D01*
X126205500Y-106047070D01*
X126205500Y-105353930D01*
X126198964Y-105293764D01*
X126149493Y-105161801D01*
X126145146Y-105156000D01*
X126069207Y-105054674D01*
X126064974Y-105049026D01*
X126059326Y-105044793D01*
X125957845Y-104968738D01*
X125957843Y-104968737D01*
X125952199Y-104964507D01*
X125888196Y-104940513D01*
X125826051Y-104917216D01*
X125820236Y-104915036D01*
X125814064Y-104914366D01*
X125814062Y-104914365D01*
X125779444Y-104910605D01*
X125760070Y-104908500D01*
X125635602Y-104908500D01*
X125577411Y-104889593D01*
X125541447Y-104840093D01*
X125541447Y-104778907D01*
X125565598Y-104739496D01*
X125695554Y-104609540D01*
X125711855Y-104596377D01*
X125722240Y-104589671D01*
X125744012Y-104562053D01*
X125749448Y-104555935D01*
X125751051Y-104554043D01*
X125753938Y-104551156D01*
X125765527Y-104534939D01*
X125768327Y-104531209D01*
X125795392Y-104496877D01*
X125795393Y-104496876D01*
X125800456Y-104490453D01*
X125802983Y-104483256D01*
X125804373Y-104480581D01*
X125808814Y-104474366D01*
X125823686Y-104424637D01*
X125825126Y-104420206D01*
X125840256Y-104377122D01*
X125840257Y-104377119D01*
X125842318Y-104371249D01*
X125842800Y-104365684D01*
X125842800Y-104363541D01*
X125842848Y-104362427D01*
X125843068Y-104359826D01*
X125845013Y-104353322D01*
X125843609Y-104317574D01*
X125842876Y-104298930D01*
X125842800Y-104295043D01*
X125842800Y-103609885D01*
X125861707Y-103551694D01*
X125911207Y-103515730D01*
X125972393Y-103515730D01*
X125997353Y-103531025D01*
X125998516Y-103529284D01*
X126082699Y-103585534D01*
X126092262Y-103587436D01*
X126092264Y-103587437D01*
X126112340Y-103591430D01*
X126156933Y-103600300D01*
X127081809Y-103600300D01*
X128007066Y-103600299D01*
X128011832Y-103599351D01*
X128011833Y-103599351D01*
X128071738Y-103587436D01*
X128081301Y-103585534D01*
X128165484Y-103529284D01*
X128221734Y-103445101D01*
X128224051Y-103433456D01*
X128233047Y-103388226D01*
X128236500Y-103370867D01*
X128236499Y-101220734D01*
X128221734Y-101146499D01*
X128165484Y-101062316D01*
X128081301Y-101006066D01*
X128071738Y-101004164D01*
X128071736Y-101004163D01*
X128040819Y-100998014D01*
X128007067Y-100991300D01*
X127082191Y-100991300D01*
X126156934Y-100991301D01*
X126152168Y-100992249D01*
X126152167Y-100992249D01*
X126110367Y-101000563D01*
X126082699Y-101006066D01*
X125998516Y-101062316D01*
X125942266Y-101146499D01*
X125927500Y-101220733D01*
X125927500Y-101508500D01*
X125908593Y-101566691D01*
X125859093Y-101602655D01*
X125828500Y-101607500D01*
X122951994Y-101607500D01*
X122893803Y-101588593D01*
X122888889Y-101584781D01*
X122858653Y-101559767D01*
X122810249Y-101519724D01*
X122770249Y-101486633D01*
X122770247Y-101486632D01*
X122766522Y-101483550D01*
X122625959Y-101407548D01*
X122588866Y-101387492D01*
X122588865Y-101387492D01*
X122584612Y-101385192D01*
X122493048Y-101356848D01*
X122391684Y-101325470D01*
X122391680Y-101325469D01*
X122387063Y-101324040D01*
X122382256Y-101323535D01*
X122382252Y-101323534D01*
X122186213Y-101302930D01*
X122186211Y-101302930D01*
X122181397Y-101302424D01*
X122120925Y-101307927D01*
X121980269Y-101320727D01*
X121980264Y-101320728D01*
X121975450Y-101321166D01*
X121915651Y-101338766D01*
X121781713Y-101378186D01*
X121781710Y-101378187D01*
X121777066Y-101379554D01*
X121593801Y-101475363D01*
X121432635Y-101604943D01*
X121429528Y-101608646D01*
X121302817Y-101759654D01*
X121302814Y-101759658D01*
X121299708Y-101763360D01*
X121200082Y-101944578D01*
X121137553Y-102141696D01*
X121130311Y-102206258D01*
X121117604Y-102319546D01*
X121114501Y-102347206D01*
X121114906Y-102352026D01*
X121129499Y-102525801D01*
X121131806Y-102553278D01*
X121133139Y-102557926D01*
X121133139Y-102557927D01*
X121185602Y-102740888D01*
X121188807Y-102752066D01*
X121191022Y-102756376D01*
X121231172Y-102834500D01*
X121283334Y-102935995D01*
X121286342Y-102939790D01*
X121329313Y-102994006D01*
X121350640Y-103051354D01*
X121334186Y-103110286D01*
X121286236Y-103148291D01*
X121251727Y-103154500D01*
X120670709Y-103154500D01*
X120657787Y-103153653D01*
X120631034Y-103150131D01*
X120624600Y-103149284D01*
X120618166Y-103150131D01*
X120473227Y-103169212D01*
X120473226Y-103169212D01*
X120466794Y-103170059D01*
X120416440Y-103190917D01*
X120319742Y-103230970D01*
X120193466Y-103327866D01*
X120189515Y-103333015D01*
X120189512Y-103333018D01*
X120182682Y-103341919D01*
X120132258Y-103376575D01*
X120071093Y-103374974D01*
X120034136Y-103351656D01*
X120004532Y-103322052D01*
X119994800Y-103310727D01*
X119984228Y-103296361D01*
X119984227Y-103296360D01*
X119980819Y-103291729D01*
X119976437Y-103288007D01*
X119976435Y-103288004D01*
X119939953Y-103257011D01*
X119934047Y-103251567D01*
X119927618Y-103245138D01*
X119917599Y-103237211D01*
X119905095Y-103227319D01*
X119902422Y-103225127D01*
X119884913Y-103210252D01*
X119846736Y-103177818D01*
X119841614Y-103175203D01*
X119836826Y-103172009D01*
X119836892Y-103171910D01*
X119833888Y-103169981D01*
X119833825Y-103170083D01*
X119828935Y-103167063D01*
X119824423Y-103163493D01*
X119758210Y-103132547D01*
X119755119Y-103131035D01*
X119695168Y-103100423D01*
X119695165Y-103100422D01*
X119690044Y-103097807D01*
X119684461Y-103096441D01*
X119679068Y-103094435D01*
X119679109Y-103094325D01*
X119675737Y-103093137D01*
X119675700Y-103093249D01*
X119670244Y-103091434D01*
X119665034Y-103088999D01*
X119659407Y-103087829D01*
X119659405Y-103087828D01*
X119616711Y-103078948D01*
X119593480Y-103074117D01*
X119590145Y-103073362D01*
X119519148Y-103055989D01*
X119514750Y-103055716D01*
X119514749Y-103055716D01*
X119508042Y-103055300D01*
X119508056Y-103055082D01*
X119504164Y-103054622D01*
X119504143Y-103054854D01*
X119498409Y-103054342D01*
X119492783Y-103053172D01*
X119487041Y-103053327D01*
X119487037Y-103053327D01*
X119415471Y-103055264D01*
X119412793Y-103055300D01*
X119227922Y-103055300D01*
X119213032Y-103054174D01*
X119195399Y-103051491D01*
X119195396Y-103051491D01*
X119189711Y-103050626D01*
X119137733Y-103054854D01*
X119136258Y-103054974D01*
X119128232Y-103055300D01*
X119119147Y-103055300D01*
X119090614Y-103058627D01*
X119087177Y-103058967D01*
X119014352Y-103064890D01*
X119008885Y-103066661D01*
X119003239Y-103067789D01*
X119003216Y-103067674D01*
X118999730Y-103068434D01*
X118999757Y-103068549D01*
X118994163Y-103069871D01*
X118988446Y-103070538D01*
X118919746Y-103095475D01*
X118916491Y-103096593D01*
X118882259Y-103107682D01*
X118851750Y-103112500D01*
X118267408Y-103112501D01*
X118080934Y-103112501D01*
X118076168Y-103113449D01*
X118076167Y-103113449D01*
X118029116Y-103122807D01*
X118006699Y-103127266D01*
X117922516Y-103183516D01*
X117921523Y-103185002D01*
X117871487Y-103210496D01*
X117811055Y-103200925D01*
X117791740Y-103186892D01*
X117789484Y-103183516D01*
X117705301Y-103127266D01*
X117695738Y-103125364D01*
X117695736Y-103125363D01*
X117651176Y-103116500D01*
X117631067Y-103112500D01*
X117316400Y-103112500D01*
X117258209Y-103093593D01*
X117222245Y-103044093D01*
X117217400Y-103013500D01*
X117217400Y-102773869D01*
X117237179Y-102714498D01*
X117243241Y-102706409D01*
X117243243Y-102706406D01*
X117247471Y-102700764D01*
X117250682Y-102692200D01*
X117256487Y-102676713D01*
X117298198Y-102565448D01*
X117304900Y-102503756D01*
X117304900Y-101458244D01*
X117298198Y-101396552D01*
X117247471Y-101261236D01*
X117160804Y-101145596D01*
X117045164Y-101058929D01*
X116909848Y-101008202D01*
X116848156Y-101001500D01*
X116077644Y-101001500D01*
X116015952Y-101008202D01*
X115880636Y-101058929D01*
X115764996Y-101145596D01*
X115760763Y-101151244D01*
X115760762Y-101151245D01*
X115734060Y-101186873D01*
X115684032Y-101222098D01*
X115654840Y-101226500D01*
X115416997Y-101226500D01*
X115358806Y-101207593D01*
X115337776Y-101186872D01*
X115293837Y-101128244D01*
X115289604Y-101122596D01*
X115173964Y-101035929D01*
X115038648Y-100985202D01*
X114976956Y-100978500D01*
X114081444Y-100978500D01*
X114019752Y-100985202D01*
X113884436Y-101035929D01*
X113768796Y-101122596D01*
X113682129Y-101238236D01*
X113631402Y-101373552D01*
X113624700Y-101435244D01*
X113624700Y-102319546D01*
X113605793Y-102377737D01*
X113556293Y-102413701D01*
X113495107Y-102413701D01*
X113455696Y-102389550D01*
X112686398Y-101620252D01*
X112676666Y-101608927D01*
X112666094Y-101594561D01*
X112666093Y-101594560D01*
X112662685Y-101589929D01*
X112658303Y-101586207D01*
X112658301Y-101586204D01*
X112621819Y-101555211D01*
X112615913Y-101549767D01*
X112609484Y-101543338D01*
X112606863Y-101541264D01*
X112586961Y-101525519D01*
X112584288Y-101523327D01*
X112580047Y-101519724D01*
X112528602Y-101476018D01*
X112523480Y-101473403D01*
X112518692Y-101470209D01*
X112518758Y-101470110D01*
X112515754Y-101468181D01*
X112515691Y-101468283D01*
X112510801Y-101465263D01*
X112506289Y-101461693D01*
X112440076Y-101430747D01*
X112436985Y-101429235D01*
X112377040Y-101398625D01*
X112377029Y-101398621D01*
X112371910Y-101396007D01*
X112370797Y-101395735D01*
X112324199Y-101358802D01*
X112313957Y-101338766D01*
X112307360Y-101321166D01*
X112276271Y-101238236D01*
X112189604Y-101122596D01*
X112073964Y-101035929D01*
X111938648Y-100985202D01*
X111876956Y-100978500D01*
X110981444Y-100978500D01*
X110919752Y-100985202D01*
X110784436Y-101035929D01*
X110668796Y-101122596D01*
X110582129Y-101238236D01*
X110531402Y-101373552D01*
X110524700Y-101435244D01*
X110524700Y-102780756D01*
X110531402Y-102842448D01*
X110582129Y-102977764D01*
X110668796Y-103093404D01*
X110784436Y-103180071D01*
X110791038Y-103182546D01*
X110881612Y-103216500D01*
X110929463Y-103254630D01*
X110945763Y-103313604D01*
X110924286Y-103370896D01*
X110873235Y-103404622D01*
X110846861Y-103408200D01*
X110337082Y-103408201D01*
X110317734Y-103408201D01*
X110312968Y-103409149D01*
X110312967Y-103409149D01*
X110265916Y-103418507D01*
X110243499Y-103422966D01*
X110159316Y-103479216D01*
X110103066Y-103563399D01*
X110101164Y-103572962D01*
X110101163Y-103572964D01*
X110095726Y-103600299D01*
X110088300Y-103637633D01*
X109716900Y-103637633D01*
X109716900Y-103344444D01*
X109710198Y-103282752D01*
X109659471Y-103147436D01*
X109572804Y-103031796D01*
X109457164Y-102945129D01*
X109321848Y-102894402D01*
X109260156Y-102887700D01*
X108214644Y-102887700D01*
X108152952Y-102894402D01*
X108017636Y-102945129D01*
X108011994Y-102949357D01*
X108011991Y-102949359D01*
X108003902Y-102955421D01*
X107944531Y-102975200D01*
X107622496Y-102975200D01*
X107564305Y-102956293D01*
X107528341Y-102906793D01*
X107525398Y-102895511D01*
X107525178Y-102894402D01*
X107514934Y-102842899D01*
X107458684Y-102758716D01*
X107457198Y-102757723D01*
X107431704Y-102707687D01*
X107441275Y-102647255D01*
X107455308Y-102627940D01*
X107458684Y-102625684D01*
X107514934Y-102541501D01*
X107529700Y-102467267D01*
X107529699Y-101217134D01*
X107514934Y-101142899D01*
X107458684Y-101058716D01*
X107374501Y-101002466D01*
X107364938Y-101000564D01*
X107364936Y-101000563D01*
X107323131Y-100992248D01*
X107300267Y-100987700D01*
X106375391Y-100987700D01*
X105450134Y-100987701D01*
X105445368Y-100988649D01*
X105445367Y-100988649D01*
X105398316Y-100998007D01*
X105375899Y-101002466D01*
X105291716Y-101058716D01*
X105235466Y-101142899D01*
X105233564Y-101152462D01*
X105233563Y-101152464D01*
X105232847Y-101156064D01*
X105220700Y-101217133D01*
X105220701Y-102467266D01*
X105235466Y-102541501D01*
X105291716Y-102625684D01*
X105293202Y-102626677D01*
X105318696Y-102676713D01*
X105309125Y-102737145D01*
X105295092Y-102756460D01*
X105291716Y-102758716D01*
X105235466Y-102842899D01*
X105233564Y-102852462D01*
X105233564Y-102852463D01*
X105220700Y-102917133D01*
X103747464Y-102917133D01*
X103671463Y-102817006D01*
X103667377Y-102811623D01*
X103657212Y-102803907D01*
X103551742Y-102723851D01*
X103551740Y-102723850D01*
X103546365Y-102719770D01*
X103405110Y-102663844D01*
X103314677Y-102652900D01*
X103292689Y-102652900D01*
X102718778Y-102652901D01*
X102660587Y-102633994D01*
X102624623Y-102584494D01*
X102624623Y-102523308D01*
X102648774Y-102483897D01*
X104960685Y-100171985D01*
X105015202Y-100144208D01*
X105030689Y-100142989D01*
X132275477Y-100142989D01*
X132333668Y-100161896D01*
X132369632Y-100211396D01*
X132368177Y-100276740D01*
X132354602Y-100312952D01*
X132347900Y-100374644D01*
X132347900Y-101295156D01*
X132354602Y-101356848D01*
X132373609Y-101407550D01*
X132376332Y-101468673D01*
X132342606Y-101519724D01*
X132280909Y-101541300D01*
X132235499Y-101541300D01*
X132177308Y-101522393D01*
X132141344Y-101472893D01*
X132136499Y-101442300D01*
X132136499Y-101220734D01*
X132121734Y-101146499D01*
X132065484Y-101062316D01*
X131981301Y-101006066D01*
X131971738Y-101004164D01*
X131971736Y-101004163D01*
X131940819Y-100998014D01*
X131907067Y-100991300D01*
X130982191Y-100991300D01*
X130056934Y-100991301D01*
X130052168Y-100992249D01*
X130052167Y-100992249D01*
X130010367Y-101000563D01*
X129982699Y-101006066D01*
X129898516Y-101062316D01*
X129842266Y-101146499D01*
X129827500Y-101220733D01*
X129827501Y-103370866D01*
X129842266Y-103445101D01*
X129898516Y-103529284D01*
X129982699Y-103585534D01*
X129992262Y-103587436D01*
X129992264Y-103587437D01*
X130012340Y-103591430D01*
X130056933Y-103600300D01*
X130981809Y-103600300D01*
X131907066Y-103600299D01*
X131911832Y-103599351D01*
X131911833Y-103599351D01*
X131971738Y-103587436D01*
X131981301Y-103585534D01*
X132065484Y-103529284D01*
X132121734Y-103445101D01*
X132124051Y-103433456D01*
X132133047Y-103388226D01*
X132136500Y-103370867D01*
X132136500Y-103149300D01*
X132155407Y-103091109D01*
X132204907Y-103055145D01*
X132235500Y-103050300D01*
X133668453Y-103050300D01*
X133677470Y-103051227D01*
X133677513Y-103050746D01*
X133683247Y-103051258D01*
X133688873Y-103052428D01*
X133694615Y-103052273D01*
X133694619Y-103052273D01*
X133766185Y-103050336D01*
X133768863Y-103050300D01*
X134703101Y-103050300D01*
X134761292Y-103069207D01*
X134797256Y-103118707D01*
X134802101Y-103149300D01*
X134802101Y-103730466D01*
X134803049Y-103735231D01*
X134803049Y-103735233D01*
X134805825Y-103749188D01*
X134816866Y-103804701D01*
X134873116Y-103888884D01*
X134957299Y-103945134D01*
X134966862Y-103947036D01*
X134966864Y-103947037D01*
X134997781Y-103953186D01*
X135031533Y-103959900D01*
X136131373Y-103959900D01*
X137231666Y-103959899D01*
X137236432Y-103958951D01*
X137236433Y-103958951D01*
X137296338Y-103947036D01*
X137305901Y-103945134D01*
X137390084Y-103888884D01*
X137446334Y-103804701D01*
X137461100Y-103730467D01*
X137461099Y-102080334D01*
X137446334Y-102006099D01*
X137390084Y-101921916D01*
X137305901Y-101865666D01*
X137296338Y-101863764D01*
X137296336Y-101863763D01*
X137265419Y-101857614D01*
X137231667Y-101850900D01*
X136185132Y-101850900D01*
X136126941Y-101831993D01*
X136115128Y-101821904D01*
X136101276Y-101808052D01*
X136091544Y-101796727D01*
X136080972Y-101782361D01*
X136080971Y-101782360D01*
X136077563Y-101777729D01*
X136073181Y-101774007D01*
X136073179Y-101774004D01*
X136036697Y-101743011D01*
X136030791Y-101737567D01*
X136024362Y-101731138D01*
X136001839Y-101713319D01*
X135999166Y-101711127D01*
X135949809Y-101669195D01*
X135943480Y-101663818D01*
X135938358Y-101661203D01*
X135933570Y-101658009D01*
X135933636Y-101657910D01*
X135930632Y-101655981D01*
X135930569Y-101656083D01*
X135925679Y-101653063D01*
X135921167Y-101649493D01*
X135854954Y-101618547D01*
X135851863Y-101617035D01*
X135791912Y-101586423D01*
X135791909Y-101586422D01*
X135786788Y-101583807D01*
X135781205Y-101582441D01*
X135775812Y-101580435D01*
X135775853Y-101580325D01*
X135772481Y-101579137D01*
X135772444Y-101579249D01*
X135766988Y-101577434D01*
X135761778Y-101574999D01*
X135756151Y-101573829D01*
X135756149Y-101573828D01*
X135713455Y-101564948D01*
X135690224Y-101560117D01*
X135686889Y-101559362D01*
X135615892Y-101541989D01*
X135611494Y-101541716D01*
X135611493Y-101541716D01*
X135604786Y-101541300D01*
X135604800Y-101541082D01*
X135600908Y-101540622D01*
X135600887Y-101540854D01*
X135595153Y-101540342D01*
X135589527Y-101539172D01*
X135583785Y-101539327D01*
X135583781Y-101539327D01*
X135512215Y-101541264D01*
X135509537Y-101541300D01*
X134723891Y-101541300D01*
X134665700Y-101522393D01*
X134629736Y-101472893D01*
X134631191Y-101407550D01*
X134650198Y-101356848D01*
X134656900Y-101295156D01*
X134656900Y-100374644D01*
X134650198Y-100312952D01*
X134636623Y-100276740D01*
X134633901Y-100215615D01*
X134667627Y-100164564D01*
X134729323Y-100142989D01*
X142387121Y-100142989D01*
X142445312Y-100161896D01*
X142481276Y-100211396D01*
X142481276Y-100272582D01*
X142458994Y-100310071D01*
X142443532Y-100326393D01*
X142441702Y-100328274D01*
X140948071Y-101821905D01*
X140893554Y-101849682D01*
X140878067Y-101850901D01*
X139831534Y-101850901D01*
X139826768Y-101851849D01*
X139826767Y-101851849D01*
X139797179Y-101857734D01*
X139757299Y-101865666D01*
X139673116Y-101921916D01*
X139616866Y-102006099D01*
X139602100Y-102080333D01*
X139602101Y-102622196D01*
X139602101Y-103126867D01*
X139583194Y-103185058D01*
X139573105Y-103196871D01*
X139346252Y-103423724D01*
X139334927Y-103433456D01*
X139315929Y-103447437D01*
X139312207Y-103451819D01*
X139312204Y-103451821D01*
X139281211Y-103488303D01*
X139275767Y-103494209D01*
X139269338Y-103500638D01*
X139267559Y-103502887D01*
X139267556Y-103502890D01*
X139251519Y-103523161D01*
X139249327Y-103525834D01*
X139202018Y-103581520D01*
X139199403Y-103586642D01*
X139196209Y-103591430D01*
X139196110Y-103591364D01*
X139194181Y-103594368D01*
X139194283Y-103594431D01*
X139191263Y-103599321D01*
X139187693Y-103603833D01*
X139158706Y-103665855D01*
X139156753Y-103670033D01*
X139155235Y-103673137D01*
X139124623Y-103733088D01*
X139122007Y-103738212D01*
X139120641Y-103743795D01*
X139118635Y-103749188D01*
X139118525Y-103749147D01*
X139117337Y-103752519D01*
X139117449Y-103752556D01*
X139115634Y-103758012D01*
X139113199Y-103763222D01*
X139112029Y-103768849D01*
X139112028Y-103768851D01*
X139098318Y-103834769D01*
X139097562Y-103838111D01*
X139080189Y-103909108D01*
X139079500Y-103920214D01*
X139079282Y-103920200D01*
X139078822Y-103924092D01*
X139079054Y-103924113D01*
X139078542Y-103929847D01*
X139077372Y-103935473D01*
X139077527Y-103941215D01*
X139077527Y-103941219D01*
X139079464Y-104012785D01*
X139079500Y-104015463D01*
X139079500Y-107325937D01*
X139062815Y-107380938D01*
X139044266Y-107408699D01*
X139042364Y-107418262D01*
X139042363Y-107418264D01*
X139040705Y-107426600D01*
X139029500Y-107482933D01*
X139029501Y-108183066D01*
X139030449Y-108187831D01*
X139030449Y-108187833D01*
X139036124Y-108216363D01*
X139044266Y-108257301D01*
X139100516Y-108341484D01*
X139184699Y-108397734D01*
X139194262Y-108399636D01*
X139194264Y-108399637D01*
X139225181Y-108405786D01*
X139258933Y-108412500D01*
X139309149Y-108412500D01*
X139367340Y-108431407D01*
X139371359Y-108434747D01*
X139374789Y-108437313D01*
X139378960Y-108441264D01*
X139448703Y-108481774D01*
X139523449Y-108525190D01*
X139531096Y-108529632D01*
X139576225Y-108543300D01*
X139693974Y-108578963D01*
X139693979Y-108578964D01*
X139699480Y-108580630D01*
X139816391Y-108587883D01*
X139869340Y-108591168D01*
X139869341Y-108591168D01*
X139875080Y-108591524D01*
X140048477Y-108561729D01*
X140078103Y-108549123D01*
X140205078Y-108495095D01*
X140205079Y-108495095D01*
X140210368Y-108492844D01*
X140293368Y-108431763D01*
X140352047Y-108412499D01*
X140409066Y-108412499D01*
X140413832Y-108411551D01*
X140413833Y-108411551D01*
X140473738Y-108399636D01*
X140483301Y-108397734D01*
X140567484Y-108341484D01*
X140623734Y-108257301D01*
X140627241Y-108239674D01*
X140634247Y-108204448D01*
X140638500Y-108183067D01*
X140638500Y-107889953D01*
X140657407Y-107831762D01*
X140706907Y-107795798D01*
X140768093Y-107795798D01*
X140816720Y-107830580D01*
X140873996Y-107907004D01*
X140989636Y-107993671D01*
X141124952Y-108044398D01*
X141186644Y-108051100D01*
X141458720Y-108051100D01*
X141516911Y-108070007D01*
X141547964Y-108107246D01*
X141569619Y-108152343D01*
X141573214Y-108156619D01*
X141574715Y-108158120D01*
X141575490Y-108158965D01*
X141577168Y-108160953D01*
X141580390Y-108166925D01*
X141604643Y-108189344D01*
X141620343Y-108203857D01*
X141623146Y-108206551D01*
X142745904Y-109329309D01*
X142773681Y-109383826D01*
X142774900Y-109399313D01*
X142774900Y-110665891D01*
X142755993Y-110724082D01*
X142745904Y-110735895D01*
X142501295Y-110980504D01*
X142446778Y-111008281D01*
X142431291Y-111009500D01*
X140753727Y-111009500D01*
X140695536Y-110990593D01*
X140659572Y-110941093D01*
X140661027Y-110875748D01*
X140674784Y-110839051D01*
X140676964Y-110833236D01*
X140677748Y-110826025D01*
X140682263Y-110784458D01*
X140683500Y-110773070D01*
X140683500Y-110179930D01*
X140681077Y-110157625D01*
X140677635Y-110125938D01*
X140677634Y-110125932D01*
X140676964Y-110119764D01*
X140639267Y-110019209D01*
X140629970Y-109994408D01*
X140629970Y-109994407D01*
X140627493Y-109987801D01*
X140621520Y-109979830D01*
X140547207Y-109880674D01*
X140542974Y-109875026D01*
X140527260Y-109863249D01*
X140435845Y-109794738D01*
X140435843Y-109794737D01*
X140430199Y-109790507D01*
X140298236Y-109741036D01*
X140292064Y-109740366D01*
X140292062Y-109740365D01*
X140252200Y-109736035D01*
X140238070Y-109734500D01*
X140133902Y-109734500D01*
X140075711Y-109715593D01*
X140063898Y-109705504D01*
X138909140Y-108550746D01*
X138895977Y-108534445D01*
X138889271Y-108524060D01*
X138861653Y-108502288D01*
X138855535Y-108496852D01*
X138853643Y-108495249D01*
X138850756Y-108492362D01*
X138834539Y-108480773D01*
X138830809Y-108477973D01*
X138796477Y-108450908D01*
X138796476Y-108450907D01*
X138790053Y-108445844D01*
X138782856Y-108443317D01*
X138780181Y-108441927D01*
X138773966Y-108437486D01*
X138724237Y-108422614D01*
X138719806Y-108421174D01*
X138676722Y-108406044D01*
X138676719Y-108406043D01*
X138670849Y-108403982D01*
X138665284Y-108403500D01*
X138663141Y-108403500D01*
X138662027Y-108403452D01*
X138659426Y-108403232D01*
X138652922Y-108401287D01*
X138644746Y-108401608D01*
X138644744Y-108401608D01*
X138598530Y-108403424D01*
X138594643Y-108403500D01*
X138406382Y-108403500D01*
X138348191Y-108384593D01*
X138326377Y-108356933D01*
X138323734Y-108358699D01*
X138272903Y-108282626D01*
X138267484Y-108274516D01*
X138183301Y-108218266D01*
X138173738Y-108216364D01*
X138173736Y-108216363D01*
X138142819Y-108210214D01*
X138109067Y-108203500D01*
X138023923Y-108203500D01*
X137346203Y-108203501D01*
X137288012Y-108184594D01*
X137276199Y-108174505D01*
X136736808Y-107635114D01*
X136709031Y-107580596D01*
X136704346Y-107551012D01*
X136704346Y-107551011D01*
X136703127Y-107543316D01*
X136699691Y-107536572D01*
X136699692Y-107475500D01*
X136735657Y-107426000D01*
X136793848Y-107407094D01*
X136848848Y-107423779D01*
X136884699Y-107447734D01*
X136894262Y-107449636D01*
X136894264Y-107449637D01*
X136925181Y-107455786D01*
X136958933Y-107462500D01*
X137533881Y-107462500D01*
X138109066Y-107462499D01*
X138113832Y-107461551D01*
X138113833Y-107461551D01*
X138160884Y-107452193D01*
X138183301Y-107447734D01*
X138267484Y-107391484D01*
X138323734Y-107307301D01*
X138330626Y-107272655D01*
X138333441Y-107258500D01*
X138338500Y-107233067D01*
X138338499Y-106532934D01*
X138323734Y-106458699D01*
X138267484Y-106374516D01*
X138183301Y-106318266D01*
X138173738Y-106316364D01*
X138173736Y-106316363D01*
X138142819Y-106310214D01*
X138109067Y-106303500D01*
X138010888Y-106303500D01*
X137351203Y-106303501D01*
X137293012Y-106284594D01*
X137285107Y-106277842D01*
X137285064Y-106277893D01*
X137281942Y-106275248D01*
X137279056Y-106272362D01*
X137262839Y-106260773D01*
X137259109Y-106257973D01*
X137224777Y-106230908D01*
X137224776Y-106230907D01*
X137218353Y-106225844D01*
X137211156Y-106223317D01*
X137208481Y-106221927D01*
X137202266Y-106217486D01*
X137152537Y-106202614D01*
X137148106Y-106201174D01*
X137105022Y-106186044D01*
X137105019Y-106186043D01*
X137099149Y-106183982D01*
X137093584Y-106183500D01*
X137091441Y-106183500D01*
X137090327Y-106183452D01*
X137087726Y-106183232D01*
X137081222Y-106181287D01*
X137073046Y-106181608D01*
X137073044Y-106181608D01*
X137026830Y-106183424D01*
X137022943Y-106183500D01*
X136655741Y-106183500D01*
X136597550Y-106164593D01*
X136567531Y-106129445D01*
X136520054Y-106036265D01*
X136520053Y-106036263D01*
X136516518Y-106029326D01*
X136423674Y-105936482D01*
X136416737Y-105932947D01*
X136416735Y-105932946D01*
X136313624Y-105880409D01*
X136306684Y-105876873D01*
X136298990Y-105875654D01*
X136298989Y-105875654D01*
X136213469Y-105862109D01*
X136213467Y-105862109D01*
X136209623Y-105861500D01*
X135979530Y-105861500D01*
X135749378Y-105861501D01*
X135745535Y-105862110D01*
X135745530Y-105862110D01*
X135715761Y-105866825D01*
X135652316Y-105876873D01*
X135615945Y-105895405D01*
X135542265Y-105932946D01*
X135542263Y-105932947D01*
X135535326Y-105936482D01*
X135452004Y-106019804D01*
X135397487Y-106047581D01*
X135337055Y-106038010D01*
X135311996Y-106019804D01*
X135228674Y-105936482D01*
X135221737Y-105932947D01*
X135221735Y-105932946D01*
X135118624Y-105880409D01*
X135111684Y-105876873D01*
X135103990Y-105875654D01*
X135103989Y-105875654D01*
X135018469Y-105862109D01*
X135018467Y-105862109D01*
X135014623Y-105861500D01*
X134784530Y-105861500D01*
X134554378Y-105861501D01*
X134550535Y-105862110D01*
X134550530Y-105862110D01*
X134520761Y-105866825D01*
X134457316Y-105876873D01*
X134420945Y-105895405D01*
X134347265Y-105932946D01*
X134347263Y-105932947D01*
X134340326Y-105936482D01*
X134247482Y-106029326D01*
X134243947Y-106036263D01*
X134243946Y-106036265D01*
X134196894Y-106128611D01*
X134187873Y-106146316D01*
X134186654Y-106154010D01*
X134186654Y-106154011D01*
X134175277Y-106225844D01*
X134172500Y-106243377D01*
X134172501Y-106432262D01*
X134172501Y-106597297D01*
X134153594Y-106655488D01*
X134143505Y-106667301D01*
X133997226Y-106813580D01*
X133980925Y-106826743D01*
X133970540Y-106833449D01*
X133965476Y-106839873D01*
X133948768Y-106861067D01*
X133943332Y-106867185D01*
X133941729Y-106869077D01*
X133938842Y-106871964D01*
X133928485Y-106886457D01*
X133927253Y-106888181D01*
X133924453Y-106891911D01*
X133909324Y-106911103D01*
X133892324Y-106932667D01*
X133889797Y-106939864D01*
X133888407Y-106942539D01*
X133883966Y-106948754D01*
X133873097Y-106985099D01*
X133869095Y-106998479D01*
X133867654Y-107002914D01*
X133854276Y-107041011D01*
X133850462Y-107051871D01*
X133849980Y-107057436D01*
X133849980Y-107059579D01*
X133849932Y-107060693D01*
X133849712Y-107063294D01*
X133847767Y-107069798D01*
X133848088Y-107077974D01*
X133848088Y-107077976D01*
X133849904Y-107124190D01*
X133849980Y-107128077D01*
X133849980Y-107345500D01*
X133831073Y-107403691D01*
X133781573Y-107439655D01*
X133750980Y-107444500D01*
X133740500Y-107444500D01*
X133682309Y-107425593D01*
X133646345Y-107376093D01*
X133641500Y-107345500D01*
X133641500Y-106555505D01*
X133660407Y-106497314D01*
X133685169Y-106475521D01*
X133684399Y-106474493D01*
X133791526Y-106394207D01*
X133797174Y-106389974D01*
X133822481Y-106356207D01*
X133877462Y-106282845D01*
X133877463Y-106282843D01*
X133881693Y-106277199D01*
X133888362Y-106259411D01*
X133928984Y-106151051D01*
X133931164Y-106145236D01*
X133932880Y-106129445D01*
X133937411Y-106087729D01*
X133937700Y-106085070D01*
X133937700Y-105516930D01*
X133932061Y-105465021D01*
X133931835Y-105462938D01*
X133931834Y-105462936D01*
X133931164Y-105456764D01*
X133881693Y-105324801D01*
X133863060Y-105299938D01*
X133801407Y-105217674D01*
X133797174Y-105212026D01*
X133776899Y-105196831D01*
X133690045Y-105131738D01*
X133690043Y-105131737D01*
X133684399Y-105127507D01*
X133552436Y-105078036D01*
X133546264Y-105077366D01*
X133546262Y-105077365D01*
X133511644Y-105073605D01*
X133492270Y-105071500D01*
X132799130Y-105071500D01*
X132779756Y-105073605D01*
X132745138Y-105077365D01*
X132745136Y-105077366D01*
X132738964Y-105078036D01*
X132607001Y-105127507D01*
X132601357Y-105131737D01*
X132601355Y-105131738D01*
X132514501Y-105196831D01*
X132494226Y-105212026D01*
X132489993Y-105217674D01*
X132428341Y-105299938D01*
X132409707Y-105324801D01*
X132360236Y-105456764D01*
X132359566Y-105462936D01*
X132359565Y-105462938D01*
X132359339Y-105465021D01*
X132353700Y-105516930D01*
X132353700Y-106085070D01*
X132353989Y-106087729D01*
X132358521Y-106129445D01*
X132360236Y-106145236D01*
X132362416Y-106151051D01*
X132362417Y-106151054D01*
X132385245Y-106211949D01*
X132387967Y-106273073D01*
X132354242Y-106324124D01*
X132292545Y-106345700D01*
X129883299Y-106345700D01*
X129825108Y-106326793D01*
X129789144Y-106277293D01*
X129784299Y-106246700D01*
X129784299Y-106217978D01*
X129783345Y-106211949D01*
X129774168Y-106154011D01*
X129768927Y-106120916D01*
X129726685Y-106038010D01*
X129712854Y-106010865D01*
X129712853Y-106010863D01*
X129709318Y-106003926D01*
X129616474Y-105911082D01*
X129609537Y-105907547D01*
X129609535Y-105907546D01*
X129506424Y-105855009D01*
X129499484Y-105851473D01*
X129491790Y-105850254D01*
X129491789Y-105850254D01*
X129406269Y-105836709D01*
X129406267Y-105836709D01*
X129402423Y-105836100D01*
X129172330Y-105836100D01*
X128942178Y-105836101D01*
X128938335Y-105836710D01*
X128938330Y-105836710D01*
X128911320Y-105840988D01*
X128845116Y-105851473D01*
X128794429Y-105877299D01*
X128735065Y-105907546D01*
X128735063Y-105907547D01*
X128728126Y-105911082D01*
X128644804Y-105994404D01*
X128590287Y-106022181D01*
X128529855Y-106012610D01*
X128504796Y-105994404D01*
X128457360Y-105946968D01*
X128429583Y-105892451D01*
X128439154Y-105832019D01*
X128457360Y-105806960D01*
X128521822Y-105742498D01*
X128525662Y-105734963D01*
X128577176Y-105633860D01*
X128577176Y-105633859D01*
X128580712Y-105626920D01*
X128583193Y-105611260D01*
X128595291Y-105534872D01*
X128595291Y-105534870D01*
X128595900Y-105531026D01*
X128595900Y-105156574D01*
X128595291Y-105152728D01*
X128581931Y-105068375D01*
X128581931Y-105068374D01*
X128580712Y-105060680D01*
X128572617Y-105044793D01*
X128525358Y-104952041D01*
X128525357Y-104952039D01*
X128521822Y-104945102D01*
X128430098Y-104853378D01*
X128423161Y-104849843D01*
X128423159Y-104849842D01*
X128321460Y-104798024D01*
X128321459Y-104798024D01*
X128314520Y-104794488D01*
X128306826Y-104793269D01*
X128306825Y-104793269D01*
X128222472Y-104779909D01*
X128222470Y-104779909D01*
X128218626Y-104779300D01*
X127729174Y-104779300D01*
X127725330Y-104779909D01*
X127725328Y-104779909D01*
X127640975Y-104793269D01*
X127640974Y-104793269D01*
X127633280Y-104794488D01*
X127626341Y-104798024D01*
X127626340Y-104798024D01*
X127524641Y-104849842D01*
X127524639Y-104849843D01*
X127517702Y-104853378D01*
X127425978Y-104945102D01*
X127422443Y-104952039D01*
X127422442Y-104952041D01*
X127375183Y-105044793D01*
X127367088Y-105060680D01*
X127365869Y-105068374D01*
X127365869Y-105068375D01*
X127352509Y-105152728D01*
X127351900Y-105156574D01*
X127351900Y-105531026D01*
X127352509Y-105534870D01*
X127352509Y-105534872D01*
X127364608Y-105611260D01*
X127367088Y-105626920D01*
X127370624Y-105633859D01*
X127370624Y-105633860D01*
X127422139Y-105734963D01*
X127425978Y-105742498D01*
X127493840Y-105810360D01*
X127521617Y-105864877D01*
X127512046Y-105925309D01*
X127493840Y-105950368D01*
X127440282Y-106003926D01*
X127436747Y-106010863D01*
X127436746Y-106010865D01*
X127387643Y-106107236D01*
X127380673Y-106120916D01*
X127379454Y-106128610D01*
X127379454Y-106128611D01*
X127366778Y-106208646D01*
X127365300Y-106217977D01*
X127365301Y-106603222D01*
X127365910Y-106607065D01*
X127365910Y-106607070D01*
X127371945Y-106645171D01*
X127380673Y-106700284D01*
X127393615Y-106725684D01*
X127430981Y-106799019D01*
X127440282Y-106817274D01*
X127533126Y-106910118D01*
X127540065Y-106913653D01*
X127540071Y-106913658D01*
X127543747Y-106915531D01*
X127587011Y-106958796D01*
X127597800Y-107003739D01*
X127597800Y-107038253D01*
X127595582Y-107059090D01*
X127592980Y-107071176D01*
X127596891Y-107104218D01*
X127597114Y-107106102D01*
X127597595Y-107114269D01*
X127597800Y-107116746D01*
X127597800Y-107120824D01*
X127599810Y-107132897D01*
X127601072Y-107140482D01*
X127601730Y-107145101D01*
X127607830Y-107196641D01*
X127611135Y-107203523D01*
X127612042Y-107206392D01*
X127613296Y-107213926D01*
X127637676Y-107259110D01*
X127637939Y-107259597D01*
X127640053Y-107263747D01*
X127662519Y-107310532D01*
X127666114Y-107314808D01*
X127667615Y-107316309D01*
X127668390Y-107317154D01*
X127670068Y-107319142D01*
X127673290Y-107325114D01*
X127713243Y-107362046D01*
X127716046Y-107364740D01*
X127801395Y-107450089D01*
X127829172Y-107504606D01*
X127819601Y-107565038D01*
X127813706Y-107575095D01*
X127797266Y-107599699D01*
X127797073Y-107600669D01*
X127760929Y-107642988D01*
X127701434Y-107657271D01*
X127676399Y-107651983D01*
X127649525Y-107642545D01*
X127649519Y-107642544D01*
X127643648Y-107640482D01*
X127638083Y-107640000D01*
X127635940Y-107640000D01*
X127634826Y-107639952D01*
X127632225Y-107639732D01*
X127625721Y-107637787D01*
X127617545Y-107638108D01*
X127617543Y-107638108D01*
X127571329Y-107639924D01*
X127567442Y-107640000D01*
X127336168Y-107640000D01*
X127277977Y-107621093D01*
X127247960Y-107585946D01*
X127236422Y-107563302D01*
X127144698Y-107471578D01*
X127137761Y-107468043D01*
X127137759Y-107468042D01*
X127036060Y-107416224D01*
X127036059Y-107416224D01*
X127029120Y-107412688D01*
X127021426Y-107411469D01*
X127021425Y-107411469D01*
X126937072Y-107398109D01*
X126937070Y-107398109D01*
X126933226Y-107397500D01*
X126558774Y-107397500D01*
X126554930Y-107398109D01*
X126554928Y-107398109D01*
X126470575Y-107411469D01*
X126470574Y-107411469D01*
X126462880Y-107412688D01*
X126455941Y-107416224D01*
X126455940Y-107416224D01*
X126354241Y-107468042D01*
X126354239Y-107468043D01*
X126347302Y-107471578D01*
X126255578Y-107563302D01*
X126252043Y-107570239D01*
X126252042Y-107570241D01*
X126214976Y-107642988D01*
X126196688Y-107678880D01*
X126195469Y-107686574D01*
X126195469Y-107686575D01*
X126182109Y-107770928D01*
X126181500Y-107774774D01*
X126181500Y-108258900D01*
X126162593Y-108317091D01*
X126113093Y-108353055D01*
X126082500Y-108357900D01*
X126028676Y-108357900D01*
X126024652Y-108358570D01*
X126024649Y-108358570D01*
X125987286Y-108364789D01*
X125935574Y-108373396D01*
X125893865Y-108395901D01*
X125831587Y-108429504D01*
X125831585Y-108429506D01*
X125824386Y-108433390D01*
X125738626Y-108526165D01*
X125738023Y-108527529D01*
X125732089Y-108534818D01*
X123400039Y-110866868D01*
X123345522Y-110894645D01*
X123285090Y-110885074D01*
X123241825Y-110841809D01*
X123231815Y-110784460D01*
X123233189Y-110773586D01*
X123233291Y-110766318D01*
X123233453Y-110754683D01*
X123233602Y-110744000D01*
X123218739Y-110592415D01*
X123213894Y-110542999D01*
X123213893Y-110542995D01*
X123213422Y-110538189D01*
X123209047Y-110523696D01*
X123185822Y-110446774D01*
X123153651Y-110340217D01*
X123089769Y-110220073D01*
X123058838Y-110161899D01*
X123058836Y-110161895D01*
X123056565Y-110157625D01*
X123043540Y-110141654D01*
X122928924Y-110001121D01*
X122928923Y-110001120D01*
X122925863Y-109997368D01*
X122766522Y-109865550D01*
X122639569Y-109796907D01*
X122588866Y-109769492D01*
X122588865Y-109769492D01*
X122584612Y-109767192D01*
X122498827Y-109740637D01*
X122391684Y-109707470D01*
X122391680Y-109707469D01*
X122387063Y-109706040D01*
X122382256Y-109705535D01*
X122382252Y-109705534D01*
X122186213Y-109684930D01*
X122186211Y-109684930D01*
X122181397Y-109684424D01*
X122120925Y-109689927D01*
X121980269Y-109702727D01*
X121980264Y-109702728D01*
X121975450Y-109703166D01*
X121942309Y-109712920D01*
X121781713Y-109760186D01*
X121781710Y-109760187D01*
X121777066Y-109761554D01*
X121593801Y-109857363D01*
X121590032Y-109860393D01*
X121590031Y-109860394D01*
X121565332Y-109880252D01*
X121432635Y-109986943D01*
X121420738Y-110001121D01*
X121302817Y-110141654D01*
X121302814Y-110141658D01*
X121299708Y-110145360D01*
X121200082Y-110326578D01*
X121137553Y-110523696D01*
X121126749Y-110620016D01*
X121115076Y-110724082D01*
X121114501Y-110729206D01*
X121122719Y-110827062D01*
X121130818Y-110923507D01*
X121131806Y-110935278D01*
X121133139Y-110939926D01*
X121133139Y-110939927D01*
X121187264Y-111128684D01*
X121188807Y-111134066D01*
X121191022Y-111138376D01*
X121200801Y-111157404D01*
X121283334Y-111317995D01*
X121411786Y-111480061D01*
X121415466Y-111483193D01*
X121415468Y-111483195D01*
X121472109Y-111531400D01*
X121569271Y-111614091D01*
X121749789Y-111714980D01*
X121754387Y-111716474D01*
X121941861Y-111777388D01*
X121941863Y-111777389D01*
X121946466Y-111778884D01*
X122151809Y-111803370D01*
X122156631Y-111802999D01*
X122156632Y-111802999D01*
X122169122Y-111802038D01*
X122222163Y-111797956D01*
X122281631Y-111812343D01*
X122321287Y-111858937D01*
X122328159Y-111885798D01*
X122344913Y-112037553D01*
X122352264Y-112057641D01*
X122397301Y-112180713D01*
X122397303Y-112180717D01*
X122399353Y-112186319D01*
X122487708Y-112317805D01*
X122492119Y-112321819D01*
X122492121Y-112321821D01*
X122577646Y-112399642D01*
X122604876Y-112424419D01*
X122675283Y-112462647D01*
X122729154Y-112491897D01*
X122771271Y-112536280D01*
X122779257Y-112596942D01*
X122750062Y-112650712D01*
X122694837Y-112677053D01*
X122681915Y-112677900D01*
X116042489Y-112677900D01*
X115984298Y-112658993D01*
X115948334Y-112609493D01*
X115948334Y-112548307D01*
X115984298Y-112498807D01*
X116011979Y-112484719D01*
X116033150Y-112477861D01*
X116033152Y-112477860D01*
X116038622Y-112476088D01*
X116043537Y-112473106D01*
X116048768Y-112470711D01*
X116048817Y-112470819D01*
X116052037Y-112469276D01*
X116051984Y-112469171D01*
X116057130Y-112466594D01*
X116062534Y-112464632D01*
X116073631Y-112457357D01*
X116123636Y-112424572D01*
X116126558Y-112422728D01*
X116185267Y-112387102D01*
X116189033Y-112384817D01*
X116197374Y-112377451D01*
X116197519Y-112377615D01*
X116200596Y-112375188D01*
X116200446Y-112375009D01*
X116204859Y-112371319D01*
X116209668Y-112368166D01*
X116262832Y-112312045D01*
X116264699Y-112310126D01*
X116801742Y-111773083D01*
X117346129Y-111228695D01*
X117400646Y-111200918D01*
X117416133Y-111199699D01*
X117730866Y-111199699D01*
X117735632Y-111198751D01*
X117735633Y-111198751D01*
X117795538Y-111186836D01*
X117805101Y-111184934D01*
X117889284Y-111128684D01*
X117945534Y-111044501D01*
X117948240Y-111030900D01*
X117954411Y-110999872D01*
X117960300Y-110970267D01*
X117960299Y-109390134D01*
X117945534Y-109315899D01*
X117889284Y-109231716D01*
X117805101Y-109175466D01*
X117795538Y-109173564D01*
X117795536Y-109173563D01*
X117757371Y-109165972D01*
X117730867Y-109160700D01*
X116890973Y-109160700D01*
X116050734Y-109160701D01*
X116045968Y-109161649D01*
X116045967Y-109161649D01*
X116012855Y-109168235D01*
X115976499Y-109175466D01*
X115892316Y-109231716D01*
X115836066Y-109315899D01*
X115834164Y-109325462D01*
X115834163Y-109325464D01*
X115830811Y-109342317D01*
X115821300Y-109390133D01*
X115821301Y-110002847D01*
X115821301Y-110578467D01*
X115802394Y-110636658D01*
X115792305Y-110648471D01*
X115438872Y-111001904D01*
X115384355Y-111029681D01*
X115368868Y-111030900D01*
X112570732Y-111030900D01*
X112512541Y-111011993D01*
X112500728Y-111001904D01*
X112438805Y-110939981D01*
X112411028Y-110885464D01*
X112420599Y-110825032D01*
X112438512Y-110800377D01*
X112446284Y-110795184D01*
X112502534Y-110711001D01*
X112505270Y-110697250D01*
X112515211Y-110647267D01*
X112517300Y-110636767D01*
X112517300Y-110367235D01*
X112538661Y-110305809D01*
X112580538Y-110252879D01*
X112584107Y-110248368D01*
X112586541Y-110243161D01*
X112586543Y-110243157D01*
X112656165Y-110094189D01*
X112658600Y-110088979D01*
X112661180Y-110076575D01*
X112693258Y-109922355D01*
X112693258Y-109922352D01*
X112694428Y-109916728D01*
X112694268Y-109910796D01*
X112691127Y-109794738D01*
X112689669Y-109740854D01*
X112660817Y-109632038D01*
X112646052Y-109576349D01*
X112646050Y-109576344D01*
X112644578Y-109570792D01*
X112636195Y-109555124D01*
X112564285Y-109420733D01*
X112561574Y-109415666D01*
X112542095Y-109393611D01*
X112517747Y-109337481D01*
X112517299Y-109328077D01*
X112517299Y-109061634D01*
X112515066Y-109050404D01*
X112504436Y-108996962D01*
X112502534Y-108987399D01*
X112446284Y-108903216D01*
X112362101Y-108846966D01*
X112352538Y-108845064D01*
X112352536Y-108845063D01*
X112321619Y-108838914D01*
X112287867Y-108832200D01*
X111937873Y-108832200D01*
X111587734Y-108832201D01*
X111582968Y-108833149D01*
X111582967Y-108833149D01*
X111540116Y-108841672D01*
X111513499Y-108846966D01*
X111429316Y-108903216D01*
X111390509Y-108961295D01*
X111385115Y-108969367D01*
X111337065Y-109007246D01*
X111275927Y-109009648D01*
X111225053Y-108975655D01*
X111220485Y-108969367D01*
X111215092Y-108961295D01*
X111176284Y-108903216D01*
X111092101Y-108846966D01*
X111082538Y-108845064D01*
X111082536Y-108845063D01*
X111051619Y-108838914D01*
X111017867Y-108832200D01*
X110667873Y-108832200D01*
X110317734Y-108832201D01*
X110312968Y-108833149D01*
X110312967Y-108833149D01*
X110270116Y-108841672D01*
X110243499Y-108846966D01*
X110159316Y-108903216D01*
X110145628Y-108923702D01*
X110097580Y-108961581D01*
X110063313Y-108967700D01*
X108743899Y-108967700D01*
X108685708Y-108948793D01*
X108649744Y-108899293D01*
X108644899Y-108868700D01*
X108644899Y-108797134D01*
X108630134Y-108722899D01*
X108573884Y-108638716D01*
X108489701Y-108582466D01*
X108480138Y-108580564D01*
X108480136Y-108580563D01*
X108449219Y-108574414D01*
X108415467Y-108567700D01*
X107340622Y-108567700D01*
X106265334Y-108567701D01*
X106260568Y-108568649D01*
X106260567Y-108568649D01*
X106235801Y-108573575D01*
X106191099Y-108582466D01*
X106106916Y-108638716D01*
X106050666Y-108722899D01*
X106048764Y-108732462D01*
X106048763Y-108732464D01*
X106042614Y-108763381D01*
X106035900Y-108797133D01*
X106035901Y-110647266D01*
X106050666Y-110721501D01*
X106106916Y-110805684D01*
X106191099Y-110861934D01*
X106200662Y-110863836D01*
X106200664Y-110863837D01*
X106225647Y-110868806D01*
X106265333Y-110876700D01*
X107340178Y-110876700D01*
X108415466Y-110876699D01*
X108420232Y-110875751D01*
X108420233Y-110875751D01*
X108480138Y-110863836D01*
X108489701Y-110861934D01*
X108573884Y-110805684D01*
X108630134Y-110721501D01*
X108632185Y-110711194D01*
X108643952Y-110652031D01*
X108644900Y-110647267D01*
X108644900Y-110575700D01*
X108663807Y-110517509D01*
X108713307Y-110481545D01*
X108743900Y-110476700D01*
X109989301Y-110476700D01*
X110047492Y-110495607D01*
X110083456Y-110545107D01*
X110088301Y-110575700D01*
X110088301Y-110636766D01*
X110089249Y-110641531D01*
X110089249Y-110641533D01*
X110091923Y-110654977D01*
X110103066Y-110711001D01*
X110159316Y-110795184D01*
X110243499Y-110851434D01*
X110253062Y-110853336D01*
X110253064Y-110853337D01*
X110282149Y-110859122D01*
X110317733Y-110866200D01*
X110342775Y-110866200D01*
X110754101Y-110866199D01*
X110812291Y-110885106D01*
X110848255Y-110934606D01*
X110853100Y-110965199D01*
X110853100Y-111111078D01*
X110851974Y-111125965D01*
X110848426Y-111149289D01*
X110852626Y-111200918D01*
X110852774Y-111202742D01*
X110853100Y-111210768D01*
X110853100Y-111219853D01*
X110856430Y-111248416D01*
X110856765Y-111251808D01*
X110862690Y-111324647D01*
X110864463Y-111330119D01*
X110865590Y-111335761D01*
X110865474Y-111335784D01*
X110866234Y-111339270D01*
X110866349Y-111339243D01*
X110867672Y-111344839D01*
X110868338Y-111350554D01*
X110870301Y-111355962D01*
X110893280Y-111419268D01*
X110894402Y-111422537D01*
X110906991Y-111461396D01*
X110916912Y-111492022D01*
X110919894Y-111496937D01*
X110922289Y-111502168D01*
X110922181Y-111502217D01*
X110923724Y-111505437D01*
X110923829Y-111505384D01*
X110926406Y-111510530D01*
X110928368Y-111515934D01*
X110931521Y-111520744D01*
X110931522Y-111520745D01*
X110968428Y-111577036D01*
X110970272Y-111579958D01*
X111008183Y-111642433D01*
X111011099Y-111645735D01*
X111015549Y-111650774D01*
X111015385Y-111650919D01*
X111017810Y-111653993D01*
X111017989Y-111653843D01*
X111021678Y-111658254D01*
X111024834Y-111663068D01*
X111077141Y-111712619D01*
X111080935Y-111716213D01*
X111082855Y-111718080D01*
X111637927Y-112273152D01*
X111647659Y-112284477D01*
X111651292Y-112289414D01*
X111661637Y-112303471D01*
X111666019Y-112307194D01*
X111666023Y-112307198D01*
X111702503Y-112338190D01*
X111708409Y-112343634D01*
X111714838Y-112350063D01*
X111717086Y-112351842D01*
X111717091Y-112351846D01*
X111737354Y-112367877D01*
X111740022Y-112370064D01*
X111795720Y-112417382D01*
X111800840Y-112419996D01*
X111805627Y-112423189D01*
X111805561Y-112423288D01*
X111808568Y-112425219D01*
X111808631Y-112425117D01*
X111813521Y-112428137D01*
X111818033Y-112431707D01*
X111884246Y-112462653D01*
X111887337Y-112464165D01*
X111939361Y-112490730D01*
X111982588Y-112534032D01*
X111992107Y-112594473D01*
X111964281Y-112648965D01*
X111909740Y-112676695D01*
X111894339Y-112677900D01*
X104770979Y-112677900D01*
X104712788Y-112658993D01*
X104700975Y-112648904D01*
X104216296Y-112164225D01*
X104188519Y-112109708D01*
X104187300Y-112094221D01*
X104187300Y-111158837D01*
X104187302Y-111158233D01*
X104187729Y-111088279D01*
X104187772Y-111081227D01*
X104183531Y-111066387D01*
X104179222Y-111051309D01*
X104176411Y-111038140D01*
X104173001Y-111014330D01*
X104173001Y-111014329D01*
X104172001Y-111007348D01*
X104169083Y-111000930D01*
X104169082Y-111000927D01*
X104160659Y-110982403D01*
X104155594Y-110968638D01*
X104148061Y-110942279D01*
X104131458Y-110915965D01*
X104125069Y-110904125D01*
X104112188Y-110875795D01*
X104104643Y-110867038D01*
X104094300Y-110855035D01*
X104085572Y-110843240D01*
X104074710Y-110826025D01*
X104070947Y-110820061D01*
X104047626Y-110799465D01*
X104038162Y-110789885D01*
X104035744Y-110787078D01*
X104025830Y-110775572D01*
X104022460Y-110771661D01*
X104022459Y-110771660D01*
X104017856Y-110766318D01*
X104011939Y-110762483D01*
X104011937Y-110762481D01*
X103994861Y-110751413D01*
X103983177Y-110742544D01*
X103967919Y-110729069D01*
X103967914Y-110729066D01*
X103962630Y-110724399D01*
X103956250Y-110721403D01*
X103956246Y-110721401D01*
X103944835Y-110716044D01*
X103916904Y-110696433D01*
X103505096Y-110284625D01*
X103477319Y-110230108D01*
X103476100Y-110214621D01*
X103476100Y-110074930D01*
X103495007Y-110016739D01*
X103534484Y-109986118D01*
X103534208Y-109985628D01*
X103537524Y-109983760D01*
X103538654Y-109982883D01*
X103540086Y-109982316D01*
X103546365Y-109979830D01*
X103667377Y-109887977D01*
X103692317Y-109855120D01*
X103755149Y-109772342D01*
X103755150Y-109772340D01*
X103759230Y-109766965D01*
X103815156Y-109625710D01*
X103826100Y-109535277D01*
X103826099Y-108549124D01*
X103824323Y-108534442D01*
X103815920Y-108465004D01*
X103815156Y-108458690D01*
X103811284Y-108448909D01*
X103761714Y-108323709D01*
X103759230Y-108317435D01*
X103753771Y-108310242D01*
X103671463Y-108201806D01*
X103667377Y-108196423D01*
X103656060Y-108187833D01*
X103551742Y-108108651D01*
X103551740Y-108108650D01*
X103546365Y-108104570D01*
X103405110Y-108048644D01*
X103314677Y-108037700D01*
X102971658Y-108037700D01*
X102628524Y-108037701D01*
X102625558Y-108038060D01*
X102625556Y-108038060D01*
X102573179Y-108044398D01*
X102538090Y-108048644D01*
X102532178Y-108050985D01*
X102532177Y-108050985D01*
X102531887Y-108051100D01*
X102396835Y-108104570D01*
X102391462Y-108108648D01*
X102391459Y-108108650D01*
X102345656Y-108143417D01*
X102287874Y-108163539D01*
X102225944Y-108143417D01*
X102180141Y-108108650D01*
X102180138Y-108108648D01*
X102174765Y-108104570D01*
X102033510Y-108048644D01*
X101943077Y-108037700D01*
X101600058Y-108037700D01*
X101256924Y-108037701D01*
X101253958Y-108038060D01*
X101253956Y-108038060D01*
X101201579Y-108044398D01*
X101166490Y-108048644D01*
X101160578Y-108050985D01*
X101160577Y-108050985D01*
X101160287Y-108051100D01*
X101025235Y-108104570D01*
X101019860Y-108108650D01*
X101019858Y-108108651D01*
X100915540Y-108187833D01*
X100904223Y-108196423D01*
X100900137Y-108201806D01*
X100817830Y-108310242D01*
X100812370Y-108317435D01*
X100756444Y-108458690D01*
X100745500Y-108549123D01*
X100745501Y-109535276D01*
X100756444Y-109625710D01*
X100758785Y-109631622D01*
X100758785Y-109631623D01*
X100781068Y-109687903D01*
X100812370Y-109766965D01*
X100816450Y-109772340D01*
X100816451Y-109772342D01*
X100879283Y-109855120D01*
X100904223Y-109887977D01*
X100909606Y-109892063D01*
X101019855Y-109975746D01*
X101025235Y-109979830D01*
X101166490Y-110035756D01*
X101256923Y-110046700D01*
X101599942Y-110046700D01*
X101943076Y-110046699D01*
X101946042Y-110046340D01*
X101946044Y-110046340D01*
X102027196Y-110036520D01*
X102033510Y-110035756D01*
X102039426Y-110033414D01*
X102068545Y-110021885D01*
X102174765Y-109979830D01*
X102180138Y-109975752D01*
X102180141Y-109975750D01*
X102225944Y-109940983D01*
X102283726Y-109920861D01*
X102345656Y-109940983D01*
X102391456Y-109975748D01*
X102391458Y-109975749D01*
X102396835Y-109979830D01*
X102404238Y-109982761D01*
X102404546Y-109982883D01*
X102405454Y-109983634D01*
X102408989Y-109985626D01*
X102408631Y-109986262D01*
X102451690Y-110021885D01*
X102467100Y-110074930D01*
X102467100Y-110396992D01*
X102465668Y-110409813D01*
X102465676Y-110409814D01*
X102465110Y-110416846D01*
X102463554Y-110423724D01*
X102466910Y-110477820D01*
X102467100Y-110483950D01*
X102467100Y-110500826D01*
X102467600Y-110504315D01*
X102467600Y-110504319D01*
X102468719Y-110512129D01*
X102469529Y-110520032D01*
X102472502Y-110567959D01*
X102476042Y-110577766D01*
X102480922Y-110597340D01*
X102482399Y-110607652D01*
X102502271Y-110651360D01*
X102505263Y-110658709D01*
X102518882Y-110696433D01*
X102521572Y-110703884D01*
X102527717Y-110712296D01*
X102537899Y-110729719D01*
X102542212Y-110739205D01*
X102573569Y-110775596D01*
X102578488Y-110781792D01*
X102587073Y-110793544D01*
X102598649Y-110805120D01*
X102603644Y-110810500D01*
X102636544Y-110848682D01*
X102642464Y-110852519D01*
X102643880Y-110853437D01*
X102660036Y-110866508D01*
X103149303Y-111355774D01*
X103177081Y-111410291D01*
X103178300Y-111425778D01*
X103178300Y-112276592D01*
X103176868Y-112289413D01*
X103176876Y-112289414D01*
X103176310Y-112296446D01*
X103174754Y-112303324D01*
X103177254Y-112343626D01*
X103178110Y-112357420D01*
X103178300Y-112363550D01*
X103178300Y-112380426D01*
X103178800Y-112383915D01*
X103178800Y-112383919D01*
X103179919Y-112391729D01*
X103180730Y-112399642D01*
X103182754Y-112432270D01*
X103183702Y-112447559D01*
X103187242Y-112457366D01*
X103192122Y-112476940D01*
X103193599Y-112487252D01*
X103213471Y-112530960D01*
X103216463Y-112538309D01*
X103222524Y-112555098D01*
X103232772Y-112583484D01*
X103238917Y-112591896D01*
X103249099Y-112609319D01*
X103253412Y-112618805D01*
X103284769Y-112655196D01*
X103289688Y-112661392D01*
X103298273Y-112673144D01*
X103309856Y-112684727D01*
X103314851Y-112690108D01*
X103338093Y-112717081D01*
X103347744Y-112728282D01*
X103353664Y-112732119D01*
X103355080Y-112733037D01*
X103371237Y-112746108D01*
X104116459Y-113491330D01*
X104124512Y-113501410D01*
X104124519Y-113501404D01*
X104129090Y-113506774D01*
X104132853Y-113512739D01*
X104170317Y-113545826D01*
X104173476Y-113548616D01*
X104177945Y-113552816D01*
X104189880Y-113564751D01*
X104199024Y-113571604D01*
X104205173Y-113576610D01*
X104241170Y-113608401D01*
X104245656Y-113610507D01*
X104283309Y-113657508D01*
X104286190Y-113718625D01*
X104252596Y-113769764D01*
X104190699Y-113791500D01*
X100361500Y-113791500D01*
X100303309Y-113772593D01*
X100267345Y-113723093D01*
X100262500Y-113692500D01*
X100262500Y-99413500D01*
X100281407Y-99355309D01*
X100330907Y-99319345D01*
X100361500Y-99314500D01*
X104152221Y-99314500D01*
X104210412Y-99333407D01*
G37*
%TD.AperFunction*%
%TA.AperFunction,Conductor*%
G36*
X154712691Y-99333407D02*
G01*
X154748655Y-99382907D01*
X154753500Y-99413500D01*
X154753500Y-113692500D01*
X154734593Y-113750691D01*
X154685093Y-113786655D01*
X154654500Y-113791500D01*
X149593779Y-113791500D01*
X149535588Y-113772593D01*
X149499624Y-113723093D01*
X149499624Y-113661907D01*
X149523775Y-113622497D01*
X149991128Y-113155143D01*
X150001207Y-113147089D01*
X150001202Y-113147083D01*
X150006575Y-113142510D01*
X150012539Y-113138747D01*
X150048415Y-113098125D01*
X150052615Y-113093655D01*
X150064551Y-113081719D01*
X150071399Y-113072581D01*
X150076411Y-113066425D01*
X150108201Y-113030430D01*
X150112628Y-113021000D01*
X150123021Y-113003703D01*
X150125041Y-113001008D01*
X150129271Y-112995364D01*
X150146128Y-112950398D01*
X150149212Y-112943081D01*
X150166619Y-112906006D01*
X150166621Y-112905999D01*
X150169617Y-112899618D01*
X150171221Y-112889320D01*
X150176339Y-112869810D01*
X150179999Y-112860048D01*
X150183558Y-112812147D01*
X150184461Y-112804279D01*
X150186700Y-112789903D01*
X150186700Y-112773546D01*
X150186972Y-112766208D01*
X150187448Y-112759804D01*
X150210617Y-112703175D01*
X150245048Y-112678455D01*
X150244808Y-112678029D01*
X150248686Y-112675844D01*
X150249729Y-112675095D01*
X150249963Y-112675002D01*
X150256965Y-112672230D01*
X150263711Y-112667110D01*
X150372594Y-112584463D01*
X150377977Y-112580377D01*
X150401343Y-112549594D01*
X150465749Y-112464742D01*
X150465750Y-112464740D01*
X150469830Y-112459365D01*
X150525756Y-112318110D01*
X150536700Y-112227677D01*
X150536699Y-111241524D01*
X150534421Y-111222694D01*
X150526520Y-111157404D01*
X150525756Y-111151090D01*
X150519031Y-111134103D01*
X150472314Y-111016109D01*
X150469830Y-111009835D01*
X150463069Y-111000927D01*
X150382063Y-110894206D01*
X150377977Y-110888823D01*
X150369270Y-110882214D01*
X150262342Y-110801051D01*
X150262340Y-110801050D01*
X150256965Y-110796970D01*
X150115710Y-110741044D01*
X150025277Y-110730100D01*
X150012830Y-110730100D01*
X149562179Y-110730101D01*
X149503989Y-110711194D01*
X149468025Y-110661694D01*
X149465489Y-110609843D01*
X149466323Y-110606049D01*
X149468798Y-110599448D01*
X149470646Y-110574589D01*
X149472357Y-110551560D01*
X149473263Y-110543667D01*
X149473367Y-110542999D01*
X149475500Y-110529303D01*
X149475500Y-110512942D01*
X149475772Y-110505605D01*
X149478985Y-110462366D01*
X149479508Y-110455333D01*
X149477681Y-110446774D01*
X149475500Y-110426107D01*
X149475500Y-102232996D01*
X149476933Y-102220170D01*
X149476925Y-102220169D01*
X149477491Y-102213135D01*
X149479047Y-102206258D01*
X149478610Y-102199220D01*
X149479176Y-102192188D01*
X149481152Y-102192347D01*
X149494028Y-102142379D01*
X149541207Y-102103420D01*
X149577570Y-102096500D01*
X150034715Y-102096499D01*
X150050676Y-102096499D01*
X150053642Y-102096140D01*
X150053644Y-102096140D01*
X150134796Y-102086320D01*
X150141110Y-102085556D01*
X150147026Y-102083214D01*
X150276091Y-102032114D01*
X150282365Y-102029630D01*
X150300768Y-102015662D01*
X150397994Y-101941863D01*
X150403377Y-101937777D01*
X150415416Y-101921916D01*
X150491149Y-101822142D01*
X150491150Y-101822140D01*
X150495230Y-101816765D01*
X150551156Y-101675510D01*
X150562100Y-101585077D01*
X150562099Y-100598924D01*
X150551156Y-100508490D01*
X150495230Y-100367235D01*
X150445595Y-100301843D01*
X150425474Y-100244062D01*
X150443158Y-100185488D01*
X150491895Y-100148496D01*
X150524452Y-100142989D01*
X150747311Y-100142989D01*
X150805502Y-100161896D01*
X150817314Y-100171985D01*
X151053703Y-100408373D01*
X151081481Y-100462890D01*
X151082700Y-100478377D01*
X151082700Y-108187192D01*
X151081268Y-108200013D01*
X151081276Y-108200014D01*
X151080710Y-108207046D01*
X151079154Y-108213924D01*
X151081845Y-108257301D01*
X151082510Y-108268020D01*
X151082700Y-108274150D01*
X151082700Y-108291026D01*
X151083200Y-108294515D01*
X151083200Y-108294519D01*
X151084319Y-108302329D01*
X151085129Y-108310232D01*
X151086170Y-108327012D01*
X151087068Y-108341484D01*
X151088102Y-108358159D01*
X151091642Y-108367966D01*
X151096522Y-108387540D01*
X151097999Y-108397852D01*
X151117871Y-108441560D01*
X151120863Y-108448909D01*
X151132728Y-108481774D01*
X151137172Y-108494084D01*
X151143317Y-108502496D01*
X151153499Y-108519919D01*
X151157812Y-108529405D01*
X151189169Y-108565796D01*
X151194088Y-108571992D01*
X151202673Y-108583744D01*
X151214256Y-108595327D01*
X151219251Y-108600708D01*
X151247332Y-108633297D01*
X151252144Y-108638882D01*
X151258064Y-108642719D01*
X151259480Y-108643637D01*
X151275637Y-108656708D01*
X151589059Y-108970130D01*
X151597112Y-108980210D01*
X151597119Y-108980204D01*
X151601690Y-108985574D01*
X151605453Y-108991539D01*
X151623238Y-109007246D01*
X151646076Y-109027416D01*
X151650545Y-109031616D01*
X151662480Y-109043551D01*
X151671624Y-109050404D01*
X151677773Y-109055410D01*
X151713770Y-109087201D01*
X151723200Y-109091628D01*
X151740501Y-109102024D01*
X151748835Y-109108270D01*
X151763114Y-109113623D01*
X151793790Y-109125123D01*
X151801112Y-109128208D01*
X151821613Y-109137833D01*
X151844582Y-109148617D01*
X151851552Y-109149702D01*
X151851555Y-109149703D01*
X151854871Y-109150219D01*
X151874400Y-109155342D01*
X151877552Y-109156524D01*
X151877554Y-109156525D01*
X151884152Y-109158998D01*
X151932042Y-109162557D01*
X151939925Y-109163463D01*
X151942855Y-109163919D01*
X151950518Y-109165112D01*
X151950522Y-109165112D01*
X151954297Y-109165700D01*
X151970667Y-109165700D01*
X151978004Y-109165972D01*
X152028266Y-109169707D01*
X152035161Y-109168235D01*
X152035163Y-109168235D01*
X152036820Y-109167881D01*
X152057488Y-109165700D01*
X152891192Y-109165700D01*
X152904013Y-109167132D01*
X152904014Y-109167124D01*
X152911046Y-109167690D01*
X152917924Y-109169246D01*
X152972021Y-109165890D01*
X152978150Y-109165700D01*
X152995026Y-109165700D01*
X152998515Y-109165200D01*
X152998519Y-109165200D01*
X153006329Y-109164081D01*
X153014232Y-109163271D01*
X153038428Y-109161770D01*
X153055119Y-109160735D01*
X153055121Y-109160735D01*
X153062159Y-109160298D01*
X153071966Y-109156758D01*
X153091540Y-109151878D01*
X153094870Y-109151401D01*
X153101852Y-109150401D01*
X153145560Y-109130529D01*
X153152909Y-109127537D01*
X153191450Y-109113623D01*
X153198084Y-109111228D01*
X153206496Y-109105083D01*
X153223919Y-109094901D01*
X153233405Y-109090588D01*
X153269796Y-109059231D01*
X153275992Y-109054312D01*
X153287744Y-109045727D01*
X153299327Y-109034144D01*
X153304708Y-109029149D01*
X153337537Y-109000862D01*
X153337539Y-109000860D01*
X153342882Y-108996256D01*
X153344776Y-108993335D01*
X153395868Y-108962755D01*
X153419525Y-108960268D01*
X153484916Y-108961295D01*
X153490732Y-108959963D01*
X153633509Y-108927263D01*
X153633512Y-108927262D01*
X153639332Y-108925929D01*
X153653867Y-108918619D01*
X153775518Y-108857435D01*
X153780855Y-108854751D01*
X153901314Y-108751869D01*
X153979087Y-108643637D01*
X153990271Y-108628073D01*
X153990272Y-108628071D01*
X153993755Y-108623224D01*
X154002807Y-108600708D01*
X154050618Y-108481774D01*
X154050619Y-108481772D01*
X154052842Y-108476241D01*
X154054441Y-108465005D01*
X154074706Y-108322614D01*
X154074706Y-108322608D01*
X154075162Y-108319407D01*
X154075307Y-108305600D01*
X154062317Y-108198253D01*
X154056993Y-108154255D01*
X154056992Y-108154252D01*
X154056276Y-108148333D01*
X154048766Y-108128457D01*
X154002390Y-108005730D01*
X154000280Y-108000146D01*
X153939175Y-107911237D01*
X153913933Y-107874509D01*
X153913930Y-107874506D01*
X153910553Y-107869592D01*
X153822751Y-107791364D01*
X153796729Y-107768179D01*
X153796727Y-107768178D01*
X153792275Y-107764211D01*
X153787004Y-107761420D01*
X153657548Y-107692876D01*
X153657545Y-107692875D01*
X153652274Y-107690084D01*
X153569000Y-107669167D01*
X153504423Y-107652946D01*
X153504420Y-107652946D01*
X153498633Y-107651492D01*
X153418693Y-107651073D01*
X153346187Y-107650693D01*
X153346185Y-107650693D01*
X153340221Y-107650662D01*
X153186184Y-107687643D01*
X153125230Y-107719104D01*
X153050720Y-107757561D01*
X153050718Y-107757563D01*
X153045414Y-107760300D01*
X152926039Y-107864438D01*
X152834950Y-107994044D01*
X152832781Y-107999607D01*
X152832780Y-107999609D01*
X152796110Y-108093662D01*
X152757357Y-108141010D01*
X152703873Y-108156700D01*
X152243579Y-108156700D01*
X152185388Y-108137793D01*
X152173575Y-108127704D01*
X152120696Y-108074825D01*
X152092919Y-108020308D01*
X152091700Y-108004821D01*
X152091700Y-100296015D01*
X152093133Y-100283189D01*
X152093125Y-100283188D01*
X152093691Y-100276155D01*
X152095247Y-100269277D01*
X152091890Y-100215170D01*
X152091700Y-100209039D01*
X152091700Y-100192174D01*
X152090081Y-100180866D01*
X152089272Y-100172974D01*
X152088611Y-100162311D01*
X152086298Y-100125042D01*
X152082758Y-100115235D01*
X152077878Y-100095660D01*
X152077402Y-100092334D01*
X152077401Y-100092331D01*
X152076401Y-100085348D01*
X152073482Y-100078928D01*
X152073480Y-100078921D01*
X152056529Y-100041640D01*
X152053533Y-100034281D01*
X152039624Y-99995753D01*
X152037228Y-99989116D01*
X152031083Y-99980704D01*
X152020901Y-99963281D01*
X152016588Y-99953795D01*
X151985231Y-99917404D01*
X151980312Y-99911208D01*
X151971727Y-99899456D01*
X151960144Y-99887873D01*
X151955149Y-99882492D01*
X151926861Y-99849662D01*
X151926860Y-99849661D01*
X151922256Y-99844318D01*
X151914920Y-99839563D01*
X151898763Y-99826492D01*
X151555775Y-99483504D01*
X151527998Y-99428987D01*
X151537569Y-99368555D01*
X151580834Y-99325290D01*
X151625779Y-99314500D01*
X154654500Y-99314500D01*
X154712691Y-99333407D01*
G37*
%TD.AperFunction*%
%TA.AperFunction,Conductor*%
G36*
X147501139Y-100161896D02*
G01*
X147537103Y-100211396D01*
X147537103Y-100272582D01*
X147521806Y-100301842D01*
X147472170Y-100367235D01*
X147416244Y-100508490D01*
X147405300Y-100598923D01*
X147405301Y-101585076D01*
X147405660Y-101588042D01*
X147405660Y-101588044D01*
X147407428Y-101602655D01*
X147416244Y-101675510D01*
X147418585Y-101681422D01*
X147418585Y-101681423D01*
X147437563Y-101729356D01*
X147472170Y-101816765D01*
X147476250Y-101822140D01*
X147476251Y-101822142D01*
X147551984Y-101921916D01*
X147564023Y-101937777D01*
X147569406Y-101941863D01*
X147666633Y-102015662D01*
X147685035Y-102029630D01*
X147826290Y-102085556D01*
X147916723Y-102096500D01*
X148147641Y-102096500D01*
X148205832Y-102115407D01*
X148217644Y-102125496D01*
X148437503Y-102345354D01*
X148465281Y-102399871D01*
X148466500Y-102415358D01*
X148466500Y-110240021D01*
X148447593Y-110298212D01*
X148437504Y-110310025D01*
X148071824Y-110675705D01*
X148017307Y-110703482D01*
X148001820Y-110704701D01*
X147916724Y-110704701D01*
X147913758Y-110705060D01*
X147913756Y-110705060D01*
X147876428Y-110709577D01*
X147826290Y-110715644D01*
X147820378Y-110717985D01*
X147820377Y-110717985D01*
X147727687Y-110754683D01*
X147685035Y-110771570D01*
X147679660Y-110775650D01*
X147679658Y-110775651D01*
X147577311Y-110853337D01*
X147564023Y-110863423D01*
X147559937Y-110868806D01*
X147476398Y-110978865D01*
X147472170Y-110984435D01*
X147416244Y-111125690D01*
X147405300Y-111216123D01*
X147405301Y-112202276D01*
X147405660Y-112205242D01*
X147405660Y-112205244D01*
X147411469Y-112253248D01*
X147416244Y-112292710D01*
X147418585Y-112298622D01*
X147418585Y-112298623D01*
X147434861Y-112339733D01*
X147472170Y-112433965D01*
X147476250Y-112439340D01*
X147476251Y-112439342D01*
X147551371Y-112538309D01*
X147564023Y-112554977D01*
X147569406Y-112559063D01*
X147677963Y-112641462D01*
X147685035Y-112646830D01*
X147691309Y-112649314D01*
X147730049Y-112664652D01*
X147777193Y-112703653D01*
X147792410Y-112762916D01*
X147769886Y-112819805D01*
X147718226Y-112852590D01*
X147693605Y-112855700D01*
X144156006Y-112855700D01*
X144097815Y-112836793D01*
X144061851Y-112787293D01*
X144063306Y-112721949D01*
X144088983Y-112653454D01*
X144088983Y-112653453D01*
X144091164Y-112647636D01*
X144093749Y-112623845D01*
X144095037Y-112611983D01*
X144123454Y-112552671D01*
X144708952Y-111967173D01*
X144720277Y-111957441D01*
X144734640Y-111946871D01*
X144739271Y-111943463D01*
X144742994Y-111939081D01*
X144742998Y-111939077D01*
X144773990Y-111902597D01*
X144779434Y-111896691D01*
X144785863Y-111890262D01*
X144789394Y-111885800D01*
X144803677Y-111867746D01*
X144805867Y-111865074D01*
X144815127Y-111854174D01*
X144853182Y-111809380D01*
X144855796Y-111804260D01*
X144858989Y-111799473D01*
X144859088Y-111799539D01*
X144861019Y-111796532D01*
X144860917Y-111796469D01*
X144863937Y-111791579D01*
X144867507Y-111787067D01*
X144898453Y-111720854D01*
X144899965Y-111717763D01*
X144930577Y-111657812D01*
X144930578Y-111657809D01*
X144933193Y-111652688D01*
X144934559Y-111647105D01*
X144936565Y-111641712D01*
X144936675Y-111641753D01*
X144937862Y-111638384D01*
X144937750Y-111638347D01*
X144939566Y-111632888D01*
X144942001Y-111627678D01*
X144943172Y-111622050D01*
X144943173Y-111622046D01*
X144956881Y-111556140D01*
X144957643Y-111552770D01*
X144973964Y-111486072D01*
X144973964Y-111486069D01*
X144975011Y-111481792D01*
X144975700Y-111470686D01*
X144975897Y-111470698D01*
X144976363Y-111466806D01*
X144976147Y-111466787D01*
X144976659Y-111461053D01*
X144977829Y-111455427D01*
X144976895Y-111420882D01*
X144975736Y-111378078D01*
X144975700Y-111375400D01*
X144975700Y-110487933D01*
X144994607Y-110429742D01*
X145004696Y-110417929D01*
X146638035Y-108784589D01*
X146640062Y-108782562D01*
X146664346Y-108751869D01*
X146718137Y-108683879D01*
X146721707Y-108679367D01*
X146796201Y-108519978D01*
X146797373Y-108514345D01*
X146830858Y-108353354D01*
X146830858Y-108353351D01*
X146832028Y-108347727D01*
X146831860Y-108341484D01*
X146827426Y-108177607D01*
X146827426Y-108177604D01*
X146827270Y-108171854D01*
X146800266Y-108070007D01*
X146783653Y-108007349D01*
X146783651Y-108007344D01*
X146782179Y-108001792D01*
X146778906Y-107995674D01*
X146701886Y-107851734D01*
X146701885Y-107851733D01*
X146699174Y-107846666D01*
X146695367Y-107842355D01*
X146586517Y-107719104D01*
X146586514Y-107719101D01*
X146582710Y-107714794D01*
X146439031Y-107613252D01*
X146433694Y-107611101D01*
X146433692Y-107611100D01*
X146281181Y-107549636D01*
X146281179Y-107549635D01*
X146275848Y-107547487D01*
X146178977Y-107532750D01*
X146107599Y-107521891D01*
X146107596Y-107521891D01*
X146101911Y-107521026D01*
X145994628Y-107529753D01*
X145932291Y-107534823D01*
X145932289Y-107534823D01*
X145926553Y-107535290D01*
X145921080Y-107537063D01*
X145921075Y-107537064D01*
X145770189Y-107585944D01*
X145759178Y-107589511D01*
X145608767Y-107680783D01*
X145600427Y-107688149D01*
X145544703Y-107743873D01*
X145490186Y-107771650D01*
X145429754Y-107762079D01*
X145386489Y-107718814D01*
X145375699Y-107673869D01*
X145375699Y-107651534D01*
X145373396Y-107639952D01*
X145362836Y-107586862D01*
X145360934Y-107577299D01*
X145304684Y-107493116D01*
X145303198Y-107492123D01*
X145277704Y-107442087D01*
X145287275Y-107381655D01*
X145301308Y-107362340D01*
X145304684Y-107360084D01*
X145360934Y-107275901D01*
X145363351Y-107263754D01*
X145371829Y-107221127D01*
X145375700Y-107201667D01*
X145375699Y-105951534D01*
X145360934Y-105877299D01*
X145304684Y-105793116D01*
X145220501Y-105736866D01*
X145210938Y-105734964D01*
X145210936Y-105734963D01*
X145173907Y-105727598D01*
X145146267Y-105722100D01*
X145019507Y-105722100D01*
X144961316Y-105703193D01*
X144925352Y-105653693D01*
X144925352Y-105592507D01*
X144937192Y-105568098D01*
X144971134Y-105517301D01*
X144975265Y-105496536D01*
X144983069Y-105457300D01*
X144985900Y-105443067D01*
X144985899Y-103862934D01*
X144971134Y-103788699D01*
X144914884Y-103704516D01*
X144830701Y-103648266D01*
X144821138Y-103646364D01*
X144821136Y-103646363D01*
X144790219Y-103640214D01*
X144756467Y-103633500D01*
X143916573Y-103633500D01*
X143076334Y-103633501D01*
X143071568Y-103634449D01*
X143071567Y-103634449D01*
X143055559Y-103637633D01*
X143002099Y-103648266D01*
X142917916Y-103704516D01*
X142861666Y-103788699D01*
X142846900Y-103862933D01*
X142846901Y-105443066D01*
X142861666Y-105517301D01*
X142917916Y-105601484D01*
X142926026Y-105606903D01*
X142976733Y-105640785D01*
X143014612Y-105688835D01*
X143017014Y-105749973D01*
X142983021Y-105800847D01*
X142921731Y-105822100D01*
X142397847Y-105822100D01*
X142267146Y-105837338D01*
X142261740Y-105839300D01*
X142261737Y-105839301D01*
X142124219Y-105889218D01*
X142101766Y-105897368D01*
X142096957Y-105900521D01*
X142096953Y-105900523D01*
X141966259Y-105986211D01*
X141954632Y-105993834D01*
X141950675Y-105998011D01*
X141950674Y-105998012D01*
X141945072Y-106003926D01*
X141833636Y-106121560D01*
X141830751Y-106126527D01*
X141830748Y-106126531D01*
X141816055Y-106151828D01*
X141808641Y-106164593D01*
X141806764Y-106167824D01*
X141761187Y-106208646D01*
X141721157Y-106217100D01*
X141186644Y-106217100D01*
X141124952Y-106223802D01*
X140989636Y-106274529D01*
X140873996Y-106361196D01*
X140869763Y-106366844D01*
X140864013Y-106374516D01*
X140787329Y-106476836D01*
X140784854Y-106483438D01*
X140780200Y-106495853D01*
X140742070Y-106543704D01*
X140683096Y-106560004D01*
X140625804Y-106538527D01*
X140592078Y-106487476D01*
X140588500Y-106461102D01*
X140588500Y-104356532D01*
X140607407Y-104298341D01*
X140617496Y-104286529D01*
X140915128Y-103988896D01*
X140969645Y-103961118D01*
X140985132Y-103959899D01*
X142031666Y-103959899D01*
X142036432Y-103958951D01*
X142036433Y-103958951D01*
X142096338Y-103947036D01*
X142105901Y-103945134D01*
X142190084Y-103888884D01*
X142246334Y-103804701D01*
X142261100Y-103730467D01*
X142261099Y-102683933D01*
X142280006Y-102625742D01*
X142290095Y-102613929D01*
X143002869Y-101901155D01*
X143057386Y-101873378D01*
X143076333Y-101872820D01*
X143076333Y-101872500D01*
X144756466Y-101872499D01*
X144761232Y-101871551D01*
X144761233Y-101871551D01*
X144821138Y-101859636D01*
X144830701Y-101857734D01*
X144914884Y-101801484D01*
X144971134Y-101717301D01*
X144985900Y-101643067D01*
X144985899Y-100241989D01*
X145004806Y-100183798D01*
X145054306Y-100147834D01*
X145084899Y-100142989D01*
X147442948Y-100142989D01*
X147501139Y-100161896D01*
G37*
%TD.AperFunction*%
%TA.AperFunction,Conductor*%
G36*
X128619745Y-106808590D02*
G01*
X128644804Y-106826796D01*
X128728126Y-106910118D01*
X128735063Y-106913653D01*
X128735065Y-106913654D01*
X128828787Y-106961407D01*
X128845116Y-106969727D01*
X128852810Y-106970946D01*
X128852811Y-106970946D01*
X128938331Y-106984491D01*
X128938333Y-106984491D01*
X128942177Y-106985100D01*
X128968715Y-106985100D01*
X129169097Y-106985099D01*
X129227287Y-107004006D01*
X129234764Y-107010392D01*
X129234836Y-107010307D01*
X129237958Y-107012952D01*
X129240844Y-107015838D01*
X129250456Y-107022707D01*
X129257061Y-107027427D01*
X129260791Y-107030227D01*
X129288247Y-107051871D01*
X129301547Y-107062356D01*
X129308744Y-107064883D01*
X129311419Y-107066273D01*
X129317634Y-107070714D01*
X129367419Y-107085603D01*
X129371787Y-107087022D01*
X129420751Y-107104218D01*
X129426316Y-107104700D01*
X129428457Y-107104700D01*
X129429568Y-107104748D01*
X129432174Y-107104969D01*
X129438678Y-107106914D01*
X129446849Y-107106593D01*
X129446850Y-107106593D01*
X129493084Y-107104776D01*
X129496971Y-107104700D01*
X132533500Y-107104700D01*
X132591691Y-107123607D01*
X132627655Y-107173107D01*
X132632500Y-107203700D01*
X132632500Y-107345501D01*
X132613593Y-107403692D01*
X132564093Y-107439656D01*
X132533500Y-107444501D01*
X132411934Y-107444501D01*
X132407168Y-107445449D01*
X132407167Y-107445449D01*
X132360116Y-107454807D01*
X132337699Y-107459266D01*
X132253516Y-107515516D01*
X132197266Y-107599699D01*
X132195364Y-107609262D01*
X132195363Y-107609264D01*
X132189690Y-107637787D01*
X132182500Y-107673933D01*
X132182501Y-108024066D01*
X132193564Y-108079688D01*
X132193564Y-108118310D01*
X132182500Y-108173933D01*
X132182501Y-108524066D01*
X132193564Y-108579688D01*
X132193564Y-108618310D01*
X132182500Y-108673933D01*
X132182501Y-109024066D01*
X132193564Y-109079688D01*
X132193564Y-109118310D01*
X132182500Y-109173933D01*
X132182501Y-109524066D01*
X132183449Y-109528830D01*
X132183449Y-109528833D01*
X132185321Y-109538244D01*
X132197266Y-109598301D01*
X132253516Y-109682484D01*
X132337699Y-109738734D01*
X132347262Y-109740636D01*
X132347264Y-109740637D01*
X132377239Y-109746599D01*
X132411933Y-109753500D01*
X133136850Y-109753500D01*
X133862066Y-109753499D01*
X133866832Y-109752551D01*
X133866833Y-109752551D01*
X133926735Y-109740637D01*
X133926737Y-109740636D01*
X133936301Y-109738734D01*
X133941398Y-109735328D01*
X133975729Y-109728500D01*
X134398500Y-109728500D01*
X134456691Y-109747407D01*
X134492655Y-109796907D01*
X134497500Y-109827500D01*
X134497500Y-110635501D01*
X134478593Y-110693692D01*
X134429093Y-110729656D01*
X134398500Y-110734501D01*
X134319534Y-110734501D01*
X134314768Y-110735449D01*
X134314767Y-110735449D01*
X134274862Y-110743386D01*
X134245299Y-110749266D01*
X134161116Y-110805516D01*
X134104866Y-110889699D01*
X134102964Y-110899262D01*
X134102963Y-110899264D01*
X134100531Y-110911493D01*
X134090100Y-110963933D01*
X134090101Y-111814066D01*
X134091049Y-111818831D01*
X134091049Y-111818833D01*
X134097313Y-111850328D01*
X134104866Y-111888301D01*
X134161116Y-111972484D01*
X134245299Y-112028734D01*
X134254862Y-112030636D01*
X134254864Y-112030637D01*
X134285781Y-112036786D01*
X134319533Y-112043500D01*
X134969466Y-112043500D01*
X135619666Y-112043499D01*
X135624432Y-112042551D01*
X135624433Y-112042551D01*
X135684338Y-112030636D01*
X135693901Y-112028734D01*
X135778084Y-111972484D01*
X135834334Y-111888301D01*
X135849100Y-111814067D01*
X135849099Y-110963934D01*
X135847878Y-110957792D01*
X135836236Y-110899262D01*
X135834334Y-110889699D01*
X135778084Y-110805516D01*
X135693901Y-110749266D01*
X135684338Y-110747364D01*
X135684336Y-110747363D01*
X135648725Y-110740280D01*
X135619667Y-110734500D01*
X135605500Y-110734500D01*
X135547309Y-110715593D01*
X135511345Y-110666093D01*
X135506500Y-110635500D01*
X135506500Y-109237949D01*
X135517290Y-109193004D01*
X135518059Y-109191496D01*
X135548312Y-109132120D01*
X135550499Y-109118315D01*
X135562891Y-109040072D01*
X135562891Y-109040070D01*
X135563500Y-109036226D01*
X135563500Y-108661774D01*
X135561528Y-108649322D01*
X135549531Y-108573575D01*
X135549531Y-108573574D01*
X135548312Y-108565880D01*
X135540601Y-108550746D01*
X135492958Y-108457241D01*
X135492957Y-108457239D01*
X135489422Y-108450302D01*
X135444996Y-108405876D01*
X135417219Y-108351359D01*
X135416000Y-108335872D01*
X135416000Y-108325200D01*
X135434907Y-108267009D01*
X135484407Y-108231045D01*
X135545593Y-108231045D01*
X135585004Y-108255196D01*
X135662326Y-108332518D01*
X135669263Y-108336053D01*
X135669265Y-108336054D01*
X135765691Y-108385185D01*
X135779316Y-108392127D01*
X135787010Y-108393346D01*
X135787011Y-108393346D01*
X135872531Y-108406891D01*
X135872533Y-108406891D01*
X135876377Y-108407500D01*
X136106470Y-108407500D01*
X136336622Y-108407499D01*
X136340467Y-108406890D01*
X136340468Y-108406890D01*
X136346870Y-108405876D01*
X136372423Y-108401829D01*
X136432853Y-108411401D01*
X136457912Y-108429606D01*
X136700504Y-108672198D01*
X136728281Y-108726715D01*
X136729500Y-108742202D01*
X136729501Y-108935711D01*
X136729501Y-109133066D01*
X136730449Y-109137832D01*
X136730449Y-109137833D01*
X136736490Y-109168203D01*
X136744266Y-109207301D01*
X136800516Y-109291484D01*
X136884699Y-109347734D01*
X136894262Y-109349636D01*
X136894264Y-109349637D01*
X136925181Y-109355786D01*
X136958933Y-109362500D01*
X137533881Y-109362500D01*
X138109066Y-109362499D01*
X138113832Y-109361551D01*
X138113833Y-109361551D01*
X138173738Y-109349636D01*
X138183301Y-109347734D01*
X138267484Y-109291484D01*
X138323734Y-109207301D01*
X138326987Y-109209475D01*
X138354689Y-109177067D01*
X138406382Y-109162500D01*
X138406498Y-109162500D01*
X138464689Y-109181407D01*
X138476502Y-109191496D01*
X139233336Y-109948330D01*
X139261113Y-110002847D01*
X139256033Y-110053084D01*
X139231036Y-110119764D01*
X139224500Y-110179930D01*
X139224500Y-110718132D01*
X139205593Y-110776323D01*
X139156093Y-110812287D01*
X139094907Y-110812287D01*
X139070498Y-110800447D01*
X139002011Y-110754685D01*
X138993901Y-110749266D01*
X138984338Y-110747364D01*
X138984336Y-110747363D01*
X138948725Y-110740280D01*
X138919667Y-110734500D01*
X138269734Y-110734500D01*
X137619534Y-110734501D01*
X137614768Y-110735449D01*
X137614767Y-110735449D01*
X137574862Y-110743386D01*
X137545299Y-110749266D01*
X137461116Y-110805516D01*
X137404866Y-110889699D01*
X137402964Y-110899262D01*
X137402963Y-110899264D01*
X137400531Y-110911493D01*
X137390100Y-110963933D01*
X137390101Y-111814066D01*
X137391049Y-111818831D01*
X137391049Y-111818833D01*
X137397313Y-111850328D01*
X137404866Y-111888301D01*
X137461116Y-111972484D01*
X137545299Y-112028734D01*
X137554862Y-112030636D01*
X137554864Y-112030637D01*
X137585781Y-112036786D01*
X137619533Y-112043500D01*
X138269466Y-112043500D01*
X138919666Y-112043499D01*
X138924432Y-112042551D01*
X138924433Y-112042551D01*
X138984338Y-112030636D01*
X138993901Y-112028734D01*
X139078084Y-111972484D01*
X139134334Y-111888301D01*
X139142313Y-111848187D01*
X139172209Y-111794803D01*
X139227774Y-111769186D01*
X139239411Y-111768500D01*
X142448871Y-111768500D01*
X142507062Y-111787407D01*
X142543026Y-111836907D01*
X142541571Y-111902251D01*
X142534539Y-111921010D01*
X142520236Y-111959164D01*
X142513700Y-112019330D01*
X142513700Y-112587470D01*
X142514461Y-112594473D01*
X142517652Y-112623845D01*
X142520236Y-112647636D01*
X142522417Y-112653453D01*
X142522417Y-112653454D01*
X142548094Y-112721949D01*
X142550816Y-112783073D01*
X142517090Y-112834124D01*
X142455394Y-112855700D01*
X139088326Y-112855700D01*
X139030135Y-112836793D01*
X139022791Y-112830903D01*
X139006124Y-112816183D01*
X139001655Y-112811984D01*
X138989720Y-112800049D01*
X138986902Y-112797937D01*
X138980575Y-112793195D01*
X138974423Y-112788187D01*
X138938430Y-112756399D01*
X138928994Y-112751969D01*
X138911697Y-112741575D01*
X138909011Y-112739562D01*
X138909010Y-112739562D01*
X138903364Y-112735330D01*
X138896757Y-112732853D01*
X138896755Y-112732852D01*
X138867671Y-112721949D01*
X138858403Y-112718474D01*
X138851098Y-112715397D01*
X138807618Y-112694983D01*
X138800649Y-112693898D01*
X138797329Y-112693381D01*
X138777800Y-112688258D01*
X138774654Y-112687078D01*
X138774650Y-112687077D01*
X138768048Y-112684602D01*
X138761015Y-112684079D01*
X138761013Y-112684079D01*
X138735373Y-112682174D01*
X138720168Y-112681044D01*
X138712280Y-112680139D01*
X138697903Y-112677900D01*
X138681533Y-112677900D01*
X138674197Y-112677628D01*
X138670948Y-112677387D01*
X138623933Y-112673893D01*
X138617038Y-112675365D01*
X138617036Y-112675365D01*
X138615379Y-112675719D01*
X138594711Y-112677900D01*
X132864584Y-112677900D01*
X132806393Y-112658993D01*
X132770429Y-112609493D01*
X132766803Y-112563413D01*
X132781500Y-112470623D01*
X132781499Y-112010378D01*
X132766127Y-111913316D01*
X132727195Y-111836907D01*
X132710054Y-111803265D01*
X132710053Y-111803263D01*
X132706518Y-111796326D01*
X132623196Y-111713004D01*
X132595419Y-111658487D01*
X132604990Y-111598055D01*
X132623196Y-111572996D01*
X132706518Y-111489674D01*
X132712776Y-111477393D01*
X132762591Y-111379624D01*
X132766127Y-111372684D01*
X132768806Y-111355774D01*
X132780891Y-111279469D01*
X132780891Y-111279467D01*
X132781500Y-111275623D01*
X132781499Y-110815378D01*
X132780727Y-110810500D01*
X132773729Y-110766318D01*
X132766127Y-110718316D01*
X132732006Y-110651349D01*
X132710054Y-110608265D01*
X132710053Y-110608263D01*
X132706518Y-110601326D01*
X132613674Y-110508482D01*
X132606737Y-110504947D01*
X132606735Y-110504946D01*
X132503624Y-110452409D01*
X132496684Y-110448873D01*
X132488990Y-110447654D01*
X132488989Y-110447654D01*
X132403469Y-110434109D01*
X132403467Y-110434109D01*
X132399623Y-110433500D01*
X132376393Y-110433500D01*
X132172703Y-110433501D01*
X132114513Y-110414594D01*
X132102699Y-110404505D01*
X132084420Y-110386226D01*
X132071257Y-110369925D01*
X132064551Y-110359540D01*
X132036933Y-110337768D01*
X132030815Y-110332332D01*
X132028923Y-110330729D01*
X132026036Y-110327842D01*
X132009819Y-110316253D01*
X132006089Y-110313453D01*
X131971757Y-110286388D01*
X131971756Y-110286387D01*
X131965333Y-110281324D01*
X131958136Y-110278797D01*
X131955461Y-110277407D01*
X131949246Y-110272966D01*
X131899517Y-110258094D01*
X131895086Y-110256654D01*
X131852002Y-110241524D01*
X131851999Y-110241523D01*
X131846129Y-110239462D01*
X131840564Y-110238980D01*
X131838421Y-110238980D01*
X131837307Y-110238932D01*
X131834706Y-110238712D01*
X131828202Y-110236767D01*
X131820026Y-110237088D01*
X131820024Y-110237088D01*
X131773810Y-110238904D01*
X131769923Y-110238980D01*
X129764568Y-110238980D01*
X129706377Y-110220073D01*
X129670413Y-110170573D01*
X129670413Y-110109387D01*
X129671753Y-110105756D01*
X129676734Y-110098301D01*
X129691500Y-110024067D01*
X129691499Y-109673934D01*
X129680436Y-109618312D01*
X129680436Y-109579688D01*
X129691500Y-109524067D01*
X129691499Y-109173934D01*
X129680436Y-109118312D01*
X129680436Y-109079688D01*
X129680437Y-109079685D01*
X129691500Y-109024067D01*
X129691499Y-108673934D01*
X129680436Y-108618312D01*
X129680436Y-108579688D01*
X129680437Y-108579685D01*
X129691500Y-108524067D01*
X129691499Y-108173934D01*
X129680436Y-108118312D01*
X129680436Y-108079688D01*
X129680437Y-108079685D01*
X129691500Y-108024067D01*
X129691499Y-107673934D01*
X129686877Y-107650693D01*
X129678636Y-107609262D01*
X129676734Y-107599699D01*
X129620484Y-107515516D01*
X129536301Y-107459266D01*
X129526738Y-107457364D01*
X129526736Y-107457363D01*
X129490165Y-107450089D01*
X129462067Y-107444500D01*
X128910202Y-107444500D01*
X128852011Y-107425593D01*
X128840198Y-107415504D01*
X128448147Y-107023453D01*
X128420370Y-106968936D01*
X128429941Y-106908504D01*
X128448147Y-106883445D01*
X128504796Y-106826796D01*
X128559313Y-106799019D01*
X128619745Y-106808590D01*
G37*
%TD.AperFunction*%
%TA.AperFunction,Conductor*%
G36*
X127976249Y-110246402D02*
G01*
X128011933Y-110253500D01*
X128563798Y-110253500D01*
X128621989Y-110272407D01*
X128633802Y-110282496D01*
X129202040Y-110850734D01*
X129215203Y-110867035D01*
X129221909Y-110877420D01*
X129228333Y-110882484D01*
X129249527Y-110899192D01*
X129255645Y-110904628D01*
X129257537Y-110906231D01*
X129260424Y-110909118D01*
X129274917Y-110919475D01*
X129276641Y-110920707D01*
X129280371Y-110923507D01*
X129312783Y-110949058D01*
X129321127Y-110955636D01*
X129328324Y-110958163D01*
X129330999Y-110959553D01*
X129337214Y-110963994D01*
X129386565Y-110978753D01*
X129386939Y-110978865D01*
X129391374Y-110980306D01*
X129434458Y-110995436D01*
X129434461Y-110995437D01*
X129440331Y-110997498D01*
X129445896Y-110997980D01*
X129448039Y-110997980D01*
X129449153Y-110998028D01*
X129451754Y-110998248D01*
X129458258Y-111000193D01*
X129466434Y-110999872D01*
X129466436Y-110999872D01*
X129512650Y-110998056D01*
X129516537Y-110997980D01*
X129752885Y-110997980D01*
X129811076Y-111016887D01*
X129847040Y-111066387D01*
X129845799Y-111121929D01*
X129848216Y-111122504D01*
X129846781Y-111128541D01*
X129844602Y-111134352D01*
X129837900Y-111196044D01*
X129837900Y-112191556D01*
X129844602Y-112253248D01*
X129895329Y-112388564D01*
X129981996Y-112504204D01*
X129987644Y-112508437D01*
X129988103Y-112508896D01*
X130015880Y-112563413D01*
X130006309Y-112623845D01*
X129963044Y-112667110D01*
X129918099Y-112677900D01*
X127817637Y-112677900D01*
X127759446Y-112658993D01*
X127723482Y-112609493D01*
X127723482Y-112548307D01*
X127729427Y-112533956D01*
X127758790Y-112476327D01*
X127758791Y-112476324D01*
X127762327Y-112469384D01*
X127768295Y-112431707D01*
X127777091Y-112376169D01*
X127777091Y-112376167D01*
X127777700Y-112372323D01*
X127777699Y-111912078D01*
X127776797Y-111906377D01*
X127769145Y-111858067D01*
X127762327Y-111815016D01*
X127729883Y-111751340D01*
X127706254Y-111704965D01*
X127706253Y-111704963D01*
X127702718Y-111698026D01*
X127619396Y-111614704D01*
X127591619Y-111560187D01*
X127601190Y-111499755D01*
X127619396Y-111474696D01*
X127702718Y-111391374D01*
X127708431Y-111380163D01*
X127758791Y-111281324D01*
X127762327Y-111274384D01*
X127766446Y-111248382D01*
X127777091Y-111181169D01*
X127777091Y-111181167D01*
X127777700Y-111177323D01*
X127777699Y-110717078D01*
X127776797Y-110711377D01*
X127767864Y-110654977D01*
X127762327Y-110620016D01*
X127727447Y-110551560D01*
X127706254Y-110509965D01*
X127706253Y-110509963D01*
X127702718Y-110503026D01*
X127697212Y-110497520D01*
X127692629Y-110491212D01*
X127695346Y-110489238D01*
X127674233Y-110447801D01*
X127683804Y-110387369D01*
X127702010Y-110362310D01*
X127734422Y-110329898D01*
X127750393Y-110298554D01*
X127793658Y-110255290D01*
X127838602Y-110244500D01*
X127956935Y-110244500D01*
X127976249Y-110246402D01*
G37*
%TD.AperFunction*%
%TD*%
M02*
