%FSLAX45Y45*%
G04 Gerber Fmt 4.5, Leading zero omitted, Abs format (unit mm)*
G04 Created by KiCad (PCBNEW (6.0.4)) date 2022-06-19 16:10:10*
%MOMM*%
%LPD*%
G01*
G04 APERTURE LIST*
%TA.AperFunction,Profile*%
%ADD10C,0.100000*%
%TD*%
%ADD11C,0.200000*%
%ADD12C,0.040000*%
G04 APERTURE END LIST*
D10*
X10000800Y-11404600D02*
X15500800Y-11404600D01*
X15500800Y-11404600D02*
X15500800Y-9906000D01*
X10000800Y-9906000D02*
X15500800Y-9906000D01*
X10000800Y-9906000D02*
X10000800Y-11404600D01*
D11*
D12*
X10134920Y-10345740D02*
X10174920Y-10385740D01*
X10174920Y-10345740D02*
X10134920Y-10385740D01*
X10140000Y-10884220D02*
X10180000Y-10924220D01*
X10180000Y-10884220D02*
X10140000Y-10924220D01*
X10277160Y-10886760D02*
X10317160Y-10926760D01*
X10317160Y-10886760D02*
X10277160Y-10926760D01*
X10279700Y-10345740D02*
X10319700Y-10385740D01*
X10319700Y-10345740D02*
X10279700Y-10385740D01*
X10620060Y-10147620D02*
X10660060Y-10187620D01*
X10660060Y-10147620D02*
X10620060Y-10187620D01*
X11181400Y-10188260D02*
X11221400Y-10228260D01*
X11221400Y-10188260D02*
X11181400Y-10228260D01*
X13137200Y-11209340D02*
X13177200Y-11249340D01*
X13177200Y-11209340D02*
X13137200Y-11249340D01*
X14587540Y-10808020D02*
X14627540Y-10848020D01*
X14627540Y-10808020D02*
X14587540Y-10848020D01*
X14805980Y-11153460D02*
X14845980Y-11193460D01*
X14845980Y-11153460D02*
X14805980Y-11193460D01*
X14808520Y-10089200D02*
X14848520Y-10129200D01*
X14848520Y-10089200D02*
X14808520Y-10129200D01*
X14948220Y-10089200D02*
X14988220Y-10129200D01*
X14988220Y-10089200D02*
X14948220Y-10129200D01*
X14948220Y-11156000D02*
X14988220Y-11196000D01*
X14988220Y-11156000D02*
X14948220Y-11196000D01*
D11*
X10253419Y-11720076D02*
X10253419Y-11520076D01*
X10301038Y-11520076D01*
X10329610Y-11529600D01*
X10348657Y-11548648D01*
X10358181Y-11567695D01*
X10367705Y-11605790D01*
X10367705Y-11634362D01*
X10358181Y-11672457D01*
X10348657Y-11691505D01*
X10329610Y-11710552D01*
X10301038Y-11720076D01*
X10253419Y-11720076D01*
X10453419Y-11720076D02*
X10453419Y-11586743D01*
X10453419Y-11624838D02*
X10462943Y-11605790D01*
X10472467Y-11596267D01*
X10491514Y-11586743D01*
X10510562Y-11586743D01*
X10577229Y-11720076D02*
X10577229Y-11586743D01*
X10577229Y-11520076D02*
X10567705Y-11529600D01*
X10577229Y-11539124D01*
X10586752Y-11529600D01*
X10577229Y-11520076D01*
X10577229Y-11539124D01*
X10701038Y-11720076D02*
X10681990Y-11710552D01*
X10672467Y-11691505D01*
X10672467Y-11520076D01*
X10805800Y-11720076D02*
X10786752Y-11710552D01*
X10777229Y-11691505D01*
X10777229Y-11520076D01*
X11034371Y-11720076D02*
X11034371Y-11520076D01*
X11101038Y-11662933D01*
X11167705Y-11520076D01*
X11167705Y-11720076D01*
X11348657Y-11720076D02*
X11348657Y-11615314D01*
X11339133Y-11596267D01*
X11320086Y-11586743D01*
X11281990Y-11586743D01*
X11262943Y-11596267D01*
X11348657Y-11710552D02*
X11329609Y-11720076D01*
X11281990Y-11720076D01*
X11262943Y-11710552D01*
X11253419Y-11691505D01*
X11253419Y-11672457D01*
X11262943Y-11653409D01*
X11281990Y-11643886D01*
X11329609Y-11643886D01*
X11348657Y-11634362D01*
X11443895Y-11586743D02*
X11443895Y-11786743D01*
X11443895Y-11596267D02*
X11462943Y-11586743D01*
X11501038Y-11586743D01*
X11520086Y-11596267D01*
X11529609Y-11605790D01*
X11539133Y-11624838D01*
X11539133Y-11681981D01*
X11529609Y-11701028D01*
X11520086Y-11710552D01*
X11501038Y-11720076D01*
X11462943Y-11720076D01*
X11443895Y-11710552D01*
X11624848Y-11701028D02*
X11634371Y-11710552D01*
X11624848Y-11720076D01*
X11615324Y-11710552D01*
X11624848Y-11701028D01*
X11624848Y-11720076D01*
X11624848Y-11596267D02*
X11634371Y-11605790D01*
X11624848Y-11615314D01*
X11615324Y-11605790D01*
X11624848Y-11596267D01*
X11624848Y-11615314D01*
D12*
X9955800Y-12029600D02*
X9995800Y-12069600D01*
X9995800Y-12029600D02*
X9955800Y-12069600D01*
D11*
X10291514Y-11940076D02*
X10310562Y-11940076D01*
X10329610Y-11949600D01*
X10339133Y-11959124D01*
X10348657Y-11978171D01*
X10358181Y-12016267D01*
X10358181Y-12063886D01*
X10348657Y-12101981D01*
X10339133Y-12121028D01*
X10329610Y-12130552D01*
X10310562Y-12140076D01*
X10291514Y-12140076D01*
X10272467Y-12130552D01*
X10262943Y-12121028D01*
X10253419Y-12101981D01*
X10243895Y-12063886D01*
X10243895Y-12016267D01*
X10253419Y-11978171D01*
X10262943Y-11959124D01*
X10272467Y-11949600D01*
X10291514Y-11940076D01*
X10443895Y-12121028D02*
X10453419Y-12130552D01*
X10443895Y-12140076D01*
X10434371Y-12130552D01*
X10443895Y-12121028D01*
X10443895Y-12140076D01*
X10624848Y-12006743D02*
X10624848Y-12140076D01*
X10577229Y-11930552D02*
X10529610Y-12073409D01*
X10653419Y-12073409D01*
X10767705Y-11940076D02*
X10786752Y-11940076D01*
X10805800Y-11949600D01*
X10815324Y-11959124D01*
X10824848Y-11978171D01*
X10834371Y-12016267D01*
X10834371Y-12063886D01*
X10824848Y-12101981D01*
X10815324Y-12121028D01*
X10805800Y-12130552D01*
X10786752Y-12140076D01*
X10767705Y-12140076D01*
X10748657Y-12130552D01*
X10739133Y-12121028D01*
X10729610Y-12101981D01*
X10720086Y-12063886D01*
X10720086Y-12016267D01*
X10729610Y-11978171D01*
X10739133Y-11959124D01*
X10748657Y-11949600D01*
X10767705Y-11940076D01*
X10958181Y-11940076D02*
X10977229Y-11940076D01*
X10996276Y-11949600D01*
X11005800Y-11959124D01*
X11015324Y-11978171D01*
X11024848Y-12016267D01*
X11024848Y-12063886D01*
X11015324Y-12101981D01*
X11005800Y-12121028D01*
X10996276Y-12130552D01*
X10977229Y-12140076D01*
X10958181Y-12140076D01*
X10939133Y-12130552D01*
X10929610Y-12121028D01*
X10920086Y-12101981D01*
X10910562Y-12063886D01*
X10910562Y-12016267D01*
X10920086Y-11978171D01*
X10929610Y-11959124D01*
X10939133Y-11949600D01*
X10958181Y-11940076D01*
X11110562Y-12140076D02*
X11110562Y-12006743D01*
X11110562Y-12025790D02*
X11120086Y-12016267D01*
X11139133Y-12006743D01*
X11167705Y-12006743D01*
X11186752Y-12016267D01*
X11196276Y-12035314D01*
X11196276Y-12140076D01*
X11196276Y-12035314D02*
X11205800Y-12016267D01*
X11224848Y-12006743D01*
X11253419Y-12006743D01*
X11272467Y-12016267D01*
X11281990Y-12035314D01*
X11281990Y-12140076D01*
X11377228Y-12140076D02*
X11377228Y-12006743D01*
X11377228Y-12025790D02*
X11386752Y-12016267D01*
X11405800Y-12006743D01*
X11434371Y-12006743D01*
X11453419Y-12016267D01*
X11462943Y-12035314D01*
X11462943Y-12140076D01*
X11462943Y-12035314D02*
X11472467Y-12016267D01*
X11491514Y-12006743D01*
X11520086Y-12006743D01*
X11539133Y-12016267D01*
X11548657Y-12035314D01*
X11548657Y-12140076D01*
X11939133Y-11930552D02*
X11767705Y-12187695D01*
X12196276Y-11940076D02*
X12215324Y-11940076D01*
X12234371Y-11949600D01*
X12243895Y-11959124D01*
X12253419Y-11978171D01*
X12262943Y-12016267D01*
X12262943Y-12063886D01*
X12253419Y-12101981D01*
X12243895Y-12121028D01*
X12234371Y-12130552D01*
X12215324Y-12140076D01*
X12196276Y-12140076D01*
X12177228Y-12130552D01*
X12167705Y-12121028D01*
X12158181Y-12101981D01*
X12148657Y-12063886D01*
X12148657Y-12016267D01*
X12158181Y-11978171D01*
X12167705Y-11959124D01*
X12177228Y-11949600D01*
X12196276Y-11940076D01*
X12348657Y-12121028D02*
X12358181Y-12130552D01*
X12348657Y-12140076D01*
X12339133Y-12130552D01*
X12348657Y-12121028D01*
X12348657Y-12140076D01*
X12481990Y-11940076D02*
X12501038Y-11940076D01*
X12520086Y-11949600D01*
X12529609Y-11959124D01*
X12539133Y-11978171D01*
X12548657Y-12016267D01*
X12548657Y-12063886D01*
X12539133Y-12101981D01*
X12529609Y-12121028D01*
X12520086Y-12130552D01*
X12501038Y-12140076D01*
X12481990Y-12140076D01*
X12462943Y-12130552D01*
X12453419Y-12121028D01*
X12443895Y-12101981D01*
X12434371Y-12063886D01*
X12434371Y-12016267D01*
X12443895Y-11978171D01*
X12453419Y-11959124D01*
X12462943Y-11949600D01*
X12481990Y-11940076D01*
X12739133Y-12140076D02*
X12624848Y-12140076D01*
X12681990Y-12140076D02*
X12681990Y-11940076D01*
X12662943Y-11968648D01*
X12643895Y-11987695D01*
X12624848Y-11997219D01*
X12920086Y-11940076D02*
X12824848Y-11940076D01*
X12815324Y-12035314D01*
X12824848Y-12025790D01*
X12843895Y-12016267D01*
X12891514Y-12016267D01*
X12910562Y-12025790D01*
X12920086Y-12035314D01*
X12929609Y-12054362D01*
X12929609Y-12101981D01*
X12920086Y-12121028D01*
X12910562Y-12130552D01*
X12891514Y-12140076D01*
X12843895Y-12140076D01*
X12824848Y-12130552D01*
X12815324Y-12121028D01*
X12996276Y-11940076D02*
X13129609Y-11940076D01*
X13043895Y-12140076D01*
X13196276Y-11940076D02*
X13196276Y-11978171D01*
X13272467Y-11940076D02*
X13272467Y-11978171D01*
X13567705Y-12216267D02*
X13558181Y-12206743D01*
X13539133Y-12178171D01*
X13529609Y-12159124D01*
X13520086Y-12130552D01*
X13510562Y-12082933D01*
X13510562Y-12044838D01*
X13520086Y-11997219D01*
X13529609Y-11968648D01*
X13539133Y-11949600D01*
X13558181Y-11921028D01*
X13567705Y-11911505D01*
X13748657Y-12140076D02*
X13634371Y-12140076D01*
X13691514Y-12140076D02*
X13691514Y-11940076D01*
X13672467Y-11968648D01*
X13653419Y-11987695D01*
X13634371Y-11997219D01*
X13824848Y-11959124D02*
X13834371Y-11949600D01*
X13853419Y-11940076D01*
X13901038Y-11940076D01*
X13920086Y-11949600D01*
X13929609Y-11959124D01*
X13939133Y-11978171D01*
X13939133Y-11997219D01*
X13929609Y-12025790D01*
X13815324Y-12140076D01*
X13939133Y-12140076D01*
X14177228Y-12140076D02*
X14177228Y-11940076D01*
X14262943Y-12140076D02*
X14262943Y-12035314D01*
X14253419Y-12016267D01*
X14234371Y-12006743D01*
X14205800Y-12006743D01*
X14186752Y-12016267D01*
X14177228Y-12025790D01*
X14386752Y-12140076D02*
X14367705Y-12130552D01*
X14358181Y-12121028D01*
X14348657Y-12101981D01*
X14348657Y-12044838D01*
X14358181Y-12025790D01*
X14367705Y-12016267D01*
X14386752Y-12006743D01*
X14415324Y-12006743D01*
X14434371Y-12016267D01*
X14443895Y-12025790D01*
X14453419Y-12044838D01*
X14453419Y-12101981D01*
X14443895Y-12121028D01*
X14434371Y-12130552D01*
X14415324Y-12140076D01*
X14386752Y-12140076D01*
X14567705Y-12140076D02*
X14548657Y-12130552D01*
X14539133Y-12111505D01*
X14539133Y-11940076D01*
X14720086Y-12130552D02*
X14701038Y-12140076D01*
X14662943Y-12140076D01*
X14643895Y-12130552D01*
X14634371Y-12111505D01*
X14634371Y-12035314D01*
X14643895Y-12016267D01*
X14662943Y-12006743D01*
X14701038Y-12006743D01*
X14720086Y-12016267D01*
X14729609Y-12035314D01*
X14729609Y-12054362D01*
X14634371Y-12073409D01*
X14805800Y-12130552D02*
X14824848Y-12140076D01*
X14862943Y-12140076D01*
X14881990Y-12130552D01*
X14891514Y-12111505D01*
X14891514Y-12101981D01*
X14881990Y-12082933D01*
X14862943Y-12073409D01*
X14834371Y-12073409D01*
X14815324Y-12063886D01*
X14805800Y-12044838D01*
X14805800Y-12035314D01*
X14815324Y-12016267D01*
X14834371Y-12006743D01*
X14862943Y-12006743D01*
X14881990Y-12016267D01*
X14958181Y-12216267D02*
X14967705Y-12206743D01*
X14986752Y-12178171D01*
X14996276Y-12159124D01*
X15005800Y-12130552D01*
X15015324Y-12082933D01*
X15015324Y-12044838D01*
X15005800Y-11997219D01*
X14996276Y-11968648D01*
X14986752Y-11949600D01*
X14967705Y-11921028D01*
X14958181Y-11911505D01*
M02*
