%TF.GenerationSoftware,KiCad,Pcbnew,7.0.7*%
%TF.CreationDate,2023-12-24T20:56:03+03:00*%
%TF.ProjectId,Main_PCB_002,4d61696e-5f50-4434-925f-3030322e6b69,rev?*%
%TF.SameCoordinates,Original*%
%TF.FileFunction,Paste,Top*%
%TF.FilePolarity,Positive*%
%FSLAX46Y46*%
G04 Gerber Fmt 4.6, Leading zero omitted, Abs format (unit mm)*
G04 Created by KiCad (PCBNEW 7.0.7) date 2023-12-24 20:56:03*
%MOMM*%
%LPD*%
G01*
G04 APERTURE LIST*
G04 Aperture macros list*
%AMRoundRect*
0 Rectangle with rounded corners*
0 $1 Rounding radius*
0 $2 $3 $4 $5 $6 $7 $8 $9 X,Y pos of 4 corners*
0 Add a 4 corners polygon primitive as box body*
4,1,4,$2,$3,$4,$5,$6,$7,$8,$9,$2,$3,0*
0 Add four circle primitives for the rounded corners*
1,1,$1+$1,$2,$3*
1,1,$1+$1,$4,$5*
1,1,$1+$1,$6,$7*
1,1,$1+$1,$8,$9*
0 Add four rect primitives between the rounded corners*
20,1,$1+$1,$2,$3,$4,$5,0*
20,1,$1+$1,$4,$5,$6,$7,0*
20,1,$1+$1,$6,$7,$8,$9,0*
20,1,$1+$1,$8,$9,$2,$3,0*%
G04 Aperture macros list end*
%ADD10RoundRect,0.250000X-0.475000X0.337500X-0.475000X-0.337500X0.475000X-0.337500X0.475000X0.337500X0*%
%ADD11RoundRect,0.237500X-0.300000X-0.237500X0.300000X-0.237500X0.300000X0.237500X-0.300000X0.237500X0*%
%ADD12R,1.092200X3.708400*%
%ADD13RoundRect,0.250000X0.475000X-0.337500X0.475000X0.337500X-0.475000X0.337500X-0.475000X-0.337500X0*%
%ADD14RoundRect,0.237500X-0.237500X0.300000X-0.237500X-0.300000X0.237500X-0.300000X0.237500X0.300000X0*%
%ADD15RoundRect,0.237500X0.237500X-0.300000X0.237500X0.300000X-0.237500X0.300000X-0.237500X-0.300000X0*%
%ADD16R,0.599999X0.249999*%
G04 APERTURE END LIST*
%TO.C,U1*%
G36*
X125098401Y-123838000D02*
G01*
X123950400Y-123838000D01*
X123950400Y-122528000D01*
X125098401Y-122528000D01*
X125098401Y-123838000D01*
G37*
G36*
X125098401Y-122328000D02*
G01*
X123950400Y-122328000D01*
X123950400Y-121018000D01*
X125098401Y-121018000D01*
X125098401Y-122328000D01*
G37*
G36*
X123750403Y-123838000D02*
G01*
X122602401Y-123838000D01*
X122602401Y-122528000D01*
X123750403Y-122528000D01*
X123750403Y-123838000D01*
G37*
G36*
X123750403Y-122328000D02*
G01*
X122602401Y-122328000D01*
X122602401Y-121018000D01*
X123750403Y-121018000D01*
X123750403Y-122328000D01*
G37*
%TD*%
D10*
%TO.C,C28*%
X134112000Y-123952000D03*
X134112000Y-121877000D03*
%TD*%
D11*
%TO.C,C26*%
X123062500Y-125400000D03*
X121337500Y-125400000D03*
%TD*%
D12*
%TO.C,L1*%
X129133600Y-122377200D03*
X132130800Y-122377200D03*
%TD*%
D13*
%TO.C,C5*%
X120100000Y-120125000D03*
X120100000Y-122200000D03*
%TD*%
D14*
%TO.C,C2*%
X127406400Y-125473800D03*
X127406400Y-123748800D03*
%TD*%
D15*
%TO.C,C27*%
X127050800Y-120397100D03*
X127050800Y-122122100D03*
%TD*%
D16*
%TO.C,U1*%
X125750399Y-121178000D03*
X125750399Y-121677999D03*
X125750399Y-122177998D03*
X125750399Y-122678000D03*
X125750399Y-123177998D03*
X125750399Y-123678000D03*
X121950401Y-123678000D03*
X121950401Y-123177998D03*
X121950401Y-122678000D03*
X121950401Y-122178000D03*
X121950401Y-121677999D03*
X121950401Y-121178000D03*
%TD*%
M02*
