%TF.GenerationSoftware,KiCad,Pcbnew,7.0.7*%
%TF.CreationDate,2023-12-24T20:56:02+03:00*%
%TF.ProjectId,Main_PCB_002,4d61696e-5f50-4434-925f-3030322e6b69,rev?*%
%TF.SameCoordinates,Original*%
%TF.FileFunction,Soldermask,Top*%
%TF.FilePolarity,Negative*%
%FSLAX46Y46*%
G04 Gerber Fmt 4.6, Leading zero omitted, Abs format (unit mm)*
G04 Created by KiCad (PCBNEW 7.0.7) date 2023-12-24 20:56:02*
%MOMM*%
%LPD*%
G01*
G04 APERTURE LIST*
G04 Aperture macros list*
%AMRoundRect*
0 Rectangle with rounded corners*
0 $1 Rounding radius*
0 $2 $3 $4 $5 $6 $7 $8 $9 X,Y pos of 4 corners*
0 Add a 4 corners polygon primitive as box body*
4,1,4,$2,$3,$4,$5,$6,$7,$8,$9,$2,$3,0*
0 Add four circle primitives for the rounded corners*
1,1,$1+$1,$2,$3*
1,1,$1+$1,$4,$5*
1,1,$1+$1,$6,$7*
1,1,$1+$1,$8,$9*
0 Add four rect primitives between the rounded corners*
20,1,$1+$1,$2,$3,$4,$5,0*
20,1,$1+$1,$4,$5,$6,$7,0*
20,1,$1+$1,$6,$7,$8,$9,0*
20,1,$1+$1,$8,$9,$2,$3,0*%
G04 Aperture macros list end*
%ADD10C,1.600000*%
%ADD11RoundRect,0.250000X-0.475000X0.337500X-0.475000X-0.337500X0.475000X-0.337500X0.475000X0.337500X0*%
%ADD12RoundRect,0.237500X-0.300000X-0.237500X0.300000X-0.237500X0.300000X0.237500X-0.300000X0.237500X0*%
%ADD13R,1.092200X3.708400*%
%ADD14RoundRect,0.250000X0.475000X-0.337500X0.475000X0.337500X-0.475000X0.337500X-0.475000X-0.337500X0*%
%ADD15RoundRect,0.237500X-0.237500X0.300000X-0.237500X-0.300000X0.237500X-0.300000X0.237500X0.300000X0*%
%ADD16RoundRect,0.237500X0.237500X-0.300000X0.237500X0.300000X-0.237500X0.300000X-0.237500X-0.300000X0*%
%ADD17C,0.499999*%
%ADD18R,2.600000X2.999999*%
%ADD19R,0.599999X0.249999*%
G04 APERTURE END LIST*
D10*
%TO.C,D8*%
X119800000Y-129500000D03*
%TD*%
%TO.C,D5*%
X119800000Y-117300000D03*
%TD*%
D11*
%TO.C,C28*%
X134112000Y-123952000D03*
X134112000Y-121877000D03*
%TD*%
D12*
%TO.C,C26*%
X123062500Y-125400000D03*
X121337500Y-125400000D03*
%TD*%
D10*
%TO.C,D1*%
X125200000Y-119100000D03*
%TD*%
D13*
%TO.C,L1*%
X129133600Y-122377200D03*
X132130800Y-122377200D03*
%TD*%
D10*
%TO.C,D9*%
X129743200Y-126085600D03*
%TD*%
%TO.C,D18*%
X115366800Y-126000000D03*
%TD*%
D14*
%TO.C,C5*%
X120100000Y-120125000D03*
X120100000Y-122200000D03*
%TD*%
D10*
%TO.C,D7*%
X132334000Y-125984000D03*
%TD*%
%TO.C,D19*%
X115316000Y-123000000D03*
%TD*%
%TO.C,D2*%
X136499600Y-120904000D03*
%TD*%
%TO.C,D6*%
X125000000Y-126339600D03*
%TD*%
D15*
%TO.C,C2*%
X127406400Y-125473800D03*
X127406400Y-123748800D03*
%TD*%
D16*
%TO.C,C27*%
X127050800Y-120397100D03*
X127050800Y-122122100D03*
%TD*%
D17*
%TO.C,U1*%
X124850401Y-122428000D03*
X123850400Y-123628000D03*
X123850400Y-122428000D03*
X123850400Y-121228000D03*
X122850399Y-122428000D03*
D18*
X123850400Y-122428000D03*
D19*
X125750399Y-121178000D03*
X125750399Y-121677999D03*
X125750399Y-122177998D03*
X125750399Y-122678000D03*
X125750399Y-123177998D03*
X125750399Y-123678000D03*
X121950401Y-123678000D03*
X121950401Y-123177998D03*
X121950401Y-122678000D03*
X121950401Y-122178000D03*
X121950401Y-121677999D03*
X121950401Y-121178000D03*
%TD*%
D10*
%TO.C,D17*%
X115316000Y-120000000D03*
%TD*%
%TO.C,D4*%
X128600000Y-119100000D03*
%TD*%
%TO.C,D3*%
X136550400Y-124663200D03*
%TD*%
M02*
