M48
; DRILL file {KiCad 7.0.7} date Tue Jul 30 16:57:17 2024
; FORMAT={-:-/ absolute / inch / decimal}
; #@! TF.CreationDate,2024-07-30T16:57:17+03:00
; #@! TF.GenerationSoftware,Kicad,Pcbnew,7.0.7
; #@! TF.FileFunction,Plated,1,4,PTH
FMAT,2
INCH
; #@! TA.AperFunction,Plated,PTH,ComponentDrill
T1C0.0080
; #@! TA.AperFunction,Plated,PTH,ViaDrill
T2C0.0118
; #@! TA.AperFunction,Plated,PTH,ViaDrill
T3C0.0157
; #@! TA.AperFunction,Plated,PTH,ComponentDrill
T4C0.0315
%
G90
G05
T1
X4.0776Y-4.801
X4.117Y-4.7538
X4.117Y-4.801
X4.117Y-4.8482
X4.1564Y-4.801
X4.8362Y-4.866
X4.8755Y-4.8188
X4.8755Y-4.866
X4.8755Y-4.9133
X4.9149Y-4.866
T2
X3.577Y-4.919
X3.587Y-4.742
X3.596Y-4.863
X3.597Y-4.819
X3.6036Y-4.7845
X3.628Y-4.919
X3.709Y-4.734
X3.717Y-4.867
X3.7793Y-4.7566
X3.854Y-4.783
X3.854Y-4.849
X3.854Y-4.92
X3.855Y-4.815
X3.932Y-4.921
X4.0097Y-4.7531
X4.0672Y-4.752
X4.083Y-4.925
X4.2316Y-4.7816
X4.308Y-4.7505
X4.375Y-4.751
X4.3758Y-4.7994
X4.397Y-4.921
X4.3998Y-4.761
X4.536Y-4.73
X4.541Y-4.908
X4.613Y-4.9094
X4.627Y-4.877
X4.7728Y-4.8789
X4.786Y-4.743
X4.8743Y-4.7528
X4.916Y-4.7484
X4.938Y-4.922
X4.9989Y-4.9399
X5.057Y-4.81
X5.14Y-4.861
X5.142Y-4.821
X5.146Y-4.753
X5.1677Y-4.9401
X5.271Y-4.796
X5.285Y-4.931
X5.377Y-4.835
X5.382Y-4.779
X5.398Y-4.8804
X5.417Y-4.926
T3
X3.641Y-4.855
X3.6424Y-4.7633
X3.745Y-4.91
X4.432Y-4.834
X4.5758Y-4.875
X5.277Y-4.7425
X5.339Y-4.795
X5.339Y-4.8902
X5.365Y-4.734
T4
X4.492Y-4.759
X4.492Y-4.815
X4.492Y-4.871
X4.492Y-4.927
T0
M30
