%TF.GenerationSoftware,KiCad,Pcbnew,7.0.7*%
%TF.CreationDate,2024-07-30T16:57:17+03:00*%
%TF.ProjectId,BANO_StepDown_LM5160_Total_Duplicate,42414e4f-5f53-4746-9570-446f776e5f4c,rev?*%
%TF.SameCoordinates,Original*%
%TF.FileFunction,Copper,L4,Bot*%
%TF.FilePolarity,Positive*%
%FSLAX46Y46*%
G04 Gerber Fmt 4.6, Leading zero omitted, Abs format (unit mm)*
G04 Created by KiCad (PCBNEW 7.0.7) date 2024-07-30 16:57:17*
%MOMM*%
%LPD*%
G01*
G04 APERTURE LIST*
G04 Aperture macros list*
%AMRoundRect*
0 Rectangle with rounded corners*
0 $1 Rounding radius*
0 $2 $3 $4 $5 $6 $7 $8 $9 X,Y pos of 4 corners*
0 Add a 4 corners polygon primitive as box body*
4,1,4,$2,$3,$4,$5,$6,$7,$8,$9,$2,$3,0*
0 Add four circle primitives for the rounded corners*
1,1,$1+$1,$2,$3*
1,1,$1+$1,$4,$5*
1,1,$1+$1,$6,$7*
1,1,$1+$1,$8,$9*
0 Add four rect primitives between the rounded corners*
20,1,$1+$1,$2,$3,$4,$5,0*
20,1,$1+$1,$4,$5,$6,$7,0*
20,1,$1+$1,$6,$7,$8,$9,0*
20,1,$1+$1,$8,$9,$2,$3,0*%
G04 Aperture macros list end*
%TA.AperFunction,ComponentPad*%
%ADD10C,1.000000*%
%TD*%
%TA.AperFunction,ComponentPad*%
%ADD11C,0.499999*%
%TD*%
%TA.AperFunction,SMDPad,CuDef*%
%ADD12R,0.500000X4.780000*%
%TD*%
%TA.AperFunction,SMDPad,CuDef*%
%ADD13R,0.700000X4.780000*%
%TD*%
%TA.AperFunction,SMDPad,CuDef*%
%ADD14R,2.400000X4.780000*%
%TD*%
%TA.AperFunction,SMDPad,CuDef*%
%ADD15RoundRect,0.250000X-0.337500X-0.475000X0.337500X-0.475000X0.337500X0.475000X-0.337500X0.475000X0*%
%TD*%
%TA.AperFunction,SMDPad,CuDef*%
%ADD16RoundRect,0.250000X-0.475000X0.337500X-0.475000X-0.337500X0.475000X-0.337500X0.475000X0.337500X0*%
%TD*%
%TA.AperFunction,ViaPad*%
%ADD17C,0.500000*%
%TD*%
%TA.AperFunction,ViaPad*%
%ADD18C,0.800000*%
%TD*%
%TA.AperFunction,Conductor*%
%ADD19C,0.750000*%
%TD*%
%TA.AperFunction,Conductor*%
%ADD20C,1.000000*%
%TD*%
G04 APERTURE END LIST*
D10*
%TO.P,D3,1,Conn*%
%TO.N,Net-(D3-Conn)*%
X114096800Y-120878600D03*
%TD*%
%TO.P,,1,Conn*%
%TO.N,Net-(D2-Conn)*%
X114096800Y-125145800D03*
%TD*%
D11*
%TO.P,U1,V*%
%TO.N,GND2*%
X122838350Y-123597400D03*
X123838351Y-122397400D03*
X123838351Y-123597400D03*
X123838351Y-124797400D03*
X124838352Y-123597400D03*
%TD*%
D10*
%TO.P,D28,1,Conn*%
%TO.N,GND2*%
X114096800Y-122301000D03*
%TD*%
D11*
%TO.P,U3,V*%
%TO.N,GND2*%
X105571801Y-121945400D03*
X104571800Y-123145400D03*
X104571800Y-121945400D03*
X104571800Y-120745400D03*
X103571799Y-121945400D03*
%TD*%
D10*
%TO.P,D27,1,Conn*%
%TO.N,Net-(D27-Conn)*%
X114096800Y-123723400D03*
%TD*%
D12*
%TO.P,D6,1,K*%
%TO.N,Net-(D6-K)*%
X120504400Y-122707200D03*
D13*
%TO.P,D6,2,A*%
%TO.N,Net-(D6-A)*%
X116224400Y-122707200D03*
D14*
%TO.P,D6,3,PAD*%
%TO.N,GND2*%
X118364400Y-122707200D03*
%TD*%
D13*
%TO.P,D7,1,K*%
%TO.N,Net-(D7-K)*%
X126269400Y-122732600D03*
%TO.P,D7,2,A*%
%TO.N,Net-(D6-K)*%
X121989400Y-122732600D03*
D14*
%TO.P,D7,3,PAD*%
%TO.N,GND2*%
X124129400Y-122732600D03*
%TD*%
D15*
%TO.P,C18,1*%
%TO.N,Net-(D6-A)*%
X134620000Y-122834400D03*
%TO.P,C18,2*%
%TO.N,GND2*%
X136695000Y-122834400D03*
%TD*%
D13*
%TO.P,D10,1,K*%
%TO.N,Net-(D10-K)*%
X102508400Y-122809200D03*
%TO.P,D10,2,A*%
%TO.N,Net-(D10-A)*%
X106788400Y-122809200D03*
D14*
%TO.P,D10,3,PAD*%
%TO.N,GND2*%
X104648400Y-122809200D03*
%TD*%
D16*
%TO.P,C19,1*%
%TO.N,Net-(D9-A)*%
X93751400Y-122588200D03*
%TO.P,C19,2*%
%TO.N,GND2*%
X93751400Y-124663200D03*
%TD*%
D13*
%TO.P,D11,1,K*%
%TO.N,Net-(D11-K)*%
X96792600Y-122783400D03*
%TO.P,D11,2,A*%
%TO.N,Net-(D10-K)*%
X101072600Y-122783400D03*
D14*
%TO.P,D11,3,PAD*%
%TO.N,GND2*%
X98932600Y-122783400D03*
%TD*%
D13*
%TO.P,D9,1,K*%
%TO.N,Net-(D10-A)*%
X108274200Y-122783800D03*
%TO.P,D9,2,A*%
%TO.N,Net-(D9-A)*%
X112554200Y-122783800D03*
D14*
%TO.P,D9,3,PAD*%
%TO.N,GND2*%
X110414200Y-122783800D03*
%TD*%
D13*
%TO.P,D8,1,K*%
%TO.N,Net-(D8-K)*%
X131883600Y-122732600D03*
%TO.P,D8,2,A*%
%TO.N,Net-(D7-K)*%
X127603600Y-122732600D03*
D14*
%TO.P,D8,3,PAD*%
%TO.N,GND2*%
X129743600Y-122732600D03*
%TD*%
D17*
%TO.N,GND2*%
X133883400Y-121818400D03*
X137591800Y-125120400D03*
X94411800Y-123621800D03*
X125425200Y-125018800D03*
X90855800Y-124942600D03*
D18*
X136271000Y-120244301D03*
D17*
X111683800Y-124993400D03*
X128447800Y-122174000D03*
X103307902Y-120700800D03*
X97891600Y-123164600D03*
X91109800Y-120446800D03*
X97891600Y-121488200D03*
X97891600Y-124968000D03*
X117170200Y-124697900D03*
X123807950Y-120721000D03*
X97917000Y-122301000D03*
X91363800Y-122402600D03*
X103708200Y-125095000D03*
X136575800Y-122809000D03*
X130708400Y-120726200D03*
X109423654Y-120662101D03*
X124866400Y-120609300D03*
X92151200Y-124942600D03*
X130556000Y-123469400D03*
X115341400Y-124663200D03*
X111754698Y-120929400D03*
X111145824Y-121905135D03*
X130606800Y-122453400D03*
X99872800Y-124993400D03*
X115214400Y-120142000D03*
X117525800Y-123875800D03*
X121564400Y-120472200D03*
X111125000Y-120675400D03*
D18*
%TO.N,Net-(D6-A)*%
X116224400Y-123825000D03*
X134036900Y-120459300D03*
%TO.N,Net-(D8-K)*%
X135610600Y-124210901D03*
X135610600Y-121793000D03*
D17*
%TO.N,Net-(U1-FB)*%
X126971647Y-125472678D03*
X131260056Y-125479286D03*
%TO.N,Net-(U2-OUT)*%
X134239000Y-125247400D03*
X137109200Y-123962100D03*
%TO.N,Net-(D3-Conn)*%
X136702800Y-121386600D03*
X91338400Y-123520200D03*
D18*
%TO.N,Net-(D9-A)*%
X95123000Y-124714000D03*
X112572800Y-122783600D03*
D17*
%TO.N,Net-(U3-FB)*%
X95993333Y-120818820D03*
X101846405Y-120729147D03*
%TO.N,Net-(D2-Conn)*%
X107483411Y-121453500D03*
X121228034Y-123923716D03*
D18*
%TO.N,Net-(D11-K)*%
X92481400Y-123317000D03*
X92517237Y-120987061D03*
D17*
%TO.N,Net-(U4-OUT)*%
X91531900Y-121527402D03*
X94208600Y-120243600D03*
%TD*%
D19*
%TO.N,Net-(D8-K)*%
X131883600Y-122732600D02*
X134132299Y-122732600D01*
X134132299Y-122732600D02*
X135610600Y-124210901D01*
D20*
%TO.N,Net-(D6-K)*%
X121964000Y-122707200D02*
X121989400Y-122732600D01*
X120504400Y-122707200D02*
X121964000Y-122707200D01*
%TO.N,Net-(D7-K)*%
X126269400Y-122732600D02*
X127603600Y-122732600D01*
%TO.N,Net-(D9-A)*%
X94717803Y-122584300D02*
X95361800Y-123228297D01*
X95361800Y-123228297D02*
X95361800Y-124475200D01*
X93675200Y-122584300D02*
X94717803Y-122584300D01*
X95361800Y-124475200D02*
X95123000Y-124714000D01*
D19*
%TO.N,Net-(D10-A)*%
X106788400Y-122809200D02*
X108248800Y-122809200D01*
X108248800Y-122809200D02*
X108274200Y-122783800D01*
%TO.N,Net-(D10-K)*%
X102482600Y-122783400D02*
X102508400Y-122809200D01*
X101072600Y-122783400D02*
X102482600Y-122783400D01*
%TD*%
%TA.AperFunction,Conductor*%
%TO.N,GND2*%
G36*
X141929039Y-119145685D02*
G01*
X141974794Y-119198489D01*
X141986000Y-119250000D01*
X141986000Y-126114000D01*
X141966315Y-126181039D01*
X141913511Y-126226794D01*
X141862000Y-126238000D01*
X87246000Y-126238000D01*
X87178961Y-126218315D01*
X87133206Y-126165511D01*
X87122000Y-126114000D01*
X87122000Y-123520200D01*
X90832753Y-123520200D01*
X90853234Y-123662656D01*
X90901774Y-123768942D01*
X90913023Y-123793573D01*
X91007272Y-123902343D01*
X91128347Y-123980153D01*
X91128350Y-123980154D01*
X91128349Y-123980154D01*
X91266436Y-124020699D01*
X91266438Y-124020700D01*
X91266439Y-124020700D01*
X91410362Y-124020700D01*
X91410362Y-124020699D01*
X91517521Y-123989235D01*
X91548450Y-123980154D01*
X91548450Y-123980153D01*
X91548453Y-123980153D01*
X91669528Y-123902343D01*
X91763777Y-123793573D01*
X91775026Y-123768940D01*
X91820780Y-123716138D01*
X91887820Y-123696453D01*
X91954859Y-123716137D01*
X91985782Y-123746058D01*
X91985943Y-123745916D01*
X91987787Y-123747997D01*
X91989869Y-123750012D01*
X91990917Y-123751530D01*
X92109160Y-123856283D01*
X92109162Y-123856284D01*
X92249034Y-123929696D01*
X92402414Y-123967500D01*
X92402415Y-123967500D01*
X92560385Y-123967500D01*
X92713765Y-123929696D01*
X92731530Y-123920372D01*
X92853640Y-123856283D01*
X92971883Y-123751530D01*
X93061620Y-123621523D01*
X93105424Y-123506020D01*
X93147601Y-123450319D01*
X93213198Y-123426262D01*
X93228038Y-123426173D01*
X93228498Y-123426196D01*
X93228527Y-123426200D01*
X94274272Y-123426199D01*
X94333883Y-123419791D01*
X94374327Y-123404705D01*
X94444017Y-123399720D01*
X94505338Y-123433202D01*
X94574983Y-123502847D01*
X94608466Y-123564166D01*
X94611300Y-123590525D01*
X94611300Y-124112969D01*
X94591615Y-124180008D01*
X94574981Y-124200650D01*
X94561414Y-124214216D01*
X94479887Y-124317325D01*
X94405742Y-124476328D01*
X94370266Y-124648141D01*
X94370266Y-124648143D01*
X94370266Y-124648144D01*
X94375369Y-124823512D01*
X94375369Y-124823515D01*
X94375370Y-124823516D01*
X94420776Y-124992975D01*
X94504041Y-125147400D01*
X94620087Y-125277800D01*
X94620674Y-125278459D01*
X94764388Y-125379088D01*
X94764393Y-125379090D01*
X94764395Y-125379091D01*
X94927429Y-125443861D01*
X94927431Y-125443861D01*
X94927433Y-125443862D01*
X95101023Y-125469289D01*
X95275797Y-125453999D01*
X95442334Y-125398814D01*
X95591656Y-125306712D01*
X95847444Y-125050921D01*
X95861071Y-125039146D01*
X95880330Y-125024810D01*
X95913911Y-124984787D01*
X95917567Y-124980799D01*
X95919581Y-124978786D01*
X95923390Y-124974977D01*
X95943727Y-124949255D01*
X95973112Y-124914236D01*
X96031283Y-124875536D01*
X96101144Y-124874428D01*
X96160514Y-124911266D01*
X96190543Y-124974353D01*
X96192100Y-124993944D01*
X96192100Y-125198078D01*
X96206632Y-125271135D01*
X96206633Y-125271139D01*
X96211524Y-125278459D01*
X96261999Y-125354001D01*
X96329065Y-125398812D01*
X96344860Y-125409366D01*
X96344864Y-125409367D01*
X96417921Y-125423899D01*
X96417924Y-125423900D01*
X96417926Y-125423900D01*
X97167276Y-125423900D01*
X97167277Y-125423899D01*
X97240340Y-125409366D01*
X97323201Y-125354001D01*
X97378566Y-125271140D01*
X97393100Y-125198074D01*
X97393100Y-122743814D01*
X100443373Y-122743814D01*
X100453296Y-122901537D01*
X100453296Y-122901540D01*
X100460566Y-122923912D01*
X100465931Y-122940425D01*
X100466031Y-122940731D01*
X100472100Y-122979050D01*
X100472100Y-125198078D01*
X100486632Y-125271135D01*
X100486633Y-125271139D01*
X100491524Y-125278459D01*
X100541999Y-125354001D01*
X100609065Y-125398812D01*
X100624860Y-125409366D01*
X100624864Y-125409367D01*
X100697921Y-125423899D01*
X100697924Y-125423900D01*
X100697926Y-125423900D01*
X101447276Y-125423900D01*
X101447277Y-125423899D01*
X101520340Y-125409366D01*
X101603201Y-125354001D01*
X101658566Y-125271140D01*
X101658567Y-125271135D01*
X101666317Y-125232177D01*
X101698702Y-125170266D01*
X101759417Y-125135692D01*
X101829187Y-125139431D01*
X101885859Y-125180298D01*
X101909551Y-125232177D01*
X101922432Y-125296935D01*
X101922433Y-125296939D01*
X101933213Y-125313072D01*
X101977799Y-125379801D01*
X102043799Y-125423900D01*
X102060660Y-125435166D01*
X102060664Y-125435167D01*
X102133721Y-125449699D01*
X102133724Y-125449700D01*
X102133726Y-125449700D01*
X102883076Y-125449700D01*
X102883077Y-125449699D01*
X102956140Y-125435166D01*
X103039001Y-125379801D01*
X103094366Y-125296940D01*
X103108900Y-125223874D01*
X103108900Y-123003787D01*
X103111886Y-122976739D01*
X103115759Y-122959410D01*
X103136073Y-122868533D01*
X103132965Y-122769614D01*
X106159173Y-122769614D01*
X106161312Y-122803606D01*
X106168880Y-122923912D01*
X106169096Y-122927337D01*
X106169097Y-122927346D01*
X106181830Y-122966533D01*
X106187899Y-123004850D01*
X106187899Y-125223876D01*
X106187900Y-125223878D01*
X106202432Y-125296935D01*
X106202433Y-125296939D01*
X106213213Y-125313072D01*
X106257799Y-125379801D01*
X106323799Y-125423900D01*
X106340660Y-125435166D01*
X106340664Y-125435167D01*
X106413721Y-125449699D01*
X106413724Y-125449700D01*
X106413726Y-125449700D01*
X107163076Y-125449700D01*
X107163077Y-125449699D01*
X107236140Y-125435166D01*
X107319001Y-125379801D01*
X107374366Y-125296940D01*
X107388900Y-125223874D01*
X107388900Y-123558700D01*
X107408585Y-123491661D01*
X107461389Y-123445906D01*
X107512900Y-123434700D01*
X107549700Y-123434700D01*
X107616739Y-123454385D01*
X107662494Y-123507189D01*
X107673700Y-123558700D01*
X107673699Y-125198476D01*
X107673700Y-125198478D01*
X107688232Y-125271535D01*
X107688233Y-125271539D01*
X107705202Y-125296935D01*
X107743599Y-125354401D01*
X107796664Y-125389857D01*
X107826460Y-125409766D01*
X107826464Y-125409767D01*
X107899521Y-125424299D01*
X107899524Y-125424300D01*
X107899526Y-125424300D01*
X108648876Y-125424300D01*
X108648877Y-125424299D01*
X108721940Y-125409766D01*
X108804801Y-125354401D01*
X108860166Y-125271540D01*
X108874700Y-125198474D01*
X108874700Y-122994340D01*
X108878531Y-122967420D01*
X108878418Y-122967403D01*
X108879564Y-122960164D01*
X108879625Y-122959739D01*
X108879636Y-122959700D01*
X108879638Y-122959696D01*
X108879638Y-122959691D01*
X108879640Y-122959687D01*
X108904359Y-122803609D01*
X108904360Y-122803604D01*
X108902469Y-122783600D01*
X111917522Y-122783600D01*
X111936562Y-122940415D01*
X111936564Y-122940425D01*
X111945641Y-122964356D01*
X111953700Y-123008328D01*
X111953700Y-125198478D01*
X111968232Y-125271535D01*
X111968233Y-125271539D01*
X111985202Y-125296935D01*
X112023599Y-125354401D01*
X112076664Y-125389857D01*
X112106460Y-125409766D01*
X112106464Y-125409767D01*
X112179521Y-125424299D01*
X112179524Y-125424300D01*
X112179526Y-125424300D01*
X112928876Y-125424300D01*
X112928877Y-125424299D01*
X113001940Y-125409766D01*
X113084801Y-125354401D01*
X113137255Y-125275895D01*
X113190864Y-125231092D01*
X113260189Y-125222383D01*
X113323217Y-125252537D01*
X113357242Y-125307616D01*
X113358187Y-125307286D01*
X113359688Y-125311576D01*
X113359937Y-125311979D01*
X113360211Y-125313072D01*
X113416345Y-125473494D01*
X113416347Y-125473497D01*
X113506318Y-125616684D01*
X113506323Y-125616690D01*
X113625909Y-125736276D01*
X113625915Y-125736281D01*
X113769102Y-125826252D01*
X113769105Y-125826254D01*
X113769109Y-125826255D01*
X113769110Y-125826256D01*
X113841713Y-125851660D01*
X113928743Y-125882114D01*
X114096797Y-125901049D01*
X114096800Y-125901049D01*
X114096803Y-125901049D01*
X114264856Y-125882114D01*
X114264859Y-125882113D01*
X114424490Y-125826256D01*
X114424492Y-125826254D01*
X114424494Y-125826254D01*
X114424497Y-125826252D01*
X114567684Y-125736281D01*
X114567685Y-125736280D01*
X114567690Y-125736277D01*
X114687277Y-125616690D01*
X114747546Y-125520773D01*
X114777252Y-125473497D01*
X114777254Y-125473494D01*
X114777254Y-125473492D01*
X114777256Y-125473490D01*
X114833113Y-125313859D01*
X114833113Y-125313858D01*
X114833114Y-125313856D01*
X114852049Y-125145802D01*
X114852049Y-125145797D01*
X114833114Y-124977743D01*
X114779176Y-124823597D01*
X114777256Y-124818110D01*
X114777255Y-124818109D01*
X114777254Y-124818105D01*
X114777252Y-124818102D01*
X114687281Y-124674915D01*
X114687276Y-124674909D01*
X114567690Y-124555323D01*
X114567690Y-124555322D01*
X114542656Y-124539593D01*
X114496366Y-124487259D01*
X114485718Y-124418206D01*
X114514093Y-124354357D01*
X114542655Y-124329607D01*
X114567690Y-124313877D01*
X114687277Y-124194290D01*
X114738375Y-124112969D01*
X114777252Y-124051097D01*
X114777254Y-124051094D01*
X114777255Y-124051091D01*
X114777256Y-124051090D01*
X114833113Y-123891459D01*
X114833113Y-123891458D01*
X114833114Y-123891456D01*
X114840602Y-123825000D01*
X115569121Y-123825000D01*
X115588163Y-123981819D01*
X115588163Y-123981821D01*
X115615841Y-124054802D01*
X115623899Y-124098772D01*
X115623899Y-125121876D01*
X115623900Y-125121878D01*
X115638432Y-125194935D01*
X115638433Y-125194939D01*
X115640798Y-125198478D01*
X115693799Y-125277801D01*
X115747765Y-125313859D01*
X115776660Y-125333166D01*
X115776664Y-125333167D01*
X115849721Y-125347699D01*
X115849724Y-125347700D01*
X115849726Y-125347700D01*
X116599076Y-125347700D01*
X116599077Y-125347699D01*
X116672140Y-125333166D01*
X116755001Y-125277801D01*
X116810366Y-125194940D01*
X116824900Y-125121874D01*
X116824900Y-124098772D01*
X116832958Y-124054800D01*
X116833230Y-124054083D01*
X116860637Y-123981818D01*
X116879678Y-123825000D01*
X116860637Y-123668182D01*
X116832958Y-123595198D01*
X116824900Y-123551227D01*
X116824900Y-122751133D01*
X119750068Y-122751133D01*
X119773228Y-122882471D01*
X119780535Y-122923911D01*
X119850023Y-123085004D01*
X119850024Y-123085006D01*
X119850026Y-123085009D01*
X119954790Y-123225730D01*
X119959609Y-123229774D01*
X119998309Y-123287947D01*
X120003899Y-123324760D01*
X120003899Y-125121876D01*
X120003900Y-125121878D01*
X120018432Y-125194935D01*
X120018433Y-125194939D01*
X120020798Y-125198478D01*
X120073799Y-125277801D01*
X120127765Y-125313859D01*
X120156660Y-125333166D01*
X120156664Y-125333167D01*
X120229721Y-125347699D01*
X120229724Y-125347700D01*
X120229726Y-125347700D01*
X120779076Y-125347700D01*
X120779077Y-125347699D01*
X120852140Y-125333166D01*
X120935001Y-125277801D01*
X120990366Y-125194940D01*
X121004900Y-125121874D01*
X121004900Y-124545472D01*
X121024585Y-124478433D01*
X121077389Y-124432678D01*
X121146547Y-124422734D01*
X121148068Y-124423065D01*
X121156072Y-124424216D01*
X121264900Y-124424216D01*
X121331939Y-124443901D01*
X121377694Y-124496705D01*
X121388900Y-124548216D01*
X121388900Y-125147278D01*
X121403432Y-125220335D01*
X121403433Y-125220339D01*
X121405798Y-125223878D01*
X121458799Y-125303201D01*
X121534828Y-125354001D01*
X121541660Y-125358566D01*
X121541664Y-125358567D01*
X121614721Y-125373099D01*
X121614724Y-125373100D01*
X121614726Y-125373100D01*
X122364076Y-125373100D01*
X122364077Y-125373099D01*
X122437140Y-125358566D01*
X122520001Y-125303201D01*
X122575366Y-125220340D01*
X122589900Y-125147274D01*
X122589899Y-123222549D01*
X122609585Y-123155511D01*
X122612311Y-123151446D01*
X122654488Y-123091212D01*
X122656954Y-123085004D01*
X122719261Y-122928170D01*
X122719261Y-122928169D01*
X122719262Y-122928167D01*
X122741473Y-122776533D01*
X125515068Y-122776533D01*
X125541807Y-122928170D01*
X125545535Y-122949311D01*
X125615023Y-123110404D01*
X125644363Y-123149815D01*
X125668607Y-123215342D01*
X125668900Y-123223862D01*
X125668900Y-125147278D01*
X125683432Y-125220335D01*
X125683433Y-125220339D01*
X125685798Y-125223878D01*
X125738799Y-125303201D01*
X125814828Y-125354001D01*
X125821660Y-125358566D01*
X125821664Y-125358567D01*
X125894721Y-125373099D01*
X125894724Y-125373100D01*
X125894726Y-125373100D01*
X126344236Y-125373100D01*
X126411275Y-125392785D01*
X126457030Y-125445589D01*
X126466974Y-125479453D01*
X126486481Y-125615134D01*
X126528597Y-125707353D01*
X126546270Y-125746051D01*
X126640519Y-125854821D01*
X126761594Y-125932631D01*
X126761597Y-125932632D01*
X126761596Y-125932632D01*
X126899683Y-125973177D01*
X126899685Y-125973178D01*
X126899686Y-125973178D01*
X127043609Y-125973178D01*
X127043609Y-125973177D01*
X127181700Y-125932631D01*
X127302775Y-125854821D01*
X127397024Y-125746051D01*
X127456812Y-125615135D01*
X127476319Y-125479453D01*
X127476396Y-125479285D01*
X130754409Y-125479285D01*
X130774890Y-125621742D01*
X130827199Y-125736281D01*
X130834679Y-125752659D01*
X130928928Y-125861429D01*
X131050003Y-125939239D01*
X131050006Y-125939240D01*
X131050005Y-125939240D01*
X131188092Y-125979785D01*
X131188094Y-125979786D01*
X131188095Y-125979786D01*
X131332018Y-125979786D01*
X131332018Y-125979785D01*
X131470109Y-125939239D01*
X131591184Y-125861429D01*
X131685433Y-125752659D01*
X131745221Y-125621743D01*
X131765678Y-125479453D01*
X131794704Y-125415897D01*
X131853482Y-125378123D01*
X131888417Y-125373100D01*
X132258276Y-125373100D01*
X132258277Y-125373099D01*
X132331340Y-125358566D01*
X132414201Y-125303201D01*
X132451485Y-125247400D01*
X133733353Y-125247400D01*
X133753834Y-125389856D01*
X133813622Y-125520771D01*
X133813623Y-125520773D01*
X133907872Y-125629543D01*
X134028947Y-125707353D01*
X134028950Y-125707354D01*
X134028949Y-125707354D01*
X134167036Y-125747899D01*
X134167038Y-125747900D01*
X134167039Y-125747900D01*
X134310962Y-125747900D01*
X134310962Y-125747899D01*
X134449053Y-125707353D01*
X134570128Y-125629543D01*
X134664377Y-125520773D01*
X134724165Y-125389857D01*
X134744647Y-125247400D01*
X134724165Y-125104943D01*
X134664377Y-124974027D01*
X134570128Y-124865257D01*
X134449053Y-124787447D01*
X134449051Y-124787446D01*
X134449049Y-124787445D01*
X134449050Y-124787445D01*
X134310963Y-124746900D01*
X134310961Y-124746900D01*
X134167039Y-124746900D01*
X134167036Y-124746900D01*
X134028949Y-124787445D01*
X133907873Y-124865256D01*
X133813623Y-124974026D01*
X133813622Y-124974028D01*
X133753834Y-125104943D01*
X133733353Y-125247400D01*
X132451485Y-125247400D01*
X132469566Y-125220340D01*
X132484100Y-125147274D01*
X132484100Y-123482100D01*
X132503785Y-123415061D01*
X132556589Y-123369306D01*
X132608100Y-123358100D01*
X133680389Y-123358100D01*
X133747428Y-123377785D01*
X133793183Y-123430589D01*
X133796571Y-123438767D01*
X133838702Y-123551728D01*
X133838706Y-123551735D01*
X133924952Y-123666944D01*
X133924955Y-123666947D01*
X134040164Y-123753193D01*
X134040171Y-123753197D01*
X134175016Y-123803491D01*
X134200919Y-123806275D01*
X134234627Y-123809900D01*
X134273644Y-123809899D01*
X134340683Y-123829582D01*
X134361327Y-123846218D01*
X135022071Y-124506962D01*
X135036438Y-124524200D01*
X135051121Y-124545472D01*
X135120115Y-124645429D01*
X135120117Y-124645431D01*
X135238360Y-124750184D01*
X135238362Y-124750185D01*
X135378234Y-124823597D01*
X135531614Y-124861401D01*
X135531615Y-124861401D01*
X135689585Y-124861401D01*
X135842965Y-124823597D01*
X135853435Y-124818102D01*
X135982840Y-124750184D01*
X136101083Y-124645431D01*
X136190820Y-124515424D01*
X136246837Y-124367719D01*
X136265878Y-124210901D01*
X136252966Y-124104556D01*
X136246837Y-124054082D01*
X136219431Y-123981819D01*
X136211953Y-123962100D01*
X136603553Y-123962100D01*
X136624034Y-124104556D01*
X136672601Y-124210900D01*
X136683823Y-124235473D01*
X136778072Y-124344243D01*
X136899147Y-124422053D01*
X136899150Y-124422054D01*
X136899149Y-124422054D01*
X137037236Y-124462599D01*
X137037238Y-124462600D01*
X137037239Y-124462600D01*
X137181162Y-124462600D01*
X137181162Y-124462599D01*
X137288321Y-124431135D01*
X137319250Y-124422054D01*
X137319250Y-124422053D01*
X137319253Y-124422053D01*
X137440328Y-124344243D01*
X137534577Y-124235473D01*
X137594365Y-124104557D01*
X137614847Y-123962100D01*
X137594365Y-123819643D01*
X137534577Y-123688727D01*
X137440328Y-123579957D01*
X137319253Y-123502147D01*
X137319251Y-123502146D01*
X137319249Y-123502145D01*
X137319250Y-123502145D01*
X137181163Y-123461600D01*
X137181161Y-123461600D01*
X137037239Y-123461600D01*
X137037236Y-123461600D01*
X136899149Y-123502145D01*
X136778073Y-123579956D01*
X136683823Y-123688726D01*
X136683822Y-123688728D01*
X136624034Y-123819643D01*
X136603553Y-123962100D01*
X136211953Y-123962100D01*
X136190820Y-123906378D01*
X136101083Y-123776371D01*
X135982840Y-123671618D01*
X135982838Y-123671617D01*
X135982837Y-123671616D01*
X135982833Y-123671613D01*
X135942868Y-123650638D01*
X135912813Y-123628523D01*
X135494318Y-123210028D01*
X135460833Y-123148705D01*
X135457999Y-123122347D01*
X135457999Y-122567500D01*
X135477684Y-122500461D01*
X135530488Y-122454706D01*
X135581999Y-122443500D01*
X135689585Y-122443500D01*
X135842965Y-122405696D01*
X135842964Y-122405696D01*
X135982840Y-122332283D01*
X136101083Y-122227530D01*
X136190820Y-122097523D01*
X136246837Y-121949818D01*
X136252439Y-121903678D01*
X136280060Y-121839500D01*
X136337994Y-121800443D01*
X136407847Y-121798908D01*
X136442572Y-121814307D01*
X136469425Y-121831565D01*
X136492748Y-121846554D01*
X136630836Y-121887099D01*
X136630838Y-121887100D01*
X136630839Y-121887100D01*
X136774762Y-121887100D01*
X136774762Y-121887099D01*
X136881921Y-121855635D01*
X136912850Y-121846554D01*
X136912850Y-121846553D01*
X136912853Y-121846553D01*
X137033928Y-121768743D01*
X137128177Y-121659973D01*
X137187965Y-121529057D01*
X137208447Y-121386600D01*
X137187965Y-121244143D01*
X137128177Y-121113227D01*
X137033928Y-121004457D01*
X136912853Y-120926647D01*
X136912851Y-120926646D01*
X136912849Y-120926645D01*
X136912850Y-120926645D01*
X136774763Y-120886100D01*
X136774761Y-120886100D01*
X136630839Y-120886100D01*
X136630836Y-120886100D01*
X136492749Y-120926645D01*
X136371673Y-121004456D01*
X136277423Y-121113226D01*
X136216494Y-121246640D01*
X136170738Y-121299443D01*
X136103699Y-121319127D01*
X136036659Y-121299442D01*
X136021477Y-121287946D01*
X135998056Y-121267197D01*
X135982837Y-121253714D01*
X135842965Y-121180303D01*
X135689586Y-121142500D01*
X135689585Y-121142500D01*
X135531615Y-121142500D01*
X135531614Y-121142500D01*
X135378234Y-121180303D01*
X135238362Y-121253715D01*
X135186745Y-121299443D01*
X135130254Y-121349490D01*
X135120116Y-121358471D01*
X135030381Y-121488475D01*
X135030380Y-121488476D01*
X134974363Y-121636180D01*
X134960561Y-121749847D01*
X134932939Y-121814025D01*
X134875004Y-121853081D01*
X134837465Y-121858900D01*
X134234629Y-121858900D01*
X134234623Y-121858901D01*
X134175016Y-121865308D01*
X134040171Y-121915602D01*
X134040164Y-121915606D01*
X133924955Y-122001852D01*
X133883363Y-122057412D01*
X133827429Y-122099282D01*
X133784097Y-122107100D01*
X132608100Y-122107100D01*
X132541061Y-122087415D01*
X132495306Y-122034611D01*
X132484100Y-121983100D01*
X132484100Y-121180303D01*
X132484100Y-120459300D01*
X133381622Y-120459300D01*
X133400662Y-120616118D01*
X133449200Y-120744099D01*
X133456680Y-120763823D01*
X133546417Y-120893830D01*
X133664660Y-120998583D01*
X133664662Y-120998584D01*
X133804534Y-121071996D01*
X133957914Y-121109800D01*
X133957915Y-121109800D01*
X134115885Y-121109800D01*
X134269265Y-121071996D01*
X134281398Y-121065628D01*
X134409140Y-120998583D01*
X134527383Y-120893830D01*
X134617120Y-120763823D01*
X134673137Y-120616118D01*
X134692178Y-120459300D01*
X134685915Y-120407715D01*
X134673137Y-120302481D01*
X134639125Y-120212799D01*
X134617120Y-120154777D01*
X134527383Y-120024770D01*
X134409140Y-119920017D01*
X134409138Y-119920016D01*
X134409137Y-119920015D01*
X134269265Y-119846603D01*
X134115886Y-119808800D01*
X134115885Y-119808800D01*
X133957915Y-119808800D01*
X133957914Y-119808800D01*
X133804534Y-119846603D01*
X133664662Y-119920015D01*
X133546416Y-120024771D01*
X133456681Y-120154775D01*
X133456680Y-120154776D01*
X133400662Y-120302481D01*
X133381622Y-120459299D01*
X133381622Y-120459300D01*
X132484100Y-120459300D01*
X132484100Y-120317926D01*
X132474185Y-120268081D01*
X132469567Y-120244864D01*
X132469566Y-120244860D01*
X132459576Y-120229909D01*
X132414201Y-120161999D01*
X132331340Y-120106634D01*
X132331339Y-120106633D01*
X132331335Y-120106632D01*
X132258277Y-120092100D01*
X132258274Y-120092100D01*
X131508926Y-120092100D01*
X131508923Y-120092100D01*
X131435864Y-120106632D01*
X131435860Y-120106633D01*
X131352999Y-120161999D01*
X131297633Y-120244860D01*
X131297632Y-120244864D01*
X131283100Y-120317921D01*
X131283100Y-122530695D01*
X131280904Y-122553929D01*
X131254372Y-122693015D01*
X131264294Y-122850730D01*
X131264295Y-122850736D01*
X131264296Y-122850738D01*
X131277030Y-122889932D01*
X131283099Y-122928247D01*
X131283099Y-124858064D01*
X131263414Y-124925103D01*
X131210610Y-124970858D01*
X131194034Y-124977041D01*
X131050005Y-125019331D01*
X130928929Y-125097142D01*
X130834679Y-125205912D01*
X130834678Y-125205914D01*
X130774890Y-125336829D01*
X130754409Y-125479285D01*
X127476396Y-125479285D01*
X127505345Y-125415897D01*
X127564123Y-125378123D01*
X127599058Y-125373100D01*
X127978276Y-125373100D01*
X127978277Y-125373099D01*
X128051340Y-125358566D01*
X128134201Y-125303201D01*
X128189566Y-125220340D01*
X128204100Y-125147274D01*
X128204100Y-123226728D01*
X128220712Y-123164730D01*
X128225409Y-123156595D01*
X128297412Y-123031881D01*
X128347730Y-122863810D01*
X128357931Y-122688665D01*
X128327465Y-122515889D01*
X128257977Y-122354796D01*
X128241217Y-122332283D01*
X128228636Y-122315383D01*
X128204393Y-122249854D01*
X128204100Y-122241337D01*
X128204100Y-121282086D01*
X128204100Y-120317926D01*
X128194185Y-120268081D01*
X128189567Y-120244864D01*
X128189566Y-120244860D01*
X128179576Y-120229909D01*
X128134201Y-120161999D01*
X128051340Y-120106634D01*
X128051339Y-120106633D01*
X128051335Y-120106632D01*
X127978277Y-120092100D01*
X127978274Y-120092100D01*
X127228926Y-120092100D01*
X127228923Y-120092100D01*
X127155864Y-120106632D01*
X127155860Y-120106633D01*
X127072997Y-120162000D01*
X127039602Y-120211981D01*
X126985990Y-120256787D01*
X126916665Y-120265494D01*
X126853638Y-120235340D01*
X126833398Y-120211981D01*
X126800002Y-120162000D01*
X126793767Y-120157834D01*
X126717140Y-120106634D01*
X126717139Y-120106633D01*
X126717135Y-120106632D01*
X126644077Y-120092100D01*
X126644074Y-120092100D01*
X125894726Y-120092100D01*
X125894723Y-120092100D01*
X125821664Y-120106632D01*
X125821660Y-120106633D01*
X125738799Y-120161999D01*
X125683433Y-120244860D01*
X125683432Y-120244864D01*
X125668900Y-120317921D01*
X125668900Y-122238471D01*
X125652288Y-122300468D01*
X125587164Y-122413268D01*
X125575588Y-122433319D01*
X125525270Y-122601389D01*
X125525269Y-122601394D01*
X125515068Y-122776533D01*
X122741473Y-122776533D01*
X122744689Y-122754577D01*
X122744633Y-122753940D01*
X122729399Y-122579804D01*
X122729399Y-122579803D01*
X122674214Y-122413266D01*
X122670915Y-122407918D01*
X122608361Y-122306500D01*
X122589900Y-122241404D01*
X122589900Y-120317923D01*
X122589899Y-120317921D01*
X122575367Y-120244864D01*
X122575366Y-120244860D01*
X122565376Y-120229909D01*
X122520001Y-120161999D01*
X122437140Y-120106634D01*
X122437139Y-120106633D01*
X122437135Y-120106632D01*
X122364077Y-120092100D01*
X122364074Y-120092100D01*
X121614726Y-120092100D01*
X121614723Y-120092100D01*
X121541664Y-120106632D01*
X121541660Y-120106633D01*
X121458799Y-120161999D01*
X121403433Y-120244860D01*
X121403432Y-120244864D01*
X121388900Y-120317921D01*
X121388899Y-120317923D01*
X121388900Y-121832700D01*
X121369215Y-121899739D01*
X121316411Y-121945494D01*
X121264900Y-121956700D01*
X121128900Y-121956700D01*
X121061861Y-121937015D01*
X121016106Y-121884211D01*
X121004900Y-121832700D01*
X121004900Y-121065628D01*
X121004900Y-120292526D01*
X121001124Y-120273542D01*
X120990367Y-120219464D01*
X120990366Y-120219460D01*
X120985369Y-120211981D01*
X120935001Y-120136599D01*
X120879635Y-120099605D01*
X120852139Y-120081233D01*
X120852135Y-120081232D01*
X120779077Y-120066700D01*
X120779074Y-120066700D01*
X120229726Y-120066700D01*
X120229723Y-120066700D01*
X120156664Y-120081232D01*
X120156660Y-120081233D01*
X120073799Y-120136599D01*
X120018433Y-120219460D01*
X120018432Y-120219464D01*
X120003900Y-120292521D01*
X120003900Y-122094798D01*
X119984215Y-122161837D01*
X119970094Y-122179892D01*
X119898310Y-122255978D01*
X119810588Y-122407918D01*
X119760270Y-122575989D01*
X119760269Y-122575994D01*
X119750068Y-122751133D01*
X116824900Y-122751133D01*
X116824900Y-120292523D01*
X116824899Y-120292521D01*
X116810367Y-120219464D01*
X116810366Y-120219460D01*
X116805369Y-120211981D01*
X116755001Y-120136599D01*
X116699635Y-120099605D01*
X116672139Y-120081233D01*
X116672135Y-120081232D01*
X116599077Y-120066700D01*
X116599074Y-120066700D01*
X115849726Y-120066700D01*
X115849723Y-120066700D01*
X115776664Y-120081232D01*
X115776660Y-120081233D01*
X115693799Y-120136599D01*
X115638433Y-120219460D01*
X115638432Y-120219464D01*
X115623900Y-120292521D01*
X115623900Y-123551227D01*
X115615842Y-123595198D01*
X115588163Y-123668181D01*
X115569121Y-123824999D01*
X115569121Y-123825000D01*
X114840602Y-123825000D01*
X114852049Y-123723402D01*
X114852049Y-123723397D01*
X114833114Y-123555343D01*
X114790376Y-123433204D01*
X114777256Y-123395710D01*
X114777255Y-123395709D01*
X114777254Y-123395705D01*
X114777252Y-123395702D01*
X114687281Y-123252515D01*
X114687276Y-123252509D01*
X114567690Y-123132923D01*
X114567684Y-123132918D01*
X114424497Y-123042947D01*
X114424494Y-123042945D01*
X114264856Y-122987085D01*
X114096803Y-122968151D01*
X114096797Y-122968151D01*
X113928743Y-122987085D01*
X113769105Y-123042945D01*
X113769102Y-123042947D01*
X113625915Y-123132918D01*
X113625909Y-123132923D01*
X113506323Y-123252509D01*
X113506318Y-123252515D01*
X113416347Y-123395702D01*
X113416345Y-123395705D01*
X113395742Y-123454588D01*
X113355020Y-123511364D01*
X113290067Y-123537111D01*
X113221505Y-123523655D01*
X113171103Y-123475267D01*
X113154700Y-123413633D01*
X113154700Y-123106416D01*
X113162758Y-123062445D01*
X113163593Y-123060245D01*
X113209037Y-122940418D01*
X113228078Y-122783600D01*
X113227363Y-122777715D01*
X113219211Y-122710573D01*
X113209037Y-122626782D01*
X113162758Y-122504753D01*
X113154700Y-122460782D01*
X113154700Y-121188366D01*
X113174385Y-121121327D01*
X113227189Y-121075572D01*
X113296347Y-121065628D01*
X113359903Y-121094653D01*
X113395742Y-121147412D01*
X113416344Y-121206291D01*
X113416347Y-121206297D01*
X113506318Y-121349484D01*
X113506323Y-121349490D01*
X113625909Y-121469076D01*
X113625915Y-121469081D01*
X113769102Y-121559052D01*
X113769105Y-121559054D01*
X113769109Y-121559055D01*
X113769110Y-121559056D01*
X113840768Y-121584130D01*
X113928743Y-121614914D01*
X114096797Y-121633849D01*
X114096800Y-121633849D01*
X114096803Y-121633849D01*
X114264856Y-121614914D01*
X114264859Y-121614913D01*
X114424490Y-121559056D01*
X114424492Y-121559054D01*
X114424494Y-121559054D01*
X114424497Y-121559052D01*
X114567684Y-121469081D01*
X114567685Y-121469080D01*
X114567690Y-121469077D01*
X114687277Y-121349490D01*
X114706235Y-121319319D01*
X114777252Y-121206297D01*
X114777254Y-121206294D01*
X114777255Y-121206291D01*
X114777256Y-121206290D01*
X114833113Y-121046659D01*
X114833113Y-121046658D01*
X114833114Y-121046656D01*
X114852049Y-120878602D01*
X114852049Y-120878597D01*
X114833114Y-120710543D01*
X114783527Y-120568833D01*
X114777256Y-120550910D01*
X114777255Y-120550909D01*
X114777254Y-120550905D01*
X114777252Y-120550902D01*
X114687281Y-120407715D01*
X114687276Y-120407709D01*
X114567690Y-120288123D01*
X114567684Y-120288118D01*
X114424497Y-120198147D01*
X114424494Y-120198145D01*
X114264856Y-120142285D01*
X114096803Y-120123351D01*
X114096797Y-120123351D01*
X113928743Y-120142285D01*
X113769105Y-120198145D01*
X113769102Y-120198147D01*
X113625915Y-120288118D01*
X113625909Y-120288123D01*
X113506323Y-120407709D01*
X113506318Y-120407715D01*
X113416347Y-120550902D01*
X113416345Y-120550905D01*
X113395742Y-120609788D01*
X113355020Y-120666564D01*
X113290067Y-120692311D01*
X113221505Y-120678855D01*
X113171103Y-120630467D01*
X113154700Y-120568833D01*
X113154700Y-120369123D01*
X113154699Y-120369121D01*
X113140167Y-120296064D01*
X113140166Y-120296060D01*
X113121471Y-120268081D01*
X113084801Y-120213199D01*
X113029434Y-120176205D01*
X113001939Y-120157833D01*
X113001935Y-120157832D01*
X112928877Y-120143300D01*
X112928874Y-120143300D01*
X112179526Y-120143300D01*
X112179523Y-120143300D01*
X112106464Y-120157832D01*
X112106460Y-120157833D01*
X112023599Y-120213199D01*
X111968233Y-120296060D01*
X111968232Y-120296064D01*
X111953700Y-120369121D01*
X111953700Y-122558871D01*
X111945642Y-122602841D01*
X111936564Y-122626776D01*
X111936562Y-122626785D01*
X111917522Y-122783599D01*
X111917522Y-122783600D01*
X108902469Y-122783600D01*
X108889487Y-122646267D01*
X108882030Y-122625556D01*
X108874700Y-122583553D01*
X108874700Y-120369123D01*
X108874699Y-120369121D01*
X108860167Y-120296064D01*
X108860166Y-120296060D01*
X108841471Y-120268081D01*
X108804801Y-120213199D01*
X108749434Y-120176205D01*
X108721939Y-120157833D01*
X108721935Y-120157832D01*
X108648877Y-120143300D01*
X108648874Y-120143300D01*
X107899526Y-120143300D01*
X107899523Y-120143300D01*
X107826464Y-120157832D01*
X107826460Y-120157833D01*
X107743599Y-120213199D01*
X107688233Y-120296060D01*
X107688232Y-120296064D01*
X107673700Y-120369121D01*
X107673700Y-120829000D01*
X107654015Y-120896039D01*
X107601211Y-120941794D01*
X107549700Y-120953000D01*
X107512900Y-120953000D01*
X107445861Y-120933315D01*
X107400106Y-120880511D01*
X107388900Y-120829000D01*
X107388900Y-120394523D01*
X107388899Y-120394521D01*
X107374367Y-120321464D01*
X107374366Y-120321460D01*
X107372001Y-120317921D01*
X107319001Y-120238599D01*
X107258455Y-120198144D01*
X107236139Y-120183233D01*
X107236135Y-120183232D01*
X107163077Y-120168700D01*
X107163074Y-120168700D01*
X106413726Y-120168700D01*
X106413723Y-120168700D01*
X106340664Y-120183232D01*
X106340660Y-120183233D01*
X106257799Y-120238599D01*
X106202433Y-120321460D01*
X106202432Y-120321464D01*
X106187900Y-120394521D01*
X106187900Y-122607295D01*
X106185704Y-122630529D01*
X106182702Y-122646267D01*
X106162156Y-122753978D01*
X106159173Y-122769614D01*
X103132965Y-122769614D01*
X103131110Y-122710573D01*
X103113823Y-122651074D01*
X103108899Y-122616477D01*
X103108899Y-121526344D01*
X103108900Y-120394526D01*
X103104890Y-120374365D01*
X103094367Y-120321464D01*
X103094366Y-120321460D01*
X103092001Y-120317921D01*
X103039001Y-120238599D01*
X102978455Y-120198144D01*
X102956139Y-120183233D01*
X102956135Y-120183232D01*
X102883077Y-120168700D01*
X102883074Y-120168700D01*
X102133726Y-120168700D01*
X102133723Y-120168700D01*
X102060664Y-120183232D01*
X102060657Y-120183235D01*
X102018202Y-120211602D01*
X101951524Y-120232479D01*
X101927244Y-120229209D01*
X101927144Y-120229909D01*
X101918366Y-120228647D01*
X101774444Y-120228647D01*
X101724910Y-120243191D01*
X101655040Y-120243190D01*
X101613896Y-120218775D01*
X101613356Y-120219584D01*
X101581268Y-120198144D01*
X101520340Y-120157434D01*
X101520338Y-120157433D01*
X101520335Y-120157432D01*
X101447277Y-120142900D01*
X101447274Y-120142900D01*
X100697926Y-120142900D01*
X100697923Y-120142900D01*
X100624864Y-120157432D01*
X100624860Y-120157433D01*
X100541999Y-120212799D01*
X100486633Y-120295660D01*
X100486632Y-120295664D01*
X100472100Y-120368721D01*
X100472100Y-122581495D01*
X100469904Y-122604729D01*
X100465697Y-122626782D01*
X100443604Y-122742605D01*
X100443373Y-122743814D01*
X97393100Y-122743814D01*
X97393100Y-120368726D01*
X97393100Y-120368723D01*
X97393099Y-120368721D01*
X97378567Y-120295664D01*
X97378566Y-120295660D01*
X97363787Y-120273542D01*
X97323201Y-120212799D01*
X97240939Y-120157834D01*
X97240339Y-120157433D01*
X97240335Y-120157432D01*
X97167277Y-120142900D01*
X97167274Y-120142900D01*
X96417926Y-120142900D01*
X96417923Y-120142900D01*
X96344864Y-120157432D01*
X96344860Y-120157433D01*
X96261998Y-120212799D01*
X96221412Y-120273542D01*
X96167800Y-120318347D01*
X96098475Y-120327054D01*
X96083379Y-120323629D01*
X96065297Y-120318320D01*
X96065294Y-120318320D01*
X95921372Y-120318320D01*
X95921369Y-120318320D01*
X95783282Y-120358865D01*
X95662206Y-120436676D01*
X95567956Y-120545446D01*
X95567955Y-120545448D01*
X95508167Y-120676363D01*
X95487686Y-120818820D01*
X95508167Y-120961276D01*
X95558732Y-121071996D01*
X95567956Y-121092193D01*
X95662205Y-121200963D01*
X95783280Y-121278773D01*
X95783283Y-121278774D01*
X95783282Y-121278774D01*
X95921369Y-121319319D01*
X95921371Y-121319320D01*
X96068100Y-121319320D01*
X96135139Y-121339005D01*
X96180894Y-121391809D01*
X96192100Y-121443320D01*
X96192100Y-122707594D01*
X96172415Y-122774633D01*
X96119611Y-122820388D01*
X96050453Y-122830332D01*
X95986897Y-122801307D01*
X95962562Y-122772692D01*
X95954512Y-122759641D01*
X95950034Y-122753978D01*
X95950080Y-122753940D01*
X95945319Y-122748096D01*
X95945274Y-122748135D01*
X95940634Y-122742605D01*
X95884782Y-122689910D01*
X95293532Y-122098661D01*
X95281752Y-122085030D01*
X95274285Y-122075001D01*
X95267415Y-122065772D01*
X95230279Y-122034611D01*
X95227390Y-122032186D01*
X95223415Y-122028544D01*
X95220493Y-122025622D01*
X95217583Y-122022711D01*
X95191843Y-122002359D01*
X95133012Y-121952994D01*
X95126983Y-121949029D01*
X95127015Y-121948980D01*
X95120656Y-121944928D01*
X95120625Y-121944979D01*
X95114483Y-121941191D01*
X95114481Y-121941190D01*
X95114480Y-121941189D01*
X95075277Y-121922908D01*
X95044861Y-121908724D01*
X95010697Y-121891567D01*
X94976236Y-121874260D01*
X94976234Y-121874259D01*
X94976233Y-121874259D01*
X94969448Y-121871789D01*
X94969468Y-121871733D01*
X94962352Y-121869259D01*
X94962334Y-121869315D01*
X94955474Y-121867042D01*
X94927644Y-121861296D01*
X94880237Y-121851507D01*
X94829575Y-121839500D01*
X94805522Y-121833799D01*
X94798350Y-121832961D01*
X94798356Y-121832901D01*
X94790858Y-121832135D01*
X94790853Y-121832195D01*
X94783663Y-121831565D01*
X94706886Y-121833800D01*
X94545930Y-121833800D01*
X94478891Y-121814115D01*
X94471637Y-121809079D01*
X94468731Y-121806904D01*
X94468728Y-121806903D01*
X94468727Y-121806902D01*
X94333882Y-121756608D01*
X94333883Y-121756608D01*
X94274283Y-121750201D01*
X94274281Y-121750200D01*
X94274273Y-121750200D01*
X94274264Y-121750200D01*
X93228529Y-121750200D01*
X93228523Y-121750201D01*
X93168916Y-121756608D01*
X93034071Y-121806902D01*
X93034064Y-121806906D01*
X92918855Y-121893152D01*
X92918852Y-121893155D01*
X92832606Y-122008364D01*
X92832602Y-122008371D01*
X92782308Y-122143217D01*
X92775901Y-122202816D01*
X92775900Y-122202835D01*
X92775900Y-122561344D01*
X92756215Y-122628383D01*
X92703411Y-122674138D01*
X92634253Y-122684082D01*
X92622227Y-122681741D01*
X92560388Y-122666500D01*
X92560385Y-122666500D01*
X92402415Y-122666500D01*
X92402414Y-122666500D01*
X92249034Y-122704303D01*
X92109162Y-122777715D01*
X91990916Y-122882471D01*
X91901181Y-123012474D01*
X91870997Y-123092063D01*
X91828818Y-123147765D01*
X91763221Y-123171822D01*
X91695031Y-123156595D01*
X91673852Y-123141804D01*
X91669527Y-123138056D01*
X91622902Y-123108092D01*
X91548453Y-123060247D01*
X91548451Y-123060246D01*
X91548449Y-123060245D01*
X91548450Y-123060245D01*
X91410363Y-123019700D01*
X91410361Y-123019700D01*
X91266439Y-123019700D01*
X91266436Y-123019700D01*
X91128349Y-123060245D01*
X91007273Y-123138056D01*
X90913023Y-123246826D01*
X90913022Y-123246828D01*
X90853234Y-123377743D01*
X90832753Y-123520200D01*
X87122000Y-123520200D01*
X87122000Y-121527402D01*
X91026253Y-121527402D01*
X91046734Y-121669858D01*
X91083426Y-121750200D01*
X91106523Y-121800775D01*
X91200772Y-121909545D01*
X91321847Y-121987355D01*
X91321850Y-121987356D01*
X91321849Y-121987356D01*
X91459936Y-122027901D01*
X91459938Y-122027902D01*
X91459939Y-122027902D01*
X91603862Y-122027902D01*
X91603862Y-122027901D01*
X91741953Y-121987355D01*
X91863028Y-121909545D01*
X91957277Y-121800775D01*
X92017065Y-121669859D01*
X92020252Y-121647686D01*
X92049277Y-121584130D01*
X92108055Y-121546355D01*
X92177925Y-121546355D01*
X92200613Y-121555534D01*
X92284872Y-121599757D01*
X92346364Y-121614913D01*
X92438251Y-121637561D01*
X92438252Y-121637561D01*
X92596222Y-121637561D01*
X92749602Y-121599757D01*
X92827150Y-121559056D01*
X92889477Y-121526344D01*
X93007720Y-121421591D01*
X93097457Y-121291584D01*
X93153474Y-121143879D01*
X93172515Y-120987061D01*
X93165180Y-120926647D01*
X93153474Y-120830242D01*
X93120804Y-120744099D01*
X93097457Y-120682538D01*
X93007720Y-120552531D01*
X92889477Y-120447778D01*
X92889475Y-120447777D01*
X92889474Y-120447776D01*
X92749602Y-120374364D01*
X92596223Y-120336561D01*
X92596222Y-120336561D01*
X92438252Y-120336561D01*
X92438251Y-120336561D01*
X92284871Y-120374364D01*
X92144999Y-120447776D01*
X92144996Y-120447778D01*
X92144997Y-120447778D01*
X92028590Y-120550905D01*
X92026753Y-120552532D01*
X91937018Y-120682536D01*
X91937017Y-120682537D01*
X91881000Y-120830241D01*
X91866039Y-120953451D01*
X91838417Y-121017629D01*
X91780482Y-121056685D01*
X91710629Y-121058220D01*
X91708009Y-121057481D01*
X91603864Y-121026902D01*
X91603861Y-121026902D01*
X91459939Y-121026902D01*
X91459936Y-121026902D01*
X91321849Y-121067447D01*
X91200773Y-121145258D01*
X91200772Y-121145258D01*
X91200772Y-121145259D01*
X91188190Y-121159778D01*
X91106523Y-121254028D01*
X91106522Y-121254030D01*
X91046734Y-121384945D01*
X91026253Y-121527402D01*
X87122000Y-121527402D01*
X87122000Y-120243599D01*
X93702953Y-120243599D01*
X93723434Y-120386056D01*
X93751621Y-120447776D01*
X93783223Y-120516973D01*
X93877472Y-120625743D01*
X93998547Y-120703553D01*
X93998550Y-120703554D01*
X93998549Y-120703554D01*
X94136636Y-120744099D01*
X94136638Y-120744100D01*
X94136639Y-120744100D01*
X94280562Y-120744100D01*
X94280562Y-120744099D01*
X94418653Y-120703553D01*
X94539728Y-120625743D01*
X94633977Y-120516973D01*
X94693765Y-120386057D01*
X94714247Y-120243600D01*
X94693765Y-120101143D01*
X94633977Y-119970227D01*
X94539728Y-119861457D01*
X94418653Y-119783647D01*
X94418651Y-119783646D01*
X94418649Y-119783645D01*
X94418650Y-119783645D01*
X94280563Y-119743100D01*
X94280561Y-119743100D01*
X94136639Y-119743100D01*
X94136636Y-119743100D01*
X93998549Y-119783645D01*
X93877473Y-119861456D01*
X93783223Y-119970226D01*
X93783222Y-119970228D01*
X93723434Y-120101143D01*
X93702953Y-120243599D01*
X87122000Y-120243599D01*
X87122000Y-119250000D01*
X87141685Y-119182961D01*
X87194489Y-119137206D01*
X87246000Y-119126000D01*
X141862000Y-119126000D01*
X141929039Y-119145685D01*
G37*
%TD.AperFunction*%
%TD*%
M02*
