%TF.GenerationSoftware,KiCad,Pcbnew,7.0.7*%
%TF.CreationDate,2024-07-30T16:57:17+03:00*%
%TF.ProjectId,BANO_StepDown_LM5160_Total_Duplicate,42414e4f-5f53-4746-9570-446f776e5f4c,rev?*%
%TF.SameCoordinates,Original*%
%TF.FileFunction,Legend,Bot*%
%TF.FilePolarity,Positive*%
%FSLAX46Y46*%
G04 Gerber Fmt 4.6, Leading zero omitted, Abs format (unit mm)*
G04 Created by KiCad (PCBNEW 7.0.7) date 2024-07-30 16:57:17*
%MOMM*%
%LPD*%
G01*
G04 APERTURE LIST*
G04 Aperture macros list*
%AMRoundRect*
0 Rectangle with rounded corners*
0 $1 Rounding radius*
0 $2 $3 $4 $5 $6 $7 $8 $9 X,Y pos of 4 corners*
0 Add a 4 corners polygon primitive as box body*
4,1,4,$2,$3,$4,$5,$6,$7,$8,$9,$2,$3,0*
0 Add four circle primitives for the rounded corners*
1,1,$1+$1,$2,$3*
1,1,$1+$1,$4,$5*
1,1,$1+$1,$6,$7*
1,1,$1+$1,$8,$9*
0 Add four rect primitives between the rounded corners*
20,1,$1+$1,$2,$3,$4,$5,0*
20,1,$1+$1,$4,$5,$6,$7,0*
20,1,$1+$1,$6,$7,$8,$9,0*
20,1,$1+$1,$8,$9,$2,$3,0*%
G04 Aperture macros list end*
%ADD10C,0.120000*%
%ADD11C,1.000000*%
%ADD12C,0.499999*%
%ADD13R,0.500000X4.780000*%
%ADD14R,0.700000X4.780000*%
%ADD15R,2.400000X4.780000*%
%ADD16RoundRect,0.250000X-0.337500X-0.475000X0.337500X-0.475000X0.337500X0.475000X-0.337500X0.475000X0*%
%ADD17RoundRect,0.250000X-0.475000X0.337500X-0.475000X-0.337500X0.475000X-0.337500X0.475000X0.337500X0*%
G04 APERTURE END LIST*
D10*
%TO.C,D6*%
X121014400Y-125357200D02*
X121014400Y-124857200D01*
X121014400Y-120057200D02*
X121014400Y-120607200D01*
X116864400Y-125357200D02*
X121014400Y-125357200D01*
X116864400Y-120057200D02*
X121014400Y-120057200D01*
%TO.C,D7*%
X126779400Y-125382600D02*
X126779400Y-124882600D01*
X126779400Y-120082600D02*
X126779400Y-120632600D01*
X122629400Y-125382600D02*
X126779400Y-125382600D01*
X122629400Y-120082600D02*
X126779400Y-120082600D01*
%TO.C,C18*%
X135396248Y-122099400D02*
X135918752Y-122099400D01*
X135396248Y-123569400D02*
X135918752Y-123569400D01*
%TO.C,D10*%
X101998400Y-120159200D02*
X101998400Y-120659200D01*
X101998400Y-125459200D02*
X101998400Y-124909200D01*
X106148400Y-120159200D02*
X101998400Y-120159200D01*
X106148400Y-125459200D02*
X101998400Y-125459200D01*
%TO.C,C19*%
X94486400Y-123364448D02*
X94486400Y-123886952D01*
X93016400Y-123364448D02*
X93016400Y-123886952D01*
%TO.C,D11*%
X96282600Y-120133400D02*
X96282600Y-120633400D01*
X96282600Y-125433400D02*
X96282600Y-124883400D01*
X100432600Y-120133400D02*
X96282600Y-120133400D01*
X100432600Y-125433400D02*
X96282600Y-125433400D01*
%TO.C,D9*%
X107764200Y-120133800D02*
X107764200Y-120633800D01*
X107764200Y-125433800D02*
X107764200Y-124883800D01*
X111914200Y-120133800D02*
X107764200Y-120133800D01*
X111914200Y-125433800D02*
X107764200Y-125433800D01*
%TO.C,D8*%
X132393600Y-125382600D02*
X132393600Y-124882600D01*
X132393600Y-120082600D02*
X132393600Y-120632600D01*
X128243600Y-125382600D02*
X132393600Y-125382600D01*
X128243600Y-120082600D02*
X132393600Y-120082600D01*
%TD*%
%LPC*%
D11*
%TO.C,D3*%
X114096800Y-120878600D03*
%TD*%
%TO.C,*%
X114096800Y-125145800D03*
%TD*%
D12*
%TO.C,U1*%
X122838350Y-123597400D03*
X123838351Y-122397400D03*
X123838351Y-123597400D03*
X123838351Y-124797400D03*
X124838352Y-123597400D03*
%TD*%
D11*
%TO.C,D28*%
X114096800Y-122301000D03*
%TD*%
D12*
%TO.C,U3*%
X105571801Y-121945400D03*
X104571800Y-123145400D03*
X104571800Y-121945400D03*
X104571800Y-120745400D03*
X103571799Y-121945400D03*
%TD*%
D11*
%TO.C,D27*%
X114096800Y-123723400D03*
%TD*%
D13*
%TO.C,D6*%
X120504400Y-122707200D03*
D14*
X116224400Y-122707200D03*
D15*
X118364400Y-122707200D03*
%TD*%
D14*
%TO.C,D7*%
X126269400Y-122732600D03*
X121989400Y-122732600D03*
D15*
X124129400Y-122732600D03*
%TD*%
D16*
%TO.C,C18*%
X134620000Y-122834400D03*
X136695000Y-122834400D03*
%TD*%
D14*
%TO.C,D10*%
X102508400Y-122809200D03*
X106788400Y-122809200D03*
D15*
X104648400Y-122809200D03*
%TD*%
D17*
%TO.C,C19*%
X93751400Y-122588200D03*
X93751400Y-124663200D03*
%TD*%
D14*
%TO.C,D11*%
X96792600Y-122783400D03*
X101072600Y-122783400D03*
D15*
X98932600Y-122783400D03*
%TD*%
D14*
%TO.C,D9*%
X108274200Y-122783800D03*
X112554200Y-122783800D03*
D15*
X110414200Y-122783800D03*
%TD*%
D14*
%TO.C,D8*%
X131883600Y-122732600D03*
X127603600Y-122732600D03*
D15*
X129743600Y-122732600D03*
%TD*%
%LPD*%
M02*
