%TF.GenerationSoftware,KiCad,Pcbnew,7.0.7*%
%TF.CreationDate,2024-07-30T16:57:17+03:00*%
%TF.ProjectId,BANO_StepDown_LM5160_Total_Duplicate,42414e4f-5f53-4746-9570-446f776e5f4c,rev?*%
%TF.SameCoordinates,Original*%
%TF.FileFunction,Legend,Top*%
%TF.FilePolarity,Positive*%
%FSLAX46Y46*%
G04 Gerber Fmt 4.6, Leading zero omitted, Abs format (unit mm)*
G04 Created by KiCad (PCBNEW 7.0.7) date 2024-07-30 16:57:17*
%MOMM*%
%LPD*%
G01*
G04 APERTURE LIST*
G04 Aperture macros list*
%AMRoundRect*
0 Rectangle with rounded corners*
0 $1 Rounding radius*
0 $2 $3 $4 $5 $6 $7 $8 $9 X,Y pos of 4 corners*
0 Add a 4 corners polygon primitive as box body*
4,1,4,$2,$3,$4,$5,$6,$7,$8,$9,$2,$3,0*
0 Add four circle primitives for the rounded corners*
1,1,$1+$1,$2,$3*
1,1,$1+$1,$4,$5*
1,1,$1+$1,$6,$7*
1,1,$1+$1,$8,$9*
0 Add four rect primitives between the rounded corners*
20,1,$1+$1,$2,$3,$4,$5,0*
20,1,$1+$1,$4,$5,$6,$7,0*
20,1,$1+$1,$6,$7,$8,$9,0*
20,1,$1+$1,$8,$9,$2,$3,0*%
G04 Aperture macros list end*
%ADD10C,0.150000*%
%ADD11C,0.100000*%
%ADD12C,0.125000*%
%ADD13C,0.152400*%
%ADD14C,0.120000*%
%ADD15C,0.200000*%
%ADD16R,1.168400X0.304800*%
%ADD17RoundRect,0.155000X-0.155000X0.212500X-0.155000X-0.212500X0.155000X-0.212500X0.155000X0.212500X0*%
%ADD18RoundRect,0.160000X0.160000X-0.197500X0.160000X0.197500X-0.160000X0.197500X-0.160000X-0.197500X0*%
%ADD19R,1.092200X3.708400*%
%ADD20RoundRect,0.155000X-0.212500X-0.155000X0.212500X-0.155000X0.212500X0.155000X-0.212500X0.155000X0*%
%ADD21RoundRect,0.155000X0.155000X-0.212500X0.155000X0.212500X-0.155000X0.212500X-0.155000X-0.212500X0*%
%ADD22RoundRect,0.155000X0.212500X0.155000X-0.212500X0.155000X-0.212500X-0.155000X0.212500X-0.155000X0*%
%ADD23RoundRect,0.237500X-0.250000X-0.237500X0.250000X-0.237500X0.250000X0.237500X-0.250000X0.237500X0*%
%ADD24C,1.000000*%
%ADD25RoundRect,0.250000X-0.337500X-0.475000X0.337500X-0.475000X0.337500X0.475000X-0.337500X0.475000X0*%
%ADD26RoundRect,0.160000X-0.160000X0.197500X-0.160000X-0.197500X0.160000X-0.197500X0.160000X0.197500X0*%
%ADD27R,1.600200X2.692400*%
%ADD28RoundRect,0.160000X-0.197500X-0.160000X0.197500X-0.160000X0.197500X0.160000X-0.197500X0.160000X0*%
%ADD29R,0.599999X0.249999*%
%ADD30R,2.600000X2.999999*%
%ADD31C,0.499999*%
%ADD32RoundRect,0.160000X0.197500X0.160000X-0.197500X0.160000X-0.197500X-0.160000X0.197500X-0.160000X0*%
%ADD33RoundRect,0.250000X0.337500X0.475000X-0.337500X0.475000X-0.337500X-0.475000X0.337500X-0.475000X0*%
%ADD34RoundRect,0.237500X0.250000X0.237500X-0.250000X0.237500X-0.250000X-0.237500X0.250000X-0.237500X0*%
G04 APERTURE END LIST*
D10*
X115290600Y-124155200D02*
X115290600Y-123342400D01*
X89966800Y-119253000D02*
X138353800Y-119253000D01*
D11*
X63500000Y-53340000D02*
X196850000Y-53340000D01*
X196850000Y-149860000D02*
X63500000Y-149860000D01*
D10*
X114935000Y-122326400D02*
X115722400Y-122326400D01*
X89966800Y-119253000D02*
X89966800Y-126212600D01*
D11*
X196850000Y-53340000D02*
X196850000Y-149860000D01*
D10*
X138353800Y-126212600D02*
X89966800Y-126212600D01*
X138353800Y-119253000D02*
X138353800Y-126212600D01*
X114884200Y-123748800D02*
X115697000Y-123748800D01*
D11*
X63500000Y-149860000D02*
X63500000Y-53340000D01*
D12*
X115031502Y-125118766D02*
X115264836Y-125118766D01*
X115364836Y-125485433D02*
X115031502Y-125485433D01*
X115031502Y-125485433D02*
X115031502Y-124785433D01*
X115031502Y-124785433D02*
X115364836Y-124785433D01*
X115664835Y-125018766D02*
X115664835Y-125485433D01*
X115664835Y-125085433D02*
X115698169Y-125052100D01*
X115698169Y-125052100D02*
X115764835Y-125018766D01*
X115764835Y-125018766D02*
X115864835Y-125018766D01*
X115864835Y-125018766D02*
X115931502Y-125052100D01*
X115931502Y-125052100D02*
X115964835Y-125118766D01*
X115964835Y-125118766D02*
X115964835Y-125485433D01*
X114939436Y-120492833D02*
X115372769Y-120492833D01*
X115372769Y-120492833D02*
X115139436Y-120759500D01*
X115139436Y-120759500D02*
X115239436Y-120759500D01*
X115239436Y-120759500D02*
X115306102Y-120792833D01*
X115306102Y-120792833D02*
X115339436Y-120826166D01*
X115339436Y-120826166D02*
X115372769Y-120892833D01*
X115372769Y-120892833D02*
X115372769Y-121059500D01*
X115372769Y-121059500D02*
X115339436Y-121126166D01*
X115339436Y-121126166D02*
X115306102Y-121159500D01*
X115306102Y-121159500D02*
X115239436Y-121192833D01*
X115239436Y-121192833D02*
X115039436Y-121192833D01*
X115039436Y-121192833D02*
X114972769Y-121159500D01*
X114972769Y-121159500D02*
X114939436Y-121126166D01*
X115672769Y-121126166D02*
X115706103Y-121159500D01*
X115706103Y-121159500D02*
X115672769Y-121192833D01*
X115672769Y-121192833D02*
X115639436Y-121159500D01*
X115639436Y-121159500D02*
X115672769Y-121126166D01*
X115672769Y-121126166D02*
X115672769Y-121192833D01*
X115939436Y-120492833D02*
X116372769Y-120492833D01*
X116372769Y-120492833D02*
X116139436Y-120759500D01*
X116139436Y-120759500D02*
X116239436Y-120759500D01*
X116239436Y-120759500D02*
X116306102Y-120792833D01*
X116306102Y-120792833D02*
X116339436Y-120826166D01*
X116339436Y-120826166D02*
X116372769Y-120892833D01*
X116372769Y-120892833D02*
X116372769Y-121059500D01*
X116372769Y-121059500D02*
X116339436Y-121126166D01*
X116339436Y-121126166D02*
X116306102Y-121159500D01*
X116306102Y-121159500D02*
X116239436Y-121192833D01*
X116239436Y-121192833D02*
X116039436Y-121192833D01*
X116039436Y-121192833D02*
X115972769Y-121159500D01*
X115972769Y-121159500D02*
X115939436Y-121126166D01*
D13*
%TO.C,U2*%
X135445500Y-124015500D02*
X137096500Y-124015500D01*
X137096500Y-121602500D02*
X135445500Y-121602500D01*
X137096500Y-122973859D02*
X137096500Y-122644141D01*
D14*
%TO.C,C13*%
X91139600Y-124259265D02*
X91139600Y-124490935D01*
X90419600Y-124259265D02*
X90419600Y-124490935D01*
%TO.C,R10*%
X94082600Y-121122421D02*
X94082600Y-120787179D01*
X94842600Y-121122421D02*
X94842600Y-120787179D01*
D13*
%TO.C,L4*%
X96276650Y-125472500D02*
X98626150Y-125472500D01*
X98626150Y-121027500D02*
X96276650Y-121027500D01*
D14*
%TO.C,C28*%
X134783565Y-120163000D02*
X135015235Y-120163000D01*
X134783565Y-120883000D02*
X135015235Y-120883000D01*
%TO.C,C1*%
X136825400Y-120943635D02*
X136825400Y-120711965D01*
X137545400Y-120943635D02*
X137545400Y-120711965D01*
%TO.C,C26*%
X119817335Y-125353400D02*
X119585665Y-125353400D01*
X119817335Y-124633400D02*
X119585665Y-124633400D01*
%TO.C,R2*%
X135846826Y-124364100D02*
X136356274Y-124364100D01*
X135846826Y-125409100D02*
X136356274Y-125409100D01*
%TO.C,C4*%
X130036835Y-125455000D02*
X129805165Y-125455000D01*
X130036835Y-124735000D02*
X129805165Y-124735000D01*
D13*
%TO.C,L1*%
X132111750Y-120180100D02*
X129762250Y-120180100D01*
X129762250Y-124625100D02*
X132111750Y-124625100D01*
D14*
%TO.C,C14*%
X107141600Y-124496565D02*
X107141600Y-124728235D01*
X106421600Y-124496565D02*
X106421600Y-124728235D01*
%TO.C,C5*%
X123567648Y-120245200D02*
X124090152Y-120245200D01*
X123567648Y-121715200D02*
X124090152Y-121715200D01*
%TO.C,C9*%
X100877635Y-123905600D02*
X100645965Y-123905600D01*
X100877635Y-123185600D02*
X100645965Y-123185600D01*
%TO.C,R1*%
X127695150Y-123694721D02*
X127695150Y-123359479D01*
X128455150Y-123694721D02*
X128455150Y-123359479D01*
%TO.C,R9*%
X119123376Y-123480300D02*
X119632824Y-123480300D01*
X119123376Y-124525300D02*
X119632824Y-124525300D01*
%TO.C,C11*%
X93283035Y-125074000D02*
X93051365Y-125074000D01*
X93283035Y-124354000D02*
X93051365Y-124354000D01*
%TO.C,R4*%
X134246350Y-122128179D02*
X134246350Y-122463421D01*
X133486350Y-122128179D02*
X133486350Y-122463421D01*
D13*
%TO.C,L2*%
X120840500Y-120065800D02*
X117386100Y-120065800D01*
X117386100Y-123520200D02*
X120840500Y-123520200D01*
X122059700Y-121793000D02*
G75*
G03*
X122059700Y-121793000I-76200J0D01*
G01*
D14*
%TO.C,R7*%
X95882379Y-119920000D02*
X96217621Y-119920000D01*
X95882379Y-120680000D02*
X96217621Y-120680000D01*
%TO.C,C2*%
X126749950Y-123622135D02*
X126749950Y-123390465D01*
X127469950Y-123622135D02*
X127469950Y-123390465D01*
%TO.C,R11*%
X94082600Y-123052821D02*
X94082600Y-122717579D01*
X94842600Y-123052821D02*
X94842600Y-122717579D01*
D13*
%TO.C,U4*%
X93002100Y-121181101D02*
X91351100Y-121181101D01*
X91351100Y-123594101D02*
X93002100Y-123594101D01*
X91351100Y-122222742D02*
X91351100Y-122552460D01*
D14*
%TO.C,R6*%
X100694600Y-121787779D02*
X100694600Y-122123021D01*
X99934600Y-121787779D02*
X99934600Y-122123021D01*
%TO.C,C27*%
X127488135Y-121848200D02*
X127256465Y-121848200D01*
X127488135Y-121128200D02*
X127256465Y-121128200D01*
%TO.C,C7*%
X108799365Y-120137600D02*
X109031035Y-120137600D01*
X108799365Y-120857600D02*
X109031035Y-120857600D01*
D15*
%TO.C,U1*%
X121638350Y-121397402D02*
X122438351Y-121397402D01*
X121638350Y-121897401D02*
X121638350Y-121397402D01*
X121638350Y-125797398D02*
X121638350Y-125622402D01*
X121638350Y-125797398D02*
X121838350Y-125797398D01*
X125838352Y-121397402D02*
X126038352Y-121397402D01*
X125838352Y-125797398D02*
X126038352Y-125797398D01*
X126038352Y-121572398D02*
X126038352Y-121397402D01*
X126038352Y-125797398D02*
X126038352Y-125622402D01*
D14*
%TO.C,R15*%
X132462921Y-125475000D02*
X132127679Y-125475000D01*
X132462921Y-124715000D02*
X132127679Y-124715000D01*
D13*
%TO.C,L3*%
X107619800Y-125425200D02*
X111074200Y-125425200D01*
X111074200Y-121970800D02*
X107619800Y-121970800D01*
X106553000Y-123698000D02*
G75*
G03*
X106553000Y-123698000I-76200J0D01*
G01*
D14*
%TO.C,R3*%
X134212600Y-124266979D02*
X134212600Y-124602221D01*
X133452600Y-124266979D02*
X133452600Y-124602221D01*
%TO.C,C10*%
X98319165Y-119969800D02*
X98550835Y-119969800D01*
X98319165Y-120689800D02*
X98550835Y-120689800D01*
%TO.C,C3*%
X104811552Y-125271200D02*
X104289048Y-125271200D01*
X104811552Y-123801200D02*
X104289048Y-123801200D01*
%TO.C,C6*%
X127852435Y-125455000D02*
X127620765Y-125455000D01*
X127852435Y-124735000D02*
X127620765Y-124735000D01*
D15*
%TO.C,U3*%
X106771801Y-124145398D02*
X105971800Y-124145398D01*
X106771801Y-123645399D02*
X106771801Y-124145398D01*
X106771801Y-119745402D02*
X106771801Y-119920398D01*
X106771801Y-119745402D02*
X106571801Y-119745402D01*
X102571799Y-124145398D02*
X102371799Y-124145398D01*
X102571799Y-119745402D02*
X102371799Y-119745402D01*
X102371799Y-123970402D02*
X102371799Y-124145398D01*
X102371799Y-119745402D02*
X102371799Y-119920398D01*
D14*
%TO.C,R8*%
X92278924Y-121147100D02*
X91769476Y-121147100D01*
X92278924Y-120102100D02*
X91769476Y-120102100D01*
%TO.C,C15*%
X121077400Y-121104735D02*
X121077400Y-120873065D01*
X121797400Y-121104735D02*
X121797400Y-120873065D01*
%TO.C,C8*%
X101731400Y-121905765D02*
X101731400Y-122137435D01*
X101011400Y-121905765D02*
X101011400Y-122137435D01*
%TO.C,C12*%
X100757565Y-119969800D02*
X100989235Y-119969800D01*
X100757565Y-120689800D02*
X100989235Y-120689800D01*
%TO.C,R5*%
X109472824Y-121934500D02*
X108963376Y-121934500D01*
X109472824Y-120889500D02*
X108963376Y-120889500D01*
%TD*%
%LPC*%
D16*
%TO.C,U2*%
X135305800Y-122159001D03*
X135305800Y-122809000D03*
X135305800Y-123458999D03*
X137236200Y-123458999D03*
X137236200Y-122159001D03*
%TD*%
D17*
%TO.C,C13*%
X90779600Y-123807600D03*
X90779600Y-124942600D03*
%TD*%
D18*
%TO.C,R10*%
X94462600Y-121552300D03*
X94462600Y-120357300D03*
%TD*%
D19*
%TO.C,L4*%
X95952800Y-123250000D03*
X98950000Y-123250000D03*
%TD*%
D20*
%TO.C,C28*%
X134331900Y-120523000D03*
X135466900Y-120523000D03*
%TD*%
D21*
%TO.C,C1*%
X137185400Y-121395300D03*
X137185400Y-120260300D03*
%TD*%
D22*
%TO.C,C26*%
X120269000Y-124993400D03*
X119134000Y-124993400D03*
%TD*%
D23*
%TO.C,R2*%
X135189050Y-124886600D03*
X137014050Y-124886600D03*
%TD*%
D22*
%TO.C,C4*%
X130488500Y-125095000D03*
X129353500Y-125095000D03*
%TD*%
D19*
%TO.C,L1*%
X132435600Y-122402600D03*
X129438400Y-122402600D03*
%TD*%
D24*
%TO.C,D3*%
X114096800Y-120878600D03*
%TD*%
D17*
%TO.C,C14*%
X106781600Y-124044900D03*
X106781600Y-125179900D03*
%TD*%
D25*
%TO.C,C5*%
X122791400Y-120980200D03*
X124866400Y-120980200D03*
%TD*%
D22*
%TO.C,C9*%
X101329300Y-123545600D03*
X100194300Y-123545600D03*
%TD*%
D18*
%TO.C,R1*%
X128075150Y-124124600D03*
X128075150Y-122929600D03*
%TD*%
D23*
%TO.C,R9*%
X118465600Y-124002800D03*
X120290600Y-124002800D03*
%TD*%
D24*
%TO.C,*%
X114096800Y-125145800D03*
%TD*%
D22*
%TO.C,C11*%
X93734700Y-124714000D03*
X92599700Y-124714000D03*
%TD*%
D26*
%TO.C,R4*%
X133866350Y-121698300D03*
X133866350Y-122893300D03*
%TD*%
D27*
%TO.C,L2*%
X120065800Y-121793000D03*
X118160800Y-121793000D03*
%TD*%
D28*
%TO.C,R7*%
X95452500Y-120300000D03*
X96647500Y-120300000D03*
%TD*%
D21*
%TO.C,C2*%
X127109950Y-124073800D03*
X127109950Y-122938800D03*
%TD*%
D18*
%TO.C,R11*%
X94462600Y-123482700D03*
X94462600Y-122287700D03*
%TD*%
D16*
%TO.C,U4*%
X93141800Y-123037600D03*
X93141800Y-122387601D03*
X93141800Y-121737602D03*
X91211400Y-121737602D03*
X91211400Y-123037600D03*
%TD*%
D26*
%TO.C,R6*%
X100314600Y-121357900D03*
X100314600Y-122552900D03*
%TD*%
D22*
%TO.C,C27*%
X127939800Y-121488200D03*
X126804800Y-121488200D03*
%TD*%
D20*
%TO.C,C7*%
X108347700Y-120497600D03*
X109482700Y-120497600D03*
%TD*%
D29*
%TO.C,U1*%
X121938352Y-122347400D03*
X121938352Y-122847399D03*
X121938352Y-123347400D03*
X121938352Y-123847400D03*
X121938352Y-124347398D03*
X121938352Y-124847400D03*
X125738350Y-124847400D03*
X125738350Y-124347398D03*
X125738350Y-123847400D03*
X125738350Y-123347398D03*
X125738350Y-122847399D03*
X125738350Y-122347400D03*
D30*
X123838351Y-123597400D03*
D31*
X122838350Y-123597400D03*
X123838351Y-122397400D03*
X123838351Y-123597400D03*
X123838351Y-124797400D03*
X124838352Y-123597400D03*
%TD*%
D32*
%TO.C,R15*%
X132892800Y-125095000D03*
X131697800Y-125095000D03*
%TD*%
D27*
%TO.C,L3*%
X108394500Y-123698000D03*
X110299500Y-123698000D03*
%TD*%
D24*
%TO.C,D28*%
X114096800Y-122301000D03*
%TD*%
D26*
%TO.C,R3*%
X133832600Y-123837100D03*
X133832600Y-125032100D03*
%TD*%
D20*
%TO.C,C10*%
X97867500Y-120329800D03*
X99002500Y-120329800D03*
%TD*%
D33*
%TO.C,C3*%
X105587800Y-124536200D03*
X103512800Y-124536200D03*
%TD*%
D22*
%TO.C,C6*%
X128304100Y-125095000D03*
X127169100Y-125095000D03*
%TD*%
D29*
%TO.C,U3*%
X106471799Y-123195400D03*
X106471799Y-122695401D03*
X106471799Y-122195400D03*
X106471799Y-121695400D03*
X106471799Y-121195402D03*
X106471799Y-120695400D03*
X102671801Y-120695400D03*
X102671801Y-121195402D03*
X102671801Y-121695400D03*
X102671801Y-122195402D03*
X102671801Y-122695401D03*
X102671801Y-123195400D03*
D30*
X104571800Y-121945400D03*
D31*
X105571801Y-121945400D03*
X104571800Y-123145400D03*
X104571800Y-121945400D03*
X104571800Y-120745400D03*
X103571799Y-121945400D03*
%TD*%
D34*
%TO.C,R8*%
X92936700Y-120624600D03*
X91111700Y-120624600D03*
%TD*%
D21*
%TO.C,C15*%
X121437400Y-121556400D03*
X121437400Y-120421400D03*
%TD*%
D17*
%TO.C,C8*%
X101371400Y-121454100D03*
X101371400Y-122589100D03*
%TD*%
D20*
%TO.C,C12*%
X100305900Y-120329800D03*
X101440900Y-120329800D03*
%TD*%
D24*
%TO.C,D27*%
X114096800Y-123723400D03*
%TD*%
D34*
%TO.C,R5*%
X110130600Y-121412000D03*
X108305600Y-121412000D03*
%TD*%
%LPD*%
M02*
