%TF.GenerationSoftware,KiCad,Pcbnew,7.0.7*%
%TF.CreationDate,2024-07-30T16:57:17+03:00*%
%TF.ProjectId,BANO_StepDown_LM5160_Total_Duplicate,42414e4f-5f53-4746-9570-446f776e5f4c,rev?*%
%TF.SameCoordinates,Original*%
%TF.FileFunction,Paste,Top*%
%TF.FilePolarity,Positive*%
%FSLAX46Y46*%
G04 Gerber Fmt 4.6, Leading zero omitted, Abs format (unit mm)*
G04 Created by KiCad (PCBNEW 7.0.7) date 2024-07-30 16:57:17*
%MOMM*%
%LPD*%
G01*
G04 APERTURE LIST*
G04 Aperture macros list*
%AMRoundRect*
0 Rectangle with rounded corners*
0 $1 Rounding radius*
0 $2 $3 $4 $5 $6 $7 $8 $9 X,Y pos of 4 corners*
0 Add a 4 corners polygon primitive as box body*
4,1,4,$2,$3,$4,$5,$6,$7,$8,$9,$2,$3,0*
0 Add four circle primitives for the rounded corners*
1,1,$1+$1,$2,$3*
1,1,$1+$1,$4,$5*
1,1,$1+$1,$6,$7*
1,1,$1+$1,$8,$9*
0 Add four rect primitives between the rounded corners*
20,1,$1+$1,$2,$3,$4,$5,0*
20,1,$1+$1,$4,$5,$6,$7,0*
20,1,$1+$1,$6,$7,$8,$9,0*
20,1,$1+$1,$8,$9,$2,$3,0*%
G04 Aperture macros list end*
%ADD10R,1.168400X0.304800*%
%ADD11RoundRect,0.155000X-0.155000X0.212500X-0.155000X-0.212500X0.155000X-0.212500X0.155000X0.212500X0*%
%ADD12RoundRect,0.160000X0.160000X-0.197500X0.160000X0.197500X-0.160000X0.197500X-0.160000X-0.197500X0*%
%ADD13R,1.092200X3.708400*%
%ADD14RoundRect,0.155000X-0.212500X-0.155000X0.212500X-0.155000X0.212500X0.155000X-0.212500X0.155000X0*%
%ADD15RoundRect,0.155000X0.155000X-0.212500X0.155000X0.212500X-0.155000X0.212500X-0.155000X-0.212500X0*%
%ADD16RoundRect,0.155000X0.212500X0.155000X-0.212500X0.155000X-0.212500X-0.155000X0.212500X-0.155000X0*%
%ADD17RoundRect,0.237500X-0.250000X-0.237500X0.250000X-0.237500X0.250000X0.237500X-0.250000X0.237500X0*%
%ADD18RoundRect,0.250000X-0.337500X-0.475000X0.337500X-0.475000X0.337500X0.475000X-0.337500X0.475000X0*%
%ADD19RoundRect,0.160000X-0.160000X0.197500X-0.160000X-0.197500X0.160000X-0.197500X0.160000X0.197500X0*%
%ADD20R,1.600200X2.692400*%
%ADD21RoundRect,0.160000X-0.197500X-0.160000X0.197500X-0.160000X0.197500X0.160000X-0.197500X0.160000X0*%
%ADD22R,0.599999X0.249999*%
%ADD23RoundRect,0.160000X0.197500X0.160000X-0.197500X0.160000X-0.197500X-0.160000X0.197500X-0.160000X0*%
%ADD24RoundRect,0.250000X0.337500X0.475000X-0.337500X0.475000X-0.337500X-0.475000X0.337500X-0.475000X0*%
%ADD25RoundRect,0.237500X0.250000X0.237500X-0.250000X0.237500X-0.250000X-0.237500X0.250000X-0.237500X0*%
G04 APERTURE END LIST*
%TO.C,U1*%
G36*
X123738354Y-123497400D02*
G01*
X122590352Y-123497400D01*
X122590352Y-122187400D01*
X123738354Y-122187400D01*
X123738354Y-123497400D01*
G37*
G36*
X123738354Y-125007400D02*
G01*
X122590352Y-125007400D01*
X122590352Y-123697400D01*
X123738354Y-123697400D01*
X123738354Y-125007400D01*
G37*
G36*
X125086352Y-123497400D02*
G01*
X123938351Y-123497400D01*
X123938351Y-122187400D01*
X125086352Y-122187400D01*
X125086352Y-123497400D01*
G37*
G36*
X125086352Y-125007400D02*
G01*
X123938351Y-125007400D01*
X123938351Y-123697400D01*
X125086352Y-123697400D01*
X125086352Y-125007400D01*
G37*
%TO.C,U3*%
G36*
X105819799Y-123355400D02*
G01*
X104671797Y-123355400D01*
X104671797Y-122045400D01*
X105819799Y-122045400D01*
X105819799Y-123355400D01*
G37*
G36*
X105819799Y-121845400D02*
G01*
X104671797Y-121845400D01*
X104671797Y-120535400D01*
X105819799Y-120535400D01*
X105819799Y-121845400D01*
G37*
G36*
X104471800Y-123355400D02*
G01*
X103323799Y-123355400D01*
X103323799Y-122045400D01*
X104471800Y-122045400D01*
X104471800Y-123355400D01*
G37*
G36*
X104471800Y-121845400D02*
G01*
X103323799Y-121845400D01*
X103323799Y-120535400D01*
X104471800Y-120535400D01*
X104471800Y-121845400D01*
G37*
%TD*%
D10*
%TO.C,U2*%
X135305800Y-122159001D03*
X135305800Y-122809000D03*
X135305800Y-123458999D03*
X137236200Y-123458999D03*
X137236200Y-122159001D03*
%TD*%
D11*
%TO.C,C13*%
X90779600Y-123807600D03*
X90779600Y-124942600D03*
%TD*%
D12*
%TO.C,R10*%
X94462600Y-121552300D03*
X94462600Y-120357300D03*
%TD*%
D13*
%TO.C,L4*%
X95952800Y-123250000D03*
X98950000Y-123250000D03*
%TD*%
D14*
%TO.C,C28*%
X134331900Y-120523000D03*
X135466900Y-120523000D03*
%TD*%
D15*
%TO.C,C1*%
X137185400Y-121395300D03*
X137185400Y-120260300D03*
%TD*%
D16*
%TO.C,C26*%
X120269000Y-124993400D03*
X119134000Y-124993400D03*
%TD*%
D17*
%TO.C,R2*%
X135189050Y-124886600D03*
X137014050Y-124886600D03*
%TD*%
D16*
%TO.C,C4*%
X130488500Y-125095000D03*
X129353500Y-125095000D03*
%TD*%
D13*
%TO.C,L1*%
X132435600Y-122402600D03*
X129438400Y-122402600D03*
%TD*%
D11*
%TO.C,C14*%
X106781600Y-124044900D03*
X106781600Y-125179900D03*
%TD*%
D18*
%TO.C,C5*%
X122791400Y-120980200D03*
X124866400Y-120980200D03*
%TD*%
D16*
%TO.C,C9*%
X101329300Y-123545600D03*
X100194300Y-123545600D03*
%TD*%
D12*
%TO.C,R1*%
X128075150Y-124124600D03*
X128075150Y-122929600D03*
%TD*%
D17*
%TO.C,R9*%
X118465600Y-124002800D03*
X120290600Y-124002800D03*
%TD*%
D16*
%TO.C,C11*%
X93734700Y-124714000D03*
X92599700Y-124714000D03*
%TD*%
D19*
%TO.C,R4*%
X133866350Y-121698300D03*
X133866350Y-122893300D03*
%TD*%
D20*
%TO.C,L2*%
X120065800Y-121793000D03*
X118160800Y-121793000D03*
%TD*%
D21*
%TO.C,R7*%
X95452500Y-120300000D03*
X96647500Y-120300000D03*
%TD*%
D15*
%TO.C,C2*%
X127109950Y-124073800D03*
X127109950Y-122938800D03*
%TD*%
D12*
%TO.C,R11*%
X94462600Y-123482700D03*
X94462600Y-122287700D03*
%TD*%
D10*
%TO.C,U4*%
X93141800Y-123037600D03*
X93141800Y-122387601D03*
X93141800Y-121737602D03*
X91211400Y-121737602D03*
X91211400Y-123037600D03*
%TD*%
D19*
%TO.C,R6*%
X100314600Y-121357900D03*
X100314600Y-122552900D03*
%TD*%
D16*
%TO.C,C27*%
X127939800Y-121488200D03*
X126804800Y-121488200D03*
%TD*%
D14*
%TO.C,C7*%
X108347700Y-120497600D03*
X109482700Y-120497600D03*
%TD*%
D22*
%TO.C,U1*%
X121938352Y-122347400D03*
X121938352Y-122847399D03*
X121938352Y-123347400D03*
X121938352Y-123847400D03*
X121938352Y-124347398D03*
X121938352Y-124847400D03*
X125738350Y-124847400D03*
X125738350Y-124347398D03*
X125738350Y-123847400D03*
X125738350Y-123347398D03*
X125738350Y-122847399D03*
X125738350Y-122347400D03*
%TD*%
D23*
%TO.C,R15*%
X132892800Y-125095000D03*
X131697800Y-125095000D03*
%TD*%
D20*
%TO.C,L3*%
X108394500Y-123698000D03*
X110299500Y-123698000D03*
%TD*%
D19*
%TO.C,R3*%
X133832600Y-123837100D03*
X133832600Y-125032100D03*
%TD*%
D14*
%TO.C,C10*%
X97867500Y-120329800D03*
X99002500Y-120329800D03*
%TD*%
D24*
%TO.C,C3*%
X105587800Y-124536200D03*
X103512800Y-124536200D03*
%TD*%
D16*
%TO.C,C6*%
X128304100Y-125095000D03*
X127169100Y-125095000D03*
%TD*%
D22*
%TO.C,U3*%
X106471799Y-123195400D03*
X106471799Y-122695401D03*
X106471799Y-122195400D03*
X106471799Y-121695400D03*
X106471799Y-121195402D03*
X106471799Y-120695400D03*
X102671801Y-120695400D03*
X102671801Y-121195402D03*
X102671801Y-121695400D03*
X102671801Y-122195402D03*
X102671801Y-122695401D03*
X102671801Y-123195400D03*
%TD*%
D25*
%TO.C,R8*%
X92936700Y-120624600D03*
X91111700Y-120624600D03*
%TD*%
D15*
%TO.C,C15*%
X121437400Y-121556400D03*
X121437400Y-120421400D03*
%TD*%
D11*
%TO.C,C8*%
X101371400Y-121454100D03*
X101371400Y-122589100D03*
%TD*%
D14*
%TO.C,C12*%
X100305900Y-120329800D03*
X101440900Y-120329800D03*
%TD*%
D25*
%TO.C,R5*%
X110130600Y-121412000D03*
X108305600Y-121412000D03*
%TD*%
M02*
