%TF.GenerationSoftware,KiCad,Pcbnew,7.0.7*%
%TF.CreationDate,2024-03-02T19:09:38+03:00*%
%TF.ProjectId,Main_PCB_002,4d61696e-5f50-4434-925f-3030322e6b69,rev?*%
%TF.SameCoordinates,Original*%
%TF.FileFunction,Legend,Top*%
%TF.FilePolarity,Positive*%
%FSLAX46Y46*%
G04 Gerber Fmt 4.6, Leading zero omitted, Abs format (unit mm)*
G04 Created by KiCad (PCBNEW 7.0.7) date 2024-03-02 19:09:38*
%MOMM*%
%LPD*%
G01*
G04 APERTURE LIST*
G04 Aperture macros list*
%AMRoundRect*
0 Rectangle with rounded corners*
0 $1 Rounding radius*
0 $2 $3 $4 $5 $6 $7 $8 $9 X,Y pos of 4 corners*
0 Add a 4 corners polygon primitive as box body*
4,1,4,$2,$3,$4,$5,$6,$7,$8,$9,$2,$3,0*
0 Add four circle primitives for the rounded corners*
1,1,$1+$1,$2,$3*
1,1,$1+$1,$4,$5*
1,1,$1+$1,$6,$7*
1,1,$1+$1,$8,$9*
0 Add four rect primitives between the rounded corners*
20,1,$1+$1,$2,$3,$4,$5,0*
20,1,$1+$1,$4,$5,$6,$7,0*
20,1,$1+$1,$6,$7,$8,$9,0*
20,1,$1+$1,$8,$9,$2,$3,0*%
G04 Aperture macros list end*
%ADD10C,0.150000*%
%ADD11C,0.100000*%
%ADD12C,0.152400*%
%ADD13C,0.120000*%
%ADD14C,0.200000*%
%ADD15R,1.168400X0.304800*%
%ADD16RoundRect,0.237500X-0.300000X-0.237500X0.300000X-0.237500X0.300000X0.237500X-0.300000X0.237500X0*%
%ADD17RoundRect,0.155000X0.155000X-0.212500X0.155000X0.212500X-0.155000X0.212500X-0.155000X-0.212500X0*%
%ADD18RoundRect,0.155000X0.212500X0.155000X-0.212500X0.155000X-0.212500X-0.155000X0.212500X-0.155000X0*%
%ADD19RoundRect,0.237500X-0.250000X-0.237500X0.250000X-0.237500X0.250000X0.237500X-0.250000X0.237500X0*%
%ADD20R,1.092200X3.708400*%
%ADD21RoundRect,0.160000X0.160000X-0.197500X0.160000X0.197500X-0.160000X0.197500X-0.160000X-0.197500X0*%
%ADD22RoundRect,0.160000X-0.197500X-0.160000X0.197500X-0.160000X0.197500X0.160000X-0.197500X0.160000X0*%
%ADD23RoundRect,0.160000X-0.160000X0.197500X-0.160000X-0.197500X0.160000X-0.197500X0.160000X0.197500X0*%
%ADD24RoundRect,0.155000X-0.212500X-0.155000X0.212500X-0.155000X0.212500X0.155000X-0.212500X0.155000X0*%
%ADD25R,0.599999X0.249999*%
%ADD26R,2.600000X2.999999*%
%ADD27C,0.499999*%
%ADD28RoundRect,0.160000X0.197500X0.160000X-0.197500X0.160000X-0.197500X-0.160000X0.197500X-0.160000X0*%
%ADD29C,1.600000*%
%ADD30RoundRect,0.155000X-0.155000X0.212500X-0.155000X-0.212500X0.155000X-0.212500X0.155000X0.212500X0*%
%ADD31RoundRect,0.237500X0.250000X0.237500X-0.250000X0.237500X-0.250000X-0.237500X0.250000X-0.237500X0*%
%ADD32RoundRect,0.150000X-0.200000X0.150000X-0.200000X-0.150000X0.200000X-0.150000X0.200000X0.150000X0*%
G04 APERTURE END LIST*
D10*
X116281200Y-123393200D02*
X116281200Y-122580400D01*
D11*
X63500000Y-53340000D02*
X196850000Y-53340000D01*
X196850000Y-149860000D02*
X63500000Y-149860000D01*
D10*
X115887500Y-121412000D02*
X116674900Y-121412000D01*
D11*
X196850000Y-53340000D02*
X196850000Y-149860000D01*
D10*
X115874800Y-122986800D02*
X116687600Y-122986800D01*
D11*
X63500000Y-149860000D02*
X63500000Y-53340000D01*
D12*
%TO.C,U2*%
X136436100Y-123964700D02*
X138087100Y-123964700D01*
X138087100Y-121551700D02*
X136436100Y-121551700D01*
X138087100Y-122923059D02*
X138087100Y-122593341D01*
D13*
%TO.C,C28*%
X135946933Y-120089200D02*
X136239467Y-120089200D01*
X135946933Y-121109200D02*
X136239467Y-121109200D01*
%TO.C,C1*%
X140686200Y-122747035D02*
X140686200Y-122515365D01*
X141406200Y-122747035D02*
X141406200Y-122515365D01*
%TO.C,C26*%
X120680935Y-124667600D02*
X120449265Y-124667600D01*
X120680935Y-123947600D02*
X120449265Y-123947600D01*
%TO.C,R2*%
X139191276Y-120076700D02*
X139700724Y-120076700D01*
X139191276Y-121121700D02*
X139700724Y-121121700D01*
%TO.C,C4*%
X128672000Y-124118635D02*
X128672000Y-123886965D01*
X129392000Y-124118635D02*
X129392000Y-123886965D01*
D12*
%TO.C,L1*%
X133170200Y-120032900D02*
X130820700Y-120032900D01*
X130820700Y-124477900D02*
X133170200Y-124477900D01*
D13*
%TO.C,C5*%
X119792533Y-120216200D02*
X120085067Y-120216200D01*
X119792533Y-121236200D02*
X120085067Y-121236200D01*
%TO.C,R1*%
X127331200Y-121262721D02*
X127331200Y-120927479D01*
X128091200Y-121262721D02*
X128091200Y-120927479D01*
%TO.C,R9*%
X120138879Y-122810000D02*
X120474121Y-122810000D01*
X120138879Y-123570000D02*
X120474121Y-123570000D01*
%TO.C,R4*%
X135279400Y-122590579D02*
X135279400Y-122925821D01*
X134519400Y-122590579D02*
X134519400Y-122925821D01*
%TO.C,R7*%
X118314200Y-123865621D02*
X118314200Y-123530379D01*
X119074200Y-123865621D02*
X119074200Y-123530379D01*
%TO.C,C2*%
X127053265Y-122347400D02*
X127284935Y-122347400D01*
X127053265Y-123067400D02*
X127284935Y-123067400D01*
%TO.C,R6*%
X117637579Y-121692400D02*
X117972821Y-121692400D01*
X117637579Y-122452400D02*
X117972821Y-122452400D01*
%TO.C,C27*%
X126411400Y-121236335D02*
X126411400Y-121004665D01*
X127131400Y-121236335D02*
X127131400Y-121004665D01*
D14*
%TO.C,U1*%
X121650399Y-120228002D02*
X122450400Y-120228002D01*
X121650399Y-120728001D02*
X121650399Y-120228002D01*
X121650399Y-124627998D02*
X121650399Y-124453002D01*
X121650399Y-124627998D02*
X121850399Y-124627998D01*
X125850401Y-120228002D02*
X126050401Y-120228002D01*
X125850401Y-124627998D02*
X126050401Y-124627998D01*
X126050401Y-120402998D02*
X126050401Y-120228002D01*
X126050401Y-124627998D02*
X126050401Y-124453002D01*
D13*
%TO.C,R15*%
X127408321Y-124611400D02*
X127073079Y-124611400D01*
X127408321Y-123851400D02*
X127073079Y-123851400D01*
%TO.C,R3*%
X135370529Y-124257800D02*
X135705771Y-124257800D01*
X135370529Y-125017800D02*
X135705771Y-125017800D01*
%TO.C,C3*%
X118012800Y-123556765D02*
X118012800Y-123788435D01*
X117292800Y-123556765D02*
X117292800Y-123788435D01*
%TO.C,C6*%
X129214200Y-121617665D02*
X129214200Y-121849335D01*
X128494200Y-121617665D02*
X128494200Y-121849335D01*
%TO.C,R5*%
X138608524Y-125465100D02*
X138099076Y-125465100D01*
X138608524Y-124420100D02*
X138099076Y-124420100D01*
%TO.C,D23*%
X139227000Y-123916600D02*
X140427000Y-123916600D01*
X139227000Y-121956600D02*
X139227000Y-123916600D01*
X140427000Y-121956600D02*
X140427000Y-123916600D01*
%TD*%
%LPC*%
D15*
%TO.C,U2*%
X136296400Y-122108201D03*
X136296400Y-122758200D03*
X136296400Y-123408199D03*
X138226800Y-123408199D03*
X138226800Y-122108201D03*
%TD*%
D16*
%TO.C,C28*%
X135230700Y-120599200D03*
X136955700Y-120599200D03*
%TD*%
D17*
%TO.C,C1*%
X141046200Y-123198700D03*
X141046200Y-122063700D03*
%TD*%
D18*
%TO.C,C26*%
X121132600Y-124307600D03*
X119997600Y-124307600D03*
%TD*%
D19*
%TO.C,R2*%
X138533500Y-120599200D03*
X140358500Y-120599200D03*
%TD*%
D17*
%TO.C,C4*%
X129032000Y-124570300D03*
X129032000Y-123435300D03*
%TD*%
D20*
%TO.C,L1*%
X133494050Y-122255400D03*
X130496850Y-122255400D03*
%TD*%
D16*
%TO.C,C5*%
X119076300Y-120726200D03*
X120801300Y-120726200D03*
%TD*%
D21*
%TO.C,R1*%
X127711200Y-121692600D03*
X127711200Y-120497600D03*
%TD*%
D22*
%TO.C,R9*%
X119709000Y-123190000D03*
X120904000Y-123190000D03*
%TD*%
D23*
%TO.C,R4*%
X134899400Y-122160700D03*
X134899400Y-123355700D03*
%TD*%
D21*
%TO.C,R7*%
X118694200Y-124295500D03*
X118694200Y-123100500D03*
%TD*%
D24*
%TO.C,C2*%
X126601600Y-122707400D03*
X127736600Y-122707400D03*
%TD*%
D22*
%TO.C,R6*%
X117207700Y-122072400D03*
X118402700Y-122072400D03*
%TD*%
D17*
%TO.C,C27*%
X126771400Y-121688000D03*
X126771400Y-120553000D03*
%TD*%
D25*
%TO.C,U1*%
X121950401Y-121178000D03*
X121950401Y-121677999D03*
X121950401Y-122178000D03*
X121950401Y-122678000D03*
X121950401Y-123177998D03*
X121950401Y-123678000D03*
X125750399Y-123678000D03*
X125750399Y-123177998D03*
X125750399Y-122678000D03*
X125750399Y-122177998D03*
X125750399Y-121677999D03*
X125750399Y-121178000D03*
D26*
X123850400Y-122428000D03*
D27*
X122850399Y-122428000D03*
X123850400Y-121228000D03*
X123850400Y-122428000D03*
X123850400Y-123628000D03*
X124850401Y-122428000D03*
%TD*%
D28*
%TO.C,R15*%
X127838200Y-124231400D03*
X126643200Y-124231400D03*
%TD*%
D29*
%TO.C,D28*%
X116433600Y-120116600D03*
%TD*%
D22*
%TO.C,R3*%
X134940650Y-124637800D03*
X136135650Y-124637800D03*
%TD*%
D30*
%TO.C,C3*%
X117652800Y-123105100D03*
X117652800Y-124240100D03*
%TD*%
%TO.C,C6*%
X128854200Y-121166000D03*
X128854200Y-122301000D03*
%TD*%
D29*
%TO.C,D27*%
X116306600Y-124510800D03*
%TD*%
D31*
%TO.C,R5*%
X139266300Y-124942600D03*
X137441300Y-124942600D03*
%TD*%
D32*
%TO.C,D23*%
X139827000Y-123356600D03*
X139827000Y-121956600D03*
%TD*%
%LPD*%
M02*
