%TF.GenerationSoftware,KiCad,Pcbnew,7.0.7*%
%TF.CreationDate,2024-03-02T19:09:38+03:00*%
%TF.ProjectId,Main_PCB_002,4d61696e-5f50-4434-925f-3030322e6b69,rev?*%
%TF.SameCoordinates,Original*%
%TF.FileFunction,Copper,L2,Bot*%
%TF.FilePolarity,Positive*%
%FSLAX46Y46*%
G04 Gerber Fmt 4.6, Leading zero omitted, Abs format (unit mm)*
G04 Created by KiCad (PCBNEW 7.0.7) date 2024-03-02 19:09:38*
%MOMM*%
%LPD*%
G01*
G04 APERTURE LIST*
%TA.AperFunction,ComponentPad*%
%ADD10C,0.499999*%
%TD*%
%TA.AperFunction,ComponentPad*%
%ADD11C,1.600000*%
%TD*%
%TA.AperFunction,SMDPad,CuDef*%
%ADD12R,0.500000X4.780000*%
%TD*%
%TA.AperFunction,SMDPad,CuDef*%
%ADD13R,2.780000X4.780000*%
%TD*%
%TA.AperFunction,ViaPad*%
%ADD14C,0.800000*%
%TD*%
G04 APERTURE END LIST*
D10*
%TO.P,U1,V*%
%TO.N,GND2*%
X122850399Y-122428000D03*
X123850400Y-121228000D03*
X123850400Y-122428000D03*
X123850400Y-123628000D03*
X124850401Y-122428000D03*
%TD*%
D11*
%TO.P,D28,1,Conn*%
%TO.N,GND2*%
X116433600Y-120116600D03*
%TD*%
%TO.P,D27,1,Conn*%
%TO.N,Net-(D27-Conn)*%
X116306600Y-124510800D03*
%TD*%
D12*
%TO.P,D6,1,K*%
%TO.N,Net-(D6-K)*%
X122155400Y-122631000D03*
%TO.P,D6,2,A*%
%TO.N,Net-(D6-A)*%
X117875400Y-122631000D03*
D13*
%TO.P,D6,3,PAD*%
%TO.N,GND2*%
X120015400Y-122631000D03*
%TD*%
D12*
%TO.P,D7,1,K*%
%TO.N,Net-(D7-K)*%
X130258000Y-122580200D03*
%TO.P,D7,2,A*%
%TO.N,Net-(D6-K)*%
X125978000Y-122580200D03*
D13*
%TO.P,D7,3,PAD*%
%TO.N,GND2*%
X128118000Y-122580200D03*
%TD*%
D12*
%TO.P,D8,1,K*%
%TO.N,Net-(D8-K)*%
X138132000Y-122529400D03*
%TO.P,D8,2,A*%
%TO.N,Net-(D7-K)*%
X133852000Y-122529400D03*
D13*
%TO.P,D8,3,PAD*%
%TO.N,GND2*%
X135992000Y-122529400D03*
%TD*%
D14*
%TO.N,GND2*%
X137261600Y-122758200D03*
X127736600Y-122707400D03*
X136931400Y-120446800D03*
X140462000Y-120472200D03*
X140716000Y-124968000D03*
X119989600Y-124510800D03*
%TO.N,Net-(D6-A)*%
X117881400Y-120573800D03*
%TO.N,Net-(D8-K)*%
X138531600Y-120548400D03*
%TD*%
%TA.AperFunction,Conductor*%
%TO.N,GND2*%
G36*
X141675039Y-119145685D02*
G01*
X141720794Y-119198489D01*
X141732000Y-119250000D01*
X141732000Y-125860000D01*
X141712315Y-125927039D01*
X141659511Y-125972794D01*
X141608000Y-125984000D01*
X115440000Y-125984000D01*
X115372961Y-125964315D01*
X115327206Y-125911511D01*
X115316000Y-125860000D01*
X115316000Y-125306220D01*
X115335685Y-125239181D01*
X115388489Y-125193426D01*
X115457647Y-125183482D01*
X115521203Y-125212507D01*
X115535854Y-125227557D01*
X115560187Y-125257208D01*
X115619909Y-125306220D01*
X115720150Y-125388485D01*
X115902646Y-125486032D01*
X116100666Y-125546100D01*
X116100665Y-125546100D01*
X116119129Y-125547918D01*
X116306600Y-125566383D01*
X116512534Y-125546100D01*
X116710554Y-125486032D01*
X116893050Y-125388485D01*
X117053010Y-125257210D01*
X117183461Y-125098253D01*
X117241207Y-125058919D01*
X117311052Y-125057048D01*
X117370820Y-125093235D01*
X117381206Y-125109548D01*
X117382649Y-125108585D01*
X117389433Y-125118739D01*
X117389434Y-125118740D01*
X117444799Y-125201601D01*
X117527660Y-125256965D01*
X117527660Y-125256966D01*
X117527664Y-125256967D01*
X117600721Y-125271499D01*
X117600724Y-125271500D01*
X117600726Y-125271500D01*
X118150076Y-125271500D01*
X118150077Y-125271499D01*
X118223140Y-125256966D01*
X118306001Y-125201601D01*
X118361366Y-125118740D01*
X118375899Y-125045678D01*
X121654900Y-125045678D01*
X121669432Y-125118735D01*
X121669433Y-125118739D01*
X121669434Y-125118740D01*
X121724799Y-125201601D01*
X121807660Y-125256965D01*
X121807660Y-125256966D01*
X121807664Y-125256967D01*
X121880721Y-125271499D01*
X121880724Y-125271500D01*
X121880726Y-125271500D01*
X122430076Y-125271500D01*
X122430077Y-125271499D01*
X122503140Y-125256966D01*
X122586001Y-125201601D01*
X122641366Y-125118740D01*
X122655900Y-125045674D01*
X122655900Y-124994878D01*
X125477500Y-124994878D01*
X125492032Y-125067935D01*
X125492033Y-125067939D01*
X125492034Y-125067940D01*
X125547399Y-125150801D01*
X125623428Y-125201601D01*
X125630260Y-125206166D01*
X125630264Y-125206167D01*
X125703321Y-125220699D01*
X125703324Y-125220700D01*
X125703326Y-125220700D01*
X126252676Y-125220700D01*
X126252677Y-125220699D01*
X126325740Y-125206166D01*
X126408601Y-125150801D01*
X126463966Y-125067940D01*
X126478499Y-124994878D01*
X129757500Y-124994878D01*
X129772032Y-125067935D01*
X129772033Y-125067939D01*
X129772034Y-125067940D01*
X129827399Y-125150801D01*
X129903428Y-125201601D01*
X129910260Y-125206166D01*
X129910264Y-125206167D01*
X129983321Y-125220699D01*
X129983324Y-125220700D01*
X129983326Y-125220700D01*
X130532676Y-125220700D01*
X130532677Y-125220699D01*
X130605740Y-125206166D01*
X130688601Y-125150801D01*
X130743966Y-125067940D01*
X130758500Y-124994874D01*
X130758500Y-124944078D01*
X133351500Y-124944078D01*
X133366032Y-125017135D01*
X133366033Y-125017139D01*
X133366034Y-125017140D01*
X133421399Y-125100001D01*
X133497428Y-125150801D01*
X133504260Y-125155366D01*
X133504264Y-125155367D01*
X133577321Y-125169899D01*
X133577324Y-125169900D01*
X133577326Y-125169900D01*
X134126676Y-125169900D01*
X134126677Y-125169899D01*
X134199740Y-125155366D01*
X134282601Y-125100001D01*
X134337966Y-125017140D01*
X134352499Y-124944078D01*
X137631500Y-124944078D01*
X137646032Y-125017135D01*
X137646033Y-125017139D01*
X137646034Y-125017140D01*
X137701399Y-125100001D01*
X137777428Y-125150801D01*
X137784260Y-125155366D01*
X137784264Y-125155367D01*
X137857321Y-125169899D01*
X137857324Y-125169900D01*
X137857326Y-125169900D01*
X138406676Y-125169900D01*
X138406677Y-125169899D01*
X138479740Y-125155366D01*
X138562601Y-125100001D01*
X138617966Y-125017140D01*
X138632500Y-124944074D01*
X138632500Y-121290645D01*
X138652185Y-121223607D01*
X138704989Y-121177852D01*
X138726828Y-121170249D01*
X138763962Y-121161097D01*
X138763963Y-121161096D01*
X138763965Y-121161096D01*
X138903840Y-121087683D01*
X139022083Y-120982930D01*
X139111820Y-120852923D01*
X139167837Y-120705218D01*
X139186878Y-120548400D01*
X139167837Y-120391582D01*
X139111820Y-120243877D01*
X139022083Y-120113870D01*
X138903840Y-120009117D01*
X138903838Y-120009116D01*
X138903837Y-120009115D01*
X138763965Y-119935703D01*
X138610586Y-119897900D01*
X138610585Y-119897900D01*
X138464136Y-119897900D01*
X138439946Y-119895518D01*
X138406674Y-119888900D01*
X137857326Y-119888900D01*
X137857323Y-119888900D01*
X137784264Y-119903432D01*
X137784260Y-119903433D01*
X137701399Y-119958799D01*
X137646033Y-120041660D01*
X137646032Y-120041664D01*
X137631500Y-120114721D01*
X137631500Y-124944078D01*
X134352499Y-124944078D01*
X134352500Y-124944074D01*
X134352500Y-120114726D01*
X134352500Y-120114725D01*
X134352500Y-120114723D01*
X134352499Y-120114721D01*
X134337967Y-120041664D01*
X134337966Y-120041660D01*
X134316544Y-120009599D01*
X134282601Y-119958799D01*
X134199740Y-119903434D01*
X134199739Y-119903433D01*
X134199735Y-119903432D01*
X134126677Y-119888900D01*
X134126674Y-119888900D01*
X133577326Y-119888900D01*
X133577323Y-119888900D01*
X133504264Y-119903432D01*
X133504260Y-119903433D01*
X133421399Y-119958799D01*
X133366033Y-120041660D01*
X133366032Y-120041664D01*
X133351500Y-120114721D01*
X133351500Y-124944078D01*
X130758500Y-124944078D01*
X130758500Y-120165526D01*
X130758500Y-120165523D01*
X130758499Y-120165521D01*
X130743967Y-120092464D01*
X130743966Y-120092460D01*
X130722546Y-120060402D01*
X130688601Y-120009599D01*
X130616022Y-119961104D01*
X130605739Y-119954233D01*
X130605735Y-119954232D01*
X130532677Y-119939700D01*
X130532674Y-119939700D01*
X129983326Y-119939700D01*
X129983323Y-119939700D01*
X129910264Y-119954232D01*
X129910260Y-119954233D01*
X129827399Y-120009599D01*
X129772033Y-120092460D01*
X129772032Y-120092464D01*
X129757500Y-120165521D01*
X129757500Y-124994878D01*
X126478499Y-124994878D01*
X126478500Y-124994874D01*
X126478500Y-120165526D01*
X126478500Y-120165523D01*
X126478499Y-120165521D01*
X126463967Y-120092464D01*
X126463966Y-120092460D01*
X126442546Y-120060402D01*
X126408601Y-120009599D01*
X126336022Y-119961104D01*
X126325739Y-119954233D01*
X126325735Y-119954232D01*
X126252677Y-119939700D01*
X126252674Y-119939700D01*
X125703326Y-119939700D01*
X125703323Y-119939700D01*
X125630264Y-119954232D01*
X125630260Y-119954233D01*
X125547399Y-120009599D01*
X125492033Y-120092460D01*
X125492032Y-120092464D01*
X125477500Y-120165521D01*
X125477500Y-124994878D01*
X122655900Y-124994878D01*
X122655900Y-120216326D01*
X122655900Y-120216323D01*
X122655899Y-120216321D01*
X122641367Y-120143264D01*
X122641366Y-120143260D01*
X122636983Y-120136701D01*
X122586001Y-120060399D01*
X122503140Y-120005034D01*
X122503139Y-120005033D01*
X122503135Y-120005032D01*
X122430077Y-119990500D01*
X122430074Y-119990500D01*
X121880726Y-119990500D01*
X121880723Y-119990500D01*
X121807664Y-120005032D01*
X121807660Y-120005033D01*
X121724799Y-120060399D01*
X121669433Y-120143260D01*
X121669432Y-120143264D01*
X121654900Y-120216321D01*
X121654900Y-125045678D01*
X118375899Y-125045678D01*
X118375900Y-125045674D01*
X118375900Y-121041148D01*
X118395585Y-120974110D01*
X118397832Y-120970734D01*
X118461620Y-120878323D01*
X118517637Y-120730618D01*
X118536678Y-120573800D01*
X118517637Y-120416982D01*
X118461620Y-120269277D01*
X118371883Y-120139270D01*
X118371880Y-120139267D01*
X118351558Y-120121263D01*
X118330682Y-120097337D01*
X118306004Y-120060402D01*
X118306002Y-120060400D01*
X118306001Y-120060399D01*
X118223140Y-120005034D01*
X118223139Y-120005033D01*
X118223136Y-120005032D01*
X118199365Y-120000304D01*
X118165932Y-119988483D01*
X118113765Y-119961103D01*
X117960386Y-119923300D01*
X117960385Y-119923300D01*
X117802415Y-119923300D01*
X117649035Y-119961104D01*
X117604185Y-119984642D01*
X117570754Y-119996461D01*
X117527660Y-120005033D01*
X117444801Y-120060397D01*
X117444798Y-120060399D01*
X117398078Y-120130321D01*
X117392935Y-120136991D01*
X117390918Y-120139267D01*
X117301181Y-120269275D01*
X117301180Y-120269276D01*
X117245162Y-120416981D01*
X117226121Y-120573799D01*
X117226121Y-120573800D01*
X117245162Y-120730618D01*
X117291547Y-120852923D01*
X117301180Y-120878323D01*
X117352951Y-120953326D01*
X117374833Y-121019678D01*
X117374900Y-121023764D01*
X117374900Y-123810057D01*
X117355215Y-123877096D01*
X117302411Y-123922851D01*
X117233253Y-123932795D01*
X117169697Y-123903770D01*
X117155047Y-123888722D01*
X117053010Y-123764390D01*
X117018789Y-123736306D01*
X116893050Y-123633115D01*
X116710554Y-123535568D01*
X116512534Y-123475500D01*
X116512532Y-123475499D01*
X116512534Y-123475499D01*
X116306600Y-123455217D01*
X116100667Y-123475499D01*
X115902643Y-123535569D01*
X115792498Y-123594443D01*
X115720150Y-123633115D01*
X115720148Y-123633116D01*
X115720147Y-123633117D01*
X115560189Y-123764390D01*
X115535853Y-123794044D01*
X115478108Y-123833378D01*
X115408263Y-123835249D01*
X115348495Y-123799061D01*
X115317779Y-123736306D01*
X115316000Y-123715379D01*
X115316000Y-119250000D01*
X115335685Y-119182961D01*
X115388489Y-119137206D01*
X115440000Y-119126000D01*
X141608000Y-119126000D01*
X141675039Y-119145685D01*
G37*
%TD.AperFunction*%
%TD*%
M02*
