%TF.GenerationSoftware,KiCad,Pcbnew,7.0.7*%
%TF.CreationDate,2023-12-25T15:57:39+03:00*%
%TF.ProjectId,Main_PCB_002,4d61696e-5f50-4434-925f-3030322e6b69,rev?*%
%TF.SameCoordinates,Original*%
%TF.FileFunction,Legend,Top*%
%TF.FilePolarity,Positive*%
%FSLAX46Y46*%
G04 Gerber Fmt 4.6, Leading zero omitted, Abs format (unit mm)*
G04 Created by KiCad (PCBNEW 7.0.7) date 2023-12-25 15:57:39*
%MOMM*%
%LPD*%
G01*
G04 APERTURE LIST*
G04 Aperture macros list*
%AMRoundRect*
0 Rectangle with rounded corners*
0 $1 Rounding radius*
0 $2 $3 $4 $5 $6 $7 $8 $9 X,Y pos of 4 corners*
0 Add a 4 corners polygon primitive as box body*
4,1,4,$2,$3,$4,$5,$6,$7,$8,$9,$2,$3,0*
0 Add four circle primitives for the rounded corners*
1,1,$1+$1,$2,$3*
1,1,$1+$1,$4,$5*
1,1,$1+$1,$6,$7*
1,1,$1+$1,$8,$9*
0 Add four rect primitives between the rounded corners*
20,1,$1+$1,$2,$3,$4,$5,0*
20,1,$1+$1,$4,$5,$6,$7,0*
20,1,$1+$1,$6,$7,$8,$9,0*
20,1,$1+$1,$8,$9,$2,$3,0*%
G04 Aperture macros list end*
%ADD10C,0.150000*%
%ADD11C,0.100000*%
%ADD12C,0.120000*%
%ADD13C,0.152400*%
%ADD14RoundRect,0.237500X0.250000X0.237500X-0.250000X0.237500X-0.250000X-0.237500X0.250000X-0.237500X0*%
%ADD15RoundRect,0.249999X-0.450001X-1.425001X0.450001X-1.425001X0.450001X1.425001X-0.450001X1.425001X0*%
%ADD16RoundRect,0.249999X0.450001X1.425001X-0.450001X1.425001X-0.450001X-1.425001X0.450001X-1.425001X0*%
%ADD17RoundRect,0.237500X-0.237500X0.250000X-0.237500X-0.250000X0.237500X-0.250000X0.237500X0.250000X0*%
%ADD18RoundRect,0.237500X0.237500X-0.250000X0.237500X0.250000X-0.237500X0.250000X-0.237500X-0.250000X0*%
%ADD19RoundRect,0.237500X-0.250000X-0.237500X0.250000X-0.237500X0.250000X0.237500X-0.250000X0.237500X0*%
%ADD20C,1.600000*%
%ADD21R,1.168400X0.304800*%
%ADD22RoundRect,0.237500X0.300000X0.237500X-0.300000X0.237500X-0.300000X-0.237500X0.300000X-0.237500X0*%
%ADD23RoundRect,0.237500X-0.237500X0.300000X-0.237500X-0.300000X0.237500X-0.300000X0.237500X0.300000X0*%
%ADD24RoundRect,0.150000X-0.512500X-0.150000X0.512500X-0.150000X0.512500X0.150000X-0.512500X0.150000X0*%
%ADD25RoundRect,0.150000X0.200000X-0.150000X0.200000X0.150000X-0.200000X0.150000X-0.200000X-0.150000X0*%
G04 APERTURE END LIST*
D10*
X170812969Y-130869819D02*
X170336779Y-130869819D01*
X170336779Y-130869819D02*
X170336779Y-129869819D01*
X171289160Y-130869819D02*
X171193922Y-130822200D01*
X171193922Y-130822200D02*
X171146303Y-130774580D01*
X171146303Y-130774580D02*
X171098684Y-130679342D01*
X171098684Y-130679342D02*
X171098684Y-130393628D01*
X171098684Y-130393628D02*
X171146303Y-130298390D01*
X171146303Y-130298390D02*
X171193922Y-130250771D01*
X171193922Y-130250771D02*
X171289160Y-130203152D01*
X171289160Y-130203152D02*
X171432017Y-130203152D01*
X171432017Y-130203152D02*
X171527255Y-130250771D01*
X171527255Y-130250771D02*
X171574874Y-130298390D01*
X171574874Y-130298390D02*
X171622493Y-130393628D01*
X171622493Y-130393628D02*
X171622493Y-130679342D01*
X171622493Y-130679342D02*
X171574874Y-130774580D01*
X171574874Y-130774580D02*
X171527255Y-130822200D01*
X171527255Y-130822200D02*
X171432017Y-130869819D01*
X171432017Y-130869819D02*
X171289160Y-130869819D01*
X172479636Y-130869819D02*
X172479636Y-130346009D01*
X172479636Y-130346009D02*
X172432017Y-130250771D01*
X172432017Y-130250771D02*
X172336779Y-130203152D01*
X172336779Y-130203152D02*
X172146303Y-130203152D01*
X172146303Y-130203152D02*
X172051065Y-130250771D01*
X172479636Y-130822200D02*
X172384398Y-130869819D01*
X172384398Y-130869819D02*
X172146303Y-130869819D01*
X172146303Y-130869819D02*
X172051065Y-130822200D01*
X172051065Y-130822200D02*
X172003446Y-130726961D01*
X172003446Y-130726961D02*
X172003446Y-130631723D01*
X172003446Y-130631723D02*
X172051065Y-130536485D01*
X172051065Y-130536485D02*
X172146303Y-130488866D01*
X172146303Y-130488866D02*
X172384398Y-130488866D01*
X172384398Y-130488866D02*
X172479636Y-130441247D01*
X173384398Y-130869819D02*
X173384398Y-129869819D01*
X173384398Y-130822200D02*
X173289160Y-130869819D01*
X173289160Y-130869819D02*
X173098684Y-130869819D01*
X173098684Y-130869819D02*
X173003446Y-130822200D01*
X173003446Y-130822200D02*
X172955827Y-130774580D01*
X172955827Y-130774580D02*
X172908208Y-130679342D01*
X172908208Y-130679342D02*
X172908208Y-130393628D01*
X172908208Y-130393628D02*
X172955827Y-130298390D01*
X172955827Y-130298390D02*
X173003446Y-130250771D01*
X173003446Y-130250771D02*
X173098684Y-130203152D01*
X173098684Y-130203152D02*
X173289160Y-130203152D01*
X173289160Y-130203152D02*
X173384398Y-130250771D01*
X173860589Y-130488866D02*
X174622494Y-130488866D01*
D11*
X63500000Y-53340000D02*
X196850000Y-53340000D01*
X196850000Y-149860000D02*
X63500000Y-149860000D01*
X196850000Y-53340000D02*
X196850000Y-149860000D01*
X63500000Y-149860000D02*
X63500000Y-53340000D01*
D10*
X142860588Y-106417438D02*
X142765350Y-106369819D01*
X142765350Y-106369819D02*
X142622493Y-106369819D01*
X142622493Y-106369819D02*
X142479636Y-106417438D01*
X142479636Y-106417438D02*
X142384398Y-106512676D01*
X142384398Y-106512676D02*
X142336779Y-106607914D01*
X142336779Y-106607914D02*
X142289160Y-106798390D01*
X142289160Y-106798390D02*
X142289160Y-106941247D01*
X142289160Y-106941247D02*
X142336779Y-107131723D01*
X142336779Y-107131723D02*
X142384398Y-107226961D01*
X142384398Y-107226961D02*
X142479636Y-107322200D01*
X142479636Y-107322200D02*
X142622493Y-107369819D01*
X142622493Y-107369819D02*
X142717731Y-107369819D01*
X142717731Y-107369819D02*
X142860588Y-107322200D01*
X142860588Y-107322200D02*
X142908207Y-107274580D01*
X142908207Y-107274580D02*
X142908207Y-106941247D01*
X142908207Y-106941247D02*
X142717731Y-106941247D01*
X143336779Y-107369819D02*
X143336779Y-106369819D01*
X143336779Y-106369819D02*
X143908207Y-107369819D01*
X143908207Y-107369819D02*
X143908207Y-106369819D01*
X144384398Y-107369819D02*
X144384398Y-106369819D01*
X144384398Y-106369819D02*
X144622493Y-106369819D01*
X144622493Y-106369819D02*
X144765350Y-106417438D01*
X144765350Y-106417438D02*
X144860588Y-106512676D01*
X144860588Y-106512676D02*
X144908207Y-106607914D01*
X144908207Y-106607914D02*
X144955826Y-106798390D01*
X144955826Y-106798390D02*
X144955826Y-106941247D01*
X144955826Y-106941247D02*
X144908207Y-107131723D01*
X144908207Y-107131723D02*
X144860588Y-107226961D01*
X144860588Y-107226961D02*
X144765350Y-107322200D01*
X144765350Y-107322200D02*
X144622493Y-107369819D01*
X144622493Y-107369819D02*
X144384398Y-107369819D01*
X95993922Y-108569819D02*
X96327255Y-109569819D01*
X96327255Y-109569819D02*
X96660588Y-108569819D01*
X96755827Y-109665057D02*
X97517731Y-109665057D01*
X97755827Y-109569819D02*
X97755827Y-108903152D01*
X97755827Y-108569819D02*
X97708208Y-108617438D01*
X97708208Y-108617438D02*
X97755827Y-108665057D01*
X97755827Y-108665057D02*
X97803446Y-108617438D01*
X97803446Y-108617438D02*
X97755827Y-108569819D01*
X97755827Y-108569819D02*
X97755827Y-108665057D01*
X98232017Y-108903152D02*
X98232017Y-109569819D01*
X98232017Y-108998390D02*
X98279636Y-108950771D01*
X98279636Y-108950771D02*
X98374874Y-108903152D01*
X98374874Y-108903152D02*
X98517731Y-108903152D01*
X98517731Y-108903152D02*
X98612969Y-108950771D01*
X98612969Y-108950771D02*
X98660588Y-109046009D01*
X98660588Y-109046009D02*
X98660588Y-109569819D01*
X99136779Y-109188866D02*
X99898684Y-109188866D01*
X99517731Y-109569819D02*
X99517731Y-108807914D01*
X169012969Y-110069819D02*
X168536779Y-110069819D01*
X168536779Y-110069819D02*
X168536779Y-109069819D01*
X169489160Y-110069819D02*
X169393922Y-110022200D01*
X169393922Y-110022200D02*
X169346303Y-109974580D01*
X169346303Y-109974580D02*
X169298684Y-109879342D01*
X169298684Y-109879342D02*
X169298684Y-109593628D01*
X169298684Y-109593628D02*
X169346303Y-109498390D01*
X169346303Y-109498390D02*
X169393922Y-109450771D01*
X169393922Y-109450771D02*
X169489160Y-109403152D01*
X169489160Y-109403152D02*
X169632017Y-109403152D01*
X169632017Y-109403152D02*
X169727255Y-109450771D01*
X169727255Y-109450771D02*
X169774874Y-109498390D01*
X169774874Y-109498390D02*
X169822493Y-109593628D01*
X169822493Y-109593628D02*
X169822493Y-109879342D01*
X169822493Y-109879342D02*
X169774874Y-109974580D01*
X169774874Y-109974580D02*
X169727255Y-110022200D01*
X169727255Y-110022200D02*
X169632017Y-110069819D01*
X169632017Y-110069819D02*
X169489160Y-110069819D01*
X170679636Y-110069819D02*
X170679636Y-109546009D01*
X170679636Y-109546009D02*
X170632017Y-109450771D01*
X170632017Y-109450771D02*
X170536779Y-109403152D01*
X170536779Y-109403152D02*
X170346303Y-109403152D01*
X170346303Y-109403152D02*
X170251065Y-109450771D01*
X170679636Y-110022200D02*
X170584398Y-110069819D01*
X170584398Y-110069819D02*
X170346303Y-110069819D01*
X170346303Y-110069819D02*
X170251065Y-110022200D01*
X170251065Y-110022200D02*
X170203446Y-109926961D01*
X170203446Y-109926961D02*
X170203446Y-109831723D01*
X170203446Y-109831723D02*
X170251065Y-109736485D01*
X170251065Y-109736485D02*
X170346303Y-109688866D01*
X170346303Y-109688866D02*
X170584398Y-109688866D01*
X170584398Y-109688866D02*
X170679636Y-109641247D01*
X171584398Y-110069819D02*
X171584398Y-109069819D01*
X171584398Y-110022200D02*
X171489160Y-110069819D01*
X171489160Y-110069819D02*
X171298684Y-110069819D01*
X171298684Y-110069819D02*
X171203446Y-110022200D01*
X171203446Y-110022200D02*
X171155827Y-109974580D01*
X171155827Y-109974580D02*
X171108208Y-109879342D01*
X171108208Y-109879342D02*
X171108208Y-109593628D01*
X171108208Y-109593628D02*
X171155827Y-109498390D01*
X171155827Y-109498390D02*
X171203446Y-109450771D01*
X171203446Y-109450771D02*
X171298684Y-109403152D01*
X171298684Y-109403152D02*
X171489160Y-109403152D01*
X171489160Y-109403152D02*
X171584398Y-109450771D01*
X172060589Y-109688866D02*
X172822494Y-109688866D01*
X142512969Y-123119819D02*
X142036779Y-123119819D01*
X142036779Y-123119819D02*
X142036779Y-122119819D01*
X142989160Y-123119819D02*
X142893922Y-123072200D01*
X142893922Y-123072200D02*
X142846303Y-123024580D01*
X142846303Y-123024580D02*
X142798684Y-122929342D01*
X142798684Y-122929342D02*
X142798684Y-122643628D01*
X142798684Y-122643628D02*
X142846303Y-122548390D01*
X142846303Y-122548390D02*
X142893922Y-122500771D01*
X142893922Y-122500771D02*
X142989160Y-122453152D01*
X142989160Y-122453152D02*
X143132017Y-122453152D01*
X143132017Y-122453152D02*
X143227255Y-122500771D01*
X143227255Y-122500771D02*
X143274874Y-122548390D01*
X143274874Y-122548390D02*
X143322493Y-122643628D01*
X143322493Y-122643628D02*
X143322493Y-122929342D01*
X143322493Y-122929342D02*
X143274874Y-123024580D01*
X143274874Y-123024580D02*
X143227255Y-123072200D01*
X143227255Y-123072200D02*
X143132017Y-123119819D01*
X143132017Y-123119819D02*
X142989160Y-123119819D01*
X144179636Y-123119819D02*
X144179636Y-122596009D01*
X144179636Y-122596009D02*
X144132017Y-122500771D01*
X144132017Y-122500771D02*
X144036779Y-122453152D01*
X144036779Y-122453152D02*
X143846303Y-122453152D01*
X143846303Y-122453152D02*
X143751065Y-122500771D01*
X144179636Y-123072200D02*
X144084398Y-123119819D01*
X144084398Y-123119819D02*
X143846303Y-123119819D01*
X143846303Y-123119819D02*
X143751065Y-123072200D01*
X143751065Y-123072200D02*
X143703446Y-122976961D01*
X143703446Y-122976961D02*
X143703446Y-122881723D01*
X143703446Y-122881723D02*
X143751065Y-122786485D01*
X143751065Y-122786485D02*
X143846303Y-122738866D01*
X143846303Y-122738866D02*
X144084398Y-122738866D01*
X144084398Y-122738866D02*
X144179636Y-122691247D01*
X145084398Y-123119819D02*
X145084398Y-122119819D01*
X145084398Y-123072200D02*
X144989160Y-123119819D01*
X144989160Y-123119819D02*
X144798684Y-123119819D01*
X144798684Y-123119819D02*
X144703446Y-123072200D01*
X144703446Y-123072200D02*
X144655827Y-123024580D01*
X144655827Y-123024580D02*
X144608208Y-122929342D01*
X144608208Y-122929342D02*
X144608208Y-122643628D01*
X144608208Y-122643628D02*
X144655827Y-122548390D01*
X144655827Y-122548390D02*
X144703446Y-122500771D01*
X144703446Y-122500771D02*
X144798684Y-122453152D01*
X144798684Y-122453152D02*
X144989160Y-122453152D01*
X144989160Y-122453152D02*
X145084398Y-122500771D01*
X145560589Y-122738866D02*
X146322494Y-122738866D01*
X98260588Y-105169819D02*
X97689160Y-105169819D01*
X97974874Y-105169819D02*
X97974874Y-104169819D01*
X97974874Y-104169819D02*
X97879636Y-104312676D01*
X97879636Y-104312676D02*
X97784398Y-104407914D01*
X97784398Y-104407914D02*
X97689160Y-104455533D01*
X98689160Y-105169819D02*
X98689160Y-104169819D01*
X98689160Y-104169819D02*
X99022493Y-104884104D01*
X99022493Y-104884104D02*
X99355826Y-104169819D01*
X99355826Y-104169819D02*
X99355826Y-105169819D01*
X99832017Y-105169819D02*
X99832017Y-104169819D01*
X99832017Y-104646009D02*
X100403445Y-104646009D01*
X100403445Y-105169819D02*
X100403445Y-104169819D01*
X100784398Y-104503152D02*
X101308207Y-104503152D01*
X101308207Y-104503152D02*
X100784398Y-105169819D01*
X100784398Y-105169819D02*
X101308207Y-105169819D01*
X110293922Y-98869819D02*
X110627255Y-99869819D01*
X110627255Y-99869819D02*
X110960588Y-98869819D01*
X111055827Y-99965057D02*
X111817731Y-99965057D01*
X112055827Y-99869819D02*
X112055827Y-99203152D01*
X112055827Y-98869819D02*
X112008208Y-98917438D01*
X112008208Y-98917438D02*
X112055827Y-98965057D01*
X112055827Y-98965057D02*
X112103446Y-98917438D01*
X112103446Y-98917438D02*
X112055827Y-98869819D01*
X112055827Y-98869819D02*
X112055827Y-98965057D01*
X112532017Y-99203152D02*
X112532017Y-99869819D01*
X112532017Y-99298390D02*
X112579636Y-99250771D01*
X112579636Y-99250771D02*
X112674874Y-99203152D01*
X112674874Y-99203152D02*
X112817731Y-99203152D01*
X112817731Y-99203152D02*
X112912969Y-99250771D01*
X112912969Y-99250771D02*
X112960588Y-99346009D01*
X112960588Y-99346009D02*
X112960588Y-99869819D01*
X113436779Y-99488866D02*
X114198684Y-99488866D01*
X113817731Y-99869819D02*
X113817731Y-99107914D01*
X162983519Y-91809470D02*
X162507329Y-91809470D01*
X162507329Y-91809470D02*
X162507329Y-90809470D01*
X163459710Y-91809470D02*
X163364472Y-91761851D01*
X163364472Y-91761851D02*
X163316853Y-91714231D01*
X163316853Y-91714231D02*
X163269234Y-91618993D01*
X163269234Y-91618993D02*
X163269234Y-91333279D01*
X163269234Y-91333279D02*
X163316853Y-91238041D01*
X163316853Y-91238041D02*
X163364472Y-91190422D01*
X163364472Y-91190422D02*
X163459710Y-91142803D01*
X163459710Y-91142803D02*
X163602567Y-91142803D01*
X163602567Y-91142803D02*
X163697805Y-91190422D01*
X163697805Y-91190422D02*
X163745424Y-91238041D01*
X163745424Y-91238041D02*
X163793043Y-91333279D01*
X163793043Y-91333279D02*
X163793043Y-91618993D01*
X163793043Y-91618993D02*
X163745424Y-91714231D01*
X163745424Y-91714231D02*
X163697805Y-91761851D01*
X163697805Y-91761851D02*
X163602567Y-91809470D01*
X163602567Y-91809470D02*
X163459710Y-91809470D01*
X164650186Y-91809470D02*
X164650186Y-91285660D01*
X164650186Y-91285660D02*
X164602567Y-91190422D01*
X164602567Y-91190422D02*
X164507329Y-91142803D01*
X164507329Y-91142803D02*
X164316853Y-91142803D01*
X164316853Y-91142803D02*
X164221615Y-91190422D01*
X164650186Y-91761851D02*
X164554948Y-91809470D01*
X164554948Y-91809470D02*
X164316853Y-91809470D01*
X164316853Y-91809470D02*
X164221615Y-91761851D01*
X164221615Y-91761851D02*
X164173996Y-91666612D01*
X164173996Y-91666612D02*
X164173996Y-91571374D01*
X164173996Y-91571374D02*
X164221615Y-91476136D01*
X164221615Y-91476136D02*
X164316853Y-91428517D01*
X164316853Y-91428517D02*
X164554948Y-91428517D01*
X164554948Y-91428517D02*
X164650186Y-91380898D01*
X165554948Y-91809470D02*
X165554948Y-90809470D01*
X165554948Y-91761851D02*
X165459710Y-91809470D01*
X165459710Y-91809470D02*
X165269234Y-91809470D01*
X165269234Y-91809470D02*
X165173996Y-91761851D01*
X165173996Y-91761851D02*
X165126377Y-91714231D01*
X165126377Y-91714231D02*
X165078758Y-91618993D01*
X165078758Y-91618993D02*
X165078758Y-91333279D01*
X165078758Y-91333279D02*
X165126377Y-91238041D01*
X165126377Y-91238041D02*
X165173996Y-91190422D01*
X165173996Y-91190422D02*
X165269234Y-91142803D01*
X165269234Y-91142803D02*
X165459710Y-91142803D01*
X165459710Y-91142803D02*
X165554948Y-91190422D01*
X166031139Y-91428517D02*
X166793044Y-91428517D01*
X166412091Y-91809470D02*
X166412091Y-91047565D01*
X96041541Y-102469819D02*
X96708207Y-102469819D01*
X96708207Y-102469819D02*
X96279636Y-103469819D01*
X97279636Y-102469819D02*
X97374874Y-102469819D01*
X97374874Y-102469819D02*
X97470112Y-102517438D01*
X97470112Y-102517438D02*
X97517731Y-102565057D01*
X97517731Y-102565057D02*
X97565350Y-102660295D01*
X97565350Y-102660295D02*
X97612969Y-102850771D01*
X97612969Y-102850771D02*
X97612969Y-103088866D01*
X97612969Y-103088866D02*
X97565350Y-103279342D01*
X97565350Y-103279342D02*
X97517731Y-103374580D01*
X97517731Y-103374580D02*
X97470112Y-103422200D01*
X97470112Y-103422200D02*
X97374874Y-103469819D01*
X97374874Y-103469819D02*
X97279636Y-103469819D01*
X97279636Y-103469819D02*
X97184398Y-103422200D01*
X97184398Y-103422200D02*
X97136779Y-103374580D01*
X97136779Y-103374580D02*
X97089160Y-103279342D01*
X97089160Y-103279342D02*
X97041541Y-103088866D01*
X97041541Y-103088866D02*
X97041541Y-102850771D01*
X97041541Y-102850771D02*
X97089160Y-102660295D01*
X97089160Y-102660295D02*
X97136779Y-102565057D01*
X97136779Y-102565057D02*
X97184398Y-102517438D01*
X97184398Y-102517438D02*
X97279636Y-102469819D01*
X98232017Y-102469819D02*
X98327255Y-102469819D01*
X98327255Y-102469819D02*
X98422493Y-102517438D01*
X98422493Y-102517438D02*
X98470112Y-102565057D01*
X98470112Y-102565057D02*
X98517731Y-102660295D01*
X98517731Y-102660295D02*
X98565350Y-102850771D01*
X98565350Y-102850771D02*
X98565350Y-103088866D01*
X98565350Y-103088866D02*
X98517731Y-103279342D01*
X98517731Y-103279342D02*
X98470112Y-103374580D01*
X98470112Y-103374580D02*
X98422493Y-103422200D01*
X98422493Y-103422200D02*
X98327255Y-103469819D01*
X98327255Y-103469819D02*
X98232017Y-103469819D01*
X98232017Y-103469819D02*
X98136779Y-103422200D01*
X98136779Y-103422200D02*
X98089160Y-103374580D01*
X98089160Y-103374580D02*
X98041541Y-103279342D01*
X98041541Y-103279342D02*
X97993922Y-103088866D01*
X97993922Y-103088866D02*
X97993922Y-102850771D01*
X97993922Y-102850771D02*
X98041541Y-102660295D01*
X98041541Y-102660295D02*
X98089160Y-102565057D01*
X98089160Y-102565057D02*
X98136779Y-102517438D01*
X98136779Y-102517438D02*
X98232017Y-102469819D01*
X98993922Y-103469819D02*
X98993922Y-102469819D01*
X99089160Y-103088866D02*
X99374874Y-103469819D01*
X99374874Y-102803152D02*
X98993922Y-103184104D01*
X99803446Y-103469819D02*
X99803446Y-102469819D01*
X99803446Y-102946009D02*
X100374874Y-102946009D01*
X100374874Y-103469819D02*
X100374874Y-102469819D01*
X100755827Y-102803152D02*
X101279636Y-102803152D01*
X101279636Y-102803152D02*
X100755827Y-103469819D01*
X100755827Y-103469819D02*
X101279636Y-103469819D01*
X163336779Y-112319819D02*
X163336779Y-111653152D01*
X163336779Y-111748390D02*
X163384398Y-111700771D01*
X163384398Y-111700771D02*
X163479636Y-111653152D01*
X163479636Y-111653152D02*
X163622493Y-111653152D01*
X163622493Y-111653152D02*
X163717731Y-111700771D01*
X163717731Y-111700771D02*
X163765350Y-111796009D01*
X163765350Y-111796009D02*
X163765350Y-112319819D01*
X163765350Y-111796009D02*
X163812969Y-111700771D01*
X163812969Y-111700771D02*
X163908207Y-111653152D01*
X163908207Y-111653152D02*
X164051064Y-111653152D01*
X164051064Y-111653152D02*
X164146303Y-111700771D01*
X164146303Y-111700771D02*
X164193922Y-111796009D01*
X164193922Y-111796009D02*
X164193922Y-112319819D01*
X165098683Y-112319819D02*
X165098683Y-111796009D01*
X165098683Y-111796009D02*
X165051064Y-111700771D01*
X165051064Y-111700771D02*
X164955826Y-111653152D01*
X164955826Y-111653152D02*
X164765350Y-111653152D01*
X164765350Y-111653152D02*
X164670112Y-111700771D01*
X165098683Y-112272200D02*
X165003445Y-112319819D01*
X165003445Y-112319819D02*
X164765350Y-112319819D01*
X164765350Y-112319819D02*
X164670112Y-112272200D01*
X164670112Y-112272200D02*
X164622493Y-112176961D01*
X164622493Y-112176961D02*
X164622493Y-112081723D01*
X164622493Y-112081723D02*
X164670112Y-111986485D01*
X164670112Y-111986485D02*
X164765350Y-111938866D01*
X164765350Y-111938866D02*
X165003445Y-111938866D01*
X165003445Y-111938866D02*
X165098683Y-111891247D01*
X165479636Y-112319819D02*
X166003445Y-111653152D01*
X165479636Y-111653152D02*
X166003445Y-112319819D01*
X135832122Y-116169819D02*
X136165455Y-117169819D01*
X136165455Y-117169819D02*
X136498788Y-116169819D01*
X137403550Y-117074580D02*
X137355931Y-117122200D01*
X137355931Y-117122200D02*
X137213074Y-117169819D01*
X137213074Y-117169819D02*
X137117836Y-117169819D01*
X137117836Y-117169819D02*
X136974979Y-117122200D01*
X136974979Y-117122200D02*
X136879741Y-117026961D01*
X136879741Y-117026961D02*
X136832122Y-116931723D01*
X136832122Y-116931723D02*
X136784503Y-116741247D01*
X136784503Y-116741247D02*
X136784503Y-116598390D01*
X136784503Y-116598390D02*
X136832122Y-116407914D01*
X136832122Y-116407914D02*
X136879741Y-116312676D01*
X136879741Y-116312676D02*
X136974979Y-116217438D01*
X136974979Y-116217438D02*
X137117836Y-116169819D01*
X137117836Y-116169819D02*
X137213074Y-116169819D01*
X137213074Y-116169819D02*
X137355931Y-116217438D01*
X137355931Y-116217438D02*
X137403550Y-116265057D01*
X138403550Y-117074580D02*
X138355931Y-117122200D01*
X138355931Y-117122200D02*
X138213074Y-117169819D01*
X138213074Y-117169819D02*
X138117836Y-117169819D01*
X138117836Y-117169819D02*
X137974979Y-117122200D01*
X137974979Y-117122200D02*
X137879741Y-117026961D01*
X137879741Y-117026961D02*
X137832122Y-116931723D01*
X137832122Y-116931723D02*
X137784503Y-116741247D01*
X137784503Y-116741247D02*
X137784503Y-116598390D01*
X137784503Y-116598390D02*
X137832122Y-116407914D01*
X137832122Y-116407914D02*
X137879741Y-116312676D01*
X137879741Y-116312676D02*
X137974979Y-116217438D01*
X137974979Y-116217438D02*
X138117836Y-116169819D01*
X138117836Y-116169819D02*
X138213074Y-116169819D01*
X138213074Y-116169819D02*
X138355931Y-116217438D01*
X138355931Y-116217438D02*
X138403550Y-116265057D01*
X138832122Y-116788866D02*
X139594027Y-116788866D01*
X139213074Y-117169819D02*
X139213074Y-116407914D01*
X90093922Y-93669819D02*
X90427255Y-94669819D01*
X90427255Y-94669819D02*
X90760588Y-93669819D01*
X90855827Y-94765057D02*
X91617731Y-94765057D01*
X91855827Y-94669819D02*
X91855827Y-94003152D01*
X91855827Y-93669819D02*
X91808208Y-93717438D01*
X91808208Y-93717438D02*
X91855827Y-93765057D01*
X91855827Y-93765057D02*
X91903446Y-93717438D01*
X91903446Y-93717438D02*
X91855827Y-93669819D01*
X91855827Y-93669819D02*
X91855827Y-93765057D01*
X92332017Y-94003152D02*
X92332017Y-94669819D01*
X92332017Y-94098390D02*
X92379636Y-94050771D01*
X92379636Y-94050771D02*
X92474874Y-94003152D01*
X92474874Y-94003152D02*
X92617731Y-94003152D01*
X92617731Y-94003152D02*
X92712969Y-94050771D01*
X92712969Y-94050771D02*
X92760588Y-94146009D01*
X92760588Y-94146009D02*
X92760588Y-94669819D01*
X93236779Y-94288866D02*
X93998684Y-94288866D01*
X93617731Y-94669819D02*
X93617731Y-93907914D01*
X160293922Y-105409819D02*
X160627255Y-106409819D01*
X160627255Y-106409819D02*
X160960588Y-105409819D01*
X161865350Y-106314580D02*
X161817731Y-106362200D01*
X161817731Y-106362200D02*
X161674874Y-106409819D01*
X161674874Y-106409819D02*
X161579636Y-106409819D01*
X161579636Y-106409819D02*
X161436779Y-106362200D01*
X161436779Y-106362200D02*
X161341541Y-106266961D01*
X161341541Y-106266961D02*
X161293922Y-106171723D01*
X161293922Y-106171723D02*
X161246303Y-105981247D01*
X161246303Y-105981247D02*
X161246303Y-105838390D01*
X161246303Y-105838390D02*
X161293922Y-105647914D01*
X161293922Y-105647914D02*
X161341541Y-105552676D01*
X161341541Y-105552676D02*
X161436779Y-105457438D01*
X161436779Y-105457438D02*
X161579636Y-105409819D01*
X161579636Y-105409819D02*
X161674874Y-105409819D01*
X161674874Y-105409819D02*
X161817731Y-105457438D01*
X161817731Y-105457438D02*
X161865350Y-105505057D01*
X162865350Y-106314580D02*
X162817731Y-106362200D01*
X162817731Y-106362200D02*
X162674874Y-106409819D01*
X162674874Y-106409819D02*
X162579636Y-106409819D01*
X162579636Y-106409819D02*
X162436779Y-106362200D01*
X162436779Y-106362200D02*
X162341541Y-106266961D01*
X162341541Y-106266961D02*
X162293922Y-106171723D01*
X162293922Y-106171723D02*
X162246303Y-105981247D01*
X162246303Y-105981247D02*
X162246303Y-105838390D01*
X162246303Y-105838390D02*
X162293922Y-105647914D01*
X162293922Y-105647914D02*
X162341541Y-105552676D01*
X162341541Y-105552676D02*
X162436779Y-105457438D01*
X162436779Y-105457438D02*
X162579636Y-105409819D01*
X162579636Y-105409819D02*
X162674874Y-105409819D01*
X162674874Y-105409819D02*
X162817731Y-105457438D01*
X162817731Y-105457438D02*
X162865350Y-105505057D01*
X111136779Y-106346009D02*
X111470112Y-106346009D01*
X111612969Y-106869819D02*
X111136779Y-106869819D01*
X111136779Y-106869819D02*
X111136779Y-105869819D01*
X111136779Y-105869819D02*
X111612969Y-105869819D01*
X112041541Y-106869819D02*
X112041541Y-105869819D01*
X112041541Y-105869819D02*
X112612969Y-106869819D01*
X112612969Y-106869819D02*
X112612969Y-105869819D01*
X166260588Y-121967438D02*
X166165350Y-121919819D01*
X166165350Y-121919819D02*
X166022493Y-121919819D01*
X166022493Y-121919819D02*
X165879636Y-121967438D01*
X165879636Y-121967438D02*
X165784398Y-122062676D01*
X165784398Y-122062676D02*
X165736779Y-122157914D01*
X165736779Y-122157914D02*
X165689160Y-122348390D01*
X165689160Y-122348390D02*
X165689160Y-122491247D01*
X165689160Y-122491247D02*
X165736779Y-122681723D01*
X165736779Y-122681723D02*
X165784398Y-122776961D01*
X165784398Y-122776961D02*
X165879636Y-122872200D01*
X165879636Y-122872200D02*
X166022493Y-122919819D01*
X166022493Y-122919819D02*
X166117731Y-122919819D01*
X166117731Y-122919819D02*
X166260588Y-122872200D01*
X166260588Y-122872200D02*
X166308207Y-122824580D01*
X166308207Y-122824580D02*
X166308207Y-122491247D01*
X166308207Y-122491247D02*
X166117731Y-122491247D01*
X166736779Y-122919819D02*
X166736779Y-121919819D01*
X166736779Y-121919819D02*
X167308207Y-122919819D01*
X167308207Y-122919819D02*
X167308207Y-121919819D01*
X167784398Y-122919819D02*
X167784398Y-121919819D01*
X167784398Y-121919819D02*
X168022493Y-121919819D01*
X168022493Y-121919819D02*
X168165350Y-121967438D01*
X168165350Y-121967438D02*
X168260588Y-122062676D01*
X168260588Y-122062676D02*
X168308207Y-122157914D01*
X168308207Y-122157914D02*
X168355826Y-122348390D01*
X168355826Y-122348390D02*
X168355826Y-122491247D01*
X168355826Y-122491247D02*
X168308207Y-122681723D01*
X168308207Y-122681723D02*
X168260588Y-122776961D01*
X168260588Y-122776961D02*
X168165350Y-122872200D01*
X168165350Y-122872200D02*
X168022493Y-122919819D01*
X168022493Y-122919819D02*
X167784398Y-122919819D01*
X117360588Y-114917438D02*
X117265350Y-114869819D01*
X117265350Y-114869819D02*
X117122493Y-114869819D01*
X117122493Y-114869819D02*
X116979636Y-114917438D01*
X116979636Y-114917438D02*
X116884398Y-115012676D01*
X116884398Y-115012676D02*
X116836779Y-115107914D01*
X116836779Y-115107914D02*
X116789160Y-115298390D01*
X116789160Y-115298390D02*
X116789160Y-115441247D01*
X116789160Y-115441247D02*
X116836779Y-115631723D01*
X116836779Y-115631723D02*
X116884398Y-115726961D01*
X116884398Y-115726961D02*
X116979636Y-115822200D01*
X116979636Y-115822200D02*
X117122493Y-115869819D01*
X117122493Y-115869819D02*
X117217731Y-115869819D01*
X117217731Y-115869819D02*
X117360588Y-115822200D01*
X117360588Y-115822200D02*
X117408207Y-115774580D01*
X117408207Y-115774580D02*
X117408207Y-115441247D01*
X117408207Y-115441247D02*
X117217731Y-115441247D01*
X117836779Y-115869819D02*
X117836779Y-114869819D01*
X117836779Y-114869819D02*
X118408207Y-115869819D01*
X118408207Y-115869819D02*
X118408207Y-114869819D01*
X118884398Y-115869819D02*
X118884398Y-114869819D01*
X118884398Y-114869819D02*
X119122493Y-114869819D01*
X119122493Y-114869819D02*
X119265350Y-114917438D01*
X119265350Y-114917438D02*
X119360588Y-115012676D01*
X119360588Y-115012676D02*
X119408207Y-115107914D01*
X119408207Y-115107914D02*
X119455826Y-115298390D01*
X119455826Y-115298390D02*
X119455826Y-115441247D01*
X119455826Y-115441247D02*
X119408207Y-115631723D01*
X119408207Y-115631723D02*
X119360588Y-115726961D01*
X119360588Y-115726961D02*
X119265350Y-115822200D01*
X119265350Y-115822200D02*
X119122493Y-115869819D01*
X119122493Y-115869819D02*
X118884398Y-115869819D01*
X162464472Y-86809470D02*
X162797805Y-87809470D01*
X162797805Y-87809470D02*
X163131138Y-86809470D01*
X157770112Y-114696009D02*
X157436779Y-114696009D01*
X157436779Y-115219819D02*
X157436779Y-114219819D01*
X157436779Y-114219819D02*
X157912969Y-114219819D01*
X158627255Y-114696009D02*
X158770112Y-114743628D01*
X158770112Y-114743628D02*
X158817731Y-114791247D01*
X158817731Y-114791247D02*
X158865350Y-114886485D01*
X158865350Y-114886485D02*
X158865350Y-115029342D01*
X158865350Y-115029342D02*
X158817731Y-115124580D01*
X158817731Y-115124580D02*
X158770112Y-115172200D01*
X158770112Y-115172200D02*
X158674874Y-115219819D01*
X158674874Y-115219819D02*
X158293922Y-115219819D01*
X158293922Y-115219819D02*
X158293922Y-114219819D01*
X158293922Y-114219819D02*
X158627255Y-114219819D01*
X158627255Y-114219819D02*
X158722493Y-114267438D01*
X158722493Y-114267438D02*
X158770112Y-114315057D01*
X158770112Y-114315057D02*
X158817731Y-114410295D01*
X158817731Y-114410295D02*
X158817731Y-114505533D01*
X158817731Y-114505533D02*
X158770112Y-114600771D01*
X158770112Y-114600771D02*
X158722493Y-114648390D01*
X158722493Y-114648390D02*
X158627255Y-114696009D01*
X158627255Y-114696009D02*
X158293922Y-114696009D01*
X136032122Y-113169819D02*
X136365455Y-114169819D01*
X136365455Y-114169819D02*
X136698788Y-113169819D01*
X137603550Y-114074580D02*
X137555931Y-114122200D01*
X137555931Y-114122200D02*
X137413074Y-114169819D01*
X137413074Y-114169819D02*
X137317836Y-114169819D01*
X137317836Y-114169819D02*
X137174979Y-114122200D01*
X137174979Y-114122200D02*
X137079741Y-114026961D01*
X137079741Y-114026961D02*
X137032122Y-113931723D01*
X137032122Y-113931723D02*
X136984503Y-113741247D01*
X136984503Y-113741247D02*
X136984503Y-113598390D01*
X136984503Y-113598390D02*
X137032122Y-113407914D01*
X137032122Y-113407914D02*
X137079741Y-113312676D01*
X137079741Y-113312676D02*
X137174979Y-113217438D01*
X137174979Y-113217438D02*
X137317836Y-113169819D01*
X137317836Y-113169819D02*
X137413074Y-113169819D01*
X137413074Y-113169819D02*
X137555931Y-113217438D01*
X137555931Y-113217438D02*
X137603550Y-113265057D01*
X138603550Y-114074580D02*
X138555931Y-114122200D01*
X138555931Y-114122200D02*
X138413074Y-114169819D01*
X138413074Y-114169819D02*
X138317836Y-114169819D01*
X138317836Y-114169819D02*
X138174979Y-114122200D01*
X138174979Y-114122200D02*
X138079741Y-114026961D01*
X138079741Y-114026961D02*
X138032122Y-113931723D01*
X138032122Y-113931723D02*
X137984503Y-113741247D01*
X137984503Y-113741247D02*
X137984503Y-113598390D01*
X137984503Y-113598390D02*
X138032122Y-113407914D01*
X138032122Y-113407914D02*
X138079741Y-113312676D01*
X138079741Y-113312676D02*
X138174979Y-113217438D01*
X138174979Y-113217438D02*
X138317836Y-113169819D01*
X138317836Y-113169819D02*
X138413074Y-113169819D01*
X138413074Y-113169819D02*
X138555931Y-113217438D01*
X138555931Y-113217438D02*
X138603550Y-113265057D01*
X139032122Y-113788866D02*
X139794027Y-113788866D01*
X139413074Y-114169819D02*
X139413074Y-113407914D01*
X90607488Y-111417438D02*
X90512250Y-111369819D01*
X90512250Y-111369819D02*
X90369393Y-111369819D01*
X90369393Y-111369819D02*
X90226536Y-111417438D01*
X90226536Y-111417438D02*
X90131298Y-111512676D01*
X90131298Y-111512676D02*
X90083679Y-111607914D01*
X90083679Y-111607914D02*
X90036060Y-111798390D01*
X90036060Y-111798390D02*
X90036060Y-111941247D01*
X90036060Y-111941247D02*
X90083679Y-112131723D01*
X90083679Y-112131723D02*
X90131298Y-112226961D01*
X90131298Y-112226961D02*
X90226536Y-112322200D01*
X90226536Y-112322200D02*
X90369393Y-112369819D01*
X90369393Y-112369819D02*
X90464631Y-112369819D01*
X90464631Y-112369819D02*
X90607488Y-112322200D01*
X90607488Y-112322200D02*
X90655107Y-112274580D01*
X90655107Y-112274580D02*
X90655107Y-111941247D01*
X90655107Y-111941247D02*
X90464631Y-111941247D01*
X91083679Y-112369819D02*
X91083679Y-111369819D01*
X91083679Y-111369819D02*
X91655107Y-112369819D01*
X91655107Y-112369819D02*
X91655107Y-111369819D01*
X92131298Y-112369819D02*
X92131298Y-111369819D01*
X92131298Y-111369819D02*
X92369393Y-111369819D01*
X92369393Y-111369819D02*
X92512250Y-111417438D01*
X92512250Y-111417438D02*
X92607488Y-111512676D01*
X92607488Y-111512676D02*
X92655107Y-111607914D01*
X92655107Y-111607914D02*
X92702726Y-111798390D01*
X92702726Y-111798390D02*
X92702726Y-111941247D01*
X92702726Y-111941247D02*
X92655107Y-112131723D01*
X92655107Y-112131723D02*
X92607488Y-112226961D01*
X92607488Y-112226961D02*
X92512250Y-112322200D01*
X92512250Y-112322200D02*
X92369393Y-112369819D01*
X92369393Y-112369819D02*
X92131298Y-112369819D01*
X159293922Y-110219819D02*
X159627255Y-111219819D01*
X159627255Y-111219819D02*
X159960588Y-110219819D01*
X159479636Y-115619819D02*
X159384398Y-115572200D01*
X159384398Y-115572200D02*
X159336779Y-115524580D01*
X159336779Y-115524580D02*
X159289160Y-115429342D01*
X159289160Y-115429342D02*
X159289160Y-115143628D01*
X159289160Y-115143628D02*
X159336779Y-115048390D01*
X159336779Y-115048390D02*
X159384398Y-115000771D01*
X159384398Y-115000771D02*
X159479636Y-114953152D01*
X159479636Y-114953152D02*
X159622493Y-114953152D01*
X159622493Y-114953152D02*
X159717731Y-115000771D01*
X159717731Y-115000771D02*
X159765350Y-115048390D01*
X159765350Y-115048390D02*
X159812969Y-115143628D01*
X159812969Y-115143628D02*
X159812969Y-115429342D01*
X159812969Y-115429342D02*
X159765350Y-115524580D01*
X159765350Y-115524580D02*
X159717731Y-115572200D01*
X159717731Y-115572200D02*
X159622493Y-115619819D01*
X159622493Y-115619819D02*
X159479636Y-115619819D01*
X160670112Y-114953152D02*
X160670112Y-115619819D01*
X160241541Y-114953152D02*
X160241541Y-115476961D01*
X160241541Y-115476961D02*
X160289160Y-115572200D01*
X160289160Y-115572200D02*
X160384398Y-115619819D01*
X160384398Y-115619819D02*
X160527255Y-115619819D01*
X160527255Y-115619819D02*
X160622493Y-115572200D01*
X160622493Y-115572200D02*
X160670112Y-115524580D01*
X161003446Y-114953152D02*
X161384398Y-114953152D01*
X161146303Y-114619819D02*
X161146303Y-115476961D01*
X161146303Y-115476961D02*
X161193922Y-115572200D01*
X161193922Y-115572200D02*
X161289160Y-115619819D01*
X161289160Y-115619819D02*
X161384398Y-115619819D01*
X96565350Y-100903152D02*
X96565350Y-101569819D01*
X96327255Y-100522200D02*
X96089160Y-101236485D01*
X96089160Y-101236485D02*
X96708207Y-101236485D01*
X97279636Y-100569819D02*
X97374874Y-100569819D01*
X97374874Y-100569819D02*
X97470112Y-100617438D01*
X97470112Y-100617438D02*
X97517731Y-100665057D01*
X97517731Y-100665057D02*
X97565350Y-100760295D01*
X97565350Y-100760295D02*
X97612969Y-100950771D01*
X97612969Y-100950771D02*
X97612969Y-101188866D01*
X97612969Y-101188866D02*
X97565350Y-101379342D01*
X97565350Y-101379342D02*
X97517731Y-101474580D01*
X97517731Y-101474580D02*
X97470112Y-101522200D01*
X97470112Y-101522200D02*
X97374874Y-101569819D01*
X97374874Y-101569819D02*
X97279636Y-101569819D01*
X97279636Y-101569819D02*
X97184398Y-101522200D01*
X97184398Y-101522200D02*
X97136779Y-101474580D01*
X97136779Y-101474580D02*
X97089160Y-101379342D01*
X97089160Y-101379342D02*
X97041541Y-101188866D01*
X97041541Y-101188866D02*
X97041541Y-100950771D01*
X97041541Y-100950771D02*
X97089160Y-100760295D01*
X97089160Y-100760295D02*
X97136779Y-100665057D01*
X97136779Y-100665057D02*
X97184398Y-100617438D01*
X97184398Y-100617438D02*
X97279636Y-100569819D01*
X98232017Y-100569819D02*
X98327255Y-100569819D01*
X98327255Y-100569819D02*
X98422493Y-100617438D01*
X98422493Y-100617438D02*
X98470112Y-100665057D01*
X98470112Y-100665057D02*
X98517731Y-100760295D01*
X98517731Y-100760295D02*
X98565350Y-100950771D01*
X98565350Y-100950771D02*
X98565350Y-101188866D01*
X98565350Y-101188866D02*
X98517731Y-101379342D01*
X98517731Y-101379342D02*
X98470112Y-101474580D01*
X98470112Y-101474580D02*
X98422493Y-101522200D01*
X98422493Y-101522200D02*
X98327255Y-101569819D01*
X98327255Y-101569819D02*
X98232017Y-101569819D01*
X98232017Y-101569819D02*
X98136779Y-101522200D01*
X98136779Y-101522200D02*
X98089160Y-101474580D01*
X98089160Y-101474580D02*
X98041541Y-101379342D01*
X98041541Y-101379342D02*
X97993922Y-101188866D01*
X97993922Y-101188866D02*
X97993922Y-100950771D01*
X97993922Y-100950771D02*
X98041541Y-100760295D01*
X98041541Y-100760295D02*
X98089160Y-100665057D01*
X98089160Y-100665057D02*
X98136779Y-100617438D01*
X98136779Y-100617438D02*
X98232017Y-100569819D01*
X98993922Y-101569819D02*
X98993922Y-100569819D01*
X99089160Y-101188866D02*
X99374874Y-101569819D01*
X99374874Y-100903152D02*
X98993922Y-101284104D01*
X99803446Y-101569819D02*
X99803446Y-100569819D01*
X99803446Y-101046009D02*
X100374874Y-101046009D01*
X100374874Y-101569819D02*
X100374874Y-100569819D01*
X100755827Y-100903152D02*
X101279636Y-100903152D01*
X101279636Y-100903152D02*
X100755827Y-101569819D01*
X100755827Y-101569819D02*
X101279636Y-101569819D01*
X149770112Y-84946009D02*
X149436779Y-84946009D01*
X149436779Y-85469819D02*
X149436779Y-84469819D01*
X149436779Y-84469819D02*
X149912969Y-84469819D01*
X150627255Y-84946009D02*
X150770112Y-84993628D01*
X150770112Y-84993628D02*
X150817731Y-85041247D01*
X150817731Y-85041247D02*
X150865350Y-85136485D01*
X150865350Y-85136485D02*
X150865350Y-85279342D01*
X150865350Y-85279342D02*
X150817731Y-85374580D01*
X150817731Y-85374580D02*
X150770112Y-85422200D01*
X150770112Y-85422200D02*
X150674874Y-85469819D01*
X150674874Y-85469819D02*
X150293922Y-85469819D01*
X150293922Y-85469819D02*
X150293922Y-84469819D01*
X150293922Y-84469819D02*
X150627255Y-84469819D01*
X150627255Y-84469819D02*
X150722493Y-84517438D01*
X150722493Y-84517438D02*
X150770112Y-84565057D01*
X150770112Y-84565057D02*
X150817731Y-84660295D01*
X150817731Y-84660295D02*
X150817731Y-84755533D01*
X150817731Y-84755533D02*
X150770112Y-84850771D01*
X150770112Y-84850771D02*
X150722493Y-84898390D01*
X150722493Y-84898390D02*
X150627255Y-84946009D01*
X150627255Y-84946009D02*
X150293922Y-84946009D01*
X160336779Y-111053152D02*
X160336779Y-112053152D01*
X160336779Y-111100771D02*
X160432017Y-111053152D01*
X160432017Y-111053152D02*
X160622493Y-111053152D01*
X160622493Y-111053152D02*
X160717731Y-111100771D01*
X160717731Y-111100771D02*
X160765350Y-111148390D01*
X160765350Y-111148390D02*
X160812969Y-111243628D01*
X160812969Y-111243628D02*
X160812969Y-111529342D01*
X160812969Y-111529342D02*
X160765350Y-111624580D01*
X160765350Y-111624580D02*
X160717731Y-111672200D01*
X160717731Y-111672200D02*
X160622493Y-111719819D01*
X160622493Y-111719819D02*
X160432017Y-111719819D01*
X160432017Y-111719819D02*
X160336779Y-111672200D01*
X161146303Y-111053152D02*
X161336779Y-111719819D01*
X161336779Y-111719819D02*
X161527255Y-111243628D01*
X161527255Y-111243628D02*
X161717731Y-111719819D01*
X161717731Y-111719819D02*
X161908207Y-111053152D01*
X162289160Y-111719819D02*
X162289160Y-111053152D01*
X162289160Y-111243628D02*
X162336779Y-111148390D01*
X162336779Y-111148390D02*
X162384398Y-111100771D01*
X162384398Y-111100771D02*
X162479636Y-111053152D01*
X162479636Y-111053152D02*
X162574874Y-111053152D01*
X151479636Y-85869819D02*
X151384398Y-85822200D01*
X151384398Y-85822200D02*
X151336779Y-85774580D01*
X151336779Y-85774580D02*
X151289160Y-85679342D01*
X151289160Y-85679342D02*
X151289160Y-85393628D01*
X151289160Y-85393628D02*
X151336779Y-85298390D01*
X151336779Y-85298390D02*
X151384398Y-85250771D01*
X151384398Y-85250771D02*
X151479636Y-85203152D01*
X151479636Y-85203152D02*
X151622493Y-85203152D01*
X151622493Y-85203152D02*
X151717731Y-85250771D01*
X151717731Y-85250771D02*
X151765350Y-85298390D01*
X151765350Y-85298390D02*
X151812969Y-85393628D01*
X151812969Y-85393628D02*
X151812969Y-85679342D01*
X151812969Y-85679342D02*
X151765350Y-85774580D01*
X151765350Y-85774580D02*
X151717731Y-85822200D01*
X151717731Y-85822200D02*
X151622493Y-85869819D01*
X151622493Y-85869819D02*
X151479636Y-85869819D01*
X152670112Y-85203152D02*
X152670112Y-85869819D01*
X152241541Y-85203152D02*
X152241541Y-85726961D01*
X152241541Y-85726961D02*
X152289160Y-85822200D01*
X152289160Y-85822200D02*
X152384398Y-85869819D01*
X152384398Y-85869819D02*
X152527255Y-85869819D01*
X152527255Y-85869819D02*
X152622493Y-85822200D01*
X152622493Y-85822200D02*
X152670112Y-85774580D01*
X153003446Y-85203152D02*
X153384398Y-85203152D01*
X153146303Y-84869819D02*
X153146303Y-85726961D01*
X153146303Y-85726961D02*
X153193922Y-85822200D01*
X153193922Y-85822200D02*
X153289160Y-85869819D01*
X153289160Y-85869819D02*
X153384398Y-85869819D01*
X166407329Y-88509470D02*
X166407329Y-87842803D01*
X166407329Y-87938041D02*
X166454948Y-87890422D01*
X166454948Y-87890422D02*
X166550186Y-87842803D01*
X166550186Y-87842803D02*
X166693043Y-87842803D01*
X166693043Y-87842803D02*
X166788281Y-87890422D01*
X166788281Y-87890422D02*
X166835900Y-87985660D01*
X166835900Y-87985660D02*
X166835900Y-88509470D01*
X166835900Y-87985660D02*
X166883519Y-87890422D01*
X166883519Y-87890422D02*
X166978757Y-87842803D01*
X166978757Y-87842803D02*
X167121614Y-87842803D01*
X167121614Y-87842803D02*
X167216853Y-87890422D01*
X167216853Y-87890422D02*
X167264472Y-87985660D01*
X167264472Y-87985660D02*
X167264472Y-88509470D01*
X168169233Y-88509470D02*
X168169233Y-87985660D01*
X168169233Y-87985660D02*
X168121614Y-87890422D01*
X168121614Y-87890422D02*
X168026376Y-87842803D01*
X168026376Y-87842803D02*
X167835900Y-87842803D01*
X167835900Y-87842803D02*
X167740662Y-87890422D01*
X168169233Y-88461851D02*
X168073995Y-88509470D01*
X168073995Y-88509470D02*
X167835900Y-88509470D01*
X167835900Y-88509470D02*
X167740662Y-88461851D01*
X167740662Y-88461851D02*
X167693043Y-88366612D01*
X167693043Y-88366612D02*
X167693043Y-88271374D01*
X167693043Y-88271374D02*
X167740662Y-88176136D01*
X167740662Y-88176136D02*
X167835900Y-88128517D01*
X167835900Y-88128517D02*
X168073995Y-88128517D01*
X168073995Y-88128517D02*
X168169233Y-88080898D01*
X168550186Y-88509470D02*
X169073995Y-87842803D01*
X168550186Y-87842803D02*
X169073995Y-88509470D01*
X118160588Y-92517438D02*
X118065350Y-92469819D01*
X118065350Y-92469819D02*
X117922493Y-92469819D01*
X117922493Y-92469819D02*
X117779636Y-92517438D01*
X117779636Y-92517438D02*
X117684398Y-92612676D01*
X117684398Y-92612676D02*
X117636779Y-92707914D01*
X117636779Y-92707914D02*
X117589160Y-92898390D01*
X117589160Y-92898390D02*
X117589160Y-93041247D01*
X117589160Y-93041247D02*
X117636779Y-93231723D01*
X117636779Y-93231723D02*
X117684398Y-93326961D01*
X117684398Y-93326961D02*
X117779636Y-93422200D01*
X117779636Y-93422200D02*
X117922493Y-93469819D01*
X117922493Y-93469819D02*
X118017731Y-93469819D01*
X118017731Y-93469819D02*
X118160588Y-93422200D01*
X118160588Y-93422200D02*
X118208207Y-93374580D01*
X118208207Y-93374580D02*
X118208207Y-93041247D01*
X118208207Y-93041247D02*
X118017731Y-93041247D01*
X118636779Y-93469819D02*
X118636779Y-92469819D01*
X118636779Y-92469819D02*
X119208207Y-93469819D01*
X119208207Y-93469819D02*
X119208207Y-92469819D01*
X119684398Y-93469819D02*
X119684398Y-92469819D01*
X119684398Y-92469819D02*
X119922493Y-92469819D01*
X119922493Y-92469819D02*
X120065350Y-92517438D01*
X120065350Y-92517438D02*
X120160588Y-92612676D01*
X120160588Y-92612676D02*
X120208207Y-92707914D01*
X120208207Y-92707914D02*
X120255826Y-92898390D01*
X120255826Y-92898390D02*
X120255826Y-93041247D01*
X120255826Y-93041247D02*
X120208207Y-93231723D01*
X120208207Y-93231723D02*
X120160588Y-93326961D01*
X120160588Y-93326961D02*
X120065350Y-93422200D01*
X120065350Y-93422200D02*
X119922493Y-93469819D01*
X119922493Y-93469819D02*
X119684398Y-93469819D01*
X160765350Y-107353152D02*
X160765350Y-108019819D01*
X160527255Y-106972200D02*
X160289160Y-107686485D01*
X160289160Y-107686485D02*
X160908207Y-107686485D01*
X161289160Y-107924580D02*
X161336779Y-107972200D01*
X161336779Y-107972200D02*
X161289160Y-108019819D01*
X161289160Y-108019819D02*
X161241541Y-107972200D01*
X161241541Y-107972200D02*
X161289160Y-107924580D01*
X161289160Y-107924580D02*
X161289160Y-108019819D01*
X161670112Y-107019819D02*
X162336778Y-107019819D01*
X162336778Y-107019819D02*
X161908207Y-108019819D01*
X162574874Y-107019819D02*
X162908207Y-108019819D01*
X162908207Y-108019819D02*
X163241540Y-107019819D01*
X166831138Y-87309470D02*
X166259710Y-87309470D01*
X166545424Y-87309470D02*
X166545424Y-86309470D01*
X166545424Y-86309470D02*
X166450186Y-86452327D01*
X166450186Y-86452327D02*
X166354948Y-86547565D01*
X166354948Y-86547565D02*
X166259710Y-86595184D01*
X167402567Y-86738041D02*
X167307329Y-86690422D01*
X167307329Y-86690422D02*
X167259710Y-86642803D01*
X167259710Y-86642803D02*
X167212091Y-86547565D01*
X167212091Y-86547565D02*
X167212091Y-86499946D01*
X167212091Y-86499946D02*
X167259710Y-86404708D01*
X167259710Y-86404708D02*
X167307329Y-86357089D01*
X167307329Y-86357089D02*
X167402567Y-86309470D01*
X167402567Y-86309470D02*
X167593043Y-86309470D01*
X167593043Y-86309470D02*
X167688281Y-86357089D01*
X167688281Y-86357089D02*
X167735900Y-86404708D01*
X167735900Y-86404708D02*
X167783519Y-86499946D01*
X167783519Y-86499946D02*
X167783519Y-86547565D01*
X167783519Y-86547565D02*
X167735900Y-86642803D01*
X167735900Y-86642803D02*
X167688281Y-86690422D01*
X167688281Y-86690422D02*
X167593043Y-86738041D01*
X167593043Y-86738041D02*
X167402567Y-86738041D01*
X167402567Y-86738041D02*
X167307329Y-86785660D01*
X167307329Y-86785660D02*
X167259710Y-86833279D01*
X167259710Y-86833279D02*
X167212091Y-86928517D01*
X167212091Y-86928517D02*
X167212091Y-87118993D01*
X167212091Y-87118993D02*
X167259710Y-87214231D01*
X167259710Y-87214231D02*
X167307329Y-87261851D01*
X167307329Y-87261851D02*
X167402567Y-87309470D01*
X167402567Y-87309470D02*
X167593043Y-87309470D01*
X167593043Y-87309470D02*
X167688281Y-87261851D01*
X167688281Y-87261851D02*
X167735900Y-87214231D01*
X167735900Y-87214231D02*
X167783519Y-87118993D01*
X167783519Y-87118993D02*
X167783519Y-86928517D01*
X167783519Y-86928517D02*
X167735900Y-86833279D01*
X167735900Y-86833279D02*
X167688281Y-86785660D01*
X167688281Y-86785660D02*
X167593043Y-86738041D01*
X168069234Y-86309470D02*
X168402567Y-87309470D01*
X168402567Y-87309470D02*
X168735900Y-86309470D01*
X111208207Y-103869819D02*
X110874874Y-103393628D01*
X110636779Y-103869819D02*
X110636779Y-102869819D01*
X110636779Y-102869819D02*
X111017731Y-102869819D01*
X111017731Y-102869819D02*
X111112969Y-102917438D01*
X111112969Y-102917438D02*
X111160588Y-102965057D01*
X111160588Y-102965057D02*
X111208207Y-103060295D01*
X111208207Y-103060295D02*
X111208207Y-103203152D01*
X111208207Y-103203152D02*
X111160588Y-103298390D01*
X111160588Y-103298390D02*
X111112969Y-103346009D01*
X111112969Y-103346009D02*
X111017731Y-103393628D01*
X111017731Y-103393628D02*
X110636779Y-103393628D01*
X111827255Y-102869819D02*
X112017731Y-102869819D01*
X112017731Y-102869819D02*
X112112969Y-102917438D01*
X112112969Y-102917438D02*
X112208207Y-103012676D01*
X112208207Y-103012676D02*
X112255826Y-103203152D01*
X112255826Y-103203152D02*
X112255826Y-103536485D01*
X112255826Y-103536485D02*
X112208207Y-103726961D01*
X112208207Y-103726961D02*
X112112969Y-103822200D01*
X112112969Y-103822200D02*
X112017731Y-103869819D01*
X112017731Y-103869819D02*
X111827255Y-103869819D01*
X111827255Y-103869819D02*
X111732017Y-103822200D01*
X111732017Y-103822200D02*
X111636779Y-103726961D01*
X111636779Y-103726961D02*
X111589160Y-103536485D01*
X111589160Y-103536485D02*
X111589160Y-103203152D01*
X111589160Y-103203152D02*
X111636779Y-103012676D01*
X111636779Y-103012676D02*
X111732017Y-102917438D01*
X111732017Y-102917438D02*
X111827255Y-102869819D01*
X112684398Y-103869819D02*
X112684398Y-102869819D01*
X112684398Y-102869819D02*
X113255826Y-103869819D01*
X113255826Y-103869819D02*
X113255826Y-102869819D01*
X110236779Y-107369819D02*
X110236779Y-108179342D01*
X110236779Y-108179342D02*
X110284398Y-108274580D01*
X110284398Y-108274580D02*
X110332017Y-108322200D01*
X110332017Y-108322200D02*
X110427255Y-108369819D01*
X110427255Y-108369819D02*
X110617731Y-108369819D01*
X110617731Y-108369819D02*
X110712969Y-108322200D01*
X110712969Y-108322200D02*
X110760588Y-108274580D01*
X110760588Y-108274580D02*
X110808207Y-108179342D01*
X110808207Y-108179342D02*
X110808207Y-107369819D01*
X111141541Y-107369819D02*
X111474874Y-108369819D01*
X111474874Y-108369819D02*
X111808207Y-107369819D01*
X112617731Y-108369819D02*
X112141541Y-108369819D01*
X112141541Y-108369819D02*
X112141541Y-107369819D01*
X113141541Y-107369819D02*
X113332017Y-107369819D01*
X113332017Y-107369819D02*
X113427255Y-107417438D01*
X113427255Y-107417438D02*
X113522493Y-107512676D01*
X113522493Y-107512676D02*
X113570112Y-107703152D01*
X113570112Y-107703152D02*
X113570112Y-108036485D01*
X113570112Y-108036485D02*
X113522493Y-108226961D01*
X113522493Y-108226961D02*
X113427255Y-108322200D01*
X113427255Y-108322200D02*
X113332017Y-108369819D01*
X113332017Y-108369819D02*
X113141541Y-108369819D01*
X113141541Y-108369819D02*
X113046303Y-108322200D01*
X113046303Y-108322200D02*
X112951065Y-108226961D01*
X112951065Y-108226961D02*
X112903446Y-108036485D01*
X112903446Y-108036485D02*
X112903446Y-107703152D01*
X112903446Y-107703152D02*
X112951065Y-107512676D01*
X112951065Y-107512676D02*
X113046303Y-107417438D01*
X113046303Y-107417438D02*
X113141541Y-107369819D01*
X97060588Y-113517438D02*
X96965350Y-113469819D01*
X96965350Y-113469819D02*
X96822493Y-113469819D01*
X96822493Y-113469819D02*
X96679636Y-113517438D01*
X96679636Y-113517438D02*
X96584398Y-113612676D01*
X96584398Y-113612676D02*
X96536779Y-113707914D01*
X96536779Y-113707914D02*
X96489160Y-113898390D01*
X96489160Y-113898390D02*
X96489160Y-114041247D01*
X96489160Y-114041247D02*
X96536779Y-114231723D01*
X96536779Y-114231723D02*
X96584398Y-114326961D01*
X96584398Y-114326961D02*
X96679636Y-114422200D01*
X96679636Y-114422200D02*
X96822493Y-114469819D01*
X96822493Y-114469819D02*
X96917731Y-114469819D01*
X96917731Y-114469819D02*
X97060588Y-114422200D01*
X97060588Y-114422200D02*
X97108207Y-114374580D01*
X97108207Y-114374580D02*
X97108207Y-114041247D01*
X97108207Y-114041247D02*
X96917731Y-114041247D01*
X97536779Y-114469819D02*
X97536779Y-113469819D01*
X97536779Y-113469819D02*
X98108207Y-114469819D01*
X98108207Y-114469819D02*
X98108207Y-113469819D01*
X98584398Y-114469819D02*
X98584398Y-113469819D01*
X98584398Y-113469819D02*
X98822493Y-113469819D01*
X98822493Y-113469819D02*
X98965350Y-113517438D01*
X98965350Y-113517438D02*
X99060588Y-113612676D01*
X99060588Y-113612676D02*
X99108207Y-113707914D01*
X99108207Y-113707914D02*
X99155826Y-113898390D01*
X99155826Y-113898390D02*
X99155826Y-114041247D01*
X99155826Y-114041247D02*
X99108207Y-114231723D01*
X99108207Y-114231723D02*
X99060588Y-114326961D01*
X99060588Y-114326961D02*
X98965350Y-114422200D01*
X98965350Y-114422200D02*
X98822493Y-114469819D01*
X98822493Y-114469819D02*
X98584398Y-114469819D01*
X168812969Y-97969819D02*
X168336779Y-97969819D01*
X168336779Y-97969819D02*
X168336779Y-96969819D01*
X169289160Y-97969819D02*
X169193922Y-97922200D01*
X169193922Y-97922200D02*
X169146303Y-97874580D01*
X169146303Y-97874580D02*
X169098684Y-97779342D01*
X169098684Y-97779342D02*
X169098684Y-97493628D01*
X169098684Y-97493628D02*
X169146303Y-97398390D01*
X169146303Y-97398390D02*
X169193922Y-97350771D01*
X169193922Y-97350771D02*
X169289160Y-97303152D01*
X169289160Y-97303152D02*
X169432017Y-97303152D01*
X169432017Y-97303152D02*
X169527255Y-97350771D01*
X169527255Y-97350771D02*
X169574874Y-97398390D01*
X169574874Y-97398390D02*
X169622493Y-97493628D01*
X169622493Y-97493628D02*
X169622493Y-97779342D01*
X169622493Y-97779342D02*
X169574874Y-97874580D01*
X169574874Y-97874580D02*
X169527255Y-97922200D01*
X169527255Y-97922200D02*
X169432017Y-97969819D01*
X169432017Y-97969819D02*
X169289160Y-97969819D01*
X170479636Y-97969819D02*
X170479636Y-97446009D01*
X170479636Y-97446009D02*
X170432017Y-97350771D01*
X170432017Y-97350771D02*
X170336779Y-97303152D01*
X170336779Y-97303152D02*
X170146303Y-97303152D01*
X170146303Y-97303152D02*
X170051065Y-97350771D01*
X170479636Y-97922200D02*
X170384398Y-97969819D01*
X170384398Y-97969819D02*
X170146303Y-97969819D01*
X170146303Y-97969819D02*
X170051065Y-97922200D01*
X170051065Y-97922200D02*
X170003446Y-97826961D01*
X170003446Y-97826961D02*
X170003446Y-97731723D01*
X170003446Y-97731723D02*
X170051065Y-97636485D01*
X170051065Y-97636485D02*
X170146303Y-97588866D01*
X170146303Y-97588866D02*
X170384398Y-97588866D01*
X170384398Y-97588866D02*
X170479636Y-97541247D01*
X171384398Y-97969819D02*
X171384398Y-96969819D01*
X171384398Y-97922200D02*
X171289160Y-97969819D01*
X171289160Y-97969819D02*
X171098684Y-97969819D01*
X171098684Y-97969819D02*
X171003446Y-97922200D01*
X171003446Y-97922200D02*
X170955827Y-97874580D01*
X170955827Y-97874580D02*
X170908208Y-97779342D01*
X170908208Y-97779342D02*
X170908208Y-97493628D01*
X170908208Y-97493628D02*
X170955827Y-97398390D01*
X170955827Y-97398390D02*
X171003446Y-97350771D01*
X171003446Y-97350771D02*
X171098684Y-97303152D01*
X171098684Y-97303152D02*
X171289160Y-97303152D01*
X171289160Y-97303152D02*
X171384398Y-97350771D01*
X171860589Y-97588866D02*
X172622494Y-97588866D01*
X172241541Y-97969819D02*
X172241541Y-97207914D01*
X151360588Y-88417438D02*
X151265350Y-88369819D01*
X151265350Y-88369819D02*
X151122493Y-88369819D01*
X151122493Y-88369819D02*
X150979636Y-88417438D01*
X150979636Y-88417438D02*
X150884398Y-88512676D01*
X150884398Y-88512676D02*
X150836779Y-88607914D01*
X150836779Y-88607914D02*
X150789160Y-88798390D01*
X150789160Y-88798390D02*
X150789160Y-88941247D01*
X150789160Y-88941247D02*
X150836779Y-89131723D01*
X150836779Y-89131723D02*
X150884398Y-89226961D01*
X150884398Y-89226961D02*
X150979636Y-89322200D01*
X150979636Y-89322200D02*
X151122493Y-89369819D01*
X151122493Y-89369819D02*
X151217731Y-89369819D01*
X151217731Y-89369819D02*
X151360588Y-89322200D01*
X151360588Y-89322200D02*
X151408207Y-89274580D01*
X151408207Y-89274580D02*
X151408207Y-88941247D01*
X151408207Y-88941247D02*
X151217731Y-88941247D01*
X151836779Y-89369819D02*
X151836779Y-88369819D01*
X151836779Y-88369819D02*
X152408207Y-89369819D01*
X152408207Y-89369819D02*
X152408207Y-88369819D01*
X152884398Y-89369819D02*
X152884398Y-88369819D01*
X152884398Y-88369819D02*
X153122493Y-88369819D01*
X153122493Y-88369819D02*
X153265350Y-88417438D01*
X153265350Y-88417438D02*
X153360588Y-88512676D01*
X153360588Y-88512676D02*
X153408207Y-88607914D01*
X153408207Y-88607914D02*
X153455826Y-88798390D01*
X153455826Y-88798390D02*
X153455826Y-88941247D01*
X153455826Y-88941247D02*
X153408207Y-89131723D01*
X153408207Y-89131723D02*
X153360588Y-89226961D01*
X153360588Y-89226961D02*
X153265350Y-89322200D01*
X153265350Y-89322200D02*
X153122493Y-89369819D01*
X153122493Y-89369819D02*
X152884398Y-89369819D01*
X124808312Y-116246009D02*
X124474979Y-116246009D01*
X124474979Y-116769819D02*
X124474979Y-115769819D01*
X124474979Y-115769819D02*
X124951169Y-115769819D01*
X125332122Y-116769819D02*
X125332122Y-115769819D01*
X125332122Y-115769819D02*
X125713074Y-115769819D01*
X125713074Y-115769819D02*
X125808312Y-115817438D01*
X125808312Y-115817438D02*
X125855931Y-115865057D01*
X125855931Y-115865057D02*
X125903550Y-115960295D01*
X125903550Y-115960295D02*
X125903550Y-116103152D01*
X125903550Y-116103152D02*
X125855931Y-116198390D01*
X125855931Y-116198390D02*
X125808312Y-116246009D01*
X125808312Y-116246009D02*
X125713074Y-116293628D01*
X125713074Y-116293628D02*
X125332122Y-116293628D01*
X126236884Y-115769819D02*
X126474979Y-116769819D01*
X126474979Y-116769819D02*
X126665455Y-116055533D01*
X126665455Y-116055533D02*
X126855931Y-116769819D01*
X126855931Y-116769819D02*
X127094027Y-115769819D01*
X127474979Y-116769819D02*
X127474979Y-115769819D01*
X127474979Y-115769819D02*
X127808312Y-116484104D01*
X127808312Y-116484104D02*
X128141645Y-115769819D01*
X128141645Y-115769819D02*
X128141645Y-116769819D01*
X152907329Y-92409470D02*
X152907329Y-93218993D01*
X152907329Y-93218993D02*
X152954948Y-93314231D01*
X152954948Y-93314231D02*
X153002567Y-93361851D01*
X153002567Y-93361851D02*
X153097805Y-93409470D01*
X153097805Y-93409470D02*
X153288281Y-93409470D01*
X153288281Y-93409470D02*
X153383519Y-93361851D01*
X153383519Y-93361851D02*
X153431138Y-93314231D01*
X153431138Y-93314231D02*
X153478757Y-93218993D01*
X153478757Y-93218993D02*
X153478757Y-92409470D01*
X154097805Y-93409470D02*
X154002567Y-93361851D01*
X154002567Y-93361851D02*
X153954948Y-93314231D01*
X153954948Y-93314231D02*
X153907329Y-93218993D01*
X153907329Y-93218993D02*
X153907329Y-92933279D01*
X153907329Y-92933279D02*
X153954948Y-92838041D01*
X153954948Y-92838041D02*
X154002567Y-92790422D01*
X154002567Y-92790422D02*
X154097805Y-92742803D01*
X154097805Y-92742803D02*
X154240662Y-92742803D01*
X154240662Y-92742803D02*
X154335900Y-92790422D01*
X154335900Y-92790422D02*
X154383519Y-92838041D01*
X154383519Y-92838041D02*
X154431138Y-92933279D01*
X154431138Y-92933279D02*
X154431138Y-93218993D01*
X154431138Y-93218993D02*
X154383519Y-93314231D01*
X154383519Y-93314231D02*
X154335900Y-93361851D01*
X154335900Y-93361851D02*
X154240662Y-93409470D01*
X154240662Y-93409470D02*
X154097805Y-93409470D01*
X155288281Y-92742803D02*
X155288281Y-93409470D01*
X154859710Y-92742803D02*
X154859710Y-93266612D01*
X154859710Y-93266612D02*
X154907329Y-93361851D01*
X154907329Y-93361851D02*
X155002567Y-93409470D01*
X155002567Y-93409470D02*
X155145424Y-93409470D01*
X155145424Y-93409470D02*
X155240662Y-93361851D01*
X155240662Y-93361851D02*
X155288281Y-93314231D01*
X155621615Y-92742803D02*
X156002567Y-92742803D01*
X155764472Y-92409470D02*
X155764472Y-93266612D01*
X155764472Y-93266612D02*
X155812091Y-93361851D01*
X155812091Y-93361851D02*
X155907329Y-93409470D01*
X155907329Y-93409470D02*
X156002567Y-93409470D01*
X156335901Y-93028517D02*
X157097806Y-93028517D01*
X156716853Y-93409470D02*
X156716853Y-92647565D01*
X151812969Y-106419819D02*
X151336779Y-106419819D01*
X151336779Y-106419819D02*
X151336779Y-105419819D01*
X152289160Y-106419819D02*
X152193922Y-106372200D01*
X152193922Y-106372200D02*
X152146303Y-106324580D01*
X152146303Y-106324580D02*
X152098684Y-106229342D01*
X152098684Y-106229342D02*
X152098684Y-105943628D01*
X152098684Y-105943628D02*
X152146303Y-105848390D01*
X152146303Y-105848390D02*
X152193922Y-105800771D01*
X152193922Y-105800771D02*
X152289160Y-105753152D01*
X152289160Y-105753152D02*
X152432017Y-105753152D01*
X152432017Y-105753152D02*
X152527255Y-105800771D01*
X152527255Y-105800771D02*
X152574874Y-105848390D01*
X152574874Y-105848390D02*
X152622493Y-105943628D01*
X152622493Y-105943628D02*
X152622493Y-106229342D01*
X152622493Y-106229342D02*
X152574874Y-106324580D01*
X152574874Y-106324580D02*
X152527255Y-106372200D01*
X152527255Y-106372200D02*
X152432017Y-106419819D01*
X152432017Y-106419819D02*
X152289160Y-106419819D01*
X153479636Y-106419819D02*
X153479636Y-105896009D01*
X153479636Y-105896009D02*
X153432017Y-105800771D01*
X153432017Y-105800771D02*
X153336779Y-105753152D01*
X153336779Y-105753152D02*
X153146303Y-105753152D01*
X153146303Y-105753152D02*
X153051065Y-105800771D01*
X153479636Y-106372200D02*
X153384398Y-106419819D01*
X153384398Y-106419819D02*
X153146303Y-106419819D01*
X153146303Y-106419819D02*
X153051065Y-106372200D01*
X153051065Y-106372200D02*
X153003446Y-106276961D01*
X153003446Y-106276961D02*
X153003446Y-106181723D01*
X153003446Y-106181723D02*
X153051065Y-106086485D01*
X153051065Y-106086485D02*
X153146303Y-106038866D01*
X153146303Y-106038866D02*
X153384398Y-106038866D01*
X153384398Y-106038866D02*
X153479636Y-105991247D01*
X154384398Y-106419819D02*
X154384398Y-105419819D01*
X154384398Y-106372200D02*
X154289160Y-106419819D01*
X154289160Y-106419819D02*
X154098684Y-106419819D01*
X154098684Y-106419819D02*
X154003446Y-106372200D01*
X154003446Y-106372200D02*
X153955827Y-106324580D01*
X153955827Y-106324580D02*
X153908208Y-106229342D01*
X153908208Y-106229342D02*
X153908208Y-105943628D01*
X153908208Y-105943628D02*
X153955827Y-105848390D01*
X153955827Y-105848390D02*
X154003446Y-105800771D01*
X154003446Y-105800771D02*
X154098684Y-105753152D01*
X154098684Y-105753152D02*
X154289160Y-105753152D01*
X154289160Y-105753152D02*
X154384398Y-105800771D01*
X154860589Y-106038866D02*
X155622494Y-106038866D01*
X163479636Y-110448390D02*
X163384398Y-110400771D01*
X163384398Y-110400771D02*
X163336779Y-110353152D01*
X163336779Y-110353152D02*
X163289160Y-110257914D01*
X163289160Y-110257914D02*
X163289160Y-110210295D01*
X163289160Y-110210295D02*
X163336779Y-110115057D01*
X163336779Y-110115057D02*
X163384398Y-110067438D01*
X163384398Y-110067438D02*
X163479636Y-110019819D01*
X163479636Y-110019819D02*
X163670112Y-110019819D01*
X163670112Y-110019819D02*
X163765350Y-110067438D01*
X163765350Y-110067438D02*
X163812969Y-110115057D01*
X163812969Y-110115057D02*
X163860588Y-110210295D01*
X163860588Y-110210295D02*
X163860588Y-110257914D01*
X163860588Y-110257914D02*
X163812969Y-110353152D01*
X163812969Y-110353152D02*
X163765350Y-110400771D01*
X163765350Y-110400771D02*
X163670112Y-110448390D01*
X163670112Y-110448390D02*
X163479636Y-110448390D01*
X163479636Y-110448390D02*
X163384398Y-110496009D01*
X163384398Y-110496009D02*
X163336779Y-110543628D01*
X163336779Y-110543628D02*
X163289160Y-110638866D01*
X163289160Y-110638866D02*
X163289160Y-110829342D01*
X163289160Y-110829342D02*
X163336779Y-110924580D01*
X163336779Y-110924580D02*
X163384398Y-110972200D01*
X163384398Y-110972200D02*
X163479636Y-111019819D01*
X163479636Y-111019819D02*
X163670112Y-111019819D01*
X163670112Y-111019819D02*
X163765350Y-110972200D01*
X163765350Y-110972200D02*
X163812969Y-110924580D01*
X163812969Y-110924580D02*
X163860588Y-110829342D01*
X163860588Y-110829342D02*
X163860588Y-110638866D01*
X163860588Y-110638866D02*
X163812969Y-110543628D01*
X163812969Y-110543628D02*
X163765350Y-110496009D01*
X163765350Y-110496009D02*
X163670112Y-110448390D01*
X164479636Y-110019819D02*
X164574874Y-110019819D01*
X164574874Y-110019819D02*
X164670112Y-110067438D01*
X164670112Y-110067438D02*
X164717731Y-110115057D01*
X164717731Y-110115057D02*
X164765350Y-110210295D01*
X164765350Y-110210295D02*
X164812969Y-110400771D01*
X164812969Y-110400771D02*
X164812969Y-110638866D01*
X164812969Y-110638866D02*
X164765350Y-110829342D01*
X164765350Y-110829342D02*
X164717731Y-110924580D01*
X164717731Y-110924580D02*
X164670112Y-110972200D01*
X164670112Y-110972200D02*
X164574874Y-111019819D01*
X164574874Y-111019819D02*
X164479636Y-111019819D01*
X164479636Y-111019819D02*
X164384398Y-110972200D01*
X164384398Y-110972200D02*
X164336779Y-110924580D01*
X164336779Y-110924580D02*
X164289160Y-110829342D01*
X164289160Y-110829342D02*
X164241541Y-110638866D01*
X164241541Y-110638866D02*
X164241541Y-110400771D01*
X164241541Y-110400771D02*
X164289160Y-110210295D01*
X164289160Y-110210295D02*
X164336779Y-110115057D01*
X164336779Y-110115057D02*
X164384398Y-110067438D01*
X164384398Y-110067438D02*
X164479636Y-110019819D01*
X165098684Y-110019819D02*
X165432017Y-111019819D01*
X165432017Y-111019819D02*
X165765350Y-110019819D01*
X163507329Y-87642803D02*
X163507329Y-88642803D01*
X163507329Y-87690422D02*
X163602567Y-87642803D01*
X163602567Y-87642803D02*
X163793043Y-87642803D01*
X163793043Y-87642803D02*
X163888281Y-87690422D01*
X163888281Y-87690422D02*
X163935900Y-87738041D01*
X163935900Y-87738041D02*
X163983519Y-87833279D01*
X163983519Y-87833279D02*
X163983519Y-88118993D01*
X163983519Y-88118993D02*
X163935900Y-88214231D01*
X163935900Y-88214231D02*
X163888281Y-88261851D01*
X163888281Y-88261851D02*
X163793043Y-88309470D01*
X163793043Y-88309470D02*
X163602567Y-88309470D01*
X163602567Y-88309470D02*
X163507329Y-88261851D01*
X164316853Y-87642803D02*
X164507329Y-88309470D01*
X164507329Y-88309470D02*
X164697805Y-87833279D01*
X164697805Y-87833279D02*
X164888281Y-88309470D01*
X164888281Y-88309470D02*
X165078757Y-87642803D01*
X165459710Y-88309470D02*
X165459710Y-87642803D01*
X165459710Y-87833279D02*
X165507329Y-87738041D01*
X165507329Y-87738041D02*
X165554948Y-87690422D01*
X165554948Y-87690422D02*
X165650186Y-87642803D01*
X165650186Y-87642803D02*
X165745424Y-87642803D01*
X103944642Y-111884819D02*
X103611309Y-111408628D01*
X103373214Y-111884819D02*
X103373214Y-110884819D01*
X103373214Y-110884819D02*
X103754166Y-110884819D01*
X103754166Y-110884819D02*
X103849404Y-110932438D01*
X103849404Y-110932438D02*
X103897023Y-110980057D01*
X103897023Y-110980057D02*
X103944642Y-111075295D01*
X103944642Y-111075295D02*
X103944642Y-111218152D01*
X103944642Y-111218152D02*
X103897023Y-111313390D01*
X103897023Y-111313390D02*
X103849404Y-111361009D01*
X103849404Y-111361009D02*
X103754166Y-111408628D01*
X103754166Y-111408628D02*
X103373214Y-111408628D01*
X104897023Y-111884819D02*
X104325595Y-111884819D01*
X104611309Y-111884819D02*
X104611309Y-110884819D01*
X104611309Y-110884819D02*
X104516071Y-111027676D01*
X104516071Y-111027676D02*
X104420833Y-111122914D01*
X104420833Y-111122914D02*
X104325595Y-111170533D01*
X105754166Y-110884819D02*
X105563690Y-110884819D01*
X105563690Y-110884819D02*
X105468452Y-110932438D01*
X105468452Y-110932438D02*
X105420833Y-110980057D01*
X105420833Y-110980057D02*
X105325595Y-111122914D01*
X105325595Y-111122914D02*
X105277976Y-111313390D01*
X105277976Y-111313390D02*
X105277976Y-111694342D01*
X105277976Y-111694342D02*
X105325595Y-111789580D01*
X105325595Y-111789580D02*
X105373214Y-111837200D01*
X105373214Y-111837200D02*
X105468452Y-111884819D01*
X105468452Y-111884819D02*
X105658928Y-111884819D01*
X105658928Y-111884819D02*
X105754166Y-111837200D01*
X105754166Y-111837200D02*
X105801785Y-111789580D01*
X105801785Y-111789580D02*
X105849404Y-111694342D01*
X105849404Y-111694342D02*
X105849404Y-111456247D01*
X105849404Y-111456247D02*
X105801785Y-111361009D01*
X105801785Y-111361009D02*
X105754166Y-111313390D01*
X105754166Y-111313390D02*
X105658928Y-111265771D01*
X105658928Y-111265771D02*
X105468452Y-111265771D01*
X105468452Y-111265771D02*
X105373214Y-111313390D01*
X105373214Y-111313390D02*
X105325595Y-111361009D01*
X105325595Y-111361009D02*
X105277976Y-111456247D01*
D12*
%TO.C,R16*%
X104842224Y-110522500D02*
X104332776Y-110522500D01*
X104842224Y-109477500D02*
X104332776Y-109477500D01*
%TO.C,R19*%
X165572936Y-125540000D02*
X169927064Y-125540000D01*
X165572936Y-128960000D02*
X169927064Y-128960000D01*
%TO.C,R18*%
X157022936Y-125540000D02*
X161377064Y-125540000D01*
X157022936Y-128960000D02*
X161377064Y-128960000D01*
%TO.C,R17*%
X148522936Y-125540000D02*
X152877064Y-125540000D01*
X148522936Y-128960000D02*
X152877064Y-128960000D01*
%TO.C,R14*%
X161327064Y-123960000D02*
X156972936Y-123960000D01*
X161327064Y-120540000D02*
X156972936Y-120540000D01*
%TO.C,R6*%
X152827064Y-123960000D02*
X148472936Y-123960000D01*
X152827064Y-120540000D02*
X148472936Y-120540000D01*
%TO.C,R32*%
X158254724Y-102360000D02*
X157745276Y-102360000D01*
X158254724Y-101315000D02*
X157745276Y-101315000D01*
%TO.C,R31*%
X159522500Y-92082776D02*
X159522500Y-92592224D01*
X158477500Y-92082776D02*
X158477500Y-92592224D01*
%TO.C,R30*%
X159522500Y-95582776D02*
X159522500Y-96092224D01*
X158477500Y-95582776D02*
X158477500Y-96092224D01*
%TO.C,R29*%
X159522500Y-98995276D02*
X159522500Y-99504724D01*
X158477500Y-98995276D02*
X158477500Y-99504724D01*
%TO.C,R28*%
X157522500Y-99082776D02*
X157522500Y-99592224D01*
X156477500Y-99082776D02*
X156477500Y-99592224D01*
%TO.C,R27*%
X156477500Y-96092224D02*
X156477500Y-95582776D01*
X157522500Y-96092224D02*
X157522500Y-95582776D01*
%TO.C,R25*%
X150222500Y-103459275D02*
X150222500Y-103968723D01*
X149177500Y-103459275D02*
X149177500Y-103968723D01*
%TO.C,R24*%
X150222500Y-99959275D02*
X150222500Y-100468723D01*
X149177500Y-99959275D02*
X149177500Y-100468723D01*
%TO.C,R23*%
X148445276Y-96941499D02*
X148954724Y-96941499D01*
X148445276Y-97986499D02*
X148954724Y-97986499D01*
%TO.C,R22*%
X148222500Y-99871775D02*
X148222500Y-100381223D01*
X147177500Y-99871775D02*
X147177500Y-100381223D01*
%TO.C,R21*%
X148222500Y-103459275D02*
X148222500Y-103968723D01*
X147177500Y-103459275D02*
X147177500Y-103968723D01*
%TO.C,R20*%
X148222500Y-106959275D02*
X148222500Y-107468723D01*
X147177500Y-106959275D02*
X147177500Y-107468723D01*
%TO.C,R12*%
X130339300Y-113942224D02*
X130339300Y-113432776D01*
X131384300Y-113942224D02*
X131384300Y-113432776D01*
D13*
%TO.C,U2*%
X152270450Y-112270500D02*
X153921450Y-112270500D01*
X153921450Y-109857500D02*
X152270450Y-109857500D01*
X153921450Y-111228859D02*
X153921450Y-110899141D01*
D12*
%TO.C,R8*%
X107367876Y-104295900D02*
X107877324Y-104295900D01*
X107367876Y-105340900D02*
X107877324Y-105340900D01*
%TO.C,C2*%
X158477967Y-86613650D02*
X158185433Y-86613650D01*
X158477967Y-85593650D02*
X158185433Y-85593650D01*
%TO.C,C1*%
X153140617Y-109288000D02*
X152848083Y-109288000D01*
X153140617Y-108268000D02*
X152848083Y-108268000D01*
%TO.C,R2*%
X148222500Y-110459275D02*
X148222500Y-110968723D01*
X147177500Y-110459275D02*
X147177500Y-110968723D01*
%TO.C,C4*%
X94310000Y-102453733D02*
X94310000Y-102746267D01*
X93290000Y-102453733D02*
X93290000Y-102746267D01*
%TO.C,R1*%
X107367876Y-100536700D02*
X107877324Y-100536700D01*
X107367876Y-101581700D02*
X107877324Y-101581700D01*
%TO.C,R13*%
X132015700Y-113942224D02*
X132015700Y-113432776D01*
X133060700Y-113942224D02*
X133060700Y-113432776D01*
%TO.C,R9*%
X103710276Y-100536700D02*
X104219724Y-100536700D01*
X103710276Y-101581700D02*
X104219724Y-101581700D01*
%TO.C,R26*%
X157522500Y-92082776D02*
X157522500Y-92592224D01*
X156477500Y-92082776D02*
X156477500Y-92592224D01*
%TO.C,R4*%
X149539226Y-112878300D02*
X150048674Y-112878300D01*
X149539226Y-113923300D02*
X150048674Y-113923300D01*
%TO.C,R7*%
X107367876Y-102416300D02*
X107877324Y-102416300D01*
X107367876Y-103461300D02*
X107877324Y-103461300D01*
%TO.C,R10*%
X103659476Y-102467100D02*
X104168924Y-102467100D01*
X103659476Y-103512100D02*
X104168924Y-103512100D01*
%TO.C,U17*%
X157862500Y-87015650D02*
X156062500Y-87015650D01*
X157862500Y-87015650D02*
X158662500Y-87015650D01*
X157862500Y-90135650D02*
X157062500Y-90135650D01*
X157862500Y-90135650D02*
X158662500Y-90135650D01*
%TO.C,R3*%
X152993626Y-112827500D02*
X153503074Y-112827500D01*
X152993626Y-113872500D02*
X153503074Y-113872500D01*
%TO.C,C3*%
X108310000Y-108691233D02*
X108310000Y-108983767D01*
X107290000Y-108691233D02*
X107290000Y-108983767D01*
%TO.C,R11*%
X103659476Y-104295900D02*
X104168924Y-104295900D01*
X103659476Y-105340900D02*
X104168924Y-105340900D01*
%TO.C,R15*%
X104842224Y-108012500D02*
X104332776Y-108012500D01*
X104842224Y-106967500D02*
X104332776Y-106967500D01*
%TO.C,R5*%
X156651226Y-108306300D02*
X157160674Y-108306300D01*
X156651226Y-109351300D02*
X157160674Y-109351300D01*
%TO.C,D23*%
X156642350Y-110007200D02*
X155442350Y-110007200D01*
X156642350Y-111967200D02*
X156642350Y-110007200D01*
X155442350Y-111967200D02*
X155442350Y-110007200D01*
%TD*%
%LPC*%
D14*
%TO.C,R16*%
X105500000Y-110000000D03*
X103675000Y-110000000D03*
%TD*%
D15*
%TO.C,R19*%
X164700000Y-127250000D03*
X170800000Y-127250000D03*
%TD*%
%TO.C,R18*%
X156150000Y-127250000D03*
X162250000Y-127250000D03*
%TD*%
%TO.C,R17*%
X147650000Y-127250000D03*
X153750000Y-127250000D03*
%TD*%
D16*
%TO.C,R14*%
X162200000Y-122250000D03*
X156100000Y-122250000D03*
%TD*%
%TO.C,R6*%
X153700000Y-122250000D03*
X147600000Y-122250000D03*
%TD*%
D14*
%TO.C,R32*%
X158912500Y-101837500D03*
X157087500Y-101837500D03*
%TD*%
D17*
%TO.C,R31*%
X159000000Y-91425000D03*
X159000000Y-93250000D03*
%TD*%
%TO.C,R30*%
X159000000Y-94925000D03*
X159000000Y-96750000D03*
%TD*%
%TO.C,R29*%
X159000000Y-98337500D03*
X159000000Y-100162500D03*
%TD*%
%TO.C,R28*%
X157000000Y-98425000D03*
X157000000Y-100250000D03*
%TD*%
D18*
%TO.C,R27*%
X157000000Y-96750000D03*
X157000000Y-94925000D03*
%TD*%
D17*
%TO.C,R25*%
X149700000Y-102801499D03*
X149700000Y-104626499D03*
%TD*%
%TO.C,R24*%
X149700000Y-99301499D03*
X149700000Y-101126499D03*
%TD*%
D19*
%TO.C,R23*%
X147787500Y-97463999D03*
X149612500Y-97463999D03*
%TD*%
D17*
%TO.C,R22*%
X147700000Y-99213999D03*
X147700000Y-101038999D03*
%TD*%
%TO.C,R21*%
X147700000Y-102801499D03*
X147700000Y-104626499D03*
%TD*%
%TO.C,R20*%
X147700000Y-106301499D03*
X147700000Y-108126499D03*
%TD*%
D20*
%TO.C,D35*%
X173200000Y-127250000D03*
%TD*%
%TO.C,D34*%
X154700000Y-130750000D03*
%TD*%
%TO.C,D33*%
X163200000Y-130750000D03*
%TD*%
%TO.C,D32*%
X145200000Y-124750000D03*
%TD*%
D18*
%TO.C,R12*%
X130861800Y-114600000D03*
X130861800Y-112775000D03*
%TD*%
D21*
%TO.C,U2*%
X152130750Y-110414001D03*
X152130750Y-111064000D03*
X152130750Y-111713999D03*
X154061150Y-111713999D03*
X154061150Y-110414001D03*
%TD*%
D20*
%TO.C,D5*%
X128838200Y-114600000D03*
%TD*%
%TO.C,D9*%
X161331700Y-87603650D03*
%TD*%
%TO.C,D19*%
X96500000Y-115900000D03*
%TD*%
D19*
%TO.C,R8*%
X106710100Y-104818400D03*
X108535100Y-104818400D03*
%TD*%
D22*
%TO.C,C2*%
X159194200Y-86103650D03*
X157469200Y-86103650D03*
%TD*%
%TO.C,C1*%
X153856850Y-108778000D03*
X152131850Y-108778000D03*
%TD*%
D17*
%TO.C,R2*%
X147700000Y-109801499D03*
X147700000Y-111626499D03*
%TD*%
D20*
%TO.C,D20*%
X114816000Y-101000000D03*
%TD*%
%TO.C,D2*%
X172400000Y-99500000D03*
%TD*%
%TO.C,D11*%
X164100000Y-122250000D03*
%TD*%
%TO.C,D1*%
X149900000Y-106847600D03*
%TD*%
%TO.C,D17*%
X96400000Y-111000000D03*
%TD*%
%TO.C,D3*%
X168400000Y-111500000D03*
%TD*%
D23*
%TO.C,C4*%
X93800000Y-101737500D03*
X93800000Y-103462500D03*
%TD*%
D20*
%TO.C,D14*%
X156143950Y-113654800D03*
%TD*%
D19*
%TO.C,R1*%
X106710100Y-101059200D03*
X108535100Y-101059200D03*
%TD*%
D20*
%TO.C,D22*%
X114866800Y-107000000D03*
%TD*%
D18*
%TO.C,R13*%
X132538200Y-114600000D03*
X132538200Y-112775000D03*
%TD*%
D19*
%TO.C,R9*%
X103052500Y-101059200D03*
X104877500Y-101059200D03*
%TD*%
D20*
%TO.C,D15*%
X154629300Y-85868050D03*
%TD*%
D17*
%TO.C,R26*%
X157000000Y-91425000D03*
X157000000Y-93250000D03*
%TD*%
D20*
%TO.C,D26*%
X143500000Y-105000000D03*
%TD*%
D19*
%TO.C,R4*%
X148881450Y-113400800D03*
X150706450Y-113400800D03*
%TD*%
D20*
%TO.C,D25*%
X121500000Y-93200000D03*
%TD*%
%TO.C,D8*%
X134417800Y-112773100D03*
%TD*%
%TO.C,D13*%
X157921950Y-111064000D03*
%TD*%
D19*
%TO.C,R7*%
X106710100Y-102938800D03*
X108535100Y-102938800D03*
%TD*%
D20*
%TO.C,D31*%
X121000000Y-114700000D03*
%TD*%
%TO.C,D29*%
X161131700Y-91303650D03*
%TD*%
%TO.C,D7*%
X172400000Y-111500000D03*
%TD*%
D19*
%TO.C,R10*%
X103001700Y-102989600D03*
X104826700Y-102989600D03*
%TD*%
D20*
%TO.C,D24*%
X99100000Y-115900000D03*
%TD*%
D24*
%TO.C,U17*%
X156725000Y-87625650D03*
X156725000Y-88575650D03*
X156725000Y-89525650D03*
X159000000Y-89525650D03*
X159000000Y-87625650D03*
%TD*%
D20*
%TO.C,D6*%
X168400000Y-99500000D03*
%TD*%
%TO.C,D28*%
X91200000Y-109949200D03*
%TD*%
%TO.C,D16*%
X159000000Y-106750000D03*
%TD*%
D19*
%TO.C,R3*%
X152335850Y-113350000D03*
X154160850Y-113350000D03*
%TD*%
D20*
%TO.C,D12*%
X134468600Y-115211500D03*
%TD*%
D23*
%TO.C,C3*%
X107800000Y-107975000D03*
X107800000Y-109700000D03*
%TD*%
D19*
%TO.C,R11*%
X103001700Y-104818400D03*
X104826700Y-104818400D03*
%TD*%
D20*
%TO.C,D21*%
X114816000Y-104000000D03*
%TD*%
%TO.C,D4*%
X154781700Y-91303650D03*
%TD*%
%TO.C,D10*%
X154700000Y-119250000D03*
%TD*%
D14*
%TO.C,R15*%
X105500000Y-107490000D03*
X103675000Y-107490000D03*
%TD*%
D20*
%TO.C,D18*%
X99000000Y-111000000D03*
%TD*%
%TO.C,D27*%
X91200000Y-96400000D03*
%TD*%
%TO.C,D30*%
X154629300Y-88611250D03*
%TD*%
D19*
%TO.C,R5*%
X155993450Y-108828800D03*
X157818450Y-108828800D03*
%TD*%
D25*
%TO.C,D23*%
X156042350Y-110567200D03*
X156042350Y-111967200D03*
%TD*%
%LPD*%
M02*
