%TF.GenerationSoftware,KiCad,Pcbnew,7.0.7*%
%TF.CreationDate,2023-12-25T15:57:39+03:00*%
%TF.ProjectId,Main_PCB_002,4d61696e-5f50-4434-925f-3030322e6b69,rev?*%
%TF.SameCoordinates,Original*%
%TF.FileFunction,Paste,Top*%
%TF.FilePolarity,Positive*%
%FSLAX46Y46*%
G04 Gerber Fmt 4.6, Leading zero omitted, Abs format (unit mm)*
G04 Created by KiCad (PCBNEW 7.0.7) date 2023-12-25 15:57:39*
%MOMM*%
%LPD*%
G01*
G04 APERTURE LIST*
G04 Aperture macros list*
%AMRoundRect*
0 Rectangle with rounded corners*
0 $1 Rounding radius*
0 $2 $3 $4 $5 $6 $7 $8 $9 X,Y pos of 4 corners*
0 Add a 4 corners polygon primitive as box body*
4,1,4,$2,$3,$4,$5,$6,$7,$8,$9,$2,$3,0*
0 Add four circle primitives for the rounded corners*
1,1,$1+$1,$2,$3*
1,1,$1+$1,$4,$5*
1,1,$1+$1,$6,$7*
1,1,$1+$1,$8,$9*
0 Add four rect primitives between the rounded corners*
20,1,$1+$1,$2,$3,$4,$5,0*
20,1,$1+$1,$4,$5,$6,$7,0*
20,1,$1+$1,$6,$7,$8,$9,0*
20,1,$1+$1,$8,$9,$2,$3,0*%
G04 Aperture macros list end*
%ADD10RoundRect,0.237500X0.250000X0.237500X-0.250000X0.237500X-0.250000X-0.237500X0.250000X-0.237500X0*%
%ADD11RoundRect,0.249999X-0.450001X-1.425001X0.450001X-1.425001X0.450001X1.425001X-0.450001X1.425001X0*%
%ADD12RoundRect,0.249999X0.450001X1.425001X-0.450001X1.425001X-0.450001X-1.425001X0.450001X-1.425001X0*%
%ADD13RoundRect,0.237500X-0.237500X0.250000X-0.237500X-0.250000X0.237500X-0.250000X0.237500X0.250000X0*%
%ADD14RoundRect,0.237500X0.237500X-0.250000X0.237500X0.250000X-0.237500X0.250000X-0.237500X-0.250000X0*%
%ADD15RoundRect,0.237500X-0.250000X-0.237500X0.250000X-0.237500X0.250000X0.237500X-0.250000X0.237500X0*%
%ADD16R,1.168400X0.304800*%
%ADD17RoundRect,0.237500X0.300000X0.237500X-0.300000X0.237500X-0.300000X-0.237500X0.300000X-0.237500X0*%
%ADD18RoundRect,0.237500X-0.237500X0.300000X-0.237500X-0.300000X0.237500X-0.300000X0.237500X0.300000X0*%
%ADD19RoundRect,0.150000X-0.512500X-0.150000X0.512500X-0.150000X0.512500X0.150000X-0.512500X0.150000X0*%
%ADD20RoundRect,0.150000X0.200000X-0.150000X0.200000X0.150000X-0.200000X0.150000X-0.200000X-0.150000X0*%
G04 APERTURE END LIST*
D10*
%TO.C,R16*%
X105500000Y-110000000D03*
X103675000Y-110000000D03*
%TD*%
D11*
%TO.C,R19*%
X164700000Y-127250000D03*
X170800000Y-127250000D03*
%TD*%
%TO.C,R18*%
X156150000Y-127250000D03*
X162250000Y-127250000D03*
%TD*%
%TO.C,R17*%
X147650000Y-127250000D03*
X153750000Y-127250000D03*
%TD*%
D12*
%TO.C,R14*%
X162200000Y-122250000D03*
X156100000Y-122250000D03*
%TD*%
%TO.C,R6*%
X153700000Y-122250000D03*
X147600000Y-122250000D03*
%TD*%
D10*
%TO.C,R32*%
X158912500Y-101837500D03*
X157087500Y-101837500D03*
%TD*%
D13*
%TO.C,R31*%
X159000000Y-91425000D03*
X159000000Y-93250000D03*
%TD*%
%TO.C,R30*%
X159000000Y-94925000D03*
X159000000Y-96750000D03*
%TD*%
%TO.C,R29*%
X159000000Y-98337500D03*
X159000000Y-100162500D03*
%TD*%
%TO.C,R28*%
X157000000Y-98425000D03*
X157000000Y-100250000D03*
%TD*%
D14*
%TO.C,R27*%
X157000000Y-96750000D03*
X157000000Y-94925000D03*
%TD*%
D13*
%TO.C,R25*%
X149700000Y-102801499D03*
X149700000Y-104626499D03*
%TD*%
%TO.C,R24*%
X149700000Y-99301499D03*
X149700000Y-101126499D03*
%TD*%
D15*
%TO.C,R23*%
X147787500Y-97463999D03*
X149612500Y-97463999D03*
%TD*%
D13*
%TO.C,R22*%
X147700000Y-99213999D03*
X147700000Y-101038999D03*
%TD*%
%TO.C,R21*%
X147700000Y-102801499D03*
X147700000Y-104626499D03*
%TD*%
%TO.C,R20*%
X147700000Y-106301499D03*
X147700000Y-108126499D03*
%TD*%
D14*
%TO.C,R12*%
X130861800Y-114600000D03*
X130861800Y-112775000D03*
%TD*%
D16*
%TO.C,U2*%
X152130750Y-110414001D03*
X152130750Y-111064000D03*
X152130750Y-111713999D03*
X154061150Y-111713999D03*
X154061150Y-110414001D03*
%TD*%
D15*
%TO.C,R8*%
X106710100Y-104818400D03*
X108535100Y-104818400D03*
%TD*%
D17*
%TO.C,C2*%
X159194200Y-86103650D03*
X157469200Y-86103650D03*
%TD*%
%TO.C,C1*%
X153856850Y-108778000D03*
X152131850Y-108778000D03*
%TD*%
D13*
%TO.C,R2*%
X147700000Y-109801499D03*
X147700000Y-111626499D03*
%TD*%
D18*
%TO.C,C4*%
X93800000Y-101737500D03*
X93800000Y-103462500D03*
%TD*%
D15*
%TO.C,R1*%
X106710100Y-101059200D03*
X108535100Y-101059200D03*
%TD*%
D14*
%TO.C,R13*%
X132538200Y-114600000D03*
X132538200Y-112775000D03*
%TD*%
D15*
%TO.C,R9*%
X103052500Y-101059200D03*
X104877500Y-101059200D03*
%TD*%
D13*
%TO.C,R26*%
X157000000Y-91425000D03*
X157000000Y-93250000D03*
%TD*%
D15*
%TO.C,R4*%
X148881450Y-113400800D03*
X150706450Y-113400800D03*
%TD*%
%TO.C,R7*%
X106710100Y-102938800D03*
X108535100Y-102938800D03*
%TD*%
%TO.C,R10*%
X103001700Y-102989600D03*
X104826700Y-102989600D03*
%TD*%
D19*
%TO.C,U17*%
X156725000Y-87625650D03*
X156725000Y-88575650D03*
X156725000Y-89525650D03*
X159000000Y-89525650D03*
X159000000Y-87625650D03*
%TD*%
D15*
%TO.C,R3*%
X152335850Y-113350000D03*
X154160850Y-113350000D03*
%TD*%
D18*
%TO.C,C3*%
X107800000Y-107975000D03*
X107800000Y-109700000D03*
%TD*%
D15*
%TO.C,R11*%
X103001700Y-104818400D03*
X104826700Y-104818400D03*
%TD*%
D10*
%TO.C,R15*%
X105500000Y-107490000D03*
X103675000Y-107490000D03*
%TD*%
D15*
%TO.C,R5*%
X155993450Y-108828800D03*
X157818450Y-108828800D03*
%TD*%
D20*
%TO.C,D23*%
X156042350Y-110567200D03*
X156042350Y-111967200D03*
%TD*%
M02*
