M48
; DRILL file {KiCad 7.0.7} date Mon Dec 25 15:57:40 2023
; FORMAT={-:-/ absolute / inch / decimal}
; #@! TF.CreationDate,2023-12-25T15:57:40+03:00
; #@! TF.GenerationSoftware,Kicad,Pcbnew,7.0.7
; #@! TF.FileFunction,Plated,1,2,PTH
FMAT,2
INCH
; #@! TA.AperFunction,Plated,PTH,ComponentDrill
T1C0.0472
%
G90
G05
T1
X3.5906Y-3.7953
X3.5906Y-4.3287
X3.7953Y-4.3701
X3.7992Y-4.563
X3.8976Y-4.3701
X3.9016Y-4.563
X4.5203Y-3.9764
X4.5203Y-4.0945
X4.5223Y-4.2126
X4.7638Y-4.5157
X4.7835Y-3.6693
X5.0724Y-4.5118
X5.292Y-4.4399
X5.294Y-4.5359
X5.6496Y-4.1339
X5.7165Y-4.9114
X5.9016Y-4.2066
X6.0878Y-3.3806
X6.0878Y-3.4886
X6.0906Y-4.6949
X6.0906Y-5.1476
X6.0938Y-3.5946
X6.1474Y-4.4746
X6.2174Y-4.3726
X6.2598Y-4.2028
X6.3438Y-3.5946
X6.3516Y-3.449
X6.4252Y-5.1476
X6.4606Y-4.813
X6.6299Y-3.9173
X6.6299Y-4.3898
X6.7874Y-3.9173
X6.7874Y-4.3898
X6.8189Y-5.0098
T0
M30
