M48
; DRILL file {KiCad (6.0.4)} date Sat Dec 17 07:05:36 2022
; FORMAT={-:-/ absolute / inch / decimal}
; #@! TF.CreationDate,2022-12-17T07:05:36+03:00
; #@! TF.GenerationSoftware,Kicad,Pcbnew,(6.0.4)
; #@! TF.FileFunction,Plated,1,2,PTH
FMAT,2
INCH
; #@! TA.AperFunction,Plated,PTH,ViaDrill
T1C0.0157
; #@! TA.AperFunction,Plated,PTH,ComponentDrill
T2C0.0394
; #@! TA.AperFunction,Plated,PTH,ComponentDrill
T3C0.0472
; #@! TA.AperFunction,Plated,PTH,ComponentDrill
T4C0.0492
; #@! TA.AperFunction,Plated,PTH,ComponentDrill
T5C0.1181
%
G90
G05
T1
X2.9284Y-2.919
X2.9784Y-2.597
X3.0224Y-2.917
X3.0354Y-2.432
X3.0374Y-2.528
X3.0584Y-4.8208
X3.0584Y-4.8738
X3.0774Y-5.2038
X3.1344Y-5.0488
X3.1424Y-5.1158
X3.1574Y-4.7448
X3.2294Y-2.702
X3.2294Y-2.747
X3.2354Y-5.2138
X3.2404Y-4.9808
X3.2414Y-4.8238
X3.2414Y-4.8818
X3.2484Y-5.1558
X3.2634Y-2.702
X3.2634Y-2.748
X3.2664Y-2.81
X3.2944Y-4.8218
X3.3514Y-2.871
X3.4424Y-5.1328
X3.473Y-3.785
X3.473Y-3.833
X3.482Y-4.035
X3.482Y-4.11
X3.4914Y-2.912
X3.4924Y-5.1108
X3.5034Y-2.428
X3.5034Y-2.566
X3.5134Y-5.0388
X3.522Y-3.663
X3.5429Y-5.0684
X3.5434Y-4.8028
X3.5504Y-5.1088
X3.5604Y-2.548
X3.5744Y-2.429
X3.5964Y-4.8118
X3.6034Y-4.7378
X3.604Y-3.566
X3.6164Y-4.9558
X3.619Y-3.7446
X3.6334Y-2.897
X3.6524Y-4.8118
X3.657Y-4.159
X3.6804Y-4.8518
X3.6814Y-4.8958
X3.694Y-3.777
X3.7004Y-2.895
X3.7084Y-4.8118
X3.75Y-3.81
X3.76Y-4.067
X3.76Y-4.122
X3.7694Y-4.9568
X3.787Y-3.527
X3.799Y-3.962
X3.809Y-4.023
X3.809Y-4.121
X3.8354Y-5.0228
X3.8364Y-5.1238
X3.8454Y-2.462
X3.8464Y-2.58
X3.8504Y-2.745
X3.8504Y-2.839
X3.851Y-3.527
X3.873Y-3.886
X3.885Y-4.161
X3.927Y-4.024
X3.9373Y-3.8668
X3.941Y-3.715
X3.951Y-3.97
X3.954Y-3.766
X3.978Y-4.018
X4.046Y-4.0605
X4.5273Y-4.707
X4.5703Y-4.941
X4.6013Y-4.639
X4.6813Y-5.115
X4.6993Y-4.773
X4.7073Y-4.963
X4.744Y-3.9346
X4.7533Y-2.5596
X4.769Y-3.6106
X4.7703Y-4.963
X4.799Y-3.7416
X4.801Y-3.8316
X4.801Y-3.8906
X4.8043Y-5.07
X4.8593Y-2.4236
X4.8599Y-3.6617
X4.864Y-3.7916
X4.865Y-3.3996
X4.865Y-3.8916
X4.9333Y-2.7436
X4.9333Y-5.01
X4.9373Y-5.065
X4.9585Y-2.4226
X4.96Y-3.4326
X4.9763Y-4.661
X4.9783Y-5.063
X4.9823Y-4.975
X4.985Y-3.5656
X4.9863Y-2.7436
X5.0023Y-4.912
X5.005Y-3.4316
X5.014Y-3.6016
X5.0213Y-2.5186
X5.022Y-3.5396
X5.024Y-3.6886
X5.0313Y-2.5926
X5.0333Y-4.94
X5.0343Y-2.6756
X5.047Y-3.4336
X5.0503Y-4.762
X5.0573Y-5.096
X5.0603Y-4.913
X5.062Y-3.7796
X5.076Y-4.0016
X5.077Y-3.9616
X5.0883Y-4.806
X5.0893Y-2.7666
X5.1063Y-4.763
X5.1203Y-4.835
X5.1293Y-2.4256
X5.148Y-5.116
X5.152Y-3.8996
X5.2063Y-2.7666
X5.2263Y-2.3536
X5.2273Y-2.4966
X5.274Y-3.9536
X5.283Y-3.8306
X5.297Y-3.8996
X5.3033Y-2.6646
X5.3673Y-2.7676
X5.3793Y-2.3396
X5.3903Y-2.6796
X5.4513Y-2.7646
X5.4523Y-2.5726
X5.4653Y-2.3406
X5.5313Y-2.5026
X6.627Y-4.4431
X7.2963Y-4.6138
T2
X2.7867Y-4.0706
X2.8737Y-4.2376
X2.9407Y-3.9006
X3.0281Y-4.7555
X3.0341Y-4.9365
X3.0894Y-2.921
X3.0987Y-3.9006
X3.1237Y-4.2336
X3.494Y-3.54
X3.7544Y-2.919
X3.7784Y-5.1978
X3.8514Y-5.1978
X4.037Y-4.205
X4.108Y-4.205
X4.212Y-3.58
X4.4813Y-4.827
X4.642Y-3.681
X4.642Y-3.774
X4.7613Y-5.117
X5.194Y-5.15
X5.277Y-5.15
X5.4516Y-5.6921
X5.5135Y-2.5656
X5.5285Y-2.3446
X5.5992Y-5.6901
X5.9361Y-5.0514
X5.9665Y-4.1573
X6.4656Y-2.3412
X6.4676Y-3.3038
X7.009Y-3.0479
X7.095Y-3.1979
X7.137Y-2.8739
X7.318Y-2.8739
X7.347Y-3.1959
T3
X2.797Y-3.146
X2.797Y-3.246
X2.797Y-3.346
X2.797Y-3.446
X2.797Y-3.546
X2.797Y-3.646
X2.797Y-3.746
X2.85Y-4.45
X2.85Y-4.55
X2.897Y-3.146
X2.897Y-3.246
X2.897Y-3.346
X2.897Y-3.446
X2.897Y-3.546
X2.897Y-3.646
X2.897Y-3.746
X2.9094Y-2.543
X2.9104Y-2.674
X2.928Y-5.527
X2.928Y-5.627
X2.95Y-4.45
X2.95Y-4.55
X2.997Y-3.146
X2.997Y-3.246
X2.997Y-3.346
X2.997Y-3.446
X2.997Y-3.546
X2.997Y-3.646
X2.997Y-3.746
X3.028Y-5.527
X3.028Y-5.627
X3.05Y-4.45
X3.05Y-4.55
X3.128Y-5.527
X3.128Y-5.627
X3.1494Y-2.41
X3.15Y-4.45
X3.15Y-4.55
X3.228Y-5.527
X3.228Y-5.627
X3.25Y-4.45
X3.25Y-4.55
X3.328Y-5.527
X3.328Y-5.627
X3.35Y-4.45
X3.35Y-4.55
X3.428Y-5.527
X3.428Y-5.627
X3.45Y-3.25
X3.45Y-3.35
X3.45Y-4.45
X3.45Y-4.55
X3.528Y-5.527
X3.528Y-5.627
X3.55Y-3.25
X3.55Y-3.35
X3.55Y-4.45
X3.55Y-4.55
X3.628Y-5.527
X3.628Y-5.627
X3.65Y-3.25
X3.65Y-3.35
X3.65Y-4.45
X3.65Y-4.55
X3.728Y-5.527
X3.728Y-5.627
X3.75Y-3.25
X3.75Y-3.35
X3.829Y-5.523
X3.829Y-5.623
X3.8484Y-4.8848
X3.85Y-3.25
X3.85Y-3.35
X3.929Y-5.523
X3.929Y-5.623
X3.9364Y-2.465
X3.9384Y-2.558
X3.9384Y-2.751
X3.9404Y-2.654
X3.95Y-3.25
X3.95Y-3.35
X3.9824Y-5.1078
X3.9824Y-5.2048
X3.9844Y-5.0148
X3.987Y-4.921
X4.029Y-5.523
X4.029Y-5.623
X4.03Y-3.915
X4.05Y-3.25
X4.05Y-3.35
X4.1014Y-4.6958
X4.129Y-5.523
X4.129Y-5.623
X4.15Y-3.25
X4.15Y-3.35
X4.19Y-3.812
X4.19Y-3.908
X4.19Y-4.006
X4.192Y-4.101
X4.2Y-2.45
X4.2Y-2.55
X4.2Y-2.65
X4.2Y-2.75
X4.2Y-2.85
X4.2Y-2.95
X4.25Y-3.25
X4.25Y-3.35
X4.3Y-2.45
X4.3Y-2.55
X4.3Y-2.65
X4.3Y-2.75
X4.3Y-2.85
X4.3Y-2.95
X4.329Y-3.58
X4.384Y-5.519
X4.384Y-5.619
X4.4Y-2.45
X4.4Y-2.55
X4.4Y-2.65
X4.4Y-2.75
X4.4Y-2.85
X4.4Y-2.95
X4.484Y-5.519
X4.484Y-5.619
X4.584Y-5.519
X4.584Y-5.619
X4.6Y-4.35
X4.6Y-4.45
X4.6253Y-5.137
X4.65Y-3.1
X4.65Y-3.2
X4.684Y-5.519
X4.684Y-5.619
X4.7Y-4.35
X4.7Y-4.45
X4.736Y-3.388
X4.75Y-3.1
X4.75Y-3.2
X4.7615Y-2.4696
X4.784Y-5.519
X4.784Y-5.619
X4.792Y-2.724
X4.793Y-2.638
X4.8Y-4.35
X4.8Y-4.45
X4.85Y-3.1
X4.85Y-3.2
X4.862Y-3.984
X4.884Y-5.519
X4.884Y-5.619
X4.9Y-4.35
X4.9Y-4.45
X4.95Y-3.1
X4.95Y-3.2
X4.984Y-5.519
X4.984Y-5.619
X5.0Y-4.35
X5.0Y-4.45
X5.034Y-2.802
X5.05Y-3.1
X5.05Y-3.2
X5.084Y-5.519
X5.084Y-5.619
X5.1Y-4.35
X5.1Y-4.45
X5.131Y-3.9866
X5.15Y-3.1
X5.15Y-3.2
X5.184Y-5.519
X5.184Y-5.619
X5.2Y-4.35
X5.2Y-4.45
X5.2283Y-4.69
X5.25Y-3.1
X5.25Y-3.2
X5.3Y-4.35
X5.3Y-4.45
X5.316Y-4.954
X5.316Y-5.053
X5.3177Y-4.762
X5.318Y-4.855
X5.35Y-3.1
X5.35Y-3.2
X5.39Y-3.571
X5.4Y-4.35
X5.4Y-4.45
X5.43Y-3.729
X5.43Y-3.918
X5.43Y-4.013
X5.4301Y-3.823
X5.45Y-3.1
X5.45Y-3.2
X5.5893Y-2.6146
X5.5893Y-2.712
X5.591Y-2.806
X5.85Y-2.4
X5.85Y-2.5
X5.85Y-2.6
X5.85Y-2.7
X5.85Y-2.8
X5.85Y-2.95
X5.85Y-3.05
X5.85Y-3.15
X5.85Y-3.25
X5.85Y-3.35
X5.9322Y-4.9589
X5.95Y-2.4
X5.95Y-2.5
X5.95Y-2.6
X5.95Y-2.7
X5.95Y-2.8
X5.95Y-2.95
X5.95Y-3.05
X5.95Y-3.15
X5.95Y-3.25
X5.95Y-3.35
X5.9665Y-4.0673
X6.05Y-2.4
X6.05Y-2.5
X6.05Y-2.6
X6.05Y-2.7
X6.05Y-2.8
X6.05Y-2.95
X6.05Y-3.05
X6.05Y-3.15
X6.05Y-3.25
X6.05Y-3.35
X6.14Y-3.75
X6.15Y-2.4
X6.15Y-2.5
X6.15Y-2.6
X6.15Y-2.7
X6.15Y-2.8
X6.15Y-2.95
X6.15Y-3.05
X6.15Y-3.15
X6.15Y-3.25
X6.15Y-3.35
X6.3024Y-2.8884
X6.46Y-3.745
X6.5624Y-2.3484
X6.5624Y-3.2964
X6.75Y-5.15
X6.75Y-5.25
X6.75Y-5.35
X6.7526Y-2.681
X6.7526Y-2.774
X6.7536Y-2.866
X6.76Y-3.745
X6.85Y-5.15
X6.85Y-5.25
X6.85Y-5.35
X6.95Y-5.15
X6.95Y-5.25
X6.95Y-5.35
X7.05Y-5.15
X7.05Y-5.25
X7.05Y-5.35
X7.06Y-3.75
X7.15Y-5.15
X7.15Y-5.25
X7.15Y-5.35
X7.25Y-5.15
X7.25Y-5.25
X7.25Y-5.35
X7.36Y-3.75
X7.38Y-4.3953
X7.383Y-4.4873
X7.387Y-4.5803
T4
X5.993Y-2.302
X6.125Y-5.3596
X6.138Y-5.6186
X6.201Y-5.3606
X6.42Y-5.3386
X6.468Y-5.4226
T5
X2.6299Y-2.2559
X2.648Y-5.743
X7.5689Y-2.2362
X7.572Y-5.756
T0
M30
