%TF.GenerationSoftware,KiCad,Pcbnew,(6.0.4)*%
%TF.CreationDate,2022-12-17T07:05:36+03:00*%
%TF.ProjectId,Main_PCB_002,4d61696e-5f50-4434-925f-3030322e6b69,rev?*%
%TF.SameCoordinates,Original*%
%TF.FileFunction,Paste,Bot*%
%TF.FilePolarity,Positive*%
%FSLAX46Y46*%
G04 Gerber Fmt 4.6, Leading zero omitted, Abs format (unit mm)*
G04 Created by KiCad (PCBNEW (6.0.4)) date 2022-12-17 07:05:36*
%MOMM*%
%LPD*%
G01*
G04 APERTURE LIST*
G04 Aperture macros list*
%AMRoundRect*
0 Rectangle with rounded corners*
0 $1 Rounding radius*
0 $2 $3 $4 $5 $6 $7 $8 $9 X,Y pos of 4 corners*
0 Add a 4 corners polygon primitive as box body*
4,1,4,$2,$3,$4,$5,$6,$7,$8,$9,$2,$3,0*
0 Add four circle primitives for the rounded corners*
1,1,$1+$1,$2,$3*
1,1,$1+$1,$4,$5*
1,1,$1+$1,$6,$7*
1,1,$1+$1,$8,$9*
0 Add four rect primitives between the rounded corners*
20,1,$1+$1,$2,$3,$4,$5,0*
20,1,$1+$1,$4,$5,$6,$7,0*
20,1,$1+$1,$6,$7,$8,$9,0*
20,1,$1+$1,$8,$9,$2,$3,0*%
G04 Aperture macros list end*
%ADD10RoundRect,0.150000X0.587500X0.150000X-0.587500X0.150000X-0.587500X-0.150000X0.587500X-0.150000X0*%
%ADD11R,0.970000X0.800000*%
%ADD12R,0.500000X2.140000*%
%ADD13RoundRect,0.250000X0.337500X0.475000X-0.337500X0.475000X-0.337500X-0.475000X0.337500X-0.475000X0*%
%ADD14RoundRect,0.250000X-0.337500X-0.475000X0.337500X-0.475000X0.337500X0.475000X-0.337500X0.475000X0*%
%ADD15RoundRect,0.250000X-0.475000X0.337500X-0.475000X-0.337500X0.475000X-0.337500X0.475000X0.337500X0*%
%ADD16RoundRect,0.150000X-0.150000X0.587500X-0.150000X-0.587500X0.150000X-0.587500X0.150000X0.587500X0*%
%ADD17R,0.800000X0.970000*%
%ADD18R,2.140000X0.500000*%
%ADD19RoundRect,0.150000X-0.587500X-0.150000X0.587500X-0.150000X0.587500X0.150000X-0.587500X0.150000X0*%
G04 APERTURE END LIST*
D10*
%TO.C,U19*%
X123347900Y-119039600D03*
X123347900Y-120939600D03*
X121472900Y-119989600D03*
%TD*%
%TO.C,U16*%
X134566900Y-87887900D03*
X134566900Y-89787900D03*
X132691900Y-88837900D03*
%TD*%
D11*
%TO.C,D34*%
X164657000Y-103386000D03*
X163437000Y-105486000D03*
X163437000Y-104436000D03*
X163437000Y-106536000D03*
X164657000Y-106536000D03*
D12*
X161907000Y-106281000D03*
X166187000Y-106281000D03*
D11*
X163437000Y-103386000D03*
X164657000Y-104436000D03*
X164657000Y-105486000D03*
D12*
X166187000Y-103641000D03*
X161907000Y-103641000D03*
%TD*%
D10*
%TO.C,U15*%
X131546600Y-92627500D03*
X131546600Y-94527500D03*
X129671600Y-93577500D03*
%TD*%
D11*
%TO.C,D33*%
X176124000Y-95775000D03*
X174904000Y-96825000D03*
D12*
X177654000Y-93930000D03*
D11*
X174904000Y-94725000D03*
X174904000Y-93675000D03*
D12*
X173374000Y-93930000D03*
X173374000Y-96570000D03*
D11*
X174904000Y-95775000D03*
X176124000Y-94725000D03*
X176124000Y-93675000D03*
X176124000Y-96825000D03*
D12*
X177654000Y-96570000D03*
%TD*%
D10*
%TO.C,U10*%
X89035593Y-123581813D03*
X89035593Y-125481813D03*
X87160593Y-124531813D03*
%TD*%
D13*
%TO.C,C55*%
X97204200Y-91023400D03*
X95129200Y-91023400D03*
%TD*%
D10*
%TO.C,U20*%
X97155000Y-92918200D03*
X97155000Y-94818200D03*
X95280000Y-93868200D03*
%TD*%
D14*
%TO.C,C54*%
X123612000Y-125958600D03*
X125687000Y-125958600D03*
%TD*%
D15*
%TO.C,C52*%
X130581400Y-86860600D03*
X130581400Y-88935600D03*
%TD*%
D12*
%TO.C,D35*%
X154287000Y-103615200D03*
X158567000Y-103615200D03*
X154287000Y-106255200D03*
X158567000Y-106255200D03*
D11*
X157037000Y-104410200D03*
X155817000Y-105460200D03*
X155817000Y-106510200D03*
X157037000Y-105460200D03*
X157037000Y-106510200D03*
X157037000Y-103360200D03*
X155817000Y-103360200D03*
X155817000Y-104410200D03*
%TD*%
D15*
%TO.C,C47*%
X85100893Y-123922213D03*
X85100893Y-125997213D03*
%TD*%
D12*
%TO.C,D33*%
X185274000Y-93930000D03*
D11*
X183744000Y-95775000D03*
X183744000Y-94725000D03*
D12*
X180994000Y-93930000D03*
D11*
X182524000Y-95775000D03*
D12*
X180994000Y-96570000D03*
D11*
X183744000Y-96825000D03*
D12*
X185274000Y-96570000D03*
D11*
X183744000Y-93675000D03*
X182524000Y-96825000D03*
X182524000Y-94725000D03*
X182524000Y-93675000D03*
%TD*%
D12*
%TO.C,D33*%
X169527000Y-103641000D03*
X169527000Y-106281000D03*
D11*
X171057000Y-103386000D03*
X172277000Y-106536000D03*
X172277000Y-104436000D03*
X172277000Y-103386000D03*
D12*
X173807000Y-103641000D03*
D11*
X171057000Y-106536000D03*
X171057000Y-104436000D03*
X171057000Y-105486000D03*
D12*
X173807000Y-106281000D03*
D11*
X172277000Y-105486000D03*
%TD*%
D16*
%TO.C,U13*%
X94512600Y-62587900D03*
X96412600Y-62587900D03*
X95462600Y-64462900D03*
%TD*%
D10*
%TO.C,U11*%
X87333793Y-119975013D03*
X87333793Y-121875013D03*
X85458793Y-120925013D03*
%TD*%
D17*
%TO.C,D48*%
X163612600Y-70977000D03*
X165712600Y-70977000D03*
D18*
X166507600Y-69447000D03*
D17*
X165712600Y-72197000D03*
D18*
X163867600Y-73727000D03*
X166507600Y-73727000D03*
D17*
X164662600Y-70977000D03*
D18*
X163867600Y-69447000D03*
D17*
X166762600Y-70977000D03*
X164662600Y-72197000D03*
X163612600Y-72197000D03*
X166762600Y-72197000D03*
%TD*%
D12*
%TO.C,D26*%
X161857000Y-124061000D03*
D11*
X164607000Y-121166000D03*
D12*
X161857000Y-121421000D03*
X166137000Y-121421000D03*
D11*
X164607000Y-122216000D03*
D12*
X166137000Y-124061000D03*
D11*
X163387000Y-124316000D03*
X163387000Y-123266000D03*
X164607000Y-124316000D03*
X163387000Y-122216000D03*
X163387000Y-121166000D03*
X164607000Y-123266000D03*
%TD*%
%TO.C,D24*%
X178677000Y-122216000D03*
D12*
X177147000Y-121421000D03*
D11*
X179897000Y-122216000D03*
X179897000Y-121166000D03*
X179897000Y-123266000D03*
D12*
X181427000Y-124061000D03*
D11*
X178677000Y-124316000D03*
D12*
X181427000Y-121421000D03*
D11*
X178677000Y-123266000D03*
D12*
X177147000Y-124061000D03*
D11*
X179897000Y-124316000D03*
X178677000Y-121166000D03*
%TD*%
D10*
%TO.C,U9*%
X129292800Y-66079600D03*
X129292800Y-67979600D03*
X127417800Y-67029600D03*
%TD*%
D12*
%TO.C,D33*%
X165754000Y-93930000D03*
D11*
X167284000Y-96825000D03*
X167284000Y-93675000D03*
D12*
X165754000Y-96570000D03*
X170034000Y-96570000D03*
D11*
X167284000Y-94725000D03*
X168504000Y-95775000D03*
X168504000Y-93675000D03*
D12*
X170034000Y-93930000D03*
D11*
X168504000Y-94725000D03*
X168504000Y-96825000D03*
X167284000Y-95775000D03*
%TD*%
%TO.C,D31*%
X156987000Y-115481000D03*
D12*
X158517000Y-115226000D03*
D11*
X155767000Y-112331000D03*
X155767000Y-114431000D03*
X156987000Y-113381000D03*
X155767000Y-115481000D03*
D12*
X158517000Y-112586000D03*
D11*
X156987000Y-112331000D03*
D12*
X154237000Y-115226000D03*
X154237000Y-112586000D03*
D11*
X155767000Y-113381000D03*
X156987000Y-114431000D03*
%TD*%
D15*
%TO.C,C48*%
X83414293Y-120040613D03*
X83414293Y-122115613D03*
%TD*%
D11*
%TO.C,D29*%
X172277000Y-112310200D03*
X172277000Y-113360200D03*
D12*
X169527000Y-115205200D03*
D11*
X171057000Y-112310200D03*
D12*
X169527000Y-112565200D03*
D11*
X171057000Y-113360200D03*
D12*
X173807000Y-112565200D03*
D11*
X172277000Y-115460200D03*
D12*
X173807000Y-115205200D03*
D11*
X172277000Y-114410200D03*
X171057000Y-115460200D03*
X171057000Y-114410200D03*
%TD*%
D13*
%TO.C,C53*%
X130726000Y-90844500D03*
X128651000Y-90844500D03*
%TD*%
D19*
%TO.C,U17*%
X123885900Y-124368600D03*
X123885900Y-122468600D03*
X125760900Y-123418600D03*
%TD*%
D11*
%TO.C,D28*%
X178677000Y-113326000D03*
D12*
X181427000Y-112531000D03*
D11*
X178677000Y-114376000D03*
X178677000Y-115426000D03*
X179897000Y-114376000D03*
X179897000Y-112276000D03*
D12*
X177147000Y-115171000D03*
X177147000Y-112531000D03*
D11*
X179897000Y-113326000D03*
X179897000Y-115426000D03*
X178677000Y-112276000D03*
D12*
X181427000Y-115171000D03*
%TD*%
%TO.C,D32*%
X177147000Y-106281000D03*
D11*
X179897000Y-105486000D03*
X178677000Y-106536000D03*
X178677000Y-104436000D03*
D12*
X177147000Y-103641000D03*
D11*
X178677000Y-105486000D03*
X179897000Y-103386000D03*
X178677000Y-103386000D03*
X179897000Y-106536000D03*
X179897000Y-104436000D03*
D12*
X181427000Y-106281000D03*
X181427000Y-103641000D03*
%TD*%
D15*
%TO.C,C50*%
X92719400Y-61907600D03*
X92719400Y-63982600D03*
%TD*%
D11*
%TO.C,D33*%
X160884000Y-95775000D03*
D12*
X162414000Y-93930000D03*
D11*
X159664000Y-94725000D03*
X159664000Y-93675000D03*
X159664000Y-96825000D03*
X160884000Y-94725000D03*
X159664000Y-95775000D03*
D12*
X158134000Y-96570000D03*
X158134000Y-93930000D03*
X162414000Y-96570000D03*
D11*
X160884000Y-93675000D03*
X160884000Y-96825000D03*
%TD*%
D16*
%TO.C,U18*%
X93096000Y-98374200D03*
X94996000Y-98374200D03*
X94046000Y-100249200D03*
%TD*%
D11*
%TO.C,D25*%
X172252000Y-121206000D03*
X172252000Y-123306000D03*
D12*
X173782000Y-124101000D03*
D11*
X171032000Y-123306000D03*
D12*
X169502000Y-121461000D03*
D11*
X172252000Y-124356000D03*
X171032000Y-124356000D03*
D12*
X169502000Y-124101000D03*
D11*
X171032000Y-121206000D03*
D12*
X173782000Y-121461000D03*
D11*
X172252000Y-122256000D03*
X171032000Y-122256000D03*
%TD*%
D10*
%TO.C,U12*%
X92567000Y-67797600D03*
X92567000Y-69697600D03*
X90692000Y-68747600D03*
%TD*%
D13*
%TO.C,C49*%
X92594700Y-65852000D03*
X90519700Y-65852000D03*
%TD*%
%TO.C,C56*%
X123317000Y-117221000D03*
X121242000Y-117221000D03*
%TD*%
D18*
%TO.C,D47*%
X163791400Y-66742000D03*
D17*
X165636400Y-63992000D03*
X163536400Y-65212000D03*
X166686400Y-63992000D03*
X165636400Y-65212000D03*
D18*
X166431400Y-62462000D03*
D17*
X166686400Y-65212000D03*
X164586400Y-63992000D03*
D18*
X163791400Y-62462000D03*
X166431400Y-66742000D03*
D17*
X163536400Y-63992000D03*
X164586400Y-65212000D03*
%TD*%
D15*
%TO.C,C57*%
X91165400Y-98356700D03*
X91165400Y-100431700D03*
%TD*%
D11*
%TO.C,D27*%
X157012000Y-121181000D03*
X155792000Y-123281000D03*
D12*
X158542000Y-121436000D03*
X154262000Y-124076000D03*
D11*
X157012000Y-124331000D03*
X157012000Y-122231000D03*
X155792000Y-121181000D03*
X155792000Y-124331000D03*
D12*
X158542000Y-124076000D03*
X154262000Y-121436000D03*
D11*
X157012000Y-123281000D03*
X155792000Y-122231000D03*
%TD*%
D13*
%TO.C,C46*%
X129422100Y-64007000D03*
X127347100Y-64007000D03*
%TD*%
D11*
%TO.C,D30*%
X163437000Y-114410200D03*
D12*
X161907000Y-115205200D03*
D11*
X164657000Y-113360200D03*
X163437000Y-113360200D03*
X164657000Y-114410200D03*
X163437000Y-115460200D03*
X164657000Y-115460200D03*
X164657000Y-112310200D03*
D12*
X166187000Y-112565200D03*
X166187000Y-115205200D03*
D11*
X163437000Y-112310200D03*
D12*
X161907000Y-112565200D03*
%TD*%
D17*
%TO.C,D49*%
X164637200Y-79182000D03*
X165687200Y-77962000D03*
X163587200Y-77962000D03*
D18*
X163842200Y-76432000D03*
D17*
X164637200Y-77962000D03*
D18*
X166482200Y-80712000D03*
D17*
X163587200Y-79182000D03*
D18*
X163842200Y-80712000D03*
D17*
X166737200Y-79182000D03*
D18*
X166482200Y-76432000D03*
D17*
X165687200Y-79182000D03*
X166737200Y-77962000D03*
%TD*%
M02*
