%TF.GenerationSoftware,KiCad,Pcbnew,(6.0.4)*%
%TF.CreationDate,2022-12-17T07:05:36+03:00*%
%TF.ProjectId,Main_PCB_002,4d61696e-5f50-4434-925f-3030322e6b69,rev?*%
%TF.SameCoordinates,Original*%
%TF.FileFunction,Soldermask,Bot*%
%TF.FilePolarity,Negative*%
%FSLAX46Y46*%
G04 Gerber Fmt 4.6, Leading zero omitted, Abs format (unit mm)*
G04 Created by KiCad (PCBNEW (6.0.4)) date 2022-12-17 07:05:36*
%MOMM*%
%LPD*%
G01*
G04 APERTURE LIST*
G04 Aperture macros list*
%AMRoundRect*
0 Rectangle with rounded corners*
0 $1 Rounding radius*
0 $2 $3 $4 $5 $6 $7 $8 $9 X,Y pos of 4 corners*
0 Add a 4 corners polygon primitive as box body*
4,1,4,$2,$3,$4,$5,$6,$7,$8,$9,$2,$3,0*
0 Add four circle primitives for the rounded corners*
1,1,$1+$1,$2,$3*
1,1,$1+$1,$4,$5*
1,1,$1+$1,$6,$7*
1,1,$1+$1,$8,$9*
0 Add four rect primitives between the rounded corners*
20,1,$1+$1,$2,$3,$4,$5,0*
20,1,$1+$1,$4,$5,$6,$7,0*
20,1,$1+$1,$6,$7,$8,$9,0*
20,1,$1+$1,$8,$9,$2,$3,0*%
G04 Aperture macros list end*
%ADD10C,1.600000*%
%ADD11C,1.400000*%
%ADD12C,1.650000*%
%ADD13C,1.550000*%
%ADD14C,3.600000*%
%ADD15RoundRect,0.150000X0.587500X0.150000X-0.587500X0.150000X-0.587500X-0.150000X0.587500X-0.150000X0*%
%ADD16R,0.500000X4.780000*%
%ADD17R,2.780000X4.780000*%
%ADD18RoundRect,0.250000X0.337500X0.475000X-0.337500X0.475000X-0.337500X-0.475000X0.337500X-0.475000X0*%
%ADD19RoundRect,0.250000X-0.337500X-0.475000X0.337500X-0.475000X0.337500X0.475000X-0.337500X0.475000X0*%
%ADD20RoundRect,0.250000X-0.475000X0.337500X-0.475000X-0.337500X0.475000X-0.337500X0.475000X0.337500X0*%
%ADD21RoundRect,0.150000X-0.150000X0.587500X-0.150000X-0.587500X0.150000X-0.587500X0.150000X0.587500X0*%
%ADD22R,4.780000X0.500000*%
%ADD23R,4.780000X2.780000*%
%ADD24RoundRect,0.150000X-0.587500X-0.150000X0.587500X-0.150000X0.587500X0.150000X-0.587500X0.150000X0*%
%ADD25C,0.800000*%
G04 APERTURE END LIST*
D10*
%TO.C,*%
X137160000Y-113030000D03*
%TD*%
D11*
%TO.C,D104*%
X131927600Y-130810000D03*
%TD*%
D12*
%TO.C,U3*%
X152222200Y-58470800D03*
%TD*%
D10*
%TO.C,*%
X134620000Y-110490000D03*
%TD*%
%TO.C,D95*%
X171516100Y-68097700D03*
%TD*%
D11*
%TO.C,D11*%
X95361000Y-74142600D03*
%TD*%
D10*
%TO.C,*%
X184150000Y-133350000D03*
%TD*%
%TO.C,*%
X179324000Y-95250000D03*
%TD*%
%TO.C,*%
X181610000Y-135890000D03*
%TD*%
%TO.C,*%
X81991200Y-140385800D03*
%TD*%
%TO.C,*%
X74371200Y-142925800D03*
%TD*%
%TO.C,*%
X82550000Y-113030000D03*
%TD*%
%TO.C,*%
X84531200Y-140385800D03*
%TD*%
%TO.C,*%
X111760000Y-69850000D03*
%TD*%
%TO.C,*%
X130810000Y-81280000D03*
%TD*%
%TO.C,*%
X151130000Y-82550000D03*
%TD*%
%TO.C,D96*%
X171516100Y-70459900D03*
%TD*%
%TO.C,*%
X81991200Y-142925800D03*
%TD*%
%TO.C,*%
X106680000Y-74930000D03*
%TD*%
%TO.C,*%
X71043800Y-82448400D03*
%TD*%
%TO.C,D4*%
X79994000Y-61214000D03*
%TD*%
%TO.C,*%
X85090000Y-115570000D03*
%TD*%
%TO.C,*%
X92151200Y-140385800D03*
%TD*%
%TO.C,*%
X156210000Y-68580000D03*
%TD*%
%TO.C,D65*%
X101153693Y-132202613D03*
%TD*%
%TO.C,*%
X95250000Y-85090000D03*
%TD*%
%TO.C,*%
X109220000Y-74930000D03*
%TD*%
%TO.C,*%
X173990000Y-133350000D03*
%TD*%
%TO.C,*%
X153670000Y-71120000D03*
%TD*%
D11*
%TO.C,D14*%
X150777000Y-128306000D03*
%TD*%
D10*
%TO.C,*%
X132080000Y-110490000D03*
%TD*%
%TO.C,*%
X80010000Y-113030000D03*
%TD*%
%TO.C,D62*%
X101269800Y-124993400D03*
%TD*%
%TO.C,*%
X71043800Y-95148400D03*
%TD*%
%TO.C,*%
X71043800Y-92608400D03*
%TD*%
%TO.C,*%
X95250000Y-82550000D03*
%TD*%
%TO.C,*%
X111760000Y-64770000D03*
%TD*%
%TO.C,*%
X164084000Y-95123000D03*
%TD*%
%TO.C,*%
X171450000Y-130810000D03*
%TD*%
D11*
%TO.C,D101*%
X97826293Y-132024813D03*
%TD*%
D10*
%TO.C,*%
X97790000Y-85090000D03*
%TD*%
%TO.C,*%
X129133600Y-140182600D03*
%TD*%
%TO.C,*%
X138430000Y-81280000D03*
%TD*%
%TO.C,D2*%
X127863600Y-71170800D03*
%TD*%
%TO.C,*%
X135890000Y-78740000D03*
%TD*%
%TO.C,*%
X87630000Y-85090000D03*
%TD*%
%TO.C,*%
X151130000Y-80010000D03*
%TD*%
%TO.C,*%
X106680000Y-72390000D03*
%TD*%
%TO.C,*%
X156210000Y-77470000D03*
%TD*%
%TO.C,*%
X173990000Y-130810000D03*
%TD*%
%TO.C,*%
X85090000Y-113030000D03*
%TD*%
%TO.C,*%
X153670000Y-66040000D03*
%TD*%
%TO.C,*%
X76123800Y-84988400D03*
%TD*%
D11*
%TO.C,D107*%
X117906800Y-95859600D03*
%TD*%
D10*
%TO.C,*%
X118973600Y-142722600D03*
%TD*%
D11*
%TO.C,D13*%
X140423800Y-59551800D03*
%TD*%
D10*
%TO.C,D98*%
X121742200Y-67005200D03*
%TD*%
%TO.C,*%
X99796600Y-140284200D03*
%TD*%
%TO.C,*%
X76123800Y-90068400D03*
%TD*%
%TO.C,D80*%
X135077200Y-123317000D03*
%TD*%
%TO.C,*%
X111760000Y-72390000D03*
%TD*%
%TO.C,*%
X92710000Y-113030000D03*
%TD*%
D11*
%TO.C,D79*%
X72991528Y-107635000D03*
%TD*%
D10*
%TO.C,*%
X137160000Y-110490000D03*
%TD*%
%TO.C,D41*%
X117482800Y-130479800D03*
%TD*%
%TO.C,*%
X153670000Y-85090000D03*
%TD*%
%TO.C,*%
X125730000Y-81280000D03*
%TD*%
D11*
%TO.C,D102*%
X102539800Y-106807000D03*
%TD*%
D10*
%TO.C,D57*%
X166686200Y-83728200D03*
%TD*%
D11*
%TO.C,D39*%
X77065093Y-125386013D03*
%TD*%
D10*
%TO.C,*%
X123190000Y-78740000D03*
%TD*%
%TO.C,*%
X128270000Y-78740000D03*
%TD*%
%TO.C,*%
X100330000Y-82550000D03*
%TD*%
%TO.C,*%
X129540000Y-110490000D03*
%TD*%
%TO.C,D75*%
X137924300Y-97104200D03*
%TD*%
%TO.C,*%
X148590000Y-80010000D03*
%TD*%
D11*
%TO.C,D40*%
X76912693Y-120788613D03*
%TD*%
D10*
%TO.C,*%
X79451200Y-142925800D03*
%TD*%
%TO.C,*%
X73583800Y-92608400D03*
%TD*%
%TO.C,*%
X111760000Y-74930000D03*
%TD*%
%TO.C,*%
X106680000Y-64770000D03*
%TD*%
%TO.C,*%
X109220000Y-69850000D03*
%TD*%
%TO.C,*%
X156210000Y-66040000D03*
%TD*%
%TO.C,*%
X156210000Y-85090000D03*
%TD*%
%TO.C,*%
X179070000Y-130810000D03*
%TD*%
%TO.C,*%
X90170000Y-85090000D03*
%TD*%
%TO.C,*%
X176530000Y-130810000D03*
%TD*%
%TO.C,*%
X148590000Y-63500000D03*
%TD*%
%TO.C,*%
X148590000Y-68580000D03*
%TD*%
%TO.C,*%
X138430000Y-78740000D03*
%TD*%
%TO.C,*%
X99796600Y-142824200D03*
%TD*%
%TO.C,*%
X121920000Y-113030000D03*
%TD*%
%TO.C,*%
X102336600Y-140284200D03*
%TD*%
%TO.C,D37*%
X104176293Y-119274013D03*
%TD*%
%TO.C,*%
X109220000Y-64770000D03*
%TD*%
%TO.C,*%
X176530000Y-133350000D03*
%TD*%
%TO.C,*%
X124460000Y-113030000D03*
%TD*%
%TO.C,*%
X92710000Y-85090000D03*
%TD*%
%TO.C,*%
X102336600Y-142824200D03*
%TD*%
%TO.C,*%
X73583800Y-87528400D03*
%TD*%
%TO.C,D5*%
X120942000Y-62726800D03*
%TD*%
%TO.C,D68*%
X100085400Y-67411600D03*
%TD*%
%TO.C,*%
X73583800Y-79908400D03*
%TD*%
%TO.C,*%
X100330000Y-85090000D03*
%TD*%
D11*
%TO.C,D51*%
X113825200Y-122605800D03*
%TD*%
D10*
%TO.C,*%
X97256600Y-142824200D03*
%TD*%
%TO.C,*%
X151130000Y-77470000D03*
%TD*%
%TO.C,*%
X87071200Y-142925800D03*
%TD*%
%TO.C,D92*%
X187450800Y-111641200D03*
%TD*%
%TO.C,*%
X76123800Y-95148400D03*
%TD*%
%TO.C,D23*%
X136906000Y-90703400D03*
%TD*%
D11*
%TO.C,D71*%
X186613800Y-81176050D03*
%TD*%
D10*
%TO.C,*%
X113893600Y-142722600D03*
%TD*%
%TO.C,D44*%
X109956600Y-90932000D03*
%TD*%
%TO.C,*%
X72390000Y-115570000D03*
%TD*%
%TO.C,D97*%
X171541500Y-72796700D03*
%TD*%
%TO.C,D50*%
X150677000Y-125956000D03*
%TD*%
%TO.C,D17*%
X73923400Y-67919600D03*
%TD*%
D11*
%TO.C,D89*%
X70781728Y-103393200D03*
%TD*%
D10*
%TO.C,*%
X135890000Y-81280000D03*
%TD*%
%TO.C,*%
X106680000Y-67310000D03*
%TD*%
%TO.C,*%
X71043800Y-79908400D03*
%TD*%
%TO.C,*%
X89611200Y-142925800D03*
%TD*%
%TO.C,*%
X92710000Y-82550000D03*
%TD*%
D11*
%TO.C,D78*%
X181279800Y-72997250D03*
%TD*%
D13*
%TO.C,U27*%
X164287200Y-137734800D03*
%TD*%
D10*
%TO.C,D58*%
X151550200Y-103310000D03*
%TD*%
%TO.C,*%
X129540000Y-113030000D03*
%TD*%
%TO.C,*%
X94691200Y-140385800D03*
%TD*%
%TO.C,*%
X111760000Y-67310000D03*
%TD*%
%TO.C,D67*%
X100034600Y-64973200D03*
%TD*%
%TO.C,*%
X104876600Y-142824200D03*
%TD*%
%TO.C,*%
X156210000Y-82550000D03*
%TD*%
%TO.C,*%
X76123800Y-82448400D03*
%TD*%
%TO.C,*%
X179070000Y-135890000D03*
%TD*%
%TO.C,*%
X116840000Y-113030000D03*
%TD*%
%TO.C,D69*%
X100034600Y-69875400D03*
%TD*%
D11*
%TO.C,D8*%
X164276200Y-83916000D03*
%TD*%
D13*
%TO.C,U25*%
X155575000Y-136134600D03*
%TD*%
D10*
%TO.C,*%
X92151200Y-142925800D03*
%TD*%
%TO.C,D42*%
X132799000Y-119126000D03*
%TD*%
%TO.C,*%
X134620000Y-113030000D03*
%TD*%
%TO.C,*%
X156210000Y-80010000D03*
%TD*%
%TO.C,D81*%
X135026400Y-125831600D03*
%TD*%
%TO.C,*%
X153670000Y-74930000D03*
%TD*%
%TO.C,*%
X151130000Y-66040000D03*
%TD*%
%TO.C,*%
X89611200Y-140385800D03*
%TD*%
%TO.C,*%
X73583800Y-84988400D03*
%TD*%
D13*
%TO.C,U28*%
X163068000Y-135601200D03*
%TD*%
D10*
%TO.C,D85*%
X106426000Y-99263200D03*
%TD*%
%TO.C,*%
X121513600Y-140182600D03*
%TD*%
%TO.C,*%
X156210000Y-60960000D03*
%TD*%
%TO.C,D82*%
X135026400Y-128346200D03*
%TD*%
%TO.C,D99*%
X121716800Y-69189600D03*
%TD*%
%TO.C,*%
X148590000Y-66040000D03*
%TD*%
%TO.C,*%
X74930000Y-115570000D03*
%TD*%
%TO.C,*%
X111353600Y-142722600D03*
%TD*%
%TO.C,D36*%
X97750093Y-124074613D03*
%TD*%
%TO.C,*%
X77470000Y-113030000D03*
%TD*%
%TO.C,*%
X107950000Y-82550000D03*
%TD*%
D11*
%TO.C,D53*%
X88747600Y-89916400D03*
%TD*%
D10*
%TO.C,*%
X184150000Y-130810000D03*
%TD*%
%TO.C,*%
X97790000Y-82550000D03*
%TD*%
D11*
%TO.C,D72*%
X178028600Y-77416850D03*
%TD*%
D10*
%TO.C,*%
X133350000Y-81280000D03*
%TD*%
%TO.C,*%
X87630000Y-82550000D03*
%TD*%
D11*
%TO.C,D100*%
X95972093Y-132024813D03*
%TD*%
D10*
%TO.C,*%
X105410000Y-85090000D03*
%TD*%
%TO.C,D66*%
X99983800Y-62611000D03*
%TD*%
%TO.C,*%
X105410000Y-82550000D03*
%TD*%
D14*
%TO.C,U4*%
X67259200Y-145872200D03*
%TD*%
D10*
%TO.C,*%
X104876600Y-140284200D03*
%TD*%
%TO.C,*%
X76911200Y-140385800D03*
%TD*%
%TO.C,*%
X148590000Y-82550000D03*
%TD*%
%TO.C,*%
X109220000Y-62230000D03*
%TD*%
D14*
%TO.C,D3*%
X192250000Y-56800000D03*
%TD*%
D11*
%TO.C,D15*%
X151550200Y-105596000D03*
%TD*%
D10*
%TO.C,*%
X113893600Y-140182600D03*
%TD*%
%TO.C,*%
X121920000Y-110490000D03*
%TD*%
D11*
%TO.C,D10*%
X142220200Y-144529600D03*
%TD*%
D10*
%TO.C,*%
X171450000Y-135890000D03*
%TD*%
%TO.C,*%
X123190000Y-81280000D03*
%TD*%
%TO.C,*%
X173990000Y-135890000D03*
%TD*%
%TO.C,*%
X116433600Y-140182600D03*
%TD*%
%TO.C,D76*%
X137922000Y-99517200D03*
%TD*%
%TO.C,*%
X148590000Y-77470000D03*
%TD*%
%TO.C,*%
X148590000Y-85090000D03*
%TD*%
%TO.C,*%
X156210000Y-71120000D03*
%TD*%
%TO.C,D1*%
X73898000Y-64592200D03*
%TD*%
%TO.C,*%
X148590000Y-71120000D03*
%TD*%
%TO.C,D55*%
X166686200Y-59649000D03*
%TD*%
%TO.C,*%
X102870000Y-82550000D03*
%TD*%
%TO.C,*%
X102870000Y-85090000D03*
%TD*%
%TO.C,*%
X73583800Y-82448400D03*
%TD*%
%TO.C,*%
X181610000Y-130810000D03*
%TD*%
%TO.C,*%
X128270000Y-81280000D03*
%TD*%
%TO.C,*%
X133350000Y-78740000D03*
%TD*%
%TO.C,*%
X121513600Y-142722600D03*
%TD*%
%TO.C,*%
X84531200Y-142925800D03*
%TD*%
D11*
%TO.C,D73*%
X185877200Y-72997250D03*
%TD*%
D10*
%TO.C,*%
X73583800Y-90068400D03*
%TD*%
D11*
%TO.C,D54*%
X106984800Y-90932000D03*
%TD*%
D10*
%TO.C,*%
X124053600Y-140182600D03*
%TD*%
%TO.C,D19*%
X130327400Y-101258500D03*
%TD*%
%TO.C,*%
X120650000Y-78740000D03*
%TD*%
%TO.C,*%
X130810000Y-78740000D03*
%TD*%
%TO.C,*%
X87071200Y-140385800D03*
%TD*%
%TO.C,*%
X153670000Y-80010000D03*
%TD*%
D11*
%TO.C,D7*%
X164226200Y-59466000D03*
%TD*%
%TO.C,D90*%
X78706528Y-99075200D03*
%TD*%
D10*
%TO.C,*%
X186944000Y-95250000D03*
%TD*%
%TO.C,*%
X148590000Y-74930000D03*
%TD*%
D11*
%TO.C,D52*%
X120937200Y-129971800D03*
%TD*%
D10*
%TO.C,*%
X148590000Y-60960000D03*
%TD*%
%TO.C,*%
X97256600Y-140284200D03*
%TD*%
%TO.C,*%
X119380000Y-113030000D03*
%TD*%
%TO.C,*%
X74930000Y-113030000D03*
%TD*%
%TO.C,*%
X153670000Y-82550000D03*
%TD*%
%TO.C,*%
X109220000Y-72390000D03*
%TD*%
%TO.C,*%
X90170000Y-82550000D03*
%TD*%
%TO.C,*%
X111353600Y-140182600D03*
%TD*%
D11*
%TO.C,D106*%
X117906800Y-93497400D03*
%TD*%
D10*
%TO.C,*%
X94691200Y-142925800D03*
%TD*%
%TO.C,*%
X127000000Y-113030000D03*
%TD*%
%TO.C,*%
X87630000Y-113030000D03*
%TD*%
%TO.C,*%
X132080000Y-113030000D03*
%TD*%
%TO.C,D74*%
X137922000Y-94716600D03*
%TD*%
%TO.C,*%
X176530000Y-135890000D03*
%TD*%
%TO.C,*%
X127000000Y-110490000D03*
%TD*%
%TO.C,*%
X116433600Y-142722600D03*
%TD*%
%TO.C,*%
X184150000Y-135890000D03*
%TD*%
%TO.C,*%
X71043800Y-84988400D03*
%TD*%
D14*
%TO.C,U2*%
X192328800Y-146202400D03*
%TD*%
D10*
%TO.C,D64*%
X101153693Y-129738813D03*
%TD*%
%TO.C,*%
X171450000Y-133350000D03*
%TD*%
%TO.C,*%
X82550000Y-115570000D03*
%TD*%
%TO.C,*%
X179070000Y-133350000D03*
%TD*%
%TO.C,*%
X90170000Y-113030000D03*
%TD*%
%TO.C,*%
X156210000Y-63500000D03*
%TD*%
%TO.C,D18*%
X120294400Y-86055200D03*
%TD*%
%TO.C,*%
X156210000Y-74930000D03*
%TD*%
%TO.C,D94*%
X187628600Y-116340200D03*
%TD*%
%TO.C,*%
X155956000Y-95250000D03*
%TD*%
%TO.C,*%
X90170000Y-115570000D03*
%TD*%
%TO.C,*%
X72390000Y-113030000D03*
%TD*%
%TO.C,*%
X124460000Y-110490000D03*
%TD*%
%TO.C,D59*%
X141967400Y-66409800D03*
%TD*%
D11*
%TO.C,D6*%
X78470000Y-74193400D03*
%TD*%
D10*
%TO.C,*%
X92710000Y-115570000D03*
%TD*%
%TO.C,*%
X80010000Y-115570000D03*
%TD*%
%TO.C,*%
X79451200Y-140385800D03*
%TD*%
%TO.C,*%
X109220000Y-67310000D03*
%TD*%
%TO.C,*%
X153670000Y-68580000D03*
%TD*%
%TO.C,*%
X74371200Y-140385800D03*
%TD*%
%TO.C,D56*%
X160082200Y-73365000D03*
%TD*%
D14*
%TO.C,U5*%
X66800000Y-57300000D03*
%TD*%
D10*
%TO.C,*%
X87630000Y-115570000D03*
%TD*%
D11*
%TO.C,D103*%
X104343200Y-106807000D03*
%TD*%
D10*
%TO.C,*%
X129133600Y-142722600D03*
%TD*%
%TO.C,*%
X153670000Y-77470000D03*
%TD*%
%TO.C,*%
X73583800Y-95148400D03*
%TD*%
%TO.C,*%
X181610000Y-133350000D03*
%TD*%
%TO.C,*%
X106680000Y-69850000D03*
%TD*%
%TO.C,D84*%
X106426000Y-96824800D03*
%TD*%
%TO.C,*%
X151130000Y-74930000D03*
%TD*%
D11*
%TO.C,D105*%
X134035800Y-130810000D03*
%TD*%
D10*
%TO.C,D87*%
X106476800Y-104165400D03*
%TD*%
%TO.C,D60*%
X141967400Y-68884800D03*
%TD*%
%TO.C,*%
X151130000Y-71120000D03*
%TD*%
%TO.C,*%
X118110000Y-78740000D03*
%TD*%
D11*
%TO.C,D70*%
X180213000Y-81226850D03*
%TD*%
D10*
%TO.C,*%
X107950000Y-85090000D03*
%TD*%
%TO.C,*%
X125730000Y-78740000D03*
%TD*%
D13*
%TO.C,U24*%
X157505400Y-136160000D03*
%TD*%
D10*
%TO.C,*%
X76911200Y-142925800D03*
%TD*%
%TO.C,*%
X106680000Y-62230000D03*
%TD*%
%TO.C,*%
X76123800Y-92608400D03*
%TD*%
%TO.C,D86*%
X106426000Y-101752400D03*
%TD*%
%TO.C,*%
X171704000Y-95123000D03*
%TD*%
%TO.C,*%
X151130000Y-63500000D03*
%TD*%
%TO.C,*%
X77470000Y-115570000D03*
%TD*%
%TO.C,*%
X153670000Y-60960000D03*
%TD*%
%TO.C,*%
X151130000Y-68580000D03*
%TD*%
%TO.C,*%
X111760000Y-62230000D03*
%TD*%
D13*
%TO.C,U26*%
X155905200Y-142713200D03*
%TD*%
D11*
%TO.C,D91*%
X74693328Y-99075200D03*
%TD*%
D10*
%TO.C,*%
X118973600Y-140182600D03*
%TD*%
%TO.C,*%
X116840000Y-110490000D03*
%TD*%
%TO.C,*%
X120650000Y-81280000D03*
%TD*%
%TO.C,*%
X153670000Y-63500000D03*
%TD*%
%TO.C,*%
X76123800Y-79908400D03*
%TD*%
%TO.C,D22*%
X123494800Y-101193600D03*
%TD*%
%TO.C,D83*%
X135069400Y-120954800D03*
%TD*%
%TO.C,*%
X76123800Y-87528400D03*
%TD*%
%TO.C,*%
X124053600Y-142722600D03*
%TD*%
%TO.C,D77*%
X137922000Y-101930200D03*
%TD*%
%TO.C,D43*%
X102362000Y-99441400D03*
%TD*%
%TO.C,D93*%
X187527000Y-113978000D03*
%TD*%
%TO.C,*%
X151130000Y-85090000D03*
%TD*%
%TO.C,*%
X131673600Y-142722600D03*
%TD*%
%TO.C,*%
X126593600Y-142722600D03*
%TD*%
%TO.C,D63*%
X101204493Y-127376613D03*
%TD*%
%TO.C,*%
X71043800Y-87528400D03*
%TD*%
%TO.C,*%
X118110000Y-81280000D03*
%TD*%
%TO.C,*%
X151130000Y-60960000D03*
%TD*%
%TO.C,*%
X131673600Y-140182600D03*
%TD*%
%TO.C,D61*%
X142011400Y-71272400D03*
%TD*%
%TO.C,*%
X126593600Y-140182600D03*
%TD*%
D11*
%TO.C,D88*%
X79341528Y-107533400D03*
%TD*%
D10*
%TO.C,*%
X71043800Y-90068400D03*
%TD*%
D11*
%TO.C,D9*%
X138470200Y-144579600D03*
%TD*%
%TO.C,D16*%
X140042800Y-65165200D03*
%TD*%
D10*
%TO.C,*%
X119380000Y-110490000D03*
%TD*%
D15*
%TO.C,U19*%
X123347900Y-119039600D03*
X123347900Y-120939600D03*
X121472900Y-119989600D03*
%TD*%
%TO.C,U16*%
X134566900Y-87887900D03*
X134566900Y-89787900D03*
X132691900Y-88837900D03*
%TD*%
D16*
%TO.C,D34*%
X161907000Y-104961000D03*
X166187000Y-104961000D03*
D17*
X164047000Y-104961000D03*
%TD*%
D15*
%TO.C,U15*%
X131546600Y-92627500D03*
X131546600Y-94527500D03*
X129671600Y-93577500D03*
%TD*%
D16*
%TO.C,D33*%
X173374000Y-95250000D03*
X177654000Y-95250000D03*
D17*
X175514000Y-95250000D03*
%TD*%
D15*
%TO.C,U10*%
X89035593Y-123581813D03*
X89035593Y-125481813D03*
X87160593Y-124531813D03*
%TD*%
D18*
%TO.C,C55*%
X97204200Y-91023400D03*
X95129200Y-91023400D03*
%TD*%
D15*
%TO.C,U20*%
X97155000Y-92918200D03*
X97155000Y-94818200D03*
X95280000Y-93868200D03*
%TD*%
D19*
%TO.C,C54*%
X123612000Y-125958600D03*
X125687000Y-125958600D03*
%TD*%
D20*
%TO.C,C52*%
X130581400Y-86860600D03*
X130581400Y-88935600D03*
%TD*%
D16*
%TO.C,D35*%
X154287000Y-104935200D03*
X158567000Y-104935200D03*
D17*
X156427000Y-104935200D03*
%TD*%
D20*
%TO.C,C47*%
X85100893Y-123922213D03*
X85100893Y-125997213D03*
%TD*%
D16*
%TO.C,D33*%
X180994000Y-95250000D03*
X185274000Y-95250000D03*
D17*
X183134000Y-95250000D03*
%TD*%
D16*
%TO.C,D33*%
X169527000Y-104961000D03*
X173807000Y-104961000D03*
D17*
X171667000Y-104961000D03*
%TD*%
D21*
%TO.C,U13*%
X94512600Y-62587900D03*
X96412600Y-62587900D03*
X95462600Y-64462900D03*
%TD*%
D15*
%TO.C,U11*%
X87333793Y-119975013D03*
X87333793Y-121875013D03*
X85458793Y-120925013D03*
%TD*%
D22*
%TO.C,D48*%
X165187600Y-73727000D03*
X165187600Y-69447000D03*
D23*
X165187600Y-71587000D03*
%TD*%
D16*
%TO.C,D26*%
X161857000Y-122741000D03*
X166137000Y-122741000D03*
D17*
X163997000Y-122741000D03*
%TD*%
D16*
%TO.C,D24*%
X177147000Y-122741000D03*
X181427000Y-122741000D03*
D17*
X179287000Y-122741000D03*
%TD*%
D15*
%TO.C,U9*%
X129292800Y-66079600D03*
X129292800Y-67979600D03*
X127417800Y-67029600D03*
%TD*%
D16*
%TO.C,D33*%
X165754000Y-95250000D03*
X170034000Y-95250000D03*
D17*
X167894000Y-95250000D03*
%TD*%
D16*
%TO.C,D31*%
X154237000Y-113906000D03*
X158517000Y-113906000D03*
D17*
X156377000Y-113906000D03*
%TD*%
D20*
%TO.C,C48*%
X83414293Y-120040613D03*
X83414293Y-122115613D03*
%TD*%
D16*
%TO.C,D29*%
X169527000Y-113885200D03*
X173807000Y-113885200D03*
D17*
X171667000Y-113885200D03*
%TD*%
D18*
%TO.C,C53*%
X130726000Y-90844500D03*
X128651000Y-90844500D03*
%TD*%
D24*
%TO.C,U17*%
X123885900Y-124368600D03*
X123885900Y-122468600D03*
X125760900Y-123418600D03*
%TD*%
D16*
%TO.C,D28*%
X177147000Y-113851000D03*
X181427000Y-113851000D03*
D17*
X179287000Y-113851000D03*
%TD*%
D16*
%TO.C,D32*%
X177147000Y-104961000D03*
X181427000Y-104961000D03*
D17*
X179287000Y-104961000D03*
%TD*%
D20*
%TO.C,C50*%
X92719400Y-61907600D03*
X92719400Y-63982600D03*
%TD*%
D16*
%TO.C,D33*%
X158134000Y-95250000D03*
X162414000Y-95250000D03*
D17*
X160274000Y-95250000D03*
%TD*%
D21*
%TO.C,U18*%
X93096000Y-98374200D03*
X94996000Y-98374200D03*
X94046000Y-100249200D03*
%TD*%
D16*
%TO.C,D25*%
X169502000Y-122781000D03*
X173782000Y-122781000D03*
D17*
X171642000Y-122781000D03*
%TD*%
D15*
%TO.C,U12*%
X92567000Y-67797600D03*
X92567000Y-69697600D03*
X90692000Y-68747600D03*
%TD*%
D18*
%TO.C,C49*%
X92594700Y-65852000D03*
X90519700Y-65852000D03*
%TD*%
%TO.C,C56*%
X123317000Y-117221000D03*
X121242000Y-117221000D03*
%TD*%
D22*
%TO.C,D47*%
X165111400Y-66742000D03*
X165111400Y-62462000D03*
D23*
X165111400Y-64602000D03*
%TD*%
D20*
%TO.C,C57*%
X91165400Y-98356700D03*
X91165400Y-100431700D03*
%TD*%
D16*
%TO.C,D27*%
X154262000Y-122756000D03*
X158542000Y-122756000D03*
D17*
X156402000Y-122756000D03*
%TD*%
D18*
%TO.C,C46*%
X129422100Y-64007000D03*
X127347100Y-64007000D03*
%TD*%
D16*
%TO.C,D30*%
X161907000Y-113885200D03*
X166187000Y-113885200D03*
D17*
X164047000Y-113885200D03*
%TD*%
D22*
%TO.C,D49*%
X165162200Y-80712000D03*
X165162200Y-76432000D03*
D23*
X165162200Y-78572000D03*
%TD*%
D25*
X74380600Y-74142600D03*
X77149200Y-64211200D03*
X77098400Y-61772800D03*
X97799400Y-69723000D03*
X82026000Y-69773800D03*
X90433400Y-64719200D03*
X75650600Y-65963800D03*
X82965800Y-71374000D03*
X88680800Y-73964800D03*
X90789000Y-61696600D03*
X82889600Y-69799200D03*
X85124800Y-72923400D03*
X97799400Y-72110600D03*
X92287600Y-73583800D03*
X88985600Y-61671200D03*
X97697800Y-65532000D03*
X93989400Y-73533000D03*
X88985600Y-65176400D03*
X82026000Y-68630800D03*
X76768200Y-74091800D03*
X97672400Y-62534800D03*
X82889600Y-68630800D03*
X129267400Y-70270600D03*
X127794200Y-65851000D03*
X140494200Y-63565000D03*
X132772600Y-63412600D03*
X130283400Y-61609200D03*
X127540200Y-63971400D03*
X125305000Y-69687802D03*
X136633400Y-59424800D03*
X126652919Y-69686437D03*
X120733000Y-65012800D03*
X125945800Y-61533000D03*
X132747200Y-59780400D03*
X136912800Y-68060800D03*
X138487600Y-65343000D03*
X136328600Y-70296000D03*
X138462200Y-70219800D03*
X132239200Y-70270600D03*
X127870400Y-67959200D03*
X123425400Y-61558400D03*
X138817800Y-59450200D03*
X134703000Y-67679800D03*
X185327000Y-117189700D03*
X168327000Y-112856000D03*
X92771693Y-122220413D03*
X82332293Y-123998413D03*
X83678493Y-122474413D03*
X97419893Y-127579813D03*
X90180893Y-129764213D03*
X95743493Y-125903413D03*
X78166693Y-132177213D03*
X82179893Y-132431213D03*
X91349293Y-122220413D03*
X77684093Y-123795213D03*
X79614493Y-128240213D03*
X97445293Y-130145213D03*
X91857293Y-125878013D03*
X82306893Y-126513013D03*
X82332293Y-122525213D03*
X90003093Y-121991813D03*
X94194093Y-122220413D03*
X87437693Y-130373813D03*
X93508293Y-124354013D03*
X88707693Y-129815013D03*
X82510093Y-130958013D03*
X91527093Y-120340813D03*
X77684093Y-122449013D03*
X89989683Y-128736223D03*
X89241093Y-127986213D03*
X93482893Y-123236413D03*
X80198693Y-120518613D03*
X79817693Y-129942013D03*
X122029400Y-128778000D03*
X128455600Y-129438400D03*
X125407600Y-128651000D03*
X118905200Y-129921000D03*
X128277800Y-120954800D03*
X129700200Y-120980200D03*
X126449000Y-128600200D03*
X126550600Y-126365000D03*
X129243000Y-122072400D03*
X114993600Y-119557800D03*
X121165800Y-126060200D03*
X127846000Y-125476000D03*
X130055800Y-122809000D03*
X126398200Y-118389400D03*
X116085800Y-125501400D03*
X119362400Y-121234200D03*
X119565600Y-126060200D03*
X130759200Y-129946400D03*
X125306000Y-127254000D03*
X127058600Y-124764800D03*
X128531800Y-124790200D03*
X116873200Y-117830600D03*
X98374200Y-98704400D03*
X95250000Y-96774000D03*
X99745800Y-102209600D03*
X89458800Y-93040200D03*
X96748600Y-104673400D03*
X88214200Y-97358200D03*
X88442800Y-102489000D03*
X102768400Y-103136700D03*
X98679000Y-105689400D03*
X100101400Y-94361000D03*
X93827600Y-95935800D03*
X100355400Y-100838000D03*
X95504000Y-103301800D03*
X95504000Y-104698800D03*
X92887800Y-105638600D03*
X88214200Y-96139000D03*
X100008515Y-98216900D03*
X91541600Y-90576400D03*
X91922600Y-95113100D03*
X96748600Y-102184200D03*
X96189800Y-89585800D03*
X88442800Y-104394000D03*
X100431600Y-95656400D03*
X96494600Y-100634800D03*
X97815400Y-89585800D03*
X101041200Y-102057200D03*
X127558800Y-89904700D03*
X121945400Y-97321500D03*
X121945400Y-98820100D03*
X133959600Y-100420300D03*
X123440300Y-93007200D03*
X123571000Y-86348700D03*
X134543800Y-99048700D03*
X123571000Y-98845500D03*
X127355600Y-91479500D03*
X121132600Y-91708100D03*
X120497600Y-99937700D03*
X134188200Y-97296100D03*
X128193800Y-87212300D03*
X126619000Y-90565100D03*
X128574800Y-96000700D03*
X128930400Y-101639500D03*
X128955800Y-100623500D03*
X121894600Y-95035500D03*
X125984000Y-87186900D03*
X123545600Y-96305500D03*
X127127000Y-87161500D03*
X130860800Y-99048700D03*
X127609600Y-93689300D03*
M02*
