M48
; DRILL file {KiCad 7.0.7} date Thu Aug  1 01:42:33 2024
; FORMAT={-:-/ absolute / inch / decimal}
; #@! TF.CreationDate,2024-08-01T01:42:33+03:00
; #@! TF.GenerationSoftware,Kicad,Pcbnew,7.0.7
; #@! TF.FileFunction,Plated,1,4,PTH
FMAT,2
INCH
; #@! TA.AperFunction,Plated,PTH,ComponentDrill
T1C0.0080
; #@! TA.AperFunction,Plated,PTH,ViaDrill
T2C0.0157
; #@! TA.AperFunction,Plated,PTH,ComponentDrill
T3C0.0276
; #@! TA.AperFunction,Plated,PTH,ComponentDrill
T4C0.0315
; #@! TA.AperFunction,Plated,PTH,ComponentDrill
T5C0.0472
; #@! TA.AperFunction,Plated,PTH,ComponentDrill
T6C0.0787
%
G90
G05
T1
X3.1895Y-2.2468
X3.2288Y-2.1995
X3.2288Y-2.2468
X3.2288Y-2.294
X3.2682Y-2.2468
X3.289Y-2.4168
X3.3283Y-2.3695
X3.3283Y-2.4168
X3.3283Y-2.464
X3.3677Y-2.4168
T2
X2.2215Y-2.2785
X2.38Y-2.244
X2.504Y-2.262
X2.57Y-2.17
X2.64Y-2.34
X2.898Y-2.202
X2.898Y-2.284
X2.898Y-2.326
X2.898Y-2.366
X2.898Y-2.408
X2.9Y-2.156
X2.979Y-2.057
X3.0466Y-2.1046
X3.056Y-2.492
X3.114Y-2.19
X3.198Y-2.438
X3.198Y-2.438
X3.3Y-2.156
X3.41Y-2.25
X3.476Y-2.274
X3.6415Y-2.1023
X3.678Y-2.288
X3.7084Y-2.206
X3.718Y-2.286
X3.7268Y-2.3431
X3.7738Y-2.099
X3.776Y-2.4955
X3.8Y-2.136
X3.816Y-2.3431
X3.84Y-2.4955
X3.8553Y-2.3431
X3.8965Y-2.2632
X3.902Y-2.196
X3.904Y-2.106
X3.9224Y-2.4174
X3.9235Y-2.2298
X3.948Y-2.098
X3.972Y-2.468
X4.03Y-2.134
X4.104Y-2.182
T3
X2.345Y-2.061
X2.404Y-2.06
X2.464Y-2.06
X2.524Y-2.06
X3.352Y-2.048
X3.412Y-2.048
X3.438Y-2.514
X3.472Y-2.048
X3.498Y-2.514
X3.532Y-2.048
X3.558Y-2.514
X3.618Y-2.514
X3.694Y-2.04
X3.754Y-2.04
X3.858Y-2.044
X3.918Y-2.044
X3.978Y-2.044
T4
X2.312Y-2.472
X2.382Y-2.472
X4.078Y-2.246
X4.078Y-2.31
T5
X2.178Y-2.176
X2.178Y-2.376
X2.378Y-2.176
X2.378Y-2.376
T6
X2.19Y-2.06
X2.19Y-2.49
X4.11Y-2.07
X4.11Y-2.49
T0
M30
