%TF.GenerationSoftware,KiCad,Pcbnew,7.0.7*%
%TF.CreationDate,2024-08-01T01:42:33+03:00*%
%TF.ProjectId,_autosave-Main_PCB_002,5f617574-6f73-4617-9665-2d4d61696e5f,rev?*%
%TF.SameCoordinates,Original*%
%TF.FileFunction,Copper,L1,Top*%
%TF.FilePolarity,Positive*%
%FSLAX46Y46*%
G04 Gerber Fmt 4.6, Leading zero omitted, Abs format (unit mm)*
G04 Created by KiCad (PCBNEW 7.0.7) date 2024-08-01 01:42:33*
%MOMM*%
%LPD*%
G01*
G04 APERTURE LIST*
G04 Aperture macros list*
%AMRoundRect*
0 Rectangle with rounded corners*
0 $1 Rounding radius*
0 $2 $3 $4 $5 $6 $7 $8 $9 X,Y pos of 4 corners*
0 Add a 4 corners polygon primitive as box body*
4,1,4,$2,$3,$4,$5,$6,$7,$8,$9,$2,$3,0*
0 Add four circle primitives for the rounded corners*
1,1,$1+$1,$2,$3*
1,1,$1+$1,$4,$5*
1,1,$1+$1,$6,$7*
1,1,$1+$1,$8,$9*
0 Add four rect primitives between the rounded corners*
20,1,$1+$1,$2,$3,$4,$5,0*
20,1,$1+$1,$4,$5,$6,$7,0*
20,1,$1+$1,$6,$7,$8,$9,0*
20,1,$1+$1,$8,$9,$2,$3,0*%
%AMFreePoly0*
4,1,14,0.230680,0.111820,0.364320,-0.021821,0.377500,-0.053642,0.377500,-0.080000,0.364320,-0.111820,0.332500,-0.125000,-0.332500,-0.125000,-0.364320,-0.111820,-0.377500,-0.080000,-0.377500,0.080000,-0.364320,0.111820,-0.332500,0.125000,0.198860,0.125000,0.230680,0.111820,0.230680,0.111820,$1*%
%AMFreePoly1*
4,1,14,0.364320,0.111820,0.377500,0.080000,0.377501,0.053640,0.364318,0.021819,0.230680,-0.111820,0.198860,-0.125000,-0.332500,-0.125000,-0.364320,-0.111820,-0.377500,-0.080000,-0.377500,0.080000,-0.364320,0.111820,-0.332500,0.125000,0.332500,0.125000,0.364320,0.111820,0.364320,0.111820,$1*%
%AMFreePoly2*
4,1,15,0.053642,0.377500,0.080000,0.377500,0.111820,0.364320,0.125000,0.332500,0.125000,-0.332500,0.111820,-0.364320,0.080000,-0.377500,-0.080000,-0.377500,-0.111820,-0.364320,-0.125000,-0.332500,-0.125000,0.198860,-0.111820,0.230680,0.021820,0.364320,0.053640,0.377501,0.053642,0.377500,0.053642,0.377500,$1*%
%AMFreePoly3*
4,1,14,-0.021820,0.364320,0.111820,0.230679,0.125001,0.198860,0.125000,-0.332500,0.111820,-0.364320,0.080000,-0.377500,-0.080000,-0.377500,-0.111820,-0.364320,-0.125000,-0.332500,-0.125000,0.332500,-0.111820,0.364320,-0.080000,0.377500,-0.053640,0.377500,-0.021820,0.364320,-0.021820,0.364320,$1*%
%AMFreePoly4*
4,1,14,0.364320,0.111820,0.377500,0.080000,0.377500,-0.080000,0.364320,-0.111820,0.332500,-0.125000,-0.198860,-0.125001,-0.230680,-0.111818,-0.364320,0.021820,-0.377500,0.053640,-0.377500,0.080000,-0.364320,0.111820,-0.332500,0.125000,0.332500,0.125000,0.364320,0.111820,0.364320,0.111820,$1*%
%AMFreePoly5*
4,1,15,-0.198858,0.125000,0.332500,0.125000,0.364320,0.111820,0.377500,0.080000,0.377500,-0.080000,0.364320,-0.111820,0.332500,-0.125000,-0.332500,-0.125000,-0.364320,-0.111820,-0.377500,-0.080000,-0.377500,-0.053640,-0.364320,-0.021820,-0.230680,0.111820,-0.198860,0.125001,-0.198858,0.125000,-0.198858,0.125000,$1*%
%AMFreePoly6*
4,1,14,0.111820,0.364320,0.125000,0.332500,0.125001,-0.198860,0.111818,-0.230680,-0.021820,-0.364320,-0.053640,-0.377500,-0.080000,-0.377500,-0.111820,-0.364320,-0.125000,-0.332500,-0.125000,0.332500,-0.111820,0.364320,-0.080000,0.377500,0.080000,0.377500,0.111820,0.364320,0.111820,0.364320,$1*%
%AMFreePoly7*
4,1,14,0.111820,0.364320,0.125000,0.332500,0.125000,-0.332500,0.111820,-0.364320,0.080000,-0.377500,0.053640,-0.377501,0.021819,-0.364318,-0.111820,-0.230680,-0.125000,-0.198860,-0.125000,0.332500,-0.111820,0.364320,-0.080000,0.377500,0.080000,0.377500,0.111820,0.364320,0.111820,0.364320,$1*%
G04 Aperture macros list end*
%TA.AperFunction,ComponentPad*%
%ADD10C,0.900000*%
%TD*%
%TA.AperFunction,ComponentPad*%
%ADD11C,1.600000*%
%TD*%
%TA.AperFunction,SMDPad,CuDef*%
%ADD12RoundRect,0.237500X-0.300000X-0.237500X0.300000X-0.237500X0.300000X0.237500X-0.300000X0.237500X0*%
%TD*%
%TA.AperFunction,SMDPad,CuDef*%
%ADD13RoundRect,0.237500X0.237500X-0.300000X0.237500X0.300000X-0.237500X0.300000X-0.237500X-0.300000X0*%
%TD*%
%TA.AperFunction,ComponentPad*%
%ADD14C,2.200000*%
%TD*%
%TA.AperFunction,SMDPad,CuDef*%
%ADD15RoundRect,0.160000X0.160000X-0.197500X0.160000X0.197500X-0.160000X0.197500X-0.160000X-0.197500X0*%
%TD*%
%TA.AperFunction,SMDPad,CuDef*%
%ADD16RoundRect,0.250000X-0.475000X0.337500X-0.475000X-0.337500X0.475000X-0.337500X0.475000X0.337500X0*%
%TD*%
%TA.AperFunction,SMDPad,CuDef*%
%ADD17RoundRect,0.160000X0.197500X0.160000X-0.197500X0.160000X-0.197500X-0.160000X0.197500X-0.160000X0*%
%TD*%
%TA.AperFunction,SMDPad,CuDef*%
%ADD18FreePoly0,0.000000*%
%TD*%
%TA.AperFunction,SMDPad,CuDef*%
%ADD19RoundRect,0.062500X-0.375000X-0.062500X0.375000X-0.062500X0.375000X0.062500X-0.375000X0.062500X0*%
%TD*%
%TA.AperFunction,SMDPad,CuDef*%
%ADD20FreePoly1,0.000000*%
%TD*%
%TA.AperFunction,SMDPad,CuDef*%
%ADD21FreePoly2,0.000000*%
%TD*%
%TA.AperFunction,SMDPad,CuDef*%
%ADD22RoundRect,0.062500X-0.062500X-0.375000X0.062500X-0.375000X0.062500X0.375000X-0.062500X0.375000X0*%
%TD*%
%TA.AperFunction,SMDPad,CuDef*%
%ADD23FreePoly3,0.000000*%
%TD*%
%TA.AperFunction,SMDPad,CuDef*%
%ADD24FreePoly4,0.000000*%
%TD*%
%TA.AperFunction,SMDPad,CuDef*%
%ADD25FreePoly5,0.000000*%
%TD*%
%TA.AperFunction,SMDPad,CuDef*%
%ADD26FreePoly6,0.000000*%
%TD*%
%TA.AperFunction,SMDPad,CuDef*%
%ADD27FreePoly7,0.000000*%
%TD*%
%TA.AperFunction,SMDPad,CuDef*%
%ADD28R,1.016000X0.457200*%
%TD*%
%TA.AperFunction,ComponentPad*%
%ADD29C,1.000000*%
%TD*%
%TA.AperFunction,SMDPad,CuDef*%
%ADD30RoundRect,0.160000X-0.197500X-0.160000X0.197500X-0.160000X0.197500X0.160000X-0.197500X0.160000X0*%
%TD*%
%TA.AperFunction,SMDPad,CuDef*%
%ADD31RoundRect,0.062500X-0.117500X-0.062500X0.117500X-0.062500X0.117500X0.062500X-0.117500X0.062500X0*%
%TD*%
%TA.AperFunction,SMDPad,CuDef*%
%ADD32R,2.971800X6.604000*%
%TD*%
%TA.AperFunction,SMDPad,CuDef*%
%ADD33RoundRect,0.155000X-0.155000X0.212500X-0.155000X-0.212500X0.155000X-0.212500X0.155000X0.212500X0*%
%TD*%
%TA.AperFunction,SMDPad,CuDef*%
%ADD34RoundRect,0.155000X-0.212500X-0.155000X0.212500X-0.155000X0.212500X0.155000X-0.212500X0.155000X0*%
%TD*%
%TA.AperFunction,SMDPad,CuDef*%
%ADD35RoundRect,0.160000X-0.160000X0.197500X-0.160000X-0.197500X0.160000X-0.197500X0.160000X0.197500X0*%
%TD*%
%TA.AperFunction,SMDPad,CuDef*%
%ADD36RoundRect,0.155000X0.212500X0.155000X-0.212500X0.155000X-0.212500X-0.155000X0.212500X-0.155000X0*%
%TD*%
%TA.AperFunction,SMDPad,CuDef*%
%ADD37RoundRect,0.155000X0.155000X-0.212500X0.155000X0.212500X-0.155000X0.212500X-0.155000X-0.212500X0*%
%TD*%
%TA.AperFunction,SMDPad,CuDef*%
%ADD38RoundRect,0.250000X-0.337500X-0.475000X0.337500X-0.475000X0.337500X0.475000X-0.337500X0.475000X0*%
%TD*%
%TA.AperFunction,SMDPad,CuDef*%
%ADD39R,0.599999X0.249999*%
%TD*%
%TA.AperFunction,SMDPad,CuDef*%
%ADD40R,2.600000X2.999999*%
%TD*%
%TA.AperFunction,ComponentPad*%
%ADD41C,0.499999*%
%TD*%
%TA.AperFunction,SMDPad,CuDef*%
%ADD42RoundRect,0.250000X0.475000X-0.337500X0.475000X0.337500X-0.475000X0.337500X-0.475000X-0.337500X0*%
%TD*%
%TA.AperFunction,SMDPad,CuDef*%
%ADD43RoundRect,0.250000X0.500000X1.100000X-0.500000X1.100000X-0.500000X-1.100000X0.500000X-1.100000X0*%
%TD*%
%TA.AperFunction,SMDPad,CuDef*%
%ADD44RoundRect,0.150000X-0.150000X0.512500X-0.150000X-0.512500X0.150000X-0.512500X0.150000X0.512500X0*%
%TD*%
%TA.AperFunction,SMDPad,CuDef*%
%ADD45RoundRect,0.237500X0.237500X-0.250000X0.237500X0.250000X-0.237500X0.250000X-0.237500X-0.250000X0*%
%TD*%
%TA.AperFunction,SMDPad,CuDef*%
%ADD46R,0.711200X0.444500*%
%TD*%
%TA.AperFunction,SMDPad,CuDef*%
%ADD47RoundRect,0.250000X0.337500X0.475000X-0.337500X0.475000X-0.337500X-0.475000X0.337500X-0.475000X0*%
%TD*%
%TA.AperFunction,SMDPad,CuDef*%
%ADD48R,1.600200X2.692400*%
%TD*%
%TA.AperFunction,ViaPad*%
%ADD49C,0.800000*%
%TD*%
%TA.AperFunction,Conductor*%
%ADD50C,0.250000*%
%TD*%
%TA.AperFunction,Conductor*%
%ADD51C,0.500000*%
%TD*%
%TA.AperFunction,Conductor*%
%ADD52C,1.000000*%
%TD*%
%TA.AperFunction,Conductor*%
%ADD53C,0.750000*%
%TD*%
%TA.AperFunction,Conductor*%
%ADD54C,0.400000*%
%TD*%
%TA.AperFunction,Conductor*%
%ADD55C,0.700000*%
%TD*%
G04 APERTURE END LIST*
%TA.AperFunction,EtchedComponent*%
%TO.C,U1*%
G36*
X66332100Y-63004700D02*
G01*
X62776100Y-63004700D01*
X62776100Y-58686700D01*
X66332100Y-58686700D01*
X66332100Y-63004700D01*
G37*
%TD.AperFunction*%
%TD*%
D10*
%TO.P,D27,1,Conn*%
%TO.N,Net-(D11-Conn)*%
X87325200Y-63855600D03*
%TD*%
D11*
%TO.P,D3,1,Conn*%
%TO.N,Net-(D3-Conn)*%
X60401200Y-60350400D03*
%TD*%
D12*
%TO.P,C10,1*%
%TO.N,Net-(D11-Conn)*%
X79231300Y-54254400D03*
%TO.P,C10,2*%
%TO.N,GND2*%
X80956300Y-54254400D03*
%TD*%
D11*
%TO.P,D19,1,Conn*%
%TO.N,GND2*%
X55321200Y-55270400D03*
%TD*%
D13*
%TO.P,C14,1*%
%TO.N,Net-(U4-BST)*%
X85314600Y-56234500D03*
%TO.P,C14,2*%
%TO.N,Net-(C14-Pad2)*%
X85314600Y-54509500D03*
%TD*%
D14*
%TO.P,D29,1,Conn*%
%TO.N,GND2*%
X55626000Y-63246000D03*
%TD*%
D15*
%TO.P,R1,1*%
%TO.N,Net-(D3-Conn)*%
X60401200Y-58763500D03*
%TO.P,R1,2*%
%TO.N,Net-(U2-PB5)*%
X60401200Y-57568500D03*
%TD*%
D10*
%TO.P,D12,1,Conn*%
%TO.N,Net-(D12-Conn)*%
X62585600Y-52324000D03*
%TD*%
D16*
%TO.P,C19,1*%
%TO.N,Net-(D13-Conn)*%
X93849000Y-54668600D03*
%TO.P,C19,2*%
%TO.N,GND2*%
X93849000Y-56743600D03*
%TD*%
D17*
%TO.P,R3,1*%
%TO.N,Net-(U2-PA5)*%
X56476900Y-58394600D03*
%TO.P,R3,2*%
%TO.N,Net-(D1-Conn)*%
X55281900Y-58394600D03*
%TD*%
D11*
%TO.P,D2,1,Conn*%
%TO.N,Net-(D2-Conn)*%
X60401200Y-55270400D03*
%TD*%
D14*
%TO.P,D30,1,Conn*%
%TO.N,GND2*%
X104394000Y-52578000D03*
%TD*%
D18*
%TO.P,U2,1,PC14*%
%TO.N,unconnected-(U2-PC14-Pad1)*%
X96757700Y-55047500D03*
D19*
%TO.P,U2,2,PC15*%
%TO.N,unconnected-(U2-PC15-Pad2)*%
X96817700Y-55547500D03*
%TO.P,U2,3,VDD*%
%TO.N,Net-(D13-Conn)*%
X96817700Y-56047500D03*
%TO.P,U2,4,VSS*%
%TO.N,GND2*%
X96817700Y-56547500D03*
%TO.P,U2,5,PF2*%
%TO.N,Net-(U2-PF2)*%
X96817700Y-57047500D03*
%TO.P,U2,6,PA0*%
%TO.N,Net-(U2-PA0)*%
X96817700Y-57547500D03*
D20*
%TO.P,U2,7,PA1*%
%TO.N,Net-(U2-PA1)*%
X96757700Y-58047500D03*
D21*
%TO.P,U2,8,PA2*%
%TO.N,Net-(D6-Conn)*%
X97255200Y-58545000D03*
D22*
%TO.P,U2,9,PA3*%
%TO.N,Net-(D7-Conn)*%
X97755200Y-58485000D03*
%TO.P,U2,10,PA4*%
%TO.N,unconnected-(U2-PA4-Pad10)*%
X98255200Y-58485000D03*
%TO.P,U2,11,PA5*%
%TO.N,Net-(U2-PA5)*%
X98755200Y-58485000D03*
%TO.P,U2,12,PA6*%
%TO.N,unconnected-(U2-PA6-Pad12)*%
X99255200Y-58485000D03*
%TO.P,U2,13,PA7*%
%TO.N,unconnected-(U2-PA7-Pad13)*%
X99755200Y-58485000D03*
D23*
%TO.P,U2,14,PB0*%
%TO.N,Net-(U2-PB0)*%
X100255200Y-58545000D03*
D24*
%TO.P,U2,15,PB1*%
%TO.N,unconnected-(U2-PB1-Pad15)*%
X100752700Y-58047500D03*
D19*
%TO.P,U2,16,PA8*%
%TO.N,unconnected-(U2-PA8-Pad16)*%
X100692700Y-57547500D03*
%TO.P,U2,17,PC6*%
%TO.N,unconnected-(U2-PC6-Pad17)*%
X100692700Y-57047500D03*
%TO.P,U2,18,PA11/PA9*%
%TO.N,unconnected-(U2-PA11{slash}PA9-Pad18)*%
X100692700Y-56547500D03*
%TO.P,U2,19,PA12/PA10*%
%TO.N,unconnected-(U2-PA12{slash}PA10-Pad19)*%
X100692700Y-56047500D03*
%TO.P,U2,20,PA13*%
%TO.N,Net-(D8-Conn)*%
X100692700Y-55547500D03*
D25*
%TO.P,U2,21,PA14*%
%TO.N,Net-(D9-Conn)*%
X100752700Y-55047500D03*
D26*
%TO.P,U2,22,PA15*%
%TO.N,Net-(D12-Conn)*%
X100255200Y-54550000D03*
D22*
%TO.P,U2,23,PB3*%
%TO.N,Net-(U2-PB3)*%
X99755200Y-54610000D03*
%TO.P,U2,24,PB4*%
%TO.N,Net-(U2-PB4)*%
X99255200Y-54610000D03*
%TO.P,U2,25,PB5*%
%TO.N,Net-(U2-PB5)*%
X98755200Y-54610000D03*
%TO.P,U2,26,PB6*%
%TO.N,unconnected-(U2-PB6-Pad26)*%
X98255200Y-54610000D03*
%TO.P,U2,27,PB7*%
%TO.N,unconnected-(U2-PB7-Pad27)*%
X97755200Y-54610000D03*
D27*
%TO.P,U2,28,PB8*%
%TO.N,unconnected-(U2-PB8-Pad28)*%
X97255200Y-54550000D03*
%TD*%
D10*
%TO.P,D20,1,Conn*%
%TO.N,GND2*%
X89712800Y-52019200D03*
%TD*%
D28*
%TO.P,U1,1,S*%
%TO.N,Net-(D4-K)*%
X68110100Y-62750700D03*
%TO.P,U1,2,S*%
X68110100Y-61480700D03*
%TO.P,U1,3,S*%
X68110100Y-60210700D03*
%TO.P,U1,4,G*%
%TO.N,Net-(D5-A)*%
X68110100Y-58940700D03*
%TO.P,U1,5,D*%
%TO.N,Net-(D3-Conn)*%
X62268100Y-58940700D03*
%TO.P,U1,6,D*%
X62268100Y-60210700D03*
%TO.P,U1,7,D*%
X62268100Y-61480700D03*
%TO.P,U1,8,D*%
X62268100Y-62750700D03*
%TD*%
D29*
%TO.P,D18,1,Conn*%
%TO.N,GND2*%
X103581200Y-58674000D03*
%TD*%
D30*
%TO.P,R2,1*%
%TO.N,Net-(D2-Conn)*%
X61835700Y-57251600D03*
%TO.P,R2,2*%
%TO.N,Net-(U2-PB4)*%
X63030700Y-57251600D03*
%TD*%
D31*
%TO.P,D5,1,K*%
%TO.N,Net-(D4-K)*%
X68415200Y-57238900D03*
%TO.P,D5,2,A*%
%TO.N,Net-(D5-A)*%
X67575200Y-57238900D03*
%TD*%
D32*
%TO.P,L1,1,1*%
%TO.N,Net-(D11-Conn)*%
X76432500Y-57454800D03*
%TO.P,L1,2,2*%
%TO.N,Net-(D4-K)*%
X70793700Y-57454800D03*
%TD*%
D17*
%TO.P,R12,1*%
%TO.N,Net-(C17-Pad2)*%
X91462000Y-61874400D03*
%TO.P,R12,2*%
%TO.N,Net-(C12-Pad2)*%
X90267000Y-61874400D03*
%TD*%
D30*
%TO.P,R8,1*%
%TO.N,GND2*%
X82525700Y-54339100D03*
%TO.P,R8,2*%
%TO.N,Net-(U2-PA0)*%
X83720700Y-54339100D03*
%TD*%
D33*
%TO.P,C17,1*%
%TO.N,Net-(U5-+)*%
X93421200Y-59732100D03*
%TO.P,C17,2*%
%TO.N,Net-(C17-Pad2)*%
X93421200Y-60867100D03*
%TD*%
D17*
%TO.P,R7,1*%
%TO.N,Net-(U2-PA0)*%
X83718400Y-53238400D03*
%TO.P,R7,2*%
%TO.N,Net-(D11-Conn)*%
X82523400Y-53238400D03*
%TD*%
D34*
%TO.P,C11,1*%
%TO.N,Net-(U4-SS)*%
X84903500Y-58928000D03*
%TO.P,C11,2*%
%TO.N,GND2*%
X86038500Y-58928000D03*
%TD*%
D33*
%TO.P,C21,1*%
%TO.N,Net-(D13-Conn)*%
X92223400Y-54356000D03*
%TO.P,C21,2*%
%TO.N,Net-(U4-FB)*%
X92223400Y-55491000D03*
%TD*%
D10*
%TO.P,D22,1,Conn*%
%TO.N,Net-(D13-Conn)*%
X88188800Y-52019200D03*
%TD*%
D16*
%TO.P,C15,1*%
%TO.N,Net-(U5-+)*%
X95758000Y-60430500D03*
%TO.P,C15,2*%
%TO.N,GND2*%
X95758000Y-62505500D03*
%TD*%
D35*
%TO.P,R9,1*%
%TO.N,Net-(LED1-Pad2)*%
X101981000Y-56628700D03*
%TO.P,R9,2*%
%TO.N,Net-(U2-PB0)*%
X101981000Y-57823700D03*
%TD*%
D11*
%TO.P,D1,1,Conn*%
%TO.N,Net-(D1-Conn)*%
X55321200Y-60350400D03*
%TD*%
D36*
%TO.P,C3,1*%
%TO.N,Net-(U2-PA5)*%
X56446900Y-57277000D03*
%TO.P,C3,2*%
%TO.N,GND2*%
X55311900Y-57277000D03*
%TD*%
D10*
%TO.P,D25,1,Conn*%
%TO.N,Net-(D12-Conn)*%
X88849200Y-63855600D03*
%TD*%
D37*
%TO.P,C6,1*%
%TO.N,Net-(U2-PF2)*%
X95402400Y-57615900D03*
%TO.P,C6,2*%
%TO.N,GND2*%
X95402400Y-56480900D03*
%TD*%
%TO.P,C7,1*%
%TO.N,Net-(D13-Conn)*%
X95402400Y-55473600D03*
%TO.P,C7,2*%
%TO.N,GND2*%
X95402400Y-54338600D03*
%TD*%
D10*
%TO.P,D21,1,Conn*%
%TO.N,GND2*%
X91897200Y-63855600D03*
%TD*%
D34*
%TO.P,C13,1*%
%TO.N,Net-(U3-VCC)*%
X87909400Y-61925200D03*
%TO.P,C13,2*%
%TO.N,GND2*%
X89044400Y-61925200D03*
%TD*%
D10*
%TO.P,D10,1,Conn*%
%TO.N,GND2*%
X97993200Y-51917600D03*
%TD*%
%TO.P,D7,1,Conn*%
%TO.N,Net-(D7-Conn)*%
X95351600Y-51816000D03*
%TD*%
D30*
%TO.P,R4,1*%
%TO.N,GND2*%
X65314900Y-57238900D03*
%TO.P,R4,2*%
%TO.N,Net-(D5-A)*%
X66509900Y-57238900D03*
%TD*%
D10*
%TO.P,D24,1,Conn*%
%TO.N,Net-(D12-Conn)*%
X86664800Y-52019200D03*
%TD*%
D13*
%TO.P,C12,1*%
%TO.N,Net-(U3-BST)*%
X87994300Y-60654100D03*
%TO.P,C12,2*%
%TO.N,Net-(C12-Pad2)*%
X87994300Y-58929100D03*
%TD*%
D29*
%TO.P,D17,1,Conn*%
%TO.N,Net-(D16-Conn)*%
X103581200Y-57048400D03*
%TD*%
D38*
%TO.P,C4,1*%
%TO.N,Net-(D4-K)*%
X70569000Y-63093600D03*
%TO.P,C4,2*%
%TO.N,GND2*%
X72644000Y-63093600D03*
%TD*%
D17*
%TO.P,R5,1*%
%TO.N,Net-(U2-PA1)*%
X91986700Y-53187600D03*
%TO.P,R5,2*%
%TO.N,Net-(D13-Conn)*%
X90791700Y-53187600D03*
%TD*%
D39*
%TO.P,U4,1,AGND*%
%TO.N,GND2*%
X80112601Y-55817600D03*
%TO.P,U4,2,PGND*%
X80112601Y-56317599D03*
%TO.P,U4,3,VIN*%
%TO.N,Net-(D11-Conn)*%
X80112601Y-56817600D03*
%TO.P,U4,4,EN_UVLO*%
X80112601Y-57317600D03*
%TO.P,U4,5,RON*%
%TO.N,Net-(U4-RON)*%
X80112601Y-57817598D03*
%TO.P,U4,6,SS*%
%TO.N,Net-(U4-SS)*%
X80112601Y-58317600D03*
%TO.P,U4,7,FPWM*%
%TO.N,unconnected-(U4-FPWM-Pad7)*%
X83912599Y-58317600D03*
%TO.P,U4,8,FB*%
%TO.N,Net-(U4-FB)*%
X83912599Y-57817598D03*
%TO.P,U4,9,VCC*%
%TO.N,Net-(U4-VCC)*%
X83912599Y-57317600D03*
%TO.P,U4,10,BST*%
%TO.N,Net-(U4-BST)*%
X83912599Y-56817598D03*
%TO.P,U4,11,SW*%
%TO.N,Net-(C14-Pad2)*%
X83912599Y-56317599D03*
%TO.P,U4,12,SW*%
X83912599Y-55817600D03*
D40*
%TO.P,U4,13,PAD*%
%TO.N,GND2*%
X82012600Y-57067600D03*
D41*
%TO.P,U4,V*%
X81012599Y-57067600D03*
X82012600Y-55867600D03*
X82012600Y-57067600D03*
X82012600Y-58267600D03*
X83012601Y-57067600D03*
%TD*%
D10*
%TO.P,D23,1,Conn*%
%TO.N,Net-(D13-Conn)*%
X90373200Y-63855600D03*
%TD*%
%TO.P,D13,1,Conn*%
%TO.N,Net-(D13-Conn)*%
X61061600Y-52324000D03*
%TD*%
D42*
%TO.P,C2,1*%
%TO.N,Net-(D3-Conn)*%
X58421950Y-60805650D03*
%TO.P,C2,2*%
%TO.N,GND2*%
X58421950Y-58730650D03*
%TD*%
D29*
%TO.P,D16,1,Conn*%
%TO.N,Net-(D16-Conn)*%
X58724800Y-62788800D03*
%TD*%
D10*
%TO.P,D11,1,Conn*%
%TO.N,Net-(D11-Conn)*%
X64109600Y-52324000D03*
%TD*%
D34*
%TO.P,C16,1*%
%TO.N,Net-(U4-VCC)*%
X85182900Y-57658000D03*
%TO.P,C16,2*%
%TO.N,GND2*%
X86317900Y-57658000D03*
%TD*%
D16*
%TO.P,C1,1*%
%TO.N,Net-(D2-Conn)*%
X58421950Y-54869850D03*
%TO.P,C1,2*%
%TO.N,GND2*%
X58421950Y-56944850D03*
%TD*%
D10*
%TO.P,D8,1,Conn*%
%TO.N,Net-(D8-Conn)*%
X101041200Y-51917600D03*
%TD*%
D17*
%TO.P,R13,1*%
%TO.N,Net-(R13-Pad1)*%
X94323500Y-62941200D03*
%TO.P,R13,2*%
%TO.N,Net-(U3-FB)*%
X93128500Y-62941200D03*
%TD*%
D14*
%TO.P,D28,1,Conn*%
%TO.N,GND2*%
X55626000Y-52324000D03*
%TD*%
D43*
%TO.P,D4,1,K*%
%TO.N,Net-(D4-K)*%
X67843100Y-54952900D03*
%TO.P,D4,2,A*%
%TO.N,Net-(D2-Conn)*%
X63043100Y-54952900D03*
%TD*%
D44*
%TO.P,U5,1*%
%TO.N,Net-(R13-Pad1)*%
X100960000Y-60259800D03*
%TO.P,U5,2,GND*%
%TO.N,GND2*%
X100010000Y-60259800D03*
%TO.P,U5,3,+*%
%TO.N,Net-(U5-+)*%
X99060000Y-60259800D03*
%TO.P,U5,4,-*%
%TO.N,Net-(D15-Conn)*%
X99060000Y-62534800D03*
%TO.P,U5,5,V+*%
%TO.N,Net-(D13-Conn)*%
X100960000Y-62534800D03*
%TD*%
D39*
%TO.P,U3,1,AGND*%
%TO.N,GND2*%
X82639901Y-60135600D03*
%TO.P,U3,2,PGND*%
X82639901Y-60635599D03*
%TO.P,U3,3,VIN*%
%TO.N,Net-(D11-Conn)*%
X82639901Y-61135600D03*
%TO.P,U3,4,EN_UVLO*%
%TO.N,Net-(U2-PB3)*%
X82639901Y-61635600D03*
%TO.P,U3,5,RON*%
%TO.N,Net-(U3-RON)*%
X82639901Y-62135598D03*
%TO.P,U3,6,SS*%
%TO.N,Net-(U3-SS)*%
X82639901Y-62635600D03*
%TO.P,U3,7,FPWM*%
%TO.N,unconnected-(U3-FPWM-Pad7)*%
X86439899Y-62635600D03*
%TO.P,U3,8,FB*%
%TO.N,Net-(U3-FB)*%
X86439899Y-62135598D03*
%TO.P,U3,9,VCC*%
%TO.N,Net-(U3-VCC)*%
X86439899Y-61635600D03*
%TO.P,U3,10,BST*%
%TO.N,Net-(U3-BST)*%
X86439899Y-61135598D03*
%TO.P,U3,11,SW*%
%TO.N,Net-(C12-Pad2)*%
X86439899Y-60635599D03*
%TO.P,U3,12,SW*%
X86439899Y-60135600D03*
D40*
%TO.P,U3,13,PAD*%
%TO.N,GND2*%
X84539900Y-61385600D03*
D41*
%TO.P,U3,V*%
X83539899Y-61385600D03*
X84539900Y-60185600D03*
X84539900Y-61385600D03*
X84539900Y-62585600D03*
X85539901Y-61385600D03*
%TD*%
D45*
%TO.P,R16,1*%
%TO.N,Net-(D15-Conn)*%
X97536000Y-62634500D03*
%TO.P,R16,2*%
%TO.N,Net-(U5-+)*%
X97536000Y-60809500D03*
%TD*%
D10*
%TO.P,D9,1,Conn*%
%TO.N,Net-(D9-Conn)*%
X99517200Y-51917600D03*
%TD*%
D46*
%TO.P,LED1,1*%
%TO.N,GND2*%
X102362000Y-54717950D03*
%TO.P,LED1,2*%
%TO.N,Net-(LED1-Pad2)*%
X102362000Y-55873650D03*
%TD*%
D17*
%TO.P,R15,1*%
%TO.N,GND2*%
X92160500Y-56845200D03*
%TO.P,R15,2*%
%TO.N,Net-(U4-FB)*%
X90965500Y-56845200D03*
%TD*%
D12*
%TO.P,C8,1*%
%TO.N,Net-(D11-Conn)*%
X79689600Y-60045600D03*
%TO.P,C8,2*%
%TO.N,GND2*%
X81414600Y-60045600D03*
%TD*%
D17*
%TO.P,R6,1*%
%TO.N,GND2*%
X94780700Y-53187600D03*
%TO.P,R6,2*%
%TO.N,Net-(U2-PA1)*%
X93585700Y-53187600D03*
%TD*%
D34*
%TO.P,C20,1*%
%TO.N,Net-(D13-Conn)*%
X99813300Y-63906400D03*
%TO.P,C20,2*%
%TO.N,GND2*%
X100948300Y-63906400D03*
%TD*%
D15*
%TO.P,R11,1*%
%TO.N,Net-(U4-RON)*%
X79095600Y-58216800D03*
%TO.P,R11,2*%
%TO.N,Net-(D11-Conn)*%
X79095600Y-57021800D03*
%TD*%
D10*
%TO.P,D14,1,Conn*%
%TO.N,GND2*%
X59563000Y-52349400D03*
%TD*%
%TO.P,D6,1,Conn*%
%TO.N,Net-(D6-Conn)*%
X93827600Y-51816000D03*
%TD*%
D14*
%TO.P,D31,1,Conn*%
%TO.N,GND2*%
X104394000Y-63246000D03*
%TD*%
D47*
%TO.P,C5,1*%
%TO.N,Net-(D11-Conn)*%
X76962000Y-63093600D03*
%TO.P,C5,2*%
%TO.N,GND2*%
X74887000Y-63093600D03*
%TD*%
D48*
%TO.P,L2,1,1*%
%TO.N,Net-(U5-+)*%
X91782900Y-59537600D03*
%TO.P,L2,2,2*%
%TO.N,Net-(C12-Pad2)*%
X89877900Y-59537600D03*
%TD*%
D29*
%TO.P,D15,1,Conn*%
%TO.N,Net-(D15-Conn)*%
X60502800Y-62788800D03*
%TD*%
D15*
%TO.P,R14,1*%
%TO.N,Net-(U4-FB)*%
X91105800Y-55524400D03*
%TO.P,R14,2*%
%TO.N,Net-(D13-Conn)*%
X91105800Y-54329400D03*
%TD*%
D36*
%TO.P,C9,1*%
%TO.N,Net-(U3-SS)*%
X80010000Y-63144400D03*
%TO.P,C9,2*%
%TO.N,GND2*%
X78875000Y-63144400D03*
%TD*%
D34*
%TO.P,C18,1*%
%TO.N,Net-(C17-Pad2)*%
X92583000Y-61874400D03*
%TO.P,C18,2*%
%TO.N,Net-(U3-FB)*%
X93718000Y-61874400D03*
%TD*%
D10*
%TO.P,D26,1,Conn*%
%TO.N,Net-(D11-Conn)*%
X85140800Y-52019200D03*
%TD*%
D48*
%TO.P,L3,1,1*%
%TO.N,Net-(D13-Conn)*%
X89090500Y-54813200D03*
%TO.P,L3,2,2*%
%TO.N,Net-(C14-Pad2)*%
X87185500Y-54813200D03*
%TD*%
D17*
%TO.P,R10,1*%
%TO.N,Net-(U3-RON)*%
X79997900Y-62026800D03*
%TO.P,R10,2*%
%TO.N,Net-(D11-Conn)*%
X78802900Y-62026800D03*
%TD*%
D49*
%TO.N,Net-(U2-PA5)*%
X98971353Y-57486101D03*
X56426100Y-57873900D03*
%TO.N,GND2*%
X99629577Y-61401247D03*
X94192352Y-56031975D03*
X99656259Y-56637226D03*
X73609200Y-55930800D03*
X94661803Y-59513546D03*
X73609200Y-59080400D03*
X95910400Y-63385100D03*
X102362000Y-54203600D03*
X73609200Y-60096400D03*
X79095600Y-55626000D03*
X73660000Y-54762400D03*
X86614000Y-57150000D03*
X77384701Y-53457901D03*
X73609200Y-58013600D03*
X67056000Y-59436000D03*
X104241600Y-55422800D03*
X73609200Y-61163200D03*
X65278000Y-55118000D03*
X88290400Y-57759600D03*
X75666600Y-52247800D03*
%TO.N,Net-(D7-Conn)*%
X97924745Y-59514700D03*
%TO.N,Net-(D11-Conn)*%
X77622400Y-63296800D03*
%TO.N,Net-(D13-Conn)*%
X100888800Y-62687200D03*
%TO.N,Net-(D15-Conn)*%
X97536000Y-63385100D03*
%TO.N,Net-(D6-Conn)*%
X96925243Y-59514700D03*
%TO.N,Net-(U2-PB5)*%
X60452000Y-56997600D03*
X95855301Y-53315500D03*
%TO.N,Net-(U2-PB4)*%
X96520000Y-54254400D03*
X63601600Y-57454343D03*
X99110800Y-55778400D03*
%TO.N,Net-(U2-PA1)*%
X92494408Y-53397971D03*
X93421200Y-58115200D03*
%TO.N,Net-(U2-PA0)*%
X94437200Y-58064400D03*
X83820000Y-54762400D03*
%TO.N,Net-(D12-Conn)*%
X100279200Y-53289200D03*
%TO.N,Net-(U2-PB3)*%
X99161600Y-53492400D03*
X81229200Y-61925200D03*
X81229200Y-61925200D03*
%TD*%
D50*
%TO.N,Net-(U2-PA5)*%
X98755200Y-57702254D02*
X98755200Y-58485000D01*
X56446900Y-57853100D02*
X56426100Y-57873900D01*
X56446900Y-57894700D02*
X56446900Y-58364600D01*
X98971353Y-57486101D02*
X98755200Y-57702254D01*
X56426100Y-57873900D02*
X56446900Y-57894700D01*
X56446900Y-58364600D02*
X56476900Y-58394600D01*
X56446900Y-57277000D02*
X56446900Y-57853100D01*
D51*
%TO.N,GND2*%
X83199900Y-60045600D02*
X84044926Y-60890626D01*
X81414600Y-60045600D02*
X83199900Y-60045600D01*
D50*
X80112601Y-56317599D02*
X80112601Y-55817600D01*
X82639901Y-60135600D02*
X82639901Y-60610600D01*
%TO.N,Net-(D7-Conn)*%
X97924745Y-59514700D02*
X97755200Y-59345155D01*
X97755200Y-59345155D02*
X97755200Y-58485000D01*
%TO.N,Net-(U2-PF2)*%
X96817700Y-57047500D02*
X96072400Y-57047500D01*
X96072400Y-57047500D02*
X95402400Y-57717500D01*
D52*
%TO.N,Net-(D4-K)*%
X68110100Y-60210700D02*
X68110100Y-62750700D01*
D50*
X68453300Y-57251600D02*
X70590500Y-57251600D01*
D52*
X70793700Y-59035100D02*
X70793700Y-57454800D01*
X69618100Y-60210700D02*
X70793700Y-59035100D01*
D50*
X70793700Y-59000300D02*
X70793700Y-57454800D01*
D52*
X67843100Y-54952900D02*
X69291200Y-54952900D01*
X68110100Y-60210700D02*
X69618100Y-60210700D01*
D50*
X69291200Y-54952900D02*
X69291200Y-54762400D01*
X70590500Y-57251600D02*
X70793700Y-57454800D01*
D52*
X70569000Y-57679500D02*
X70793700Y-57454800D01*
X70569000Y-63093600D02*
X70569000Y-57679500D01*
D50*
%TO.N,Net-(D5-A)*%
X68110100Y-58839100D02*
X66509900Y-57238900D01*
X67575200Y-57238900D02*
X66509900Y-57238900D01*
X68110100Y-58940700D02*
X68110100Y-58839100D01*
%TO.N,Net-(U3-BST)*%
X86439899Y-61135598D02*
X87309602Y-61135598D01*
X87309602Y-61135598D02*
X87994300Y-60450900D01*
%TO.N,Net-(D2-Conn)*%
X61429900Y-56603900D02*
X60096400Y-55270400D01*
D52*
X58445400Y-54893300D02*
X62907300Y-54893300D01*
D50*
X62869200Y-55541000D02*
X63043100Y-55714900D01*
X58421950Y-54869850D02*
X58445400Y-54893300D01*
X61429900Y-56603900D02*
X61429900Y-56845800D01*
X61429900Y-56845800D02*
X61835700Y-57251600D01*
D51*
%TO.N,Net-(D1-Conn)*%
X55321200Y-58433900D02*
X55281900Y-58394600D01*
X55321200Y-60350400D02*
X55321200Y-58433900D01*
D50*
%TO.N,Net-(U3-SS)*%
X82639901Y-62635600D02*
X82246000Y-62635600D01*
X82246000Y-62635600D02*
X81737200Y-63144400D01*
X81737200Y-63144400D02*
X80010000Y-63144400D01*
%TO.N,Net-(U4-SS)*%
X84903500Y-58928000D02*
X80348002Y-58928000D01*
X80112601Y-58692599D02*
X80112601Y-58317600D01*
X80348002Y-58928000D02*
X80112601Y-58692599D01*
%TO.N,Net-(U3-VCC)*%
X87595900Y-61976000D02*
X87255500Y-61635600D01*
X87255500Y-61635600D02*
X86439899Y-61635600D01*
D52*
%TO.N,Net-(D3-Conn)*%
X58474700Y-60858400D02*
X58421950Y-60805650D01*
X59893200Y-60858400D02*
X58474700Y-60858400D01*
D50*
X59244900Y-60768900D02*
X59232800Y-60756800D01*
X59232800Y-60756800D02*
X58470800Y-60756800D01*
D53*
X62268100Y-58940700D02*
X62268100Y-62750700D01*
D52*
X61936400Y-60350400D02*
X62076100Y-60210700D01*
X60401200Y-60350400D02*
X59893200Y-60858400D01*
D51*
X60401200Y-58763500D02*
X60401200Y-60350400D01*
D52*
X60401200Y-60350400D02*
X61936400Y-60350400D01*
D50*
X58421950Y-60805650D02*
X58900650Y-60326950D01*
%TO.N,Net-(U4-BST)*%
X84731502Y-56817598D02*
X83912599Y-56817598D01*
X85314600Y-56234500D02*
X84731502Y-56817598D01*
%TO.N,Net-(D8-Conn)*%
X101041200Y-51917600D02*
X101600000Y-52476400D01*
X101600000Y-52476400D02*
X101600000Y-55135959D01*
X101188459Y-55547500D02*
X100692700Y-55547500D01*
X101600000Y-55135959D02*
X101188459Y-55547500D01*
%TO.N,Net-(D9-Conn)*%
X99974400Y-51917600D02*
X99517200Y-51917600D01*
X101150000Y-54650200D02*
X101150000Y-53093200D01*
X100266200Y-52238616D02*
X100266200Y-52209400D01*
X100752700Y-55047500D02*
X101150000Y-54650200D01*
X101150000Y-53093200D02*
X100749400Y-52692600D01*
X100749400Y-52692600D02*
X100720184Y-52692600D01*
X100266200Y-52209400D02*
X99974400Y-51917600D01*
X100720184Y-52692600D02*
X100266200Y-52238616D01*
%TO.N,Net-(D11-Conn)*%
X80112601Y-57317600D02*
X80112601Y-56817600D01*
D51*
X79689600Y-60045600D02*
X78802900Y-60932300D01*
D52*
X80518000Y-52019200D02*
X78333600Y-54203600D01*
D50*
X80112601Y-57048400D02*
X79122200Y-57048400D01*
X76865500Y-57021800D02*
X76432500Y-57454800D01*
X80112601Y-56817600D02*
X80112601Y-57048400D01*
X79122200Y-57048400D02*
X79095600Y-57021800D01*
X76962000Y-63093600D02*
X77774800Y-63093600D01*
D52*
X76962000Y-61010800D02*
X76962000Y-61214000D01*
X85140800Y-52019200D02*
X82397600Y-52019200D01*
X76432500Y-55638700D02*
X76432500Y-57454800D01*
D51*
X77040500Y-60932300D02*
X76962000Y-61010800D01*
X78802900Y-60932300D02*
X78802900Y-61214000D01*
X78802900Y-61214000D02*
X78802900Y-62026800D01*
X78881300Y-61135600D02*
X78802900Y-61214000D01*
D52*
X78333600Y-54254400D02*
X76432500Y-56155500D01*
X78333600Y-54203600D02*
X78333600Y-54254400D01*
D51*
X82523400Y-52145000D02*
X82397600Y-52019200D01*
D54*
X82639901Y-61135600D02*
X78881300Y-61135600D01*
D52*
X79231300Y-54254400D02*
X78333600Y-54254400D01*
D51*
X82523400Y-53238400D02*
X82523400Y-52145000D01*
X78802900Y-60932300D02*
X77040500Y-60932300D01*
D52*
X73117800Y-52324000D02*
X76432500Y-55638700D01*
X76962000Y-61214000D02*
X76962000Y-63093600D01*
X76962000Y-57984300D02*
X76962000Y-61010800D01*
X82397600Y-52019200D02*
X80518000Y-52019200D01*
X64109600Y-52324000D02*
X73117800Y-52324000D01*
D50*
X76432500Y-57454800D02*
X76962000Y-57984300D01*
X79095600Y-57021800D02*
X76865500Y-57021800D01*
X78841600Y-62026800D02*
X78841600Y-61620400D01*
D52*
X76432500Y-56155500D02*
X76432500Y-57454800D01*
D50*
X75820200Y-57021800D02*
X79095600Y-57021800D01*
%TO.N,Net-(C17-Pad2)*%
X93421200Y-61044900D02*
X93421200Y-60867100D01*
X92591700Y-61874400D02*
X93421200Y-61044900D01*
X92252800Y-61874400D02*
X91462000Y-61874400D01*
X92583000Y-61874400D02*
X92591700Y-61874400D01*
%TO.N,Net-(D13-Conn)*%
X103195000Y-53350895D02*
X103195000Y-56267873D01*
X89213500Y-55219600D02*
X89213500Y-55193600D01*
X89213500Y-55193600D02*
X90000300Y-54406800D01*
X90000300Y-54406800D02*
X93587200Y-54406800D01*
X89167000Y-51041000D02*
X101260616Y-51041000D01*
X93587200Y-54406800D02*
X93849000Y-54668600D01*
X102713105Y-52493489D02*
X102713105Y-52869000D01*
X88188800Y-52019200D02*
X89167000Y-51041000D01*
X88188800Y-52019200D02*
X89308400Y-53138800D01*
X89739178Y-53138800D02*
X89812400Y-53212022D01*
X102713105Y-52869000D02*
X103195000Y-53350895D01*
X89812400Y-54091300D02*
X89090500Y-54813200D01*
X90791700Y-53187600D02*
X90791700Y-54015300D01*
X89308400Y-53138800D02*
X89739178Y-53138800D01*
X101260616Y-51041000D02*
X102713105Y-52493489D01*
X95402400Y-55473600D02*
X94654000Y-55473600D01*
X103195000Y-56267873D02*
X102600600Y-56862273D01*
X94654000Y-55473600D02*
X93849000Y-54668600D01*
X89812400Y-53212022D02*
X89812400Y-54091300D01*
X96817700Y-56047500D02*
X95976300Y-56047500D01*
X90791700Y-54015300D02*
X91105800Y-54329400D01*
X101142800Y-62534800D02*
X100960000Y-62534800D01*
X95976300Y-56047500D02*
X95402400Y-55473600D01*
X102600600Y-61077000D02*
X101142800Y-62534800D01*
X102600600Y-56862273D02*
X102600600Y-61077000D01*
%TO.N,Net-(U4-VCC)*%
X85067100Y-57317600D02*
X83912599Y-57317600D01*
X85407500Y-57658000D02*
X85067100Y-57317600D01*
D55*
%TO.N,Net-(D15-Conn)*%
X97635700Y-62534800D02*
X99060000Y-62534800D01*
D50*
X97536000Y-62778200D02*
X97341500Y-62583700D01*
X97536000Y-62634500D02*
X97635700Y-62534800D01*
X97536000Y-63385100D02*
X97536000Y-62778200D01*
X97536000Y-63385100D02*
X97536000Y-62634500D01*
%TO.N,Net-(U4-FB)*%
X92190000Y-55524400D02*
X92223400Y-55491000D01*
X84490400Y-57972800D02*
X84490400Y-58011823D01*
X87010400Y-57871200D02*
X87847000Y-57034600D01*
X91105800Y-55524400D02*
X91105800Y-56704900D01*
X87010400Y-58011823D02*
X87010400Y-57871200D01*
X84771577Y-58293000D02*
X86729223Y-58293000D01*
X86729223Y-58293000D02*
X87010400Y-58011823D01*
X83912599Y-57817598D02*
X84335198Y-57817598D01*
X87847000Y-57034600D02*
X90776100Y-57034600D01*
X91105800Y-55524400D02*
X92190000Y-55524400D01*
X84335198Y-57817598D02*
X84490400Y-57972800D01*
X90776100Y-57034600D02*
X90965500Y-56845200D01*
X91105800Y-56704900D02*
X90965500Y-56845200D01*
X84490400Y-58011823D02*
X84771577Y-58293000D01*
%TO.N,Net-(D6-Conn)*%
X97231200Y-59208743D02*
X97231200Y-58569000D01*
X97231200Y-58569000D02*
X97255200Y-58545000D01*
X96925243Y-59514700D02*
X97231200Y-59208743D01*
%TO.N,Net-(U2-PB5)*%
X97946208Y-53315500D02*
X98755200Y-54124492D01*
X98755200Y-54124492D02*
X98755200Y-54610000D01*
X95855301Y-53315500D02*
X97946208Y-53315500D01*
X95855301Y-53284901D02*
X95808800Y-53238400D01*
X95855301Y-53315500D02*
X95855301Y-53284901D01*
%TO.N,Net-(U2-PB4)*%
X99255200Y-54610000D02*
X99255200Y-55634000D01*
X99255200Y-55634000D02*
X99110800Y-55778400D01*
%TO.N,Net-(U3-RON)*%
X79997900Y-62085977D02*
X79997900Y-62026800D01*
X82109606Y-62135598D02*
X81550804Y-62694400D01*
X81550804Y-62694400D02*
X80606323Y-62694400D01*
X80606323Y-62694400D02*
X79997900Y-62085977D01*
X82639901Y-62135598D02*
X82109606Y-62135598D01*
%TO.N,Net-(U3-FB)*%
X86439899Y-62135598D02*
X87073475Y-62135598D01*
X87498077Y-62560200D02*
X93032200Y-62560200D01*
X87073475Y-62135598D02*
X87498077Y-62560200D01*
X93032200Y-62560200D02*
X93718000Y-61874400D01*
%TO.N,Net-(U2-PA1)*%
X96757700Y-58047500D02*
X96757700Y-58056696D01*
X94095400Y-58789400D02*
X93421200Y-58115200D01*
X94751305Y-58775600D02*
X94737505Y-58789400D01*
X93585700Y-53187600D02*
X91986700Y-53187600D01*
X96038796Y-58775600D02*
X94751305Y-58775600D01*
X92284037Y-53187600D02*
X91986700Y-53187600D01*
X94737505Y-58789400D02*
X94095400Y-58789400D01*
X92494408Y-53397971D02*
X92284037Y-53187600D01*
X96757700Y-58056696D02*
X96038796Y-58775600D01*
%TO.N,Net-(U2-PA0)*%
X83720700Y-54339100D02*
X83720700Y-53797200D01*
X96321941Y-57547500D02*
X96817700Y-57547500D01*
X83820000Y-53896500D02*
X83720700Y-53797200D01*
X94681200Y-58308400D02*
X95869600Y-58308400D01*
X83720700Y-53240700D02*
X83718400Y-53238400D01*
X83820000Y-54762400D02*
X83820000Y-53896500D01*
X94437200Y-58064400D02*
X94681200Y-58308400D01*
X83720700Y-53797200D02*
X83720700Y-53240700D01*
X96055200Y-58122800D02*
X96055200Y-57814241D01*
X95869600Y-58308400D02*
X96055200Y-58122800D01*
X96055200Y-57814241D02*
X96321941Y-57547500D01*
%TO.N,Net-(U2-PB0)*%
X100255200Y-58545000D02*
X101190959Y-58545000D01*
X101190959Y-58545000D02*
X101955600Y-57780359D01*
%TO.N,Net-(U4-RON)*%
X79095600Y-58216800D02*
X79494802Y-57817598D01*
X79494802Y-57817598D02*
X80112601Y-57817598D01*
%TO.N,Net-(C12-Pad2)*%
X86439899Y-60135600D02*
X86584600Y-60135600D01*
X90243222Y-61874400D02*
X90267000Y-61874400D01*
X89975500Y-59906922D02*
X89253600Y-60628822D01*
X89975500Y-59283600D02*
X89975500Y-59906922D01*
X89253600Y-60628822D02*
X89253600Y-60884778D01*
D51*
X87994300Y-58725900D02*
X89417800Y-58725900D01*
D54*
X86439899Y-60635599D02*
X86439899Y-60135600D01*
D50*
X89253600Y-60884778D02*
X90243222Y-61874400D01*
X89417800Y-58725900D02*
X89975500Y-59283600D01*
D51*
X86584600Y-60135600D02*
X87994300Y-58725900D01*
D50*
%TO.N,Net-(C14-Pad2)*%
X86024700Y-55219600D02*
X85314600Y-54509500D01*
X87308500Y-55219600D02*
X86024700Y-55219600D01*
X83912599Y-55911501D02*
X85314600Y-54509500D01*
X83912599Y-56317599D02*
X83912599Y-55911501D01*
D51*
%TO.N,Net-(U5-+)*%
X93624400Y-59740800D02*
X94247800Y-60364200D01*
D50*
X91880500Y-59283600D02*
X92337700Y-59740800D01*
D51*
X92337700Y-59740800D02*
X93624400Y-59740800D01*
X94247800Y-60364200D02*
X95009800Y-60364200D01*
D50*
X98955600Y-60364200D02*
X99060000Y-60259800D01*
D51*
X95009800Y-60364200D02*
X98955600Y-60364200D01*
D50*
%TO.N,Net-(LED1-Pad2)*%
X101981000Y-56172100D02*
X102362000Y-55791100D01*
X101981000Y-56634450D02*
X101981000Y-56172100D01*
X101803200Y-56812250D02*
X101981000Y-56634450D01*
%TO.N,Net-(D12-Conn)*%
X100279200Y-53289200D02*
X100255200Y-53313200D01*
X100255200Y-53313200D02*
X100255200Y-54550000D01*
%TO.N,Net-(R13-Pad1)*%
X99679600Y-63603377D02*
X99960777Y-63322200D01*
X99974400Y-63322200D02*
X99974400Y-62128400D01*
X95365200Y-64109600D02*
X99679600Y-64109600D01*
X94196800Y-62941200D02*
X95365200Y-64109600D01*
X99679600Y-64109600D02*
X99679600Y-63603377D01*
X99974400Y-62128400D02*
X100948300Y-61154500D01*
X99960777Y-63322200D02*
X99974400Y-63322200D01*
X100948300Y-61154500D02*
X100948300Y-60206700D01*
%TO.N,Net-(U2-PB3)*%
X81229200Y-61925200D02*
X81229200Y-62026800D01*
X99161600Y-53492400D02*
X99755200Y-54086000D01*
X82639901Y-61635600D02*
X81620400Y-61635600D01*
X81330800Y-61925200D02*
X81229200Y-61925200D01*
X81620400Y-61635600D02*
X81330800Y-61925200D01*
X81229200Y-62026800D02*
X81229200Y-62026800D01*
X99755200Y-54086000D02*
X99755200Y-54610000D01*
%TD*%
%TA.AperFunction,Conductor*%
%TO.N,GND2*%
G36*
X80359958Y-51066185D02*
G01*
X80405713Y-51118989D01*
X80415657Y-51188147D01*
X80386632Y-51251703D01*
X80335328Y-51287022D01*
X80274503Y-51309160D01*
X80271563Y-51310230D01*
X80198666Y-51334386D01*
X80198664Y-51334386D01*
X80198661Y-51334388D01*
X80192122Y-51337437D01*
X80192097Y-51337385D01*
X80185308Y-51340671D01*
X80185334Y-51340722D01*
X80178884Y-51343961D01*
X80114716Y-51386164D01*
X80049347Y-51426485D01*
X80043677Y-51430969D01*
X80043641Y-51430923D01*
X80037798Y-51435684D01*
X80037835Y-51435728D01*
X80032310Y-51440364D01*
X80032304Y-51440369D01*
X80032304Y-51440370D01*
X79986433Y-51488989D01*
X79979614Y-51496217D01*
X77847958Y-53627872D01*
X77834329Y-53639651D01*
X77815068Y-53653990D01*
X77781498Y-53693997D01*
X77777853Y-53697976D01*
X77772009Y-53703822D01*
X77751659Y-53729559D01*
X77702295Y-53788389D01*
X77698329Y-53794419D01*
X77698282Y-53794388D01*
X77694232Y-53800744D01*
X77694281Y-53800775D01*
X77690488Y-53806924D01*
X77679398Y-53830707D01*
X77633225Y-53883145D01*
X77567017Y-53902300D01*
X75808829Y-53902300D01*
X75741790Y-53882615D01*
X75721148Y-53865981D01*
X74714330Y-52859163D01*
X73693529Y-51838361D01*
X73681749Y-51824730D01*
X73672129Y-51811809D01*
X73667412Y-51805472D01*
X73663857Y-51802489D01*
X73627387Y-51771886D01*
X73623412Y-51768244D01*
X73620490Y-51765322D01*
X73617580Y-51762411D01*
X73591840Y-51742059D01*
X73538669Y-51697443D01*
X73533014Y-51692698D01*
X73533013Y-51692697D01*
X73533009Y-51692694D01*
X73526980Y-51688729D01*
X73527012Y-51688680D01*
X73520653Y-51684628D01*
X73520622Y-51684679D01*
X73514480Y-51680891D01*
X73514478Y-51680890D01*
X73514477Y-51680889D01*
X73469175Y-51659764D01*
X73444858Y-51648424D01*
X73408331Y-51630080D01*
X73376233Y-51613960D01*
X73376231Y-51613959D01*
X73376230Y-51613959D01*
X73369445Y-51611489D01*
X73369465Y-51611433D01*
X73362349Y-51608959D01*
X73362331Y-51609015D01*
X73355471Y-51606742D01*
X73327641Y-51600996D01*
X73280234Y-51591207D01*
X73231272Y-51579603D01*
X73205519Y-51573499D01*
X73198347Y-51572661D01*
X73198353Y-51572601D01*
X73190855Y-51571835D01*
X73190850Y-51571895D01*
X73183660Y-51571265D01*
X73106883Y-51573500D01*
X64065891Y-51573500D01*
X63961454Y-51585707D01*
X63935343Y-51588759D01*
X63935340Y-51588760D01*
X63770484Y-51648762D01*
X63770480Y-51648764D01*
X63623906Y-51745167D01*
X63623905Y-51745168D01*
X63503510Y-51872778D01*
X63428649Y-52002441D01*
X63378082Y-52050657D01*
X63309475Y-52063879D01*
X63244610Y-52037911D01*
X63214845Y-52002128D01*
X63214679Y-52002243D01*
X63213403Y-52000394D01*
X63211462Y-51998061D01*
X63210420Y-51996075D01*
X63210418Y-51996070D01*
X63202686Y-51984869D01*
X63160279Y-51923432D01*
X63113783Y-51856071D01*
X62992620Y-51748730D01*
X62986449Y-51743263D01*
X62835826Y-51664210D01*
X62670656Y-51623500D01*
X62500544Y-51623500D01*
X62335373Y-51664210D01*
X62184750Y-51743263D01*
X62057416Y-51856072D01*
X61960782Y-51996068D01*
X61960782Y-51996069D01*
X61939542Y-52052076D01*
X61897364Y-52107779D01*
X61831767Y-52131836D01*
X61763576Y-52116609D01*
X61714443Y-52066933D01*
X61707658Y-52052076D01*
X61695190Y-52019200D01*
X61686418Y-51996070D01*
X61678686Y-51984869D01*
X61636279Y-51923432D01*
X61589783Y-51856071D01*
X61468620Y-51748730D01*
X61462449Y-51743263D01*
X61311826Y-51664210D01*
X61146656Y-51623500D01*
X60976544Y-51623500D01*
X60811373Y-51664210D01*
X60660750Y-51743263D01*
X60533416Y-51856072D01*
X60436782Y-51996068D01*
X60376460Y-52155125D01*
X60376459Y-52155130D01*
X60355955Y-52324000D01*
X60376459Y-52492869D01*
X60376460Y-52492874D01*
X60436782Y-52651931D01*
X60483829Y-52720089D01*
X60533417Y-52791929D01*
X60639105Y-52885560D01*
X60660750Y-52904736D01*
X60805470Y-52980691D01*
X60811375Y-52983790D01*
X60976544Y-53024500D01*
X61146656Y-53024500D01*
X61311825Y-52983790D01*
X61399582Y-52937731D01*
X61462449Y-52904736D01*
X61462450Y-52904734D01*
X61462452Y-52904734D01*
X61589783Y-52791929D01*
X61686418Y-52651930D01*
X61707658Y-52595923D01*
X61749835Y-52540221D01*
X61815433Y-52516163D01*
X61883623Y-52531390D01*
X61932757Y-52581065D01*
X61939542Y-52595924D01*
X61960781Y-52651928D01*
X61960782Y-52651931D01*
X62007829Y-52720089D01*
X62057417Y-52791929D01*
X62163105Y-52885560D01*
X62184750Y-52904736D01*
X62329470Y-52980691D01*
X62335375Y-52983790D01*
X62500544Y-53024500D01*
X62670656Y-53024500D01*
X62835825Y-52983790D01*
X62923582Y-52937731D01*
X62986449Y-52904736D01*
X62986450Y-52904734D01*
X62986452Y-52904734D01*
X63113783Y-52791929D01*
X63210418Y-52651930D01*
X63210422Y-52651917D01*
X63212229Y-52648477D01*
X63214227Y-52646411D01*
X63214679Y-52645757D01*
X63214787Y-52645832D01*
X63260810Y-52598261D01*
X63328828Y-52582281D01*
X63394687Y-52605612D01*
X63435887Y-52656979D01*
X63455223Y-52701804D01*
X63455224Y-52701806D01*
X63455226Y-52701809D01*
X63556398Y-52837705D01*
X63559990Y-52842530D01*
X63694386Y-52955302D01*
X63737487Y-52976948D01*
X63851162Y-53034038D01*
X63851163Y-53034038D01*
X63851167Y-53034040D01*
X64021879Y-53074500D01*
X72755570Y-53074500D01*
X72822609Y-53094185D01*
X72843251Y-53110819D01*
X74659781Y-54927348D01*
X74693266Y-54988671D01*
X74696100Y-55015029D01*
X74696100Y-60781478D01*
X74710632Y-60854535D01*
X74710633Y-60854539D01*
X74717528Y-60864858D01*
X74765999Y-60937401D01*
X74818389Y-60972406D01*
X74848860Y-60992766D01*
X74848864Y-60992767D01*
X74921921Y-61007299D01*
X74921924Y-61007300D01*
X74921926Y-61007300D01*
X76087500Y-61007300D01*
X76154539Y-61026985D01*
X76200294Y-61079789D01*
X76211500Y-61131300D01*
X76211500Y-62293859D01*
X76191815Y-62360898D01*
X76186769Y-62368167D01*
X76180703Y-62376270D01*
X76180702Y-62376271D01*
X76130408Y-62511117D01*
X76127636Y-62536904D01*
X76124001Y-62570723D01*
X76124000Y-62570735D01*
X76124000Y-63616470D01*
X76124001Y-63616476D01*
X76130408Y-63676083D01*
X76180702Y-63810928D01*
X76180706Y-63810935D01*
X76266952Y-63926144D01*
X76266955Y-63926147D01*
X76382164Y-64012393D01*
X76382171Y-64012397D01*
X76414538Y-64024469D01*
X76517017Y-64062691D01*
X76576627Y-64069100D01*
X77347372Y-64069099D01*
X77406983Y-64062691D01*
X77541831Y-64012396D01*
X77595748Y-63972033D01*
X77661213Y-63947616D01*
X77670060Y-63947300D01*
X77701385Y-63947300D01*
X77854765Y-63909496D01*
X77854765Y-63909495D01*
X77994640Y-63836083D01*
X78112883Y-63731330D01*
X78202620Y-63601323D01*
X78258637Y-63453618D01*
X78277678Y-63296800D01*
X78275015Y-63274863D01*
X78258637Y-63139981D01*
X78228190Y-63059700D01*
X78202620Y-62992277D01*
X78112883Y-62862270D01*
X77994640Y-62757517D01*
X77987935Y-62753998D01*
X77866372Y-62690195D01*
X77816160Y-62641610D01*
X77799999Y-62580399D01*
X77799999Y-62570729D01*
X77799998Y-62570723D01*
X77799997Y-62570716D01*
X77793591Y-62511117D01*
X77784195Y-62485926D01*
X77743297Y-62376271D01*
X77743296Y-62376270D01*
X77743296Y-62376269D01*
X77737231Y-62368167D01*
X77712816Y-62302702D01*
X77712500Y-62293859D01*
X77712500Y-61556800D01*
X77732185Y-61489761D01*
X77784989Y-61444006D01*
X77836500Y-61432800D01*
X78163625Y-61432800D01*
X78230664Y-61452485D01*
X78276419Y-61505289D01*
X78286363Y-61574447D01*
X78270938Y-61612460D01*
X78273590Y-61613811D01*
X78269160Y-61622504D01*
X78269159Y-61622506D01*
X78232659Y-61694141D01*
X78210123Y-61738371D01*
X78194900Y-61834492D01*
X78194900Y-62219111D01*
X78210123Y-62315228D01*
X78210123Y-62315229D01*
X78210124Y-62315232D01*
X78210125Y-62315233D01*
X78266826Y-62426516D01*
X78269160Y-62431095D01*
X78269163Y-62431099D01*
X78361100Y-62523036D01*
X78361104Y-62523039D01*
X78361106Y-62523041D01*
X78476967Y-62582075D01*
X78476969Y-62582075D01*
X78476971Y-62582076D01*
X78506128Y-62586693D01*
X78573093Y-62597300D01*
X79032706Y-62597299D01*
X79032711Y-62597299D01*
X79032711Y-62597298D01*
X79080769Y-62589686D01*
X79128828Y-62582076D01*
X79128829Y-62582076D01*
X79128830Y-62582075D01*
X79128833Y-62582075D01*
X79244694Y-62523041D01*
X79270314Y-62497421D01*
X79312719Y-62455017D01*
X79374042Y-62421532D01*
X79443734Y-62426516D01*
X79488081Y-62455017D01*
X79535568Y-62502504D01*
X79569053Y-62563827D01*
X79564069Y-62633519D01*
X79535569Y-62677866D01*
X79465355Y-62748080D01*
X79465353Y-62748082D01*
X79465354Y-62748082D01*
X79407173Y-62862270D01*
X79407037Y-62862536D01*
X79392000Y-62957483D01*
X79392000Y-63331316D01*
X79391999Y-63331316D01*
X79407037Y-63426263D01*
X79407038Y-63426266D01*
X79407039Y-63426268D01*
X79458706Y-63527670D01*
X79465355Y-63540719D01*
X79465358Y-63540723D01*
X79556176Y-63631541D01*
X79556180Y-63631544D01*
X79556182Y-63631546D01*
X79670632Y-63689861D01*
X79670634Y-63689861D01*
X79670636Y-63689862D01*
X79765583Y-63704900D01*
X79765584Y-63704900D01*
X80254416Y-63704900D01*
X80349363Y-63689862D01*
X80349363Y-63689861D01*
X80349368Y-63689861D01*
X80463818Y-63631546D01*
X80539146Y-63556217D01*
X80600467Y-63522734D01*
X80626826Y-63519900D01*
X81685396Y-63519900D01*
X81710841Y-63522539D01*
X81714640Y-63523335D01*
X81721468Y-63524767D01*
X81742425Y-63522154D01*
X81756692Y-63520377D01*
X81764368Y-63519900D01*
X81768312Y-63519900D01*
X81768314Y-63519900D01*
X81768316Y-63519899D01*
X81768322Y-63519899D01*
X81783687Y-63517334D01*
X81791340Y-63516057D01*
X81845826Y-63509266D01*
X81845827Y-63509265D01*
X81845829Y-63509265D01*
X81853341Y-63507028D01*
X81860806Y-63504466D01*
X81860806Y-63504465D01*
X81860810Y-63504465D01*
X81909077Y-63478344D01*
X81958411Y-63454226D01*
X81958413Y-63454223D01*
X81964794Y-63449668D01*
X81971018Y-63444823D01*
X81971026Y-63444819D01*
X82008207Y-63404429D01*
X82272656Y-63139981D01*
X82365219Y-63047419D01*
X82426542Y-63013934D01*
X82452900Y-63011100D01*
X82964577Y-63011100D01*
X82964578Y-63011099D01*
X83037641Y-62996566D01*
X83120502Y-62941201D01*
X83175867Y-62858340D01*
X83190401Y-62785274D01*
X83190401Y-62485926D01*
X83190401Y-62485923D01*
X83190400Y-62485921D01*
X83175257Y-62409789D01*
X83175257Y-62361406D01*
X83190401Y-62285274D01*
X83190401Y-61985921D01*
X83175257Y-61909791D01*
X83175257Y-61861407D01*
X83190401Y-61785276D01*
X83190401Y-61485924D01*
X83182062Y-61444006D01*
X83175867Y-61412860D01*
X83175866Y-61412858D01*
X83175256Y-61409791D01*
X83175256Y-61361404D01*
X83175864Y-61358343D01*
X83175867Y-61358340D01*
X83190401Y-61285274D01*
X83190401Y-60985926D01*
X83190401Y-60985924D01*
X83190401Y-60985923D01*
X83190400Y-60985921D01*
X83175868Y-60912864D01*
X83175867Y-60912860D01*
X83156841Y-60884385D01*
X83120502Y-60829999D01*
X83037641Y-60774634D01*
X83037640Y-60774633D01*
X83037636Y-60774632D01*
X82964578Y-60760100D01*
X82964575Y-60760100D01*
X82927117Y-60760100D01*
X82860078Y-60740415D01*
X82857265Y-60738553D01*
X82837576Y-60725129D01*
X82837572Y-60725127D01*
X82707804Y-60685100D01*
X82707803Y-60685100D01*
X80539094Y-60685100D01*
X80472055Y-60665415D01*
X80426300Y-60612611D01*
X80416356Y-60543453D01*
X80422911Y-60517770D01*
X80471351Y-60387899D01*
X80475383Y-60350399D01*
X80477599Y-60329790D01*
X80477600Y-60329773D01*
X80477600Y-59761426D01*
X80477599Y-59761409D01*
X80471351Y-59703300D01*
X80451173Y-59649202D01*
X80422312Y-59571822D01*
X80422260Y-59571753D01*
X80403107Y-59546167D01*
X80369901Y-59501810D01*
X80345484Y-59436348D01*
X80360335Y-59368074D01*
X80409740Y-59318669D01*
X80469168Y-59303500D01*
X84286674Y-59303500D01*
X84353713Y-59323185D01*
X84374350Y-59339814D01*
X84449682Y-59415146D01*
X84564132Y-59473461D01*
X84564134Y-59473461D01*
X84564136Y-59473462D01*
X84659083Y-59488500D01*
X84659084Y-59488500D01*
X85147916Y-59488500D01*
X85242863Y-59473462D01*
X85242863Y-59473461D01*
X85242868Y-59473461D01*
X85357318Y-59415146D01*
X85448146Y-59324318D01*
X85506461Y-59209868D01*
X85506926Y-59206936D01*
X85521500Y-59114916D01*
X85521500Y-58792500D01*
X85541185Y-58725461D01*
X85593989Y-58679706D01*
X85645500Y-58668500D01*
X86677419Y-58668500D01*
X86702864Y-58671139D01*
X86706663Y-58671935D01*
X86713491Y-58673367D01*
X86734448Y-58670754D01*
X86748715Y-58668977D01*
X86756391Y-58668500D01*
X86760335Y-58668500D01*
X86760337Y-58668500D01*
X86760339Y-58668499D01*
X86760345Y-58668499D01*
X86775710Y-58665934D01*
X86783363Y-58664657D01*
X86837849Y-58657866D01*
X86837850Y-58657865D01*
X86837852Y-58657865D01*
X86845364Y-58655628D01*
X86852829Y-58653066D01*
X86852829Y-58653065D01*
X86852833Y-58653065D01*
X86901100Y-58626944D01*
X86950434Y-58602826D01*
X86950436Y-58602823D01*
X86956817Y-58598268D01*
X86963042Y-58593422D01*
X86963049Y-58593419D01*
X87000231Y-58553028D01*
X87057118Y-58496140D01*
X87118442Y-58462655D01*
X87188134Y-58467639D01*
X87244067Y-58509511D01*
X87268484Y-58574975D01*
X87268800Y-58583821D01*
X87268800Y-58692223D01*
X87249115Y-58759262D01*
X87232481Y-58779904D01*
X86327897Y-59684487D01*
X86285520Y-59712234D01*
X86212104Y-59741048D01*
X86207883Y-59743486D01*
X86145881Y-59760100D01*
X86115222Y-59760100D01*
X86042163Y-59774632D01*
X86042159Y-59774633D01*
X85959298Y-59829999D01*
X85903932Y-59912860D01*
X85903931Y-59912864D01*
X85889399Y-59985921D01*
X85889399Y-60285278D01*
X85904542Y-60361408D01*
X85904543Y-60409789D01*
X85889399Y-60485925D01*
X85889399Y-60785277D01*
X85904542Y-60861407D01*
X85904543Y-60909788D01*
X85899160Y-60936852D01*
X85889399Y-60985924D01*
X85889399Y-61285272D01*
X85889399Y-61285274D01*
X85889398Y-61285274D01*
X85904543Y-61361407D01*
X85904543Y-61409791D01*
X85889399Y-61485923D01*
X85889399Y-61785278D01*
X85904542Y-61861408D01*
X85904542Y-61909790D01*
X85889399Y-61985919D01*
X85889399Y-61985923D01*
X85889399Y-61985924D01*
X85889399Y-62285272D01*
X85889399Y-62285274D01*
X85889398Y-62285274D01*
X85904543Y-62361406D01*
X85904543Y-62409789D01*
X85889399Y-62485921D01*
X85889399Y-62785278D01*
X85903931Y-62858335D01*
X85903932Y-62858339D01*
X85919975Y-62882349D01*
X85959298Y-62941201D01*
X86035740Y-62992277D01*
X86042159Y-62996566D01*
X86042163Y-62996567D01*
X86115220Y-63011099D01*
X86115223Y-63011100D01*
X86115225Y-63011100D01*
X86764575Y-63011100D01*
X86764576Y-63011099D01*
X86837639Y-62996566D01*
X86920500Y-62941201D01*
X86975865Y-62858340D01*
X86978606Y-62844556D01*
X87010990Y-62782647D01*
X87071705Y-62748071D01*
X87141474Y-62751809D01*
X87187905Y-62781066D01*
X87195927Y-62789088D01*
X87212052Y-62808944D01*
X87217990Y-62818032D01*
X87217993Y-62818036D01*
X87246002Y-62839836D01*
X87251764Y-62844925D01*
X87254559Y-62847720D01*
X87273572Y-62861294D01*
X87316888Y-62895009D01*
X87316895Y-62895011D01*
X87323797Y-62898747D01*
X87330873Y-62902206D01*
X87330878Y-62902210D01*
X87340498Y-62905074D01*
X87364618Y-62912255D01*
X87423254Y-62950249D01*
X87442517Y-62992852D01*
X87469792Y-62958430D01*
X87535902Y-62935820D01*
X87541349Y-62935700D01*
X88633051Y-62935700D01*
X88700090Y-62955385D01*
X88745845Y-63008189D01*
X88755789Y-63077347D01*
X88726764Y-63140903D01*
X88667986Y-63178677D01*
X88662726Y-63180097D01*
X88598973Y-63195810D01*
X88448350Y-63274863D01*
X88321016Y-63387672D01*
X88224382Y-63527668D01*
X88224382Y-63527669D01*
X88203142Y-63583676D01*
X88160964Y-63639379D01*
X88095367Y-63663436D01*
X88027176Y-63648209D01*
X87978043Y-63598533D01*
X87971258Y-63583676D01*
X87960845Y-63556219D01*
X87950018Y-63527670D01*
X87948014Y-63524767D01*
X87898903Y-63453618D01*
X87853383Y-63387671D01*
X87754772Y-63300310D01*
X87726049Y-63274863D01*
X87575426Y-63195810D01*
X87511674Y-63180097D01*
X87451294Y-63144941D01*
X87427849Y-63099054D01*
X87395885Y-63135666D01*
X87329237Y-63155100D01*
X87240144Y-63155100D01*
X87074973Y-63195810D01*
X86924350Y-63274863D01*
X86797016Y-63387672D01*
X86700382Y-63527668D01*
X86640060Y-63686725D01*
X86640059Y-63686730D01*
X86619555Y-63855600D01*
X86640059Y-64024469D01*
X86640060Y-64024474D01*
X86679142Y-64127524D01*
X86700382Y-64183530D01*
X86730705Y-64227461D01*
X86752588Y-64293814D01*
X86735123Y-64361466D01*
X86683855Y-64408936D01*
X86628655Y-64421900D01*
X54472500Y-64421900D01*
X54405461Y-64402215D01*
X54359706Y-64349411D01*
X54348500Y-64297900D01*
X54348500Y-62788802D01*
X57969551Y-62788802D01*
X57988485Y-62956856D01*
X58044345Y-63116494D01*
X58044347Y-63116497D01*
X58134318Y-63259684D01*
X58134323Y-63259690D01*
X58253909Y-63379276D01*
X58253915Y-63379281D01*
X58397102Y-63469252D01*
X58397105Y-63469254D01*
X58397109Y-63469255D01*
X58397110Y-63469256D01*
X58469713Y-63494660D01*
X58556743Y-63525114D01*
X58724797Y-63544049D01*
X58724800Y-63544049D01*
X58724803Y-63544049D01*
X58892856Y-63525114D01*
X58907760Y-63519899D01*
X59052490Y-63469256D01*
X59052492Y-63469254D01*
X59052494Y-63469254D01*
X59052497Y-63469252D01*
X59195684Y-63379281D01*
X59195685Y-63379280D01*
X59195690Y-63379277D01*
X59315277Y-63259690D01*
X59316601Y-63257583D01*
X59405252Y-63116497D01*
X59405254Y-63116494D01*
X59405254Y-63116492D01*
X59405256Y-63116490D01*
X59461113Y-62956859D01*
X59461113Y-62956858D01*
X59461114Y-62956856D01*
X59480049Y-62788802D01*
X59747551Y-62788802D01*
X59766485Y-62956856D01*
X59822345Y-63116494D01*
X59822347Y-63116497D01*
X59912318Y-63259684D01*
X59912323Y-63259690D01*
X60031909Y-63379276D01*
X60031915Y-63379281D01*
X60175102Y-63469252D01*
X60175105Y-63469254D01*
X60175109Y-63469255D01*
X60175110Y-63469256D01*
X60247713Y-63494660D01*
X60334743Y-63525114D01*
X60502797Y-63544049D01*
X60502800Y-63544049D01*
X60502803Y-63544049D01*
X60670856Y-63525114D01*
X60685760Y-63519899D01*
X60830490Y-63469256D01*
X60830492Y-63469254D01*
X60830494Y-63469254D01*
X60830497Y-63469252D01*
X60973684Y-63379281D01*
X60973685Y-63379280D01*
X60973690Y-63379277D01*
X61093277Y-63259690D01*
X61094601Y-63257583D01*
X61183252Y-63116497D01*
X61183254Y-63116494D01*
X61183254Y-63116492D01*
X61183256Y-63116490D01*
X61239113Y-62956859D01*
X61239113Y-62956858D01*
X61239114Y-62956856D01*
X61258049Y-62788802D01*
X61258049Y-62788797D01*
X61239114Y-62620743D01*
X61191938Y-62485921D01*
X61183256Y-62461110D01*
X61183255Y-62461109D01*
X61183254Y-62461105D01*
X61183252Y-62461102D01*
X61093281Y-62317915D01*
X61093276Y-62317909D01*
X60973690Y-62198323D01*
X60973684Y-62198318D01*
X60830497Y-62108347D01*
X60830494Y-62108345D01*
X60670856Y-62052485D01*
X60502803Y-62033551D01*
X60502797Y-62033551D01*
X60334743Y-62052485D01*
X60175105Y-62108345D01*
X60175102Y-62108347D01*
X60031915Y-62198318D01*
X60031909Y-62198323D01*
X59912323Y-62317909D01*
X59912318Y-62317915D01*
X59822347Y-62461102D01*
X59822345Y-62461105D01*
X59766485Y-62620743D01*
X59747551Y-62788797D01*
X59747551Y-62788802D01*
X59480049Y-62788802D01*
X59480049Y-62788797D01*
X59461114Y-62620743D01*
X59413938Y-62485921D01*
X59405256Y-62461110D01*
X59405255Y-62461109D01*
X59405254Y-62461105D01*
X59405252Y-62461102D01*
X59315281Y-62317915D01*
X59315276Y-62317909D01*
X59195690Y-62198323D01*
X59195684Y-62198318D01*
X59052497Y-62108347D01*
X59052494Y-62108345D01*
X58892856Y-62052485D01*
X58724803Y-62033551D01*
X58724797Y-62033551D01*
X58556743Y-62052485D01*
X58397105Y-62108345D01*
X58397102Y-62108347D01*
X58253915Y-62198318D01*
X58253909Y-62198323D01*
X58134323Y-62317909D01*
X58134318Y-62317915D01*
X58044347Y-62461102D01*
X58044345Y-62461105D01*
X57988485Y-62620743D01*
X57969551Y-62788797D01*
X57969551Y-62788802D01*
X54348500Y-62788802D01*
X54348500Y-61167632D01*
X54368185Y-61100593D01*
X54420989Y-61054838D01*
X54490147Y-61044894D01*
X54553703Y-61073919D01*
X54568354Y-61088968D01*
X54574789Y-61096810D01*
X54661087Y-61167632D01*
X54734750Y-61228085D01*
X54917246Y-61325632D01*
X55115266Y-61385700D01*
X55115265Y-61385700D01*
X55126556Y-61386812D01*
X55321200Y-61405983D01*
X55527134Y-61385700D01*
X55725154Y-61325632D01*
X55907650Y-61228085D01*
X55952814Y-61191020D01*
X57446450Y-61191020D01*
X57446451Y-61191026D01*
X57452858Y-61250633D01*
X57503152Y-61385478D01*
X57503156Y-61385485D01*
X57589402Y-61500694D01*
X57589405Y-61500697D01*
X57704614Y-61586943D01*
X57704621Y-61586947D01*
X57839467Y-61637241D01*
X57839466Y-61637241D01*
X57846394Y-61637985D01*
X57899077Y-61643650D01*
X58944822Y-61643649D01*
X59004433Y-61637241D01*
X59007650Y-61636041D01*
X59059458Y-61616718D01*
X59102791Y-61608900D01*
X59829495Y-61608900D01*
X59847465Y-61610209D01*
X59871223Y-61613689D01*
X59923268Y-61609135D01*
X59928670Y-61608900D01*
X59936904Y-61608900D01*
X59936909Y-61608900D01*
X59948527Y-61607541D01*
X59969476Y-61605093D01*
X59982228Y-61603977D01*
X60045997Y-61598399D01*
X60046005Y-61598396D01*
X60053066Y-61596939D01*
X60053078Y-61596998D01*
X60060443Y-61595365D01*
X60060429Y-61595306D01*
X60067446Y-61593641D01*
X60067455Y-61593641D01*
X60139623Y-61567374D01*
X60212534Y-61543214D01*
X60212543Y-61543207D01*
X60219082Y-61540160D01*
X60219108Y-61540216D01*
X60225890Y-61536932D01*
X60225863Y-61536878D01*
X60232306Y-61533640D01*
X60232317Y-61533637D01*
X60296483Y-61491434D01*
X60361856Y-61451112D01*
X60361862Y-61451105D01*
X60367525Y-61446629D01*
X60367563Y-61446677D01*
X60373395Y-61441926D01*
X60373356Y-61441879D01*
X60384424Y-61432591D01*
X60385656Y-61434059D01*
X60437568Y-61403712D01*
X60455292Y-61400654D01*
X60607134Y-61385700D01*
X60805154Y-61325632D01*
X60987650Y-61228085D01*
X61077485Y-61154360D01*
X61108329Y-61129047D01*
X61172639Y-61101734D01*
X61186994Y-61100900D01*
X61385600Y-61100900D01*
X61452639Y-61120585D01*
X61498394Y-61173389D01*
X61509600Y-61224900D01*
X61509600Y-61733978D01*
X61524132Y-61807035D01*
X61524133Y-61807039D01*
X61524134Y-61807040D01*
X61579499Y-61889901D01*
X61587489Y-61895240D01*
X61632294Y-61948849D01*
X61642600Y-61998342D01*
X61642600Y-62233056D01*
X61622915Y-62300095D01*
X61587493Y-62336157D01*
X61579499Y-62341498D01*
X61524134Y-62424360D01*
X61524132Y-62424364D01*
X61509600Y-62497421D01*
X61509600Y-63003978D01*
X61524132Y-63077035D01*
X61524133Y-63077039D01*
X61535131Y-63093499D01*
X61579499Y-63159901D01*
X61644010Y-63203005D01*
X61662360Y-63215266D01*
X61662364Y-63215267D01*
X61735421Y-63229799D01*
X61735424Y-63229800D01*
X61735426Y-63229800D01*
X61821298Y-63229800D01*
X61888337Y-63249485D01*
X61900333Y-63258252D01*
X61930277Y-63283024D01*
X61930278Y-63283024D01*
X61930280Y-63283026D01*
X61967011Y-63300310D01*
X62073274Y-63350314D01*
X62228512Y-63379927D01*
X62386238Y-63370004D01*
X62536541Y-63321167D01*
X62625033Y-63265007D01*
X62692183Y-63245706D01*
X62715666Y-63248086D01*
X62740536Y-63253033D01*
X62776099Y-63260108D01*
X62776100Y-63260108D01*
X62776101Y-63260108D01*
X62788794Y-63257583D01*
X62812986Y-63255200D01*
X66295214Y-63255200D01*
X66319406Y-63257583D01*
X66332099Y-63260108D01*
X66332100Y-63260108D01*
X66332102Y-63260108D01*
X66380969Y-63250387D01*
X66429840Y-63240666D01*
X66512701Y-63185301D01*
X66568066Y-63102440D01*
X66572765Y-63078819D01*
X66583789Y-63023400D01*
X66583790Y-63023389D01*
X66585819Y-63013193D01*
X66587508Y-63004700D01*
X66587364Y-63003978D01*
X66584983Y-62992006D01*
X66582600Y-62967814D01*
X66582600Y-58723584D01*
X66584982Y-58699396D01*
X66587508Y-58686700D01*
X66581772Y-58657866D01*
X66568066Y-58588960D01*
X66512701Y-58506099D01*
X66454594Y-58467274D01*
X66429839Y-58450733D01*
X66409987Y-58446785D01*
X66356774Y-58436200D01*
X66332101Y-58431292D01*
X66332099Y-58431292D01*
X66319406Y-58433817D01*
X66295214Y-58436200D01*
X62812986Y-58436200D01*
X62788794Y-58433817D01*
X62776101Y-58431292D01*
X62776099Y-58431292D01*
X62751426Y-58436200D01*
X62719054Y-58442639D01*
X62649463Y-58436412D01*
X62615824Y-58416567D01*
X62605923Y-58408376D01*
X62605922Y-58408375D01*
X62605919Y-58408373D01*
X62462928Y-58341087D01*
X62462925Y-58341085D01*
X62383023Y-58325843D01*
X62307688Y-58311473D01*
X62307684Y-58311473D01*
X62149962Y-58321396D01*
X62149959Y-58321396D01*
X61999658Y-58370233D01*
X61964064Y-58392822D01*
X61886103Y-58442297D01*
X61819662Y-58461600D01*
X61735423Y-58461600D01*
X61662364Y-58476132D01*
X61662360Y-58476133D01*
X61579499Y-58531499D01*
X61524133Y-58614360D01*
X61524132Y-58614364D01*
X61509600Y-58687421D01*
X61509600Y-59193978D01*
X61524132Y-59267035D01*
X61524133Y-59267039D01*
X61543061Y-59295367D01*
X61579498Y-59349900D01*
X61579500Y-59349902D01*
X61587489Y-59355240D01*
X61632295Y-59408852D01*
X61642599Y-59458335D01*
X61642600Y-59475893D01*
X61622919Y-59542934D01*
X61570118Y-59588691D01*
X61518600Y-59599900D01*
X61186994Y-59599900D01*
X61119955Y-59580215D01*
X61108329Y-59571753D01*
X60987653Y-59472717D01*
X60987651Y-59472716D01*
X60987650Y-59472715D01*
X60967243Y-59461807D01*
X60917400Y-59412843D01*
X60901699Y-59352452D01*
X60901699Y-59226703D01*
X60915215Y-59170408D01*
X60956475Y-59089433D01*
X60956486Y-59089367D01*
X60963158Y-59047236D01*
X60971700Y-58993307D01*
X60971699Y-58533694D01*
X60971699Y-58533692D01*
X60971699Y-58533688D01*
X60956476Y-58437571D01*
X60956476Y-58437570D01*
X60956475Y-58437568D01*
X60956475Y-58437567D01*
X60897441Y-58321706D01*
X60897438Y-58321703D01*
X60897436Y-58321700D01*
X60829417Y-58253681D01*
X60795932Y-58192358D01*
X60800916Y-58122666D01*
X60829417Y-58078319D01*
X60897436Y-58010299D01*
X60897441Y-58010294D01*
X60956475Y-57894433D01*
X60971700Y-57798307D01*
X60971699Y-57428441D01*
X60991383Y-57361403D01*
X60993645Y-57358008D01*
X61001648Y-57346412D01*
X61055926Y-57302422D01*
X61125374Y-57294758D01*
X61187941Y-57325857D01*
X61223762Y-57385846D01*
X61227700Y-57416845D01*
X61227700Y-57443909D01*
X61227701Y-57443911D01*
X61242923Y-57540028D01*
X61242923Y-57540029D01*
X61242924Y-57540032D01*
X61242925Y-57540033D01*
X61301683Y-57655353D01*
X61301960Y-57655895D01*
X61301963Y-57655899D01*
X61393900Y-57747836D01*
X61393904Y-57747839D01*
X61393906Y-57747841D01*
X61509767Y-57806875D01*
X61509769Y-57806875D01*
X61509771Y-57806876D01*
X61538928Y-57811493D01*
X61605893Y-57822100D01*
X62065506Y-57822099D01*
X62065511Y-57822099D01*
X62065511Y-57822098D01*
X62137627Y-57810677D01*
X62161628Y-57806876D01*
X62161629Y-57806876D01*
X62161630Y-57806875D01*
X62161633Y-57806875D01*
X62277494Y-57747841D01*
X62308257Y-57717078D01*
X62345519Y-57679817D01*
X62406842Y-57646332D01*
X62476534Y-57651316D01*
X62520881Y-57679817D01*
X62588900Y-57747836D01*
X62588904Y-57747839D01*
X62588906Y-57747841D01*
X62704767Y-57806875D01*
X62704769Y-57806875D01*
X62704771Y-57806876D01*
X62789411Y-57820281D01*
X62800880Y-57822098D01*
X62800887Y-57822099D01*
X62800893Y-57822100D01*
X62999945Y-57822099D01*
X63066985Y-57841783D01*
X63101995Y-57875658D01*
X63111117Y-57888873D01*
X63229360Y-57993626D01*
X63229362Y-57993627D01*
X63369234Y-58067039D01*
X63522614Y-58104843D01*
X63522615Y-58104843D01*
X63680585Y-58104843D01*
X63833965Y-58067039D01*
X63836488Y-58065715D01*
X63973840Y-57993626D01*
X64092083Y-57888873D01*
X64181820Y-57758866D01*
X64237837Y-57611161D01*
X64256878Y-57454343D01*
X64256558Y-57451703D01*
X64254070Y-57431211D01*
X65901900Y-57431211D01*
X65917123Y-57527328D01*
X65917123Y-57527329D01*
X65917124Y-57527332D01*
X65917125Y-57527333D01*
X65976020Y-57642922D01*
X65976160Y-57643195D01*
X65976163Y-57643199D01*
X66068100Y-57735136D01*
X66068104Y-57735139D01*
X66068106Y-57735141D01*
X66183967Y-57794175D01*
X66183969Y-57794175D01*
X66183971Y-57794176D01*
X66280087Y-57809399D01*
X66280093Y-57809400D01*
X66497999Y-57809399D01*
X66565039Y-57829083D01*
X66585681Y-57845718D01*
X67317307Y-58577344D01*
X67350792Y-58638667D01*
X67351174Y-58681262D01*
X67352197Y-58681363D01*
X67351600Y-58687425D01*
X67351600Y-59193978D01*
X67366132Y-59267035D01*
X67366133Y-59267039D01*
X67378583Y-59285671D01*
X67421499Y-59349901D01*
X67484600Y-59392063D01*
X67504360Y-59405266D01*
X67504363Y-59405267D01*
X67566154Y-59417558D01*
X67628065Y-59449942D01*
X67662639Y-59510658D01*
X67658900Y-59580427D01*
X67627872Y-59625216D01*
X67629359Y-59626619D01*
X67616706Y-59640029D01*
X67600569Y-59654389D01*
X67591572Y-59661087D01*
X67550382Y-59710172D01*
X67547988Y-59712863D01*
X67542672Y-59718498D01*
X67513857Y-59738367D01*
X67514514Y-59739350D01*
X67504361Y-59746133D01*
X67504360Y-59746134D01*
X67461709Y-59774632D01*
X67421499Y-59801499D01*
X67366133Y-59884360D01*
X67366132Y-59884364D01*
X67351600Y-59957421D01*
X67351600Y-59957426D01*
X67351600Y-60463974D01*
X67356573Y-60488976D01*
X67357217Y-60492209D01*
X67359600Y-60516403D01*
X67359600Y-61174995D01*
X67357217Y-61199188D01*
X67354710Y-61211793D01*
X67351600Y-61227426D01*
X67351600Y-61733974D01*
X67352457Y-61738284D01*
X67357217Y-61762209D01*
X67359600Y-61786403D01*
X67359600Y-62444995D01*
X67357217Y-62469188D01*
X67351600Y-62497424D01*
X67351600Y-63003978D01*
X67366132Y-63077035D01*
X67366133Y-63077039D01*
X67377131Y-63093499D01*
X67421499Y-63159901D01*
X67504360Y-63215266D01*
X67504361Y-63215266D01*
X67511187Y-63219827D01*
X67527392Y-63232736D01*
X67531267Y-63236392D01*
X67531270Y-63236396D01*
X67658882Y-63356792D01*
X67810819Y-63444512D01*
X67978890Y-63494830D01*
X68154035Y-63505031D01*
X68326811Y-63474565D01*
X68487904Y-63405077D01*
X68628630Y-63300310D01*
X68672045Y-63248569D01*
X68706517Y-63223297D01*
X68705685Y-63222051D01*
X68715839Y-63215266D01*
X68715840Y-63215266D01*
X68798701Y-63159901D01*
X68854066Y-63077040D01*
X68868600Y-63003974D01*
X68868600Y-62497426D01*
X68866312Y-62485926D01*
X68862983Y-62469188D01*
X68860600Y-62444995D01*
X68860600Y-61786403D01*
X68862983Y-61762209D01*
X68867743Y-61738284D01*
X68868600Y-61733974D01*
X68868600Y-61227426D01*
X68865490Y-61211793D01*
X68862983Y-61199188D01*
X68860600Y-61174995D01*
X68860600Y-61085200D01*
X68880285Y-61018161D01*
X68933089Y-60972406D01*
X68984600Y-60961200D01*
X69125202Y-60961200D01*
X69192241Y-60980885D01*
X69194090Y-60982096D01*
X69210060Y-60992766D01*
X69210059Y-60992766D01*
X69283123Y-61007300D01*
X69283126Y-61007300D01*
X69694500Y-61007300D01*
X69761539Y-61026985D01*
X69807294Y-61079789D01*
X69818500Y-61131300D01*
X69818500Y-62293859D01*
X69798815Y-62360898D01*
X69793769Y-62368167D01*
X69787703Y-62376270D01*
X69787702Y-62376271D01*
X69737408Y-62511117D01*
X69734636Y-62536904D01*
X69731001Y-62570723D01*
X69731000Y-62570735D01*
X69731000Y-63616470D01*
X69731001Y-63616476D01*
X69737408Y-63676083D01*
X69787702Y-63810928D01*
X69787706Y-63810935D01*
X69873952Y-63926144D01*
X69873955Y-63926147D01*
X69989164Y-64012393D01*
X69989171Y-64012397D01*
X70021538Y-64024469D01*
X70124017Y-64062691D01*
X70183627Y-64069100D01*
X70954372Y-64069099D01*
X71013983Y-64062691D01*
X71148831Y-64012396D01*
X71264046Y-63926146D01*
X71350296Y-63810931D01*
X71400591Y-63676083D01*
X71407000Y-63616473D01*
X71406999Y-62570728D01*
X71400591Y-62511117D01*
X71391195Y-62485926D01*
X71350297Y-62376271D01*
X71350296Y-62376270D01*
X71350296Y-62376269D01*
X71344231Y-62368167D01*
X71319816Y-62302702D01*
X71319500Y-62293859D01*
X71319500Y-61131300D01*
X71339185Y-61064261D01*
X71391989Y-61018506D01*
X71443500Y-61007300D01*
X72304276Y-61007300D01*
X72304277Y-61007299D01*
X72377340Y-60992766D01*
X72460201Y-60937401D01*
X72515566Y-60854540D01*
X72530100Y-60781474D01*
X72530100Y-54128126D01*
X72530100Y-54128125D01*
X72530100Y-54128123D01*
X72530099Y-54128121D01*
X72515567Y-54055064D01*
X72515566Y-54055060D01*
X72504339Y-54038258D01*
X72460201Y-53972199D01*
X72385072Y-53922000D01*
X72377339Y-53916833D01*
X72377335Y-53916832D01*
X72304277Y-53902300D01*
X72304274Y-53902300D01*
X69283126Y-53902300D01*
X69283123Y-53902300D01*
X69210064Y-53916832D01*
X69210060Y-53916833D01*
X69127198Y-53972199D01*
X69070701Y-54056755D01*
X69017089Y-54101560D01*
X68947764Y-54110267D01*
X68884737Y-54080113D01*
X68848017Y-54020670D01*
X68843599Y-53987864D01*
X68843599Y-53805029D01*
X68843598Y-53805023D01*
X68843597Y-53805016D01*
X68837191Y-53745417D01*
X68831276Y-53729559D01*
X68786897Y-53610571D01*
X68786893Y-53610564D01*
X68700647Y-53495355D01*
X68700644Y-53495352D01*
X68585435Y-53409106D01*
X68585428Y-53409102D01*
X68450582Y-53358808D01*
X68450583Y-53358808D01*
X68390983Y-53352401D01*
X68390981Y-53352400D01*
X68390973Y-53352400D01*
X68390964Y-53352400D01*
X67295229Y-53352400D01*
X67295223Y-53352401D01*
X67235616Y-53358808D01*
X67100771Y-53409102D01*
X67100764Y-53409106D01*
X66985555Y-53495352D01*
X66985552Y-53495355D01*
X66899306Y-53610564D01*
X66899302Y-53610571D01*
X66849008Y-53745417D01*
X66843060Y-53800744D01*
X66842601Y-53805023D01*
X66842600Y-53805035D01*
X66842600Y-56100770D01*
X66842601Y-56100776D01*
X66849008Y-56160383D01*
X66899302Y-56295228D01*
X66899306Y-56295235D01*
X66985552Y-56410444D01*
X66985555Y-56410447D01*
X67100764Y-56496693D01*
X67100771Y-56496697D01*
X67235617Y-56546991D01*
X67235616Y-56546991D01*
X67242544Y-56547735D01*
X67295227Y-56553400D01*
X68390972Y-56553399D01*
X68450583Y-56546991D01*
X68585431Y-56496696D01*
X68700646Y-56410446D01*
X68786896Y-56295231D01*
X68817117Y-56214202D01*
X68858989Y-56158268D01*
X68924453Y-56133851D01*
X68992726Y-56148702D01*
X69042132Y-56198107D01*
X69057300Y-56257535D01*
X69057300Y-56752100D01*
X69037615Y-56819139D01*
X68984811Y-56864894D01*
X68933300Y-56876100D01*
X68655645Y-56876100D01*
X68620943Y-56871145D01*
X68614958Y-56869400D01*
X68569388Y-56863401D01*
X68569385Y-56863400D01*
X68569379Y-56863400D01*
X68569372Y-56863400D01*
X68261019Y-56863400D01*
X68215443Y-56869400D01*
X68215436Y-56869402D01*
X68115400Y-56916050D01*
X68082881Y-56948570D01*
X68021558Y-56982055D01*
X67951866Y-56977071D01*
X67907519Y-56948570D01*
X67874999Y-56916050D01*
X67846462Y-56902743D01*
X67774960Y-56869401D01*
X67774958Y-56869400D01*
X67729388Y-56863401D01*
X67729385Y-56863400D01*
X67729379Y-56863400D01*
X67729372Y-56863400D01*
X67123797Y-56863400D01*
X67056758Y-56843715D01*
X67036120Y-56827085D01*
X66951694Y-56742659D01*
X66835833Y-56683625D01*
X66835831Y-56683624D01*
X66835828Y-56683623D01*
X66739707Y-56668400D01*
X66280088Y-56668400D01*
X66280088Y-56668401D01*
X66183971Y-56683623D01*
X66183970Y-56683623D01*
X66068104Y-56742660D01*
X66068100Y-56742663D01*
X65976163Y-56834600D01*
X65976160Y-56834604D01*
X65917123Y-56950471D01*
X65901900Y-57046592D01*
X65901900Y-57431211D01*
X64254070Y-57431211D01*
X64237837Y-57297524D01*
X64207093Y-57216459D01*
X64181820Y-57149820D01*
X64092083Y-57019813D01*
X63973840Y-56915060D01*
X63973838Y-56915059D01*
X63973837Y-56915058D01*
X63833965Y-56841646D01*
X63680586Y-56803843D01*
X63680585Y-56803843D01*
X63572341Y-56803843D01*
X63505302Y-56784158D01*
X63484678Y-56767542D01*
X63482233Y-56765098D01*
X63448735Y-56703782D01*
X63453705Y-56634089D01*
X63495565Y-56578147D01*
X63561025Y-56553717D01*
X63569895Y-56553399D01*
X63590972Y-56553399D01*
X63650583Y-56546991D01*
X63785431Y-56496696D01*
X63900646Y-56410446D01*
X63986896Y-56295231D01*
X64037191Y-56160383D01*
X64043600Y-56100773D01*
X64043599Y-53805028D01*
X64037191Y-53745417D01*
X64031276Y-53729559D01*
X63986897Y-53610571D01*
X63986893Y-53610564D01*
X63900647Y-53495355D01*
X63900644Y-53495352D01*
X63785435Y-53409106D01*
X63785428Y-53409102D01*
X63650582Y-53358808D01*
X63650583Y-53358808D01*
X63590983Y-53352401D01*
X63590981Y-53352400D01*
X63590973Y-53352400D01*
X63590964Y-53352400D01*
X62495229Y-53352400D01*
X62495223Y-53352401D01*
X62435616Y-53358808D01*
X62300771Y-53409102D01*
X62300764Y-53409106D01*
X62185555Y-53495352D01*
X62185552Y-53495355D01*
X62099306Y-53610564D01*
X62099302Y-53610571D01*
X62049008Y-53745417D01*
X62043060Y-53800744D01*
X62042601Y-53805023D01*
X62042600Y-53805035D01*
X62042600Y-54018800D01*
X62022915Y-54085839D01*
X61970111Y-54131594D01*
X61918600Y-54142800D01*
X59253016Y-54142800D01*
X59185977Y-54123115D01*
X59178705Y-54118067D01*
X59139280Y-54088553D01*
X59139278Y-54088552D01*
X59004432Y-54038258D01*
X59004433Y-54038258D01*
X58944833Y-54031851D01*
X58944831Y-54031850D01*
X58944823Y-54031850D01*
X58944814Y-54031850D01*
X57899079Y-54031850D01*
X57899073Y-54031851D01*
X57839466Y-54038258D01*
X57704621Y-54088552D01*
X57704614Y-54088556D01*
X57589405Y-54174802D01*
X57589402Y-54174805D01*
X57503156Y-54290014D01*
X57503152Y-54290021D01*
X57452860Y-54424863D01*
X57452859Y-54424867D01*
X57446450Y-54484477D01*
X57446450Y-54484484D01*
X57446450Y-54484485D01*
X57446450Y-55255220D01*
X57446451Y-55255226D01*
X57452858Y-55314833D01*
X57503152Y-55449678D01*
X57503156Y-55449685D01*
X57589402Y-55564894D01*
X57589405Y-55564897D01*
X57704614Y-55651143D01*
X57704621Y-55651147D01*
X57839467Y-55701441D01*
X57839466Y-55701441D01*
X57846394Y-55702185D01*
X57899077Y-55707850D01*
X58944822Y-55707849D01*
X59004433Y-55701441D01*
X59013064Y-55698222D01*
X59138017Y-55651618D01*
X59181350Y-55643800D01*
X59335314Y-55643800D01*
X59402353Y-55663485D01*
X59444671Y-55709345D01*
X59523515Y-55856850D01*
X59523517Y-55856852D01*
X59654789Y-56016810D01*
X59742657Y-56088920D01*
X59814750Y-56148085D01*
X59938445Y-56214202D01*
X59997245Y-56245632D01*
X60010322Y-56249598D01*
X60025288Y-56254138D01*
X60083728Y-56292434D01*
X60112185Y-56356246D01*
X60101626Y-56425313D01*
X60071522Y-56465615D01*
X59961516Y-56563070D01*
X59871781Y-56693075D01*
X59871780Y-56693076D01*
X59815762Y-56840781D01*
X59796722Y-56997599D01*
X59796722Y-56997600D01*
X59815762Y-57154414D01*
X59815762Y-57154416D01*
X59818806Y-57162441D01*
X59826062Y-57181576D01*
X59835201Y-57205672D01*
X59841732Y-57269038D01*
X59830700Y-57338693D01*
X59830700Y-57338696D01*
X59830700Y-57338697D01*
X59830700Y-57798311D01*
X59845923Y-57894428D01*
X59845923Y-57894429D01*
X59845924Y-57894432D01*
X59845925Y-57894433D01*
X59896466Y-57993626D01*
X59904960Y-58010295D01*
X59904960Y-58010296D01*
X59972983Y-58078319D01*
X60006467Y-58139643D01*
X60001482Y-58209334D01*
X59972983Y-58253681D01*
X59904960Y-58321703D01*
X59904960Y-58321704D01*
X59845923Y-58437571D01*
X59830700Y-58533692D01*
X59830700Y-58993311D01*
X59845924Y-59089431D01*
X59845924Y-59089432D01*
X59855598Y-59108418D01*
X59886856Y-59169767D01*
X59887184Y-59170409D01*
X59900699Y-59226704D01*
X59900699Y-59352451D01*
X59881014Y-59419490D01*
X59835155Y-59461808D01*
X59814747Y-59472716D01*
X59654789Y-59603989D01*
X59525600Y-59761409D01*
X59523515Y-59763950D01*
X59500363Y-59807264D01*
X59425967Y-59946446D01*
X59405006Y-60015547D01*
X59366709Y-60073985D01*
X59302897Y-60102442D01*
X59233830Y-60091881D01*
X59212036Y-60078818D01*
X59139281Y-60024354D01*
X59139277Y-60024352D01*
X59115327Y-60015419D01*
X59095189Y-60005761D01*
X59039036Y-59972301D01*
X58993561Y-59962766D01*
X58916382Y-59946583D01*
X58916380Y-59946583D01*
X58916379Y-59946583D01*
X58792022Y-59962084D01*
X58790640Y-59962496D01*
X58755261Y-59967650D01*
X57899079Y-59967650D01*
X57899073Y-59967651D01*
X57839466Y-59974058D01*
X57704621Y-60024352D01*
X57704614Y-60024356D01*
X57589405Y-60110602D01*
X57589402Y-60110605D01*
X57503156Y-60225814D01*
X57503152Y-60225821D01*
X57452860Y-60360663D01*
X57452859Y-60360667D01*
X57446450Y-60420277D01*
X57446450Y-60420284D01*
X57446450Y-60420285D01*
X57446450Y-61191020D01*
X55952814Y-61191020D01*
X56067610Y-61096810D01*
X56198885Y-60936850D01*
X56296432Y-60754354D01*
X56356500Y-60556334D01*
X56376783Y-60350400D01*
X56356500Y-60144466D01*
X56296432Y-59946446D01*
X56198885Y-59763950D01*
X56115063Y-59661812D01*
X56067610Y-59603989D01*
X55907650Y-59472715D01*
X55907644Y-59472711D01*
X55887246Y-59461808D01*
X55837402Y-59412846D01*
X55821699Y-59352450D01*
X55821699Y-59108418D01*
X55821699Y-58976794D01*
X55841384Y-58909758D01*
X55894188Y-58864003D01*
X55963346Y-58854059D01*
X56026902Y-58883084D01*
X56033380Y-58889116D01*
X56035100Y-58890836D01*
X56035104Y-58890839D01*
X56035106Y-58890841D01*
X56150967Y-58949875D01*
X56150969Y-58949875D01*
X56150971Y-58949876D01*
X56180128Y-58954493D01*
X56247093Y-58965100D01*
X56706706Y-58965099D01*
X56706711Y-58965099D01*
X56706711Y-58965098D01*
X56754769Y-58957486D01*
X56802828Y-58949876D01*
X56802829Y-58949876D01*
X56802830Y-58949875D01*
X56802833Y-58949875D01*
X56918694Y-58890841D01*
X57010641Y-58798894D01*
X57069675Y-58683033D01*
X57084900Y-58586907D01*
X57084899Y-58202294D01*
X57084899Y-58202292D01*
X57084899Y-58202288D01*
X57071849Y-58119899D01*
X57069675Y-58106167D01*
X57069674Y-58106165D01*
X57066659Y-58096883D01*
X57069932Y-58095819D01*
X57060260Y-58044345D01*
X57061686Y-58036074D01*
X57062336Y-58030720D01*
X57062337Y-58030718D01*
X57081378Y-57873900D01*
X57079348Y-57857185D01*
X57062337Y-57717082D01*
X57052069Y-57690008D01*
X57042084Y-57663681D01*
X57036718Y-57594021D01*
X57047543Y-57563416D01*
X57049861Y-57558868D01*
X57054857Y-57527329D01*
X57064900Y-57463916D01*
X57064900Y-57090083D01*
X57049862Y-56995136D01*
X57049861Y-56995134D01*
X57049861Y-56995132D01*
X56991546Y-56880682D01*
X56991544Y-56880680D01*
X56991541Y-56880676D01*
X56900723Y-56789858D01*
X56900719Y-56789855D01*
X56900718Y-56789854D01*
X56786268Y-56731539D01*
X56786266Y-56731538D01*
X56786263Y-56731537D01*
X56691316Y-56716500D01*
X56202484Y-56716500D01*
X56107536Y-56731537D01*
X55993080Y-56789855D01*
X55993076Y-56789858D01*
X55902258Y-56880676D01*
X55902255Y-56880680D01*
X55843937Y-56995136D01*
X55828899Y-57090083D01*
X55828900Y-57280827D01*
X55828900Y-57463916D01*
X55835012Y-57502503D01*
X55840529Y-57537340D01*
X55833997Y-57600706D01*
X55789863Y-57717078D01*
X55789863Y-57717079D01*
X55786655Y-57743499D01*
X55759032Y-57807677D01*
X55701097Y-57846733D01*
X55631244Y-57848266D01*
X55609003Y-57839705D01*
X55607830Y-57839323D01*
X55511707Y-57824100D01*
X55052088Y-57824100D01*
X55052088Y-57824101D01*
X54955971Y-57839323D01*
X54955970Y-57839323D01*
X54840104Y-57898360D01*
X54840100Y-57898363D01*
X54748163Y-57990300D01*
X54748160Y-57990304D01*
X54689123Y-58106171D01*
X54673900Y-58202292D01*
X54673900Y-58586911D01*
X54689123Y-58683028D01*
X54689123Y-58683029D01*
X54689124Y-58683032D01*
X54689125Y-58683033D01*
X54744901Y-58792500D01*
X54748160Y-58798895D01*
X54748162Y-58798898D01*
X54784380Y-58835115D01*
X54817866Y-58896437D01*
X54820700Y-58922797D01*
X54820700Y-59352451D01*
X54801015Y-59419490D01*
X54755155Y-59461808D01*
X54734748Y-59472715D01*
X54574789Y-59603989D01*
X54568351Y-59611835D01*
X54510604Y-59651167D01*
X54440759Y-59653036D01*
X54380992Y-59616847D01*
X54350278Y-59554090D01*
X54348500Y-59533167D01*
X54348500Y-51170500D01*
X54368185Y-51103461D01*
X54420989Y-51057706D01*
X54472500Y-51046500D01*
X80292919Y-51046500D01*
X80359958Y-51066185D01*
G37*
%TD.AperFunction*%
%TA.AperFunction,Conductor*%
G36*
X92463540Y-62955385D02*
G01*
X92509295Y-63008189D01*
X92520501Y-63059700D01*
X92520501Y-63133511D01*
X92535723Y-63229628D01*
X92535723Y-63229629D01*
X92535724Y-63229632D01*
X92535725Y-63229633D01*
X92592426Y-63340916D01*
X92594760Y-63345495D01*
X92594763Y-63345499D01*
X92686700Y-63437436D01*
X92686704Y-63437439D01*
X92686706Y-63437441D01*
X92802567Y-63496475D01*
X92802569Y-63496475D01*
X92802571Y-63496476D01*
X92831728Y-63501093D01*
X92898693Y-63511700D01*
X93358306Y-63511699D01*
X93358311Y-63511699D01*
X93358311Y-63511698D01*
X93423418Y-63501387D01*
X93454428Y-63496476D01*
X93454429Y-63496476D01*
X93454430Y-63496475D01*
X93454433Y-63496475D01*
X93570294Y-63437441D01*
X93603306Y-63404429D01*
X93638319Y-63369417D01*
X93699642Y-63335932D01*
X93769334Y-63340916D01*
X93813681Y-63369417D01*
X93881700Y-63437436D01*
X93881704Y-63437439D01*
X93881706Y-63437441D01*
X93997567Y-63496475D01*
X93997569Y-63496475D01*
X93997571Y-63496476D01*
X94064195Y-63507028D01*
X94093680Y-63511698D01*
X94093687Y-63511699D01*
X94093693Y-63511700D01*
X94184900Y-63511699D01*
X94251938Y-63531383D01*
X94272581Y-63548018D01*
X94934782Y-64210219D01*
X94968267Y-64271542D01*
X94963283Y-64341234D01*
X94921411Y-64397167D01*
X94855947Y-64421584D01*
X94847101Y-64421900D01*
X91069745Y-64421900D01*
X91002706Y-64402215D01*
X90956951Y-64349411D01*
X90947007Y-64280253D01*
X90967693Y-64227461D01*
X90998018Y-64183530D01*
X91058340Y-64024472D01*
X91078845Y-63855600D01*
X91058340Y-63686728D01*
X91048814Y-63661611D01*
X91025951Y-63601324D01*
X90998018Y-63527670D01*
X90996014Y-63524767D01*
X90946903Y-63453618D01*
X90901383Y-63387671D01*
X90802772Y-63300310D01*
X90774049Y-63274863D01*
X90623426Y-63195810D01*
X90559674Y-63180097D01*
X90499294Y-63144941D01*
X90467505Y-63082722D01*
X90474401Y-63013193D01*
X90517792Y-62958430D01*
X90583902Y-62935820D01*
X90589349Y-62935700D01*
X92396501Y-62935700D01*
X92463540Y-62955385D01*
G37*
%TD.AperFunction*%
%TA.AperFunction,Conductor*%
G36*
X105716139Y-51066185D02*
G01*
X105761894Y-51118989D01*
X105773100Y-51170500D01*
X105773100Y-64297900D01*
X105753415Y-64364939D01*
X105700611Y-64410694D01*
X105649100Y-64421900D01*
X100499569Y-64421900D01*
X100432530Y-64402215D01*
X100386775Y-64349411D01*
X100376831Y-64280253D01*
X100389084Y-64241606D01*
X100405076Y-64210219D01*
X100416261Y-64188268D01*
X100416261Y-64188266D01*
X100416262Y-64188265D01*
X100431300Y-64093316D01*
X100431300Y-63719483D01*
X100416262Y-63624536D01*
X100416261Y-63624534D01*
X100416261Y-63624532D01*
X100357946Y-63510082D01*
X100357944Y-63510080D01*
X100353515Y-63501387D01*
X100357108Y-63499555D01*
X100340146Y-63452351D01*
X100343718Y-63414565D01*
X100344124Y-63412961D01*
X100379657Y-63352801D01*
X100442074Y-63321402D01*
X100511558Y-63328733D01*
X100552014Y-63355707D01*
X100571652Y-63375345D01*
X100571654Y-63375346D01*
X100571658Y-63375350D01*
X100671580Y-63426263D01*
X100684698Y-63432947D01*
X100778475Y-63447799D01*
X100778481Y-63447800D01*
X101141518Y-63447799D01*
X101235304Y-63432946D01*
X101348342Y-63375350D01*
X101438050Y-63285642D01*
X101495646Y-63172604D01*
X101495646Y-63172602D01*
X101495647Y-63172601D01*
X101510499Y-63078824D01*
X101510500Y-63078819D01*
X101510499Y-62905073D01*
X101518559Y-62861098D01*
X101525036Y-62844020D01*
X101525037Y-62844018D01*
X101542049Y-62703904D01*
X101569670Y-62639728D01*
X101577453Y-62631182D01*
X102829489Y-61379146D01*
X102849346Y-61363022D01*
X102858436Y-61357084D01*
X102880251Y-61329054D01*
X102885319Y-61323316D01*
X102888120Y-61320517D01*
X102901688Y-61301513D01*
X102935409Y-61258189D01*
X102935410Y-61258183D01*
X102939143Y-61251287D01*
X102942606Y-61244203D01*
X102942610Y-61244199D01*
X102958273Y-61191587D01*
X102958688Y-61190380D01*
X102961460Y-61182305D01*
X102976100Y-61139660D01*
X102976100Y-61139655D01*
X102977395Y-61131895D01*
X102978369Y-61124086D01*
X102976100Y-61069231D01*
X102976100Y-57778908D01*
X102995785Y-57711869D01*
X103048589Y-57666114D01*
X103117747Y-57656170D01*
X103166071Y-57673914D01*
X103180625Y-57683059D01*
X103253506Y-57728854D01*
X103253507Y-57728854D01*
X103253510Y-57728856D01*
X103332807Y-57756603D01*
X103413143Y-57784714D01*
X103581197Y-57803649D01*
X103581200Y-57803649D01*
X103581203Y-57803649D01*
X103749256Y-57784714D01*
X103777000Y-57775006D01*
X103908890Y-57728856D01*
X103908892Y-57728854D01*
X103908894Y-57728854D01*
X103908897Y-57728852D01*
X104052084Y-57638881D01*
X104052085Y-57638880D01*
X104052090Y-57638877D01*
X104171677Y-57519290D01*
X104171681Y-57519284D01*
X104261652Y-57376097D01*
X104261654Y-57376094D01*
X104261654Y-57376092D01*
X104261656Y-57376090D01*
X104317513Y-57216459D01*
X104317513Y-57216458D01*
X104317514Y-57216456D01*
X104336449Y-57048402D01*
X104336449Y-57048397D01*
X104317514Y-56880343D01*
X104272640Y-56752100D01*
X104261656Y-56720710D01*
X104261655Y-56720709D01*
X104261654Y-56720705D01*
X104261652Y-56720702D01*
X104171681Y-56577515D01*
X104171676Y-56577509D01*
X104052090Y-56457923D01*
X104052084Y-56457918D01*
X103908897Y-56367947D01*
X103908894Y-56367945D01*
X103749256Y-56312085D01*
X103680616Y-56304352D01*
X103616202Y-56277285D01*
X103576647Y-56219690D01*
X103570500Y-56181132D01*
X103570500Y-53402699D01*
X103573139Y-53377251D01*
X103575367Y-53366625D01*
X103571496Y-53335582D01*
X103570975Y-53331403D01*
X103570499Y-53323721D01*
X103570500Y-53319781D01*
X103566655Y-53296742D01*
X103559865Y-53242269D01*
X103559865Y-53242268D01*
X103557617Y-53234722D01*
X103555065Y-53227285D01*
X103528942Y-53179014D01*
X103519002Y-53158681D01*
X103504826Y-53129683D01*
X103504823Y-53129680D01*
X103504823Y-53129679D01*
X103500267Y-53123297D01*
X103495423Y-53117073D01*
X103495419Y-53117069D01*
X103455041Y-53079898D01*
X103124924Y-52749780D01*
X103091439Y-52688457D01*
X103088605Y-52662099D01*
X103088605Y-52545293D01*
X103091245Y-52519844D01*
X103093472Y-52509222D01*
X103092115Y-52498336D01*
X103089080Y-52473996D01*
X103088604Y-52466315D01*
X103088605Y-52462375D01*
X103084762Y-52439346D01*
X103077971Y-52384864D01*
X103077970Y-52384862D01*
X103075726Y-52377326D01*
X103073171Y-52369881D01*
X103060857Y-52347128D01*
X103047046Y-52321607D01*
X103022931Y-52272278D01*
X103022928Y-52272275D01*
X103022928Y-52272274D01*
X103018385Y-52265910D01*
X103013525Y-52259665D01*
X103013524Y-52259663D01*
X102973134Y-52222481D01*
X102492712Y-51742059D01*
X102008835Y-51258181D01*
X101975350Y-51196858D01*
X101980334Y-51127166D01*
X102022206Y-51071233D01*
X102087670Y-51046816D01*
X102096516Y-51046500D01*
X105649100Y-51046500D01*
X105716139Y-51066185D01*
G37*
%TD.AperFunction*%
%TA.AperFunction,Conductor*%
G36*
X102168139Y-58451384D02*
G01*
X102213894Y-58504188D01*
X102225100Y-58555699D01*
X102225100Y-60870100D01*
X102205415Y-60937139D01*
X102188781Y-60957781D01*
X101480921Y-61665640D01*
X101419598Y-61699125D01*
X101349906Y-61694141D01*
X101336952Y-61688446D01*
X101235304Y-61636654D01*
X101234101Y-61636041D01*
X101183306Y-61588067D01*
X101166511Y-61520246D01*
X101189049Y-61454111D01*
X101205708Y-61435131D01*
X101206131Y-61434587D01*
X101206136Y-61434584D01*
X101227951Y-61406554D01*
X101233019Y-61400816D01*
X101235820Y-61398017D01*
X101249388Y-61379013D01*
X101283109Y-61335689D01*
X101283110Y-61335683D01*
X101286843Y-61328787D01*
X101290306Y-61321703D01*
X101290310Y-61321699D01*
X101305973Y-61269087D01*
X101306176Y-61268498D01*
X101314517Y-61244199D01*
X101323800Y-61217160D01*
X101323800Y-61217155D01*
X101325095Y-61209395D01*
X101326069Y-61201588D01*
X101325605Y-61190378D01*
X101325180Y-61180104D01*
X101342076Y-61112310D01*
X101361390Y-61087301D01*
X101438050Y-61010642D01*
X101495646Y-60897604D01*
X101495646Y-60897602D01*
X101495647Y-60897601D01*
X101510499Y-60803824D01*
X101510500Y-60803819D01*
X101510499Y-59715782D01*
X101495646Y-59621996D01*
X101438050Y-59508958D01*
X101438046Y-59508954D01*
X101438045Y-59508952D01*
X101348347Y-59419254D01*
X101348344Y-59419252D01*
X101348342Y-59419250D01*
X101271517Y-59380105D01*
X101235301Y-59361652D01*
X101141524Y-59346800D01*
X100778482Y-59346800D01*
X100708513Y-59357882D01*
X100684696Y-59361654D01*
X100571658Y-59419250D01*
X100571657Y-59419251D01*
X100571652Y-59419254D01*
X100481954Y-59508952D01*
X100481951Y-59508957D01*
X100481950Y-59508958D01*
X100469615Y-59533167D01*
X100424352Y-59621998D01*
X100409500Y-59715775D01*
X100409500Y-60803817D01*
X100418621Y-60861407D01*
X100424354Y-60897604D01*
X100467773Y-60982819D01*
X100480669Y-61051485D01*
X100454393Y-61116225D01*
X100444969Y-61126792D01*
X99745508Y-61826252D01*
X99725658Y-61842374D01*
X99722856Y-61844205D01*
X99655968Y-61864398D01*
X99588781Y-61845224D01*
X99544540Y-61796696D01*
X99538050Y-61783958D01*
X99538047Y-61783955D01*
X99538045Y-61783952D01*
X99448347Y-61694254D01*
X99448344Y-61694252D01*
X99448342Y-61694250D01*
X99371517Y-61655105D01*
X99335301Y-61636652D01*
X99241524Y-61621800D01*
X98878482Y-61621800D01*
X98797519Y-61634623D01*
X98784696Y-61636654D01*
X98671658Y-61694250D01*
X98671657Y-61694251D01*
X98671652Y-61694254D01*
X98581954Y-61783952D01*
X98581951Y-61783957D01*
X98581950Y-61783958D01*
X98539843Y-61866596D01*
X98491870Y-61917391D01*
X98429360Y-61934300D01*
X97985263Y-61934300D01*
X97941930Y-61926482D01*
X97878299Y-61902749D01*
X97878295Y-61902748D01*
X97820190Y-61896500D01*
X97820174Y-61896500D01*
X97251826Y-61896500D01*
X97251809Y-61896500D01*
X97193700Y-61902748D01*
X97062219Y-61951789D01*
X96949884Y-62035884D01*
X96865789Y-62148219D01*
X96816748Y-62279700D01*
X96810500Y-62337809D01*
X96810500Y-62931190D01*
X96816748Y-62989299D01*
X96849589Y-63077347D01*
X96865444Y-63119857D01*
X96865789Y-63120780D01*
X96876424Y-63134986D01*
X96900841Y-63200451D01*
X96900253Y-63224243D01*
X96880722Y-63385099D01*
X96880722Y-63385100D01*
X96899762Y-63541917D01*
X96908945Y-63566128D01*
X96914312Y-63635791D01*
X96881165Y-63697298D01*
X96820027Y-63731119D01*
X96793003Y-63734100D01*
X95572099Y-63734100D01*
X95505060Y-63714415D01*
X95484418Y-63697781D01*
X94967818Y-63181180D01*
X94934333Y-63119857D01*
X94931499Y-63093507D01*
X94931499Y-62748894D01*
X94931499Y-62748893D01*
X94931499Y-62748888D01*
X94916276Y-62652771D01*
X94916276Y-62652770D01*
X94916275Y-62652768D01*
X94916275Y-62652767D01*
X94857241Y-62536906D01*
X94857239Y-62536904D01*
X94857236Y-62536900D01*
X94765299Y-62444963D01*
X94765295Y-62444960D01*
X94765294Y-62444960D01*
X94765294Y-62444959D01*
X94649433Y-62385925D01*
X94649431Y-62385924D01*
X94649428Y-62385923D01*
X94553307Y-62370700D01*
X94414052Y-62370700D01*
X94347013Y-62351015D01*
X94301258Y-62298211D01*
X94291314Y-62229053D01*
X94303567Y-62190406D01*
X94317616Y-62162833D01*
X94320961Y-62156268D01*
X94320961Y-62156266D01*
X94320962Y-62156265D01*
X94336000Y-62061316D01*
X94336000Y-61687483D01*
X94320962Y-61592536D01*
X94320961Y-61592534D01*
X94320961Y-61592532D01*
X94262646Y-61478082D01*
X94262644Y-61478080D01*
X94262641Y-61478076D01*
X94171823Y-61387258D01*
X94171819Y-61387255D01*
X94171818Y-61387254D01*
X94057368Y-61328939D01*
X94057366Y-61328938D01*
X94057359Y-61328935D01*
X94053367Y-61327638D01*
X94049141Y-61324748D01*
X94048672Y-61324509D01*
X94048702Y-61324448D01*
X93995694Y-61288197D01*
X93968500Y-61223836D01*
X93969220Y-61190312D01*
X93978091Y-61134300D01*
X93981700Y-61111516D01*
X93981700Y-60977660D01*
X94001385Y-60910621D01*
X94054189Y-60864866D01*
X94123347Y-60854922D01*
X94132059Y-60856494D01*
X94140309Y-60858288D01*
X94140317Y-60858291D01*
X94192058Y-60861991D01*
X94196457Y-60862464D01*
X94212001Y-60864700D01*
X94227706Y-60864700D01*
X94232128Y-60864857D01*
X94283873Y-60868559D01*
X94288584Y-60867534D01*
X94314943Y-60864700D01*
X94698792Y-60864700D01*
X94765831Y-60884385D01*
X94811586Y-60937189D01*
X94814974Y-60945368D01*
X94839201Y-61010326D01*
X94839206Y-61010335D01*
X94925452Y-61125544D01*
X94925455Y-61125547D01*
X95040664Y-61211793D01*
X95040671Y-61211797D01*
X95175517Y-61262091D01*
X95175516Y-61262091D01*
X95182444Y-61262835D01*
X95235127Y-61268500D01*
X96280872Y-61268499D01*
X96340483Y-61262091D01*
X96475331Y-61211796D01*
X96590546Y-61125546D01*
X96596568Y-61117500D01*
X96652499Y-61075630D01*
X96722191Y-61070644D01*
X96783515Y-61104128D01*
X96813193Y-61157346D01*
X96814038Y-61157031D01*
X96816098Y-61162556D01*
X96816513Y-61163299D01*
X96816749Y-61164301D01*
X96836463Y-61217155D01*
X96862960Y-61288197D01*
X96865789Y-61295780D01*
X96895665Y-61335689D01*
X96949884Y-61408116D01*
X97011326Y-61454111D01*
X97061182Y-61491434D01*
X97062222Y-61492212D01*
X97154554Y-61526650D01*
X97193700Y-61541251D01*
X97251809Y-61547499D01*
X97251826Y-61547500D01*
X97820174Y-61547500D01*
X97820190Y-61547499D01*
X97878299Y-61541251D01*
X97888581Y-61537416D01*
X98009778Y-61492212D01*
X98122116Y-61408116D01*
X98206212Y-61295778D01*
X98255251Y-61164299D01*
X98257900Y-61139660D01*
X98261499Y-61106190D01*
X98261500Y-61106173D01*
X98261500Y-60988700D01*
X98281185Y-60921661D01*
X98333989Y-60875906D01*
X98385500Y-60864700D01*
X98431602Y-60864700D01*
X98498641Y-60884385D01*
X98542084Y-60932402D01*
X98581789Y-61010326D01*
X98581951Y-61010643D01*
X98581954Y-61010647D01*
X98671652Y-61100345D01*
X98671654Y-61100346D01*
X98671658Y-61100350D01*
X98784694Y-61157945D01*
X98784698Y-61157947D01*
X98878475Y-61172799D01*
X98878481Y-61172800D01*
X99241518Y-61172799D01*
X99335304Y-61157946D01*
X99448342Y-61100350D01*
X99538050Y-61010642D01*
X99595646Y-60897604D01*
X99595646Y-60897602D01*
X99595647Y-60897601D01*
X99610499Y-60803824D01*
X99610500Y-60803819D01*
X99610499Y-59715782D01*
X99595646Y-59621996D01*
X99538050Y-59508958D01*
X99538046Y-59508954D01*
X99538045Y-59508952D01*
X99448347Y-59419254D01*
X99448344Y-59419252D01*
X99448342Y-59419250D01*
X99393250Y-59391179D01*
X99342455Y-59343205D01*
X99325660Y-59275384D01*
X99348198Y-59209249D01*
X99397141Y-59168313D01*
X99399958Y-59166999D01*
X99399960Y-59166999D01*
X99452796Y-59142360D01*
X99521873Y-59131869D01*
X99557601Y-59142359D01*
X99610440Y-59166999D01*
X99656021Y-59173000D01*
X99854378Y-59172999D01*
X99854380Y-59172999D01*
X99874054Y-59170409D01*
X99899960Y-59166999D01*
X99939490Y-59148565D01*
X100008566Y-59138074D01*
X100039348Y-59146388D01*
X100077455Y-59162173D01*
X100077464Y-59162176D01*
X100175197Y-59181616D01*
X100175199Y-59181616D01*
X100175200Y-59181616D01*
X100181867Y-59180290D01*
X100206055Y-59177908D01*
X100304342Y-59177908D01*
X100328531Y-59180290D01*
X100329514Y-59180485D01*
X100335198Y-59181616D01*
X100432938Y-59162175D01*
X100432948Y-59162171D01*
X100467375Y-59147912D01*
X100467379Y-59147910D01*
X100467382Y-59147908D01*
X100467385Y-59147907D01*
X100550245Y-59092541D01*
X100605609Y-59009680D01*
X100610841Y-58997047D01*
X100654683Y-58942644D01*
X100720977Y-58920579D01*
X100725403Y-58920500D01*
X101139155Y-58920500D01*
X101164600Y-58923139D01*
X101168399Y-58923935D01*
X101175227Y-58925367D01*
X101196184Y-58922754D01*
X101210451Y-58920977D01*
X101218127Y-58920500D01*
X101222071Y-58920500D01*
X101222073Y-58920500D01*
X101222075Y-58920499D01*
X101222081Y-58920499D01*
X101237446Y-58917934D01*
X101245099Y-58916657D01*
X101299585Y-58909866D01*
X101299586Y-58909865D01*
X101299588Y-58909865D01*
X101307100Y-58907628D01*
X101314565Y-58905066D01*
X101314565Y-58905065D01*
X101314569Y-58905065D01*
X101362836Y-58878944D01*
X101412170Y-58854826D01*
X101412172Y-58854823D01*
X101418553Y-58850268D01*
X101424778Y-58845422D01*
X101424785Y-58845419D01*
X101461967Y-58805028D01*
X101798977Y-58468017D01*
X101860300Y-58434533D01*
X101886658Y-58431699D01*
X102101100Y-58431699D01*
X102168139Y-58451384D01*
G37*
%TD.AperFunction*%
%TA.AperFunction,Conductor*%
G36*
X88870126Y-61044431D02*
G01*
X88893489Y-61061922D01*
X88897198Y-61064400D01*
X88897199Y-61064401D01*
X88910630Y-61073375D01*
X88942656Y-61104423D01*
X88948341Y-61112386D01*
X88953182Y-61118605D01*
X88993570Y-61155786D01*
X89622681Y-61784897D01*
X89656166Y-61846220D01*
X89659000Y-61872577D01*
X89659001Y-62060699D01*
X89639317Y-62127739D01*
X89586513Y-62173494D01*
X89535001Y-62184700D01*
X88651400Y-62184700D01*
X88584361Y-62165015D01*
X88538606Y-62112211D01*
X88527400Y-62060700D01*
X88527400Y-61738283D01*
X88512362Y-61643336D01*
X88512361Y-61643334D01*
X88512361Y-61643332D01*
X88454046Y-61528882D01*
X88454044Y-61528880D01*
X88452908Y-61526650D01*
X88440012Y-61457980D01*
X88466289Y-61393240D01*
X88489079Y-61371089D01*
X88580416Y-61302716D01*
X88664512Y-61190378D01*
X88694518Y-61109926D01*
X88736389Y-61053996D01*
X88801853Y-61029579D01*
X88870126Y-61044431D01*
G37*
%TD.AperFunction*%
%TA.AperFunction,Conductor*%
G36*
X96173795Y-59137379D02*
G01*
X96224699Y-59135060D01*
X96285135Y-59170121D01*
X96317022Y-59232290D01*
X96311156Y-59299474D01*
X96289006Y-59357878D01*
X96289006Y-59357880D01*
X96273759Y-59483447D01*
X96246137Y-59547625D01*
X96188202Y-59586681D01*
X96150663Y-59592500D01*
X95235129Y-59592500D01*
X95235123Y-59592501D01*
X95175516Y-59598908D01*
X95040671Y-59649202D01*
X95040664Y-59649206D01*
X94925455Y-59735452D01*
X94866645Y-59814012D01*
X94810711Y-59855882D01*
X94767379Y-59863700D01*
X94506476Y-59863700D01*
X94439437Y-59844015D01*
X94418795Y-59827381D01*
X94025785Y-59434371D01*
X94009150Y-59413728D01*
X94006545Y-59409674D01*
X94006543Y-59409672D01*
X93977554Y-59384553D01*
X93939781Y-59325778D01*
X93939781Y-59255908D01*
X93977554Y-59197130D01*
X94041110Y-59168104D01*
X94053635Y-59166948D01*
X94103156Y-59164900D01*
X94685701Y-59164900D01*
X94711146Y-59167539D01*
X94713842Y-59168104D01*
X94721773Y-59169767D01*
X94744389Y-59166948D01*
X94756997Y-59165377D01*
X94764673Y-59164900D01*
X94768617Y-59164900D01*
X94768619Y-59164900D01*
X94768621Y-59164899D01*
X94768627Y-59164899D01*
X94784970Y-59162171D01*
X94791645Y-59161057D01*
X94846131Y-59154266D01*
X94846131Y-59154265D01*
X94856327Y-59152995D01*
X94856424Y-59153781D01*
X94874832Y-59151100D01*
X95986992Y-59151100D01*
X96012437Y-59153739D01*
X96016236Y-59154535D01*
X96023064Y-59155967D01*
X96044021Y-59153354D01*
X96058288Y-59151577D01*
X96065964Y-59151100D01*
X96069908Y-59151100D01*
X96069910Y-59151100D01*
X96069912Y-59151099D01*
X96069918Y-59151099D01*
X96089047Y-59147906D01*
X96092936Y-59147257D01*
X96147422Y-59140466D01*
X96147423Y-59140465D01*
X96147425Y-59140465D01*
X96157272Y-59137534D01*
X96157447Y-59138123D01*
X96160258Y-59137995D01*
X96173080Y-59133885D01*
X96173229Y-59133861D01*
X96173795Y-59137379D01*
G37*
%TD.AperFunction*%
%TA.AperFunction,Conductor*%
G36*
X81887166Y-52789385D02*
G01*
X81932921Y-52842189D01*
X81942865Y-52911347D01*
X81933568Y-52940668D01*
X81933639Y-52940691D01*
X81930623Y-52949969D01*
X81915400Y-53046092D01*
X81915400Y-53430711D01*
X81930623Y-53526828D01*
X81930623Y-53526829D01*
X81930624Y-53526832D01*
X81930625Y-53526833D01*
X81987326Y-53638116D01*
X81989660Y-53642695D01*
X81989663Y-53642699D01*
X82081600Y-53734636D01*
X82081604Y-53734639D01*
X82081606Y-53734641D01*
X82197467Y-53793675D01*
X82197469Y-53793675D01*
X82197471Y-53793676D01*
X82226403Y-53798258D01*
X82293593Y-53808900D01*
X82753206Y-53808899D01*
X82753211Y-53808899D01*
X82753211Y-53808898D01*
X82804698Y-53800744D01*
X82849328Y-53793676D01*
X82849329Y-53793676D01*
X82849330Y-53793675D01*
X82849333Y-53793675D01*
X82965194Y-53734641D01*
X82997615Y-53702220D01*
X83033219Y-53666617D01*
X83094542Y-53633132D01*
X83164234Y-53638116D01*
X83208582Y-53666618D01*
X83244183Y-53702220D01*
X83277668Y-53763544D01*
X83272682Y-53833235D01*
X83244183Y-53877581D01*
X83186960Y-53934803D01*
X83186960Y-53934804D01*
X83186958Y-53934806D01*
X83186959Y-53934806D01*
X83156546Y-53994496D01*
X83127923Y-54050671D01*
X83112700Y-54146792D01*
X83112700Y-54531411D01*
X83127924Y-54627531D01*
X83127924Y-54627532D01*
X83153695Y-54678110D01*
X83166591Y-54746780D01*
X83166306Y-54749348D01*
X83164722Y-54762396D01*
X83164722Y-54762400D01*
X83183762Y-54919218D01*
X83223783Y-55024743D01*
X83239780Y-55066923D01*
X83329517Y-55196930D01*
X83447760Y-55301683D01*
X83447761Y-55301683D01*
X83453374Y-55306656D01*
X83451812Y-55308418D01*
X83488560Y-55353763D01*
X83496220Y-55423212D01*
X83465117Y-55485777D01*
X83443024Y-55504631D01*
X83431999Y-55511997D01*
X83376632Y-55594860D01*
X83376631Y-55594864D01*
X83362099Y-55667921D01*
X83362099Y-55967278D01*
X83377242Y-56043408D01*
X83377243Y-56091789D01*
X83362099Y-56167925D01*
X83362099Y-56467277D01*
X83377242Y-56543407D01*
X83377243Y-56591788D01*
X83373897Y-56608611D01*
X83362099Y-56667924D01*
X83362099Y-56967272D01*
X83362099Y-56967274D01*
X83362098Y-56967274D01*
X83377243Y-57043407D01*
X83377243Y-57091791D01*
X83362099Y-57167923D01*
X83362099Y-57467278D01*
X83377242Y-57543407D01*
X83377243Y-57591788D01*
X83364492Y-57655894D01*
X83362099Y-57667924D01*
X83362099Y-57967272D01*
X83362099Y-57967274D01*
X83362098Y-57967274D01*
X83377243Y-58043407D01*
X83377243Y-58091791D01*
X83362099Y-58167923D01*
X83362099Y-58428500D01*
X83342414Y-58495539D01*
X83289610Y-58541294D01*
X83238099Y-58552500D01*
X80787101Y-58552500D01*
X80720062Y-58532815D01*
X80674307Y-58480011D01*
X80663101Y-58428500D01*
X80663101Y-58167923D01*
X80663100Y-58167921D01*
X80647957Y-58091789D01*
X80647957Y-58043406D01*
X80663101Y-57967274D01*
X80663101Y-57667921D01*
X80647957Y-57591791D01*
X80647957Y-57543407D01*
X80663101Y-57467276D01*
X80663101Y-57167923D01*
X80647957Y-57091792D01*
X80647957Y-57043408D01*
X80663101Y-56967276D01*
X80663101Y-56667923D01*
X80663100Y-56667921D01*
X80648568Y-56594864D01*
X80648567Y-56594860D01*
X80639422Y-56581173D01*
X80593202Y-56511999D01*
X80526264Y-56467273D01*
X80510340Y-56456633D01*
X80510336Y-56456632D01*
X80437278Y-56442100D01*
X80437275Y-56442100D01*
X80130692Y-56442100D01*
X80125577Y-56441888D01*
X80116482Y-56441134D01*
X80081166Y-56438207D01*
X80080974Y-56438255D01*
X80080775Y-56438306D01*
X80050338Y-56442100D01*
X79787924Y-56442100D01*
X79714865Y-56456632D01*
X79714862Y-56456633D01*
X79651771Y-56498788D01*
X79585093Y-56519664D01*
X79517713Y-56501178D01*
X79508009Y-56493499D01*
X79507793Y-56493798D01*
X79499895Y-56488060D01*
X79499894Y-56488059D01*
X79384033Y-56429025D01*
X79384031Y-56429024D01*
X79384028Y-56429023D01*
X79287907Y-56413800D01*
X78903288Y-56413800D01*
X78903288Y-56413801D01*
X78807171Y-56429023D01*
X78807170Y-56429023D01*
X78691304Y-56488060D01*
X78599354Y-56580011D01*
X78593619Y-56587905D01*
X78592233Y-56586898D01*
X78552108Y-56629388D01*
X78489593Y-56646300D01*
X78292900Y-56646300D01*
X78225861Y-56626615D01*
X78180106Y-56573811D01*
X78168900Y-56522300D01*
X78168900Y-55531829D01*
X78188585Y-55464790D01*
X78205219Y-55444148D01*
X78608148Y-55041219D01*
X78669471Y-55007734D01*
X78695829Y-55004900D01*
X79275001Y-55004900D01*
X79275009Y-55004900D01*
X79405555Y-54989641D01*
X79411773Y-54987377D01*
X79454182Y-54979900D01*
X79577974Y-54979900D01*
X79577990Y-54979899D01*
X79636099Y-54973651D01*
X79662867Y-54963667D01*
X79767578Y-54924612D01*
X79879916Y-54840516D01*
X79964012Y-54728178D01*
X80013051Y-54596699D01*
X80013050Y-54596698D01*
X80019299Y-54538590D01*
X80019300Y-54538573D01*
X80019300Y-53970226D01*
X80019299Y-53970209D01*
X80013051Y-53912100D01*
X79964012Y-53780622D01*
X79959762Y-53772839D01*
X79961656Y-53771804D01*
X79941452Y-53717643D01*
X79956302Y-53649369D01*
X79977452Y-53621114D01*
X80792548Y-52806019D01*
X80853871Y-52772534D01*
X80880229Y-52769700D01*
X81820127Y-52769700D01*
X81887166Y-52789385D01*
G37*
%TD.AperFunction*%
%TA.AperFunction,Conductor*%
G36*
X98057601Y-55267359D02*
G01*
X98110440Y-55291999D01*
X98156021Y-55298000D01*
X98354378Y-55297999D01*
X98399960Y-55291999D01*
X98399961Y-55291998D01*
X98405684Y-55291245D01*
X98474719Y-55302011D01*
X98526974Y-55348391D01*
X98545859Y-55415661D01*
X98532945Y-55466752D01*
X98533240Y-55466864D01*
X98532271Y-55469418D01*
X98531669Y-55471801D01*
X98530582Y-55473872D01*
X98474562Y-55621581D01*
X98455522Y-55778399D01*
X98455522Y-55778400D01*
X98474562Y-55935218D01*
X98528167Y-56076561D01*
X98530580Y-56082923D01*
X98620317Y-56212930D01*
X98738560Y-56317683D01*
X98738562Y-56317684D01*
X98878434Y-56391096D01*
X99031814Y-56428900D01*
X99031815Y-56428900D01*
X99189785Y-56428900D01*
X99343165Y-56391096D01*
X99369898Y-56377065D01*
X99483040Y-56317683D01*
X99601283Y-56212930D01*
X99691020Y-56082923D01*
X99747037Y-55935218D01*
X99766078Y-55778400D01*
X99763642Y-55758333D01*
X99747037Y-55621581D01*
X99702088Y-55503062D01*
X99691020Y-55473877D01*
X99691019Y-55473876D01*
X99688360Y-55466864D01*
X99691272Y-55465759D01*
X99680303Y-55411202D01*
X99705750Y-55346131D01*
X99762337Y-55305148D01*
X99803830Y-55297999D01*
X99854378Y-55297999D01*
X99867274Y-55296301D01*
X99936306Y-55307066D01*
X99988563Y-55353445D01*
X100007449Y-55420713D01*
X100006398Y-55435421D01*
X100004700Y-55448316D01*
X100004700Y-55646680D01*
X100010700Y-55692256D01*
X100010703Y-55692266D01*
X100035338Y-55745096D01*
X100045830Y-55814173D01*
X100035339Y-55849903D01*
X100012026Y-55899900D01*
X100010700Y-55902743D01*
X100004701Y-55948311D01*
X100004700Y-55948327D01*
X100004700Y-56146680D01*
X100010700Y-56192256D01*
X100010703Y-56192266D01*
X100035338Y-56245096D01*
X100045830Y-56314173D01*
X100035339Y-56349903D01*
X100016871Y-56389510D01*
X100010700Y-56402743D01*
X100004701Y-56448311D01*
X100004700Y-56448327D01*
X100004700Y-56646680D01*
X100010700Y-56692256D01*
X100010703Y-56692266D01*
X100035338Y-56745096D01*
X100045830Y-56814173D01*
X100035339Y-56849903D01*
X100019853Y-56883115D01*
X100010700Y-56902743D01*
X100004701Y-56948311D01*
X100004700Y-56948327D01*
X100004700Y-57146680D01*
X100010700Y-57192256D01*
X100010703Y-57192266D01*
X100035338Y-57245096D01*
X100045830Y-57314173D01*
X100035339Y-57349903D01*
X100011758Y-57400475D01*
X100010700Y-57402743D01*
X100004701Y-57448311D01*
X100004700Y-57448327D01*
X100004700Y-57646676D01*
X100006399Y-57659578D01*
X99995630Y-57728613D01*
X99949248Y-57780866D01*
X99881978Y-57799749D01*
X99867277Y-57798698D01*
X99854381Y-57797000D01*
X99727886Y-57797000D01*
X99660847Y-57777315D01*
X99615092Y-57724511D01*
X99605148Y-57655353D01*
X99607492Y-57643313D01*
X99607587Y-57642926D01*
X99607590Y-57642919D01*
X99626631Y-57486101D01*
X99624808Y-57471083D01*
X99607590Y-57329282D01*
X99566704Y-57221475D01*
X99551573Y-57181578D01*
X99461836Y-57051571D01*
X99343593Y-56946818D01*
X99343591Y-56946817D01*
X99343590Y-56946816D01*
X99203718Y-56873404D01*
X99050339Y-56835601D01*
X99050338Y-56835601D01*
X98892368Y-56835601D01*
X98892367Y-56835601D01*
X98738987Y-56873404D01*
X98599115Y-56946816D01*
X98480869Y-57051572D01*
X98391134Y-57181576D01*
X98391133Y-57181577D01*
X98335115Y-57329282D01*
X98316075Y-57486100D01*
X98316075Y-57486101D01*
X98335116Y-57642922D01*
X98335216Y-57643327D01*
X98335202Y-57643632D01*
X98336020Y-57650365D01*
X98334900Y-57650500D01*
X98332146Y-57713130D01*
X98291825Y-57770191D01*
X98227055Y-57796395D01*
X98214821Y-57797000D01*
X98156020Y-57797000D01*
X98110443Y-57803000D01*
X98110438Y-57803001D01*
X98057603Y-57827639D01*
X97988525Y-57838130D01*
X97952795Y-57827638D01*
X97899959Y-57803000D01*
X97854388Y-57797001D01*
X97854385Y-57797000D01*
X97854379Y-57797000D01*
X97854372Y-57797000D01*
X97656022Y-57797000D01*
X97643120Y-57798699D01*
X97574086Y-57787930D01*
X97521832Y-57741547D01*
X97502950Y-57674278D01*
X97504001Y-57659583D01*
X97505700Y-57646679D01*
X97505699Y-57448322D01*
X97505118Y-57443911D01*
X97499699Y-57402743D01*
X97499699Y-57402740D01*
X97475060Y-57349903D01*
X97464569Y-57280827D01*
X97475058Y-57245101D01*
X97499699Y-57192260D01*
X97505700Y-57146679D01*
X97505699Y-56948322D01*
X97499699Y-56902740D01*
X97453050Y-56802701D01*
X97374999Y-56724650D01*
X97274960Y-56678001D01*
X97274958Y-56678000D01*
X97229388Y-56672001D01*
X97229385Y-56672000D01*
X97229379Y-56672000D01*
X97229372Y-56672000D01*
X96124204Y-56672000D01*
X96098763Y-56669362D01*
X96093989Y-56668361D01*
X96086708Y-56664456D01*
X96084343Y-56665977D01*
X96064748Y-56670047D01*
X96062506Y-56670327D01*
X96052909Y-56671523D01*
X96045232Y-56672000D01*
X96041286Y-56672000D01*
X96026087Y-56674536D01*
X96018258Y-56675842D01*
X95963770Y-56682634D01*
X95956257Y-56684871D01*
X95948787Y-56687436D01*
X95900522Y-56713555D01*
X95851192Y-56737671D01*
X95844775Y-56742253D01*
X95838575Y-56747079D01*
X95801392Y-56787470D01*
X95627281Y-56961581D01*
X95565958Y-56995066D01*
X95539600Y-56997900D01*
X95215484Y-56997900D01*
X95120536Y-57012937D01*
X95120532Y-57012938D01*
X95120532Y-57012939D01*
X95114032Y-57016251D01*
X95006080Y-57071255D01*
X95006076Y-57071258D01*
X94915258Y-57162076D01*
X94915255Y-57162080D01*
X94915253Y-57162082D01*
X94915254Y-57162082D01*
X94864509Y-57261676D01*
X94856937Y-57276536D01*
X94843984Y-57358324D01*
X94814055Y-57421458D01*
X94754744Y-57458390D01*
X94684881Y-57457392D01*
X94676707Y-57454018D01*
X94676577Y-57454363D01*
X94669565Y-57451703D01*
X94516186Y-57413900D01*
X94516185Y-57413900D01*
X94358215Y-57413900D01*
X94358214Y-57413900D01*
X94204834Y-57451703D01*
X94064961Y-57525115D01*
X94064959Y-57525117D01*
X93982755Y-57597942D01*
X93919522Y-57627663D01*
X93850258Y-57618479D01*
X93818304Y-57597943D01*
X93793440Y-57575917D01*
X93793438Y-57575915D01*
X93653565Y-57502503D01*
X93500186Y-57464700D01*
X93500185Y-57464700D01*
X93342215Y-57464700D01*
X93342214Y-57464700D01*
X93188834Y-57502503D01*
X93048962Y-57575915D01*
X93020979Y-57600706D01*
X92945105Y-57667924D01*
X92930716Y-57680671D01*
X92840981Y-57810674D01*
X92815903Y-57876799D01*
X92773724Y-57932502D01*
X92708126Y-57956558D01*
X92675770Y-57954445D01*
X92630782Y-57945496D01*
X92607674Y-57940900D01*
X90958126Y-57940900D01*
X90958124Y-57940900D01*
X90885063Y-57955432D01*
X90877852Y-57958420D01*
X90808382Y-57965888D01*
X90782948Y-57958420D01*
X90775736Y-57955432D01*
X90702676Y-57940900D01*
X90702674Y-57940900D01*
X89053126Y-57940900D01*
X89053123Y-57940900D01*
X88980064Y-57955432D01*
X88980060Y-57955433D01*
X88897199Y-58010799D01*
X88841834Y-58093659D01*
X88841193Y-58096883D01*
X88835482Y-58125592D01*
X88803098Y-58187502D01*
X88742382Y-58222076D01*
X88713865Y-58225400D01*
X88548105Y-58225400D01*
X88481066Y-58205715D01*
X88473794Y-58200667D01*
X88468080Y-58196389D01*
X88468078Y-58196388D01*
X88421518Y-58179022D01*
X88336599Y-58147348D01*
X88278490Y-58141100D01*
X88278474Y-58141100D01*
X87710126Y-58141100D01*
X87710109Y-58141100D01*
X87652000Y-58147348D01*
X87569329Y-58178184D01*
X87499637Y-58183168D01*
X87438314Y-58149683D01*
X87404829Y-58088360D01*
X87409813Y-58018669D01*
X87438312Y-57974324D01*
X87966217Y-57446419D01*
X88027541Y-57412934D01*
X88053899Y-57410100D01*
X90690578Y-57410100D01*
X90709975Y-57411626D01*
X90735693Y-57415700D01*
X91195306Y-57415699D01*
X91195311Y-57415699D01*
X91195311Y-57415698D01*
X91243369Y-57408086D01*
X91291428Y-57400476D01*
X91291429Y-57400476D01*
X91291430Y-57400475D01*
X91291433Y-57400475D01*
X91407294Y-57341441D01*
X91499241Y-57249494D01*
X91558275Y-57133633D01*
X91573500Y-57037507D01*
X91573499Y-56652894D01*
X91573499Y-56652893D01*
X91573499Y-56652888D01*
X91558276Y-56556771D01*
X91558275Y-56556767D01*
X91494815Y-56432219D01*
X91481300Y-56375925D01*
X91481300Y-56138297D01*
X91500985Y-56071258D01*
X91517613Y-56050621D01*
X91592157Y-55976077D01*
X91653476Y-55942595D01*
X91723168Y-55947579D01*
X91767514Y-55976078D01*
X91827082Y-56035646D01*
X91941532Y-56093961D01*
X91941534Y-56093961D01*
X91941536Y-56093962D01*
X92036483Y-56109000D01*
X92036484Y-56109000D01*
X92410316Y-56109000D01*
X92505263Y-56093962D01*
X92505263Y-56093961D01*
X92505268Y-56093961D01*
X92619718Y-56035646D01*
X92710546Y-55944818D01*
X92768861Y-55830368D01*
X92771199Y-55815610D01*
X92783900Y-55735416D01*
X92783900Y-55425550D01*
X92803585Y-55358511D01*
X92856389Y-55312756D01*
X92925547Y-55302812D01*
X92989103Y-55331837D01*
X93007167Y-55351240D01*
X93016454Y-55363646D01*
X93016455Y-55363647D01*
X93131664Y-55449893D01*
X93131671Y-55449897D01*
X93266517Y-55500191D01*
X93266516Y-55500191D01*
X93273444Y-55500935D01*
X93326127Y-55506600D01*
X94104599Y-55506599D01*
X94171638Y-55526283D01*
X94192280Y-55542918D01*
X94351850Y-55702488D01*
X94367975Y-55722344D01*
X94373913Y-55731432D01*
X94373916Y-55731436D01*
X94393825Y-55746932D01*
X94401925Y-55753236D01*
X94407687Y-55758325D01*
X94410482Y-55761120D01*
X94429495Y-55774694D01*
X94472811Y-55808409D01*
X94472818Y-55808411D01*
X94479720Y-55812147D01*
X94486796Y-55815606D01*
X94486801Y-55815610D01*
X94495162Y-55818099D01*
X94539403Y-55831270D01*
X94591338Y-55849100D01*
X94599072Y-55850390D01*
X94606910Y-55851367D01*
X94606912Y-55851368D01*
X94606913Y-55851367D01*
X94606914Y-55851368D01*
X94661756Y-55849100D01*
X94799362Y-55849100D01*
X94866401Y-55868785D01*
X94909845Y-55916803D01*
X94915254Y-55927418D01*
X94915256Y-55927420D01*
X94915258Y-55927423D01*
X95006076Y-56018241D01*
X95006080Y-56018244D01*
X95006082Y-56018246D01*
X95120532Y-56076561D01*
X95120534Y-56076561D01*
X95120536Y-56076562D01*
X95215483Y-56091600D01*
X95215484Y-56091600D01*
X95438001Y-56091600D01*
X95505040Y-56111285D01*
X95525682Y-56127919D01*
X95674149Y-56276386D01*
X95690277Y-56296245D01*
X95692286Y-56299320D01*
X95694537Y-56302767D01*
X95696216Y-56305336D01*
X95724232Y-56327141D01*
X95729993Y-56332230D01*
X95732782Y-56335019D01*
X95751783Y-56348585D01*
X95786909Y-56375925D01*
X95795111Y-56382309D01*
X95802004Y-56386039D01*
X95809096Y-56389506D01*
X95809101Y-56389510D01*
X95828775Y-56395367D01*
X95861703Y-56405170D01*
X95913638Y-56423000D01*
X95921372Y-56424290D01*
X95929210Y-56425267D01*
X95929212Y-56425268D01*
X95929213Y-56425267D01*
X95929214Y-56425268D01*
X95984056Y-56423000D01*
X96049408Y-56423000D01*
X96084027Y-56433165D01*
X96109655Y-56423386D01*
X96119434Y-56423000D01*
X96858804Y-56423000D01*
X96858816Y-56422999D01*
X97229380Y-56422999D01*
X97244572Y-56420999D01*
X97274960Y-56416999D01*
X97374999Y-56370350D01*
X97453050Y-56292299D01*
X97499699Y-56192260D01*
X97505700Y-56146679D01*
X97505699Y-55948322D01*
X97505603Y-55947595D01*
X97501550Y-55916805D01*
X97499699Y-55902740D01*
X97475060Y-55849903D01*
X97464569Y-55780827D01*
X97475058Y-55745101D01*
X97499699Y-55692260D01*
X97505700Y-55646679D01*
X97505699Y-55448322D01*
X97504001Y-55435425D01*
X97514766Y-55366392D01*
X97561146Y-55314136D01*
X97628414Y-55295250D01*
X97643118Y-55296301D01*
X97656021Y-55298000D01*
X97854378Y-55297999D01*
X97854380Y-55297999D01*
X97869572Y-55295999D01*
X97899960Y-55291999D01*
X97952797Y-55267360D01*
X98021871Y-55256869D01*
X98057601Y-55267359D01*
G37*
%TD.AperFunction*%
%TA.AperFunction,Conductor*%
G36*
X90636342Y-54801985D02*
G01*
X90656984Y-54818619D01*
X90677583Y-54839218D01*
X90711068Y-54900541D01*
X90706084Y-54970233D01*
X90677584Y-55014580D01*
X90609560Y-55082603D01*
X90609560Y-55082604D01*
X90550523Y-55198471D01*
X90535300Y-55294592D01*
X90535300Y-55754211D01*
X90550523Y-55850328D01*
X90550523Y-55850329D01*
X90550524Y-55850332D01*
X90550525Y-55850333D01*
X90609559Y-55966194D01*
X90693982Y-56050617D01*
X90727466Y-56111938D01*
X90730300Y-56138297D01*
X90730300Y-56170352D01*
X90710615Y-56237391D01*
X90657811Y-56283146D01*
X90644627Y-56288280D01*
X90639573Y-56289922D01*
X90639567Y-56289924D01*
X90639567Y-56289925D01*
X90596072Y-56312087D01*
X90523704Y-56348960D01*
X90523700Y-56348963D01*
X90431763Y-56440900D01*
X90431760Y-56440904D01*
X90431758Y-56440906D01*
X90431759Y-56440906D01*
X90381096Y-56540339D01*
X90372722Y-56556773D01*
X90369707Y-56566053D01*
X90367885Y-56565461D01*
X90343158Y-56617629D01*
X90283848Y-56654563D01*
X90250611Y-56659100D01*
X87898804Y-56659100D01*
X87873363Y-56656462D01*
X87867635Y-56655261D01*
X87861749Y-56652104D01*
X87860548Y-56652877D01*
X87840951Y-56656948D01*
X87827508Y-56658623D01*
X87819832Y-56659100D01*
X87815886Y-56659100D01*
X87798615Y-56661981D01*
X87792858Y-56662942D01*
X87738370Y-56669734D01*
X87730857Y-56671971D01*
X87723387Y-56674536D01*
X87675122Y-56700655D01*
X87625792Y-56724771D01*
X87619375Y-56729353D01*
X87613175Y-56734179D01*
X87575992Y-56774570D01*
X86781508Y-57569052D01*
X86761654Y-57585176D01*
X86752565Y-57591114D01*
X86752564Y-57591115D01*
X86730763Y-57619123D01*
X86725686Y-57624874D01*
X86722884Y-57627677D01*
X86722874Y-57627688D01*
X86709305Y-57646695D01*
X86675592Y-57690008D01*
X86671847Y-57696929D01*
X86668388Y-57704004D01*
X86652729Y-57756603D01*
X86634900Y-57808537D01*
X86634004Y-57813910D01*
X86603553Y-57876795D01*
X86543939Y-57913235D01*
X86511695Y-57917500D01*
X85924900Y-57917500D01*
X85857861Y-57897815D01*
X85812106Y-57845011D01*
X85800900Y-57793500D01*
X85800900Y-57471083D01*
X85785862Y-57376136D01*
X85785861Y-57376134D01*
X85785861Y-57376132D01*
X85727546Y-57261682D01*
X85727544Y-57261680D01*
X85727541Y-57261676D01*
X85666031Y-57200166D01*
X85632546Y-57138843D01*
X85637530Y-57069151D01*
X85679402Y-57013218D01*
X85710372Y-56996306D01*
X85788378Y-56967212D01*
X85900716Y-56883116D01*
X85984812Y-56770778D01*
X86033851Y-56639299D01*
X86035215Y-56626615D01*
X86040099Y-56581190D01*
X86040100Y-56581173D01*
X86040100Y-56461939D01*
X86059785Y-56394900D01*
X86112589Y-56349145D01*
X86181747Y-56339201D01*
X86232987Y-56358835D01*
X86287660Y-56395366D01*
X86287662Y-56395366D01*
X86287664Y-56395367D01*
X86360721Y-56409899D01*
X86360724Y-56409900D01*
X87825613Y-56409900D01*
X87858786Y-56419640D01*
X87883301Y-56410286D01*
X87893080Y-56409900D01*
X88010276Y-56409900D01*
X88046269Y-56402740D01*
X88083340Y-56395366D01*
X88083344Y-56395362D01*
X88090543Y-56392382D01*
X88160012Y-56384910D01*
X88185457Y-56392382D01*
X88192656Y-56395363D01*
X88192660Y-56395366D01*
X88221886Y-56401179D01*
X88265723Y-56409900D01*
X88265726Y-56409900D01*
X89915276Y-56409900D01*
X89915277Y-56409899D01*
X89988340Y-56395366D01*
X90071201Y-56340001D01*
X90126566Y-56257140D01*
X90141100Y-56184074D01*
X90141099Y-54906299D01*
X90160785Y-54839261D01*
X90213589Y-54793506D01*
X90265100Y-54782300D01*
X90569303Y-54782300D01*
X90636342Y-54801985D01*
G37*
%TD.AperFunction*%
%TA.AperFunction,Conductor*%
G36*
X94649623Y-52023390D02*
G01*
X94698757Y-52073065D01*
X94705542Y-52087924D01*
X94726781Y-52143928D01*
X94726782Y-52143931D01*
X94757251Y-52188072D01*
X94823417Y-52283929D01*
X94909995Y-52360630D01*
X94950750Y-52396736D01*
X95091145Y-52470421D01*
X95101375Y-52475790D01*
X95266544Y-52516500D01*
X95436655Y-52516500D01*
X95436656Y-52516500D01*
X95465607Y-52509364D01*
X95535409Y-52512433D01*
X95592471Y-52552753D01*
X95618676Y-52617522D01*
X95605705Y-52686177D01*
X95557675Y-52736920D01*
X95552909Y-52739557D01*
X95483062Y-52776216D01*
X95469894Y-52787882D01*
X95396088Y-52853268D01*
X95364817Y-52880971D01*
X95275082Y-53010975D01*
X95275081Y-53010976D01*
X95219063Y-53158681D01*
X95200023Y-53315499D01*
X95200023Y-53315500D01*
X95219063Y-53472318D01*
X95251480Y-53557793D01*
X95275081Y-53620023D01*
X95364818Y-53750030D01*
X95483061Y-53854783D01*
X95483063Y-53854784D01*
X95622935Y-53928196D01*
X95783598Y-53967795D01*
X95783198Y-53969415D01*
X95839027Y-53993443D01*
X95878084Y-54051376D01*
X95883000Y-54103864D01*
X95864722Y-54254399D01*
X95864722Y-54254400D01*
X95883762Y-54411218D01*
X95939780Y-54558923D01*
X95939781Y-54558924D01*
X96029517Y-54688931D01*
X96101197Y-54752432D01*
X96138324Y-54811621D01*
X96140588Y-54869441D01*
X96118701Y-54979466D01*
X96114915Y-54978712D01*
X96101399Y-55024743D01*
X96048595Y-55070498D01*
X95979437Y-55080442D01*
X95915881Y-55051417D01*
X95896566Y-55026738D01*
X95895279Y-55027674D01*
X95889547Y-55019784D01*
X95889546Y-55019782D01*
X95889543Y-55019779D01*
X95889541Y-55019776D01*
X95798723Y-54928958D01*
X95798719Y-54928955D01*
X95798718Y-54928954D01*
X95684268Y-54870639D01*
X95684266Y-54870638D01*
X95684263Y-54870637D01*
X95589316Y-54855600D01*
X95215484Y-54855600D01*
X95120534Y-54870637D01*
X95004793Y-54929610D01*
X94936124Y-54942506D01*
X94871383Y-54916229D01*
X94831127Y-54859122D01*
X94824499Y-54819129D01*
X94824499Y-54283228D01*
X94818091Y-54223617D01*
X94815810Y-54217502D01*
X94767797Y-54088771D01*
X94767793Y-54088764D01*
X94681547Y-53973555D01*
X94681544Y-53973552D01*
X94566335Y-53887306D01*
X94566328Y-53887302D01*
X94431482Y-53837008D01*
X94431483Y-53837008D01*
X94371883Y-53830601D01*
X94371881Y-53830600D01*
X94371873Y-53830600D01*
X94371865Y-53830600D01*
X94180097Y-53830600D01*
X94113058Y-53810915D01*
X94067303Y-53758111D01*
X94057359Y-53688953D01*
X94086384Y-53625397D01*
X94092403Y-53618931D01*
X94119441Y-53591894D01*
X94178475Y-53476033D01*
X94179064Y-53472318D01*
X94183200Y-53446199D01*
X94193700Y-53379907D01*
X94193699Y-52995294D01*
X94193699Y-52995293D01*
X94193699Y-52995288D01*
X94178476Y-52899171D01*
X94178476Y-52899170D01*
X94178475Y-52899168D01*
X94178475Y-52899167D01*
X94119441Y-52783306D01*
X94119439Y-52783304D01*
X94119436Y-52783300D01*
X94020594Y-52684458D01*
X94023241Y-52681810D01*
X93991899Y-52641126D01*
X93985954Y-52571510D01*
X94018589Y-52509730D01*
X94071231Y-52479562D01*
X94070810Y-52478451D01*
X94077794Y-52475801D01*
X94077807Y-52475794D01*
X94077825Y-52475790D01*
X94088055Y-52470421D01*
X94228449Y-52396736D01*
X94228450Y-52396734D01*
X94228452Y-52396734D01*
X94355783Y-52283929D01*
X94452418Y-52143930D01*
X94473658Y-52087923D01*
X94515835Y-52032221D01*
X94581433Y-52008163D01*
X94649623Y-52023390D01*
G37*
%TD.AperFunction*%
%TA.AperFunction,Conductor*%
G36*
X102180703Y-52492570D02*
G01*
X102187181Y-52498602D01*
X102301286Y-52612707D01*
X102334771Y-52674030D01*
X102337605Y-52700388D01*
X102337605Y-52817196D01*
X102334967Y-52842634D01*
X102332738Y-52853268D01*
X102332738Y-52853269D01*
X102332738Y-52853271D01*
X102337128Y-52888491D01*
X102337605Y-52896167D01*
X102337605Y-52900116D01*
X102341447Y-52923141D01*
X102348239Y-52977627D01*
X102350478Y-52985147D01*
X102353039Y-52992608D01*
X102353040Y-52992610D01*
X102372179Y-53027977D01*
X102379160Y-53040877D01*
X102403279Y-53090211D01*
X102407847Y-53096609D01*
X102412687Y-53102827D01*
X102453076Y-53140009D01*
X102529252Y-53216184D01*
X102783182Y-53470113D01*
X102816666Y-53531435D01*
X102819500Y-53557793D01*
X102819500Y-54867000D01*
X102799815Y-54934039D01*
X102747011Y-54979794D01*
X102695500Y-54991000D01*
X102099500Y-54991000D01*
X102032461Y-54971315D01*
X101986706Y-54918511D01*
X101975500Y-54867000D01*
X101975500Y-52586283D01*
X101995185Y-52519244D01*
X102047989Y-52473489D01*
X102117147Y-52463545D01*
X102180703Y-52492570D01*
G37*
%TD.AperFunction*%
%TA.AperFunction,Conductor*%
G36*
X98845451Y-51436185D02*
G01*
X98891206Y-51488989D01*
X98901150Y-51558147D01*
X98894354Y-51584471D01*
X98892382Y-51589669D01*
X98892382Y-51589670D01*
X98884107Y-51611489D01*
X98832060Y-51748725D01*
X98832059Y-51748730D01*
X98811555Y-51917600D01*
X98832059Y-52086469D01*
X98832060Y-52086474D01*
X98892382Y-52245531D01*
X98946546Y-52324000D01*
X98989017Y-52385529D01*
X99080206Y-52466315D01*
X99116350Y-52498336D01*
X99266973Y-52577389D01*
X99266975Y-52577390D01*
X99432144Y-52618100D01*
X99602256Y-52618100D01*
X99742083Y-52583636D01*
X99811884Y-52586705D01*
X99868946Y-52627025D01*
X99895152Y-52691794D01*
X99882180Y-52760449D01*
X99853984Y-52796848D01*
X99788719Y-52854666D01*
X99729343Y-52940688D01*
X99675059Y-52984678D01*
X99605611Y-52992337D01*
X99545066Y-52963062D01*
X99533840Y-52953117D01*
X99533838Y-52953115D01*
X99393965Y-52879703D01*
X99240586Y-52841900D01*
X99240585Y-52841900D01*
X99082615Y-52841900D01*
X99082614Y-52841900D01*
X98929234Y-52879703D01*
X98789362Y-52953115D01*
X98753631Y-52984770D01*
X98698627Y-53033499D01*
X98671116Y-53057871D01*
X98581376Y-53187881D01*
X98579922Y-53190653D01*
X98578323Y-53192304D01*
X98577119Y-53194050D01*
X98576828Y-53193849D01*
X98531334Y-53240863D01*
X98463314Y-53256834D01*
X98397458Y-53233495D01*
X98382448Y-53220702D01*
X98248357Y-53086611D01*
X98232230Y-53066752D01*
X98226294Y-53057667D01*
X98226291Y-53057663D01*
X98198282Y-53035863D01*
X98192518Y-53030772D01*
X98189723Y-53027977D01*
X98170713Y-53014406D01*
X98127397Y-52980690D01*
X98120482Y-52976948D01*
X98113408Y-52973490D01*
X98060804Y-52957829D01*
X98008866Y-52939999D01*
X98001131Y-52938708D01*
X97993293Y-52937731D01*
X97938452Y-52940000D01*
X96451609Y-52940000D01*
X96384570Y-52920315D01*
X96349558Y-52886438D01*
X96345784Y-52880970D01*
X96227541Y-52776217D01*
X96227539Y-52776216D01*
X96227538Y-52776215D01*
X96087666Y-52702803D01*
X95934287Y-52665000D01*
X95934286Y-52665000D01*
X95776316Y-52665000D01*
X95771610Y-52666160D01*
X95759149Y-52669231D01*
X95689347Y-52666160D01*
X95632286Y-52625839D01*
X95606082Y-52561069D01*
X95619055Y-52492414D01*
X95667087Y-52441672D01*
X95671811Y-52439057D01*
X95752452Y-52396734D01*
X95879783Y-52283929D01*
X95976418Y-52143930D01*
X96036740Y-51984872D01*
X96057245Y-51816000D01*
X96036740Y-51647128D01*
X96012976Y-51584468D01*
X96007610Y-51514808D01*
X96040757Y-51453302D01*
X96101895Y-51419480D01*
X96128919Y-51416500D01*
X98778412Y-51416500D01*
X98845451Y-51436185D01*
G37*
%TD.AperFunction*%
%TA.AperFunction,Conductor*%
G36*
X93117320Y-51436185D02*
G01*
X93163075Y-51488989D01*
X93173019Y-51558147D01*
X93166224Y-51584465D01*
X93157781Y-51606727D01*
X93142460Y-51647125D01*
X93142459Y-51647130D01*
X93121955Y-51815999D01*
X93142459Y-51984869D01*
X93142460Y-51984874D01*
X93202782Y-52143931D01*
X93233251Y-52188072D01*
X93299417Y-52283929D01*
X93426748Y-52396734D01*
X93426749Y-52396734D01*
X93430960Y-52400465D01*
X93468087Y-52459655D01*
X93467319Y-52529520D01*
X93428902Y-52587880D01*
X93365031Y-52616205D01*
X93358457Y-52616899D01*
X93355887Y-52617101D01*
X93259771Y-52632323D01*
X93259770Y-52632323D01*
X93143904Y-52691360D01*
X93121804Y-52713461D01*
X93059482Y-52775782D01*
X92998162Y-52809266D01*
X92971803Y-52812100D01*
X92808446Y-52812100D01*
X92750821Y-52797896D01*
X92726773Y-52785275D01*
X92726772Y-52785274D01*
X92726769Y-52785273D01*
X92573394Y-52747471D01*
X92573393Y-52747471D01*
X92535969Y-52747471D01*
X92468930Y-52727786D01*
X92448288Y-52711152D01*
X92428499Y-52691363D01*
X92428495Y-52691360D01*
X92428494Y-52691359D01*
X92312633Y-52632325D01*
X92312631Y-52632324D01*
X92312628Y-52632323D01*
X92216507Y-52617100D01*
X91756888Y-52617100D01*
X91756888Y-52617101D01*
X91660771Y-52632323D01*
X91660770Y-52632323D01*
X91544904Y-52691360D01*
X91544903Y-52691360D01*
X91476881Y-52759383D01*
X91415557Y-52792867D01*
X91345866Y-52787882D01*
X91301519Y-52759383D01*
X91233495Y-52691360D01*
X91233494Y-52691359D01*
X91117633Y-52632325D01*
X91117631Y-52632324D01*
X91117628Y-52632323D01*
X91021507Y-52617100D01*
X90561888Y-52617100D01*
X90561888Y-52617101D01*
X90465771Y-52632323D01*
X90465770Y-52632323D01*
X90349904Y-52691360D01*
X90349900Y-52691363D01*
X90257963Y-52783300D01*
X90257958Y-52783307D01*
X90221832Y-52854208D01*
X90173858Y-52905003D01*
X90106036Y-52921798D01*
X90039902Y-52899260D01*
X90020115Y-52881891D01*
X90019264Y-52880967D01*
X90019262Y-52880964D01*
X89991250Y-52859161D01*
X89985488Y-52854072D01*
X89982693Y-52851277D01*
X89963683Y-52837706D01*
X89920367Y-52803990D01*
X89913452Y-52800248D01*
X89906378Y-52796790D01*
X89853774Y-52781129D01*
X89801836Y-52763299D01*
X89794101Y-52762008D01*
X89786263Y-52761031D01*
X89731422Y-52763300D01*
X89515299Y-52763300D01*
X89448260Y-52743615D01*
X89427618Y-52726981D01*
X88918231Y-52217593D01*
X88884746Y-52156270D01*
X88882816Y-52114969D01*
X88894445Y-52019200D01*
X88882816Y-51923430D01*
X88894276Y-51854509D01*
X88918228Y-51820807D01*
X89286217Y-51452819D01*
X89347541Y-51419334D01*
X89373899Y-51416500D01*
X93050281Y-51416500D01*
X93117320Y-51436185D01*
G37*
%TD.AperFunction*%
%TD*%
M02*
