%TF.GenerationSoftware,KiCad,Pcbnew,7.0.7*%
%TF.CreationDate,2024-08-01T01:42:33+03:00*%
%TF.ProjectId,_autosave-Main_PCB_002,5f617574-6f73-4617-9665-2d4d61696e5f,rev?*%
%TF.SameCoordinates,Original*%
%TF.FileFunction,Soldermask,Bot*%
%TF.FilePolarity,Negative*%
%FSLAX46Y46*%
G04 Gerber Fmt 4.6, Leading zero omitted, Abs format (unit mm)*
G04 Created by KiCad (PCBNEW 7.0.7) date 2024-08-01 01:42:33*
%MOMM*%
%LPD*%
G01*
G04 APERTURE LIST*
%ADD10C,0.900000*%
%ADD11C,1.600000*%
%ADD12C,2.200000*%
%ADD13C,1.000000*%
%ADD14C,0.499999*%
G04 APERTURE END LIST*
D10*
%TO.C,D27*%
X87325200Y-63855600D03*
%TD*%
D11*
%TO.C,D3*%
X60401200Y-60350400D03*
%TD*%
%TO.C,D19*%
X55321200Y-55270400D03*
%TD*%
D12*
%TO.C,D29*%
X55626000Y-63246000D03*
%TD*%
D10*
%TO.C,D12*%
X62585600Y-52324000D03*
%TD*%
D11*
%TO.C,D2*%
X60401200Y-55270400D03*
%TD*%
D12*
%TO.C,D30*%
X104394000Y-52578000D03*
%TD*%
D10*
%TO.C,D20*%
X89712800Y-52019200D03*
%TD*%
D13*
%TO.C,D18*%
X103581200Y-58674000D03*
%TD*%
D10*
%TO.C,D22*%
X88188800Y-52019200D03*
%TD*%
D11*
%TO.C,D1*%
X55321200Y-60350400D03*
%TD*%
D10*
%TO.C,D25*%
X88849200Y-63855600D03*
%TD*%
%TO.C,D21*%
X91897200Y-63855600D03*
%TD*%
%TO.C,D10*%
X97993200Y-51917600D03*
%TD*%
%TO.C,D7*%
X95351600Y-51816000D03*
%TD*%
%TO.C,D24*%
X86664800Y-52019200D03*
%TD*%
D13*
%TO.C,D17*%
X103581200Y-57048400D03*
%TD*%
D14*
%TO.C,U4*%
X81012599Y-57067600D03*
X82012600Y-55867600D03*
X82012600Y-57067600D03*
X82012600Y-58267600D03*
X83012601Y-57067600D03*
%TD*%
D10*
%TO.C,D23*%
X90373200Y-63855600D03*
%TD*%
%TO.C,D13*%
X61061600Y-52324000D03*
%TD*%
D13*
%TO.C,D16*%
X58724800Y-62788800D03*
%TD*%
D10*
%TO.C,D11*%
X64109600Y-52324000D03*
%TD*%
%TO.C,D8*%
X101041200Y-51917600D03*
%TD*%
D12*
%TO.C,D28*%
X55626000Y-52324000D03*
%TD*%
D14*
%TO.C,U3*%
X83539899Y-61385600D03*
X84539900Y-60185600D03*
X84539900Y-61385600D03*
X84539900Y-62585600D03*
X85539901Y-61385600D03*
%TD*%
D10*
%TO.C,D9*%
X99517200Y-51917600D03*
%TD*%
%TO.C,D14*%
X59563000Y-52349400D03*
%TD*%
%TO.C,D6*%
X93827600Y-51816000D03*
%TD*%
D12*
%TO.C,D31*%
X104394000Y-63246000D03*
%TD*%
D13*
%TO.C,D15*%
X60502800Y-62788800D03*
%TD*%
D10*
%TO.C,D26*%
X85140800Y-52019200D03*
%TD*%
M02*
