%TF.GenerationSoftware,KiCad,Pcbnew,7.0.7*%
%TF.CreationDate,2024-08-01T01:42:33+03:00*%
%TF.ProjectId,_autosave-Main_PCB_002,5f617574-6f73-4617-9665-2d4d61696e5f,rev?*%
%TF.SameCoordinates,Original*%
%TF.FileFunction,Soldermask,Top*%
%TF.FilePolarity,Negative*%
%FSLAX46Y46*%
G04 Gerber Fmt 4.6, Leading zero omitted, Abs format (unit mm)*
G04 Created by KiCad (PCBNEW 7.0.7) date 2024-08-01 01:42:33*
%MOMM*%
%LPD*%
G01*
G04 APERTURE LIST*
G04 Aperture macros list*
%AMRoundRect*
0 Rectangle with rounded corners*
0 $1 Rounding radius*
0 $2 $3 $4 $5 $6 $7 $8 $9 X,Y pos of 4 corners*
0 Add a 4 corners polygon primitive as box body*
4,1,4,$2,$3,$4,$5,$6,$7,$8,$9,$2,$3,0*
0 Add four circle primitives for the rounded corners*
1,1,$1+$1,$2,$3*
1,1,$1+$1,$4,$5*
1,1,$1+$1,$6,$7*
1,1,$1+$1,$8,$9*
0 Add four rect primitives between the rounded corners*
20,1,$1+$1,$2,$3,$4,$5,0*
20,1,$1+$1,$4,$5,$6,$7,0*
20,1,$1+$1,$6,$7,$8,$9,0*
20,1,$1+$1,$8,$9,$2,$3,0*%
%AMFreePoly0*
4,1,14,0.230680,0.111820,0.364320,-0.021821,0.377500,-0.053642,0.377500,-0.080000,0.364320,-0.111820,0.332500,-0.125000,-0.332500,-0.125000,-0.364320,-0.111820,-0.377500,-0.080000,-0.377500,0.080000,-0.364320,0.111820,-0.332500,0.125000,0.198860,0.125000,0.230680,0.111820,0.230680,0.111820,$1*%
%AMFreePoly1*
4,1,14,0.364320,0.111820,0.377500,0.080000,0.377501,0.053640,0.364318,0.021819,0.230680,-0.111820,0.198860,-0.125000,-0.332500,-0.125000,-0.364320,-0.111820,-0.377500,-0.080000,-0.377500,0.080000,-0.364320,0.111820,-0.332500,0.125000,0.332500,0.125000,0.364320,0.111820,0.364320,0.111820,$1*%
%AMFreePoly2*
4,1,15,0.053642,0.377500,0.080000,0.377500,0.111820,0.364320,0.125000,0.332500,0.125000,-0.332500,0.111820,-0.364320,0.080000,-0.377500,-0.080000,-0.377500,-0.111820,-0.364320,-0.125000,-0.332500,-0.125000,0.198860,-0.111820,0.230680,0.021820,0.364320,0.053640,0.377501,0.053642,0.377500,0.053642,0.377500,$1*%
%AMFreePoly3*
4,1,14,-0.021820,0.364320,0.111820,0.230679,0.125001,0.198860,0.125000,-0.332500,0.111820,-0.364320,0.080000,-0.377500,-0.080000,-0.377500,-0.111820,-0.364320,-0.125000,-0.332500,-0.125000,0.332500,-0.111820,0.364320,-0.080000,0.377500,-0.053640,0.377500,-0.021820,0.364320,-0.021820,0.364320,$1*%
%AMFreePoly4*
4,1,14,0.364320,0.111820,0.377500,0.080000,0.377500,-0.080000,0.364320,-0.111820,0.332500,-0.125000,-0.198860,-0.125001,-0.230680,-0.111818,-0.364320,0.021820,-0.377500,0.053640,-0.377500,0.080000,-0.364320,0.111820,-0.332500,0.125000,0.332500,0.125000,0.364320,0.111820,0.364320,0.111820,$1*%
%AMFreePoly5*
4,1,15,-0.198858,0.125000,0.332500,0.125000,0.364320,0.111820,0.377500,0.080000,0.377500,-0.080000,0.364320,-0.111820,0.332500,-0.125000,-0.332500,-0.125000,-0.364320,-0.111820,-0.377500,-0.080000,-0.377500,-0.053640,-0.364320,-0.021820,-0.230680,0.111820,-0.198860,0.125001,-0.198858,0.125000,-0.198858,0.125000,$1*%
%AMFreePoly6*
4,1,14,0.111820,0.364320,0.125000,0.332500,0.125001,-0.198860,0.111818,-0.230680,-0.021820,-0.364320,-0.053640,-0.377500,-0.080000,-0.377500,-0.111820,-0.364320,-0.125000,-0.332500,-0.125000,0.332500,-0.111820,0.364320,-0.080000,0.377500,0.080000,0.377500,0.111820,0.364320,0.111820,0.364320,$1*%
%AMFreePoly7*
4,1,14,0.111820,0.364320,0.125000,0.332500,0.125000,-0.332500,0.111820,-0.364320,0.080000,-0.377500,0.053640,-0.377501,0.021819,-0.364318,-0.111820,-0.230680,-0.125000,-0.198860,-0.125000,0.332500,-0.111820,0.364320,-0.080000,0.377500,0.080000,0.377500,0.111820,0.364320,0.111820,0.364320,$1*%
G04 Aperture macros list end*
%ADD10C,0.900000*%
%ADD11C,1.600000*%
%ADD12RoundRect,0.237500X-0.300000X-0.237500X0.300000X-0.237500X0.300000X0.237500X-0.300000X0.237500X0*%
%ADD13RoundRect,0.237500X0.237500X-0.300000X0.237500X0.300000X-0.237500X0.300000X-0.237500X-0.300000X0*%
%ADD14C,2.200000*%
%ADD15RoundRect,0.160000X0.160000X-0.197500X0.160000X0.197500X-0.160000X0.197500X-0.160000X-0.197500X0*%
%ADD16RoundRect,0.250000X-0.475000X0.337500X-0.475000X-0.337500X0.475000X-0.337500X0.475000X0.337500X0*%
%ADD17RoundRect,0.160000X0.197500X0.160000X-0.197500X0.160000X-0.197500X-0.160000X0.197500X-0.160000X0*%
%ADD18FreePoly0,0.000000*%
%ADD19RoundRect,0.062500X-0.375000X-0.062500X0.375000X-0.062500X0.375000X0.062500X-0.375000X0.062500X0*%
%ADD20FreePoly1,0.000000*%
%ADD21FreePoly2,0.000000*%
%ADD22RoundRect,0.062500X-0.062500X-0.375000X0.062500X-0.375000X0.062500X0.375000X-0.062500X0.375000X0*%
%ADD23FreePoly3,0.000000*%
%ADD24FreePoly4,0.000000*%
%ADD25FreePoly5,0.000000*%
%ADD26FreePoly6,0.000000*%
%ADD27FreePoly7,0.000000*%
%ADD28R,1.016000X0.457200*%
%ADD29C,1.000000*%
%ADD30RoundRect,0.160000X-0.197500X-0.160000X0.197500X-0.160000X0.197500X0.160000X-0.197500X0.160000X0*%
%ADD31RoundRect,0.062500X-0.117500X-0.062500X0.117500X-0.062500X0.117500X0.062500X-0.117500X0.062500X0*%
%ADD32R,2.971800X6.604000*%
%ADD33RoundRect,0.155000X-0.155000X0.212500X-0.155000X-0.212500X0.155000X-0.212500X0.155000X0.212500X0*%
%ADD34RoundRect,0.155000X-0.212500X-0.155000X0.212500X-0.155000X0.212500X0.155000X-0.212500X0.155000X0*%
%ADD35RoundRect,0.160000X-0.160000X0.197500X-0.160000X-0.197500X0.160000X-0.197500X0.160000X0.197500X0*%
%ADD36RoundRect,0.155000X0.212500X0.155000X-0.212500X0.155000X-0.212500X-0.155000X0.212500X-0.155000X0*%
%ADD37RoundRect,0.155000X0.155000X-0.212500X0.155000X0.212500X-0.155000X0.212500X-0.155000X-0.212500X0*%
%ADD38RoundRect,0.250000X-0.337500X-0.475000X0.337500X-0.475000X0.337500X0.475000X-0.337500X0.475000X0*%
%ADD39R,0.599999X0.249999*%
%ADD40R,2.600000X2.999999*%
%ADD41C,0.499999*%
%ADD42RoundRect,0.250000X0.475000X-0.337500X0.475000X0.337500X-0.475000X0.337500X-0.475000X-0.337500X0*%
%ADD43RoundRect,0.250000X0.500000X1.100000X-0.500000X1.100000X-0.500000X-1.100000X0.500000X-1.100000X0*%
%ADD44RoundRect,0.150000X-0.150000X0.512500X-0.150000X-0.512500X0.150000X-0.512500X0.150000X0.512500X0*%
%ADD45RoundRect,0.237500X0.237500X-0.250000X0.237500X0.250000X-0.237500X0.250000X-0.237500X-0.250000X0*%
%ADD46R,0.711200X0.444500*%
%ADD47RoundRect,0.250000X0.337500X0.475000X-0.337500X0.475000X-0.337500X-0.475000X0.337500X-0.475000X0*%
%ADD48R,1.600200X2.692400*%
G04 APERTURE END LIST*
%TO.C,U1*%
G36*
X66332100Y-63004700D02*
G01*
X62776100Y-63004700D01*
X62776100Y-58686700D01*
X66332100Y-58686700D01*
X66332100Y-63004700D01*
G37*
%TD*%
D10*
%TO.C,D27*%
X87325200Y-63855600D03*
%TD*%
D11*
%TO.C,D3*%
X60401200Y-60350400D03*
%TD*%
D12*
%TO.C,C10*%
X79231300Y-54254400D03*
X80956300Y-54254400D03*
%TD*%
D11*
%TO.C,D19*%
X55321200Y-55270400D03*
%TD*%
D13*
%TO.C,C14*%
X85314600Y-56234500D03*
X85314600Y-54509500D03*
%TD*%
D14*
%TO.C,D29*%
X55626000Y-63246000D03*
%TD*%
D15*
%TO.C,R1*%
X60401200Y-58763500D03*
X60401200Y-57568500D03*
%TD*%
D10*
%TO.C,D12*%
X62585600Y-52324000D03*
%TD*%
D16*
%TO.C,C19*%
X93849000Y-54668600D03*
X93849000Y-56743600D03*
%TD*%
D17*
%TO.C,R3*%
X56476900Y-58394600D03*
X55281900Y-58394600D03*
%TD*%
D11*
%TO.C,D2*%
X60401200Y-55270400D03*
%TD*%
D14*
%TO.C,D30*%
X104394000Y-52578000D03*
%TD*%
D18*
%TO.C,U2*%
X96757700Y-55047500D03*
D19*
X96817700Y-55547500D03*
X96817700Y-56047500D03*
X96817700Y-56547500D03*
X96817700Y-57047500D03*
X96817700Y-57547500D03*
D20*
X96757700Y-58047500D03*
D21*
X97255200Y-58545000D03*
D22*
X97755200Y-58485000D03*
X98255200Y-58485000D03*
X98755200Y-58485000D03*
X99255200Y-58485000D03*
X99755200Y-58485000D03*
D23*
X100255200Y-58545000D03*
D24*
X100752700Y-58047500D03*
D19*
X100692700Y-57547500D03*
X100692700Y-57047500D03*
X100692700Y-56547500D03*
X100692700Y-56047500D03*
X100692700Y-55547500D03*
D25*
X100752700Y-55047500D03*
D26*
X100255200Y-54550000D03*
D22*
X99755200Y-54610000D03*
X99255200Y-54610000D03*
X98755200Y-54610000D03*
X98255200Y-54610000D03*
X97755200Y-54610000D03*
D27*
X97255200Y-54550000D03*
%TD*%
D10*
%TO.C,D20*%
X89712800Y-52019200D03*
%TD*%
D28*
%TO.C,U1*%
X68110100Y-62750700D03*
X68110100Y-61480700D03*
X68110100Y-60210700D03*
X68110100Y-58940700D03*
X62268100Y-58940700D03*
X62268100Y-60210700D03*
X62268100Y-61480700D03*
X62268100Y-62750700D03*
%TD*%
D29*
%TO.C,D18*%
X103581200Y-58674000D03*
%TD*%
D30*
%TO.C,R2*%
X61835700Y-57251600D03*
X63030700Y-57251600D03*
%TD*%
D31*
%TO.C,D5*%
X68415200Y-57238900D03*
X67575200Y-57238900D03*
%TD*%
D32*
%TO.C,L1*%
X76432500Y-57454800D03*
X70793700Y-57454800D03*
%TD*%
D17*
%TO.C,R12*%
X91462000Y-61874400D03*
X90267000Y-61874400D03*
%TD*%
D30*
%TO.C,R8*%
X82525700Y-54339100D03*
X83720700Y-54339100D03*
%TD*%
D33*
%TO.C,C17*%
X93421200Y-59732100D03*
X93421200Y-60867100D03*
%TD*%
D17*
%TO.C,R7*%
X83718400Y-53238400D03*
X82523400Y-53238400D03*
%TD*%
D34*
%TO.C,C11*%
X84903500Y-58928000D03*
X86038500Y-58928000D03*
%TD*%
D33*
%TO.C,C21*%
X92223400Y-54356000D03*
X92223400Y-55491000D03*
%TD*%
D10*
%TO.C,D22*%
X88188800Y-52019200D03*
%TD*%
D16*
%TO.C,C15*%
X95758000Y-60430500D03*
X95758000Y-62505500D03*
%TD*%
D35*
%TO.C,R9*%
X101981000Y-56628700D03*
X101981000Y-57823700D03*
%TD*%
D11*
%TO.C,D1*%
X55321200Y-60350400D03*
%TD*%
D36*
%TO.C,C3*%
X56446900Y-57277000D03*
X55311900Y-57277000D03*
%TD*%
D10*
%TO.C,D25*%
X88849200Y-63855600D03*
%TD*%
D37*
%TO.C,C6*%
X95402400Y-57615900D03*
X95402400Y-56480900D03*
%TD*%
%TO.C,C7*%
X95402400Y-55473600D03*
X95402400Y-54338600D03*
%TD*%
D10*
%TO.C,D21*%
X91897200Y-63855600D03*
%TD*%
D34*
%TO.C,C13*%
X87909400Y-61925200D03*
X89044400Y-61925200D03*
%TD*%
D10*
%TO.C,D10*%
X97993200Y-51917600D03*
%TD*%
%TO.C,D7*%
X95351600Y-51816000D03*
%TD*%
D30*
%TO.C,R4*%
X65314900Y-57238900D03*
X66509900Y-57238900D03*
%TD*%
D10*
%TO.C,D24*%
X86664800Y-52019200D03*
%TD*%
D13*
%TO.C,C12*%
X87994300Y-60654100D03*
X87994300Y-58929100D03*
%TD*%
D29*
%TO.C,D17*%
X103581200Y-57048400D03*
%TD*%
D38*
%TO.C,C4*%
X70569000Y-63093600D03*
X72644000Y-63093600D03*
%TD*%
D17*
%TO.C,R5*%
X91986700Y-53187600D03*
X90791700Y-53187600D03*
%TD*%
D39*
%TO.C,U4*%
X80112601Y-55817600D03*
X80112601Y-56317599D03*
X80112601Y-56817600D03*
X80112601Y-57317600D03*
X80112601Y-57817598D03*
X80112601Y-58317600D03*
X83912599Y-58317600D03*
X83912599Y-57817598D03*
X83912599Y-57317600D03*
X83912599Y-56817598D03*
X83912599Y-56317599D03*
X83912599Y-55817600D03*
D40*
X82012600Y-57067600D03*
D41*
X81012599Y-57067600D03*
X82012600Y-55867600D03*
X82012600Y-57067600D03*
X82012600Y-58267600D03*
X83012601Y-57067600D03*
%TD*%
D10*
%TO.C,D23*%
X90373200Y-63855600D03*
%TD*%
%TO.C,D13*%
X61061600Y-52324000D03*
%TD*%
D42*
%TO.C,C2*%
X58421950Y-60805650D03*
X58421950Y-58730650D03*
%TD*%
D29*
%TO.C,D16*%
X58724800Y-62788800D03*
%TD*%
D10*
%TO.C,D11*%
X64109600Y-52324000D03*
%TD*%
D34*
%TO.C,C16*%
X85182900Y-57658000D03*
X86317900Y-57658000D03*
%TD*%
D16*
%TO.C,C1*%
X58421950Y-54869850D03*
X58421950Y-56944850D03*
%TD*%
D10*
%TO.C,D8*%
X101041200Y-51917600D03*
%TD*%
D17*
%TO.C,R13*%
X94323500Y-62941200D03*
X93128500Y-62941200D03*
%TD*%
D14*
%TO.C,D28*%
X55626000Y-52324000D03*
%TD*%
D43*
%TO.C,D4*%
X67843100Y-54952900D03*
X63043100Y-54952900D03*
%TD*%
D44*
%TO.C,U5*%
X100960000Y-60259800D03*
X100010000Y-60259800D03*
X99060000Y-60259800D03*
X99060000Y-62534800D03*
X100960000Y-62534800D03*
%TD*%
D39*
%TO.C,U3*%
X82639901Y-60135600D03*
X82639901Y-60635599D03*
X82639901Y-61135600D03*
X82639901Y-61635600D03*
X82639901Y-62135598D03*
X82639901Y-62635600D03*
X86439899Y-62635600D03*
X86439899Y-62135598D03*
X86439899Y-61635600D03*
X86439899Y-61135598D03*
X86439899Y-60635599D03*
X86439899Y-60135600D03*
D40*
X84539900Y-61385600D03*
D41*
X83539899Y-61385600D03*
X84539900Y-60185600D03*
X84539900Y-61385600D03*
X84539900Y-62585600D03*
X85539901Y-61385600D03*
%TD*%
D45*
%TO.C,R16*%
X97536000Y-62634500D03*
X97536000Y-60809500D03*
%TD*%
D10*
%TO.C,D9*%
X99517200Y-51917600D03*
%TD*%
D46*
%TO.C,LED1*%
X102362000Y-54717950D03*
X102362000Y-55873650D03*
%TD*%
D17*
%TO.C,R15*%
X92160500Y-56845200D03*
X90965500Y-56845200D03*
%TD*%
D12*
%TO.C,C8*%
X79689600Y-60045600D03*
X81414600Y-60045600D03*
%TD*%
D17*
%TO.C,R6*%
X94780700Y-53187600D03*
X93585700Y-53187600D03*
%TD*%
D34*
%TO.C,C20*%
X99813300Y-63906400D03*
X100948300Y-63906400D03*
%TD*%
D15*
%TO.C,R11*%
X79095600Y-58216800D03*
X79095600Y-57021800D03*
%TD*%
D10*
%TO.C,D14*%
X59563000Y-52349400D03*
%TD*%
%TO.C,D6*%
X93827600Y-51816000D03*
%TD*%
D14*
%TO.C,D31*%
X104394000Y-63246000D03*
%TD*%
D47*
%TO.C,C5*%
X76962000Y-63093600D03*
X74887000Y-63093600D03*
%TD*%
D48*
%TO.C,L2*%
X91782900Y-59537600D03*
X89877900Y-59537600D03*
%TD*%
D29*
%TO.C,D15*%
X60502800Y-62788800D03*
%TD*%
D15*
%TO.C,R14*%
X91105800Y-55524400D03*
X91105800Y-54329400D03*
%TD*%
D36*
%TO.C,C9*%
X80010000Y-63144400D03*
X78875000Y-63144400D03*
%TD*%
D34*
%TO.C,C18*%
X92583000Y-61874400D03*
X93718000Y-61874400D03*
%TD*%
D10*
%TO.C,D26*%
X85140800Y-52019200D03*
%TD*%
D48*
%TO.C,L3*%
X89090500Y-54813200D03*
X87185500Y-54813200D03*
%TD*%
D17*
%TO.C,R10*%
X79997900Y-62026800D03*
X78802900Y-62026800D03*
%TD*%
M02*
