%TF.GenerationSoftware,KiCad,Pcbnew,7.0.7*%
%TF.CreationDate,2024-07-30T16:01:34+03:00*%
%TF.ProjectId,Main_PCB_002,4d61696e-5f50-4434-925f-3030322e6b69,rev?*%
%TF.SameCoordinates,Original*%
%TF.FileFunction,Legend,Top*%
%TF.FilePolarity,Positive*%
%FSLAX46Y46*%
G04 Gerber Fmt 4.6, Leading zero omitted, Abs format (unit mm)*
G04 Created by KiCad (PCBNEW 7.0.7) date 2024-07-30 16:01:34*
%MOMM*%
%LPD*%
G01*
G04 APERTURE LIST*
G04 Aperture macros list*
%AMRoundRect*
0 Rectangle with rounded corners*
0 $1 Rounding radius*
0 $2 $3 $4 $5 $6 $7 $8 $9 X,Y pos of 4 corners*
0 Add a 4 corners polygon primitive as box body*
4,1,4,$2,$3,$4,$5,$6,$7,$8,$9,$2,$3,0*
0 Add four circle primitives for the rounded corners*
1,1,$1+$1,$2,$3*
1,1,$1+$1,$4,$5*
1,1,$1+$1,$6,$7*
1,1,$1+$1,$8,$9*
0 Add four rect primitives between the rounded corners*
20,1,$1+$1,$2,$3,$4,$5,0*
20,1,$1+$1,$4,$5,$6,$7,0*
20,1,$1+$1,$6,$7,$8,$9,0*
20,1,$1+$1,$8,$9,$2,$3,0*%
%AMFreePoly0*
4,1,14,0.230680,0.111820,0.364320,-0.021821,0.377500,-0.053642,0.377500,-0.080000,0.364320,-0.111820,0.332500,-0.125000,-0.332500,-0.125000,-0.364320,-0.111820,-0.377500,-0.080000,-0.377500,0.080000,-0.364320,0.111820,-0.332500,0.125000,0.198860,0.125000,0.230680,0.111820,0.230680,0.111820,$1*%
%AMFreePoly1*
4,1,14,0.364320,0.111820,0.377500,0.080000,0.377501,0.053640,0.364318,0.021819,0.230680,-0.111820,0.198860,-0.125000,-0.332500,-0.125000,-0.364320,-0.111820,-0.377500,-0.080000,-0.377500,0.080000,-0.364320,0.111820,-0.332500,0.125000,0.332500,0.125000,0.364320,0.111820,0.364320,0.111820,$1*%
%AMFreePoly2*
4,1,15,0.053642,0.377500,0.080000,0.377500,0.111820,0.364320,0.125000,0.332500,0.125000,-0.332500,0.111820,-0.364320,0.080000,-0.377500,-0.080000,-0.377500,-0.111820,-0.364320,-0.125000,-0.332500,-0.125000,0.198860,-0.111820,0.230680,0.021820,0.364320,0.053640,0.377501,0.053642,0.377500,0.053642,0.377500,$1*%
%AMFreePoly3*
4,1,14,-0.021820,0.364320,0.111820,0.230679,0.125001,0.198860,0.125000,-0.332500,0.111820,-0.364320,0.080000,-0.377500,-0.080000,-0.377500,-0.111820,-0.364320,-0.125000,-0.332500,-0.125000,0.332500,-0.111820,0.364320,-0.080000,0.377500,-0.053640,0.377500,-0.021820,0.364320,-0.021820,0.364320,$1*%
%AMFreePoly4*
4,1,14,0.364320,0.111820,0.377500,0.080000,0.377500,-0.080000,0.364320,-0.111820,0.332500,-0.125000,-0.198860,-0.125001,-0.230680,-0.111818,-0.364320,0.021820,-0.377500,0.053640,-0.377500,0.080000,-0.364320,0.111820,-0.332500,0.125000,0.332500,0.125000,0.364320,0.111820,0.364320,0.111820,$1*%
%AMFreePoly5*
4,1,15,-0.198858,0.125000,0.332500,0.125000,0.364320,0.111820,0.377500,0.080000,0.377500,-0.080000,0.364320,-0.111820,0.332500,-0.125000,-0.332500,-0.125000,-0.364320,-0.111820,-0.377500,-0.080000,-0.377500,-0.053640,-0.364320,-0.021820,-0.230680,0.111820,-0.198860,0.125001,-0.198858,0.125000,-0.198858,0.125000,$1*%
%AMFreePoly6*
4,1,14,0.111820,0.364320,0.125000,0.332500,0.125001,-0.198860,0.111818,-0.230680,-0.021820,-0.364320,-0.053640,-0.377500,-0.080000,-0.377500,-0.111820,-0.364320,-0.125000,-0.332500,-0.125000,0.332500,-0.111820,0.364320,-0.080000,0.377500,0.080000,0.377500,0.111820,0.364320,0.111820,0.364320,$1*%
%AMFreePoly7*
4,1,14,0.111820,0.364320,0.125000,0.332500,0.125000,-0.332500,0.111820,-0.364320,0.080000,-0.377500,0.053640,-0.377501,0.021819,-0.364318,-0.111820,-0.230680,-0.125000,-0.198860,-0.125000,0.332500,-0.111820,0.364320,-0.080000,0.377500,0.080000,0.377500,0.111820,0.364320,0.111820,0.364320,$1*%
G04 Aperture macros list end*
%ADD10C,0.120000*%
%ADD11C,0.152400*%
%ADD12C,0.200000*%
%ADD13C,0.900000*%
%ADD14C,1.600000*%
%ADD15RoundRect,0.237500X-0.300000X-0.237500X0.300000X-0.237500X0.300000X0.237500X-0.300000X0.237500X0*%
%ADD16RoundRect,0.237500X0.237500X-0.300000X0.237500X0.300000X-0.237500X0.300000X-0.237500X-0.300000X0*%
%ADD17C,2.200000*%
%ADD18RoundRect,0.160000X0.160000X-0.197500X0.160000X0.197500X-0.160000X0.197500X-0.160000X-0.197500X0*%
%ADD19RoundRect,0.250000X-0.475000X0.337500X-0.475000X-0.337500X0.475000X-0.337500X0.475000X0.337500X0*%
%ADD20RoundRect,0.160000X0.197500X0.160000X-0.197500X0.160000X-0.197500X-0.160000X0.197500X-0.160000X0*%
%ADD21FreePoly0,0.000000*%
%ADD22RoundRect,0.062500X-0.375000X-0.062500X0.375000X-0.062500X0.375000X0.062500X-0.375000X0.062500X0*%
%ADD23FreePoly1,0.000000*%
%ADD24FreePoly2,0.000000*%
%ADD25RoundRect,0.062500X-0.062500X-0.375000X0.062500X-0.375000X0.062500X0.375000X-0.062500X0.375000X0*%
%ADD26FreePoly3,0.000000*%
%ADD27FreePoly4,0.000000*%
%ADD28FreePoly5,0.000000*%
%ADD29FreePoly6,0.000000*%
%ADD30FreePoly7,0.000000*%
%ADD31R,1.016000X0.457200*%
%ADD32C,1.000000*%
%ADD33RoundRect,0.160000X-0.197500X-0.160000X0.197500X-0.160000X0.197500X0.160000X-0.197500X0.160000X0*%
%ADD34RoundRect,0.062500X-0.117500X-0.062500X0.117500X-0.062500X0.117500X0.062500X-0.117500X0.062500X0*%
%ADD35R,2.971800X6.604000*%
%ADD36RoundRect,0.155000X-0.155000X0.212500X-0.155000X-0.212500X0.155000X-0.212500X0.155000X0.212500X0*%
%ADD37RoundRect,0.155000X-0.212500X-0.155000X0.212500X-0.155000X0.212500X0.155000X-0.212500X0.155000X0*%
%ADD38RoundRect,0.160000X-0.160000X0.197500X-0.160000X-0.197500X0.160000X-0.197500X0.160000X0.197500X0*%
%ADD39RoundRect,0.155000X0.212500X0.155000X-0.212500X0.155000X-0.212500X-0.155000X0.212500X-0.155000X0*%
%ADD40RoundRect,0.155000X0.155000X-0.212500X0.155000X0.212500X-0.155000X0.212500X-0.155000X-0.212500X0*%
%ADD41RoundRect,0.250000X-0.337500X-0.475000X0.337500X-0.475000X0.337500X0.475000X-0.337500X0.475000X0*%
%ADD42R,0.599999X0.249999*%
%ADD43R,2.600000X2.999999*%
%ADD44C,0.499999*%
%ADD45RoundRect,0.250000X0.475000X-0.337500X0.475000X0.337500X-0.475000X0.337500X-0.475000X-0.337500X0*%
%ADD46RoundRect,0.250000X0.500000X1.100000X-0.500000X1.100000X-0.500000X-1.100000X0.500000X-1.100000X0*%
%ADD47RoundRect,0.150000X-0.150000X0.512500X-0.150000X-0.512500X0.150000X-0.512500X0.150000X0.512500X0*%
%ADD48RoundRect,0.237500X0.237500X-0.250000X0.237500X0.250000X-0.237500X0.250000X-0.237500X-0.250000X0*%
%ADD49R,0.711200X0.444500*%
%ADD50RoundRect,0.250000X0.337500X0.475000X-0.337500X0.475000X-0.337500X-0.475000X0.337500X-0.475000X0*%
%ADD51R,1.600200X2.692400*%
G04 APERTURE END LIST*
D10*
%TO.C,C10*%
X79947533Y-53744400D02*
X80240067Y-53744400D01*
X79947533Y-54764400D02*
X80240067Y-54764400D01*
%TO.C,C14*%
X84804600Y-55518267D02*
X84804600Y-55225733D01*
X85824600Y-55518267D02*
X85824600Y-55225733D01*
%TO.C,R1*%
X60021200Y-58333621D02*
X60021200Y-57998379D01*
X60781200Y-58333621D02*
X60781200Y-57998379D01*
%TO.C,C19*%
X94584000Y-55444848D02*
X94584000Y-55967352D01*
X93114000Y-55444848D02*
X93114000Y-55967352D01*
%TO.C,R3*%
X56047021Y-58774600D02*
X55711779Y-58774600D01*
X56047021Y-58014600D02*
X55711779Y-58014600D01*
%TO.C,U2*%
X96645200Y-58657500D02*
X96645200Y-58432500D01*
X96870200Y-54437500D02*
X96645200Y-54437500D01*
X96870200Y-58657500D02*
X96645200Y-58657500D01*
X100640200Y-54437500D02*
X100865200Y-54437500D01*
X100640200Y-58657500D02*
X100865200Y-58657500D01*
X100865200Y-54437500D02*
X100865200Y-54662500D01*
X100865200Y-58657500D02*
X100865200Y-58432500D01*
D11*
%TO.C,U1*%
X68262500Y-63627000D02*
X68262500Y-63312040D01*
X68262500Y-58379360D02*
X68262500Y-58064400D01*
X68262500Y-58064400D02*
X62115700Y-58064400D01*
X62115700Y-63627000D02*
X68262500Y-63627000D01*
X62115700Y-63312040D02*
X62115700Y-63627000D01*
X62115700Y-58064400D02*
X62115700Y-58379360D01*
D10*
%TO.C,R2*%
X62265579Y-56871600D02*
X62600821Y-56871600D01*
X62265579Y-57631600D02*
X62600821Y-57631600D01*
%TO.C,D5*%
X68855200Y-57638900D02*
X68855200Y-56838900D01*
X67495200Y-57638900D02*
X68855200Y-57638900D01*
X67495200Y-56838900D02*
X68855200Y-56838900D01*
D11*
%TO.C,L1*%
X77893000Y-61734700D02*
X77893000Y-61089540D01*
X77893000Y-53820060D02*
X77893000Y-53174900D01*
X77893000Y-53174900D02*
X69333200Y-53174900D01*
X69333200Y-61734700D02*
X77893000Y-61734700D01*
X69333200Y-61089540D02*
X69333200Y-61734700D01*
X69333200Y-53174900D02*
X69333200Y-53820060D01*
D10*
%TO.C,R12*%
X91032121Y-62254400D02*
X90696879Y-62254400D01*
X91032121Y-61494400D02*
X90696879Y-61494400D01*
%TO.C,R8*%
X82955579Y-53959100D02*
X83290821Y-53959100D01*
X82955579Y-54719100D02*
X83290821Y-54719100D01*
%TO.C,C17*%
X93781200Y-60183765D02*
X93781200Y-60415435D01*
X93061200Y-60183765D02*
X93061200Y-60415435D01*
%TO.C,R7*%
X83288521Y-53618400D02*
X82953279Y-53618400D01*
X83288521Y-52858400D02*
X82953279Y-52858400D01*
%TO.C,C11*%
X85355165Y-58568000D02*
X85586835Y-58568000D01*
X85355165Y-59288000D02*
X85586835Y-59288000D01*
%TO.C,C21*%
X92583400Y-54807665D02*
X92583400Y-55039335D01*
X91863400Y-54807665D02*
X91863400Y-55039335D01*
%TO.C,C15*%
X96493000Y-61206748D02*
X96493000Y-61729252D01*
X95023000Y-61206748D02*
X95023000Y-61729252D01*
%TO.C,R9*%
X102361000Y-57058579D02*
X102361000Y-57393821D01*
X101601000Y-57058579D02*
X101601000Y-57393821D01*
%TO.C,C3*%
X55995235Y-57637000D02*
X55763565Y-57637000D01*
X55995235Y-56917000D02*
X55763565Y-56917000D01*
%TO.C,C6*%
X95042400Y-57164235D02*
X95042400Y-56932565D01*
X95762400Y-57164235D02*
X95762400Y-56932565D01*
%TO.C,C7*%
X95042400Y-55021935D02*
X95042400Y-54790265D01*
X95762400Y-55021935D02*
X95762400Y-54790265D01*
%TO.C,C13*%
X88361065Y-61565200D02*
X88592735Y-61565200D01*
X88361065Y-62285200D02*
X88592735Y-62285200D01*
%TO.C,R4*%
X65744779Y-56858900D02*
X66080021Y-56858900D01*
X65744779Y-57618900D02*
X66080021Y-57618900D01*
%TO.C,C12*%
X87484300Y-59937867D02*
X87484300Y-59645333D01*
X88504300Y-59937867D02*
X88504300Y-59645333D01*
%TO.C,C4*%
X71345248Y-62358600D02*
X71867752Y-62358600D01*
X71345248Y-63828600D02*
X71867752Y-63828600D01*
%TO.C,R5*%
X91556821Y-53567600D02*
X91221579Y-53567600D01*
X91556821Y-52807600D02*
X91221579Y-52807600D01*
D12*
%TO.C,U4*%
X79812599Y-54867602D02*
X80612600Y-54867602D01*
X79812599Y-55367601D02*
X79812599Y-54867602D01*
X79812599Y-59267598D02*
X79812599Y-59092602D01*
X79812599Y-59267598D02*
X80012599Y-59267598D01*
X84012601Y-54867602D02*
X84212601Y-54867602D01*
X84012601Y-59267598D02*
X84212601Y-59267598D01*
X84212601Y-55042598D02*
X84212601Y-54867602D01*
X84212601Y-59267598D02*
X84212601Y-59092602D01*
D10*
%TO.C,C2*%
X57686950Y-60029402D02*
X57686950Y-59506898D01*
X59156950Y-60029402D02*
X59156950Y-59506898D01*
%TO.C,C16*%
X85634565Y-57298000D02*
X85866235Y-57298000D01*
X85634565Y-58018000D02*
X85866235Y-58018000D01*
%TO.C,C1*%
X59156950Y-55646098D02*
X59156950Y-56168602D01*
X57686950Y-55646098D02*
X57686950Y-56168602D01*
%TO.C,R13*%
X93893621Y-63321200D02*
X93558379Y-63321200D01*
X93893621Y-62561200D02*
X93558379Y-62561200D01*
%TO.C,D4*%
X68853100Y-56562900D02*
X68853100Y-53342900D01*
X68853100Y-53342900D02*
X63043100Y-53342900D01*
X63043100Y-56562900D02*
X68853100Y-56562900D01*
%TO.C,U5*%
X101570000Y-61397300D02*
X101570000Y-59597300D01*
X101570000Y-61397300D02*
X101570000Y-62197300D01*
X98450000Y-61397300D02*
X98450000Y-60597300D01*
X98450000Y-61397300D02*
X98450000Y-62197300D01*
D12*
%TO.C,U3*%
X82339899Y-59185602D02*
X83139900Y-59185602D01*
X82339899Y-59685601D02*
X82339899Y-59185602D01*
X82339899Y-63585598D02*
X82339899Y-63410602D01*
X82339899Y-63585598D02*
X82539899Y-63585598D01*
X86539901Y-59185602D02*
X86739901Y-59185602D01*
X86539901Y-63585598D02*
X86739901Y-63585598D01*
X86739901Y-59360598D02*
X86739901Y-59185602D01*
X86739901Y-63585598D02*
X86739901Y-63410602D01*
D10*
%TO.C,R16*%
X97013500Y-61976724D02*
X97013500Y-61467276D01*
X98058500Y-61976724D02*
X98058500Y-61467276D01*
D11*
%TO.C,LED1*%
X102997000Y-52463700D02*
X101727000Y-52463700D01*
X102362000Y-52463700D02*
X102997000Y-53225700D01*
X102362000Y-52463700D02*
X102870000Y-53225700D01*
X102362000Y-52463700D02*
X102743000Y-53225700D01*
X102362000Y-52463700D02*
X102616000Y-53225700D01*
X102362000Y-52463700D02*
X102489000Y-53225700D01*
X102362000Y-52463700D02*
X102235000Y-53225700D01*
X102362000Y-52463700D02*
X102108000Y-53225700D01*
X102362000Y-52463700D02*
X101981000Y-53225700D01*
X102362000Y-52463700D02*
X101854000Y-53225700D01*
X102362000Y-52463700D02*
X101727000Y-53225700D01*
X102997000Y-53225700D02*
X101727000Y-53225700D01*
X102362000Y-53479700D02*
X102362000Y-52209700D01*
D10*
%TO.C,R15*%
X91730621Y-57225200D02*
X91395379Y-57225200D01*
X91730621Y-56465200D02*
X91395379Y-56465200D01*
%TO.C,C8*%
X80405833Y-59535600D02*
X80698367Y-59535600D01*
X80405833Y-60555600D02*
X80698367Y-60555600D01*
%TO.C,R6*%
X94350821Y-53567600D02*
X94015579Y-53567600D01*
X94350821Y-52807600D02*
X94015579Y-52807600D01*
%TO.C,C20*%
X100264965Y-63546400D02*
X100496635Y-63546400D01*
X100264965Y-64266400D02*
X100496635Y-64266400D01*
%TO.C,R11*%
X78715600Y-57786921D02*
X78715600Y-57451679D01*
X79475600Y-57786921D02*
X79475600Y-57451679D01*
%TO.C,C5*%
X76185752Y-63828600D02*
X75663248Y-63828600D01*
X76185752Y-62358600D02*
X75663248Y-62358600D01*
D11*
%TO.C,L2*%
X92557600Y-57810400D02*
X89103200Y-57810400D01*
X89103200Y-61264800D02*
X92557600Y-61264800D01*
X93776800Y-59537600D02*
G75*
G03*
X93776800Y-59537600I-76200J0D01*
G01*
D10*
%TO.C,R14*%
X90725800Y-55094521D02*
X90725800Y-54759279D01*
X91485800Y-55094521D02*
X91485800Y-54759279D01*
%TO.C,C9*%
X79558335Y-63504400D02*
X79326665Y-63504400D01*
X79558335Y-62784400D02*
X79326665Y-62784400D01*
%TO.C,C18*%
X93034665Y-61514400D02*
X93266335Y-61514400D01*
X93034665Y-62234400D02*
X93266335Y-62234400D01*
D11*
%TO.C,L3*%
X89865200Y-53086000D02*
X86410800Y-53086000D01*
X86410800Y-56540400D02*
X89865200Y-56540400D01*
X91084400Y-54813200D02*
G75*
G03*
X91084400Y-54813200I-76200J0D01*
G01*
D10*
%TO.C,R10*%
X79568021Y-62406800D02*
X79232779Y-62406800D01*
X79568021Y-61646800D02*
X79232779Y-61646800D01*
%TD*%
%LPC*%
%TO.C,U1*%
G36*
X66332100Y-63004700D02*
G01*
X62776100Y-63004700D01*
X62776100Y-58686700D01*
X66332100Y-58686700D01*
X66332100Y-63004700D01*
G37*
%TD*%
D13*
%TO.C,D27*%
X87325200Y-63855600D03*
%TD*%
D14*
%TO.C,D3*%
X60401200Y-60350400D03*
%TD*%
D15*
%TO.C,C10*%
X79231300Y-54254400D03*
X80956300Y-54254400D03*
%TD*%
D14*
%TO.C,D19*%
X55321200Y-55270400D03*
%TD*%
D16*
%TO.C,C14*%
X85314600Y-56234500D03*
X85314600Y-54509500D03*
%TD*%
D17*
%TO.C,D29*%
X55626000Y-63246000D03*
%TD*%
D18*
%TO.C,R1*%
X60401200Y-58763500D03*
X60401200Y-57568500D03*
%TD*%
D13*
%TO.C,D12*%
X62585600Y-52324000D03*
%TD*%
D19*
%TO.C,C19*%
X93849000Y-54668600D03*
X93849000Y-56743600D03*
%TD*%
D20*
%TO.C,R3*%
X56476900Y-58394600D03*
X55281900Y-58394600D03*
%TD*%
D14*
%TO.C,D2*%
X60401200Y-55270400D03*
%TD*%
D17*
%TO.C,D30*%
X104394000Y-52578000D03*
%TD*%
D21*
%TO.C,U2*%
X96757700Y-55047500D03*
D22*
X96817700Y-55547500D03*
X96817700Y-56047500D03*
X96817700Y-56547500D03*
X96817700Y-57047500D03*
X96817700Y-57547500D03*
D23*
X96757700Y-58047500D03*
D24*
X97255200Y-58545000D03*
D25*
X97755200Y-58485000D03*
X98255200Y-58485000D03*
X98755200Y-58485000D03*
X99255200Y-58485000D03*
X99755200Y-58485000D03*
D26*
X100255200Y-58545000D03*
D27*
X100752700Y-58047500D03*
D22*
X100692700Y-57547500D03*
X100692700Y-57047500D03*
X100692700Y-56547500D03*
X100692700Y-56047500D03*
X100692700Y-55547500D03*
D28*
X100752700Y-55047500D03*
D29*
X100255200Y-54550000D03*
D25*
X99755200Y-54610000D03*
X99255200Y-54610000D03*
X98755200Y-54610000D03*
X98255200Y-54610000D03*
X97755200Y-54610000D03*
D30*
X97255200Y-54550000D03*
%TD*%
D13*
%TO.C,D20*%
X89712800Y-52019200D03*
%TD*%
D31*
%TO.C,U1*%
X68110100Y-62750700D03*
X68110100Y-61480700D03*
X68110100Y-60210700D03*
X68110100Y-58940700D03*
X62268100Y-58940700D03*
X62268100Y-60210700D03*
X62268100Y-61480700D03*
X62268100Y-62750700D03*
%TD*%
D32*
%TO.C,D18*%
X103581200Y-58674000D03*
%TD*%
D33*
%TO.C,R2*%
X61835700Y-57251600D03*
X63030700Y-57251600D03*
%TD*%
D34*
%TO.C,D5*%
X68415200Y-57238900D03*
X67575200Y-57238900D03*
%TD*%
D35*
%TO.C,L1*%
X76432500Y-57454800D03*
X70793700Y-57454800D03*
%TD*%
D20*
%TO.C,R12*%
X91462000Y-61874400D03*
X90267000Y-61874400D03*
%TD*%
D33*
%TO.C,R8*%
X82525700Y-54339100D03*
X83720700Y-54339100D03*
%TD*%
D36*
%TO.C,C17*%
X93421200Y-59732100D03*
X93421200Y-60867100D03*
%TD*%
D20*
%TO.C,R7*%
X83718400Y-53238400D03*
X82523400Y-53238400D03*
%TD*%
D37*
%TO.C,C11*%
X84903500Y-58928000D03*
X86038500Y-58928000D03*
%TD*%
D36*
%TO.C,C21*%
X92223400Y-54356000D03*
X92223400Y-55491000D03*
%TD*%
D13*
%TO.C,D22*%
X88188800Y-52019200D03*
%TD*%
D19*
%TO.C,C15*%
X95758000Y-60430500D03*
X95758000Y-62505500D03*
%TD*%
D38*
%TO.C,R9*%
X101981000Y-56628700D03*
X101981000Y-57823700D03*
%TD*%
D14*
%TO.C,D1*%
X55321200Y-60350400D03*
%TD*%
D39*
%TO.C,C3*%
X56446900Y-57277000D03*
X55311900Y-57277000D03*
%TD*%
D13*
%TO.C,D25*%
X88849200Y-63855600D03*
%TD*%
D40*
%TO.C,C6*%
X95402400Y-57615900D03*
X95402400Y-56480900D03*
%TD*%
%TO.C,C7*%
X95402400Y-55473600D03*
X95402400Y-54338600D03*
%TD*%
D13*
%TO.C,D21*%
X91897200Y-63855600D03*
%TD*%
D37*
%TO.C,C13*%
X87909400Y-61925200D03*
X89044400Y-61925200D03*
%TD*%
D13*
%TO.C,D10*%
X97993200Y-51917600D03*
%TD*%
%TO.C,D7*%
X95351600Y-51816000D03*
%TD*%
D33*
%TO.C,R4*%
X65314900Y-57238900D03*
X66509900Y-57238900D03*
%TD*%
D13*
%TO.C,D24*%
X86664800Y-52019200D03*
%TD*%
D16*
%TO.C,C12*%
X87994300Y-60654100D03*
X87994300Y-58929100D03*
%TD*%
D32*
%TO.C,D17*%
X103581200Y-57048400D03*
%TD*%
D41*
%TO.C,C4*%
X70569000Y-63093600D03*
X72644000Y-63093600D03*
%TD*%
D20*
%TO.C,R5*%
X91986700Y-53187600D03*
X90791700Y-53187600D03*
%TD*%
D42*
%TO.C,U4*%
X80112601Y-55817600D03*
X80112601Y-56317599D03*
X80112601Y-56817600D03*
X80112601Y-57317600D03*
X80112601Y-57817598D03*
X80112601Y-58317600D03*
X83912599Y-58317600D03*
X83912599Y-57817598D03*
X83912599Y-57317600D03*
X83912599Y-56817598D03*
X83912599Y-56317599D03*
X83912599Y-55817600D03*
D43*
X82012600Y-57067600D03*
D44*
X81012599Y-57067600D03*
X82012600Y-55867600D03*
X82012600Y-57067600D03*
X82012600Y-58267600D03*
X83012601Y-57067600D03*
%TD*%
D13*
%TO.C,D23*%
X90373200Y-63855600D03*
%TD*%
%TO.C,D13*%
X61061600Y-52324000D03*
%TD*%
D45*
%TO.C,C2*%
X58421950Y-60805650D03*
X58421950Y-58730650D03*
%TD*%
D32*
%TO.C,D16*%
X58724800Y-62788800D03*
%TD*%
D13*
%TO.C,D11*%
X64109600Y-52324000D03*
%TD*%
D37*
%TO.C,C16*%
X85182900Y-57658000D03*
X86317900Y-57658000D03*
%TD*%
D19*
%TO.C,C1*%
X58421950Y-54869850D03*
X58421950Y-56944850D03*
%TD*%
D13*
%TO.C,D8*%
X101041200Y-51917600D03*
%TD*%
D20*
%TO.C,R13*%
X94323500Y-62941200D03*
X93128500Y-62941200D03*
%TD*%
D17*
%TO.C,D28*%
X55626000Y-52324000D03*
%TD*%
D46*
%TO.C,D4*%
X67843100Y-54952900D03*
X63043100Y-54952900D03*
%TD*%
D47*
%TO.C,U5*%
X100960000Y-60259800D03*
X100010000Y-60259800D03*
X99060000Y-60259800D03*
X99060000Y-62534800D03*
X100960000Y-62534800D03*
%TD*%
D42*
%TO.C,U3*%
X82639901Y-60135600D03*
X82639901Y-60635599D03*
X82639901Y-61135600D03*
X82639901Y-61635600D03*
X82639901Y-62135598D03*
X82639901Y-62635600D03*
X86439899Y-62635600D03*
X86439899Y-62135598D03*
X86439899Y-61635600D03*
X86439899Y-61135598D03*
X86439899Y-60635599D03*
X86439899Y-60135600D03*
D43*
X84539900Y-61385600D03*
D44*
X83539899Y-61385600D03*
X84539900Y-60185600D03*
X84539900Y-61385600D03*
X84539900Y-62585600D03*
X85539901Y-61385600D03*
%TD*%
D48*
%TO.C,R16*%
X97536000Y-62634500D03*
X97536000Y-60809500D03*
%TD*%
D13*
%TO.C,D9*%
X99517200Y-51917600D03*
%TD*%
D49*
%TO.C,LED1*%
X102362000Y-54717950D03*
X102362000Y-55873650D03*
%TD*%
D20*
%TO.C,R15*%
X92160500Y-56845200D03*
X90965500Y-56845200D03*
%TD*%
D15*
%TO.C,C8*%
X79689600Y-60045600D03*
X81414600Y-60045600D03*
%TD*%
D20*
%TO.C,R6*%
X94780700Y-53187600D03*
X93585700Y-53187600D03*
%TD*%
D37*
%TO.C,C20*%
X99813300Y-63906400D03*
X100948300Y-63906400D03*
%TD*%
D18*
%TO.C,R11*%
X79095600Y-58216800D03*
X79095600Y-57021800D03*
%TD*%
D13*
%TO.C,D14*%
X59563000Y-52349400D03*
%TD*%
%TO.C,D6*%
X93827600Y-51816000D03*
%TD*%
D17*
%TO.C,D31*%
X104394000Y-63246000D03*
%TD*%
D50*
%TO.C,C5*%
X76962000Y-63093600D03*
X74887000Y-63093600D03*
%TD*%
D51*
%TO.C,L2*%
X91782900Y-59537600D03*
X89877900Y-59537600D03*
%TD*%
D32*
%TO.C,D15*%
X60502800Y-62788800D03*
%TD*%
D18*
%TO.C,R14*%
X91105800Y-55524400D03*
X91105800Y-54329400D03*
%TD*%
D39*
%TO.C,C9*%
X80010000Y-63144400D03*
X78875000Y-63144400D03*
%TD*%
D37*
%TO.C,C18*%
X92583000Y-61874400D03*
X93718000Y-61874400D03*
%TD*%
D13*
%TO.C,D26*%
X85140800Y-52019200D03*
%TD*%
D51*
%TO.C,L3*%
X89090500Y-54813200D03*
X87185500Y-54813200D03*
%TD*%
D20*
%TO.C,R10*%
X79997900Y-62026800D03*
X78802900Y-62026800D03*
%TD*%
%LPD*%
M02*
