%TF.GenerationSoftware,KiCad,Pcbnew,7.0.7*%
%TF.CreationDate,2024-07-30T16:01:34+03:00*%
%TF.ProjectId,Main_PCB_002,4d61696e-5f50-4434-925f-3030322e6b69,rev?*%
%TF.SameCoordinates,Original*%
%TF.FileFunction,Copper,L3,Inr*%
%TF.FilePolarity,Positive*%
%FSLAX46Y46*%
G04 Gerber Fmt 4.6, Leading zero omitted, Abs format (unit mm)*
G04 Created by KiCad (PCBNEW 7.0.7) date 2024-07-30 16:01:34*
%MOMM*%
%LPD*%
G01*
G04 APERTURE LIST*
%TA.AperFunction,ComponentPad*%
%ADD10C,0.900000*%
%TD*%
%TA.AperFunction,ComponentPad*%
%ADD11C,1.600000*%
%TD*%
%TA.AperFunction,ComponentPad*%
%ADD12C,2.200000*%
%TD*%
%TA.AperFunction,ComponentPad*%
%ADD13C,1.000000*%
%TD*%
%TA.AperFunction,ComponentPad*%
%ADD14C,0.499999*%
%TD*%
%TA.AperFunction,ViaPad*%
%ADD15C,0.800000*%
%TD*%
%TA.AperFunction,Conductor*%
%ADD16C,0.250000*%
%TD*%
%TA.AperFunction,Conductor*%
%ADD17C,1.000000*%
%TD*%
G04 APERTURE END LIST*
D10*
%TO.N,Net-(D11-Conn)*%
%TO.C,D27*%
X87325200Y-63855600D03*
%TD*%
D11*
%TO.N,Net-(D3-Conn)*%
%TO.C,D3*%
X60401200Y-60350400D03*
%TD*%
%TO.N,GND2*%
%TO.C,D19*%
X55321200Y-55270400D03*
%TD*%
D12*
%TO.N,GND2*%
%TO.C,D29*%
X55626000Y-63246000D03*
%TD*%
D10*
%TO.N,Net-(D12-Conn)*%
%TO.C,D12*%
X62585600Y-52324000D03*
%TD*%
D11*
%TO.N,Net-(D2-Conn)*%
%TO.C,D2*%
X60401200Y-55270400D03*
%TD*%
D12*
%TO.N,GND2*%
%TO.C,D30*%
X104394000Y-52578000D03*
%TD*%
D10*
%TO.N,GND2*%
%TO.C,D20*%
X89712800Y-52019200D03*
%TD*%
D13*
%TO.N,GND2*%
%TO.C,D18*%
X103581200Y-58674000D03*
%TD*%
D10*
%TO.N,Net-(D13-Conn)*%
%TO.C,D22*%
X88188800Y-52019200D03*
%TD*%
D11*
%TO.N,Net-(D1-Conn)*%
%TO.C,D1*%
X55321200Y-60350400D03*
%TD*%
D10*
%TO.N,Net-(D12-Conn)*%
%TO.C,D25*%
X88849200Y-63855600D03*
%TD*%
%TO.N,GND2*%
%TO.C,D21*%
X91897200Y-63855600D03*
%TD*%
%TO.N,GND2*%
%TO.C,D10*%
X97993200Y-51917600D03*
%TD*%
%TO.N,Net-(D7-Conn)*%
%TO.C,D7*%
X95351600Y-51816000D03*
%TD*%
%TO.N,Net-(D12-Conn)*%
%TO.C,D24*%
X86664800Y-52019200D03*
%TD*%
D13*
%TO.N,Net-(D16-Conn)*%
%TO.C,D17*%
X103581200Y-57048400D03*
%TD*%
D14*
%TO.N,GND2*%
%TO.C,U4*%
X81012599Y-57067600D03*
X82012600Y-55867600D03*
X82012600Y-57067600D03*
X82012600Y-58267600D03*
X83012601Y-57067600D03*
%TD*%
D10*
%TO.N,Net-(D13-Conn)*%
%TO.C,D23*%
X90373200Y-63855600D03*
%TD*%
%TO.N,Net-(D13-Conn)*%
%TO.C,D13*%
X61061600Y-52324000D03*
%TD*%
D13*
%TO.N,Net-(D16-Conn)*%
%TO.C,D16*%
X58724800Y-62788800D03*
%TD*%
D10*
%TO.N,Net-(D11-Conn)*%
%TO.C,D11*%
X64109600Y-52324000D03*
%TD*%
%TO.N,Net-(D8-Conn)*%
%TO.C,D8*%
X101041200Y-51917600D03*
%TD*%
D12*
%TO.N,GND2*%
%TO.C,D28*%
X55626000Y-52324000D03*
%TD*%
D14*
%TO.N,GND2*%
%TO.C,U3*%
X83539899Y-61385600D03*
X84539900Y-60185600D03*
X84539900Y-61385600D03*
X84539900Y-62585600D03*
X85539901Y-61385600D03*
%TD*%
D10*
%TO.N,Net-(D9-Conn)*%
%TO.C,D9*%
X99517200Y-51917600D03*
%TD*%
%TO.N,GND2*%
%TO.C,D14*%
X59563000Y-52349400D03*
%TD*%
%TO.N,Net-(D6-Conn)*%
%TO.C,D6*%
X93827600Y-51816000D03*
%TD*%
D12*
%TO.N,GND2*%
%TO.C,D31*%
X104394000Y-63246000D03*
%TD*%
D13*
%TO.N,Net-(D15-Conn)*%
%TO.C,D15*%
X60502800Y-62788800D03*
%TD*%
D10*
%TO.N,Net-(D11-Conn)*%
%TO.C,D26*%
X85140800Y-52019200D03*
%TD*%
D15*
%TO.N,Net-(U2-PA5)*%
X98971353Y-57486101D03*
X56426100Y-57873900D03*
%TO.N,GND2*%
X99629577Y-61401247D03*
X94192352Y-56031975D03*
X99656259Y-56637226D03*
X73609200Y-55930800D03*
X94661803Y-59513546D03*
X73609200Y-59080400D03*
X95910400Y-63385100D03*
X102362000Y-54203600D03*
X73609200Y-60096400D03*
X79095600Y-55626000D03*
X73660000Y-54762400D03*
X86614000Y-57150000D03*
X77384701Y-53457901D03*
X73609200Y-58013600D03*
X67056000Y-59436000D03*
X104241600Y-55422800D03*
X73609200Y-61163200D03*
X65278000Y-55118000D03*
X88290400Y-57759600D03*
X75666600Y-52247800D03*
%TO.N,Net-(D7-Conn)*%
X97924745Y-59514700D03*
%TO.N,Net-(D11-Conn)*%
X77622400Y-63296800D03*
%TO.N,Net-(D13-Conn)*%
X100888800Y-62687200D03*
%TO.N,Net-(D15-Conn)*%
X97536000Y-63385100D03*
%TO.N,Net-(D6-Conn)*%
X96925243Y-59514700D03*
%TO.N,Net-(U2-PB5)*%
X60452000Y-56997600D03*
X95855301Y-53315500D03*
%TO.N,Net-(U2-PB4)*%
X96520000Y-54254400D03*
X63601600Y-57454343D03*
X99110800Y-55778400D03*
%TO.N,Net-(U2-PA1)*%
X92494408Y-53397971D03*
X93421200Y-58115200D03*
%TO.N,Net-(U2-PA0)*%
X94437200Y-58064400D03*
X83820000Y-54762400D03*
%TO.N,Net-(D12-Conn)*%
X100279200Y-53289200D03*
%TO.N,Net-(U2-PB3)*%
X99161600Y-53492400D03*
X81229200Y-61925200D03*
X81229200Y-61925200D03*
%TD*%
D16*
%TO.N,Net-(U2-PA5)*%
X99466400Y-59791600D02*
X98356000Y-60902000D01*
X61671200Y-61722000D02*
X58994895Y-61722000D01*
X72833400Y-63666200D02*
X63615400Y-63666200D01*
X80203895Y-61925200D02*
X74574400Y-61925200D01*
X98356000Y-60902000D02*
X88348400Y-60902000D01*
X98971353Y-57486101D02*
X99466400Y-57981148D01*
X63615400Y-63666200D02*
X61671200Y-61722000D01*
X87239799Y-62010601D02*
X84301727Y-62010601D01*
X83662128Y-62650200D02*
X80928895Y-62650200D01*
X74574400Y-61925200D02*
X72833400Y-63666200D01*
X99466400Y-57981148D02*
X99466400Y-59791600D01*
X80928895Y-62650200D02*
X80203895Y-61925200D01*
X84301727Y-62010601D02*
X83662128Y-62650200D01*
X56426100Y-59153205D02*
X56426100Y-57873900D01*
X88348400Y-60902000D02*
X87239799Y-62010601D01*
X58994895Y-61722000D02*
X56426100Y-59153205D01*
%TO.N,Net-(D7-Conn)*%
X97790000Y-53543200D02*
X96062800Y-51816000D01*
X97924745Y-59514700D02*
X97790000Y-59379955D01*
X97924745Y-59514700D02*
X97739200Y-59329155D01*
X96062800Y-51816000D02*
X95351600Y-51816000D01*
X97790000Y-59379955D02*
X97790000Y-53543200D01*
X97739200Y-59329155D02*
X97739200Y-59283600D01*
D17*
%TO.N,Net-(D11-Conn)*%
X87325200Y-63855600D02*
X78232000Y-63855600D01*
D16*
X77673200Y-63296800D02*
X77673200Y-63296800D01*
X77673200Y-63296800D02*
X77622400Y-63296800D01*
X77622400Y-63246000D02*
X77622400Y-63246000D01*
D17*
X78232000Y-63855600D02*
X77673200Y-63296800D01*
D16*
X77622400Y-63296800D02*
X77622400Y-63246000D01*
%TO.N,Net-(D13-Conn)*%
X100888800Y-62636400D02*
X100838000Y-62687200D01*
X100888800Y-62687200D02*
X100888800Y-62636400D01*
X100838000Y-62687200D02*
X100888800Y-62687200D01*
X93247216Y-64109600D02*
X92218216Y-63080600D01*
X88188800Y-52019200D02*
X87413800Y-51244200D01*
X92218216Y-63080600D02*
X91148200Y-63080600D01*
X91148200Y-63080600D02*
X90373200Y-63855600D01*
X62141400Y-51244200D02*
X61061600Y-52324000D01*
X87413800Y-51244200D02*
X62141400Y-51244200D01*
X93247216Y-64109600D02*
X99415600Y-64109600D01*
X99415600Y-64109600D02*
X100838000Y-62687200D01*
%TO.N,Net-(D6-Conn)*%
X96925243Y-59514700D02*
X97289200Y-59150743D01*
X97289200Y-53702800D02*
X96177400Y-52591000D01*
X97289200Y-59150743D02*
X97289200Y-53702800D01*
X96177400Y-52591000D02*
X94602600Y-52591000D01*
X94602600Y-52591000D02*
X93827600Y-51816000D01*
%TO.N,Net-(U2-PB5)*%
X60719757Y-56729843D02*
X79312557Y-56729843D01*
X84937600Y-53594000D02*
X90576400Y-53594000D01*
X90576400Y-53594000D02*
X92049600Y-52120800D01*
X82919400Y-53123000D02*
X84466600Y-53123000D01*
X84466600Y-53123000D02*
X84937600Y-53594000D01*
X60452000Y-56997600D02*
X60719757Y-56729843D01*
X79312557Y-56729843D02*
X82919400Y-53123000D01*
X93014800Y-52120800D02*
X94209500Y-53315500D01*
X92049600Y-52120800D02*
X93014800Y-52120800D01*
X94209500Y-53315500D02*
X95855301Y-53315500D01*
%TO.N,Net-(U2-PB4)*%
X79806800Y-57179843D02*
X83261200Y-53725443D01*
X84103843Y-53725443D02*
X84480400Y-54102000D01*
X91991537Y-52875537D02*
X92194103Y-52672971D01*
X63876100Y-57179843D02*
X79806800Y-57179843D01*
X90932000Y-54102000D02*
X90932000Y-53935074D01*
X92194103Y-52672971D02*
X92794713Y-52672971D01*
X96520000Y-54254400D02*
X94376142Y-54254400D01*
X83261200Y-53725443D02*
X84103843Y-53725443D01*
X90932000Y-53935074D02*
X91991537Y-52875537D01*
X94376142Y-54254400D02*
X94183200Y-54061458D01*
X63601600Y-57454343D02*
X63876100Y-57179843D01*
X84480400Y-54102000D02*
X90932000Y-54102000D01*
X92794713Y-52672971D02*
X94183200Y-54061458D01*
%TO.N,Net-(U2-PA1)*%
X92494408Y-53397971D02*
X92494408Y-53632408D01*
X92494408Y-53632408D02*
X93421200Y-54559200D01*
X93421200Y-54559200D02*
X93421200Y-58115200D01*
%TO.N,Net-(U2-PA0)*%
X88900000Y-55067200D02*
X92673000Y-58840200D01*
X94437200Y-58124505D02*
X94437200Y-58064400D01*
X83820000Y-54762400D02*
X84124800Y-55067200D01*
X93721505Y-58840200D02*
X94437200Y-58124505D01*
X92673000Y-58840200D02*
X93721505Y-58840200D01*
X84124800Y-55067200D02*
X88900000Y-55067200D01*
%TO.N,Net-(D12-Conn)*%
X99682600Y-52692600D02*
X97672184Y-52692600D01*
X84694392Y-52668808D02*
X77149196Y-52668808D01*
X100279200Y-53289200D02*
X99682600Y-52692600D01*
X89624200Y-64630600D02*
X100469400Y-64630600D01*
X92418200Y-51041000D02*
X90474800Y-52984400D01*
X100469400Y-64630600D02*
X101803200Y-63296800D01*
X63360600Y-53099000D02*
X62585600Y-52324000D01*
X76719004Y-53099000D02*
X63360600Y-53099000D01*
X97672184Y-52692600D02*
X96020584Y-51041000D01*
X101803200Y-54813200D02*
X100279200Y-53289200D01*
X77149196Y-52668808D02*
X76719004Y-53099000D01*
X90474800Y-52984400D02*
X85009984Y-52984400D01*
X85009984Y-52984400D02*
X84694392Y-52668808D01*
X88849200Y-63855600D02*
X89624200Y-64630600D01*
X86664800Y-52019200D02*
X86664800Y-52984400D01*
X96020584Y-51041000D02*
X92418200Y-51041000D01*
X101803200Y-63296800D02*
X101803200Y-54813200D01*
%TO.N,Net-(U2-PB3)*%
X98247200Y-58470800D02*
X98806000Y-59029600D01*
X98806000Y-59750105D02*
X98104105Y-60452000D01*
X99161600Y-53492400D02*
X98247200Y-54406800D01*
X98806000Y-59029600D02*
X98806000Y-59750105D01*
X91490800Y-60452000D02*
X90119200Y-59080400D01*
X98247200Y-54406800D02*
X98247200Y-58470800D01*
X90119200Y-59080400D02*
X84074000Y-59080400D01*
X84074000Y-59080400D02*
X81229200Y-61925200D01*
X98104105Y-60452000D02*
X91490800Y-60452000D01*
%TD*%
%TA.AperFunction,Conductor*%
%TO.N,GND2*%
G36*
X92138179Y-50576185D02*
G01*
X92183934Y-50628989D01*
X92193878Y-50698147D01*
X92164853Y-50761703D01*
X92162367Y-50764485D01*
X92147192Y-50780970D01*
X90355581Y-52572581D01*
X90294258Y-52606066D01*
X90267900Y-52608900D01*
X88869193Y-52608900D01*
X88802154Y-52589215D01*
X88756399Y-52536411D01*
X88746455Y-52467253D01*
X88767141Y-52414461D01*
X88813618Y-52347130D01*
X88873940Y-52188072D01*
X88894445Y-52019200D01*
X88873940Y-51850328D01*
X88813618Y-51691270D01*
X88716983Y-51551271D01*
X88589652Y-51438466D01*
X88589649Y-51438463D01*
X88439026Y-51359410D01*
X88273856Y-51318700D01*
X88103744Y-51318700D01*
X88103743Y-51318700D01*
X88096297Y-51319604D01*
X88096140Y-51318314D01*
X88034113Y-51315578D01*
X87986575Y-51285937D01*
X87715949Y-51015311D01*
X87699822Y-50995452D01*
X87693886Y-50986367D01*
X87693883Y-50986363D01*
X87665874Y-50964563D01*
X87660110Y-50959472D01*
X87657315Y-50956677D01*
X87638305Y-50943106D01*
X87594989Y-50909390D01*
X87588074Y-50905648D01*
X87581000Y-50902190D01*
X87528396Y-50886529D01*
X87476458Y-50868699D01*
X87468723Y-50867408D01*
X87460885Y-50866431D01*
X87406044Y-50868700D01*
X62193203Y-50868700D01*
X62167758Y-50866061D01*
X62157132Y-50863833D01*
X62157129Y-50863833D01*
X62121907Y-50868223D01*
X62114231Y-50868700D01*
X62110286Y-50868700D01*
X62093015Y-50871581D01*
X62087258Y-50872542D01*
X62032770Y-50879334D01*
X62025257Y-50881571D01*
X62017787Y-50884136D01*
X61969522Y-50910255D01*
X61920192Y-50934371D01*
X61913775Y-50938953D01*
X61907575Y-50943779D01*
X61870392Y-50984170D01*
X61263824Y-51590737D01*
X61202501Y-51624222D01*
X61154205Y-51623561D01*
X61154103Y-51624404D01*
X61146657Y-51623500D01*
X61146656Y-51623500D01*
X60976544Y-51623500D01*
X60811373Y-51664210D01*
X60660750Y-51743263D01*
X60533416Y-51856072D01*
X60436782Y-51996068D01*
X60376460Y-52155125D01*
X60376459Y-52155130D01*
X60355955Y-52324000D01*
X60376459Y-52492869D01*
X60376460Y-52492874D01*
X60436782Y-52651931D01*
X60495958Y-52737660D01*
X60533417Y-52791929D01*
X60624931Y-52873003D01*
X60660750Y-52904736D01*
X60811373Y-52983789D01*
X60811375Y-52983790D01*
X60976544Y-53024500D01*
X61146656Y-53024500D01*
X61311825Y-52983790D01*
X61417380Y-52928390D01*
X61462449Y-52904736D01*
X61462450Y-52904734D01*
X61462452Y-52904734D01*
X61589783Y-52791929D01*
X61686418Y-52651930D01*
X61707658Y-52595923D01*
X61749835Y-52540221D01*
X61815433Y-52516163D01*
X61883623Y-52531390D01*
X61932757Y-52581065D01*
X61939542Y-52595924D01*
X61960781Y-52651928D01*
X61960782Y-52651931D01*
X62019958Y-52737660D01*
X62057417Y-52791929D01*
X62148931Y-52873003D01*
X62184750Y-52904736D01*
X62335373Y-52983789D01*
X62335375Y-52983790D01*
X62500544Y-53024500D01*
X62670658Y-53024500D01*
X62678104Y-53023596D01*
X62678261Y-53024889D01*
X62740267Y-53027614D01*
X62787825Y-53057262D01*
X63058449Y-53327886D01*
X63074578Y-53347747D01*
X63080516Y-53356836D01*
X63108529Y-53378639D01*
X63114291Y-53383728D01*
X63117083Y-53386520D01*
X63136086Y-53400088D01*
X63179411Y-53433809D01*
X63179413Y-53433809D01*
X63186335Y-53437555D01*
X63193398Y-53441008D01*
X63193401Y-53441010D01*
X63246012Y-53456673D01*
X63271976Y-53465586D01*
X63297939Y-53474500D01*
X63305701Y-53475795D01*
X63313511Y-53476768D01*
X63313512Y-53476769D01*
X63313512Y-53476768D01*
X63313513Y-53476769D01*
X63340940Y-53475634D01*
X63368369Y-53474500D01*
X76667200Y-53474500D01*
X76692645Y-53477139D01*
X76696444Y-53477935D01*
X76703272Y-53479367D01*
X76724229Y-53476754D01*
X76738496Y-53474977D01*
X76746172Y-53474500D01*
X76750116Y-53474500D01*
X76750118Y-53474500D01*
X76750120Y-53474499D01*
X76750126Y-53474499D01*
X76765491Y-53471934D01*
X76773144Y-53470657D01*
X76827630Y-53463866D01*
X76827631Y-53463865D01*
X76827633Y-53463865D01*
X76835145Y-53461628D01*
X76842610Y-53459066D01*
X76842610Y-53459065D01*
X76842614Y-53459065D01*
X76890881Y-53432944D01*
X76940215Y-53408826D01*
X76940217Y-53408823D01*
X76946598Y-53404268D01*
X76952822Y-53399423D01*
X76952830Y-53399419D01*
X76990012Y-53359028D01*
X77125597Y-53223443D01*
X77268414Y-53080627D01*
X77329737Y-53047142D01*
X77356095Y-53044308D01*
X82167693Y-53044308D01*
X82234732Y-53063993D01*
X82280487Y-53116797D01*
X82290431Y-53185955D01*
X82261406Y-53249511D01*
X82255374Y-53255988D01*
X80723799Y-54787563D01*
X79193338Y-56318024D01*
X79132015Y-56351509D01*
X79105657Y-56354343D01*
X61082881Y-56354343D01*
X61015842Y-56334658D01*
X60970087Y-56281854D01*
X60960143Y-56212696D01*
X60989168Y-56149140D01*
X61004217Y-56134489D01*
X61147610Y-56016810D01*
X61214570Y-55935218D01*
X61278885Y-55856850D01*
X61376432Y-55674354D01*
X61436500Y-55476334D01*
X61456783Y-55270400D01*
X61436500Y-55064466D01*
X61376432Y-54866446D01*
X61278885Y-54683950D01*
X61219020Y-54611004D01*
X61147610Y-54523989D01*
X61015025Y-54415181D01*
X60987650Y-54392715D01*
X60817754Y-54301902D01*
X60805156Y-54295169D01*
X60805155Y-54295168D01*
X60805154Y-54295168D01*
X60607134Y-54235100D01*
X60607132Y-54235099D01*
X60607134Y-54235099D01*
X60401200Y-54214817D01*
X60195267Y-54235099D01*
X59997243Y-54295169D01*
X59904218Y-54344893D01*
X59814750Y-54392715D01*
X59814748Y-54392716D01*
X59814747Y-54392717D01*
X59654789Y-54523989D01*
X59523517Y-54683947D01*
X59523515Y-54683950D01*
X59519373Y-54691700D01*
X59425969Y-54866443D01*
X59365899Y-55064467D01*
X59345617Y-55270400D01*
X59365899Y-55476332D01*
X59365900Y-55476334D01*
X59425968Y-55674354D01*
X59523515Y-55856850D01*
X59523517Y-55856852D01*
X59654789Y-56016810D01*
X59751409Y-56096102D01*
X59814750Y-56148085D01*
X59940015Y-56215041D01*
X59997245Y-56245632D01*
X60010322Y-56249598D01*
X60025288Y-56254138D01*
X60083728Y-56292434D01*
X60112185Y-56356246D01*
X60101626Y-56425313D01*
X60071522Y-56465615D01*
X59961516Y-56563070D01*
X59871781Y-56693075D01*
X59871780Y-56693076D01*
X59815762Y-56840781D01*
X59796722Y-56997599D01*
X59796722Y-56997600D01*
X59815762Y-57154418D01*
X59870036Y-57297525D01*
X59871780Y-57302123D01*
X59961517Y-57432130D01*
X60079760Y-57536883D01*
X60088016Y-57541216D01*
X60219634Y-57610296D01*
X60373014Y-57648100D01*
X60373015Y-57648100D01*
X60530985Y-57648100D01*
X60684365Y-57610296D01*
X60702820Y-57600610D01*
X60824240Y-57536883D01*
X60942483Y-57432130D01*
X61032220Y-57302123D01*
X61076497Y-57185372D01*
X61118676Y-57129669D01*
X61184274Y-57105612D01*
X61192440Y-57105343D01*
X62858603Y-57105343D01*
X62925642Y-57125028D01*
X62971397Y-57177832D01*
X62981341Y-57246990D01*
X62974545Y-57273315D01*
X62965362Y-57297525D01*
X62946322Y-57454342D01*
X62946322Y-57454343D01*
X62965362Y-57611161D01*
X63005533Y-57717081D01*
X63021380Y-57758866D01*
X63111117Y-57888873D01*
X63229360Y-57993626D01*
X63229362Y-57993627D01*
X63369234Y-58067039D01*
X63522614Y-58104843D01*
X63522615Y-58104843D01*
X63680585Y-58104843D01*
X63833965Y-58067039D01*
X63889745Y-58037763D01*
X63973840Y-57993626D01*
X64092083Y-57888873D01*
X64181820Y-57758866D01*
X64228654Y-57635372D01*
X64270833Y-57579669D01*
X64336431Y-57555612D01*
X64344597Y-57555343D01*
X79754996Y-57555343D01*
X79780441Y-57557982D01*
X79784240Y-57558778D01*
X79791068Y-57560210D01*
X79812025Y-57557597D01*
X79826292Y-57555820D01*
X79833968Y-57555343D01*
X79837912Y-57555343D01*
X79837914Y-57555343D01*
X79837916Y-57555342D01*
X79837922Y-57555342D01*
X79853287Y-57552777D01*
X79860940Y-57551500D01*
X79915426Y-57544709D01*
X79915427Y-57544708D01*
X79915429Y-57544708D01*
X79922941Y-57542471D01*
X79930406Y-57539909D01*
X79930406Y-57539908D01*
X79930410Y-57539908D01*
X79978677Y-57513787D01*
X80028011Y-57489669D01*
X80028013Y-57489666D01*
X80034394Y-57485111D01*
X80040619Y-57480265D01*
X80040626Y-57480262D01*
X80077808Y-57439871D01*
X82967218Y-54550460D01*
X83028540Y-54516977D01*
X83098232Y-54521961D01*
X83154165Y-54563833D01*
X83178582Y-54629297D01*
X83177994Y-54653089D01*
X83164722Y-54762399D01*
X83164722Y-54762400D01*
X83183762Y-54919218D01*
X83222022Y-55020099D01*
X83239780Y-55066923D01*
X83329517Y-55196930D01*
X83447760Y-55301683D01*
X83447762Y-55301684D01*
X83587634Y-55375096D01*
X83741014Y-55412900D01*
X83741015Y-55412900D01*
X83898985Y-55412900D01*
X83905086Y-55411396D01*
X83970149Y-55412945D01*
X84010205Y-55424871D01*
X84062140Y-55442700D01*
X84062142Y-55442700D01*
X84069879Y-55443991D01*
X84077709Y-55444967D01*
X84077711Y-55444968D01*
X84077712Y-55444967D01*
X84077713Y-55444968D01*
X84132555Y-55442700D01*
X88693101Y-55442700D01*
X88760140Y-55462385D01*
X88780781Y-55479018D01*
X90599287Y-57297525D01*
X92370850Y-59069088D01*
X92386975Y-59088944D01*
X92392913Y-59098032D01*
X92392916Y-59098036D01*
X92420925Y-59119836D01*
X92426687Y-59124925D01*
X92429482Y-59127720D01*
X92448495Y-59141294D01*
X92491811Y-59175009D01*
X92491818Y-59175011D01*
X92498720Y-59178747D01*
X92505796Y-59182206D01*
X92505801Y-59182210D01*
X92512892Y-59184321D01*
X92558403Y-59197870D01*
X92610338Y-59215700D01*
X92618072Y-59216990D01*
X92625910Y-59217967D01*
X92625912Y-59217968D01*
X92625913Y-59217967D01*
X92625914Y-59217968D01*
X92680756Y-59215700D01*
X93669701Y-59215700D01*
X93695146Y-59218339D01*
X93698945Y-59219135D01*
X93705773Y-59220567D01*
X93726730Y-59217954D01*
X93740997Y-59216177D01*
X93748673Y-59215700D01*
X93752617Y-59215700D01*
X93752619Y-59215700D01*
X93752621Y-59215699D01*
X93752627Y-59215699D01*
X93767992Y-59213134D01*
X93775645Y-59211857D01*
X93830131Y-59205066D01*
X93830132Y-59205065D01*
X93830134Y-59205065D01*
X93837646Y-59202828D01*
X93845111Y-59200266D01*
X93845111Y-59200265D01*
X93845115Y-59200265D01*
X93893382Y-59174144D01*
X93942716Y-59150026D01*
X93942718Y-59150023D01*
X93949099Y-59145468D01*
X93955324Y-59140622D01*
X93955331Y-59140619D01*
X93992513Y-59100228D01*
X94341522Y-58751219D01*
X94402846Y-58717734D01*
X94429204Y-58714900D01*
X94516185Y-58714900D01*
X94669565Y-58677096D01*
X94809440Y-58603683D01*
X94927683Y-58498930D01*
X95017420Y-58368923D01*
X95073437Y-58221218D01*
X95092478Y-58064400D01*
X95080003Y-57961654D01*
X95073437Y-57907581D01*
X95026839Y-57784713D01*
X95017420Y-57759877D01*
X94927683Y-57629870D01*
X94809440Y-57525117D01*
X94809438Y-57525116D01*
X94809437Y-57525115D01*
X94669565Y-57451703D01*
X94516186Y-57413900D01*
X94516185Y-57413900D01*
X94358215Y-57413900D01*
X94358214Y-57413900D01*
X94204834Y-57451703D01*
X94064961Y-57525115D01*
X94064959Y-57525117D01*
X94002926Y-57580073D01*
X93939693Y-57609794D01*
X93870430Y-57600610D01*
X93817127Y-57555437D01*
X93796707Y-57488618D01*
X93796700Y-57487257D01*
X93796700Y-54611004D01*
X93799340Y-54585555D01*
X93801567Y-54574933D01*
X93800183Y-54563833D01*
X93797175Y-54539707D01*
X93796699Y-54532026D01*
X93796700Y-54528086D01*
X93795896Y-54523274D01*
X93804277Y-54453908D01*
X93848829Y-54400086D01*
X93915407Y-54378894D01*
X93982874Y-54397061D01*
X94005886Y-54415181D01*
X94073991Y-54483286D01*
X94090119Y-54503145D01*
X94096058Y-54512236D01*
X94124074Y-54534041D01*
X94129835Y-54539130D01*
X94132624Y-54541919D01*
X94151625Y-54555485D01*
X94190319Y-54585602D01*
X94194953Y-54589209D01*
X94201846Y-54592939D01*
X94208938Y-54596406D01*
X94208943Y-54596410D01*
X94214768Y-54598144D01*
X94261545Y-54612070D01*
X94313480Y-54629900D01*
X94321214Y-54631190D01*
X94329052Y-54632167D01*
X94329054Y-54632168D01*
X94329055Y-54632167D01*
X94329056Y-54632168D01*
X94383898Y-54629900D01*
X95923692Y-54629900D01*
X95990731Y-54649585D01*
X96025742Y-54683461D01*
X96029517Y-54688930D01*
X96147760Y-54793683D01*
X96147762Y-54793684D01*
X96287634Y-54867096D01*
X96441014Y-54904900D01*
X96441015Y-54904900D01*
X96598985Y-54904900D01*
X96759649Y-54865301D01*
X96760432Y-54868480D01*
X96815386Y-54864244D01*
X96876894Y-54897389D01*
X96910718Y-54958525D01*
X96913700Y-54985555D01*
X96913700Y-58750428D01*
X96894015Y-58817467D01*
X96841211Y-58863222D01*
X96819375Y-58870825D01*
X96692876Y-58902004D01*
X96553005Y-58975415D01*
X96434759Y-59080171D01*
X96345024Y-59210175D01*
X96345023Y-59210176D01*
X96289005Y-59357881D01*
X96269965Y-59514699D01*
X96269965Y-59514700D01*
X96289005Y-59671518D01*
X96345023Y-59819222D01*
X96345023Y-59819223D01*
X96369204Y-59854255D01*
X96388396Y-59882060D01*
X96410279Y-59948415D01*
X96392814Y-60016066D01*
X96341546Y-60063536D01*
X96286346Y-60076500D01*
X91697700Y-60076500D01*
X91630661Y-60056815D01*
X91610019Y-60040181D01*
X90421349Y-58851511D01*
X90405222Y-58831652D01*
X90399286Y-58822567D01*
X90399283Y-58822563D01*
X90371274Y-58800763D01*
X90365510Y-58795672D01*
X90362715Y-58792877D01*
X90343705Y-58779306D01*
X90300389Y-58745590D01*
X90293474Y-58741848D01*
X90286400Y-58738390D01*
X90233796Y-58722729D01*
X90181858Y-58704899D01*
X90174123Y-58703608D01*
X90166285Y-58702631D01*
X90111444Y-58704900D01*
X84125803Y-58704900D01*
X84100358Y-58702261D01*
X84089732Y-58700033D01*
X84089729Y-58700033D01*
X84054507Y-58704423D01*
X84046831Y-58704900D01*
X84042886Y-58704900D01*
X84025615Y-58707781D01*
X84019858Y-58708742D01*
X83965370Y-58715534D01*
X83957857Y-58717771D01*
X83950387Y-58720336D01*
X83902122Y-58746455D01*
X83852792Y-58770571D01*
X83846375Y-58775153D01*
X83840175Y-58779979D01*
X83802991Y-58820371D01*
X81384980Y-61238381D01*
X81323657Y-61271866D01*
X81297299Y-61274700D01*
X81150214Y-61274700D01*
X80996834Y-61312503D01*
X80856962Y-61385915D01*
X80738718Y-61490669D01*
X80644942Y-61626526D01*
X80590659Y-61670516D01*
X80521210Y-61678175D01*
X80466727Y-61653936D01*
X80455968Y-61645562D01*
X80450212Y-61640479D01*
X80447413Y-61637680D01*
X80447409Y-61637677D01*
X80447408Y-61637676D01*
X80431790Y-61626526D01*
X80428399Y-61624105D01*
X80395865Y-61598782D01*
X80385084Y-61590390D01*
X80378169Y-61586648D01*
X80371095Y-61583190D01*
X80318491Y-61567529D01*
X80266553Y-61549699D01*
X80258818Y-61548408D01*
X80250980Y-61547431D01*
X80196139Y-61549700D01*
X74626203Y-61549700D01*
X74600758Y-61547061D01*
X74590132Y-61544833D01*
X74590129Y-61544833D01*
X74554907Y-61549223D01*
X74547231Y-61549700D01*
X74543286Y-61549700D01*
X74526015Y-61552581D01*
X74520258Y-61553542D01*
X74465770Y-61560334D01*
X74458257Y-61562571D01*
X74450787Y-61565136D01*
X74402522Y-61591255D01*
X74353192Y-61615371D01*
X74346775Y-61619953D01*
X74340575Y-61624779D01*
X74303392Y-61665170D01*
X72714181Y-63254381D01*
X72652858Y-63287866D01*
X72626500Y-63290700D01*
X63822299Y-63290700D01*
X63755260Y-63271015D01*
X63734618Y-63254381D01*
X62866815Y-62386578D01*
X61973349Y-61493111D01*
X61957222Y-61473252D01*
X61951286Y-61464167D01*
X61951283Y-61464163D01*
X61923274Y-61442363D01*
X61917510Y-61437272D01*
X61914715Y-61434477D01*
X61895705Y-61420906D01*
X61852389Y-61387190D01*
X61845474Y-61383448D01*
X61838400Y-61379990D01*
X61785796Y-61364329D01*
X61733858Y-61346499D01*
X61726123Y-61345208D01*
X61718285Y-61344231D01*
X61663444Y-61346500D01*
X61189919Y-61346500D01*
X61122880Y-61326815D01*
X61077125Y-61274011D01*
X61067181Y-61204853D01*
X61096206Y-61141297D01*
X61111254Y-61126647D01*
X61126293Y-61114304D01*
X61147610Y-61096810D01*
X61278885Y-60936850D01*
X61376432Y-60754354D01*
X61436500Y-60556334D01*
X61456783Y-60350400D01*
X61436500Y-60144466D01*
X61376432Y-59946446D01*
X61278885Y-59763950D01*
X61222869Y-59695694D01*
X61147610Y-59603989D01*
X61002154Y-59484618D01*
X60987650Y-59472715D01*
X60814267Y-59380039D01*
X60805156Y-59375169D01*
X60805155Y-59375168D01*
X60805154Y-59375168D01*
X60607134Y-59315100D01*
X60607132Y-59315099D01*
X60607134Y-59315099D01*
X60401200Y-59294817D01*
X60195267Y-59315099D01*
X59997243Y-59375169D01*
X59905490Y-59424213D01*
X59814750Y-59472715D01*
X59814748Y-59472716D01*
X59814747Y-59472717D01*
X59654789Y-59603989D01*
X59523517Y-59763947D01*
X59523515Y-59763950D01*
X59493971Y-59819223D01*
X59425969Y-59946443D01*
X59425968Y-59946445D01*
X59425968Y-59946446D01*
X59422221Y-59958797D01*
X59365899Y-60144467D01*
X59345617Y-60350399D01*
X59365899Y-60556332D01*
X59379625Y-60601579D01*
X59425968Y-60754354D01*
X59523515Y-60936850D01*
X59523517Y-60936852D01*
X59654790Y-61096810D01*
X59691146Y-61126647D01*
X59730480Y-61184392D01*
X59732351Y-61254237D01*
X59696164Y-61314005D01*
X59633408Y-61344721D01*
X59612481Y-61346500D01*
X59201794Y-61346500D01*
X59134755Y-61326815D01*
X59114113Y-61310181D01*
X56837919Y-59033986D01*
X56804434Y-58972663D01*
X56801600Y-58946305D01*
X56801600Y-58466102D01*
X56821285Y-58399063D01*
X56843374Y-58373286D01*
X56867875Y-58351581D01*
X56916583Y-58308430D01*
X57006320Y-58178423D01*
X57062337Y-58030718D01*
X57081378Y-57873900D01*
X57073702Y-57810677D01*
X57062337Y-57717081D01*
X57032677Y-57638876D01*
X57006320Y-57569377D01*
X56916583Y-57439370D01*
X56798340Y-57334617D01*
X56798338Y-57334616D01*
X56798337Y-57334615D01*
X56658465Y-57261203D01*
X56505086Y-57223400D01*
X56505085Y-57223400D01*
X56347115Y-57223400D01*
X56347114Y-57223400D01*
X56193734Y-57261203D01*
X56053862Y-57334615D01*
X55935616Y-57439371D01*
X55845881Y-57569375D01*
X55845880Y-57569376D01*
X55789862Y-57717081D01*
X55770822Y-57873899D01*
X55770822Y-57873900D01*
X55789862Y-58030718D01*
X55839412Y-58161369D01*
X55845880Y-58178423D01*
X55854521Y-58190942D01*
X55935617Y-58308431D01*
X56008825Y-58373286D01*
X56045952Y-58432475D01*
X56050599Y-58466102D01*
X56050600Y-59101401D01*
X56047962Y-59126839D01*
X56045733Y-59137473D01*
X56045733Y-59137474D01*
X56045733Y-59137476D01*
X56050123Y-59172696D01*
X56050600Y-59180372D01*
X56050600Y-59184321D01*
X56054442Y-59207346D01*
X56061234Y-59261832D01*
X56063473Y-59269352D01*
X56066034Y-59276813D01*
X56083592Y-59309259D01*
X56098185Y-59377588D01*
X56073520Y-59442959D01*
X56017428Y-59484618D01*
X55947718Y-59489338D01*
X55913484Y-59474722D01*
X55913022Y-59475587D01*
X55907651Y-59472716D01*
X55907650Y-59472715D01*
X55734267Y-59380039D01*
X55725156Y-59375169D01*
X55725155Y-59375168D01*
X55725154Y-59375168D01*
X55527134Y-59315100D01*
X55527132Y-59315099D01*
X55527134Y-59315099D01*
X55321200Y-59294817D01*
X55115267Y-59315099D01*
X54917243Y-59375169D01*
X54825490Y-59424213D01*
X54734750Y-59472715D01*
X54734748Y-59472716D01*
X54734747Y-59472717D01*
X54574789Y-59603989D01*
X54443517Y-59763947D01*
X54443515Y-59763950D01*
X54413971Y-59819223D01*
X54345969Y-59946443D01*
X54345968Y-59946445D01*
X54345968Y-59946446D01*
X54342221Y-59958797D01*
X54285899Y-60144467D01*
X54265617Y-60350399D01*
X54285899Y-60556332D01*
X54299625Y-60601579D01*
X54345968Y-60754354D01*
X54443515Y-60936850D01*
X54443517Y-60936852D01*
X54574789Y-61096810D01*
X54654259Y-61162028D01*
X54734750Y-61228085D01*
X54917246Y-61325632D01*
X55115266Y-61385700D01*
X55115265Y-61385700D01*
X55130394Y-61387190D01*
X55321200Y-61405983D01*
X55527134Y-61385700D01*
X55725154Y-61325632D01*
X55907650Y-61228085D01*
X56067610Y-61096810D01*
X56198885Y-60936850D01*
X56296432Y-60754354D01*
X56356500Y-60556334D01*
X56376783Y-60350400D01*
X56356500Y-60144466D01*
X56296432Y-59946446D01*
X56240511Y-59841827D01*
X56226270Y-59773426D01*
X56251269Y-59708182D01*
X56307574Y-59666811D01*
X56377307Y-59662449D01*
X56437551Y-59695694D01*
X58593210Y-61851352D01*
X58626695Y-61912675D01*
X58621711Y-61982367D01*
X58579839Y-62038300D01*
X58546484Y-62056074D01*
X58397113Y-62108342D01*
X58397102Y-62108347D01*
X58253915Y-62198318D01*
X58253909Y-62198323D01*
X58134323Y-62317909D01*
X58134318Y-62317915D01*
X58044347Y-62461102D01*
X58044345Y-62461105D01*
X57988485Y-62620743D01*
X57969551Y-62788797D01*
X57969551Y-62788802D01*
X57988485Y-62956856D01*
X58044345Y-63116494D01*
X58044347Y-63116497D01*
X58134318Y-63259684D01*
X58134323Y-63259690D01*
X58253909Y-63379276D01*
X58253915Y-63379281D01*
X58397102Y-63469252D01*
X58397105Y-63469254D01*
X58397109Y-63469255D01*
X58397110Y-63469256D01*
X58425949Y-63479347D01*
X58556743Y-63525114D01*
X58724797Y-63544049D01*
X58724800Y-63544049D01*
X58724803Y-63544049D01*
X58892856Y-63525114D01*
X58903710Y-63521316D01*
X59052490Y-63469256D01*
X59052492Y-63469254D01*
X59052494Y-63469254D01*
X59052497Y-63469252D01*
X59195684Y-63379281D01*
X59195685Y-63379280D01*
X59195690Y-63379277D01*
X59315277Y-63259690D01*
X59335013Y-63228281D01*
X59405252Y-63116497D01*
X59405254Y-63116494D01*
X59405254Y-63116492D01*
X59405256Y-63116490D01*
X59461113Y-62956859D01*
X59461113Y-62956858D01*
X59461114Y-62956856D01*
X59480049Y-62788802D01*
X59480049Y-62788797D01*
X59461114Y-62620743D01*
X59405254Y-62461105D01*
X59405252Y-62461102D01*
X59315281Y-62317915D01*
X59315276Y-62317909D01*
X59306548Y-62309181D01*
X59273063Y-62247858D01*
X59278047Y-62178166D01*
X59319919Y-62122233D01*
X59385383Y-62097816D01*
X59394229Y-62097500D01*
X59833371Y-62097500D01*
X59900410Y-62117185D01*
X59946165Y-62169989D01*
X59956109Y-62239147D01*
X59927084Y-62302703D01*
X59921052Y-62309181D01*
X59912323Y-62317909D01*
X59912318Y-62317915D01*
X59822347Y-62461102D01*
X59822345Y-62461105D01*
X59766485Y-62620743D01*
X59747551Y-62788797D01*
X59747551Y-62788802D01*
X59766485Y-62956856D01*
X59822345Y-63116494D01*
X59822347Y-63116497D01*
X59912318Y-63259684D01*
X59912323Y-63259690D01*
X60031909Y-63379276D01*
X60031915Y-63379281D01*
X60175102Y-63469252D01*
X60175105Y-63469254D01*
X60175109Y-63469255D01*
X60175110Y-63469256D01*
X60203949Y-63479347D01*
X60334743Y-63525114D01*
X60502797Y-63544049D01*
X60502800Y-63544049D01*
X60502803Y-63544049D01*
X60670856Y-63525114D01*
X60681710Y-63521316D01*
X60830490Y-63469256D01*
X60830492Y-63469254D01*
X60830494Y-63469254D01*
X60830497Y-63469252D01*
X60973684Y-63379281D01*
X60973685Y-63379280D01*
X60973690Y-63379277D01*
X61093277Y-63259690D01*
X61113013Y-63228281D01*
X61183252Y-63116497D01*
X61183254Y-63116494D01*
X61183254Y-63116492D01*
X61183256Y-63116490D01*
X61239113Y-62956859D01*
X61239113Y-62956858D01*
X61239114Y-62956856D01*
X61258049Y-62788802D01*
X61258049Y-62788797D01*
X61239114Y-62620743D01*
X61183254Y-62461105D01*
X61183252Y-62461102D01*
X61093281Y-62317915D01*
X61093276Y-62317909D01*
X61084548Y-62309181D01*
X61051063Y-62247858D01*
X61056047Y-62178166D01*
X61097919Y-62122233D01*
X61163383Y-62097816D01*
X61172229Y-62097500D01*
X61464301Y-62097500D01*
X61531340Y-62117185D01*
X61551981Y-62133818D01*
X62433228Y-63015066D01*
X63313250Y-63895088D01*
X63329375Y-63914944D01*
X63335313Y-63924032D01*
X63335316Y-63924036D01*
X63363325Y-63945836D01*
X63369087Y-63950925D01*
X63371882Y-63953720D01*
X63390895Y-63967294D01*
X63434211Y-64001009D01*
X63434218Y-64001011D01*
X63441120Y-64004747D01*
X63448196Y-64008206D01*
X63448201Y-64008210D01*
X63458584Y-64011301D01*
X63500803Y-64023870D01*
X63552738Y-64041700D01*
X63560472Y-64042990D01*
X63568310Y-64043967D01*
X63568312Y-64043968D01*
X63568313Y-64043967D01*
X63568314Y-64043968D01*
X63623156Y-64041700D01*
X72781596Y-64041700D01*
X72807041Y-64044339D01*
X72810840Y-64045135D01*
X72817668Y-64046567D01*
X72838625Y-64043954D01*
X72852892Y-64042177D01*
X72860568Y-64041700D01*
X72864512Y-64041700D01*
X72864514Y-64041700D01*
X72864516Y-64041699D01*
X72864522Y-64041699D01*
X72879887Y-64039134D01*
X72887540Y-64037857D01*
X72942026Y-64031066D01*
X72942027Y-64031065D01*
X72942029Y-64031065D01*
X72949541Y-64028828D01*
X72957006Y-64026266D01*
X72957006Y-64026265D01*
X72957010Y-64026265D01*
X73005277Y-64000144D01*
X73054611Y-63976026D01*
X73054613Y-63976023D01*
X73060994Y-63971468D01*
X73067219Y-63966622D01*
X73067226Y-63966619D01*
X73104407Y-63926229D01*
X73499501Y-63531135D01*
X74693619Y-62337019D01*
X74754942Y-62303534D01*
X74781300Y-62300700D01*
X77578014Y-62300700D01*
X77645053Y-62320385D01*
X77676507Y-62356685D01*
X77698812Y-62326225D01*
X77764014Y-62301116D01*
X77774168Y-62300700D01*
X79996996Y-62300700D01*
X80064035Y-62320385D01*
X80084676Y-62337018D01*
X80368398Y-62620741D01*
X80626745Y-62879088D01*
X80642869Y-62898942D01*
X80652233Y-62913273D01*
X80672424Y-62980161D01*
X80653248Y-63047348D01*
X80600792Y-63093501D01*
X80548428Y-63105100D01*
X78594229Y-63105100D01*
X78527190Y-63085415D01*
X78506552Y-63068785D01*
X78172977Y-62735209D01*
X78069877Y-62653689D01*
X78069875Y-62653688D01*
X78069874Y-62653687D01*
X77910871Y-62579542D01*
X77749093Y-62546138D01*
X77687419Y-62513304D01*
X77676915Y-62494542D01*
X77671727Y-62505903D01*
X77612949Y-62543677D01*
X77581627Y-62548646D01*
X77563688Y-62549169D01*
X77563684Y-62549169D01*
X77563683Y-62549170D01*
X77394224Y-62594576D01*
X77239799Y-62677841D01*
X77108741Y-62794473D01*
X77108739Y-62794476D01*
X77008113Y-62938186D01*
X77008108Y-62938195D01*
X76943338Y-63101229D01*
X76917910Y-63274827D01*
X76933200Y-63449595D01*
X76988385Y-63616131D01*
X76988387Y-63616136D01*
X77008170Y-63648209D01*
X77031928Y-63686728D01*
X77080489Y-63765457D01*
X77656268Y-64341235D01*
X77668049Y-64354867D01*
X77682390Y-64374130D01*
X77722420Y-64407719D01*
X77726392Y-64411359D01*
X77732224Y-64417191D01*
X77732227Y-64417194D01*
X77757947Y-64437531D01*
X77816788Y-64486904D01*
X77822818Y-64490870D01*
X77822785Y-64490919D01*
X77829143Y-64494969D01*
X77829175Y-64494919D01*
X77835320Y-64498709D01*
X77835323Y-64498711D01*
X77904936Y-64531172D01*
X77973567Y-64565640D01*
X77973572Y-64565641D01*
X77980361Y-64568113D01*
X77980340Y-64568170D01*
X77987455Y-64570643D01*
X77987475Y-64570586D01*
X77994330Y-64572858D01*
X78069558Y-64588390D01*
X78144279Y-64606100D01*
X78144289Y-64606100D01*
X78151452Y-64606938D01*
X78151444Y-64606997D01*
X78158945Y-64607764D01*
X78158951Y-64607705D01*
X78166140Y-64608334D01*
X78166144Y-64608333D01*
X78166145Y-64608334D01*
X78242918Y-64606100D01*
X87368909Y-64606100D01*
X87499455Y-64590841D01*
X87664317Y-64530837D01*
X87810896Y-64434430D01*
X87931292Y-64306818D01*
X88006149Y-64177159D01*
X88056716Y-64128943D01*
X88125323Y-64115719D01*
X88190188Y-64141687D01*
X88219955Y-64177471D01*
X88220121Y-64177357D01*
X88221392Y-64179198D01*
X88223334Y-64181533D01*
X88224382Y-64183530D01*
X88321017Y-64323529D01*
X88416039Y-64407711D01*
X88448350Y-64436336D01*
X88559971Y-64494919D01*
X88598975Y-64515390D01*
X88764144Y-64556100D01*
X88934258Y-64556100D01*
X88941704Y-64555196D01*
X88941861Y-64556489D01*
X89003867Y-64559214D01*
X89051425Y-64588862D01*
X89162782Y-64700219D01*
X89196267Y-64761542D01*
X89191283Y-64831234D01*
X89149411Y-64887167D01*
X89083947Y-64911584D01*
X89075101Y-64911900D01*
X53982500Y-64911900D01*
X53915461Y-64892215D01*
X53869706Y-64839411D01*
X53858500Y-64787900D01*
X53858500Y-50680500D01*
X53878185Y-50613461D01*
X53930989Y-50567706D01*
X53982500Y-50556500D01*
X92071140Y-50556500D01*
X92138179Y-50576185D01*
G37*
%TD.AperFunction*%
%TA.AperFunction,Conductor*%
G36*
X106206139Y-50576185D02*
G01*
X106251894Y-50628989D01*
X106263100Y-50680500D01*
X106263100Y-64787900D01*
X106243415Y-64854939D01*
X106190611Y-64900694D01*
X106139100Y-64911900D01*
X101018498Y-64911900D01*
X100951459Y-64892215D01*
X100905704Y-64839411D01*
X100895760Y-64770253D01*
X100924785Y-64706697D01*
X100930817Y-64700219D01*
X101476155Y-64154881D01*
X102032089Y-63598946D01*
X102051946Y-63582822D01*
X102061036Y-63576884D01*
X102082838Y-63548871D01*
X102087933Y-63543103D01*
X102090719Y-63540318D01*
X102095342Y-63533843D01*
X102104286Y-63521316D01*
X102138007Y-63477992D01*
X102141747Y-63471080D01*
X102145203Y-63464007D01*
X102145210Y-63463999D01*
X102160870Y-63411396D01*
X102178700Y-63359460D01*
X102178700Y-63359455D01*
X102179990Y-63351724D01*
X102180968Y-63343885D01*
X102178700Y-63289044D01*
X102178700Y-59078183D01*
X102178700Y-57048402D01*
X102825951Y-57048402D01*
X102844885Y-57216456D01*
X102900745Y-57376094D01*
X102900747Y-57376097D01*
X102990718Y-57519284D01*
X102990723Y-57519290D01*
X103110309Y-57638876D01*
X103110315Y-57638881D01*
X103253502Y-57728852D01*
X103253505Y-57728854D01*
X103253509Y-57728855D01*
X103253510Y-57728856D01*
X103306275Y-57747319D01*
X103413143Y-57784714D01*
X103581197Y-57803649D01*
X103581200Y-57803649D01*
X103581203Y-57803649D01*
X103749256Y-57784714D01*
X103749259Y-57784713D01*
X103908890Y-57728856D01*
X103908892Y-57728854D01*
X103908894Y-57728854D01*
X103908897Y-57728852D01*
X104052084Y-57638881D01*
X104052085Y-57638880D01*
X104052090Y-57638877D01*
X104171677Y-57519290D01*
X104192531Y-57486101D01*
X104261652Y-57376097D01*
X104261654Y-57376094D01*
X104261654Y-57376092D01*
X104261656Y-57376090D01*
X104317513Y-57216459D01*
X104317513Y-57216458D01*
X104317514Y-57216456D01*
X104336449Y-57048402D01*
X104336449Y-57048397D01*
X104317514Y-56880343D01*
X104261654Y-56720705D01*
X104261652Y-56720702D01*
X104171681Y-56577515D01*
X104171676Y-56577509D01*
X104052090Y-56457923D01*
X104052084Y-56457918D01*
X103908897Y-56367947D01*
X103908894Y-56367945D01*
X103749256Y-56312085D01*
X103581203Y-56293151D01*
X103581197Y-56293151D01*
X103413143Y-56312085D01*
X103253505Y-56367945D01*
X103253502Y-56367947D01*
X103110315Y-56457918D01*
X103110309Y-56457923D01*
X102990723Y-56577509D01*
X102990718Y-56577515D01*
X102900747Y-56720702D01*
X102900745Y-56720705D01*
X102844885Y-56880343D01*
X102825951Y-57048397D01*
X102825951Y-57048402D01*
X102178700Y-57048402D01*
X102178700Y-54864993D01*
X102181338Y-54839559D01*
X102183567Y-54828931D01*
X102181128Y-54809363D01*
X102179177Y-54793708D01*
X102178700Y-54786032D01*
X102178700Y-54782089D01*
X102178699Y-54782083D01*
X102177462Y-54774671D01*
X102174855Y-54759047D01*
X102168065Y-54704574D01*
X102168065Y-54704573D01*
X102165817Y-54697027D01*
X102163265Y-54689590D01*
X102137142Y-54641319D01*
X102132190Y-54631190D01*
X102113026Y-54591988D01*
X102113023Y-54591985D01*
X102113023Y-54591984D01*
X102108467Y-54585602D01*
X102103623Y-54579378D01*
X102103619Y-54579374D01*
X102063241Y-54542203D01*
X100963717Y-53442679D01*
X100930233Y-53381357D01*
X100928303Y-53340052D01*
X100928846Y-53335582D01*
X100934478Y-53289200D01*
X100915437Y-53132382D01*
X100859420Y-52984677D01*
X100795511Y-52892088D01*
X100769682Y-52854668D01*
X100704416Y-52796849D01*
X100667289Y-52737660D01*
X100668056Y-52667794D01*
X100706473Y-52609434D01*
X100770343Y-52581109D01*
X100816316Y-52583635D01*
X100956144Y-52618100D01*
X101126256Y-52618100D01*
X101291425Y-52577390D01*
X101408082Y-52516163D01*
X101442049Y-52498336D01*
X101442050Y-52498334D01*
X101442052Y-52498334D01*
X101569383Y-52385529D01*
X101666018Y-52245530D01*
X101726340Y-52086472D01*
X101746845Y-51917600D01*
X101726340Y-51748728D01*
X101724267Y-51743263D01*
X101671321Y-51603653D01*
X101666018Y-51589670D01*
X101662429Y-51584471D01*
X101631676Y-51539918D01*
X101569383Y-51449671D01*
X101442052Y-51336866D01*
X101442049Y-51336863D01*
X101291426Y-51257810D01*
X101126256Y-51217100D01*
X100956144Y-51217100D01*
X100790973Y-51257810D01*
X100640350Y-51336863D01*
X100513016Y-51449672D01*
X100416382Y-51589668D01*
X100416382Y-51589669D01*
X100395142Y-51645676D01*
X100352964Y-51701379D01*
X100287367Y-51725436D01*
X100219176Y-51710209D01*
X100170043Y-51660533D01*
X100163258Y-51645676D01*
X100160872Y-51639385D01*
X100142018Y-51589670D01*
X100138429Y-51584471D01*
X100107676Y-51539918D01*
X100045383Y-51449671D01*
X99918052Y-51336866D01*
X99918049Y-51336863D01*
X99767426Y-51257810D01*
X99602256Y-51217100D01*
X99432144Y-51217100D01*
X99266973Y-51257810D01*
X99116350Y-51336863D01*
X98989016Y-51449672D01*
X98892382Y-51589668D01*
X98832060Y-51748725D01*
X98832059Y-51748730D01*
X98811555Y-51917600D01*
X98832059Y-52086469D01*
X98832060Y-52086474D01*
X98840893Y-52109763D01*
X98855823Y-52149131D01*
X98861190Y-52218792D01*
X98828043Y-52280298D01*
X98766905Y-52314120D01*
X98739881Y-52317100D01*
X97879083Y-52317100D01*
X97812044Y-52297415D01*
X97791402Y-52280781D01*
X97068768Y-51558147D01*
X96322733Y-50812111D01*
X96306606Y-50792252D01*
X96300670Y-50783167D01*
X96300669Y-50783166D01*
X96300668Y-50783164D01*
X96294486Y-50778352D01*
X96253674Y-50721641D01*
X96250001Y-50651868D01*
X96284633Y-50591185D01*
X96346575Y-50558860D01*
X96370650Y-50556500D01*
X106139100Y-50556500D01*
X106206139Y-50576185D01*
G37*
%TD.AperFunction*%
%TA.AperFunction,Conductor*%
G36*
X92078356Y-63475785D02*
G01*
X92098998Y-63492419D01*
X92649997Y-64043419D01*
X92683482Y-64104742D01*
X92678498Y-64174434D01*
X92636626Y-64230367D01*
X92571162Y-64254784D01*
X92562316Y-64255100D01*
X91150519Y-64255100D01*
X91083480Y-64235415D01*
X91037725Y-64182611D01*
X91027781Y-64113453D01*
X91034575Y-64087134D01*
X91058340Y-64024472D01*
X91078845Y-63855600D01*
X91067216Y-63759830D01*
X91078676Y-63690909D01*
X91102625Y-63657210D01*
X91267419Y-63492416D01*
X91328742Y-63458934D01*
X91355099Y-63456100D01*
X92011317Y-63456100D01*
X92078356Y-63475785D01*
G37*
%TD.AperFunction*%
%TA.AperFunction,Conductor*%
G36*
X99895732Y-53818536D02*
G01*
X99906960Y-53828483D01*
X99906962Y-53828484D01*
X100046834Y-53901896D01*
X100200214Y-53939700D01*
X100347301Y-53939700D01*
X100414340Y-53959385D01*
X100434982Y-53976019D01*
X101391381Y-54932418D01*
X101424866Y-54993741D01*
X101427700Y-55020099D01*
X101427700Y-62030265D01*
X101408015Y-62097304D01*
X101355211Y-62143059D01*
X101286053Y-62153003D01*
X101246074Y-62140061D01*
X101121165Y-62074503D01*
X100967786Y-62036700D01*
X100967785Y-62036700D01*
X100809815Y-62036700D01*
X100809814Y-62036700D01*
X100656434Y-62074503D01*
X100516562Y-62147915D01*
X100459668Y-62198318D01*
X100413582Y-62239147D01*
X100398316Y-62252671D01*
X100308581Y-62382675D01*
X100308580Y-62382676D01*
X100252562Y-62530381D01*
X100233522Y-62687199D01*
X100233522Y-62687202D01*
X100234196Y-62692754D01*
X100222735Y-62761677D01*
X100198781Y-62795379D01*
X99296381Y-63697781D01*
X99235058Y-63731266D01*
X99208700Y-63734100D01*
X98278997Y-63734100D01*
X98211958Y-63714415D01*
X98166203Y-63661611D01*
X98156259Y-63592453D01*
X98163055Y-63566128D01*
X98172237Y-63541918D01*
X98191278Y-63385100D01*
X98190572Y-63379281D01*
X98172237Y-63228281D01*
X98144826Y-63156004D01*
X98116220Y-63080577D01*
X98026483Y-62950570D01*
X97908240Y-62845817D01*
X97908238Y-62845816D01*
X97908237Y-62845815D01*
X97768365Y-62772403D01*
X97614986Y-62734600D01*
X97614985Y-62734600D01*
X97457015Y-62734600D01*
X97457014Y-62734600D01*
X97303634Y-62772403D01*
X97163762Y-62845815D01*
X97045516Y-62950571D01*
X96955781Y-63080575D01*
X96955780Y-63080576D01*
X96899762Y-63228281D01*
X96880722Y-63385099D01*
X96880722Y-63385100D01*
X96899762Y-63541917D01*
X96908945Y-63566128D01*
X96914312Y-63635791D01*
X96881165Y-63697298D01*
X96820027Y-63731119D01*
X96793003Y-63734100D01*
X93454115Y-63734100D01*
X93387076Y-63714415D01*
X93366434Y-63697781D01*
X92956519Y-63287866D01*
X92520365Y-62851711D01*
X92504238Y-62831852D01*
X92498302Y-62822767D01*
X92498299Y-62822763D01*
X92470290Y-62800963D01*
X92464526Y-62795872D01*
X92461731Y-62793077D01*
X92442721Y-62779506D01*
X92399405Y-62745790D01*
X92392490Y-62742048D01*
X92385416Y-62738590D01*
X92332812Y-62722929D01*
X92280874Y-62705099D01*
X92273139Y-62703808D01*
X92265301Y-62702831D01*
X92210460Y-62705100D01*
X91200003Y-62705100D01*
X91174558Y-62702461D01*
X91163932Y-62700233D01*
X91163929Y-62700233D01*
X91128707Y-62704623D01*
X91121031Y-62705100D01*
X91117086Y-62705100D01*
X91105571Y-62707021D01*
X91094056Y-62708942D01*
X91075896Y-62711206D01*
X91039575Y-62715734D01*
X91039571Y-62715735D01*
X91032042Y-62717977D01*
X91024583Y-62720537D01*
X90976318Y-62746658D01*
X90926991Y-62770772D01*
X90920581Y-62775348D01*
X90914375Y-62780179D01*
X90877192Y-62820570D01*
X90575424Y-63122337D01*
X90514101Y-63155822D01*
X90465805Y-63155161D01*
X90465703Y-63156004D01*
X90458257Y-63155100D01*
X90458256Y-63155100D01*
X90288144Y-63155100D01*
X90122973Y-63195810D01*
X89972350Y-63274863D01*
X89845016Y-63387672D01*
X89748382Y-63527668D01*
X89748382Y-63527669D01*
X89727142Y-63583676D01*
X89684964Y-63639379D01*
X89619367Y-63663436D01*
X89551176Y-63648209D01*
X89502043Y-63598533D01*
X89495258Y-63583676D01*
X89488603Y-63566128D01*
X89474018Y-63527670D01*
X89377383Y-63387671D01*
X89250052Y-63274866D01*
X89250049Y-63274863D01*
X89099426Y-63195810D01*
X88934256Y-63155100D01*
X88764144Y-63155100D01*
X88598973Y-63195810D01*
X88448350Y-63274863D01*
X88321016Y-63387672D01*
X88224381Y-63527671D01*
X88222563Y-63531135D01*
X88220565Y-63533199D01*
X88220121Y-63533843D01*
X88220014Y-63533769D01*
X88173976Y-63581345D01*
X88105956Y-63597317D01*
X88040100Y-63573979D01*
X87998911Y-63522618D01*
X87979577Y-63477796D01*
X87974577Y-63471080D01*
X87889934Y-63357385D01*
X87874810Y-63337070D01*
X87740414Y-63224298D01*
X87739726Y-63223952D01*
X87583637Y-63145561D01*
X87583633Y-63145560D01*
X87412921Y-63105100D01*
X87412918Y-63105100D01*
X84037626Y-63105100D01*
X83970587Y-63085415D01*
X83924832Y-63032611D01*
X83914888Y-62963453D01*
X83943913Y-62899897D01*
X83949945Y-62893419D01*
X84420945Y-62422420D01*
X84482268Y-62388935D01*
X84508626Y-62386101D01*
X87187995Y-62386101D01*
X87213440Y-62388740D01*
X87217239Y-62389536D01*
X87224067Y-62390968D01*
X87245024Y-62388355D01*
X87259291Y-62386578D01*
X87266967Y-62386101D01*
X87270911Y-62386101D01*
X87270913Y-62386101D01*
X87270915Y-62386100D01*
X87270921Y-62386100D01*
X87291440Y-62382675D01*
X87293939Y-62382258D01*
X87348425Y-62375467D01*
X87348426Y-62375466D01*
X87348428Y-62375466D01*
X87355940Y-62373229D01*
X87363405Y-62370667D01*
X87363405Y-62370666D01*
X87363409Y-62370666D01*
X87411676Y-62344545D01*
X87461010Y-62320427D01*
X87461012Y-62320424D01*
X87467393Y-62315869D01*
X87473618Y-62311023D01*
X87473625Y-62311020D01*
X87510807Y-62270629D01*
X87976012Y-61805424D01*
X88467618Y-61313819D01*
X88528941Y-61280334D01*
X88555299Y-61277500D01*
X98304196Y-61277500D01*
X98329641Y-61280139D01*
X98333440Y-61280935D01*
X98340268Y-61282367D01*
X98361225Y-61279754D01*
X98375492Y-61277977D01*
X98383168Y-61277500D01*
X98387112Y-61277500D01*
X98387114Y-61277500D01*
X98387116Y-61277499D01*
X98387122Y-61277499D01*
X98403891Y-61274700D01*
X98410140Y-61273657D01*
X98464626Y-61266866D01*
X98464627Y-61266865D01*
X98464629Y-61266865D01*
X98472141Y-61264628D01*
X98479606Y-61262066D01*
X98479606Y-61262065D01*
X98479610Y-61262065D01*
X98527877Y-61235944D01*
X98577211Y-61211826D01*
X98577213Y-61211823D01*
X98583594Y-61207268D01*
X98589819Y-61202422D01*
X98589826Y-61202419D01*
X98627008Y-61162028D01*
X99695289Y-60093746D01*
X99715146Y-60077622D01*
X99724236Y-60071684D01*
X99746051Y-60043654D01*
X99751119Y-60037916D01*
X99753920Y-60035117D01*
X99767488Y-60016113D01*
X99801209Y-59972789D01*
X99801210Y-59972783D01*
X99804942Y-59965889D01*
X99808403Y-59958807D01*
X99808410Y-59958799D01*
X99824070Y-59906196D01*
X99841900Y-59854260D01*
X99841900Y-59854255D01*
X99843190Y-59846524D01*
X99844168Y-59838685D01*
X99841900Y-59783844D01*
X99841900Y-58032952D01*
X99844539Y-58007507D01*
X99845185Y-58004423D01*
X99846767Y-57996880D01*
X99844898Y-57981888D01*
X99842377Y-57961654D01*
X99841900Y-57953978D01*
X99841900Y-57950037D01*
X99841898Y-57950024D01*
X99838057Y-57927007D01*
X99831438Y-57873900D01*
X99831266Y-57872522D01*
X99831264Y-57872518D01*
X99829022Y-57864988D01*
X99826465Y-57857540D01*
X99826465Y-57857538D01*
X99800344Y-57809270D01*
X99776226Y-57759937D01*
X99776224Y-57759935D01*
X99776224Y-57759934D01*
X99771676Y-57753564D01*
X99766820Y-57747324D01*
X99766819Y-57747322D01*
X99746755Y-57728852D01*
X99726429Y-57710140D01*
X99696942Y-57680653D01*
X99655868Y-57639579D01*
X99622385Y-57578259D01*
X99620455Y-57536958D01*
X99626631Y-57486101D01*
X99607590Y-57329283D01*
X99551573Y-57181578D01*
X99461836Y-57051571D01*
X99343593Y-56946818D01*
X99343591Y-56946817D01*
X99343590Y-56946816D01*
X99203718Y-56873404D01*
X99050339Y-56835601D01*
X99050338Y-56835601D01*
X98892368Y-56835601D01*
X98892367Y-56835601D01*
X98776374Y-56864190D01*
X98706572Y-56861121D01*
X98649510Y-56820800D01*
X98623305Y-56756031D01*
X98622700Y-56743793D01*
X98622700Y-56461996D01*
X98642385Y-56394957D01*
X98695189Y-56349202D01*
X98764347Y-56339258D01*
X98804323Y-56352198D01*
X98878435Y-56391096D01*
X98955124Y-56409997D01*
X99031814Y-56428900D01*
X99031815Y-56428900D01*
X99189785Y-56428900D01*
X99343165Y-56391096D01*
X99392930Y-56364977D01*
X99483040Y-56317683D01*
X99601283Y-56212930D01*
X99691020Y-56082923D01*
X99747037Y-55935218D01*
X99766078Y-55778400D01*
X99747037Y-55621582D01*
X99691020Y-55473877D01*
X99601283Y-55343870D01*
X99483040Y-55239117D01*
X99483038Y-55239116D01*
X99483037Y-55239115D01*
X99343165Y-55165703D01*
X99189786Y-55127900D01*
X99189785Y-55127900D01*
X99031815Y-55127900D01*
X99031814Y-55127900D01*
X98878434Y-55165703D01*
X98804326Y-55204599D01*
X98735817Y-55218325D01*
X98670764Y-55192832D01*
X98629820Y-55136217D01*
X98622700Y-55094803D01*
X98622700Y-54613698D01*
X98642385Y-54546659D01*
X98659014Y-54526022D01*
X99005817Y-54179219D01*
X99067141Y-54145734D01*
X99093499Y-54142900D01*
X99240585Y-54142900D01*
X99393965Y-54105096D01*
X99477711Y-54061142D01*
X99533840Y-54031683D01*
X99652083Y-53926930D01*
X99711456Y-53840912D01*
X99765738Y-53796922D01*
X99835187Y-53789262D01*
X99895732Y-53818536D01*
G37*
%TD.AperFunction*%
%TA.AperFunction,Conductor*%
G36*
X89979340Y-59475585D02*
G01*
X89999982Y-59492219D01*
X90822582Y-60314819D01*
X90856067Y-60376142D01*
X90851083Y-60445834D01*
X90809211Y-60501767D01*
X90743747Y-60526184D01*
X90734901Y-60526500D01*
X88400203Y-60526500D01*
X88374758Y-60523861D01*
X88364132Y-60521633D01*
X88364129Y-60521633D01*
X88328907Y-60526023D01*
X88321231Y-60526500D01*
X88317286Y-60526500D01*
X88305771Y-60528421D01*
X88294256Y-60530342D01*
X88276096Y-60532606D01*
X88239775Y-60537134D01*
X88239771Y-60537135D01*
X88232242Y-60539377D01*
X88224783Y-60541937D01*
X88176518Y-60568058D01*
X88127191Y-60592172D01*
X88120781Y-60596748D01*
X88114575Y-60601579D01*
X88077392Y-60641970D01*
X87120580Y-61598782D01*
X87059257Y-61632267D01*
X87032899Y-61635101D01*
X84353530Y-61635101D01*
X84328085Y-61632462D01*
X84317459Y-61630234D01*
X84317456Y-61630234D01*
X84282234Y-61634624D01*
X84274558Y-61635101D01*
X84270613Y-61635101D01*
X84259098Y-61637022D01*
X84247583Y-61638943D01*
X84235319Y-61640472D01*
X84193102Y-61645735D01*
X84193098Y-61645736D01*
X84185569Y-61647978D01*
X84178110Y-61650538D01*
X84129845Y-61676659D01*
X84080518Y-61700773D01*
X84074108Y-61705349D01*
X84067902Y-61710180D01*
X84030719Y-61750571D01*
X83542909Y-62238381D01*
X83481586Y-62271866D01*
X83455228Y-62274700D01*
X81972008Y-62274700D01*
X81904969Y-62255015D01*
X81859214Y-62202211D01*
X81849270Y-62133053D01*
X81856066Y-62106730D01*
X81865436Y-62082021D01*
X81865436Y-62082020D01*
X81865437Y-62082018D01*
X81884478Y-61925200D01*
X81878302Y-61874344D01*
X81889761Y-61805424D01*
X81913714Y-61771721D01*
X84193217Y-59492219D01*
X84254541Y-59458734D01*
X84280899Y-59455900D01*
X89912301Y-59455900D01*
X89979340Y-59475585D01*
G37*
%TD.AperFunction*%
%TA.AperFunction,Conductor*%
G36*
X84430520Y-51639385D02*
G01*
X84476275Y-51692189D01*
X84486219Y-51761347D01*
X84479424Y-51787665D01*
X84470981Y-51809927D01*
X84455660Y-51850325D01*
X84455659Y-51850330D01*
X84435155Y-52019199D01*
X84435155Y-52019200D01*
X84450931Y-52149129D01*
X84451567Y-52154361D01*
X84440107Y-52223285D01*
X84393203Y-52275071D01*
X84328471Y-52293308D01*
X77201000Y-52293308D01*
X77175553Y-52290669D01*
X77172909Y-52290114D01*
X77164925Y-52288440D01*
X77129705Y-52292831D01*
X77122028Y-52293308D01*
X77118082Y-52293308D01*
X77100802Y-52296191D01*
X77095042Y-52297152D01*
X77040564Y-52303943D01*
X77033040Y-52306183D01*
X77025588Y-52308742D01*
X77025586Y-52308742D01*
X77025586Y-52308743D01*
X76977314Y-52334864D01*
X76977315Y-52334865D01*
X76927986Y-52358980D01*
X76921594Y-52363543D01*
X76915370Y-52368388D01*
X76878199Y-52408766D01*
X76731437Y-52555529D01*
X76599785Y-52687181D01*
X76538462Y-52720666D01*
X76512104Y-52723500D01*
X64886919Y-52723500D01*
X64819880Y-52703815D01*
X64774125Y-52651011D01*
X64764181Y-52581853D01*
X64770975Y-52555534D01*
X64794740Y-52492872D01*
X64815245Y-52324000D01*
X64794740Y-52155128D01*
X64786659Y-52133821D01*
X64743190Y-52019200D01*
X64734418Y-51996070D01*
X64717598Y-51971701D01*
X64637782Y-51856069D01*
X64615710Y-51836516D01*
X64578583Y-51777327D01*
X64579349Y-51707461D01*
X64617767Y-51649101D01*
X64681637Y-51620776D01*
X64697936Y-51619700D01*
X84363481Y-51619700D01*
X84430520Y-51639385D01*
G37*
%TD.AperFunction*%
%TD*%
M02*
