%TF.GenerationSoftware,KiCad,Pcbnew,7.0.7*%
%TF.CreationDate,2024-03-02T18:47:46+03:00*%
%TF.ProjectId,Main_PCB_002,4d61696e-5f50-4434-925f-3030322e6b69,rev?*%
%TF.SameCoordinates,Original*%
%TF.FileFunction,Copper,L2,Bot*%
%TF.FilePolarity,Positive*%
%FSLAX46Y46*%
G04 Gerber Fmt 4.6, Leading zero omitted, Abs format (unit mm)*
G04 Created by KiCad (PCBNEW 7.0.7) date 2024-03-02 18:47:46*
%MOMM*%
%LPD*%
G01*
G04 APERTURE LIST*
%TA.AperFunction,ComponentPad*%
%ADD10C,1.600000*%
%TD*%
%TA.AperFunction,ComponentPad*%
%ADD11C,0.500000*%
%TD*%
%TA.AperFunction,SMDPad,CuDef*%
%ADD12R,2.410000X3.100000*%
%TD*%
%TA.AperFunction,ViaPad*%
%ADD13C,0.800000*%
%TD*%
%TA.AperFunction,Conductor*%
%ADD14C,0.500000*%
%TD*%
%TA.AperFunction,Conductor*%
%ADD15C,0.250000*%
%TD*%
%TA.AperFunction,Conductor*%
%ADD16C,1.000000*%
%TD*%
G04 APERTURE END LIST*
D10*
%TO.P,D2,1,Conn*%
%TO.N,Net-(D2-Conn)*%
X114985800Y-121869200D03*
%TD*%
D11*
%TO.P,U3,9,EP*%
%TO.N,GND2*%
X97689975Y-108965075D03*
X97689975Y-110265075D03*
X97689975Y-111565075D03*
D12*
X98644975Y-110265075D03*
D11*
X99599975Y-108965075D03*
X99599975Y-110265075D03*
X99599975Y-111565075D03*
%TD*%
D10*
%TO.P,D7,1,Conn*%
%TO.N,Net-(D7-Conn)*%
X128219200Y-108839000D03*
%TD*%
%TO.P,D1,1,Conn*%
%TO.N,Net-(D1-Conn)*%
X146799300Y-108400000D03*
%TD*%
%TO.P,D26,1,Conn*%
%TO.N,Net-(D26-Conn)*%
X154940000Y-111760000D03*
%TD*%
%TO.P,D4,1,Conn*%
%TO.N,GND2*%
X85450000Y-121000000D03*
%TD*%
%TO.P,D28,1,Conn*%
%TO.N,Net-(D26-Conn)*%
X151130000Y-108331000D03*
%TD*%
%TO.P,D12,1,Conn*%
%TO.N,Net-(D12-Conn)*%
X82300000Y-121050000D03*
%TD*%
%TO.P,D22,1,Conn*%
%TO.N,Net-(D22-Conn)*%
X92950000Y-119850000D03*
%TD*%
%TO.P,D24,1,Conn*%
%TO.N,Net-(D24-Conn)*%
X85250000Y-106600000D03*
%TD*%
%TO.P,D13,1,Conn*%
%TO.N,Net-(D13-Conn)*%
X142570200Y-121361200D03*
%TD*%
%TO.P,D3,1,Conn*%
%TO.N,Net-(D3-Conn)*%
X75050000Y-120950000D03*
%TD*%
%TO.P,D27,1,Conn*%
%TO.N,Net-(D26-Conn)*%
X128193800Y-123190000D03*
%TD*%
%TO.P,D21,1,Conn*%
%TO.N,Net-(D21-Conn)*%
X146827000Y-111000000D03*
%TD*%
%TO.P,D30,1,Conn*%
%TO.N,GND2*%
X135813800Y-123240800D03*
%TD*%
%TO.P,D16,1,Conn*%
%TO.N,Net-(D15-Conn)*%
X110312200Y-121869200D03*
%TD*%
D11*
%TO.P,U8,9,EP*%
%TO.N,GND2*%
X98045000Y-115445000D03*
X98045000Y-116745000D03*
X98045000Y-118045000D03*
D12*
X99000000Y-116745000D03*
D11*
X99955000Y-115445000D03*
X99955000Y-116745000D03*
X99955000Y-118045000D03*
%TD*%
D10*
%TO.P,D17,1,Conn*%
%TO.N,GND2*%
X107619800Y-121920000D03*
%TD*%
%TO.P,D11,1,Conn*%
%TO.N,Net-(D11-Conn)*%
X133200000Y-121500000D03*
%TD*%
%TO.P,D10,1,Conn*%
%TO.N,Net-(D10-Conn)*%
X130900000Y-121550000D03*
%TD*%
%TO.P,D29,1,Conn*%
%TO.N,GND2*%
X151155400Y-111023400D03*
%TD*%
%TO.P,D8,1,Conn*%
%TO.N,Net-(D8-Conn)*%
X154940000Y-116840000D03*
%TD*%
%TO.P,D25,1,Conn*%
%TO.N,Net-(D25-Conn)*%
X81900000Y-106650000D03*
%TD*%
%TO.P,D18,1,Conn*%
%TO.N,GND2*%
X154940000Y-119380000D03*
%TD*%
%TO.P,D19,1,Conn*%
%TO.N,Net-(D19-Conn)*%
X122021600Y-121361200D03*
%TD*%
%TO.P,D9,1,Conn*%
%TO.N,Net-(D9-Conn)*%
X154940000Y-114300000D03*
%TD*%
%TO.P,D15,1,Conn*%
%TO.N,Net-(D15-Conn)*%
X112369600Y-121869200D03*
%TD*%
%TO.P,D23,1,Conn*%
%TO.N,Net-(D14-K)*%
X89950000Y-119900000D03*
%TD*%
D13*
%TO.N,Net-(D2-Conn)*%
X114960400Y-118668800D03*
%TO.N,Net-(Q1-G)*%
X138658600Y-111353600D03*
X120269000Y-117322600D03*
%TO.N,Net-(U6-PB7)*%
X141427200Y-108381800D03*
X133273800Y-110464600D03*
%TO.N,Net-(U6-PB6)*%
X134315200Y-110388400D03*
X141300200Y-110972600D03*
%TO.N,Net-(D24-Conn)*%
X116713000Y-108737400D03*
X130987800Y-107645200D03*
%TO.N,Net-(D22-Conn)*%
X89128600Y-107246100D03*
X89712800Y-114503200D03*
%TO.N,Net-(D26-Conn)*%
X129006600Y-113919000D03*
X130911600Y-109220000D03*
X136321800Y-106730800D03*
%TD*%
D14*
%TO.N,Net-(D2-Conn)*%
X114985800Y-118694200D02*
X114960400Y-118668800D01*
X114960400Y-118668800D02*
X114909600Y-118618000D01*
X114985800Y-121869200D02*
X114985800Y-118694200D01*
D15*
%TO.N,Net-(Q1-G)*%
X138597963Y-111414237D02*
X133258237Y-111414237D01*
X138658600Y-111353600D02*
X138597963Y-111414237D01*
X133258237Y-111414237D02*
X133172200Y-111328200D01*
X133172200Y-111328200D02*
X127177800Y-117322600D01*
X127177800Y-117322600D02*
X120269000Y-117322600D01*
%TO.N,Net-(U6-PB7)*%
X133273800Y-109728000D02*
X134620000Y-108381800D01*
X133273800Y-110404495D02*
X133273800Y-109728000D01*
X134620000Y-108381800D02*
X141427200Y-108381800D01*
X133273800Y-110464600D02*
X133273800Y-110404495D01*
%TO.N,Net-(U6-PB6)*%
X134315200Y-110388400D02*
X134891037Y-110964237D01*
X137498563Y-110964237D02*
X138353800Y-110109000D01*
X138353800Y-110109000D02*
X140436600Y-110109000D01*
X134891037Y-110964237D02*
X137498563Y-110964237D01*
X140436600Y-110109000D02*
X141300200Y-110972600D01*
%TO.N,Net-(D24-Conn)*%
X117805200Y-107645200D02*
X116713000Y-108737400D01*
D16*
X114122200Y-106146600D02*
X116713000Y-108737400D01*
D15*
X130987800Y-107645200D02*
X117805200Y-107645200D01*
D14*
X85250000Y-106600000D02*
X85703400Y-106146600D01*
D16*
X85703400Y-106146600D02*
X114122200Y-106146600D01*
D15*
%TO.N,Net-(D22-Conn)*%
X88646000Y-107728700D02*
X88646000Y-113436400D01*
X89128600Y-107246100D02*
X88646000Y-107728700D01*
X88646000Y-113436400D02*
X89712800Y-114503200D01*
D14*
%TO.N,Net-(D26-Conn)*%
X134366000Y-106730800D02*
X131876800Y-109220000D01*
X136321800Y-106730800D02*
X134366000Y-106730800D01*
X129006600Y-111125000D02*
X130911600Y-109220000D01*
X131876800Y-109220000D02*
X130911600Y-109220000D01*
X129006600Y-113919000D02*
X129006600Y-111125000D01*
%TD*%
%TA.AperFunction,Conductor*%
%TO.N,GND2*%
G36*
X160587539Y-103535185D02*
G01*
X160633294Y-103587989D01*
X160644500Y-103639500D01*
X160644500Y-125595500D01*
X160624815Y-125662539D01*
X160572011Y-125708294D01*
X160520500Y-125719500D01*
X71889500Y-125719500D01*
X71822461Y-125699815D01*
X71776706Y-125647011D01*
X71765500Y-125595500D01*
X71765500Y-123189999D01*
X127138217Y-123189999D01*
X127158499Y-123395932D01*
X127158500Y-123395934D01*
X127218568Y-123593954D01*
X127316115Y-123776450D01*
X127316117Y-123776452D01*
X127447389Y-123936410D01*
X127544009Y-124015702D01*
X127607350Y-124067685D01*
X127789846Y-124165232D01*
X127987866Y-124225300D01*
X127987865Y-124225300D01*
X128008148Y-124227297D01*
X128193800Y-124245583D01*
X128399734Y-124225300D01*
X128597754Y-124165232D01*
X128780250Y-124067685D01*
X128940210Y-123936410D01*
X129071485Y-123776450D01*
X129169032Y-123593954D01*
X129229100Y-123395934D01*
X129249383Y-123190000D01*
X129229100Y-122984066D01*
X129169032Y-122786046D01*
X129071485Y-122603550D01*
X129015474Y-122535300D01*
X128940210Y-122443589D01*
X128809634Y-122336430D01*
X128780250Y-122312315D01*
X128597754Y-122214768D01*
X128399734Y-122154700D01*
X128399732Y-122154699D01*
X128399734Y-122154699D01*
X128193800Y-122134417D01*
X127987867Y-122154699D01*
X127789843Y-122214769D01*
X127680614Y-122273154D01*
X127607350Y-122312315D01*
X127607348Y-122312316D01*
X127607347Y-122312317D01*
X127447389Y-122443589D01*
X127331092Y-122585300D01*
X127316115Y-122603550D01*
X127309669Y-122615610D01*
X127218569Y-122786043D01*
X127158499Y-122984067D01*
X127138217Y-123189999D01*
X71765500Y-123189999D01*
X71765500Y-120949999D01*
X73994417Y-120949999D01*
X74014699Y-121155932D01*
X74014700Y-121155934D01*
X74074768Y-121353954D01*
X74172315Y-121536450D01*
X74172317Y-121536452D01*
X74303589Y-121696410D01*
X74387355Y-121765154D01*
X74463550Y-121827685D01*
X74646046Y-121925232D01*
X74844066Y-121985300D01*
X74844065Y-121985300D01*
X74864348Y-121987297D01*
X75050000Y-122005583D01*
X75255934Y-121985300D01*
X75453954Y-121925232D01*
X75636450Y-121827685D01*
X75796410Y-121696410D01*
X75927685Y-121536450D01*
X76025232Y-121353954D01*
X76085300Y-121155934D01*
X76095734Y-121050000D01*
X81244417Y-121050000D01*
X81264699Y-121255932D01*
X81292427Y-121347339D01*
X81324768Y-121453954D01*
X81422315Y-121636450D01*
X81422317Y-121636452D01*
X81553589Y-121796410D01*
X81642285Y-121869200D01*
X81713550Y-121927685D01*
X81896046Y-122025232D01*
X82094066Y-122085300D01*
X82094065Y-122085300D01*
X82105742Y-122086450D01*
X82300000Y-122105583D01*
X82505934Y-122085300D01*
X82703954Y-122025232D01*
X82886450Y-121927685D01*
X82957715Y-121869200D01*
X109256617Y-121869200D01*
X109276899Y-122075132D01*
X109280333Y-122086452D01*
X109336968Y-122273154D01*
X109434515Y-122455650D01*
X109469169Y-122497877D01*
X109565789Y-122615610D01*
X109662409Y-122694902D01*
X109725750Y-122746885D01*
X109908246Y-122844432D01*
X110106266Y-122904500D01*
X110106265Y-122904500D01*
X110124729Y-122906318D01*
X110312200Y-122924783D01*
X110518134Y-122904500D01*
X110716154Y-122844432D01*
X110898650Y-122746885D01*
X111058610Y-122615610D01*
X111189885Y-122455650D01*
X111231543Y-122377713D01*
X111280505Y-122327871D01*
X111348642Y-122312411D01*
X111414322Y-122336243D01*
X111450256Y-122377713D01*
X111491915Y-122455650D01*
X111526569Y-122497877D01*
X111623189Y-122615610D01*
X111719809Y-122694902D01*
X111783150Y-122746885D01*
X111965646Y-122844432D01*
X112163666Y-122904500D01*
X112163665Y-122904500D01*
X112183947Y-122906497D01*
X112369600Y-122924783D01*
X112575534Y-122904500D01*
X112773554Y-122844432D01*
X112956050Y-122746885D01*
X113116010Y-122615610D01*
X113247285Y-122455650D01*
X113344832Y-122273154D01*
X113404900Y-122075134D01*
X113425183Y-121869200D01*
X113930217Y-121869200D01*
X113950499Y-122075132D01*
X113953933Y-122086452D01*
X114010568Y-122273154D01*
X114108115Y-122455650D01*
X114142769Y-122497877D01*
X114239389Y-122615610D01*
X114336009Y-122694902D01*
X114399350Y-122746885D01*
X114581846Y-122844432D01*
X114779866Y-122904500D01*
X114779865Y-122904500D01*
X114800147Y-122906497D01*
X114985800Y-122924783D01*
X115191734Y-122904500D01*
X115389754Y-122844432D01*
X115572250Y-122746885D01*
X115732210Y-122615610D01*
X115863485Y-122455650D01*
X115961032Y-122273154D01*
X116021100Y-122075134D01*
X116041383Y-121869200D01*
X116021100Y-121663266D01*
X115961032Y-121465246D01*
X115905418Y-121361200D01*
X120966017Y-121361200D01*
X120986299Y-121567132D01*
X121007327Y-121636452D01*
X121046368Y-121765154D01*
X121143915Y-121947650D01*
X121143917Y-121947652D01*
X121275189Y-122107610D01*
X121371809Y-122186902D01*
X121435150Y-122238885D01*
X121617646Y-122336432D01*
X121815666Y-122396500D01*
X121815665Y-122396500D01*
X121834129Y-122398318D01*
X122021600Y-122416783D01*
X122227534Y-122396500D01*
X122425554Y-122336432D01*
X122608050Y-122238885D01*
X122768010Y-122107610D01*
X122899285Y-121947650D01*
X122996832Y-121765154D01*
X123056900Y-121567134D01*
X123058588Y-121550000D01*
X129844417Y-121550000D01*
X129864699Y-121755932D01*
X129867497Y-121765156D01*
X129924768Y-121953954D01*
X130022315Y-122136450D01*
X130056969Y-122178677D01*
X130153589Y-122296410D01*
X130202357Y-122336432D01*
X130313550Y-122427685D01*
X130496046Y-122525232D01*
X130694066Y-122585300D01*
X130694065Y-122585300D01*
X130714348Y-122587297D01*
X130900000Y-122605583D01*
X131105934Y-122585300D01*
X131303954Y-122525232D01*
X131486450Y-122427685D01*
X131646410Y-122296410D01*
X131777685Y-122136450D01*
X131875232Y-121953954D01*
X131935300Y-121755934D01*
X131935301Y-121755928D01*
X131935581Y-121754523D01*
X131935930Y-121753854D01*
X131937068Y-121750105D01*
X131937779Y-121750320D01*
X131967966Y-121692612D01*
X132028682Y-121658038D01*
X132098451Y-121661778D01*
X132155123Y-121702645D01*
X132175858Y-121742718D01*
X132224768Y-121903954D01*
X132322315Y-122086450D01*
X132356969Y-122128677D01*
X132453589Y-122246410D01*
X132533896Y-122312315D01*
X132613550Y-122377685D01*
X132796046Y-122475232D01*
X132994066Y-122535300D01*
X132994065Y-122535300D01*
X133012529Y-122537118D01*
X133200000Y-122555583D01*
X133405934Y-122535300D01*
X133603954Y-122475232D01*
X133786450Y-122377685D01*
X133946410Y-122246410D01*
X134077685Y-122086450D01*
X134175232Y-121903954D01*
X134235300Y-121705934D01*
X134255583Y-121500000D01*
X134241912Y-121361200D01*
X141514617Y-121361200D01*
X141534899Y-121567132D01*
X141555927Y-121636452D01*
X141594968Y-121765154D01*
X141692515Y-121947650D01*
X141692517Y-121947652D01*
X141823789Y-122107610D01*
X141920409Y-122186902D01*
X141983750Y-122238885D01*
X142166246Y-122336432D01*
X142364266Y-122396500D01*
X142364265Y-122396500D01*
X142384547Y-122398497D01*
X142570200Y-122416783D01*
X142776134Y-122396500D01*
X142974154Y-122336432D01*
X143156650Y-122238885D01*
X143316610Y-122107610D01*
X143447885Y-121947650D01*
X143545432Y-121765154D01*
X143605500Y-121567134D01*
X143625783Y-121361200D01*
X143605500Y-121155266D01*
X143545432Y-120957246D01*
X143447885Y-120774750D01*
X143363821Y-120672317D01*
X143316610Y-120614789D01*
X143169934Y-120494417D01*
X143156650Y-120483515D01*
X142974154Y-120385968D01*
X142776134Y-120325900D01*
X142776132Y-120325899D01*
X142776134Y-120325899D01*
X142570200Y-120305617D01*
X142364267Y-120325899D01*
X142166243Y-120385969D01*
X142071798Y-120436452D01*
X141983750Y-120483515D01*
X141983748Y-120483516D01*
X141983747Y-120483517D01*
X141823789Y-120614789D01*
X141709881Y-120753589D01*
X141692515Y-120774750D01*
X141677100Y-120803589D01*
X141594969Y-120957243D01*
X141534899Y-121155267D01*
X141514617Y-121361200D01*
X134241912Y-121361200D01*
X134235300Y-121294066D01*
X134175232Y-121096046D01*
X134077685Y-120913550D01*
X133987443Y-120803589D01*
X133946410Y-120753589D01*
X133786452Y-120622317D01*
X133786453Y-120622317D01*
X133786450Y-120622315D01*
X133603954Y-120524768D01*
X133405934Y-120464700D01*
X133405932Y-120464699D01*
X133405934Y-120464699D01*
X133200000Y-120444417D01*
X132994067Y-120464699D01*
X132796043Y-120524769D01*
X132685897Y-120583643D01*
X132613550Y-120622315D01*
X132613548Y-120622316D01*
X132613547Y-120622317D01*
X132453589Y-120753589D01*
X132328854Y-120905582D01*
X132322315Y-120913550D01*
X132298959Y-120957246D01*
X132224769Y-121096043D01*
X132164695Y-121294082D01*
X132164414Y-121295495D01*
X132164063Y-121296164D01*
X132162932Y-121299895D01*
X132162223Y-121299680D01*
X132132019Y-121357401D01*
X132071298Y-121391965D01*
X132001529Y-121388214D01*
X131944864Y-121347339D01*
X131924142Y-121307283D01*
X131875232Y-121146046D01*
X131777685Y-120963550D01*
X131701938Y-120871251D01*
X131646410Y-120803589D01*
X131486452Y-120672317D01*
X131486453Y-120672317D01*
X131486450Y-120672315D01*
X131303954Y-120574768D01*
X131105934Y-120514700D01*
X131105932Y-120514699D01*
X131105934Y-120514699D01*
X130900000Y-120494417D01*
X130694067Y-120514699D01*
X130496043Y-120574769D01*
X130407089Y-120622317D01*
X130313550Y-120672315D01*
X130313548Y-120672316D01*
X130313547Y-120672317D01*
X130153589Y-120803589D01*
X130022317Y-120963547D01*
X130022315Y-120963550D01*
X130007366Y-120991517D01*
X129924769Y-121146043D01*
X129864699Y-121344067D01*
X129844417Y-121550000D01*
X123058588Y-121550000D01*
X123077183Y-121361200D01*
X123056900Y-121155266D01*
X122996832Y-120957246D01*
X122899285Y-120774750D01*
X122815221Y-120672317D01*
X122768010Y-120614789D01*
X122621334Y-120494417D01*
X122608050Y-120483515D01*
X122425554Y-120385968D01*
X122227534Y-120325900D01*
X122227532Y-120325899D01*
X122227534Y-120325899D01*
X122021600Y-120305617D01*
X121815667Y-120325899D01*
X121617643Y-120385969D01*
X121523198Y-120436452D01*
X121435150Y-120483515D01*
X121435148Y-120483516D01*
X121435147Y-120483517D01*
X121275189Y-120614789D01*
X121161281Y-120753589D01*
X121143915Y-120774750D01*
X121128500Y-120803589D01*
X121046369Y-120957243D01*
X120986299Y-121155267D01*
X120966017Y-121361200D01*
X115905418Y-121361200D01*
X115863485Y-121282750D01*
X115811502Y-121219409D01*
X115732210Y-121122789D01*
X115572251Y-120991515D01*
X115551845Y-120980608D01*
X115502002Y-120931645D01*
X115486300Y-120871251D01*
X115486300Y-119090659D01*
X115505985Y-119023620D01*
X115508250Y-119020219D01*
X115508622Y-119019679D01*
X115540620Y-118973323D01*
X115596637Y-118825618D01*
X115615678Y-118668800D01*
X115596637Y-118511982D01*
X115540620Y-118364277D01*
X115450883Y-118234270D01*
X115332640Y-118129517D01*
X115332638Y-118129516D01*
X115332637Y-118129515D01*
X115192765Y-118056103D01*
X115039386Y-118018300D01*
X115039385Y-118018300D01*
X114881415Y-118018300D01*
X114881414Y-118018300D01*
X114728034Y-118056103D01*
X114588162Y-118129515D01*
X114469916Y-118234271D01*
X114380181Y-118364275D01*
X114380180Y-118364276D01*
X114324162Y-118511981D01*
X114305122Y-118668799D01*
X114305122Y-118668800D01*
X114324162Y-118825618D01*
X114361766Y-118924769D01*
X114380180Y-118973323D01*
X114434500Y-119052019D01*
X114463350Y-119093816D01*
X114485233Y-119160171D01*
X114485300Y-119164256D01*
X114485300Y-120871251D01*
X114465615Y-120938290D01*
X114419755Y-120980608D01*
X114399348Y-120991515D01*
X114239389Y-121122789D01*
X114130122Y-121255934D01*
X114108115Y-121282750D01*
X114102066Y-121294067D01*
X114010569Y-121465243D01*
X113950499Y-121663267D01*
X113930217Y-121869200D01*
X113425183Y-121869200D01*
X113404900Y-121663266D01*
X113344832Y-121465246D01*
X113247285Y-121282750D01*
X113195302Y-121219409D01*
X113116010Y-121122789D01*
X112956052Y-120991517D01*
X112956053Y-120991517D01*
X112956050Y-120991515D01*
X112773554Y-120893968D01*
X112575534Y-120833900D01*
X112575532Y-120833899D01*
X112575534Y-120833899D01*
X112388063Y-120815435D01*
X112369600Y-120813617D01*
X112369599Y-120813617D01*
X112163667Y-120833899D01*
X111965643Y-120893969D01*
X111895158Y-120931645D01*
X111783150Y-120991515D01*
X111783148Y-120991516D01*
X111783147Y-120991517D01*
X111623189Y-121122789D01*
X111513922Y-121255934D01*
X111491915Y-121282750D01*
X111485866Y-121294067D01*
X111450258Y-121360684D01*
X111401295Y-121410528D01*
X111333157Y-121425988D01*
X111267478Y-121402156D01*
X111231542Y-121360684D01*
X111222659Y-121344066D01*
X111189885Y-121282750D01*
X111137902Y-121219409D01*
X111058610Y-121122789D01*
X110898652Y-120991517D01*
X110898653Y-120991517D01*
X110898650Y-120991515D01*
X110716154Y-120893968D01*
X110518134Y-120833900D01*
X110518132Y-120833899D01*
X110518134Y-120833899D01*
X110312200Y-120813617D01*
X110106267Y-120833899D01*
X109908243Y-120893969D01*
X109837758Y-120931645D01*
X109725750Y-120991515D01*
X109725748Y-120991516D01*
X109725747Y-120991517D01*
X109565789Y-121122789D01*
X109456522Y-121255934D01*
X109434515Y-121282750D01*
X109428466Y-121294067D01*
X109336969Y-121465243D01*
X109276899Y-121663267D01*
X109256617Y-121869200D01*
X82957715Y-121869200D01*
X83046410Y-121796410D01*
X83177685Y-121636450D01*
X83275232Y-121453954D01*
X83335300Y-121255934D01*
X83355583Y-121050000D01*
X83335300Y-120844066D01*
X83275232Y-120646046D01*
X83177685Y-120463550D01*
X83114016Y-120385969D01*
X83046410Y-120303589D01*
X82886452Y-120172317D01*
X82886453Y-120172317D01*
X82886450Y-120172315D01*
X82703954Y-120074768D01*
X82505934Y-120014700D01*
X82505932Y-120014699D01*
X82505934Y-120014699D01*
X82318463Y-119996235D01*
X82300000Y-119994417D01*
X82299999Y-119994417D01*
X82094067Y-120014699D01*
X81896043Y-120074769D01*
X81785897Y-120133643D01*
X81713550Y-120172315D01*
X81713548Y-120172316D01*
X81713547Y-120172317D01*
X81553589Y-120303589D01*
X81422317Y-120463547D01*
X81422315Y-120463550D01*
X81383643Y-120535898D01*
X81324769Y-120646043D01*
X81264699Y-120844067D01*
X81244417Y-121050000D01*
X76095734Y-121050000D01*
X76105583Y-120950000D01*
X76085300Y-120744066D01*
X76025232Y-120546046D01*
X75927685Y-120363550D01*
X75837744Y-120253956D01*
X75796410Y-120203589D01*
X75636452Y-120072317D01*
X75636453Y-120072317D01*
X75636450Y-120072315D01*
X75453954Y-119974768D01*
X75255934Y-119914700D01*
X75255932Y-119914699D01*
X75255934Y-119914699D01*
X75106677Y-119899999D01*
X88894417Y-119899999D01*
X88914699Y-120105932D01*
X88914700Y-120105934D01*
X88974768Y-120303954D01*
X89072315Y-120486450D01*
X89095498Y-120514699D01*
X89203589Y-120646410D01*
X89300209Y-120725702D01*
X89363550Y-120777685D01*
X89546046Y-120875232D01*
X89744066Y-120935300D01*
X89744065Y-120935300D01*
X89762529Y-120937118D01*
X89950000Y-120955583D01*
X90155934Y-120935300D01*
X90353954Y-120875232D01*
X90536450Y-120777685D01*
X90696410Y-120646410D01*
X90827685Y-120486450D01*
X90925232Y-120303954D01*
X90985300Y-120105934D01*
X91005583Y-119900000D01*
X91000658Y-119849999D01*
X91894417Y-119849999D01*
X91914699Y-120055932D01*
X91929867Y-120105934D01*
X91974768Y-120253954D01*
X92072315Y-120436450D01*
X92094553Y-120463547D01*
X92203589Y-120596410D01*
X92296081Y-120672315D01*
X92363550Y-120727685D01*
X92546046Y-120825232D01*
X92744066Y-120885300D01*
X92744065Y-120885300D01*
X92762529Y-120887118D01*
X92950000Y-120905583D01*
X93155934Y-120885300D01*
X93353954Y-120825232D01*
X93536450Y-120727685D01*
X93696410Y-120596410D01*
X93827685Y-120436450D01*
X93925232Y-120253954D01*
X93985300Y-120055934D01*
X94005583Y-119850000D01*
X93985300Y-119644066D01*
X93925232Y-119446046D01*
X93827685Y-119263550D01*
X93737443Y-119153589D01*
X93696410Y-119103589D01*
X93536452Y-118972317D01*
X93536453Y-118972317D01*
X93536450Y-118972315D01*
X93353954Y-118874768D01*
X93155934Y-118814700D01*
X93155932Y-118814699D01*
X93155934Y-118814699D01*
X92968463Y-118796235D01*
X92950000Y-118794417D01*
X92949999Y-118794417D01*
X92744067Y-118814699D01*
X92546043Y-118874769D01*
X92435898Y-118933643D01*
X92363550Y-118972315D01*
X92363548Y-118972316D01*
X92363547Y-118972317D01*
X92203589Y-119103589D01*
X92072317Y-119263547D01*
X91974769Y-119446043D01*
X91914699Y-119644067D01*
X91894417Y-119849999D01*
X91000658Y-119849999D01*
X90985300Y-119694066D01*
X90925232Y-119496046D01*
X90827685Y-119313550D01*
X90775702Y-119250209D01*
X90696410Y-119153589D01*
X90536452Y-119022317D01*
X90536453Y-119022317D01*
X90536450Y-119022315D01*
X90353954Y-118924768D01*
X90155934Y-118864700D01*
X90155932Y-118864699D01*
X90155934Y-118864699D01*
X89950000Y-118844417D01*
X89744067Y-118864699D01*
X89546043Y-118924769D01*
X89457089Y-118972317D01*
X89363550Y-119022315D01*
X89363548Y-119022316D01*
X89363547Y-119022317D01*
X89203589Y-119153589D01*
X89072317Y-119313547D01*
X88974769Y-119496043D01*
X88914699Y-119694067D01*
X88894417Y-119899999D01*
X75106677Y-119899999D01*
X75050000Y-119894417D01*
X74844067Y-119914699D01*
X74646043Y-119974769D01*
X74571341Y-120014699D01*
X74463550Y-120072315D01*
X74463548Y-120072316D01*
X74463547Y-120072317D01*
X74303589Y-120203589D01*
X74172317Y-120363547D01*
X74074769Y-120546043D01*
X74014699Y-120744067D01*
X73994417Y-120949999D01*
X71765500Y-120949999D01*
X71765500Y-117322600D01*
X119613721Y-117322600D01*
X119632762Y-117479418D01*
X119687222Y-117623016D01*
X119688780Y-117627123D01*
X119778517Y-117757130D01*
X119896760Y-117861883D01*
X119896762Y-117861884D01*
X120036634Y-117935296D01*
X120190014Y-117973100D01*
X120190015Y-117973100D01*
X120347985Y-117973100D01*
X120501365Y-117935296D01*
X120501364Y-117935296D01*
X120641240Y-117861883D01*
X120759483Y-117757130D01*
X120763257Y-117751661D01*
X120817537Y-117707671D01*
X120865308Y-117698100D01*
X127125996Y-117698100D01*
X127151441Y-117700739D01*
X127155240Y-117701535D01*
X127162068Y-117702967D01*
X127183025Y-117700354D01*
X127197292Y-117698577D01*
X127204968Y-117698100D01*
X127208912Y-117698100D01*
X127208914Y-117698100D01*
X127208916Y-117698099D01*
X127208922Y-117698099D01*
X127224287Y-117695534D01*
X127231940Y-117694257D01*
X127286426Y-117687466D01*
X127286427Y-117687465D01*
X127286429Y-117687465D01*
X127293941Y-117685228D01*
X127301406Y-117682666D01*
X127301406Y-117682665D01*
X127301410Y-117682665D01*
X127349677Y-117656544D01*
X127399011Y-117632426D01*
X127399013Y-117632423D01*
X127405394Y-117627868D01*
X127411619Y-117623022D01*
X127411626Y-117623019D01*
X127448808Y-117582628D01*
X128191436Y-116840000D01*
X153884417Y-116840000D01*
X153904699Y-117045932D01*
X153904700Y-117045934D01*
X153964768Y-117243954D01*
X154062315Y-117426450D01*
X154062317Y-117426452D01*
X154193589Y-117586410D01*
X154238198Y-117623019D01*
X154353550Y-117717685D01*
X154536046Y-117815232D01*
X154734066Y-117875300D01*
X154734065Y-117875300D01*
X154754347Y-117877297D01*
X154940000Y-117895583D01*
X155145934Y-117875300D01*
X155343954Y-117815232D01*
X155526450Y-117717685D01*
X155686410Y-117586410D01*
X155817685Y-117426450D01*
X155915232Y-117243954D01*
X155975300Y-117045934D01*
X155995583Y-116840000D01*
X155975300Y-116634066D01*
X155915232Y-116436046D01*
X155817685Y-116253550D01*
X155765702Y-116190209D01*
X155686410Y-116093589D01*
X155526452Y-115962317D01*
X155526453Y-115962317D01*
X155526450Y-115962315D01*
X155343954Y-115864768D01*
X155145934Y-115804700D01*
X155145932Y-115804699D01*
X155145934Y-115804699D01*
X154958463Y-115786235D01*
X154940000Y-115784417D01*
X154939999Y-115784417D01*
X154734067Y-115804699D01*
X154536043Y-115864769D01*
X154425897Y-115923643D01*
X154353550Y-115962315D01*
X154353548Y-115962316D01*
X154353547Y-115962317D01*
X154193589Y-116093589D01*
X154062317Y-116253547D01*
X153964769Y-116436043D01*
X153904699Y-116634067D01*
X153884417Y-116840000D01*
X128191436Y-116840000D01*
X130269650Y-114761786D01*
X130731437Y-114299999D01*
X153884417Y-114299999D01*
X153904699Y-114505932D01*
X153923946Y-114569380D01*
X153964768Y-114703954D01*
X154062315Y-114886450D01*
X154062317Y-114886452D01*
X154193589Y-115046410D01*
X154278259Y-115115896D01*
X154353550Y-115177685D01*
X154536046Y-115275232D01*
X154734066Y-115335300D01*
X154734065Y-115335300D01*
X154752529Y-115337118D01*
X154940000Y-115355583D01*
X155145934Y-115335300D01*
X155343954Y-115275232D01*
X155526450Y-115177685D01*
X155686410Y-115046410D01*
X155817685Y-114886450D01*
X155915232Y-114703954D01*
X155975300Y-114505934D01*
X155995583Y-114300000D01*
X155975300Y-114094066D01*
X155915232Y-113896046D01*
X155817685Y-113713550D01*
X155765702Y-113650209D01*
X155686410Y-113553589D01*
X155526452Y-113422317D01*
X155526453Y-113422317D01*
X155526450Y-113422315D01*
X155343954Y-113324768D01*
X155145934Y-113264700D01*
X155145932Y-113264699D01*
X155145934Y-113264699D01*
X154958463Y-113246235D01*
X154940000Y-113244417D01*
X154939999Y-113244417D01*
X154734067Y-113264699D01*
X154536043Y-113324769D01*
X154425897Y-113383643D01*
X154353550Y-113422315D01*
X154353548Y-113422316D01*
X154353547Y-113422317D01*
X154193589Y-113553589D01*
X154062317Y-113713547D01*
X154062315Y-113713550D01*
X154023643Y-113785897D01*
X153964769Y-113896043D01*
X153904699Y-114094067D01*
X153884417Y-114299999D01*
X130731437Y-114299999D01*
X133205381Y-111826056D01*
X133266704Y-111792571D01*
X133293062Y-111789737D01*
X138122904Y-111789737D01*
X138189943Y-111809422D01*
X138205129Y-111820920D01*
X138286360Y-111892883D01*
X138286362Y-111892884D01*
X138426234Y-111966296D01*
X138579614Y-112004100D01*
X138579615Y-112004100D01*
X138737585Y-112004100D01*
X138890965Y-111966296D01*
X138891659Y-111965932D01*
X139030840Y-111892883D01*
X139149083Y-111788130D01*
X139238820Y-111658123D01*
X139294837Y-111510418D01*
X139313878Y-111353600D01*
X139311294Y-111332314D01*
X139294837Y-111196781D01*
X139268393Y-111127054D01*
X139238820Y-111049077D01*
X139149083Y-110919070D01*
X139030840Y-110814317D01*
X139030838Y-110814316D01*
X139030837Y-110814315D01*
X138890966Y-110740904D01*
X138842250Y-110728897D01*
X138781870Y-110693741D01*
X138750081Y-110631522D01*
X138756977Y-110561993D01*
X138800368Y-110507230D01*
X138866478Y-110484620D01*
X138871925Y-110484500D01*
X140229701Y-110484500D01*
X140296740Y-110504185D01*
X140317382Y-110520819D01*
X140615681Y-110819118D01*
X140649166Y-110880441D01*
X140651096Y-110921743D01*
X140644922Y-110972597D01*
X140644922Y-110972600D01*
X140663962Y-111129418D01*
X140719979Y-111277123D01*
X140719980Y-111277123D01*
X140809717Y-111407130D01*
X140927960Y-111511883D01*
X140927962Y-111511884D01*
X141067834Y-111585296D01*
X141221214Y-111623100D01*
X141221215Y-111623100D01*
X141379185Y-111623100D01*
X141532565Y-111585296D01*
X141592068Y-111554066D01*
X141672440Y-111511883D01*
X141790683Y-111407130D01*
X141880420Y-111277123D01*
X141936437Y-111129418D01*
X141952151Y-111000000D01*
X145771417Y-111000000D01*
X145771983Y-111005746D01*
X145791699Y-111205932D01*
X145791700Y-111205934D01*
X145851768Y-111403954D01*
X145949315Y-111586450D01*
X145949317Y-111586452D01*
X146080589Y-111746410D01*
X146157371Y-111809422D01*
X146240550Y-111877685D01*
X146423046Y-111975232D01*
X146621066Y-112035300D01*
X146621065Y-112035300D01*
X146639529Y-112037118D01*
X146827000Y-112055583D01*
X147032934Y-112035300D01*
X147230954Y-111975232D01*
X147413450Y-111877685D01*
X147556850Y-111760000D01*
X153884417Y-111760000D01*
X153904699Y-111965932D01*
X153907520Y-111975230D01*
X153964768Y-112163954D01*
X154062315Y-112346450D01*
X154062317Y-112346452D01*
X154193589Y-112506410D01*
X154290209Y-112585702D01*
X154353550Y-112637685D01*
X154536046Y-112735232D01*
X154734066Y-112795300D01*
X154734065Y-112795300D01*
X154754348Y-112797297D01*
X154940000Y-112815583D01*
X155145934Y-112795300D01*
X155343954Y-112735232D01*
X155526450Y-112637685D01*
X155686410Y-112506410D01*
X155817685Y-112346450D01*
X155915232Y-112163954D01*
X155975300Y-111965934D01*
X155995583Y-111760000D01*
X155975300Y-111554066D01*
X155915232Y-111356046D01*
X155817685Y-111173550D01*
X155748462Y-111089201D01*
X155686410Y-111013589D01*
X155546939Y-110899130D01*
X155526450Y-110882315D01*
X155356554Y-110791502D01*
X155343956Y-110784769D01*
X155343955Y-110784768D01*
X155343954Y-110784768D01*
X155145934Y-110724700D01*
X155145932Y-110724699D01*
X155145934Y-110724699D01*
X154940000Y-110704417D01*
X154734067Y-110724699D01*
X154587621Y-110769123D01*
X154539462Y-110783732D01*
X154536043Y-110784769D01*
X154425897Y-110843643D01*
X154353550Y-110882315D01*
X154353548Y-110882316D01*
X154353547Y-110882317D01*
X154193589Y-111013589D01*
X154062317Y-111173547D01*
X154062315Y-111173550D01*
X154045005Y-111205934D01*
X153964769Y-111356043D01*
X153904699Y-111554067D01*
X153884417Y-111760000D01*
X147556850Y-111760000D01*
X147573410Y-111746410D01*
X147704685Y-111586450D01*
X147802232Y-111403954D01*
X147862300Y-111205934D01*
X147882583Y-111000000D01*
X147862300Y-110794066D01*
X147802232Y-110596046D01*
X147704685Y-110413550D01*
X147636202Y-110330103D01*
X147573410Y-110253589D01*
X147413452Y-110122317D01*
X147413453Y-110122317D01*
X147413450Y-110122315D01*
X147230954Y-110024768D01*
X147032934Y-109964700D01*
X147032932Y-109964699D01*
X147032934Y-109964699D01*
X146845463Y-109946235D01*
X146827000Y-109944417D01*
X146826999Y-109944417D01*
X146621067Y-109964699D01*
X146423043Y-110024769D01*
X146312898Y-110083643D01*
X146240550Y-110122315D01*
X146240548Y-110122316D01*
X146240547Y-110122317D01*
X146080589Y-110253589D01*
X145949317Y-110413547D01*
X145949315Y-110413550D01*
X145935577Y-110439252D01*
X145851769Y-110596043D01*
X145791699Y-110794067D01*
X145773136Y-110982543D01*
X145771417Y-111000000D01*
X141952151Y-111000000D01*
X141955478Y-110972600D01*
X141950956Y-110935353D01*
X141936437Y-110815781D01*
X141908779Y-110742854D01*
X141880420Y-110668077D01*
X141790683Y-110538070D01*
X141672440Y-110433317D01*
X141672438Y-110433316D01*
X141672437Y-110433315D01*
X141532565Y-110359903D01*
X141379186Y-110322100D01*
X141379185Y-110322100D01*
X141232100Y-110322100D01*
X141165061Y-110302415D01*
X141144419Y-110285781D01*
X140738749Y-109880111D01*
X140722622Y-109860252D01*
X140716686Y-109851167D01*
X140716683Y-109851163D01*
X140688674Y-109829363D01*
X140682910Y-109824272D01*
X140680115Y-109821477D01*
X140661105Y-109807906D01*
X140617789Y-109774190D01*
X140610874Y-109770448D01*
X140603800Y-109766990D01*
X140551196Y-109751329D01*
X140499258Y-109733499D01*
X140491523Y-109732208D01*
X140483685Y-109731231D01*
X140428844Y-109733500D01*
X138405603Y-109733500D01*
X138380158Y-109730861D01*
X138369532Y-109728633D01*
X138369529Y-109728633D01*
X138334307Y-109733023D01*
X138326631Y-109733500D01*
X138322686Y-109733500D01*
X138309171Y-109735755D01*
X138299658Y-109737342D01*
X138245170Y-109744134D01*
X138237657Y-109746371D01*
X138230187Y-109748936D01*
X138181922Y-109775055D01*
X138132592Y-109799171D01*
X138126175Y-109803753D01*
X138119975Y-109808579D01*
X138082792Y-109848970D01*
X137379344Y-110552418D01*
X137318021Y-110585903D01*
X137291663Y-110588737D01*
X135097937Y-110588737D01*
X135030898Y-110569052D01*
X135010256Y-110552418D01*
X134999718Y-110541880D01*
X134966233Y-110480557D01*
X134964303Y-110439252D01*
X134965024Y-110433315D01*
X134970478Y-110388400D01*
X134951437Y-110231582D01*
X134895420Y-110083877D01*
X134805683Y-109953870D01*
X134687440Y-109849117D01*
X134687438Y-109849116D01*
X134687437Y-109849115D01*
X134547565Y-109775703D01*
X134394186Y-109737900D01*
X134394185Y-109737900D01*
X134236215Y-109737900D01*
X134236214Y-109737900D01*
X134082478Y-109775791D01*
X134012676Y-109772721D01*
X133955614Y-109732401D01*
X133929409Y-109667632D01*
X133942382Y-109598977D01*
X133965120Y-109567716D01*
X134739218Y-108793618D01*
X134800541Y-108760134D01*
X134826899Y-108757300D01*
X140830892Y-108757300D01*
X140897931Y-108776985D01*
X140932942Y-108810861D01*
X140935363Y-108814369D01*
X140936715Y-108816328D01*
X140936717Y-108816330D01*
X141054960Y-108921083D01*
X141054962Y-108921084D01*
X141194834Y-108994496D01*
X141348214Y-109032300D01*
X141348215Y-109032300D01*
X141506185Y-109032300D01*
X141659565Y-108994496D01*
X141674895Y-108986450D01*
X141799440Y-108921083D01*
X141917683Y-108816330D01*
X142007420Y-108686323D01*
X142063437Y-108538618D01*
X142080268Y-108399999D01*
X145743717Y-108399999D01*
X145763999Y-108605932D01*
X145786683Y-108680712D01*
X145824068Y-108803954D01*
X145921615Y-108986450D01*
X145921617Y-108986452D01*
X146052889Y-109146410D01*
X146106565Y-109190460D01*
X146212850Y-109277685D01*
X146395346Y-109375232D01*
X146593366Y-109435300D01*
X146593365Y-109435300D01*
X146613648Y-109437297D01*
X146799300Y-109455583D01*
X147005234Y-109435300D01*
X147203254Y-109375232D01*
X147385750Y-109277685D01*
X147545710Y-109146410D01*
X147676985Y-108986450D01*
X147774532Y-108803954D01*
X147834600Y-108605934D01*
X147854883Y-108400000D01*
X147848087Y-108331000D01*
X150074417Y-108331000D01*
X150094699Y-108536932D01*
X150109160Y-108584602D01*
X150154768Y-108734954D01*
X150252315Y-108917450D01*
X150265049Y-108932966D01*
X150383589Y-109077410D01*
X150467667Y-109146410D01*
X150543550Y-109208685D01*
X150726046Y-109306232D01*
X150924066Y-109366300D01*
X150924065Y-109366300D01*
X150942529Y-109368118D01*
X151130000Y-109386583D01*
X151335934Y-109366300D01*
X151533954Y-109306232D01*
X151716450Y-109208685D01*
X151876410Y-109077410D01*
X152007685Y-108917450D01*
X152105232Y-108734954D01*
X152165300Y-108536934D01*
X152185583Y-108331000D01*
X152165300Y-108125066D01*
X152105232Y-107927046D01*
X152007685Y-107744550D01*
X151934672Y-107655583D01*
X151876410Y-107584589D01*
X151716452Y-107453317D01*
X151716453Y-107453317D01*
X151716450Y-107453315D01*
X151533954Y-107355768D01*
X151335934Y-107295700D01*
X151335932Y-107295699D01*
X151335934Y-107295699D01*
X151130000Y-107275417D01*
X150924067Y-107295699D01*
X150726043Y-107355769D01*
X150644082Y-107399579D01*
X150543550Y-107453315D01*
X150543548Y-107453316D01*
X150543547Y-107453317D01*
X150383589Y-107584589D01*
X150258958Y-107736455D01*
X150252315Y-107744550D01*
X150215435Y-107813547D01*
X150154769Y-107927043D01*
X150094699Y-108125067D01*
X150074417Y-108331000D01*
X147848087Y-108331000D01*
X147834600Y-108194066D01*
X147774532Y-107996046D01*
X147676985Y-107813550D01*
X147625002Y-107750209D01*
X147545710Y-107653589D01*
X147420244Y-107550623D01*
X147385750Y-107522315D01*
X147203254Y-107424768D01*
X147005234Y-107364700D01*
X147005232Y-107364699D01*
X147005234Y-107364699D01*
X146817763Y-107346235D01*
X146799300Y-107344417D01*
X146799299Y-107344417D01*
X146593367Y-107364699D01*
X146395343Y-107424769D01*
X146298333Y-107476623D01*
X146212850Y-107522315D01*
X146212848Y-107522316D01*
X146212847Y-107522317D01*
X146052889Y-107653589D01*
X145921617Y-107813547D01*
X145824069Y-107996043D01*
X145824068Y-107996045D01*
X145824068Y-107996046D01*
X145817732Y-108016934D01*
X145763999Y-108194067D01*
X145743717Y-108399999D01*
X142080268Y-108399999D01*
X142082478Y-108381800D01*
X142067434Y-108257896D01*
X142063437Y-108224981D01*
X142024294Y-108121770D01*
X142007420Y-108077277D01*
X141917683Y-107947270D01*
X141799440Y-107842517D01*
X141799438Y-107842516D01*
X141799437Y-107842515D01*
X141659565Y-107769103D01*
X141506186Y-107731300D01*
X141506185Y-107731300D01*
X141348215Y-107731300D01*
X141348214Y-107731300D01*
X141194834Y-107769103D01*
X141054962Y-107842515D01*
X140936716Y-107947270D01*
X140935024Y-107949723D01*
X140932942Y-107952738D01*
X140878663Y-107996729D01*
X140830892Y-108006300D01*
X134671804Y-108006300D01*
X134646359Y-108003661D01*
X134635733Y-108001433D01*
X134635729Y-108001433D01*
X134600509Y-108005823D01*
X134592833Y-108006300D01*
X134588886Y-108006300D01*
X134581206Y-108007581D01*
X134565844Y-108010144D01*
X134511373Y-108016934D01*
X134503844Y-108019175D01*
X134496388Y-108021735D01*
X134448114Y-108047860D01*
X134398791Y-108071972D01*
X134392381Y-108076548D01*
X134386175Y-108081379D01*
X134348992Y-108121770D01*
X133044908Y-109425852D01*
X133025054Y-109441976D01*
X133015965Y-109447914D01*
X133015964Y-109447915D01*
X132994163Y-109475923D01*
X132989086Y-109481674D01*
X132986284Y-109484477D01*
X132986274Y-109484488D01*
X132972705Y-109503495D01*
X132938992Y-109546808D01*
X132935247Y-109553729D01*
X132931788Y-109560804D01*
X132916129Y-109613403D01*
X132898300Y-109665338D01*
X132897006Y-109673092D01*
X132896031Y-109680911D01*
X132898300Y-109735755D01*
X132898300Y-109872396D01*
X132878615Y-109939435D01*
X132856527Y-109965211D01*
X132783318Y-110030068D01*
X132693581Y-110160075D01*
X132693580Y-110160076D01*
X132637562Y-110307781D01*
X132618521Y-110464599D01*
X132618521Y-110464600D01*
X132637562Y-110621418D01*
X132693580Y-110769123D01*
X132693581Y-110769124D01*
X132783317Y-110899131D01*
X132836852Y-110946557D01*
X132873979Y-111005746D01*
X132873213Y-111075611D01*
X132842307Y-111127054D01*
X129862278Y-114107083D01*
X129800955Y-114140568D01*
X129731263Y-114135584D01*
X129675330Y-114093712D01*
X129650913Y-114028248D01*
X129651500Y-114004465D01*
X129661878Y-113919000D01*
X129642837Y-113762182D01*
X129586820Y-113614477D01*
X129529050Y-113530782D01*
X129507167Y-113464427D01*
X129507100Y-113460342D01*
X129507100Y-111383676D01*
X129526785Y-111316637D01*
X129543419Y-111295995D01*
X130217996Y-110621418D01*
X130937383Y-109902030D01*
X130995387Y-109869316D01*
X131143965Y-109832696D01*
X131191200Y-109807905D01*
X131283833Y-109759287D01*
X131283834Y-109759285D01*
X131283840Y-109759283D01*
X131292418Y-109751683D01*
X131355650Y-109721963D01*
X131374644Y-109720500D01*
X131809657Y-109720500D01*
X131836015Y-109723334D01*
X131840727Y-109724359D01*
X131892471Y-109720657D01*
X131896894Y-109720500D01*
X131912599Y-109720500D01*
X131928142Y-109718264D01*
X131932540Y-109717791D01*
X131984283Y-109714091D01*
X131988792Y-109712408D01*
X132014485Y-109705850D01*
X132019257Y-109705165D01*
X132066446Y-109683613D01*
X132070528Y-109681922D01*
X132108846Y-109667632D01*
X132119129Y-109663797D01*
X132119129Y-109663796D01*
X132119131Y-109663796D01*
X132122989Y-109660907D01*
X132145795Y-109647375D01*
X132150173Y-109645377D01*
X132189364Y-109611416D01*
X132192814Y-109608637D01*
X132195730Y-109606453D01*
X132205393Y-109599221D01*
X132216520Y-109588092D01*
X132219725Y-109585109D01*
X132252869Y-109556390D01*
X132258941Y-109551130D01*
X132258941Y-109551129D01*
X132258943Y-109551128D01*
X132261551Y-109547068D01*
X132278181Y-109526431D01*
X134536994Y-107267619D01*
X134598318Y-107234134D01*
X134624676Y-107231300D01*
X135858756Y-107231300D01*
X135925795Y-107250985D01*
X135940979Y-107262481D01*
X135949560Y-107270083D01*
X135949562Y-107270084D01*
X135949566Y-107270087D01*
X136089434Y-107343496D01*
X136242814Y-107381300D01*
X136242815Y-107381300D01*
X136400785Y-107381300D01*
X136554165Y-107343496D01*
X136559540Y-107340675D01*
X136694040Y-107270083D01*
X136812283Y-107165330D01*
X136902020Y-107035323D01*
X136958037Y-106887618D01*
X136977078Y-106730800D01*
X136958037Y-106573982D01*
X136902020Y-106426277D01*
X136812283Y-106296270D01*
X136694040Y-106191517D01*
X136694038Y-106191516D01*
X136694037Y-106191515D01*
X136554165Y-106118103D01*
X136400786Y-106080300D01*
X136400785Y-106080300D01*
X136242815Y-106080300D01*
X136242814Y-106080300D01*
X136089434Y-106118103D01*
X135949566Y-106191512D01*
X135949562Y-106191515D01*
X135949559Y-106191517D01*
X135949560Y-106191517D01*
X135940981Y-106199116D01*
X135877750Y-106228837D01*
X135858756Y-106230300D01*
X134433138Y-106230300D01*
X134406781Y-106227466D01*
X134402076Y-106226442D01*
X134402068Y-106226442D01*
X134357357Y-106229640D01*
X134350337Y-106230142D01*
X134345915Y-106230300D01*
X134330199Y-106230300D01*
X134314646Y-106232536D01*
X134310250Y-106233008D01*
X134258517Y-106236709D01*
X134258514Y-106236710D01*
X134253996Y-106238395D01*
X134228320Y-106244948D01*
X134223541Y-106245635D01*
X134176355Y-106267184D01*
X134172267Y-106268877D01*
X134123668Y-106287005D01*
X134123667Y-106287006D01*
X134119802Y-106289899D01*
X134097020Y-106303416D01*
X134092631Y-106305420D01*
X134092630Y-106305421D01*
X134092628Y-106305422D01*
X134092627Y-106305423D01*
X134078194Y-106317928D01*
X134053417Y-106339397D01*
X134049973Y-106342172D01*
X134037406Y-106351580D01*
X134037402Y-106351583D01*
X134037403Y-106351583D01*
X134026290Y-106362693D01*
X134023056Y-106365704D01*
X133983862Y-106399666D01*
X133983854Y-106399676D01*
X133981243Y-106403738D01*
X133964616Y-106424368D01*
X131705805Y-108683181D01*
X131644482Y-108716666D01*
X131618124Y-108719500D01*
X131374644Y-108719500D01*
X131307605Y-108699815D01*
X131292420Y-108688318D01*
X131283840Y-108680717D01*
X131283838Y-108680716D01*
X131283837Y-108680715D01*
X131283833Y-108680712D01*
X131143965Y-108607303D01*
X130990586Y-108569500D01*
X130990585Y-108569500D01*
X130832615Y-108569500D01*
X130832614Y-108569500D01*
X130679234Y-108607303D01*
X130539362Y-108680715D01*
X130421116Y-108785471D01*
X130331381Y-108915475D01*
X130331380Y-108915476D01*
X130275363Y-109063178D01*
X130275362Y-109063182D01*
X130268739Y-109117728D01*
X130241116Y-109181905D01*
X130233324Y-109190460D01*
X128700168Y-110723616D01*
X128679538Y-110740243D01*
X128675476Y-110742854D01*
X128675467Y-110742861D01*
X128641505Y-110782055D01*
X128638492Y-110785291D01*
X128627381Y-110796402D01*
X128617954Y-110808996D01*
X128615187Y-110812428D01*
X128601975Y-110827676D01*
X128581223Y-110851626D01*
X128581217Y-110851636D01*
X128579215Y-110856020D01*
X128565700Y-110878799D01*
X128562806Y-110882664D01*
X128562800Y-110882675D01*
X128544678Y-110931264D01*
X128542985Y-110935353D01*
X128521435Y-110982543D01*
X128521433Y-110982550D01*
X128520746Y-110987327D01*
X128514198Y-111012986D01*
X128512510Y-111017513D01*
X128512509Y-111017517D01*
X128508807Y-111069260D01*
X128508334Y-111073656D01*
X128506100Y-111089199D01*
X128506100Y-111104904D01*
X128505942Y-111109329D01*
X128502241Y-111161069D01*
X128502241Y-111161073D01*
X128503266Y-111165785D01*
X128506100Y-111192143D01*
X128506100Y-113460342D01*
X128486415Y-113527381D01*
X128484150Y-113530782D01*
X128426381Y-113614475D01*
X128426380Y-113614476D01*
X128370362Y-113762181D01*
X128351321Y-113918999D01*
X128351321Y-113919000D01*
X128370362Y-114075818D01*
X128393029Y-114135584D01*
X128426380Y-114223523D01*
X128516117Y-114353530D01*
X128634360Y-114458283D01*
X128634362Y-114458284D01*
X128774234Y-114531696D01*
X128927614Y-114569500D01*
X128927615Y-114569500D01*
X129085585Y-114569500D01*
X129086573Y-114569380D01*
X129087295Y-114569500D01*
X129093085Y-114569500D01*
X129093085Y-114570462D01*
X129155497Y-114580837D01*
X129207285Y-114627739D01*
X129225494Y-114695194D01*
X129204344Y-114761786D01*
X129189205Y-114780156D01*
X127058581Y-116910781D01*
X126997258Y-116944266D01*
X126970900Y-116947100D01*
X120865308Y-116947100D01*
X120798269Y-116927415D01*
X120763257Y-116893538D01*
X120759483Y-116888070D01*
X120641240Y-116783317D01*
X120641238Y-116783316D01*
X120641237Y-116783315D01*
X120501365Y-116709903D01*
X120347986Y-116672100D01*
X120347985Y-116672100D01*
X120190015Y-116672100D01*
X120190014Y-116672100D01*
X120036634Y-116709903D01*
X119896762Y-116783315D01*
X119778516Y-116888071D01*
X119688781Y-117018075D01*
X119688780Y-117018076D01*
X119632762Y-117165781D01*
X119613721Y-117322599D01*
X119613721Y-117322600D01*
X71765500Y-117322600D01*
X71765500Y-106650000D01*
X80844417Y-106650000D01*
X80864699Y-106855932D01*
X80888351Y-106933902D01*
X80924768Y-107053954D01*
X81022315Y-107236450D01*
X81045608Y-107264833D01*
X81153589Y-107396410D01*
X81222929Y-107453315D01*
X81313550Y-107527685D01*
X81496046Y-107625232D01*
X81694066Y-107685300D01*
X81694065Y-107685300D01*
X81712529Y-107687118D01*
X81900000Y-107705583D01*
X82105934Y-107685300D01*
X82303954Y-107625232D01*
X82486450Y-107527685D01*
X82646410Y-107396410D01*
X82777685Y-107236450D01*
X82875232Y-107053954D01*
X82935300Y-106855934D01*
X82955583Y-106650000D01*
X82950658Y-106599999D01*
X84194417Y-106599999D01*
X84214699Y-106805932D01*
X84229867Y-106855934D01*
X84274768Y-107003954D01*
X84372315Y-107186450D01*
X84372317Y-107186452D01*
X84503589Y-107346410D01*
X84599070Y-107424768D01*
X84663550Y-107477685D01*
X84846046Y-107575232D01*
X85044066Y-107635300D01*
X85044065Y-107635300D01*
X85062529Y-107637118D01*
X85250000Y-107655583D01*
X85455934Y-107635300D01*
X85653954Y-107575232D01*
X85836450Y-107477685D01*
X85996410Y-107346410D01*
X86127685Y-107186450D01*
X86225232Y-107003954D01*
X86230950Y-106985103D01*
X86269247Y-106926666D01*
X86333059Y-106898210D01*
X86349610Y-106897100D01*
X88385603Y-106897100D01*
X88452642Y-106916785D01*
X88498397Y-106969589D01*
X88508341Y-107038747D01*
X88501545Y-107065072D01*
X88492362Y-107089282D01*
X88473322Y-107246099D01*
X88473322Y-107246100D01*
X88479496Y-107296953D01*
X88468035Y-107365876D01*
X88444081Y-107399579D01*
X88417108Y-107426552D01*
X88397254Y-107442676D01*
X88388165Y-107448614D01*
X88388164Y-107448615D01*
X88366363Y-107476623D01*
X88361286Y-107482374D01*
X88358484Y-107485177D01*
X88358474Y-107485188D01*
X88344905Y-107504195D01*
X88311192Y-107547508D01*
X88307447Y-107554429D01*
X88303988Y-107561504D01*
X88288329Y-107614103D01*
X88270500Y-107666038D01*
X88269206Y-107673792D01*
X88268231Y-107681611D01*
X88270500Y-107736455D01*
X88270500Y-113384596D01*
X88267862Y-113410034D01*
X88265633Y-113420668D01*
X88265633Y-113420669D01*
X88265633Y-113420671D01*
X88270023Y-113455891D01*
X88270500Y-113463567D01*
X88270500Y-113467516D01*
X88274342Y-113490541D01*
X88281134Y-113545027D01*
X88283373Y-113552547D01*
X88285934Y-113560008D01*
X88285935Y-113560010D01*
X88312055Y-113608276D01*
X88312055Y-113608277D01*
X88336174Y-113657611D01*
X88340742Y-113664009D01*
X88345582Y-113670227D01*
X88385971Y-113707409D01*
X89028281Y-114349718D01*
X89061766Y-114411041D01*
X89063696Y-114452343D01*
X89057522Y-114503197D01*
X89057522Y-114503200D01*
X89076562Y-114660018D01*
X89093226Y-114703956D01*
X89132580Y-114807723D01*
X89222317Y-114937730D01*
X89340560Y-115042483D01*
X89340562Y-115042484D01*
X89480434Y-115115896D01*
X89633814Y-115153700D01*
X89633815Y-115153700D01*
X89791785Y-115153700D01*
X89945165Y-115115896D01*
X89945165Y-115115895D01*
X90085040Y-115042483D01*
X90203283Y-114937730D01*
X90293020Y-114807723D01*
X90349037Y-114660018D01*
X90368078Y-114503200D01*
X90349037Y-114346382D01*
X90293020Y-114198677D01*
X90203283Y-114068670D01*
X90085040Y-113963917D01*
X90085038Y-113963916D01*
X90085037Y-113963915D01*
X89945165Y-113890503D01*
X89791786Y-113852700D01*
X89791785Y-113852700D01*
X89644700Y-113852700D01*
X89577661Y-113833015D01*
X89557019Y-113816381D01*
X89057819Y-113317180D01*
X89024334Y-113255857D01*
X89021500Y-113229499D01*
X89021500Y-108020600D01*
X89041185Y-107953561D01*
X89093989Y-107907806D01*
X89145500Y-107896600D01*
X89207585Y-107896600D01*
X89360965Y-107858796D01*
X89371027Y-107853515D01*
X89500840Y-107785383D01*
X89619083Y-107680630D01*
X89708820Y-107550623D01*
X89764837Y-107402918D01*
X89783878Y-107246100D01*
X89776635Y-107186452D01*
X89764837Y-107089282D01*
X89755655Y-107065072D01*
X89750288Y-106995409D01*
X89783435Y-106933902D01*
X89844573Y-106900081D01*
X89871597Y-106897100D01*
X113759970Y-106897100D01*
X113827009Y-106916785D01*
X113847651Y-106933419D01*
X116213216Y-109298984D01*
X116213220Y-109298987D01*
X116213223Y-109298990D01*
X116316323Y-109380510D01*
X116475327Y-109454656D01*
X116647144Y-109490133D01*
X116817820Y-109485167D01*
X116822513Y-109485031D01*
X116878999Y-109469894D01*
X116991975Y-109439622D01*
X117146400Y-109356358D01*
X117277459Y-109239725D01*
X117378087Y-109096012D01*
X117442862Y-108932966D01*
X117468289Y-108759377D01*
X117468107Y-108757300D01*
X117453519Y-108590558D01*
X117467285Y-108522058D01*
X117489362Y-108492073D01*
X117924417Y-108057019D01*
X117985741Y-108023534D01*
X118012099Y-108020700D01*
X127269613Y-108020700D01*
X127336652Y-108040385D01*
X127382407Y-108093189D01*
X127392351Y-108162347D01*
X127365466Y-108223365D01*
X127341517Y-108252546D01*
X127243969Y-108435043D01*
X127183899Y-108633067D01*
X127163617Y-108839000D01*
X127183899Y-109044932D01*
X127213933Y-109143944D01*
X127243968Y-109242954D01*
X127341515Y-109425450D01*
X127359952Y-109447916D01*
X127472789Y-109585410D01*
X127545858Y-109645375D01*
X127632750Y-109716685D01*
X127815246Y-109814232D01*
X128013266Y-109874300D01*
X128013265Y-109874300D01*
X128033547Y-109876297D01*
X128219200Y-109894583D01*
X128425134Y-109874300D01*
X128623154Y-109814232D01*
X128805650Y-109716685D01*
X128965610Y-109585410D01*
X129096885Y-109425450D01*
X129194432Y-109242954D01*
X129254500Y-109044934D01*
X129274783Y-108839000D01*
X129254500Y-108633066D01*
X129194432Y-108435046D01*
X129096885Y-108252550D01*
X129072934Y-108223365D01*
X129045621Y-108159055D01*
X129057412Y-108090187D01*
X129104564Y-108038627D01*
X129168787Y-108020700D01*
X130391492Y-108020700D01*
X130458531Y-108040385D01*
X130493542Y-108074261D01*
X130495623Y-108077276D01*
X130497315Y-108079728D01*
X130497317Y-108079730D01*
X130615560Y-108184483D01*
X130615562Y-108184484D01*
X130755434Y-108257896D01*
X130908814Y-108295700D01*
X130908815Y-108295700D01*
X131066785Y-108295700D01*
X131220165Y-108257896D01*
X131230358Y-108252546D01*
X131360040Y-108184483D01*
X131478283Y-108079730D01*
X131568020Y-107949723D01*
X131624037Y-107802018D01*
X131643078Y-107645200D01*
X131640654Y-107625232D01*
X131624037Y-107488381D01*
X131591625Y-107402918D01*
X131568020Y-107340677D01*
X131478283Y-107210670D01*
X131360040Y-107105917D01*
X131360038Y-107105916D01*
X131360037Y-107105915D01*
X131220165Y-107032503D01*
X131066786Y-106994700D01*
X131066785Y-106994700D01*
X130908815Y-106994700D01*
X130908814Y-106994700D01*
X130755434Y-107032503D01*
X130615562Y-107105915D01*
X130497316Y-107210670D01*
X130494889Y-107214187D01*
X130493542Y-107216138D01*
X130439263Y-107260129D01*
X130391492Y-107269700D01*
X117857004Y-107269700D01*
X117831559Y-107267061D01*
X117820933Y-107264833D01*
X117820930Y-107264833D01*
X117785708Y-107269223D01*
X117778032Y-107269700D01*
X117774086Y-107269700D01*
X117756815Y-107272581D01*
X117751058Y-107273542D01*
X117696570Y-107280334D01*
X117689057Y-107282571D01*
X117681587Y-107285136D01*
X117633322Y-107311255D01*
X117583992Y-107335371D01*
X117577575Y-107339953D01*
X117571375Y-107344779D01*
X117534192Y-107385170D01*
X117065845Y-107853515D01*
X117004522Y-107887000D01*
X116934830Y-107882016D01*
X116890483Y-107853515D01*
X114697929Y-105660961D01*
X114686149Y-105647330D01*
X114678682Y-105637301D01*
X114671812Y-105628072D01*
X114667876Y-105624769D01*
X114631787Y-105594486D01*
X114627812Y-105590844D01*
X114624890Y-105587922D01*
X114621980Y-105585011D01*
X114596240Y-105564659D01*
X114572444Y-105544692D01*
X114537414Y-105515298D01*
X114537413Y-105515297D01*
X114537409Y-105515294D01*
X114531380Y-105511329D01*
X114531412Y-105511280D01*
X114525053Y-105507228D01*
X114525022Y-105507279D01*
X114518880Y-105503491D01*
X114518878Y-105503490D01*
X114518877Y-105503489D01*
X114479674Y-105485208D01*
X114449258Y-105471024D01*
X114415094Y-105453867D01*
X114380633Y-105436560D01*
X114380631Y-105436559D01*
X114380630Y-105436559D01*
X114373845Y-105434089D01*
X114373865Y-105434033D01*
X114366749Y-105431559D01*
X114366731Y-105431615D01*
X114359871Y-105429342D01*
X114332041Y-105423596D01*
X114284634Y-105413807D01*
X114235672Y-105402203D01*
X114209919Y-105396099D01*
X114202747Y-105395261D01*
X114202753Y-105395201D01*
X114195255Y-105394435D01*
X114195250Y-105394495D01*
X114188060Y-105393865D01*
X114111283Y-105396100D01*
X85659691Y-105396100D01*
X85555254Y-105408307D01*
X85529143Y-105411359D01*
X85529140Y-105411360D01*
X85364285Y-105471361D01*
X85279326Y-105527240D01*
X85223342Y-105547042D01*
X85044067Y-105564699D01*
X84846043Y-105624769D01*
X84735898Y-105683643D01*
X84663550Y-105722315D01*
X84663548Y-105722316D01*
X84663547Y-105722317D01*
X84503589Y-105853589D01*
X84372317Y-106013547D01*
X84274769Y-106196043D01*
X84214699Y-106394067D01*
X84194417Y-106599999D01*
X82950658Y-106599999D01*
X82935300Y-106444066D01*
X82875232Y-106246046D01*
X82777685Y-106063550D01*
X82725702Y-106000209D01*
X82646410Y-105903589D01*
X82486452Y-105772317D01*
X82486453Y-105772317D01*
X82486450Y-105772315D01*
X82303954Y-105674768D01*
X82105934Y-105614700D01*
X82105932Y-105614699D01*
X82105934Y-105614699D01*
X81918463Y-105596235D01*
X81900000Y-105594417D01*
X81899999Y-105594417D01*
X81694067Y-105614699D01*
X81496043Y-105674769D01*
X81407089Y-105722317D01*
X81313550Y-105772315D01*
X81313548Y-105772316D01*
X81313547Y-105772317D01*
X81153589Y-105903589D01*
X81022317Y-106063547D01*
X80924769Y-106246043D01*
X80864699Y-106444067D01*
X80844417Y-106650000D01*
X71765500Y-106650000D01*
X71765500Y-103639500D01*
X71785185Y-103572461D01*
X71837989Y-103526706D01*
X71889500Y-103515500D01*
X160520500Y-103515500D01*
X160587539Y-103535185D01*
G37*
%TD.AperFunction*%
%TD*%
M02*
