M48
; DRILL file {KiCad 7.0.7} date Sat Mar  2 18:47:47 2024
; FORMAT={-:-/ absolute / inch / decimal}
; #@! TF.CreationDate,2024-03-02T18:47:47+03:00
; #@! TF.GenerationSoftware,Kicad,Pcbnew,7.0.7
; #@! TF.FileFunction,Plated,1,2,PTH
FMAT,2
INCH
; #@! TA.AperFunction,Plated,PTH,ComponentDrill
T1C0.0079
; #@! TA.AperFunction,Plated,PTH,ViaDrill
T2C0.0157
; #@! TA.AperFunction,Plated,PTH,ComponentDrill
T3C0.0472
%
G90
G05
T1
X3.8461Y-4.29
X3.8461Y-4.3411
X3.8461Y-4.3923
X3.86Y-4.5451
X3.86Y-4.5963
X3.86Y-4.6474
X3.9213Y-4.29
X3.9213Y-4.3411
X3.9213Y-4.3923
X3.9352Y-4.5451
X3.9352Y-4.5963
X3.9352Y-4.6474
T2
X3.509Y-4.2223
X3.532Y-4.508
X4.526Y-4.672
X4.595Y-4.281
X4.735Y-4.619
X5.079Y-4.485
X5.154Y-4.3
X5.157Y-4.238
X5.247Y-4.349
X5.288Y-4.346
X5.367Y-4.202
X5.459Y-4.384
X5.563Y-4.369
X5.568Y-4.267
T3
X2.9547Y-4.7618
X3.2244Y-4.1988
X3.2402Y-4.7657
X3.3563Y-4.1969
X3.3642Y-4.7638
X3.5413Y-4.7205
X3.6594Y-4.7185
X4.237Y-4.8
X4.343Y-4.798
X4.424Y-4.798
X4.527Y-4.798
X4.804Y-4.778
X5.047Y-4.85
X5.048Y-4.285
X5.1535Y-4.7854
X5.2441Y-4.7835
X5.347Y-4.852
X5.613Y-4.778
X5.7795Y-4.2677
X5.7806Y-4.3701
X5.95Y-4.265
X5.951Y-4.371
X6.1Y-4.4
X6.1Y-4.5
X6.1Y-4.6
X6.1Y-4.7
T0
M30
