M48
; DRILL file {KiCad (6.0.4)} date Sat Aug 13 18:46:34 2022
; FORMAT={-:-/ absolute / inch / decimal}
; #@! TF.CreationDate,2022-08-13T18:46:34+03:00
; #@! TF.GenerationSoftware,Kicad,Pcbnew,(6.0.4)
; #@! TF.FileFunction,Plated,1,2,PTH
FMAT,2
INCH
; #@! TA.AperFunction,Plated,PTH,ViaDrill
T1C0.0157
; #@! TA.AperFunction,Plated,PTH,ComponentDrill
T2C0.0276
; #@! TA.AperFunction,Plated,PTH,ComponentDrill
T3C0.0492
%
G90
G05
T1
X3.699Y-2.9
X3.6991Y-3.0811
X3.7041Y-2.3611
X3.726Y-2.63
X3.737Y-2.736
X3.739Y-2.962
X3.74Y-2.84
X3.747Y-2.554
X3.77Y-3.053
X3.794Y-2.495
X3.824Y-2.736
X3.8261Y-2.9621
X3.829Y-3.003
X3.83Y-2.638
X3.831Y-2.84
X3.8391Y-2.3571
X3.8431Y-3.1271
X3.8751Y-3.2761
X3.881Y-2.698
X3.884Y-3.056
X3.899Y-2.479
X3.9Y-2.561
X3.9141Y-2.7831
X3.9191Y-2.6561
X3.92Y-2.923
X3.92Y-3.004
X3.963Y-3.113
X3.976Y-3.058
X4.033Y-3.057
X4.033Y-3.113
X4.0591Y-2.6531
X4.0751Y-2.7861
X4.088Y-2.921
X4.088Y-3.002
X4.096Y-2.477
X4.097Y-2.562
X4.114Y-3.054
X4.115Y-2.699
X4.1191Y-3.2751
X4.1261Y-2.3561
X4.1491Y-3.1261
X4.161Y-2.838
X4.167Y-2.637
X4.169Y-2.736
X4.185Y-2.911
X4.198Y-2.481
X4.207Y-3.069
X4.2141Y-2.8291
X4.216Y-2.974
X4.25Y-2.522
X4.26Y-2.736
X4.279Y-2.611
X4.2901Y-2.3551
X4.2971Y-3.0961
X4.3021Y-2.8531
T2
X3.923Y-3.081
X3.923Y-3.1401
X4.0726Y-3.081
X4.0726Y-3.1401
T3
X3.9978Y-2.8271
X3.9978Y-3.1932
T0
M30
