%TF.GenerationSoftware,KiCad,Pcbnew,(6.0.4)*%
%TF.CreationDate,2022-08-13T18:46:34+03:00*%
%TF.ProjectId,Head_001,48656164-5f30-4303-912e-6b696361645f,rev?*%
%TF.SameCoordinates,Original*%
%TF.FileFunction,Soldermask,Top*%
%TF.FilePolarity,Negative*%
%FSLAX46Y46*%
G04 Gerber Fmt 4.6, Leading zero omitted, Abs format (unit mm)*
G04 Created by KiCad (PCBNEW (6.0.4)) date 2022-08-13 18:46:34*
%MOMM*%
%LPD*%
G01*
G04 APERTURE LIST*
%ADD10R,0.500000X3.300000*%
%ADD11R,1.300000X3.300000*%
%ADD12R,3.300000X0.500000*%
%ADD13R,3.300000X1.300000*%
%ADD14C,1.350000*%
%ADD15C,0.900000*%
%ADD16C,0.800000*%
G04 APERTURE END LIST*
D10*
%TO.C,D3*%
X97643600Y-64007800D03*
X100443600Y-64007800D03*
D11*
X99043600Y-64007800D03*
%TD*%
D12*
%TO.C,D8*%
X107043600Y-68107800D03*
X107043600Y-70907800D03*
D13*
X107043600Y-69507800D03*
%TD*%
D14*
%TO.C,U2*%
X101543600Y-81107800D03*
%TD*%
D15*
%TO.C,D9*%
X99643600Y-79757800D03*
%TD*%
%TO.C,D7*%
X103443600Y-79757800D03*
%TD*%
D10*
%TO.C,D5*%
X102643600Y-64007800D03*
X105443600Y-64007800D03*
D11*
X104043600Y-64007800D03*
%TD*%
D12*
%TO.C,D1*%
X96043600Y-70907800D03*
X96043600Y-68107800D03*
D13*
X96043600Y-69507800D03*
%TD*%
D10*
%TO.C,D2*%
X98171400Y-75263800D03*
X100971400Y-75263800D03*
D11*
X99571400Y-75263800D03*
%TD*%
D15*
%TO.C,D6*%
X103443600Y-78257800D03*
%TD*%
D10*
%TO.C,D4*%
X102438600Y-75213000D03*
X105238600Y-75213000D03*
D11*
X103838600Y-75213000D03*
%TD*%
D15*
%TO.C,D10*%
X99643600Y-78257800D03*
%TD*%
D14*
%TO.C,U1*%
X101543600Y-71807800D03*
%TD*%
D16*
X104626000Y-83188600D03*
X98428400Y-83214000D03*
X105388000Y-79404000D03*
X104495600Y-77571600D03*
X95758000Y-77546200D03*
X108969400Y-59820600D03*
X100990400Y-77673200D03*
X100660200Y-79070200D03*
X94640400Y-66802000D03*
X94970600Y-75234800D03*
X103102000Y-67389800D03*
X107950000Y-64058800D03*
X97282000Y-67005200D03*
X99546000Y-67466000D03*
X105689400Y-72085200D03*
X94085000Y-59973000D03*
X107086400Y-75539600D03*
X108204000Y-69494400D03*
X93954600Y-73660000D03*
X94919800Y-69494400D03*
X104803800Y-59846000D03*
X103835200Y-74193400D03*
X99060000Y-65049400D03*
X97307400Y-72136000D03*
X99034600Y-62966600D03*
X106299000Y-73939400D03*
X106629200Y-63017400D03*
X108686600Y-66319400D03*
X97129600Y-69494400D03*
X94996000Y-72136000D03*
X99568000Y-74244200D03*
X97514000Y-59871400D03*
X104063800Y-65074800D03*
X109274200Y-72469800D03*
X104521000Y-68554600D03*
X97256600Y-76276200D03*
X97615600Y-79429400D03*
X106857800Y-77952600D03*
X109147200Y-78642000D03*
X103835200Y-76250800D03*
X102438200Y-77647800D03*
X105841800Y-66979800D03*
X98653600Y-77622400D03*
X99419000Y-70691800D03*
X99568000Y-76301600D03*
X104038400Y-62915800D03*
X96367600Y-63373000D03*
X95173800Y-64871600D03*
X102438200Y-79070200D03*
X93958000Y-78261000D03*
X98577400Y-68529200D03*
X105892600Y-69494400D03*
X103508400Y-70768000D03*
X97183800Y-75238400D03*
X107039000Y-71860200D03*
M02*
