%TF.GenerationSoftware,KiCad,Pcbnew,(6.0.4)*%
%TF.CreationDate,2022-08-13T18:46:34+03:00*%
%TF.ProjectId,Head_001,48656164-5f30-4303-912e-6b696361645f,rev?*%
%TF.SameCoordinates,Original*%
%TF.FileFunction,Legend,Top*%
%TF.FilePolarity,Positive*%
%FSLAX46Y46*%
G04 Gerber Fmt 4.6, Leading zero omitted, Abs format (unit mm)*
G04 Created by KiCad (PCBNEW (6.0.4)) date 2022-08-13 18:46:34*
%MOMM*%
%LPD*%
G01*
G04 APERTURE LIST*
%ADD10C,0.150000*%
%ADD11C,0.120000*%
%ADD12R,0.500000X3.300000*%
%ADD13R,1.300000X3.300000*%
%ADD14R,3.300000X0.500000*%
%ADD15R,3.300000X1.300000*%
%ADD16C,1.350000*%
%ADD17C,0.900000*%
%ADD18C,0.800000*%
G04 APERTURE END LIST*
D10*
X99136200Y-80848200D02*
X99136200Y-80340200D01*
X99999800Y-72974200D02*
X100609400Y-72974200D01*
X102443600Y-77063600D02*
X104394000Y-77063600D01*
X104394000Y-77063600D02*
X104394000Y-81107800D01*
X104394000Y-81107800D02*
X102443600Y-81107800D01*
X102443600Y-81107800D02*
X102443600Y-77063600D01*
X105257600Y-66598800D02*
X105257600Y-66090800D01*
X98171000Y-67538600D02*
X98679000Y-67538600D01*
X104419400Y-70612000D02*
X104927400Y-70612000D01*
X98643600Y-77114400D02*
X100533200Y-77114400D01*
X100533200Y-77114400D02*
X100533200Y-81107800D01*
X100533200Y-81107800D02*
X98643600Y-81107800D01*
X98643600Y-81107800D02*
X98643600Y-77114400D01*
X102870000Y-73101200D02*
X102870000Y-72593200D01*
X102666800Y-66319400D02*
X103276400Y-66319400D01*
X104800400Y-72898000D02*
X105410000Y-72898000D01*
X98425000Y-67792600D02*
X98425000Y-67284600D01*
X102616000Y-72847200D02*
X103124000Y-72847200D01*
X103911400Y-80899000D02*
X103911400Y-80391000D01*
X104267000Y-67894200D02*
X104876600Y-67894200D01*
X98171000Y-71120000D02*
X98780600Y-71120000D01*
X97561400Y-66344800D02*
X98171000Y-66344800D01*
X98831400Y-77520800D02*
X99441000Y-77520800D01*
X98882200Y-80594200D02*
X99390200Y-80594200D01*
X105003600Y-66344800D02*
X105511600Y-66344800D01*
X104673400Y-70866000D02*
X104673400Y-70358000D01*
X97764600Y-72872600D02*
X98272600Y-72872600D01*
X98018600Y-73126600D02*
X98018600Y-72618600D01*
X103657400Y-80645000D02*
X104165400Y-80645000D01*
X100101400Y-66598800D02*
X100101400Y-66090800D01*
X102641400Y-77495400D02*
X103251000Y-77495400D01*
X99847400Y-66344800D02*
X100355400Y-66344800D01*
D11*
%TO.C,D3*%
X97193600Y-65857800D02*
X97193600Y-64857800D01*
X97193600Y-62157800D02*
X97193600Y-63157800D01*
X99793600Y-65857800D02*
X97193600Y-65857800D01*
X99793600Y-62157800D02*
X97193600Y-62157800D01*
%TO.C,D8*%
X108893600Y-67657800D02*
X107893600Y-67657800D01*
X108893600Y-70257800D02*
X108893600Y-67657800D01*
X105193600Y-70257800D02*
X105193600Y-67657800D01*
X105193600Y-67657800D02*
X106193600Y-67657800D01*
%TO.C,D5*%
X104793600Y-65857800D02*
X102193600Y-65857800D01*
X104793600Y-62157800D02*
X102193600Y-62157800D01*
X102193600Y-62157800D02*
X102193600Y-63157800D01*
X102193600Y-65857800D02*
X102193600Y-64857800D01*
%TO.C,D1*%
X97893600Y-71357800D02*
X96893600Y-71357800D01*
X97893600Y-68757800D02*
X97893600Y-71357800D01*
X94193600Y-71357800D02*
X95193600Y-71357800D01*
X94193600Y-68757800D02*
X94193600Y-71357800D01*
%TO.C,D2*%
X100321400Y-73413800D02*
X97721400Y-73413800D01*
X97721400Y-77113800D02*
X97721400Y-76113800D01*
X100321400Y-77113800D02*
X97721400Y-77113800D01*
X97721400Y-73413800D02*
X97721400Y-74413800D01*
%TO.C,D4*%
X104588600Y-77063000D02*
X101988600Y-77063000D01*
X101988600Y-77063000D02*
X101988600Y-76063000D01*
X101988600Y-73363000D02*
X101988600Y-74363000D01*
X104588600Y-73363000D02*
X101988600Y-73363000D01*
%TD*%
%LPC*%
D12*
%TO.C,D3*%
X97643600Y-64007800D03*
X100443600Y-64007800D03*
D13*
X99043600Y-64007800D03*
%TD*%
D14*
%TO.C,D8*%
X107043600Y-68107800D03*
X107043600Y-70907800D03*
D15*
X107043600Y-69507800D03*
%TD*%
D16*
%TO.C,U2*%
X101543600Y-81107800D03*
%TD*%
D17*
%TO.C,D9*%
X99643600Y-79757800D03*
%TD*%
%TO.C,D7*%
X103443600Y-79757800D03*
%TD*%
D12*
%TO.C,D5*%
X102643600Y-64007800D03*
X105443600Y-64007800D03*
D13*
X104043600Y-64007800D03*
%TD*%
D14*
%TO.C,D1*%
X96043600Y-70907800D03*
X96043600Y-68107800D03*
D15*
X96043600Y-69507800D03*
%TD*%
D12*
%TO.C,D2*%
X98171400Y-75263800D03*
X100971400Y-75263800D03*
D13*
X99571400Y-75263800D03*
%TD*%
D17*
%TO.C,D6*%
X103443600Y-78257800D03*
%TD*%
D12*
%TO.C,D4*%
X102438600Y-75213000D03*
X105238600Y-75213000D03*
D13*
X103838600Y-75213000D03*
%TD*%
D17*
%TO.C,D10*%
X99643600Y-78257800D03*
%TD*%
D16*
%TO.C,U1*%
X101543600Y-71807800D03*
%TD*%
D18*
X104626000Y-83188600D03*
X98428400Y-83214000D03*
X105388000Y-79404000D03*
X104495600Y-77571600D03*
X95758000Y-77546200D03*
X108969400Y-59820600D03*
X100990400Y-77673200D03*
X100660200Y-79070200D03*
X94640400Y-66802000D03*
X94970600Y-75234800D03*
X103102000Y-67389800D03*
X107950000Y-64058800D03*
X97282000Y-67005200D03*
X99546000Y-67466000D03*
X105689400Y-72085200D03*
X94085000Y-59973000D03*
X107086400Y-75539600D03*
X108204000Y-69494400D03*
X93954600Y-73660000D03*
X94919800Y-69494400D03*
X104803800Y-59846000D03*
X103835200Y-74193400D03*
X99060000Y-65049400D03*
X97307400Y-72136000D03*
X99034600Y-62966600D03*
X106299000Y-73939400D03*
X106629200Y-63017400D03*
X108686600Y-66319400D03*
X97129600Y-69494400D03*
X94996000Y-72136000D03*
X99568000Y-74244200D03*
X97514000Y-59871400D03*
X104063800Y-65074800D03*
X109274200Y-72469800D03*
X104521000Y-68554600D03*
X97256600Y-76276200D03*
X97615600Y-79429400D03*
X106857800Y-77952600D03*
X109147200Y-78642000D03*
X103835200Y-76250800D03*
X102438200Y-77647800D03*
X105841800Y-66979800D03*
X98653600Y-77622400D03*
X99419000Y-70691800D03*
X99568000Y-76301600D03*
X104038400Y-62915800D03*
X96367600Y-63373000D03*
X95173800Y-64871600D03*
X102438200Y-79070200D03*
X93958000Y-78261000D03*
X98577400Y-68529200D03*
X105892600Y-69494400D03*
X103508400Y-70768000D03*
X97183800Y-75238400D03*
X107039000Y-71860200D03*
M02*
