%TF.GenerationSoftware,KiCad,Pcbnew,(6.0.4)*%
%TF.CreationDate,2022-08-13T18:46:34+03:00*%
%TF.ProjectId,Head_001,48656164-5f30-4303-912e-6b696361645f,rev?*%
%TF.SameCoordinates,Original*%
%TF.FileFunction,Copper,L2,Bot*%
%TF.FilePolarity,Positive*%
%FSLAX46Y46*%
G04 Gerber Fmt 4.6, Leading zero omitted, Abs format (unit mm)*
G04 Created by KiCad (PCBNEW (6.0.4)) date 2022-08-13 18:46:34*
%MOMM*%
%LPD*%
G01*
G04 APERTURE LIST*
%TA.AperFunction,ComponentPad*%
%ADD10C,1.350000*%
%TD*%
%TA.AperFunction,ComponentPad*%
%ADD11C,0.900000*%
%TD*%
%TA.AperFunction,ViaPad*%
%ADD12C,0.800000*%
%TD*%
%TA.AperFunction,Conductor*%
%ADD13C,0.500000*%
%TD*%
G04 APERTURE END LIST*
D10*
%TO.P,U2,1,Mnt*%
%TO.N,Net-(D1-Pad3)*%
X101543600Y-81107800D03*
%TD*%
D11*
%TO.P,D9,1*%
%TO.N,Net-(D8-Pad2)*%
X99643600Y-79757800D03*
%TD*%
%TO.P,D7,1*%
%TO.N,Net-(D2-Pad1)*%
X103443600Y-79757800D03*
%TD*%
%TO.P,D6,1*%
%TO.N,Net-(D4-Pad2)*%
X103443600Y-78257800D03*
%TD*%
%TO.P,D10,1*%
%TO.N,Net-(D1-Pad1)*%
X99643600Y-78257800D03*
%TD*%
D10*
%TO.P,U1,1,Mnt*%
%TO.N,Net-(D1-Pad3)*%
X101543600Y-71807800D03*
%TD*%
D12*
%TO.N,*%
X104626000Y-83188600D03*
X98428400Y-83214000D03*
%TO.N,Net-(D1-Pad3)*%
X105388000Y-79404000D03*
X104495600Y-77571600D03*
X95758000Y-77546200D03*
X108969400Y-59820600D03*
X100990400Y-77673200D03*
X100660200Y-79070200D03*
X94640400Y-66802000D03*
X94970600Y-75234800D03*
X103102000Y-67389800D03*
X107950000Y-64058800D03*
X97282000Y-67005200D03*
X99546000Y-67466000D03*
X105689400Y-72085200D03*
X94085000Y-59973000D03*
X107086400Y-75539600D03*
X108204000Y-69494400D03*
X93954600Y-73660000D03*
X94919800Y-69494400D03*
X104803800Y-59846000D03*
X103835200Y-74193400D03*
X99060000Y-65049400D03*
X97307400Y-72136000D03*
X99034600Y-62966600D03*
X106299000Y-73939400D03*
X106629200Y-63017400D03*
X108686600Y-66319400D03*
X97129600Y-69494400D03*
X94996000Y-72136000D03*
X99568000Y-74244200D03*
X97514000Y-59871400D03*
X104063800Y-65074800D03*
X109274200Y-72469800D03*
X104521000Y-68554600D03*
X97256600Y-76276200D03*
X97615600Y-79429400D03*
X106857800Y-77952600D03*
X109147200Y-78642000D03*
X103835200Y-76250800D03*
X102438200Y-77647800D03*
X105841800Y-66979800D03*
X98653600Y-77622400D03*
X99419000Y-70691800D03*
X99568000Y-76301600D03*
X104038400Y-62915800D03*
X96367600Y-63373000D03*
X95173800Y-64871600D03*
X102438200Y-79070200D03*
X93958000Y-78261000D03*
X98577400Y-68529200D03*
X105892600Y-69494400D03*
X103508400Y-70768000D03*
%TO.N,Net-(D2-Pad1)*%
X97183800Y-75238400D03*
%TO.N,Net-(D8-Pad2)*%
X107039000Y-71860200D03*
%TD*%
D13*
%TO.N,Net-(D2-Pad1)*%
X106073800Y-77321200D02*
X104524400Y-78870600D01*
X104118000Y-78870600D02*
X103443600Y-79545000D01*
X103443600Y-79545000D02*
X103443600Y-79757800D01*
X97183800Y-75238400D02*
X105515000Y-75238400D01*
X106073800Y-75797200D02*
X106073800Y-77321200D01*
X104524400Y-78870600D02*
X104118000Y-78870600D01*
X105515000Y-75238400D02*
X106073800Y-75797200D01*
%TO.N,Net-(D8-Pad2)*%
X99444400Y-79327800D02*
X99643600Y-79527000D01*
X98987200Y-78896000D02*
X99419000Y-79327800D01*
X107039000Y-64748200D02*
X106302400Y-64011600D01*
X96040800Y-65611800D02*
X96040800Y-76279800D01*
X99643600Y-79527000D02*
X99643600Y-79757800D01*
X99419000Y-79327800D02*
X99444400Y-79327800D01*
X97641000Y-64011600D02*
X96040800Y-65611800D01*
X96040800Y-76279800D02*
X98657000Y-78896000D01*
X106302400Y-64011600D02*
X97641000Y-64011600D01*
X98657000Y-78896000D02*
X98987200Y-78896000D01*
X107039000Y-71860200D02*
X107039000Y-64748200D01*
%TD*%
%TA.AperFunction,Conductor*%
%TO.N,Net-(D1-Pad3)*%
G36*
X109885221Y-59128302D02*
G01*
X109931714Y-59181958D01*
X109943100Y-59234300D01*
X109943100Y-78815293D01*
X109923098Y-78883414D01*
X109907075Y-78903500D01*
X105445776Y-83454024D01*
X105416600Y-83483784D01*
X105354628Y-83518424D01*
X105283765Y-83514061D01*
X105226511Y-83472079D01*
X105201043Y-83405808D01*
X105207984Y-83361570D01*
X105205746Y-83360970D01*
X105207884Y-83352991D01*
X105211044Y-83345362D01*
X105231682Y-83188600D01*
X105211044Y-83031838D01*
X105150536Y-82885759D01*
X105054282Y-82760318D01*
X104928841Y-82664064D01*
X104796861Y-82609396D01*
X104790391Y-82606716D01*
X104782762Y-82603556D01*
X104626000Y-82582918D01*
X104469238Y-82603556D01*
X104461609Y-82606716D01*
X104455139Y-82609396D01*
X104323159Y-82664064D01*
X104197718Y-82760318D01*
X104101464Y-82885759D01*
X104040956Y-83031838D01*
X104020318Y-83188600D01*
X104040956Y-83345362D01*
X104101464Y-83491441D01*
X104197718Y-83616882D01*
X104204264Y-83621905D01*
X104281718Y-83681337D01*
X104323585Y-83738675D01*
X104327807Y-83809546D01*
X104293043Y-83871449D01*
X104230331Y-83904730D01*
X104205014Y-83907300D01*
X98882488Y-83907300D01*
X98814367Y-83887298D01*
X98767874Y-83833642D01*
X98757770Y-83763368D01*
X98787264Y-83698788D01*
X98805785Y-83681337D01*
X98850133Y-83647308D01*
X98850136Y-83647305D01*
X98856682Y-83642282D01*
X98952936Y-83516841D01*
X99013444Y-83370762D01*
X99034082Y-83214000D01*
X99013444Y-83057238D01*
X98952936Y-82911159D01*
X98856682Y-82785718D01*
X98731241Y-82689464D01*
X98585162Y-82628956D01*
X98428400Y-82608318D01*
X98271638Y-82628956D01*
X98125559Y-82689464D01*
X98000118Y-82785718D01*
X97903864Y-82911159D01*
X97843356Y-83057238D01*
X97822718Y-83214000D01*
X97823796Y-83222188D01*
X97838092Y-83330777D01*
X97827153Y-83400925D01*
X97780025Y-83454024D01*
X97711671Y-83473214D01*
X97643793Y-83452403D01*
X97623197Y-83435432D01*
X97589367Y-83400925D01*
X93180126Y-78903501D01*
X93146720Y-78840856D01*
X93144100Y-78815293D01*
X93144100Y-76294110D01*
X95585436Y-76294110D01*
X95587128Y-76303374D01*
X95587128Y-76303375D01*
X95595972Y-76351801D01*
X95596622Y-76355704D01*
X95605351Y-76413762D01*
X95608479Y-76420275D01*
X95609775Y-76427373D01*
X95636825Y-76479447D01*
X95638568Y-76482937D01*
X95663991Y-76535879D01*
X95668877Y-76541165D01*
X95668910Y-76541213D01*
X95672221Y-76547588D01*
X95676525Y-76552628D01*
X95713752Y-76589855D01*
X95717181Y-76593420D01*
X95755946Y-76635356D01*
X95762302Y-76639049D01*
X95768463Y-76644567D01*
X98314251Y-79190355D01*
X98324106Y-79201444D01*
X98345128Y-79228110D01*
X98352872Y-79233462D01*
X98352874Y-79233464D01*
X98393370Y-79261452D01*
X98396585Y-79263750D01*
X98443817Y-79298635D01*
X98450634Y-79301029D01*
X98456569Y-79305131D01*
X98465544Y-79307969D01*
X98465545Y-79307970D01*
X98485681Y-79314338D01*
X98512475Y-79322812D01*
X98516215Y-79324060D01*
X98562745Y-79340400D01*
X98562748Y-79340401D01*
X98571631Y-79343520D01*
X98578816Y-79343803D01*
X98578889Y-79343817D01*
X98585730Y-79345980D01*
X98592337Y-79346500D01*
X98644991Y-79346500D01*
X98649937Y-79346597D01*
X98706994Y-79348839D01*
X98714103Y-79346954D01*
X98722352Y-79346500D01*
X98748407Y-79346500D01*
X98816528Y-79366502D01*
X98837502Y-79383405D01*
X98969628Y-79515531D01*
X99003654Y-79577843D01*
X99005455Y-79621072D01*
X98988358Y-79750938D01*
X99005635Y-79907433D01*
X99059743Y-80055290D01*
X99063980Y-80061596D01*
X99063982Y-80061599D01*
X99104309Y-80121611D01*
X99147558Y-80185972D01*
X99264010Y-80291935D01*
X99270685Y-80295559D01*
X99395699Y-80363437D01*
X99395701Y-80363438D01*
X99402376Y-80367062D01*
X99409725Y-80368990D01*
X99547319Y-80405087D01*
X99547321Y-80405087D01*
X99554669Y-80407015D01*
X99637980Y-80408324D01*
X99704498Y-80409369D01*
X99704501Y-80409369D01*
X99712095Y-80409488D01*
X99865568Y-80374338D01*
X100006225Y-80303595D01*
X100032469Y-80281181D01*
X100120174Y-80206274D01*
X100120176Y-80206271D01*
X100125948Y-80201342D01*
X100217824Y-80073483D01*
X100276550Y-79927398D01*
X100298734Y-79771523D01*
X100298878Y-79757800D01*
X100279963Y-79601494D01*
X100257710Y-79542602D01*
X100226994Y-79461314D01*
X100226993Y-79461311D01*
X100224310Y-79454212D01*
X100135131Y-79324457D01*
X100064416Y-79261452D01*
X100023248Y-79224772D01*
X100023245Y-79224770D01*
X100017576Y-79219719D01*
X99940476Y-79178897D01*
X99910341Y-79156638D01*
X99830597Y-79076894D01*
X99796571Y-79014582D01*
X99801636Y-78943767D01*
X99844183Y-78886931D01*
X99865994Y-78875185D01*
X99865568Y-78874338D01*
X99887242Y-78863437D01*
X100006225Y-78803595D01*
X100032469Y-78781181D01*
X100120174Y-78706274D01*
X100120176Y-78706271D01*
X100125948Y-78701342D01*
X100217824Y-78573483D01*
X100276550Y-78427398D01*
X100298049Y-78276335D01*
X100298153Y-78275607D01*
X100298153Y-78275604D01*
X100298734Y-78271523D01*
X100298878Y-78257800D01*
X100279963Y-78101494D01*
X100224310Y-77954212D01*
X100135131Y-77824457D01*
X100088571Y-77782974D01*
X100023248Y-77724772D01*
X100023245Y-77724770D01*
X100017576Y-77719719D01*
X99878431Y-77646045D01*
X99795933Y-77625323D01*
X99733098Y-77609540D01*
X99733096Y-77609540D01*
X99725728Y-77607689D01*
X99718130Y-77607649D01*
X99718128Y-77607649D01*
X99650919Y-77607297D01*
X99568284Y-77606865D01*
X99560905Y-77608637D01*
X99560901Y-77608637D01*
X99422567Y-77641848D01*
X99422563Y-77641849D01*
X99415188Y-77643620D01*
X99275279Y-77715832D01*
X99269557Y-77720824D01*
X99269555Y-77720825D01*
X99162359Y-77814338D01*
X99162356Y-77814341D01*
X99156634Y-77819333D01*
X99066101Y-77948148D01*
X99008909Y-78094839D01*
X98988358Y-78250938D01*
X98991096Y-78275736D01*
X98978690Y-78345640D01*
X98930461Y-78397740D01*
X98861720Y-78415495D01*
X98794293Y-78393267D01*
X98776762Y-78378658D01*
X96528205Y-76130102D01*
X96494180Y-76067790D01*
X96491300Y-76041007D01*
X96491300Y-75693531D01*
X96511302Y-75625410D01*
X96564958Y-75578917D01*
X96635232Y-75568813D01*
X96699812Y-75598307D01*
X96717263Y-75616827D01*
X96740561Y-75647189D01*
X96755518Y-75666682D01*
X96880959Y-75762936D01*
X97027038Y-75823444D01*
X97183800Y-75844082D01*
X97191988Y-75843004D01*
X97332374Y-75824522D01*
X97340562Y-75823444D01*
X97486641Y-75762936D01*
X97535834Y-75725189D01*
X97549195Y-75714937D01*
X97615416Y-75689337D01*
X97625899Y-75688900D01*
X105276207Y-75688900D01*
X105344328Y-75708902D01*
X105365302Y-75725805D01*
X105586395Y-75946898D01*
X105620421Y-76009210D01*
X105623300Y-76035993D01*
X105623300Y-77082407D01*
X105603298Y-77150528D01*
X105586395Y-77171502D01*
X104374702Y-78383195D01*
X104312390Y-78417221D01*
X104285607Y-78420100D01*
X104222790Y-78420100D01*
X104154669Y-78400098D01*
X104108176Y-78346442D01*
X104098545Y-78279772D01*
X104097840Y-78279718D01*
X104098081Y-78276554D01*
X104098049Y-78276335D01*
X104098153Y-78275606D01*
X104098153Y-78275605D01*
X104098734Y-78271523D01*
X104098878Y-78257800D01*
X104079963Y-78101494D01*
X104024310Y-77954212D01*
X103935131Y-77824457D01*
X103888571Y-77782974D01*
X103823248Y-77724772D01*
X103823245Y-77724770D01*
X103817576Y-77719719D01*
X103678431Y-77646045D01*
X103595933Y-77625323D01*
X103533098Y-77609540D01*
X103533096Y-77609540D01*
X103525728Y-77607689D01*
X103518130Y-77607649D01*
X103518128Y-77607649D01*
X103450919Y-77607297D01*
X103368284Y-77606865D01*
X103360905Y-77608637D01*
X103360901Y-77608637D01*
X103222567Y-77641848D01*
X103222563Y-77641849D01*
X103215188Y-77643620D01*
X103075279Y-77715832D01*
X103069557Y-77720824D01*
X103069555Y-77720825D01*
X102962359Y-77814338D01*
X102962356Y-77814341D01*
X102956634Y-77819333D01*
X102866101Y-77948148D01*
X102808909Y-78094839D01*
X102788358Y-78250938D01*
X102805635Y-78407433D01*
X102859743Y-78555290D01*
X102863980Y-78561596D01*
X102863982Y-78561599D01*
X102904309Y-78621611D01*
X102947558Y-78685972D01*
X103064010Y-78791935D01*
X103070685Y-78795559D01*
X103195699Y-78863437D01*
X103195701Y-78863438D01*
X103202376Y-78867062D01*
X103213438Y-78869964D01*
X103215840Y-78871411D01*
X103216787Y-78871786D01*
X103216725Y-78871944D01*
X103274252Y-78906595D01*
X103305610Y-78970292D01*
X103297552Y-79040830D01*
X103270561Y-79080935D01*
X103213949Y-79137547D01*
X103182644Y-79160417D01*
X103075279Y-79215832D01*
X103069559Y-79220822D01*
X103069556Y-79220824D01*
X102962359Y-79314338D01*
X102962356Y-79314341D01*
X102956634Y-79319333D01*
X102866101Y-79448148D01*
X102808909Y-79594839D01*
X102788358Y-79750938D01*
X102805635Y-79907433D01*
X102859743Y-80055290D01*
X102863980Y-80061596D01*
X102863982Y-80061599D01*
X102904309Y-80121611D01*
X102947558Y-80185972D01*
X103064010Y-80291935D01*
X103070685Y-80295559D01*
X103195699Y-80363437D01*
X103195701Y-80363438D01*
X103202376Y-80367062D01*
X103209725Y-80368990D01*
X103347319Y-80405087D01*
X103347321Y-80405087D01*
X103354669Y-80407015D01*
X103437980Y-80408324D01*
X103504498Y-80409369D01*
X103504501Y-80409369D01*
X103512095Y-80409488D01*
X103665568Y-80374338D01*
X103806225Y-80303595D01*
X103832469Y-80281181D01*
X103920174Y-80206274D01*
X103920176Y-80206271D01*
X103925948Y-80201342D01*
X104017824Y-80073483D01*
X104076550Y-79927398D01*
X104098734Y-79771523D01*
X104098878Y-79757800D01*
X104081311Y-79612632D01*
X104092984Y-79542602D01*
X104117303Y-79508400D01*
X104267698Y-79358005D01*
X104330010Y-79323979D01*
X104356793Y-79321100D01*
X104490180Y-79321100D01*
X104504989Y-79321973D01*
X104538710Y-79325964D01*
X104547974Y-79324272D01*
X104547975Y-79324272D01*
X104596401Y-79315428D01*
X104600304Y-79314778D01*
X104649045Y-79307450D01*
X104649046Y-79307450D01*
X104658362Y-79306049D01*
X104664875Y-79302921D01*
X104671973Y-79301625D01*
X104724047Y-79274575D01*
X104727537Y-79272832D01*
X104780479Y-79247409D01*
X104785765Y-79242523D01*
X104785813Y-79242490D01*
X104792188Y-79239179D01*
X104797228Y-79234875D01*
X104834455Y-79197648D01*
X104838021Y-79194218D01*
X104873041Y-79161846D01*
X104879956Y-79155454D01*
X104883649Y-79149095D01*
X104889166Y-79142937D01*
X106368150Y-77663953D01*
X106379239Y-77654099D01*
X106398509Y-77638907D01*
X106398511Y-77638905D01*
X106405910Y-77633072D01*
X106439262Y-77584815D01*
X106441557Y-77581603D01*
X106470840Y-77541958D01*
X106470841Y-77541957D01*
X106476434Y-77534384D01*
X106478827Y-77527568D01*
X106482931Y-77521631D01*
X106500626Y-77465681D01*
X106501871Y-77461950D01*
X106518196Y-77415463D01*
X106518196Y-77415461D01*
X106521319Y-77406569D01*
X106521601Y-77399381D01*
X106521612Y-77399322D01*
X106523780Y-77392470D01*
X106524300Y-77385863D01*
X106524300Y-77333184D01*
X106524397Y-77328237D01*
X106526268Y-77280618D01*
X106526638Y-77271206D01*
X106524754Y-77264100D01*
X106524300Y-77255856D01*
X106524300Y-75831420D01*
X106525173Y-75816611D01*
X106528057Y-75792243D01*
X106529164Y-75782890D01*
X106527472Y-75773626D01*
X106527472Y-75773622D01*
X106518627Y-75725189D01*
X106517978Y-75721288D01*
X106510651Y-75672555D01*
X106510649Y-75672547D01*
X106509249Y-75663238D01*
X106506123Y-75656728D01*
X106504826Y-75649627D01*
X106477782Y-75597563D01*
X106476014Y-75594025D01*
X106454686Y-75549611D01*
X106450609Y-75541121D01*
X106445726Y-75535840D01*
X106445691Y-75535788D01*
X106442380Y-75529412D01*
X106438076Y-75524372D01*
X106400837Y-75487133D01*
X106397407Y-75483567D01*
X106365048Y-75448561D01*
X106358654Y-75441644D01*
X106352296Y-75437952D01*
X106346143Y-75432440D01*
X105857752Y-74944049D01*
X105847897Y-74932960D01*
X105832703Y-74913687D01*
X105826872Y-74906290D01*
X105819125Y-74900935D01*
X105819123Y-74900934D01*
X105778625Y-74872945D01*
X105775403Y-74870643D01*
X105735758Y-74841360D01*
X105735757Y-74841359D01*
X105728184Y-74835766D01*
X105721368Y-74833373D01*
X105715431Y-74829269D01*
X105706451Y-74826429D01*
X105706449Y-74826428D01*
X105675575Y-74816664D01*
X105659481Y-74811574D01*
X105655750Y-74810329D01*
X105609263Y-74794004D01*
X105609261Y-74794004D01*
X105600369Y-74790881D01*
X105593181Y-74790599D01*
X105593122Y-74790588D01*
X105586270Y-74788420D01*
X105579663Y-74787900D01*
X105526984Y-74787900D01*
X105522037Y-74787803D01*
X105465006Y-74785562D01*
X105457900Y-74787446D01*
X105449653Y-74787900D01*
X97625899Y-74787900D01*
X97557778Y-74767898D01*
X97549195Y-74761863D01*
X97493192Y-74718891D01*
X97486641Y-74713864D01*
X97340562Y-74653356D01*
X97183800Y-74632718D01*
X97027038Y-74653356D01*
X96880959Y-74713864D01*
X96755518Y-74810118D01*
X96750495Y-74816664D01*
X96717263Y-74859973D01*
X96659925Y-74901840D01*
X96589054Y-74906062D01*
X96527151Y-74871298D01*
X96493870Y-74808585D01*
X96491300Y-74783269D01*
X96491300Y-65850593D01*
X96511302Y-65782472D01*
X96528205Y-65761498D01*
X97790698Y-64499005D01*
X97853010Y-64464979D01*
X97879793Y-64462100D01*
X106063607Y-64462100D01*
X106131728Y-64482102D01*
X106152702Y-64499005D01*
X106551595Y-64897898D01*
X106585621Y-64960210D01*
X106588500Y-64986993D01*
X106588500Y-71418101D01*
X106568498Y-71486222D01*
X106562463Y-71494805D01*
X106514464Y-71557359D01*
X106453956Y-71703438D01*
X106433318Y-71860200D01*
X106453956Y-72016962D01*
X106514464Y-72163041D01*
X106610718Y-72288482D01*
X106736159Y-72384736D01*
X106882238Y-72445244D01*
X107039000Y-72465882D01*
X107047188Y-72464804D01*
X107187574Y-72446322D01*
X107195762Y-72445244D01*
X107341841Y-72384736D01*
X107467282Y-72288482D01*
X107563536Y-72163041D01*
X107624044Y-72016962D01*
X107644682Y-71860200D01*
X107624044Y-71703438D01*
X107563536Y-71557359D01*
X107515537Y-71494805D01*
X107489937Y-71428584D01*
X107489500Y-71418101D01*
X107489500Y-64782420D01*
X107490373Y-64767611D01*
X107493257Y-64743243D01*
X107494364Y-64733890D01*
X107492672Y-64724626D01*
X107492672Y-64724622D01*
X107483827Y-64676189D01*
X107483178Y-64672288D01*
X107475851Y-64623555D01*
X107475849Y-64623547D01*
X107474449Y-64614238D01*
X107471323Y-64607728D01*
X107470026Y-64600627D01*
X107442982Y-64548563D01*
X107441214Y-64545025D01*
X107419886Y-64500611D01*
X107415809Y-64492121D01*
X107410922Y-64486835D01*
X107410895Y-64486795D01*
X107407580Y-64480412D01*
X107403275Y-64475372D01*
X107366048Y-64438145D01*
X107362618Y-64434579D01*
X107330246Y-64399559D01*
X107323854Y-64392644D01*
X107317495Y-64388951D01*
X107311337Y-64383434D01*
X106645153Y-63717250D01*
X106635299Y-63706161D01*
X106620107Y-63686891D01*
X106620105Y-63686889D01*
X106614272Y-63679490D01*
X106606525Y-63674135D01*
X106606523Y-63674134D01*
X106567731Y-63647324D01*
X106566015Y-63646138D01*
X106562803Y-63643843D01*
X106523158Y-63614560D01*
X106523157Y-63614559D01*
X106515584Y-63608966D01*
X106508768Y-63606573D01*
X106502831Y-63602469D01*
X106493851Y-63599629D01*
X106493849Y-63599628D01*
X106473683Y-63593250D01*
X106446881Y-63584774D01*
X106443150Y-63583529D01*
X106396663Y-63567204D01*
X106396661Y-63567204D01*
X106387769Y-63564081D01*
X106380581Y-63563799D01*
X106380522Y-63563788D01*
X106373670Y-63561620D01*
X106367063Y-63561100D01*
X106314384Y-63561100D01*
X106309437Y-63561003D01*
X106252406Y-63558762D01*
X106245300Y-63560646D01*
X106237053Y-63561100D01*
X97675220Y-63561100D01*
X97660411Y-63560227D01*
X97636043Y-63557343D01*
X97626690Y-63556236D01*
X97617426Y-63557928D01*
X97617422Y-63557928D01*
X97568989Y-63566773D01*
X97565088Y-63567422D01*
X97516355Y-63574749D01*
X97516347Y-63574751D01*
X97507038Y-63576151D01*
X97500528Y-63579277D01*
X97493427Y-63580574D01*
X97485072Y-63584914D01*
X97441363Y-63607618D01*
X97437825Y-63609386D01*
X97436959Y-63609802D01*
X97384921Y-63634791D01*
X97379640Y-63639674D01*
X97379588Y-63639709D01*
X97373212Y-63643020D01*
X97368172Y-63647324D01*
X97366418Y-63649078D01*
X97330923Y-63684574D01*
X97327353Y-63688006D01*
X97292363Y-63720349D01*
X97292359Y-63720354D01*
X97285444Y-63726746D01*
X97281752Y-63733103D01*
X97276240Y-63739256D01*
X95746449Y-65269048D01*
X95735360Y-65278903D01*
X95708690Y-65299928D01*
X95703335Y-65307675D01*
X95703334Y-65307677D01*
X95675345Y-65348175D01*
X95673050Y-65351387D01*
X95638166Y-65398616D01*
X95635773Y-65405432D01*
X95631669Y-65411369D01*
X95628829Y-65420349D01*
X95628828Y-65420351D01*
X95613982Y-65467295D01*
X95612729Y-65471050D01*
X95593281Y-65526431D01*
X95592999Y-65533619D01*
X95592988Y-65533678D01*
X95590820Y-65540530D01*
X95590300Y-65547137D01*
X95590300Y-65599816D01*
X95590203Y-65604762D01*
X95587962Y-65661794D01*
X95589846Y-65668900D01*
X95590300Y-65677147D01*
X95590300Y-76245580D01*
X95589427Y-76260389D01*
X95585436Y-76294110D01*
X93144100Y-76294110D01*
X93144100Y-59234300D01*
X93164102Y-59166179D01*
X93217758Y-59119686D01*
X93270100Y-59108300D01*
X109817100Y-59108300D01*
X109885221Y-59128302D01*
G37*
%TD.AperFunction*%
%TD*%
M02*
