%TF.GenerationSoftware,KiCad,Pcbnew,7.0.7*%
%TF.CreationDate,2024-03-02T18:47:46+03:00*%
%TF.ProjectId,Main_PCB_002,4d61696e-5f50-4434-925f-3030322e6b69,rev?*%
%TF.SameCoordinates,Original*%
%TF.FileFunction,Legend,Top*%
%TF.FilePolarity,Positive*%
%FSLAX46Y46*%
G04 Gerber Fmt 4.6, Leading zero omitted, Abs format (unit mm)*
G04 Created by KiCad (PCBNEW 7.0.7) date 2024-03-02 18:47:46*
%MOMM*%
%LPD*%
G01*
G04 APERTURE LIST*
G04 Aperture macros list*
%AMRoundRect*
0 Rectangle with rounded corners*
0 $1 Rounding radius*
0 $2 $3 $4 $5 $6 $7 $8 $9 X,Y pos of 4 corners*
0 Add a 4 corners polygon primitive as box body*
4,1,4,$2,$3,$4,$5,$6,$7,$8,$9,$2,$3,0*
0 Add four circle primitives for the rounded corners*
1,1,$1+$1,$2,$3*
1,1,$1+$1,$4,$5*
1,1,$1+$1,$6,$7*
1,1,$1+$1,$8,$9*
0 Add four rect primitives between the rounded corners*
20,1,$1+$1,$2,$3,$4,$5,0*
20,1,$1+$1,$4,$5,$6,$7,0*
20,1,$1+$1,$6,$7,$8,$9,0*
20,1,$1+$1,$8,$9,$2,$3,0*%
%AMFreePoly0*
4,1,14,0.230680,0.111820,0.364320,-0.021821,0.377500,-0.053642,0.377500,-0.080000,0.364320,-0.111820,0.332500,-0.125000,-0.332500,-0.125000,-0.364320,-0.111820,-0.377500,-0.080000,-0.377500,0.080000,-0.364320,0.111820,-0.332500,0.125000,0.198860,0.125000,0.230680,0.111820,0.230680,0.111820,$1*%
%AMFreePoly1*
4,1,14,0.364320,0.111820,0.377500,0.080000,0.377501,0.053640,0.364318,0.021819,0.230680,-0.111820,0.198860,-0.125000,-0.332500,-0.125000,-0.364320,-0.111820,-0.377500,-0.080000,-0.377500,0.080000,-0.364320,0.111820,-0.332500,0.125000,0.332500,0.125000,0.364320,0.111820,0.364320,0.111820,$1*%
%AMFreePoly2*
4,1,15,0.053642,0.377500,0.080000,0.377500,0.111820,0.364320,0.125000,0.332500,0.125000,-0.332500,0.111820,-0.364320,0.080000,-0.377500,-0.080000,-0.377500,-0.111820,-0.364320,-0.125000,-0.332500,-0.125000,0.198860,-0.111820,0.230680,0.021820,0.364320,0.053640,0.377501,0.053642,0.377500,0.053642,0.377500,$1*%
%AMFreePoly3*
4,1,14,-0.021820,0.364320,0.111820,0.230679,0.125001,0.198860,0.125000,-0.332500,0.111820,-0.364320,0.080000,-0.377500,-0.080000,-0.377500,-0.111820,-0.364320,-0.125000,-0.332500,-0.125000,0.332500,-0.111820,0.364320,-0.080000,0.377500,-0.053640,0.377500,-0.021820,0.364320,-0.021820,0.364320,$1*%
%AMFreePoly4*
4,1,14,0.364320,0.111820,0.377500,0.080000,0.377500,-0.080000,0.364320,-0.111820,0.332500,-0.125000,-0.198860,-0.125001,-0.230680,-0.111818,-0.364320,0.021820,-0.377500,0.053640,-0.377500,0.080000,-0.364320,0.111820,-0.332500,0.125000,0.332500,0.125000,0.364320,0.111820,0.364320,0.111820,$1*%
%AMFreePoly5*
4,1,15,-0.198858,0.125000,0.332500,0.125000,0.364320,0.111820,0.377500,0.080000,0.377500,-0.080000,0.364320,-0.111820,0.332500,-0.125000,-0.332500,-0.125000,-0.364320,-0.111820,-0.377500,-0.080000,-0.377500,-0.053640,-0.364320,-0.021820,-0.230680,0.111820,-0.198860,0.125001,-0.198858,0.125000,-0.198858,0.125000,$1*%
%AMFreePoly6*
4,1,14,0.111820,0.364320,0.125000,0.332500,0.125001,-0.198860,0.111818,-0.230680,-0.021820,-0.364320,-0.053640,-0.377500,-0.080000,-0.377500,-0.111820,-0.364320,-0.125000,-0.332500,-0.125000,0.332500,-0.111820,0.364320,-0.080000,0.377500,0.080000,0.377500,0.111820,0.364320,0.111820,0.364320,$1*%
%AMFreePoly7*
4,1,14,0.111820,0.364320,0.125000,0.332500,0.125000,-0.332500,0.111820,-0.364320,0.080000,-0.377500,0.053640,-0.377501,0.021819,-0.364318,-0.111820,-0.230680,-0.125000,-0.198860,-0.125000,0.332500,-0.111820,0.364320,-0.080000,0.377500,0.080000,0.377500,0.111820,0.364320,0.111820,0.364320,$1*%
G04 Aperture macros list end*
%ADD10C,0.150000*%
%ADD11C,0.120000*%
%ADD12C,0.152400*%
%ADD13R,0.939800X0.965200*%
%ADD14RoundRect,0.150000X-0.587500X-0.150000X0.587500X-0.150000X0.587500X0.150000X-0.587500X0.150000X0*%
%ADD15RoundRect,0.160000X0.197500X0.160000X-0.197500X0.160000X-0.197500X-0.160000X0.197500X-0.160000X0*%
%ADD16RoundRect,0.160000X-0.160000X0.197500X-0.160000X-0.197500X0.160000X-0.197500X0.160000X0.197500X0*%
%ADD17RoundRect,0.160000X0.160000X-0.197500X0.160000X0.197500X-0.160000X0.197500X-0.160000X-0.197500X0*%
%ADD18R,0.457200X1.016000*%
%ADD19RoundRect,0.250000X0.475000X-0.337500X0.475000X0.337500X-0.475000X0.337500X-0.475000X-0.337500X0*%
%ADD20RoundRect,0.155000X-0.212500X-0.155000X0.212500X-0.155000X0.212500X0.155000X-0.212500X0.155000X0*%
%ADD21C,1.600000*%
%ADD22RoundRect,0.150000X-0.650000X-0.150000X0.650000X-0.150000X0.650000X0.150000X-0.650000X0.150000X0*%
%ADD23R,2.410000X3.100000*%
%ADD24R,0.965200X0.939800*%
%ADD25RoundRect,0.250000X-0.337500X-0.475000X0.337500X-0.475000X0.337500X0.475000X-0.337500X0.475000X0*%
%ADD26RoundRect,0.150000X0.200000X-0.150000X0.200000X0.150000X-0.200000X0.150000X-0.200000X-0.150000X0*%
%ADD27RoundRect,0.250000X0.337500X0.475000X-0.337500X0.475000X-0.337500X-0.475000X0.337500X-0.475000X0*%
%ADD28R,0.965200X2.209800*%
%ADD29RoundRect,0.237500X0.300000X0.237500X-0.300000X0.237500X-0.300000X-0.237500X0.300000X-0.237500X0*%
%ADD30R,0.711200X0.444500*%
%ADD31RoundRect,0.150000X0.150000X0.200000X-0.150000X0.200000X-0.150000X-0.200000X0.150000X-0.200000X0*%
%ADD32RoundRect,0.160000X-0.197500X-0.160000X0.197500X-0.160000X0.197500X0.160000X-0.197500X0.160000X0*%
%ADD33R,1.016000X0.457200*%
%ADD34FreePoly0,0.000000*%
%ADD35RoundRect,0.062500X-0.375000X-0.062500X0.375000X-0.062500X0.375000X0.062500X-0.375000X0.062500X0*%
%ADD36FreePoly1,0.000000*%
%ADD37FreePoly2,0.000000*%
%ADD38RoundRect,0.062500X-0.062500X-0.375000X0.062500X-0.375000X0.062500X0.375000X-0.062500X0.375000X0*%
%ADD39FreePoly3,0.000000*%
%ADD40FreePoly4,0.000000*%
%ADD41FreePoly5,0.000000*%
%ADD42FreePoly6,0.000000*%
%ADD43FreePoly7,0.000000*%
%ADD44RoundRect,0.150000X-0.512500X-0.150000X0.512500X-0.150000X0.512500X0.150000X-0.512500X0.150000X0*%
%ADD45RoundRect,0.250000X-0.475000X0.250000X-0.475000X-0.250000X0.475000X-0.250000X0.475000X0.250000X0*%
%ADD46RoundRect,0.237500X0.250000X0.237500X-0.250000X0.237500X-0.250000X-0.237500X0.250000X-0.237500X0*%
%ADD47RoundRect,0.237500X-0.300000X-0.237500X0.300000X-0.237500X0.300000X0.237500X-0.300000X0.237500X0*%
%ADD48RoundRect,0.150000X0.587500X0.150000X-0.587500X0.150000X-0.587500X-0.150000X0.587500X-0.150000X0*%
%ADD49RoundRect,0.237500X0.237500X-0.300000X0.237500X0.300000X-0.237500X0.300000X-0.237500X-0.300000X0*%
G04 APERTURE END LIST*
D10*
X91008200Y-119888000D02*
X91871800Y-119888000D01*
X82981800Y-106603800D02*
X84074000Y-106603800D01*
X134791607Y-120723019D02*
X134458274Y-120246828D01*
X134220179Y-120723019D02*
X134220179Y-119723019D01*
X134220179Y-119723019D02*
X134601131Y-119723019D01*
X134601131Y-119723019D02*
X134696369Y-119770638D01*
X134696369Y-119770638D02*
X134743988Y-119818257D01*
X134743988Y-119818257D02*
X134791607Y-119913495D01*
X134791607Y-119913495D02*
X134791607Y-120056352D01*
X134791607Y-120056352D02*
X134743988Y-120151590D01*
X134743988Y-120151590D02*
X134696369Y-120199209D01*
X134696369Y-120199209D02*
X134601131Y-120246828D01*
X134601131Y-120246828D02*
X134220179Y-120246828D01*
X135124941Y-119723019D02*
X135791607Y-120723019D01*
X135791607Y-119723019D02*
X135124941Y-120723019D01*
X90328979Y-121993019D02*
X90328979Y-120993019D01*
X90328979Y-121469209D02*
X90900407Y-121469209D01*
X90900407Y-121993019D02*
X90900407Y-120993019D01*
X91328979Y-121707304D02*
X91805169Y-121707304D01*
X91233741Y-121993019D02*
X91567074Y-120993019D01*
X91567074Y-120993019D02*
X91900407Y-121993019D01*
X92567074Y-121469209D02*
X92709931Y-121516828D01*
X92709931Y-121516828D02*
X92757550Y-121564447D01*
X92757550Y-121564447D02*
X92805169Y-121659685D01*
X92805169Y-121659685D02*
X92805169Y-121802542D01*
X92805169Y-121802542D02*
X92757550Y-121897780D01*
X92757550Y-121897780D02*
X92709931Y-121945400D01*
X92709931Y-121945400D02*
X92614693Y-121993019D01*
X92614693Y-121993019D02*
X92233741Y-121993019D01*
X92233741Y-121993019D02*
X92233741Y-120993019D01*
X92233741Y-120993019D02*
X92567074Y-120993019D01*
X92567074Y-120993019D02*
X92662312Y-121040638D01*
X92662312Y-121040638D02*
X92709931Y-121088257D01*
X92709931Y-121088257D02*
X92757550Y-121183495D01*
X92757550Y-121183495D02*
X92757550Y-121278733D01*
X92757550Y-121278733D02*
X92709931Y-121373971D01*
X92709931Y-121373971D02*
X92662312Y-121421590D01*
X92662312Y-121421590D02*
X92567074Y-121469209D01*
X92567074Y-121469209D02*
X92233741Y-121469209D01*
X84731388Y-122285238D02*
X84636150Y-122237619D01*
X84636150Y-122237619D02*
X84493293Y-122237619D01*
X84493293Y-122237619D02*
X84350436Y-122285238D01*
X84350436Y-122285238D02*
X84255198Y-122380476D01*
X84255198Y-122380476D02*
X84207579Y-122475714D01*
X84207579Y-122475714D02*
X84159960Y-122666190D01*
X84159960Y-122666190D02*
X84159960Y-122809047D01*
X84159960Y-122809047D02*
X84207579Y-122999523D01*
X84207579Y-122999523D02*
X84255198Y-123094761D01*
X84255198Y-123094761D02*
X84350436Y-123190000D01*
X84350436Y-123190000D02*
X84493293Y-123237619D01*
X84493293Y-123237619D02*
X84588531Y-123237619D01*
X84588531Y-123237619D02*
X84731388Y-123190000D01*
X84731388Y-123190000D02*
X84779007Y-123142380D01*
X84779007Y-123142380D02*
X84779007Y-122809047D01*
X84779007Y-122809047D02*
X84588531Y-122809047D01*
X85207579Y-123237619D02*
X85207579Y-122237619D01*
X85207579Y-122237619D02*
X85779007Y-123237619D01*
X85779007Y-123237619D02*
X85779007Y-122237619D01*
X86255198Y-123237619D02*
X86255198Y-122237619D01*
X86255198Y-122237619D02*
X86493293Y-122237619D01*
X86493293Y-122237619D02*
X86636150Y-122285238D01*
X86636150Y-122285238D02*
X86731388Y-122380476D01*
X86731388Y-122380476D02*
X86779007Y-122475714D01*
X86779007Y-122475714D02*
X86826626Y-122666190D01*
X86826626Y-122666190D02*
X86826626Y-122809047D01*
X86826626Y-122809047D02*
X86779007Y-122999523D01*
X86779007Y-122999523D02*
X86731388Y-123094761D01*
X86731388Y-123094761D02*
X86636150Y-123190000D01*
X86636150Y-123190000D02*
X86493293Y-123237619D01*
X86493293Y-123237619D02*
X86255198Y-123237619D01*
X81959607Y-105362380D02*
X81911988Y-105410000D01*
X81911988Y-105410000D02*
X81769131Y-105457619D01*
X81769131Y-105457619D02*
X81673893Y-105457619D01*
X81673893Y-105457619D02*
X81531036Y-105410000D01*
X81531036Y-105410000D02*
X81435798Y-105314761D01*
X81435798Y-105314761D02*
X81388179Y-105219523D01*
X81388179Y-105219523D02*
X81340560Y-105029047D01*
X81340560Y-105029047D02*
X81340560Y-104886190D01*
X81340560Y-104886190D02*
X81388179Y-104695714D01*
X81388179Y-104695714D02*
X81435798Y-104600476D01*
X81435798Y-104600476D02*
X81531036Y-104505238D01*
X81531036Y-104505238D02*
X81673893Y-104457619D01*
X81673893Y-104457619D02*
X81769131Y-104457619D01*
X81769131Y-104457619D02*
X81911988Y-104505238D01*
X81911988Y-104505238D02*
X81959607Y-104552857D01*
X82245322Y-104457619D02*
X82816750Y-104457619D01*
X82531036Y-105457619D02*
X82531036Y-104457619D01*
X83150084Y-105457619D02*
X83150084Y-104457619D01*
X83150084Y-104457619D02*
X83531036Y-104457619D01*
X83531036Y-104457619D02*
X83626274Y-104505238D01*
X83626274Y-104505238D02*
X83673893Y-104552857D01*
X83673893Y-104552857D02*
X83721512Y-104648095D01*
X83721512Y-104648095D02*
X83721512Y-104790952D01*
X83721512Y-104790952D02*
X83673893Y-104886190D01*
X83673893Y-104886190D02*
X83626274Y-104933809D01*
X83626274Y-104933809D02*
X83531036Y-104981428D01*
X83531036Y-104981428D02*
X83150084Y-104981428D01*
X84340560Y-104457619D02*
X84531036Y-104457619D01*
X84531036Y-104457619D02*
X84626274Y-104505238D01*
X84626274Y-104505238D02*
X84721512Y-104600476D01*
X84721512Y-104600476D02*
X84769131Y-104790952D01*
X84769131Y-104790952D02*
X84769131Y-105124285D01*
X84769131Y-105124285D02*
X84721512Y-105314761D01*
X84721512Y-105314761D02*
X84626274Y-105410000D01*
X84626274Y-105410000D02*
X84531036Y-105457619D01*
X84531036Y-105457619D02*
X84340560Y-105457619D01*
X84340560Y-105457619D02*
X84245322Y-105410000D01*
X84245322Y-105410000D02*
X84150084Y-105314761D01*
X84150084Y-105314761D02*
X84102465Y-105124285D01*
X84102465Y-105124285D02*
X84102465Y-104790952D01*
X84102465Y-104790952D02*
X84150084Y-104600476D01*
X84150084Y-104600476D02*
X84245322Y-104505238D01*
X84245322Y-104505238D02*
X84340560Y-104457619D01*
X85673893Y-104457619D02*
X85197703Y-104457619D01*
X85197703Y-104457619D02*
X85197703Y-105457619D01*
X85197703Y-105457619D02*
X85483417Y-105457619D01*
X85483417Y-105457619D02*
X85626274Y-105410000D01*
X85626274Y-105410000D02*
X85721512Y-105314761D01*
X85721512Y-105314761D02*
X85769131Y-105219523D01*
X85769131Y-105219523D02*
X85769131Y-105076666D01*
X85769131Y-105076666D02*
X85721512Y-104981428D01*
X85721512Y-104981428D02*
X85626274Y-104886190D01*
X85626274Y-104886190D02*
X85483417Y-104838571D01*
X85483417Y-104838571D02*
X85197703Y-104838571D01*
X156968988Y-119059438D02*
X156873750Y-119011819D01*
X156873750Y-119011819D02*
X156730893Y-119011819D01*
X156730893Y-119011819D02*
X156588036Y-119059438D01*
X156588036Y-119059438D02*
X156492798Y-119154676D01*
X156492798Y-119154676D02*
X156445179Y-119249914D01*
X156445179Y-119249914D02*
X156397560Y-119440390D01*
X156397560Y-119440390D02*
X156397560Y-119583247D01*
X156397560Y-119583247D02*
X156445179Y-119773723D01*
X156445179Y-119773723D02*
X156492798Y-119868961D01*
X156492798Y-119868961D02*
X156588036Y-119964200D01*
X156588036Y-119964200D02*
X156730893Y-120011819D01*
X156730893Y-120011819D02*
X156826131Y-120011819D01*
X156826131Y-120011819D02*
X156968988Y-119964200D01*
X156968988Y-119964200D02*
X157016607Y-119916580D01*
X157016607Y-119916580D02*
X157016607Y-119583247D01*
X157016607Y-119583247D02*
X156826131Y-119583247D01*
X157445179Y-120011819D02*
X157445179Y-119011819D01*
X157445179Y-119011819D02*
X158016607Y-120011819D01*
X158016607Y-120011819D02*
X158016607Y-119011819D01*
X158492798Y-120011819D02*
X158492798Y-119011819D01*
X158492798Y-119011819D02*
X158730893Y-119011819D01*
X158730893Y-119011819D02*
X158873750Y-119059438D01*
X158873750Y-119059438D02*
X158968988Y-119154676D01*
X158968988Y-119154676D02*
X159016607Y-119249914D01*
X159016607Y-119249914D02*
X159064226Y-119440390D01*
X159064226Y-119440390D02*
X159064226Y-119583247D01*
X159064226Y-119583247D02*
X159016607Y-119773723D01*
X159016607Y-119773723D02*
X158968988Y-119868961D01*
X158968988Y-119868961D02*
X158873750Y-119964200D01*
X158873750Y-119964200D02*
X158730893Y-120011819D01*
X158730893Y-120011819D02*
X158492798Y-120011819D01*
X128413122Y-119723019D02*
X128984550Y-119723019D01*
X128698836Y-120723019D02*
X128698836Y-119723019D01*
X129222646Y-119723019D02*
X129889312Y-120723019D01*
X129889312Y-119723019D02*
X129222646Y-120723019D01*
X156324541Y-111315619D02*
X156943588Y-111315619D01*
X156943588Y-111315619D02*
X156610255Y-111696571D01*
X156610255Y-111696571D02*
X156753112Y-111696571D01*
X156753112Y-111696571D02*
X156848350Y-111744190D01*
X156848350Y-111744190D02*
X156895969Y-111791809D01*
X156895969Y-111791809D02*
X156943588Y-111887047D01*
X156943588Y-111887047D02*
X156943588Y-112125142D01*
X156943588Y-112125142D02*
X156895969Y-112220380D01*
X156895969Y-112220380D02*
X156848350Y-112268000D01*
X156848350Y-112268000D02*
X156753112Y-112315619D01*
X156753112Y-112315619D02*
X156467398Y-112315619D01*
X156467398Y-112315619D02*
X156372160Y-112268000D01*
X156372160Y-112268000D02*
X156324541Y-112220380D01*
X157372160Y-112220380D02*
X157419779Y-112268000D01*
X157419779Y-112268000D02*
X157372160Y-112315619D01*
X157372160Y-112315619D02*
X157324541Y-112268000D01*
X157324541Y-112268000D02*
X157372160Y-112220380D01*
X157372160Y-112220380D02*
X157372160Y-112315619D01*
X157753112Y-111315619D02*
X158372159Y-111315619D01*
X158372159Y-111315619D02*
X158038826Y-111696571D01*
X158038826Y-111696571D02*
X158181683Y-111696571D01*
X158181683Y-111696571D02*
X158276921Y-111744190D01*
X158276921Y-111744190D02*
X158324540Y-111791809D01*
X158324540Y-111791809D02*
X158372159Y-111887047D01*
X158372159Y-111887047D02*
X158372159Y-112125142D01*
X158372159Y-112125142D02*
X158324540Y-112220380D01*
X158324540Y-112220380D02*
X158276921Y-112268000D01*
X158276921Y-112268000D02*
X158181683Y-112315619D01*
X158181683Y-112315619D02*
X157895969Y-112315619D01*
X157895969Y-112315619D02*
X157800731Y-112268000D01*
X157800731Y-112268000D02*
X157753112Y-112220380D01*
X159134064Y-111791809D02*
X159276921Y-111839428D01*
X159276921Y-111839428D02*
X159324540Y-111887047D01*
X159324540Y-111887047D02*
X159372159Y-111982285D01*
X159372159Y-111982285D02*
X159372159Y-112125142D01*
X159372159Y-112125142D02*
X159324540Y-112220380D01*
X159324540Y-112220380D02*
X159276921Y-112268000D01*
X159276921Y-112268000D02*
X159181683Y-112315619D01*
X159181683Y-112315619D02*
X158800731Y-112315619D01*
X158800731Y-112315619D02*
X158800731Y-111315619D01*
X158800731Y-111315619D02*
X159134064Y-111315619D01*
X159134064Y-111315619D02*
X159229302Y-111363238D01*
X159229302Y-111363238D02*
X159276921Y-111410857D01*
X159276921Y-111410857D02*
X159324540Y-111506095D01*
X159324540Y-111506095D02*
X159324540Y-111601333D01*
X159324540Y-111601333D02*
X159276921Y-111696571D01*
X159276921Y-111696571D02*
X159229302Y-111744190D01*
X159229302Y-111744190D02*
X159134064Y-111791809D01*
X159134064Y-111791809D02*
X158800731Y-111791809D01*
X152539941Y-107861219D02*
X153158988Y-107861219D01*
X153158988Y-107861219D02*
X152825655Y-108242171D01*
X152825655Y-108242171D02*
X152968512Y-108242171D01*
X152968512Y-108242171D02*
X153063750Y-108289790D01*
X153063750Y-108289790D02*
X153111369Y-108337409D01*
X153111369Y-108337409D02*
X153158988Y-108432647D01*
X153158988Y-108432647D02*
X153158988Y-108670742D01*
X153158988Y-108670742D02*
X153111369Y-108765980D01*
X153111369Y-108765980D02*
X153063750Y-108813600D01*
X153063750Y-108813600D02*
X152968512Y-108861219D01*
X152968512Y-108861219D02*
X152682798Y-108861219D01*
X152682798Y-108861219D02*
X152587560Y-108813600D01*
X152587560Y-108813600D02*
X152539941Y-108765980D01*
X153587560Y-108765980D02*
X153635179Y-108813600D01*
X153635179Y-108813600D02*
X153587560Y-108861219D01*
X153587560Y-108861219D02*
X153539941Y-108813600D01*
X153539941Y-108813600D02*
X153587560Y-108765980D01*
X153587560Y-108765980D02*
X153587560Y-108861219D01*
X153968512Y-107861219D02*
X154587559Y-107861219D01*
X154587559Y-107861219D02*
X154254226Y-108242171D01*
X154254226Y-108242171D02*
X154397083Y-108242171D01*
X154397083Y-108242171D02*
X154492321Y-108289790D01*
X154492321Y-108289790D02*
X154539940Y-108337409D01*
X154539940Y-108337409D02*
X154587559Y-108432647D01*
X154587559Y-108432647D02*
X154587559Y-108670742D01*
X154587559Y-108670742D02*
X154539940Y-108765980D01*
X154539940Y-108765980D02*
X154492321Y-108813600D01*
X154492321Y-108813600D02*
X154397083Y-108861219D01*
X154397083Y-108861219D02*
X154111369Y-108861219D01*
X154111369Y-108861219D02*
X154016131Y-108813600D01*
X154016131Y-108813600D02*
X153968512Y-108765980D01*
X155349464Y-108337409D02*
X155492321Y-108385028D01*
X155492321Y-108385028D02*
X155539940Y-108432647D01*
X155539940Y-108432647D02*
X155587559Y-108527885D01*
X155587559Y-108527885D02*
X155587559Y-108670742D01*
X155587559Y-108670742D02*
X155539940Y-108765980D01*
X155539940Y-108765980D02*
X155492321Y-108813600D01*
X155492321Y-108813600D02*
X155397083Y-108861219D01*
X155397083Y-108861219D02*
X155016131Y-108861219D01*
X155016131Y-108861219D02*
X155016131Y-107861219D01*
X155016131Y-107861219D02*
X155349464Y-107861219D01*
X155349464Y-107861219D02*
X155444702Y-107908838D01*
X155444702Y-107908838D02*
X155492321Y-107956457D01*
X155492321Y-107956457D02*
X155539940Y-108051695D01*
X155539940Y-108051695D02*
X155539940Y-108146933D01*
X155539940Y-108146933D02*
X155492321Y-108242171D01*
X155492321Y-108242171D02*
X155444702Y-108289790D01*
X155444702Y-108289790D02*
X155349464Y-108337409D01*
X155349464Y-108337409D02*
X155016131Y-108337409D01*
X150364988Y-112303038D02*
X150269750Y-112255419D01*
X150269750Y-112255419D02*
X150126893Y-112255419D01*
X150126893Y-112255419D02*
X149984036Y-112303038D01*
X149984036Y-112303038D02*
X149888798Y-112398276D01*
X149888798Y-112398276D02*
X149841179Y-112493514D01*
X149841179Y-112493514D02*
X149793560Y-112683990D01*
X149793560Y-112683990D02*
X149793560Y-112826847D01*
X149793560Y-112826847D02*
X149841179Y-113017323D01*
X149841179Y-113017323D02*
X149888798Y-113112561D01*
X149888798Y-113112561D02*
X149984036Y-113207800D01*
X149984036Y-113207800D02*
X150126893Y-113255419D01*
X150126893Y-113255419D02*
X150222131Y-113255419D01*
X150222131Y-113255419D02*
X150364988Y-113207800D01*
X150364988Y-113207800D02*
X150412607Y-113160180D01*
X150412607Y-113160180D02*
X150412607Y-112826847D01*
X150412607Y-112826847D02*
X150222131Y-112826847D01*
X150841179Y-113255419D02*
X150841179Y-112255419D01*
X150841179Y-112255419D02*
X151412607Y-113255419D01*
X151412607Y-113255419D02*
X151412607Y-112255419D01*
X151888798Y-113255419D02*
X151888798Y-112255419D01*
X151888798Y-112255419D02*
X152126893Y-112255419D01*
X152126893Y-112255419D02*
X152269750Y-112303038D01*
X152269750Y-112303038D02*
X152364988Y-112398276D01*
X152364988Y-112398276D02*
X152412607Y-112493514D01*
X152412607Y-112493514D02*
X152460226Y-112683990D01*
X152460226Y-112683990D02*
X152460226Y-112826847D01*
X152460226Y-112826847D02*
X152412607Y-113017323D01*
X152412607Y-113017323D02*
X152364988Y-113112561D01*
X152364988Y-113112561D02*
X152269750Y-113207800D01*
X152269750Y-113207800D02*
X152126893Y-113255419D01*
X152126893Y-113255419D02*
X151888798Y-113255419D01*
X120434341Y-122618619D02*
X121053388Y-122618619D01*
X121053388Y-122618619D02*
X120720055Y-122999571D01*
X120720055Y-122999571D02*
X120862912Y-122999571D01*
X120862912Y-122999571D02*
X120958150Y-123047190D01*
X120958150Y-123047190D02*
X121005769Y-123094809D01*
X121005769Y-123094809D02*
X121053388Y-123190047D01*
X121053388Y-123190047D02*
X121053388Y-123428142D01*
X121053388Y-123428142D02*
X121005769Y-123523380D01*
X121005769Y-123523380D02*
X120958150Y-123571000D01*
X120958150Y-123571000D02*
X120862912Y-123618619D01*
X120862912Y-123618619D02*
X120577198Y-123618619D01*
X120577198Y-123618619D02*
X120481960Y-123571000D01*
X120481960Y-123571000D02*
X120434341Y-123523380D01*
X121481960Y-123523380D02*
X121529579Y-123571000D01*
X121529579Y-123571000D02*
X121481960Y-123618619D01*
X121481960Y-123618619D02*
X121434341Y-123571000D01*
X121434341Y-123571000D02*
X121481960Y-123523380D01*
X121481960Y-123523380D02*
X121481960Y-123618619D01*
X121862912Y-122618619D02*
X122481959Y-122618619D01*
X122481959Y-122618619D02*
X122148626Y-122999571D01*
X122148626Y-122999571D02*
X122291483Y-122999571D01*
X122291483Y-122999571D02*
X122386721Y-123047190D01*
X122386721Y-123047190D02*
X122434340Y-123094809D01*
X122434340Y-123094809D02*
X122481959Y-123190047D01*
X122481959Y-123190047D02*
X122481959Y-123428142D01*
X122481959Y-123428142D02*
X122434340Y-123523380D01*
X122434340Y-123523380D02*
X122386721Y-123571000D01*
X122386721Y-123571000D02*
X122291483Y-123618619D01*
X122291483Y-123618619D02*
X122005769Y-123618619D01*
X122005769Y-123618619D02*
X121910531Y-123571000D01*
X121910531Y-123571000D02*
X121862912Y-123523380D01*
X123243864Y-123094809D02*
X123386721Y-123142428D01*
X123386721Y-123142428D02*
X123434340Y-123190047D01*
X123434340Y-123190047D02*
X123481959Y-123285285D01*
X123481959Y-123285285D02*
X123481959Y-123428142D01*
X123481959Y-123428142D02*
X123434340Y-123523380D01*
X123434340Y-123523380D02*
X123386721Y-123571000D01*
X123386721Y-123571000D02*
X123291483Y-123618619D01*
X123291483Y-123618619D02*
X122910531Y-123618619D01*
X122910531Y-123618619D02*
X122910531Y-122618619D01*
X122910531Y-122618619D02*
X123243864Y-122618619D01*
X123243864Y-122618619D02*
X123339102Y-122666238D01*
X123339102Y-122666238D02*
X123386721Y-122713857D01*
X123386721Y-122713857D02*
X123434340Y-122809095D01*
X123434340Y-122809095D02*
X123434340Y-122904333D01*
X123434340Y-122904333D02*
X123386721Y-122999571D01*
X123386721Y-122999571D02*
X123339102Y-123047190D01*
X123339102Y-123047190D02*
X123243864Y-123094809D01*
X123243864Y-123094809D02*
X122910531Y-123094809D01*
X156597579Y-117370219D02*
X156597579Y-116370219D01*
X157264245Y-116370219D02*
X157454721Y-116370219D01*
X157454721Y-116370219D02*
X157549959Y-116417838D01*
X157549959Y-116417838D02*
X157645197Y-116513076D01*
X157645197Y-116513076D02*
X157692816Y-116703552D01*
X157692816Y-116703552D02*
X157692816Y-117036885D01*
X157692816Y-117036885D02*
X157645197Y-117227361D01*
X157645197Y-117227361D02*
X157549959Y-117322600D01*
X157549959Y-117322600D02*
X157454721Y-117370219D01*
X157454721Y-117370219D02*
X157264245Y-117370219D01*
X157264245Y-117370219D02*
X157169007Y-117322600D01*
X157169007Y-117322600D02*
X157073769Y-117227361D01*
X157073769Y-117227361D02*
X157026150Y-117036885D01*
X157026150Y-117036885D02*
X157026150Y-116703552D01*
X157026150Y-116703552D02*
X157073769Y-116513076D01*
X157073769Y-116513076D02*
X157169007Y-116417838D01*
X157169007Y-116417838D02*
X157264245Y-116370219D01*
X116313179Y-122501019D02*
X116313179Y-121501019D01*
X116313179Y-121977209D02*
X116884607Y-121977209D01*
X116884607Y-122501019D02*
X116884607Y-121501019D01*
X117313179Y-122215304D02*
X117789369Y-122215304D01*
X117217941Y-122501019D02*
X117551274Y-121501019D01*
X117551274Y-121501019D02*
X117884607Y-122501019D01*
X118551274Y-121977209D02*
X118694131Y-122024828D01*
X118694131Y-122024828D02*
X118741750Y-122072447D01*
X118741750Y-122072447D02*
X118789369Y-122167685D01*
X118789369Y-122167685D02*
X118789369Y-122310542D01*
X118789369Y-122310542D02*
X118741750Y-122405780D01*
X118741750Y-122405780D02*
X118694131Y-122453400D01*
X118694131Y-122453400D02*
X118598893Y-122501019D01*
X118598893Y-122501019D02*
X118217941Y-122501019D01*
X118217941Y-122501019D02*
X118217941Y-121501019D01*
X118217941Y-121501019D02*
X118551274Y-121501019D01*
X118551274Y-121501019D02*
X118646512Y-121548638D01*
X118646512Y-121548638D02*
X118694131Y-121596257D01*
X118694131Y-121596257D02*
X118741750Y-121691495D01*
X118741750Y-121691495D02*
X118741750Y-121786733D01*
X118741750Y-121786733D02*
X118694131Y-121881971D01*
X118694131Y-121881971D02*
X118646512Y-121929590D01*
X118646512Y-121929590D02*
X118551274Y-121977209D01*
X118551274Y-121977209D02*
X118217941Y-121977209D01*
X104263988Y-121447038D02*
X104168750Y-121399419D01*
X104168750Y-121399419D02*
X104025893Y-121399419D01*
X104025893Y-121399419D02*
X103883036Y-121447038D01*
X103883036Y-121447038D02*
X103787798Y-121542276D01*
X103787798Y-121542276D02*
X103740179Y-121637514D01*
X103740179Y-121637514D02*
X103692560Y-121827990D01*
X103692560Y-121827990D02*
X103692560Y-121970847D01*
X103692560Y-121970847D02*
X103740179Y-122161323D01*
X103740179Y-122161323D02*
X103787798Y-122256561D01*
X103787798Y-122256561D02*
X103883036Y-122351800D01*
X103883036Y-122351800D02*
X104025893Y-122399419D01*
X104025893Y-122399419D02*
X104121131Y-122399419D01*
X104121131Y-122399419D02*
X104263988Y-122351800D01*
X104263988Y-122351800D02*
X104311607Y-122304180D01*
X104311607Y-122304180D02*
X104311607Y-121970847D01*
X104311607Y-121970847D02*
X104121131Y-121970847D01*
X104740179Y-122399419D02*
X104740179Y-121399419D01*
X104740179Y-121399419D02*
X105311607Y-122399419D01*
X105311607Y-122399419D02*
X105311607Y-121399419D01*
X105787798Y-122399419D02*
X105787798Y-121399419D01*
X105787798Y-121399419D02*
X106025893Y-121399419D01*
X106025893Y-121399419D02*
X106168750Y-121447038D01*
X106168750Y-121447038D02*
X106263988Y-121542276D01*
X106263988Y-121542276D02*
X106311607Y-121637514D01*
X106311607Y-121637514D02*
X106359226Y-121827990D01*
X106359226Y-121827990D02*
X106359226Y-121970847D01*
X106359226Y-121970847D02*
X106311607Y-122161323D01*
X106311607Y-122161323D02*
X106263988Y-122256561D01*
X106263988Y-122256561D02*
X106168750Y-122351800D01*
X106168750Y-122351800D02*
X106025893Y-122399419D01*
X106025893Y-122399419D02*
X105787798Y-122399419D01*
X80422979Y-123237619D02*
X80422979Y-122237619D01*
X80422979Y-122713809D02*
X80994407Y-122713809D01*
X80994407Y-123237619D02*
X80994407Y-122237619D01*
X81422979Y-122951904D02*
X81899169Y-122951904D01*
X81327741Y-123237619D02*
X81661074Y-122237619D01*
X81661074Y-122237619D02*
X81994407Y-123237619D01*
X82661074Y-122713809D02*
X82803931Y-122761428D01*
X82803931Y-122761428D02*
X82851550Y-122809047D01*
X82851550Y-122809047D02*
X82899169Y-122904285D01*
X82899169Y-122904285D02*
X82899169Y-123047142D01*
X82899169Y-123047142D02*
X82851550Y-123142380D01*
X82851550Y-123142380D02*
X82803931Y-123190000D01*
X82803931Y-123190000D02*
X82708693Y-123237619D01*
X82708693Y-123237619D02*
X82327741Y-123237619D01*
X82327741Y-123237619D02*
X82327741Y-122237619D01*
X82327741Y-122237619D02*
X82661074Y-122237619D01*
X82661074Y-122237619D02*
X82756312Y-122285238D01*
X82756312Y-122285238D02*
X82803931Y-122332857D01*
X82803931Y-122332857D02*
X82851550Y-122428095D01*
X82851550Y-122428095D02*
X82851550Y-122523333D01*
X82851550Y-122523333D02*
X82803931Y-122618571D01*
X82803931Y-122618571D02*
X82756312Y-122666190D01*
X82756312Y-122666190D02*
X82661074Y-122713809D01*
X82661074Y-122713809D02*
X82327741Y-122713809D01*
X146755007Y-107159419D02*
X146421674Y-106683228D01*
X146183579Y-107159419D02*
X146183579Y-106159419D01*
X146183579Y-106159419D02*
X146564531Y-106159419D01*
X146564531Y-106159419D02*
X146659769Y-106207038D01*
X146659769Y-106207038D02*
X146707388Y-106254657D01*
X146707388Y-106254657D02*
X146755007Y-106349895D01*
X146755007Y-106349895D02*
X146755007Y-106492752D01*
X146755007Y-106492752D02*
X146707388Y-106587990D01*
X146707388Y-106587990D02*
X146659769Y-106635609D01*
X146659769Y-106635609D02*
X146564531Y-106683228D01*
X146564531Y-106683228D02*
X146183579Y-106683228D01*
X147088341Y-106159419D02*
X147755007Y-107159419D01*
X147755007Y-106159419D02*
X147088341Y-107159419D01*
X146015322Y-112306219D02*
X146586750Y-112306219D01*
X146301036Y-113306219D02*
X146301036Y-112306219D01*
X146824846Y-112306219D02*
X147491512Y-113306219D01*
X147491512Y-112306219D02*
X146824846Y-113306219D01*
X130054579Y-122974219D02*
X130054579Y-123783742D01*
X130054579Y-123783742D02*
X130102198Y-123878980D01*
X130102198Y-123878980D02*
X130149817Y-123926600D01*
X130149817Y-123926600D02*
X130245055Y-123974219D01*
X130245055Y-123974219D02*
X130435531Y-123974219D01*
X130435531Y-123974219D02*
X130530769Y-123926600D01*
X130530769Y-123926600D02*
X130578388Y-123878980D01*
X130578388Y-123878980D02*
X130626007Y-123783742D01*
X130626007Y-123783742D02*
X130626007Y-122974219D01*
X131054579Y-123688504D02*
X131530769Y-123688504D01*
X130959341Y-123974219D02*
X131292674Y-122974219D01*
X131292674Y-122974219D02*
X131626007Y-123974219D01*
X132530769Y-123974219D02*
X132197436Y-123498028D01*
X131959341Y-123974219D02*
X131959341Y-122974219D01*
X131959341Y-122974219D02*
X132340293Y-122974219D01*
X132340293Y-122974219D02*
X132435531Y-123021838D01*
X132435531Y-123021838D02*
X132483150Y-123069457D01*
X132483150Y-123069457D02*
X132530769Y-123164695D01*
X132530769Y-123164695D02*
X132530769Y-123307552D01*
X132530769Y-123307552D02*
X132483150Y-123402790D01*
X132483150Y-123402790D02*
X132435531Y-123450409D01*
X132435531Y-123450409D02*
X132340293Y-123498028D01*
X132340293Y-123498028D02*
X131959341Y-123498028D01*
X132816484Y-122974219D02*
X133387912Y-122974219D01*
X133102198Y-123974219D02*
X133102198Y-122974219D01*
X133673627Y-123069457D02*
X133721246Y-123021838D01*
X133721246Y-123021838D02*
X133816484Y-122974219D01*
X133816484Y-122974219D02*
X134054579Y-122974219D01*
X134054579Y-122974219D02*
X134149817Y-123021838D01*
X134149817Y-123021838D02*
X134197436Y-123069457D01*
X134197436Y-123069457D02*
X134245055Y-123164695D01*
X134245055Y-123164695D02*
X134245055Y-123259933D01*
X134245055Y-123259933D02*
X134197436Y-123402790D01*
X134197436Y-123402790D02*
X133626008Y-123974219D01*
X133626008Y-123974219D02*
X134245055Y-123974219D01*
X137690388Y-123021838D02*
X137595150Y-122974219D01*
X137595150Y-122974219D02*
X137452293Y-122974219D01*
X137452293Y-122974219D02*
X137309436Y-123021838D01*
X137309436Y-123021838D02*
X137214198Y-123117076D01*
X137214198Y-123117076D02*
X137166579Y-123212314D01*
X137166579Y-123212314D02*
X137118960Y-123402790D01*
X137118960Y-123402790D02*
X137118960Y-123545647D01*
X137118960Y-123545647D02*
X137166579Y-123736123D01*
X137166579Y-123736123D02*
X137214198Y-123831361D01*
X137214198Y-123831361D02*
X137309436Y-123926600D01*
X137309436Y-123926600D02*
X137452293Y-123974219D01*
X137452293Y-123974219D02*
X137547531Y-123974219D01*
X137547531Y-123974219D02*
X137690388Y-123926600D01*
X137690388Y-123926600D02*
X137738007Y-123878980D01*
X137738007Y-123878980D02*
X137738007Y-123545647D01*
X137738007Y-123545647D02*
X137547531Y-123545647D01*
X138166579Y-123974219D02*
X138166579Y-122974219D01*
X138166579Y-122974219D02*
X138738007Y-123974219D01*
X138738007Y-123974219D02*
X138738007Y-122974219D01*
X139214198Y-123974219D02*
X139214198Y-122974219D01*
X139214198Y-122974219D02*
X139452293Y-122974219D01*
X139452293Y-122974219D02*
X139595150Y-123021838D01*
X139595150Y-123021838D02*
X139690388Y-123117076D01*
X139690388Y-123117076D02*
X139738007Y-123212314D01*
X139738007Y-123212314D02*
X139785626Y-123402790D01*
X139785626Y-123402790D02*
X139785626Y-123545647D01*
X139785626Y-123545647D02*
X139738007Y-123736123D01*
X139738007Y-123736123D02*
X139690388Y-123831361D01*
X139690388Y-123831361D02*
X139595150Y-123926600D01*
X139595150Y-123926600D02*
X139452293Y-123974219D01*
X139452293Y-123974219D02*
X139214198Y-123974219D01*
X148425019Y-111550220D02*
X149234542Y-111550220D01*
X149234542Y-111550220D02*
X149329780Y-111502601D01*
X149329780Y-111502601D02*
X149377400Y-111454982D01*
X149377400Y-111454982D02*
X149425019Y-111359744D01*
X149425019Y-111359744D02*
X149425019Y-111169268D01*
X149425019Y-111169268D02*
X149377400Y-111074030D01*
X149377400Y-111074030D02*
X149329780Y-111026411D01*
X149329780Y-111026411D02*
X149234542Y-110978792D01*
X149234542Y-110978792D02*
X148425019Y-110978792D01*
X149139304Y-110550220D02*
X149139304Y-110074030D01*
X149425019Y-110645458D02*
X148425019Y-110312125D01*
X148425019Y-110312125D02*
X149425019Y-109978792D01*
X149425019Y-109074030D02*
X148948828Y-109407363D01*
X149425019Y-109645458D02*
X148425019Y-109645458D01*
X148425019Y-109645458D02*
X148425019Y-109264506D01*
X148425019Y-109264506D02*
X148472638Y-109169268D01*
X148472638Y-109169268D02*
X148520257Y-109121649D01*
X148520257Y-109121649D02*
X148615495Y-109074030D01*
X148615495Y-109074030D02*
X148758352Y-109074030D01*
X148758352Y-109074030D02*
X148853590Y-109121649D01*
X148853590Y-109121649D02*
X148901209Y-109169268D01*
X148901209Y-109169268D02*
X148948828Y-109264506D01*
X148948828Y-109264506D02*
X148948828Y-109645458D01*
X148425019Y-108788315D02*
X148425019Y-108216887D01*
X149425019Y-108502601D02*
X148425019Y-108502601D01*
X149425019Y-107359744D02*
X149425019Y-107931172D01*
X149425019Y-107645458D02*
X148425019Y-107645458D01*
X148425019Y-107645458D02*
X148567876Y-107740696D01*
X148567876Y-107740696D02*
X148663114Y-107835934D01*
X148663114Y-107835934D02*
X148710733Y-107931172D01*
X143681607Y-120043580D02*
X143633988Y-120091200D01*
X143633988Y-120091200D02*
X143491131Y-120138819D01*
X143491131Y-120138819D02*
X143395893Y-120138819D01*
X143395893Y-120138819D02*
X143253036Y-120091200D01*
X143253036Y-120091200D02*
X143157798Y-119995961D01*
X143157798Y-119995961D02*
X143110179Y-119900723D01*
X143110179Y-119900723D02*
X143062560Y-119710247D01*
X143062560Y-119710247D02*
X143062560Y-119567390D01*
X143062560Y-119567390D02*
X143110179Y-119376914D01*
X143110179Y-119376914D02*
X143157798Y-119281676D01*
X143157798Y-119281676D02*
X143253036Y-119186438D01*
X143253036Y-119186438D02*
X143395893Y-119138819D01*
X143395893Y-119138819D02*
X143491131Y-119138819D01*
X143491131Y-119138819D02*
X143633988Y-119186438D01*
X143633988Y-119186438D02*
X143681607Y-119234057D01*
X144110179Y-119472152D02*
X144110179Y-120138819D01*
X144110179Y-120138819D02*
X144586369Y-119472152D01*
X144586369Y-119472152D02*
X144586369Y-120138819D01*
X145062560Y-119805485D02*
X145491131Y-119805485D01*
X145062560Y-119472152D02*
X145062560Y-120138819D01*
X145491131Y-119472152D02*
X145491131Y-120138819D01*
X145872084Y-120138819D02*
X146395893Y-119472152D01*
X145872084Y-119472152D02*
X146395893Y-120138819D01*
X146776846Y-119472152D02*
X146776846Y-120472152D01*
X146776846Y-119519771D02*
X146872084Y-119472152D01*
X146872084Y-119472152D02*
X147062560Y-119472152D01*
X147062560Y-119472152D02*
X147157798Y-119519771D01*
X147157798Y-119519771D02*
X147205417Y-119567390D01*
X147205417Y-119567390D02*
X147253036Y-119662628D01*
X147253036Y-119662628D02*
X147253036Y-119948342D01*
X147253036Y-119948342D02*
X147205417Y-120043580D01*
X147205417Y-120043580D02*
X147157798Y-120091200D01*
X147157798Y-120091200D02*
X147062560Y-120138819D01*
X147062560Y-120138819D02*
X146872084Y-120138819D01*
X146872084Y-120138819D02*
X146776846Y-120091200D01*
X147824465Y-120138819D02*
X147729227Y-120091200D01*
X147729227Y-120091200D02*
X147681608Y-120043580D01*
X147681608Y-120043580D02*
X147633989Y-119948342D01*
X147633989Y-119948342D02*
X147633989Y-119662628D01*
X147633989Y-119662628D02*
X147681608Y-119567390D01*
X147681608Y-119567390D02*
X147729227Y-119519771D01*
X147729227Y-119519771D02*
X147824465Y-119472152D01*
X147824465Y-119472152D02*
X147967322Y-119472152D01*
X147967322Y-119472152D02*
X148062560Y-119519771D01*
X148062560Y-119519771D02*
X148110179Y-119567390D01*
X148110179Y-119567390D02*
X148157798Y-119662628D01*
X148157798Y-119662628D02*
X148157798Y-119948342D01*
X148157798Y-119948342D02*
X148110179Y-120043580D01*
X148110179Y-120043580D02*
X148062560Y-120091200D01*
X148062560Y-120091200D02*
X147967322Y-120138819D01*
X147967322Y-120138819D02*
X147824465Y-120138819D01*
X126333407Y-107191180D02*
X126285788Y-107238800D01*
X126285788Y-107238800D02*
X126142931Y-107286419D01*
X126142931Y-107286419D02*
X126047693Y-107286419D01*
X126047693Y-107286419D02*
X125904836Y-107238800D01*
X125904836Y-107238800D02*
X125809598Y-107143561D01*
X125809598Y-107143561D02*
X125761979Y-107048323D01*
X125761979Y-107048323D02*
X125714360Y-106857847D01*
X125714360Y-106857847D02*
X125714360Y-106714990D01*
X125714360Y-106714990D02*
X125761979Y-106524514D01*
X125761979Y-106524514D02*
X125809598Y-106429276D01*
X125809598Y-106429276D02*
X125904836Y-106334038D01*
X125904836Y-106334038D02*
X126047693Y-106286419D01*
X126047693Y-106286419D02*
X126142931Y-106286419D01*
X126142931Y-106286419D02*
X126285788Y-106334038D01*
X126285788Y-106334038D02*
X126333407Y-106381657D01*
X126619122Y-106286419D02*
X127190550Y-106286419D01*
X126904836Y-107286419D02*
X126904836Y-106286419D01*
X127523884Y-107286419D02*
X127523884Y-106286419D01*
X127523884Y-106286419D02*
X127904836Y-106286419D01*
X127904836Y-106286419D02*
X128000074Y-106334038D01*
X128000074Y-106334038D02*
X128047693Y-106381657D01*
X128047693Y-106381657D02*
X128095312Y-106476895D01*
X128095312Y-106476895D02*
X128095312Y-106619752D01*
X128095312Y-106619752D02*
X128047693Y-106714990D01*
X128047693Y-106714990D02*
X128000074Y-106762609D01*
X128000074Y-106762609D02*
X127904836Y-106810228D01*
X127904836Y-106810228D02*
X127523884Y-106810228D01*
X128714360Y-106286419D02*
X128904836Y-106286419D01*
X128904836Y-106286419D02*
X129000074Y-106334038D01*
X129000074Y-106334038D02*
X129095312Y-106429276D01*
X129095312Y-106429276D02*
X129142931Y-106619752D01*
X129142931Y-106619752D02*
X129142931Y-106953085D01*
X129142931Y-106953085D02*
X129095312Y-107143561D01*
X129095312Y-107143561D02*
X129000074Y-107238800D01*
X129000074Y-107238800D02*
X128904836Y-107286419D01*
X128904836Y-107286419D02*
X128714360Y-107286419D01*
X128714360Y-107286419D02*
X128619122Y-107238800D01*
X128619122Y-107238800D02*
X128523884Y-107143561D01*
X128523884Y-107143561D02*
X128476265Y-106953085D01*
X128476265Y-106953085D02*
X128476265Y-106619752D01*
X128476265Y-106619752D02*
X128523884Y-106429276D01*
X128523884Y-106429276D02*
X128619122Y-106334038D01*
X128619122Y-106334038D02*
X128714360Y-106286419D01*
X130047693Y-106286419D02*
X129571503Y-106286419D01*
X129571503Y-106286419D02*
X129571503Y-107286419D01*
X129571503Y-107286419D02*
X129857217Y-107286419D01*
X129857217Y-107286419D02*
X130000074Y-107238800D01*
X130000074Y-107238800D02*
X130095312Y-107143561D01*
X130095312Y-107143561D02*
X130142931Y-107048323D01*
X130142931Y-107048323D02*
X130142931Y-106905466D01*
X130142931Y-106905466D02*
X130095312Y-106810228D01*
X130095312Y-106810228D02*
X130000074Y-106714990D01*
X130000074Y-106714990D02*
X129857217Y-106667371D01*
X129857217Y-106667371D02*
X129571503Y-106667371D01*
X73323607Y-122964580D02*
X73275988Y-123012200D01*
X73275988Y-123012200D02*
X73133131Y-123059819D01*
X73133131Y-123059819D02*
X73037893Y-123059819D01*
X73037893Y-123059819D02*
X72895036Y-123012200D01*
X72895036Y-123012200D02*
X72799798Y-122916961D01*
X72799798Y-122916961D02*
X72752179Y-122821723D01*
X72752179Y-122821723D02*
X72704560Y-122631247D01*
X72704560Y-122631247D02*
X72704560Y-122488390D01*
X72704560Y-122488390D02*
X72752179Y-122297914D01*
X72752179Y-122297914D02*
X72799798Y-122202676D01*
X72799798Y-122202676D02*
X72895036Y-122107438D01*
X72895036Y-122107438D02*
X73037893Y-122059819D01*
X73037893Y-122059819D02*
X73133131Y-122059819D01*
X73133131Y-122059819D02*
X73275988Y-122107438D01*
X73275988Y-122107438D02*
X73323607Y-122155057D01*
X73609322Y-122059819D02*
X74180750Y-122059819D01*
X73895036Y-123059819D02*
X73895036Y-122059819D01*
X74514084Y-123059819D02*
X74514084Y-122059819D01*
X74514084Y-122059819D02*
X74895036Y-122059819D01*
X74895036Y-122059819D02*
X74990274Y-122107438D01*
X74990274Y-122107438D02*
X75037893Y-122155057D01*
X75037893Y-122155057D02*
X75085512Y-122250295D01*
X75085512Y-122250295D02*
X75085512Y-122393152D01*
X75085512Y-122393152D02*
X75037893Y-122488390D01*
X75037893Y-122488390D02*
X74990274Y-122536009D01*
X74990274Y-122536009D02*
X74895036Y-122583628D01*
X74895036Y-122583628D02*
X74514084Y-122583628D01*
X75704560Y-122059819D02*
X75895036Y-122059819D01*
X75895036Y-122059819D02*
X75990274Y-122107438D01*
X75990274Y-122107438D02*
X76085512Y-122202676D01*
X76085512Y-122202676D02*
X76133131Y-122393152D01*
X76133131Y-122393152D02*
X76133131Y-122726485D01*
X76133131Y-122726485D02*
X76085512Y-122916961D01*
X76085512Y-122916961D02*
X75990274Y-123012200D01*
X75990274Y-123012200D02*
X75895036Y-123059819D01*
X75895036Y-123059819D02*
X75704560Y-123059819D01*
X75704560Y-123059819D02*
X75609322Y-123012200D01*
X75609322Y-123012200D02*
X75514084Y-122916961D01*
X75514084Y-122916961D02*
X75466465Y-122726485D01*
X75466465Y-122726485D02*
X75466465Y-122393152D01*
X75466465Y-122393152D02*
X75514084Y-122202676D01*
X75514084Y-122202676D02*
X75609322Y-122107438D01*
X75609322Y-122107438D02*
X75704560Y-122059819D01*
X77037893Y-122059819D02*
X76561703Y-122059819D01*
X76561703Y-122059819D02*
X76561703Y-123059819D01*
X76561703Y-123059819D02*
X76847417Y-123059819D01*
X76847417Y-123059819D02*
X76990274Y-123012200D01*
X76990274Y-123012200D02*
X77085512Y-122916961D01*
X77085512Y-122916961D02*
X77133131Y-122821723D01*
X77133131Y-122821723D02*
X77133131Y-122678866D01*
X77133131Y-122678866D02*
X77085512Y-122583628D01*
X77085512Y-122583628D02*
X76990274Y-122488390D01*
X76990274Y-122488390D02*
X76847417Y-122440771D01*
X76847417Y-122440771D02*
X76561703Y-122440771D01*
X125006341Y-121043819D02*
X125625388Y-121043819D01*
X125625388Y-121043819D02*
X125292055Y-121424771D01*
X125292055Y-121424771D02*
X125434912Y-121424771D01*
X125434912Y-121424771D02*
X125530150Y-121472390D01*
X125530150Y-121472390D02*
X125577769Y-121520009D01*
X125577769Y-121520009D02*
X125625388Y-121615247D01*
X125625388Y-121615247D02*
X125625388Y-121853342D01*
X125625388Y-121853342D02*
X125577769Y-121948580D01*
X125577769Y-121948580D02*
X125530150Y-121996200D01*
X125530150Y-121996200D02*
X125434912Y-122043819D01*
X125434912Y-122043819D02*
X125149198Y-122043819D01*
X125149198Y-122043819D02*
X125053960Y-121996200D01*
X125053960Y-121996200D02*
X125006341Y-121948580D01*
X126053960Y-121948580D02*
X126101579Y-121996200D01*
X126101579Y-121996200D02*
X126053960Y-122043819D01*
X126053960Y-122043819D02*
X126006341Y-121996200D01*
X126006341Y-121996200D02*
X126053960Y-121948580D01*
X126053960Y-121948580D02*
X126053960Y-122043819D01*
X126434912Y-121043819D02*
X127053959Y-121043819D01*
X127053959Y-121043819D02*
X126720626Y-121424771D01*
X126720626Y-121424771D02*
X126863483Y-121424771D01*
X126863483Y-121424771D02*
X126958721Y-121472390D01*
X126958721Y-121472390D02*
X127006340Y-121520009D01*
X127006340Y-121520009D02*
X127053959Y-121615247D01*
X127053959Y-121615247D02*
X127053959Y-121853342D01*
X127053959Y-121853342D02*
X127006340Y-121948580D01*
X127006340Y-121948580D02*
X126958721Y-121996200D01*
X126958721Y-121996200D02*
X126863483Y-122043819D01*
X126863483Y-122043819D02*
X126577769Y-122043819D01*
X126577769Y-122043819D02*
X126482531Y-121996200D01*
X126482531Y-121996200D02*
X126434912Y-121948580D01*
X127815864Y-121520009D02*
X127958721Y-121567628D01*
X127958721Y-121567628D02*
X128006340Y-121615247D01*
X128006340Y-121615247D02*
X128053959Y-121710485D01*
X128053959Y-121710485D02*
X128053959Y-121853342D01*
X128053959Y-121853342D02*
X128006340Y-121948580D01*
X128006340Y-121948580D02*
X127958721Y-121996200D01*
X127958721Y-121996200D02*
X127863483Y-122043819D01*
X127863483Y-122043819D02*
X127482531Y-122043819D01*
X127482531Y-122043819D02*
X127482531Y-121043819D01*
X127482531Y-121043819D02*
X127815864Y-121043819D01*
X127815864Y-121043819D02*
X127911102Y-121091438D01*
X127911102Y-121091438D02*
X127958721Y-121139057D01*
X127958721Y-121139057D02*
X128006340Y-121234295D01*
X128006340Y-121234295D02*
X128006340Y-121329533D01*
X128006340Y-121329533D02*
X127958721Y-121424771D01*
X127958721Y-121424771D02*
X127911102Y-121472390D01*
X127911102Y-121472390D02*
X127815864Y-121520009D01*
X127815864Y-121520009D02*
X127482531Y-121520009D01*
X156965807Y-114811180D02*
X156918188Y-114858800D01*
X156918188Y-114858800D02*
X156775331Y-114906419D01*
X156775331Y-114906419D02*
X156680093Y-114906419D01*
X156680093Y-114906419D02*
X156537236Y-114858800D01*
X156537236Y-114858800D02*
X156441998Y-114763561D01*
X156441998Y-114763561D02*
X156394379Y-114668323D01*
X156394379Y-114668323D02*
X156346760Y-114477847D01*
X156346760Y-114477847D02*
X156346760Y-114334990D01*
X156346760Y-114334990D02*
X156394379Y-114144514D01*
X156394379Y-114144514D02*
X156441998Y-114049276D01*
X156441998Y-114049276D02*
X156537236Y-113954038D01*
X156537236Y-113954038D02*
X156680093Y-113906419D01*
X156680093Y-113906419D02*
X156775331Y-113906419D01*
X156775331Y-113906419D02*
X156918188Y-113954038D01*
X156918188Y-113954038D02*
X156965807Y-114001657D01*
X157870569Y-114906419D02*
X157394379Y-114906419D01*
X157394379Y-114906419D02*
X157394379Y-113906419D01*
X158203903Y-114906419D02*
X158203903Y-113906419D01*
X158775331Y-114906419D02*
X158346760Y-114334990D01*
X158775331Y-113906419D02*
X158203903Y-114477847D01*
D11*
%TO.C,D20*%
X92200000Y-112240000D02*
X90525000Y-112240000D01*
X92200000Y-112240000D02*
X92850000Y-112240000D01*
X92200000Y-115360000D02*
X91550000Y-115360000D01*
X92200000Y-115360000D02*
X92850000Y-115360000D01*
%TO.C,R10*%
X78841021Y-116280000D02*
X78505779Y-116280000D01*
X78841021Y-115520000D02*
X78505779Y-115520000D01*
%TO.C,R12*%
X94624975Y-111534954D02*
X94624975Y-111870196D01*
X93864975Y-111534954D02*
X93864975Y-111870196D01*
%TO.C,R8*%
X117757500Y-116205121D02*
X117757500Y-115869879D01*
X118517500Y-116205121D02*
X118517500Y-115869879D01*
D12*
%TO.C,U7*%
X82281200Y-114873400D02*
X82596160Y-114873400D01*
X87528840Y-114873400D02*
X87843800Y-114873400D01*
X87843800Y-114873400D02*
X87843800Y-108726600D01*
X82281200Y-108726600D02*
X82281200Y-114873400D01*
X82596160Y-108726600D02*
X82281200Y-108726600D01*
X87843800Y-108726600D02*
X87528840Y-108726600D01*
D11*
%TO.C,C15*%
X107415000Y-116161252D02*
X107415000Y-115638748D01*
X108885000Y-116161252D02*
X108885000Y-115638748D01*
%TO.C,C13*%
X137196565Y-120239200D02*
X137428235Y-120239200D01*
X137196565Y-120959200D02*
X137428235Y-120959200D01*
%TO.C,U3*%
X98644975Y-107705075D02*
X95194975Y-107705075D01*
X98644975Y-107705075D02*
X100594975Y-107705075D01*
X98644975Y-112825075D02*
X96694975Y-112825075D01*
X98644975Y-112825075D02*
X100594975Y-112825075D01*
%TO.C,R16*%
X91111721Y-107771200D02*
X90776479Y-107771200D01*
X91111721Y-107011200D02*
X90776479Y-107011200D01*
%TO.C,R22*%
X95030000Y-117732379D02*
X95030000Y-118067621D01*
X94270000Y-117732379D02*
X94270000Y-118067621D01*
D12*
%TO.C,U4*%
X73642100Y-114723400D02*
X73957060Y-114723400D01*
X78889740Y-114723400D02*
X79204700Y-114723400D01*
X79204700Y-114723400D02*
X79204700Y-108576600D01*
X73642100Y-108576600D02*
X73642100Y-114723400D01*
X73957060Y-108576600D02*
X73642100Y-108576600D01*
X79204700Y-108576600D02*
X78889740Y-108576600D01*
D11*
%TO.C,C1*%
X86606748Y-117527400D02*
X87129252Y-117527400D01*
X86606748Y-118997400D02*
X87129252Y-118997400D01*
%TO.C,D6*%
X118737500Y-111690000D02*
X117537500Y-111690000D01*
X118737500Y-113650000D02*
X118737500Y-111690000D01*
X117537500Y-113650000D02*
X117537500Y-111690000D01*
%TO.C,R30*%
X139918421Y-115670600D02*
X139583179Y-115670600D01*
X139918421Y-114910600D02*
X139583179Y-114910600D01*
%TO.C,C3*%
X125148752Y-117435000D02*
X124626248Y-117435000D01*
X125148752Y-115965000D02*
X124626248Y-115965000D01*
D12*
%TO.C,L2*%
X104954825Y-110258175D02*
X104096725Y-110258175D01*
X104096725Y-112721975D02*
X104954825Y-112721975D01*
D11*
%TO.C,C8*%
X104391242Y-109250075D02*
X104098708Y-109250075D01*
X104391242Y-108230075D02*
X104098708Y-108230075D01*
%TO.C,C7*%
X78557565Y-116540000D02*
X78789235Y-116540000D01*
X78557565Y-117260000D02*
X78789235Y-117260000D01*
%TO.C,R19*%
X113220000Y-112167621D02*
X113220000Y-111832379D01*
X113980000Y-112167621D02*
X113980000Y-111832379D01*
%TO.C,R3*%
X134972500Y-109832621D02*
X134972500Y-109497379D01*
X135732500Y-109832621D02*
X135732500Y-109497379D01*
%TO.C,C12*%
X85676665Y-116378400D02*
X85908335Y-116378400D01*
X85676665Y-117098400D02*
X85908335Y-117098400D01*
D12*
%TO.C,LED3*%
X142392400Y-118300500D02*
X143662400Y-118300500D01*
X143027400Y-118300500D02*
X142392400Y-117538500D01*
X143027400Y-118300500D02*
X142519400Y-117538500D01*
X143027400Y-118300500D02*
X142646400Y-117538500D01*
X143027400Y-118300500D02*
X142773400Y-117538500D01*
X143027400Y-118300500D02*
X142900400Y-117538500D01*
X143027400Y-118300500D02*
X143154400Y-117538500D01*
X143027400Y-118300500D02*
X143281400Y-117538500D01*
X143027400Y-118300500D02*
X143408400Y-117538500D01*
X143027400Y-118300500D02*
X143535400Y-117538500D01*
X143027400Y-118300500D02*
X143662400Y-117538500D01*
X142392400Y-117538500D02*
X143662400Y-117538500D01*
X143027400Y-117284500D02*
X143027400Y-118554500D01*
D11*
%TO.C,D14*%
X81552500Y-115700000D02*
X81552500Y-116900000D01*
X83512500Y-115700000D02*
X81552500Y-115700000D01*
X83512500Y-116900000D02*
X81552500Y-116900000D01*
%TO.C,R13*%
X109364975Y-109055196D02*
X109364975Y-108719954D01*
X110124975Y-109055196D02*
X110124975Y-108719954D01*
%TO.C,D5*%
X74950900Y-115550000D02*
X74950900Y-116750000D01*
X76910900Y-115550000D02*
X74950900Y-115550000D01*
X76910900Y-116750000D02*
X74950900Y-116750000D01*
%TO.C,R29*%
X139943821Y-114476800D02*
X139608579Y-114476800D01*
X139943821Y-113716800D02*
X139608579Y-113716800D01*
%TO.C,R20*%
X87907479Y-116383800D02*
X88242721Y-116383800D01*
X87907479Y-117143800D02*
X88242721Y-117143800D01*
D12*
%TO.C,U5*%
X119814100Y-107918700D02*
X119814100Y-108233660D01*
X119814100Y-113166340D02*
X119814100Y-113481300D01*
X119814100Y-113481300D02*
X125960900Y-113481300D01*
X125960900Y-107918700D02*
X119814100Y-107918700D01*
X125960900Y-108233660D02*
X125960900Y-107918700D01*
X125960900Y-113481300D02*
X125960900Y-113166340D01*
D11*
%TO.C,R31*%
X139893021Y-116864400D02*
X139557779Y-116864400D01*
X139893021Y-116104400D02*
X139557779Y-116104400D01*
%TO.C,U6*%
X133240000Y-116022500D02*
X133240000Y-115797500D01*
X133465000Y-111802500D02*
X133240000Y-111802500D01*
X133465000Y-116022500D02*
X133240000Y-116022500D01*
X137235000Y-111802500D02*
X137460000Y-111802500D01*
X137235000Y-116022500D02*
X137460000Y-116022500D01*
X137460000Y-111802500D02*
X137460000Y-112027500D01*
X137460000Y-116022500D02*
X137460000Y-115797500D01*
%TO.C,R14*%
X107662596Y-108670075D02*
X107327354Y-108670075D01*
X107662596Y-107910075D02*
X107327354Y-107910075D01*
%TO.C,C14*%
X104796267Y-115410000D02*
X104503733Y-115410000D01*
X104796267Y-114390000D02*
X104503733Y-114390000D01*
%TO.C,R11*%
X117757500Y-109867621D02*
X117757500Y-109532379D01*
X118517500Y-109867621D02*
X118517500Y-109532379D01*
%TO.C,U1*%
X111400000Y-114340000D02*
X109600000Y-114340000D01*
X111400000Y-114340000D02*
X112200000Y-114340000D01*
X111400000Y-117460000D02*
X110600000Y-117460000D01*
X111400000Y-117460000D02*
X112200000Y-117460000D01*
%TO.C,R18*%
X113220000Y-109720121D02*
X113220000Y-109384879D01*
X113980000Y-109720121D02*
X113980000Y-109384879D01*
%TO.C,U8*%
X99000000Y-114185000D02*
X95550000Y-114185000D01*
X99000000Y-114185000D02*
X100950000Y-114185000D01*
X99000000Y-119305000D02*
X97050000Y-119305000D01*
X99000000Y-119305000D02*
X100950000Y-119305000D01*
D12*
%TO.C,L3*%
X105359850Y-116668100D02*
X104501750Y-116668100D01*
X104501750Y-119131900D02*
X105359850Y-119131900D01*
%TO.C,LED1*%
X145796000Y-118351300D02*
X147066000Y-118351300D01*
X146431000Y-118351300D02*
X145796000Y-117589300D01*
X146431000Y-118351300D02*
X145923000Y-117589300D01*
X146431000Y-118351300D02*
X146050000Y-117589300D01*
X146431000Y-118351300D02*
X146177000Y-117589300D01*
X146431000Y-118351300D02*
X146304000Y-117589300D01*
X146431000Y-118351300D02*
X146558000Y-117589300D01*
X146431000Y-118351300D02*
X146685000Y-117589300D01*
X146431000Y-118351300D02*
X146812000Y-117589300D01*
X146431000Y-118351300D02*
X146939000Y-117589300D01*
X146431000Y-118351300D02*
X147066000Y-117589300D01*
X145796000Y-117589300D02*
X147066000Y-117589300D01*
X146431000Y-117335300D02*
X146431000Y-118605300D01*
D11*
%TO.C,C9*%
X108729975Y-110778823D02*
X108729975Y-111301327D01*
X107259975Y-110778823D02*
X107259975Y-111301327D01*
D12*
%TO.C,LED2*%
X144068800Y-118325900D02*
X145338800Y-118325900D01*
X144703800Y-118325900D02*
X144068800Y-117563900D01*
X144703800Y-118325900D02*
X144195800Y-117563900D01*
X144703800Y-118325900D02*
X144322800Y-117563900D01*
X144703800Y-118325900D02*
X144449800Y-117563900D01*
X144703800Y-118325900D02*
X144576800Y-117563900D01*
X144703800Y-118325900D02*
X144830800Y-117563900D01*
X144703800Y-118325900D02*
X144957800Y-117563900D01*
X144703800Y-118325900D02*
X145084800Y-117563900D01*
X144703800Y-118325900D02*
X145211800Y-117563900D01*
X144703800Y-118325900D02*
X145338800Y-117563900D01*
X144068800Y-117563900D02*
X145338800Y-117563900D01*
X144703800Y-117309900D02*
X144703800Y-118579900D01*
D11*
%TO.C,R17*%
X93714221Y-107771200D02*
X93378979Y-107771200D01*
X93714221Y-107011200D02*
X93378979Y-107011200D01*
%TO.C,R1*%
X108992224Y-119172500D02*
X108482776Y-119172500D01*
X108992224Y-118127500D02*
X108482776Y-118127500D01*
%TO.C,C4*%
X122738933Y-118895400D02*
X123031467Y-118895400D01*
X122738933Y-119915400D02*
X123031467Y-119915400D01*
%TO.C,Q1*%
X120887500Y-117510000D02*
X122562500Y-117510000D01*
X120887500Y-117510000D02*
X120237500Y-117510000D01*
X120887500Y-114390000D02*
X121537500Y-114390000D01*
X120887500Y-114390000D02*
X120237500Y-114390000D01*
%TO.C,C10*%
X132594133Y-108786200D02*
X132886667Y-108786200D01*
X132594133Y-109806200D02*
X132886667Y-109806200D01*
%TO.C,C2*%
X77699648Y-117665000D02*
X78222152Y-117665000D01*
X77699648Y-119135000D02*
X78222152Y-119135000D01*
%TO.C,R2*%
X136272500Y-109832621D02*
X136272500Y-109497379D01*
X137032500Y-109832621D02*
X137032500Y-109497379D01*
%TO.C,R21*%
X137107279Y-118870000D02*
X137442521Y-118870000D01*
X137107279Y-119630000D02*
X137442521Y-119630000D01*
%TO.C,C11*%
X131163600Y-112363467D02*
X131163600Y-112070933D01*
X132183600Y-112363467D02*
X132183600Y-112070933D01*
%TD*%
%LPC*%
%TO.C,U7*%
G36*
X87221500Y-112943000D02*
G01*
X82903500Y-112943000D01*
X82903500Y-109387000D01*
X87221500Y-109387000D01*
X87221500Y-112943000D01*
G37*
%TO.C,U4*%
G36*
X78582400Y-112793000D02*
G01*
X74264400Y-112793000D01*
X74264400Y-109237000D01*
X78582400Y-109237000D01*
X78582400Y-112793000D01*
G37*
%TO.C,U5*%
G36*
X125300500Y-112859000D02*
G01*
X121744500Y-112859000D01*
X121744500Y-108541000D01*
X125300500Y-108541000D01*
X125300500Y-112859000D01*
G37*
%TD*%
D13*
%TO.C,R5*%
X73960900Y-117898600D03*
X73960900Y-116400000D03*
%TD*%
D14*
%TO.C,D20*%
X91262500Y-112850000D03*
X91262500Y-114750000D03*
X93137500Y-113800000D03*
%TD*%
D15*
%TO.C,R10*%
X79270900Y-115900000D03*
X78075900Y-115900000D03*
%TD*%
D16*
%TO.C,R12*%
X94244975Y-111105075D03*
X94244975Y-112300075D03*
%TD*%
D17*
%TO.C,R8*%
X118137500Y-116635000D03*
X118137500Y-115440000D03*
%TD*%
D18*
%TO.C,U7*%
X83157500Y-114721000D03*
X84427500Y-114721000D03*
X85697500Y-114721000D03*
X86967500Y-114721000D03*
X86967500Y-108879000D03*
X85697500Y-108879000D03*
X84427500Y-108879000D03*
X83157500Y-108879000D03*
%TD*%
D19*
%TO.C,C15*%
X108150000Y-116937500D03*
X108150000Y-114862500D03*
%TD*%
D20*
%TO.C,C13*%
X136744900Y-120599200D03*
X137879900Y-120599200D03*
%TD*%
D21*
%TO.C,D2*%
X114985800Y-121869200D03*
%TD*%
D22*
%TO.C,U3*%
X95994975Y-108360075D03*
X95994975Y-109630075D03*
X95994975Y-110900075D03*
X95994975Y-112170075D03*
X101294975Y-112170075D03*
X101294975Y-110900075D03*
X101294975Y-109630075D03*
X101294975Y-108360075D03*
D23*
X98644975Y-110265075D03*
%TD*%
D15*
%TO.C,R16*%
X91541600Y-107391200D03*
X90346600Y-107391200D03*
%TD*%
D21*
%TO.C,D7*%
X128219200Y-108839000D03*
%TD*%
D16*
%TO.C,R22*%
X94650000Y-117302500D03*
X94650000Y-118497500D03*
%TD*%
D18*
%TO.C,U4*%
X74518400Y-114571000D03*
X75788400Y-114571000D03*
X77058400Y-114571000D03*
X78328400Y-114571000D03*
X78328400Y-108729000D03*
X77058400Y-108729000D03*
X75788400Y-108729000D03*
X74518400Y-108729000D03*
%TD*%
D24*
%TO.C,R25*%
X142550000Y-108400000D03*
X144048600Y-108400000D03*
%TD*%
D25*
%TO.C,C1*%
X85830500Y-118262400D03*
X87905500Y-118262400D03*
%TD*%
D26*
%TO.C,D6*%
X118137500Y-112250000D03*
X118137500Y-113650000D03*
%TD*%
D15*
%TO.C,R30*%
X140348300Y-115290600D03*
X139153300Y-115290600D03*
%TD*%
D27*
%TO.C,C3*%
X125925000Y-116700000D03*
X123850000Y-116700000D03*
%TD*%
D21*
%TO.C,D1*%
X146799300Y-108400000D03*
%TD*%
D28*
%TO.C,L2*%
X105744975Y-111490075D03*
X103306575Y-111490075D03*
%TD*%
D29*
%TO.C,C8*%
X105107475Y-108740075D03*
X103382475Y-108740075D03*
%TD*%
D24*
%TO.C,R23*%
X149339300Y-116408200D03*
X150837900Y-116408200D03*
%TD*%
%TO.C,R7*%
X141033500Y-119532400D03*
X139534900Y-119532400D03*
%TD*%
D21*
%TO.C,D26*%
X154940000Y-111760000D03*
%TD*%
D20*
%TO.C,C7*%
X78105900Y-116900000D03*
X79240900Y-116900000D03*
%TD*%
D17*
%TO.C,R19*%
X113600000Y-112597500D03*
X113600000Y-111402500D03*
%TD*%
D21*
%TO.C,D4*%
X85450000Y-121000000D03*
%TD*%
D24*
%TO.C,R4*%
X82313200Y-118050000D03*
X83811800Y-118050000D03*
%TD*%
D17*
%TO.C,R3*%
X135352500Y-110262500D03*
X135352500Y-109067500D03*
%TD*%
D21*
%TO.C,D28*%
X151130000Y-108331000D03*
%TD*%
D20*
%TO.C,C12*%
X85225000Y-116738400D03*
X86360000Y-116738400D03*
%TD*%
D30*
%TO.C,LED3*%
X143027400Y-116046250D03*
X143027400Y-114890550D03*
%TD*%
D31*
%TO.C,D14*%
X82112500Y-116300000D03*
X83512500Y-116300000D03*
%TD*%
D17*
%TO.C,R13*%
X109744975Y-109485075D03*
X109744975Y-108290075D03*
%TD*%
D31*
%TO.C,D5*%
X75510900Y-116150000D03*
X76910900Y-116150000D03*
%TD*%
D15*
%TO.C,R29*%
X140373700Y-114096800D03*
X139178700Y-114096800D03*
%TD*%
D21*
%TO.C,D12*%
X82300000Y-121050000D03*
%TD*%
D32*
%TO.C,R20*%
X87477600Y-116763800D03*
X88672600Y-116763800D03*
%TD*%
D33*
%TO.C,U5*%
X119966500Y-108795000D03*
X119966500Y-110065000D03*
X119966500Y-111335000D03*
X119966500Y-112605000D03*
X125808500Y-112605000D03*
X125808500Y-111335000D03*
X125808500Y-110065000D03*
X125808500Y-108795000D03*
%TD*%
D15*
%TO.C,R31*%
X140322900Y-116484400D03*
X139127900Y-116484400D03*
%TD*%
D21*
%TO.C,D22*%
X92950000Y-119850000D03*
%TD*%
%TO.C,D24*%
X85250000Y-106600000D03*
%TD*%
D34*
%TO.C,U6*%
X133352500Y-112412500D03*
D35*
X133412500Y-112912500D03*
X133412500Y-113412500D03*
X133412500Y-113912500D03*
X133412500Y-114412500D03*
X133412500Y-114912500D03*
D36*
X133352500Y-115412500D03*
D37*
X133850000Y-115910000D03*
D38*
X134350000Y-115850000D03*
X134850000Y-115850000D03*
X135350000Y-115850000D03*
X135850000Y-115850000D03*
X136350000Y-115850000D03*
D39*
X136850000Y-115910000D03*
D40*
X137347500Y-115412500D03*
D35*
X137287500Y-114912500D03*
X137287500Y-114412500D03*
X137287500Y-113912500D03*
X137287500Y-113412500D03*
X137287500Y-112912500D03*
D41*
X137347500Y-112412500D03*
D42*
X136850000Y-111915000D03*
D38*
X136350000Y-111975000D03*
X135850000Y-111975000D03*
X135350000Y-111975000D03*
X134850000Y-111975000D03*
X134350000Y-111975000D03*
D43*
X133850000Y-111915000D03*
%TD*%
D21*
%TO.C,D13*%
X142570200Y-121361200D03*
%TD*%
D15*
%TO.C,R14*%
X108092475Y-108290075D03*
X106897475Y-108290075D03*
%TD*%
D21*
%TO.C,D3*%
X75050000Y-120950000D03*
%TD*%
D29*
%TO.C,C14*%
X105512500Y-114900000D03*
X103787500Y-114900000D03*
%TD*%
D24*
%TO.C,R28*%
X118402100Y-120142000D03*
X119900700Y-120142000D03*
%TD*%
D21*
%TO.C,D27*%
X128193800Y-123190000D03*
%TD*%
D17*
%TO.C,R11*%
X118137500Y-110297500D03*
X118137500Y-109102500D03*
%TD*%
D24*
%TO.C,R6*%
X111401400Y-118650000D03*
X112900000Y-118650000D03*
%TD*%
D44*
%TO.C,U1*%
X110262500Y-114950000D03*
X110262500Y-115900000D03*
X110262500Y-116850000D03*
X112537500Y-116850000D03*
X112537500Y-114950000D03*
%TD*%
D17*
%TO.C,R18*%
X113600000Y-110150000D03*
X113600000Y-108955000D03*
%TD*%
D21*
%TO.C,D21*%
X146827000Y-111000000D03*
%TD*%
D13*
%TO.C,R15*%
X133200000Y-118051400D03*
X133200000Y-119550000D03*
%TD*%
D21*
%TO.C,D30*%
X135813800Y-123240800D03*
%TD*%
%TO.C,D16*%
X110312200Y-121869200D03*
%TD*%
D22*
%TO.C,U8*%
X96350000Y-114840000D03*
X96350000Y-116110000D03*
X96350000Y-117380000D03*
X96350000Y-118650000D03*
X101650000Y-118650000D03*
X101650000Y-117380000D03*
X101650000Y-116110000D03*
X101650000Y-114840000D03*
D23*
X99000000Y-116745000D03*
%TD*%
D21*
%TO.C,D17*%
X107619800Y-121920000D03*
%TD*%
D24*
%TO.C,R26*%
X142328400Y-111000000D03*
X143827000Y-111000000D03*
%TD*%
D21*
%TO.C,D11*%
X133200000Y-121500000D03*
%TD*%
D28*
%TO.C,L3*%
X106150000Y-117900000D03*
X103711600Y-117900000D03*
%TD*%
D21*
%TO.C,D10*%
X130900000Y-121550000D03*
%TD*%
%TO.C,D29*%
X151155400Y-111023400D03*
%TD*%
D30*
%TO.C,LED1*%
X146431000Y-116097050D03*
X146431000Y-114941350D03*
%TD*%
D24*
%TO.C,R27*%
X124409200Y-114950000D03*
X125907800Y-114950000D03*
%TD*%
D45*
%TO.C,C9*%
X107994975Y-110090075D03*
X107994975Y-111990075D03*
%TD*%
D24*
%TO.C,R24*%
X149350700Y-114742900D03*
X150849300Y-114742900D03*
%TD*%
D30*
%TO.C,LED2*%
X144703800Y-116071650D03*
X144703800Y-114915950D03*
%TD*%
D15*
%TO.C,R17*%
X94144100Y-107391200D03*
X92949100Y-107391200D03*
%TD*%
D21*
%TO.C,D8*%
X154940000Y-116840000D03*
%TD*%
D46*
%TO.C,R1*%
X109650000Y-118650000D03*
X107825000Y-118650000D03*
%TD*%
D47*
%TO.C,C4*%
X122022700Y-119405400D03*
X123747700Y-119405400D03*
%TD*%
D21*
%TO.C,D25*%
X81900000Y-106650000D03*
%TD*%
%TO.C,D18*%
X154940000Y-119380000D03*
%TD*%
%TO.C,D19*%
X122021600Y-121361200D03*
%TD*%
D48*
%TO.C,Q1*%
X121825000Y-116900000D03*
X121825000Y-115000000D03*
X119950000Y-115950000D03*
%TD*%
D47*
%TO.C,C10*%
X131877900Y-109296200D03*
X133602900Y-109296200D03*
%TD*%
D13*
%TO.C,R9*%
X130900000Y-118050700D03*
X130900000Y-119549300D03*
%TD*%
D25*
%TO.C,C2*%
X76923400Y-118400000D03*
X78998400Y-118400000D03*
%TD*%
D17*
%TO.C,R2*%
X136652500Y-110262500D03*
X136652500Y-109067500D03*
%TD*%
D32*
%TO.C,R21*%
X136677400Y-119250000D03*
X137872400Y-119250000D03*
%TD*%
D21*
%TO.C,D9*%
X154940000Y-114300000D03*
%TD*%
%TO.C,D15*%
X112369600Y-121869200D03*
%TD*%
%TO.C,D23*%
X89950000Y-119900000D03*
%TD*%
D49*
%TO.C,C11*%
X131673600Y-113079700D03*
X131673600Y-111354700D03*
%TD*%
%LPD*%
M02*
