%TF.GenerationSoftware,KiCad,Pcbnew,7.0.7*%
%TF.CreationDate,2024-03-02T18:47:46+03:00*%
%TF.ProjectId,Main_PCB_002,4d61696e-5f50-4434-925f-3030322e6b69,rev?*%
%TF.SameCoordinates,Original*%
%TF.FileFunction,Soldermask,Top*%
%TF.FilePolarity,Negative*%
%FSLAX46Y46*%
G04 Gerber Fmt 4.6, Leading zero omitted, Abs format (unit mm)*
G04 Created by KiCad (PCBNEW 7.0.7) date 2024-03-02 18:47:46*
%MOMM*%
%LPD*%
G01*
G04 APERTURE LIST*
G04 Aperture macros list*
%AMRoundRect*
0 Rectangle with rounded corners*
0 $1 Rounding radius*
0 $2 $3 $4 $5 $6 $7 $8 $9 X,Y pos of 4 corners*
0 Add a 4 corners polygon primitive as box body*
4,1,4,$2,$3,$4,$5,$6,$7,$8,$9,$2,$3,0*
0 Add four circle primitives for the rounded corners*
1,1,$1+$1,$2,$3*
1,1,$1+$1,$4,$5*
1,1,$1+$1,$6,$7*
1,1,$1+$1,$8,$9*
0 Add four rect primitives between the rounded corners*
20,1,$1+$1,$2,$3,$4,$5,0*
20,1,$1+$1,$4,$5,$6,$7,0*
20,1,$1+$1,$6,$7,$8,$9,0*
20,1,$1+$1,$8,$9,$2,$3,0*%
%AMFreePoly0*
4,1,14,0.230680,0.111820,0.364320,-0.021821,0.377500,-0.053642,0.377500,-0.080000,0.364320,-0.111820,0.332500,-0.125000,-0.332500,-0.125000,-0.364320,-0.111820,-0.377500,-0.080000,-0.377500,0.080000,-0.364320,0.111820,-0.332500,0.125000,0.198860,0.125000,0.230680,0.111820,0.230680,0.111820,$1*%
%AMFreePoly1*
4,1,14,0.364320,0.111820,0.377500,0.080000,0.377501,0.053640,0.364318,0.021819,0.230680,-0.111820,0.198860,-0.125000,-0.332500,-0.125000,-0.364320,-0.111820,-0.377500,-0.080000,-0.377500,0.080000,-0.364320,0.111820,-0.332500,0.125000,0.332500,0.125000,0.364320,0.111820,0.364320,0.111820,$1*%
%AMFreePoly2*
4,1,15,0.053642,0.377500,0.080000,0.377500,0.111820,0.364320,0.125000,0.332500,0.125000,-0.332500,0.111820,-0.364320,0.080000,-0.377500,-0.080000,-0.377500,-0.111820,-0.364320,-0.125000,-0.332500,-0.125000,0.198860,-0.111820,0.230680,0.021820,0.364320,0.053640,0.377501,0.053642,0.377500,0.053642,0.377500,$1*%
%AMFreePoly3*
4,1,14,-0.021820,0.364320,0.111820,0.230679,0.125001,0.198860,0.125000,-0.332500,0.111820,-0.364320,0.080000,-0.377500,-0.080000,-0.377500,-0.111820,-0.364320,-0.125000,-0.332500,-0.125000,0.332500,-0.111820,0.364320,-0.080000,0.377500,-0.053640,0.377500,-0.021820,0.364320,-0.021820,0.364320,$1*%
%AMFreePoly4*
4,1,14,0.364320,0.111820,0.377500,0.080000,0.377500,-0.080000,0.364320,-0.111820,0.332500,-0.125000,-0.198860,-0.125001,-0.230680,-0.111818,-0.364320,0.021820,-0.377500,0.053640,-0.377500,0.080000,-0.364320,0.111820,-0.332500,0.125000,0.332500,0.125000,0.364320,0.111820,0.364320,0.111820,$1*%
%AMFreePoly5*
4,1,15,-0.198858,0.125000,0.332500,0.125000,0.364320,0.111820,0.377500,0.080000,0.377500,-0.080000,0.364320,-0.111820,0.332500,-0.125000,-0.332500,-0.125000,-0.364320,-0.111820,-0.377500,-0.080000,-0.377500,-0.053640,-0.364320,-0.021820,-0.230680,0.111820,-0.198860,0.125001,-0.198858,0.125000,-0.198858,0.125000,$1*%
%AMFreePoly6*
4,1,14,0.111820,0.364320,0.125000,0.332500,0.125001,-0.198860,0.111818,-0.230680,-0.021820,-0.364320,-0.053640,-0.377500,-0.080000,-0.377500,-0.111820,-0.364320,-0.125000,-0.332500,-0.125000,0.332500,-0.111820,0.364320,-0.080000,0.377500,0.080000,0.377500,0.111820,0.364320,0.111820,0.364320,$1*%
%AMFreePoly7*
4,1,14,0.111820,0.364320,0.125000,0.332500,0.125000,-0.332500,0.111820,-0.364320,0.080000,-0.377500,0.053640,-0.377501,0.021819,-0.364318,-0.111820,-0.230680,-0.125000,-0.198860,-0.125000,0.332500,-0.111820,0.364320,-0.080000,0.377500,0.080000,0.377500,0.111820,0.364320,0.111820,0.364320,$1*%
G04 Aperture macros list end*
%ADD10R,0.939800X0.965200*%
%ADD11RoundRect,0.150000X-0.587500X-0.150000X0.587500X-0.150000X0.587500X0.150000X-0.587500X0.150000X0*%
%ADD12RoundRect,0.160000X0.197500X0.160000X-0.197500X0.160000X-0.197500X-0.160000X0.197500X-0.160000X0*%
%ADD13RoundRect,0.160000X-0.160000X0.197500X-0.160000X-0.197500X0.160000X-0.197500X0.160000X0.197500X0*%
%ADD14RoundRect,0.160000X0.160000X-0.197500X0.160000X0.197500X-0.160000X0.197500X-0.160000X-0.197500X0*%
%ADD15R,0.457200X1.016000*%
%ADD16RoundRect,0.250000X0.475000X-0.337500X0.475000X0.337500X-0.475000X0.337500X-0.475000X-0.337500X0*%
%ADD17RoundRect,0.155000X-0.212500X-0.155000X0.212500X-0.155000X0.212500X0.155000X-0.212500X0.155000X0*%
%ADD18C,1.600000*%
%ADD19RoundRect,0.150000X-0.650000X-0.150000X0.650000X-0.150000X0.650000X0.150000X-0.650000X0.150000X0*%
%ADD20R,2.410000X3.100000*%
%ADD21R,0.965200X0.939800*%
%ADD22RoundRect,0.250000X-0.337500X-0.475000X0.337500X-0.475000X0.337500X0.475000X-0.337500X0.475000X0*%
%ADD23RoundRect,0.150000X0.200000X-0.150000X0.200000X0.150000X-0.200000X0.150000X-0.200000X-0.150000X0*%
%ADD24RoundRect,0.250000X0.337500X0.475000X-0.337500X0.475000X-0.337500X-0.475000X0.337500X-0.475000X0*%
%ADD25R,0.965200X2.209800*%
%ADD26RoundRect,0.237500X0.300000X0.237500X-0.300000X0.237500X-0.300000X-0.237500X0.300000X-0.237500X0*%
%ADD27R,0.711200X0.444500*%
%ADD28RoundRect,0.150000X0.150000X0.200000X-0.150000X0.200000X-0.150000X-0.200000X0.150000X-0.200000X0*%
%ADD29RoundRect,0.160000X-0.197500X-0.160000X0.197500X-0.160000X0.197500X0.160000X-0.197500X0.160000X0*%
%ADD30R,1.016000X0.457200*%
%ADD31FreePoly0,0.000000*%
%ADD32RoundRect,0.062500X-0.375000X-0.062500X0.375000X-0.062500X0.375000X0.062500X-0.375000X0.062500X0*%
%ADD33FreePoly1,0.000000*%
%ADD34FreePoly2,0.000000*%
%ADD35RoundRect,0.062500X-0.062500X-0.375000X0.062500X-0.375000X0.062500X0.375000X-0.062500X0.375000X0*%
%ADD36FreePoly3,0.000000*%
%ADD37FreePoly4,0.000000*%
%ADD38FreePoly5,0.000000*%
%ADD39FreePoly6,0.000000*%
%ADD40FreePoly7,0.000000*%
%ADD41RoundRect,0.150000X-0.512500X-0.150000X0.512500X-0.150000X0.512500X0.150000X-0.512500X0.150000X0*%
%ADD42RoundRect,0.250000X-0.475000X0.250000X-0.475000X-0.250000X0.475000X-0.250000X0.475000X0.250000X0*%
%ADD43RoundRect,0.237500X0.250000X0.237500X-0.250000X0.237500X-0.250000X-0.237500X0.250000X-0.237500X0*%
%ADD44RoundRect,0.237500X-0.300000X-0.237500X0.300000X-0.237500X0.300000X0.237500X-0.300000X0.237500X0*%
%ADD45RoundRect,0.150000X0.587500X0.150000X-0.587500X0.150000X-0.587500X-0.150000X0.587500X-0.150000X0*%
%ADD46RoundRect,0.237500X0.237500X-0.300000X0.237500X0.300000X-0.237500X0.300000X-0.237500X-0.300000X0*%
G04 APERTURE END LIST*
%TO.C,U7*%
G36*
X87221500Y-112943000D02*
G01*
X82903500Y-112943000D01*
X82903500Y-109387000D01*
X87221500Y-109387000D01*
X87221500Y-112943000D01*
G37*
%TO.C,U4*%
G36*
X78582400Y-112793000D02*
G01*
X74264400Y-112793000D01*
X74264400Y-109237000D01*
X78582400Y-109237000D01*
X78582400Y-112793000D01*
G37*
%TO.C,U5*%
G36*
X125300500Y-112859000D02*
G01*
X121744500Y-112859000D01*
X121744500Y-108541000D01*
X125300500Y-108541000D01*
X125300500Y-112859000D01*
G37*
%TD*%
D10*
%TO.C,R5*%
X73960900Y-117898600D03*
X73960900Y-116400000D03*
%TD*%
D11*
%TO.C,D20*%
X91262500Y-112850000D03*
X91262500Y-114750000D03*
X93137500Y-113800000D03*
%TD*%
D12*
%TO.C,R10*%
X79270900Y-115900000D03*
X78075900Y-115900000D03*
%TD*%
D13*
%TO.C,R12*%
X94244975Y-111105075D03*
X94244975Y-112300075D03*
%TD*%
D14*
%TO.C,R8*%
X118137500Y-116635000D03*
X118137500Y-115440000D03*
%TD*%
D15*
%TO.C,U7*%
X83157500Y-114721000D03*
X84427500Y-114721000D03*
X85697500Y-114721000D03*
X86967500Y-114721000D03*
X86967500Y-108879000D03*
X85697500Y-108879000D03*
X84427500Y-108879000D03*
X83157500Y-108879000D03*
%TD*%
D16*
%TO.C,C15*%
X108150000Y-116937500D03*
X108150000Y-114862500D03*
%TD*%
D17*
%TO.C,C13*%
X136744900Y-120599200D03*
X137879900Y-120599200D03*
%TD*%
D18*
%TO.C,D2*%
X114985800Y-121869200D03*
%TD*%
D19*
%TO.C,U3*%
X95994975Y-108360075D03*
X95994975Y-109630075D03*
X95994975Y-110900075D03*
X95994975Y-112170075D03*
X101294975Y-112170075D03*
X101294975Y-110900075D03*
X101294975Y-109630075D03*
X101294975Y-108360075D03*
D20*
X98644975Y-110265075D03*
%TD*%
D12*
%TO.C,R16*%
X91541600Y-107391200D03*
X90346600Y-107391200D03*
%TD*%
D18*
%TO.C,D7*%
X128219200Y-108839000D03*
%TD*%
D13*
%TO.C,R22*%
X94650000Y-117302500D03*
X94650000Y-118497500D03*
%TD*%
D15*
%TO.C,U4*%
X74518400Y-114571000D03*
X75788400Y-114571000D03*
X77058400Y-114571000D03*
X78328400Y-114571000D03*
X78328400Y-108729000D03*
X77058400Y-108729000D03*
X75788400Y-108729000D03*
X74518400Y-108729000D03*
%TD*%
D21*
%TO.C,R25*%
X142550000Y-108400000D03*
X144048600Y-108400000D03*
%TD*%
D22*
%TO.C,C1*%
X85830500Y-118262400D03*
X87905500Y-118262400D03*
%TD*%
D23*
%TO.C,D6*%
X118137500Y-112250000D03*
X118137500Y-113650000D03*
%TD*%
D12*
%TO.C,R30*%
X140348300Y-115290600D03*
X139153300Y-115290600D03*
%TD*%
D24*
%TO.C,C3*%
X125925000Y-116700000D03*
X123850000Y-116700000D03*
%TD*%
D18*
%TO.C,D1*%
X146799300Y-108400000D03*
%TD*%
D25*
%TO.C,L2*%
X105744975Y-111490075D03*
X103306575Y-111490075D03*
%TD*%
D26*
%TO.C,C8*%
X105107475Y-108740075D03*
X103382475Y-108740075D03*
%TD*%
D21*
%TO.C,R23*%
X149339300Y-116408200D03*
X150837900Y-116408200D03*
%TD*%
%TO.C,R7*%
X141033500Y-119532400D03*
X139534900Y-119532400D03*
%TD*%
D18*
%TO.C,D26*%
X154940000Y-111760000D03*
%TD*%
D17*
%TO.C,C7*%
X78105900Y-116900000D03*
X79240900Y-116900000D03*
%TD*%
D14*
%TO.C,R19*%
X113600000Y-112597500D03*
X113600000Y-111402500D03*
%TD*%
D18*
%TO.C,D4*%
X85450000Y-121000000D03*
%TD*%
D21*
%TO.C,R4*%
X82313200Y-118050000D03*
X83811800Y-118050000D03*
%TD*%
D14*
%TO.C,R3*%
X135352500Y-110262500D03*
X135352500Y-109067500D03*
%TD*%
D18*
%TO.C,D28*%
X151130000Y-108331000D03*
%TD*%
D17*
%TO.C,C12*%
X85225000Y-116738400D03*
X86360000Y-116738400D03*
%TD*%
D27*
%TO.C,LED3*%
X143027400Y-116046250D03*
X143027400Y-114890550D03*
%TD*%
D28*
%TO.C,D14*%
X82112500Y-116300000D03*
X83512500Y-116300000D03*
%TD*%
D14*
%TO.C,R13*%
X109744975Y-109485075D03*
X109744975Y-108290075D03*
%TD*%
D28*
%TO.C,D5*%
X75510900Y-116150000D03*
X76910900Y-116150000D03*
%TD*%
D12*
%TO.C,R29*%
X140373700Y-114096800D03*
X139178700Y-114096800D03*
%TD*%
D18*
%TO.C,D12*%
X82300000Y-121050000D03*
%TD*%
D29*
%TO.C,R20*%
X87477600Y-116763800D03*
X88672600Y-116763800D03*
%TD*%
D30*
%TO.C,U5*%
X119966500Y-108795000D03*
X119966500Y-110065000D03*
X119966500Y-111335000D03*
X119966500Y-112605000D03*
X125808500Y-112605000D03*
X125808500Y-111335000D03*
X125808500Y-110065000D03*
X125808500Y-108795000D03*
%TD*%
D12*
%TO.C,R31*%
X140322900Y-116484400D03*
X139127900Y-116484400D03*
%TD*%
D18*
%TO.C,D22*%
X92950000Y-119850000D03*
%TD*%
%TO.C,D24*%
X85250000Y-106600000D03*
%TD*%
D31*
%TO.C,U6*%
X133352500Y-112412500D03*
D32*
X133412500Y-112912500D03*
X133412500Y-113412500D03*
X133412500Y-113912500D03*
X133412500Y-114412500D03*
X133412500Y-114912500D03*
D33*
X133352500Y-115412500D03*
D34*
X133850000Y-115910000D03*
D35*
X134350000Y-115850000D03*
X134850000Y-115850000D03*
X135350000Y-115850000D03*
X135850000Y-115850000D03*
X136350000Y-115850000D03*
D36*
X136850000Y-115910000D03*
D37*
X137347500Y-115412500D03*
D32*
X137287500Y-114912500D03*
X137287500Y-114412500D03*
X137287500Y-113912500D03*
X137287500Y-113412500D03*
X137287500Y-112912500D03*
D38*
X137347500Y-112412500D03*
D39*
X136850000Y-111915000D03*
D35*
X136350000Y-111975000D03*
X135850000Y-111975000D03*
X135350000Y-111975000D03*
X134850000Y-111975000D03*
X134350000Y-111975000D03*
D40*
X133850000Y-111915000D03*
%TD*%
D18*
%TO.C,D13*%
X142570200Y-121361200D03*
%TD*%
D12*
%TO.C,R14*%
X108092475Y-108290075D03*
X106897475Y-108290075D03*
%TD*%
D18*
%TO.C,D3*%
X75050000Y-120950000D03*
%TD*%
D26*
%TO.C,C14*%
X105512500Y-114900000D03*
X103787500Y-114900000D03*
%TD*%
D21*
%TO.C,R28*%
X118402100Y-120142000D03*
X119900700Y-120142000D03*
%TD*%
D18*
%TO.C,D27*%
X128193800Y-123190000D03*
%TD*%
D14*
%TO.C,R11*%
X118137500Y-110297500D03*
X118137500Y-109102500D03*
%TD*%
D21*
%TO.C,R6*%
X111401400Y-118650000D03*
X112900000Y-118650000D03*
%TD*%
D41*
%TO.C,U1*%
X110262500Y-114950000D03*
X110262500Y-115900000D03*
X110262500Y-116850000D03*
X112537500Y-116850000D03*
X112537500Y-114950000D03*
%TD*%
D14*
%TO.C,R18*%
X113600000Y-110150000D03*
X113600000Y-108955000D03*
%TD*%
D18*
%TO.C,D21*%
X146827000Y-111000000D03*
%TD*%
D10*
%TO.C,R15*%
X133200000Y-118051400D03*
X133200000Y-119550000D03*
%TD*%
D18*
%TO.C,D30*%
X135813800Y-123240800D03*
%TD*%
%TO.C,D16*%
X110312200Y-121869200D03*
%TD*%
D19*
%TO.C,U8*%
X96350000Y-114840000D03*
X96350000Y-116110000D03*
X96350000Y-117380000D03*
X96350000Y-118650000D03*
X101650000Y-118650000D03*
X101650000Y-117380000D03*
X101650000Y-116110000D03*
X101650000Y-114840000D03*
D20*
X99000000Y-116745000D03*
%TD*%
D18*
%TO.C,D17*%
X107619800Y-121920000D03*
%TD*%
D21*
%TO.C,R26*%
X142328400Y-111000000D03*
X143827000Y-111000000D03*
%TD*%
D18*
%TO.C,D11*%
X133200000Y-121500000D03*
%TD*%
D25*
%TO.C,L3*%
X106150000Y-117900000D03*
X103711600Y-117900000D03*
%TD*%
D18*
%TO.C,D10*%
X130900000Y-121550000D03*
%TD*%
%TO.C,D29*%
X151155400Y-111023400D03*
%TD*%
D27*
%TO.C,LED1*%
X146431000Y-116097050D03*
X146431000Y-114941350D03*
%TD*%
D21*
%TO.C,R27*%
X124409200Y-114950000D03*
X125907800Y-114950000D03*
%TD*%
D42*
%TO.C,C9*%
X107994975Y-110090075D03*
X107994975Y-111990075D03*
%TD*%
D21*
%TO.C,R24*%
X149350700Y-114742900D03*
X150849300Y-114742900D03*
%TD*%
D27*
%TO.C,LED2*%
X144703800Y-116071650D03*
X144703800Y-114915950D03*
%TD*%
D12*
%TO.C,R17*%
X94144100Y-107391200D03*
X92949100Y-107391200D03*
%TD*%
D18*
%TO.C,D8*%
X154940000Y-116840000D03*
%TD*%
D43*
%TO.C,R1*%
X109650000Y-118650000D03*
X107825000Y-118650000D03*
%TD*%
D44*
%TO.C,C4*%
X122022700Y-119405400D03*
X123747700Y-119405400D03*
%TD*%
D18*
%TO.C,D25*%
X81900000Y-106650000D03*
%TD*%
%TO.C,D18*%
X154940000Y-119380000D03*
%TD*%
%TO.C,D19*%
X122021600Y-121361200D03*
%TD*%
D45*
%TO.C,Q1*%
X121825000Y-116900000D03*
X121825000Y-115000000D03*
X119950000Y-115950000D03*
%TD*%
D44*
%TO.C,C10*%
X131877900Y-109296200D03*
X133602900Y-109296200D03*
%TD*%
D10*
%TO.C,R9*%
X130900000Y-118050700D03*
X130900000Y-119549300D03*
%TD*%
D22*
%TO.C,C2*%
X76923400Y-118400000D03*
X78998400Y-118400000D03*
%TD*%
D14*
%TO.C,R2*%
X136652500Y-110262500D03*
X136652500Y-109067500D03*
%TD*%
D29*
%TO.C,R21*%
X136677400Y-119250000D03*
X137872400Y-119250000D03*
%TD*%
D18*
%TO.C,D9*%
X154940000Y-114300000D03*
%TD*%
%TO.C,D15*%
X112369600Y-121869200D03*
%TD*%
%TO.C,D23*%
X89950000Y-119900000D03*
%TD*%
D46*
%TO.C,C11*%
X131673600Y-113079700D03*
X131673600Y-111354700D03*
%TD*%
M02*
