%TF.GenerationSoftware,KiCad,Pcbnew,7.0.7*%
%TF.CreationDate,2023-11-19T15:36:35+03:00*%
%TF.ProjectId,Main_PCB_002,4d61696e-5f50-4434-925f-3030322e6b69,rev?*%
%TF.SameCoordinates,Original*%
%TF.FileFunction,Copper,L2,Bot*%
%TF.FilePolarity,Positive*%
%FSLAX46Y46*%
G04 Gerber Fmt 4.6, Leading zero omitted, Abs format (unit mm)*
G04 Created by KiCad (PCBNEW 7.0.7) date 2023-11-19 15:36:35*
%MOMM*%
%LPD*%
G01*
G04 APERTURE LIST*
%TA.AperFunction,ComponentPad*%
%ADD10C,1.600000*%
%TD*%
%TA.AperFunction,ViaPad*%
%ADD11C,0.800000*%
%TD*%
%TA.AperFunction,Conductor*%
%ADD12C,0.500000*%
%TD*%
G04 APERTURE END LIST*
D10*
%TO.P,D1,1,Conn*%
%TO.N,GND1*%
X165608000Y-113284000D03*
%TD*%
%TO.P,D22,1,Conn*%
%TO.N,Net-(D22-Conn)*%
X126873000Y-98704400D03*
%TD*%
%TO.P,D25,1,Conn*%
%TO.N,Net-(D25-Conn)*%
X156438600Y-113487200D03*
%TD*%
%TO.P,D26,1,Conn*%
%TO.N,Net-(D21-K)*%
X161569400Y-118110000D03*
%TD*%
%TO.P,D24,1,Conn*%
%TO.N,Net-(D24-Conn)*%
X165709600Y-108178600D03*
%TD*%
%TO.P,D23,1,Conn*%
%TO.N,GND1*%
X126822200Y-101879400D03*
%TD*%
D11*
%TO.N,GND1*%
X136601200Y-104089200D03*
%TO.N,Net-(U8-VOUT)*%
X152781000Y-105003600D03*
X156997400Y-106934000D03*
%TO.N,GND1*%
X144449800Y-120269000D03*
X161772600Y-97612200D03*
X166598600Y-97561400D03*
X144145000Y-109397800D03*
X133096000Y-120142000D03*
X129438400Y-99517200D03*
X140106400Y-120269000D03*
X149606000Y-120218200D03*
X144627600Y-115722400D03*
X147955000Y-109728000D03*
X164515800Y-106324400D03*
X161188400Y-120218200D03*
X133172200Y-115087400D03*
X141173200Y-112217200D03*
X159207200Y-105410000D03*
X126517400Y-121335800D03*
X159689800Y-108178600D03*
X133096000Y-111582200D03*
X156184600Y-110998000D03*
X149987000Y-101168200D03*
X139954000Y-114173000D03*
X149606000Y-97612200D03*
X140106400Y-117576600D03*
X166801800Y-110185200D03*
X143459200Y-117729000D03*
X154533600Y-120218200D03*
X156413200Y-97561400D03*
X126568200Y-113538000D03*
X133096000Y-106426000D03*
X163449000Y-114122200D03*
X149021800Y-115925600D03*
X126898400Y-104775000D03*
X141655800Y-109296200D03*
%TO.N,Net-(U7-RESET)*%
X148992612Y-119078988D03*
X149707600Y-117373400D03*
%TD*%
D12*
%TO.N,Net-(U8-VOUT)*%
X154711400Y-106934000D02*
X152781000Y-105003600D01*
X156997400Y-106934000D02*
X154711400Y-106934000D01*
%TO.N,Net-(U7-RESET)*%
X149707600Y-118364000D02*
X148992612Y-119078988D01*
X149707600Y-117373400D02*
X149707600Y-118364000D01*
%TD*%
%TA.AperFunction,Conductor*%
%TO.N,GND1*%
G36*
X168208791Y-95929307D02*
G01*
X168244755Y-95978807D01*
X168249600Y-96009400D01*
X168249600Y-122430600D01*
X168230693Y-122488791D01*
X168181193Y-122524755D01*
X168150600Y-122529600D01*
X122679400Y-122529600D01*
X122621209Y-122510693D01*
X122585245Y-122461193D01*
X122580400Y-122430600D01*
X122580400Y-119078988D01*
X148386930Y-119078988D01*
X148407567Y-119235746D01*
X148407569Y-119235754D01*
X148468074Y-119381826D01*
X148468074Y-119381827D01*
X148468076Y-119381829D01*
X148564330Y-119507270D01*
X148689771Y-119603524D01*
X148835850Y-119664032D01*
X148953421Y-119679510D01*
X148992611Y-119684670D01*
X148992612Y-119684670D01*
X148992613Y-119684670D01*
X149023964Y-119680542D01*
X149149374Y-119664032D01*
X149295453Y-119603524D01*
X149420894Y-119507270D01*
X149517148Y-119381829D01*
X149577656Y-119235750D01*
X149589143Y-119148490D01*
X149615483Y-119093266D01*
X149617255Y-119091447D01*
X150006303Y-118702398D01*
X150010425Y-118698714D01*
X150041570Y-118673879D01*
X150075080Y-118624728D01*
X150110393Y-118576882D01*
X150110396Y-118576873D01*
X150113863Y-118570316D01*
X150114255Y-118570523D01*
X150115251Y-118568550D01*
X150114852Y-118568358D01*
X150118068Y-118561677D01*
X150118072Y-118561673D01*
X150135607Y-118504822D01*
X150155246Y-118448699D01*
X150155246Y-118448696D01*
X150156626Y-118441407D01*
X150157060Y-118441489D01*
X150157431Y-118439307D01*
X150156994Y-118439242D01*
X150158100Y-118431904D01*
X150158100Y-118372441D01*
X150160325Y-118312990D01*
X150160323Y-118312984D01*
X150159494Y-118305616D01*
X150159931Y-118305566D01*
X150158100Y-118291652D01*
X150158100Y-118110003D01*
X160564059Y-118110003D01*
X160583374Y-118306126D01*
X160583375Y-118306129D01*
X160583376Y-118306132D01*
X160640348Y-118493944D01*
X160640587Y-118494730D01*
X160640588Y-118494732D01*
X160680989Y-118570316D01*
X160733490Y-118668538D01*
X160733492Y-118668540D01*
X160733493Y-118668542D01*
X160858512Y-118820878D01*
X160858521Y-118820887D01*
X160981997Y-118922221D01*
X161010862Y-118945910D01*
X161184673Y-119038814D01*
X161373268Y-119096024D01*
X161373270Y-119096024D01*
X161373273Y-119096025D01*
X161569397Y-119115341D01*
X161569400Y-119115341D01*
X161569403Y-119115341D01*
X161765526Y-119096025D01*
X161765527Y-119096024D01*
X161765532Y-119096024D01*
X161954127Y-119038814D01*
X162127938Y-118945910D01*
X162280283Y-118820883D01*
X162405310Y-118668538D01*
X162498214Y-118494727D01*
X162555424Y-118306132D01*
X162555567Y-118304686D01*
X162574741Y-118110003D01*
X162574741Y-118109996D01*
X162555425Y-117913873D01*
X162555424Y-117913870D01*
X162555424Y-117913868D01*
X162498214Y-117725273D01*
X162405310Y-117551462D01*
X162387833Y-117530166D01*
X162280287Y-117399121D01*
X162280278Y-117399112D01*
X162127942Y-117274093D01*
X162127940Y-117274092D01*
X162127938Y-117274090D01*
X162020459Y-117216641D01*
X161954132Y-117181188D01*
X161954130Y-117181187D01*
X161765529Y-117123975D01*
X161765526Y-117123974D01*
X161569403Y-117104659D01*
X161569397Y-117104659D01*
X161373273Y-117123974D01*
X161373270Y-117123975D01*
X161184669Y-117181187D01*
X161184667Y-117181188D01*
X161010867Y-117274087D01*
X161010857Y-117274093D01*
X160858521Y-117399112D01*
X160858512Y-117399121D01*
X160733493Y-117551457D01*
X160733487Y-117551467D01*
X160640588Y-117725267D01*
X160640587Y-117725269D01*
X160583375Y-117913870D01*
X160583374Y-117913873D01*
X160564059Y-118109996D01*
X160564059Y-118110003D01*
X150158100Y-118110003D01*
X150158100Y-117806332D01*
X150177007Y-117748141D01*
X150178536Y-117746093D01*
X150232136Y-117676241D01*
X150292644Y-117530162D01*
X150313282Y-117373400D01*
X150292644Y-117216638D01*
X150232137Y-117070561D01*
X150232137Y-117070560D01*
X150135886Y-116945123D01*
X150135885Y-116945122D01*
X150135882Y-116945118D01*
X150135877Y-116945114D01*
X150135876Y-116945113D01*
X150010438Y-116848862D01*
X149864366Y-116788357D01*
X149864358Y-116788355D01*
X149707601Y-116767718D01*
X149707599Y-116767718D01*
X149550841Y-116788355D01*
X149550833Y-116788357D01*
X149404761Y-116848862D01*
X149404760Y-116848862D01*
X149279323Y-116945113D01*
X149279313Y-116945123D01*
X149183062Y-117070560D01*
X149183062Y-117070561D01*
X149122557Y-117216633D01*
X149122555Y-117216641D01*
X149101918Y-117373399D01*
X149101918Y-117373400D01*
X149122555Y-117530158D01*
X149122557Y-117530166D01*
X149183062Y-117676238D01*
X149183063Y-117676240D01*
X149183064Y-117676241D01*
X149236642Y-117746065D01*
X149257066Y-117803740D01*
X149257100Y-117806332D01*
X149257100Y-118136388D01*
X149238193Y-118194579D01*
X149228103Y-118206392D01*
X148980188Y-118454306D01*
X148925672Y-118482083D01*
X148923108Y-118482455D01*
X148835849Y-118493944D01*
X148689773Y-118554450D01*
X148689772Y-118554450D01*
X148564335Y-118650701D01*
X148564325Y-118650711D01*
X148468074Y-118776148D01*
X148468074Y-118776149D01*
X148407569Y-118922221D01*
X148407567Y-118922229D01*
X148386930Y-119078987D01*
X148386930Y-119078988D01*
X122580400Y-119078988D01*
X122580400Y-113487203D01*
X155433259Y-113487203D01*
X155452574Y-113683326D01*
X155452575Y-113683329D01*
X155509787Y-113871930D01*
X155509788Y-113871932D01*
X155580818Y-114004818D01*
X155602690Y-114045738D01*
X155602692Y-114045740D01*
X155602693Y-114045742D01*
X155727712Y-114198078D01*
X155727721Y-114198087D01*
X155880057Y-114323106D01*
X155880062Y-114323110D01*
X156053873Y-114416014D01*
X156242468Y-114473224D01*
X156242470Y-114473224D01*
X156242473Y-114473225D01*
X156438597Y-114492541D01*
X156438600Y-114492541D01*
X156438603Y-114492541D01*
X156634726Y-114473225D01*
X156634727Y-114473224D01*
X156634732Y-114473224D01*
X156823327Y-114416014D01*
X156997138Y-114323110D01*
X157149483Y-114198083D01*
X157274510Y-114045738D01*
X157367414Y-113871927D01*
X157424624Y-113683332D01*
X157443941Y-113487200D01*
X157443941Y-113487196D01*
X157424625Y-113291073D01*
X157424624Y-113291070D01*
X157424624Y-113291068D01*
X157367414Y-113102473D01*
X157274510Y-112928662D01*
X157274506Y-112928657D01*
X157149487Y-112776321D01*
X157149478Y-112776312D01*
X156997142Y-112651293D01*
X156997140Y-112651292D01*
X156997138Y-112651290D01*
X156956218Y-112629418D01*
X156823332Y-112558388D01*
X156823330Y-112558387D01*
X156634729Y-112501175D01*
X156634726Y-112501174D01*
X156438603Y-112481859D01*
X156438597Y-112481859D01*
X156242473Y-112501174D01*
X156242470Y-112501175D01*
X156053869Y-112558387D01*
X156053867Y-112558388D01*
X155880067Y-112651287D01*
X155880057Y-112651293D01*
X155727721Y-112776312D01*
X155727712Y-112776321D01*
X155602693Y-112928657D01*
X155602687Y-112928667D01*
X155509788Y-113102467D01*
X155509787Y-113102469D01*
X155452575Y-113291070D01*
X155452574Y-113291073D01*
X155433259Y-113487196D01*
X155433259Y-113487203D01*
X122580400Y-113487203D01*
X122580400Y-108178603D01*
X164704259Y-108178603D01*
X164723574Y-108374726D01*
X164723575Y-108374729D01*
X164780787Y-108563330D01*
X164780788Y-108563332D01*
X164851818Y-108696218D01*
X164873690Y-108737138D01*
X164873692Y-108737140D01*
X164873693Y-108737142D01*
X164998712Y-108889478D01*
X164998721Y-108889487D01*
X165151057Y-109014506D01*
X165151062Y-109014510D01*
X165324873Y-109107414D01*
X165513468Y-109164624D01*
X165513470Y-109164624D01*
X165513473Y-109164625D01*
X165709597Y-109183941D01*
X165709600Y-109183941D01*
X165709603Y-109183941D01*
X165905726Y-109164625D01*
X165905727Y-109164624D01*
X165905732Y-109164624D01*
X166094327Y-109107414D01*
X166268138Y-109014510D01*
X166420483Y-108889483D01*
X166545510Y-108737138D01*
X166638414Y-108563327D01*
X166695624Y-108374732D01*
X166714941Y-108178600D01*
X166714941Y-108178596D01*
X166695625Y-107982473D01*
X166695624Y-107982470D01*
X166695624Y-107982468D01*
X166638414Y-107793873D01*
X166545510Y-107620062D01*
X166545506Y-107620057D01*
X166420487Y-107467721D01*
X166420478Y-107467712D01*
X166268142Y-107342693D01*
X166268140Y-107342692D01*
X166268138Y-107342690D01*
X166191038Y-107301479D01*
X166094332Y-107249788D01*
X166094330Y-107249787D01*
X166044463Y-107234660D01*
X165905732Y-107192576D01*
X165905729Y-107192575D01*
X165905726Y-107192574D01*
X165709603Y-107173259D01*
X165709597Y-107173259D01*
X165513473Y-107192574D01*
X165513470Y-107192575D01*
X165324869Y-107249787D01*
X165324867Y-107249788D01*
X165151067Y-107342687D01*
X165151057Y-107342693D01*
X164998721Y-107467712D01*
X164998712Y-107467721D01*
X164873693Y-107620057D01*
X164873687Y-107620067D01*
X164780788Y-107793867D01*
X164780787Y-107793869D01*
X164723575Y-107982470D01*
X164723574Y-107982473D01*
X164704259Y-108178596D01*
X164704259Y-108178603D01*
X122580400Y-108178603D01*
X122580400Y-105003600D01*
X152175318Y-105003600D01*
X152195955Y-105160358D01*
X152195957Y-105160366D01*
X152256462Y-105306438D01*
X152256462Y-105306439D01*
X152256464Y-105306441D01*
X152352718Y-105431882D01*
X152478159Y-105528136D01*
X152624238Y-105588644D01*
X152711495Y-105600131D01*
X152766719Y-105626472D01*
X152768576Y-105628280D01*
X154372992Y-107232696D01*
X154376693Y-107236837D01*
X154401521Y-107267970D01*
X154450671Y-107301480D01*
X154498518Y-107336793D01*
X154498520Y-107336793D01*
X154505077Y-107340259D01*
X154504869Y-107340651D01*
X154506850Y-107341651D01*
X154507043Y-107341253D01*
X154513724Y-107344470D01*
X154513727Y-107344472D01*
X154570576Y-107362007D01*
X154570577Y-107362007D01*
X154626700Y-107381646D01*
X154633993Y-107383026D01*
X154633910Y-107383460D01*
X154636097Y-107383831D01*
X154636163Y-107383394D01*
X154643496Y-107384499D01*
X154643498Y-107384500D01*
X154643500Y-107384500D01*
X154702959Y-107384500D01*
X154762410Y-107386725D01*
X154762416Y-107386723D01*
X154769784Y-107385894D01*
X154769833Y-107386332D01*
X154783747Y-107384500D01*
X156564468Y-107384500D01*
X156622659Y-107403407D01*
X156624715Y-107404943D01*
X156694559Y-107458536D01*
X156694560Y-107458536D01*
X156694561Y-107458537D01*
X156840633Y-107519042D01*
X156840638Y-107519044D01*
X156958209Y-107534522D01*
X156997399Y-107539682D01*
X156997400Y-107539682D01*
X156997401Y-107539682D01*
X157028752Y-107535554D01*
X157154162Y-107519044D01*
X157300241Y-107458536D01*
X157425682Y-107362282D01*
X157521936Y-107236841D01*
X157582444Y-107090762D01*
X157603082Y-106934000D01*
X157582444Y-106777238D01*
X157521937Y-106631161D01*
X157521937Y-106631160D01*
X157425686Y-106505723D01*
X157425685Y-106505722D01*
X157425682Y-106505718D01*
X157425677Y-106505714D01*
X157425676Y-106505713D01*
X157300238Y-106409462D01*
X157154166Y-106348957D01*
X157154158Y-106348955D01*
X156997401Y-106328318D01*
X156997399Y-106328318D01*
X156840641Y-106348955D01*
X156840633Y-106348957D01*
X156694561Y-106409462D01*
X156656394Y-106438748D01*
X156624734Y-106463042D01*
X156567059Y-106483466D01*
X156564468Y-106483500D01*
X154939012Y-106483500D01*
X154880821Y-106464593D01*
X154869008Y-106454504D01*
X153405680Y-104991177D01*
X153377903Y-104936660D01*
X153377531Y-104934095D01*
X153366044Y-104846840D01*
X153366044Y-104846838D01*
X153305537Y-104700761D01*
X153305537Y-104700760D01*
X153209286Y-104575323D01*
X153209285Y-104575322D01*
X153209282Y-104575318D01*
X153209277Y-104575314D01*
X153209276Y-104575313D01*
X153083838Y-104479062D01*
X152937766Y-104418557D01*
X152937758Y-104418555D01*
X152781001Y-104397918D01*
X152780999Y-104397918D01*
X152624241Y-104418555D01*
X152624233Y-104418557D01*
X152478161Y-104479062D01*
X152478160Y-104479062D01*
X152352723Y-104575313D01*
X152352713Y-104575323D01*
X152256462Y-104700760D01*
X152256462Y-104700761D01*
X152195957Y-104846833D01*
X152195955Y-104846841D01*
X152175318Y-105003599D01*
X152175318Y-105003600D01*
X122580400Y-105003600D01*
X122580400Y-98704403D01*
X125867659Y-98704403D01*
X125886974Y-98900526D01*
X125886975Y-98900529D01*
X125944187Y-99089130D01*
X125944188Y-99089132D01*
X126015218Y-99222018D01*
X126037090Y-99262938D01*
X126037092Y-99262940D01*
X126037093Y-99262942D01*
X126162112Y-99415278D01*
X126162121Y-99415287D01*
X126314457Y-99540306D01*
X126314462Y-99540310D01*
X126488273Y-99633214D01*
X126676868Y-99690424D01*
X126676870Y-99690424D01*
X126676873Y-99690425D01*
X126872997Y-99709741D01*
X126873000Y-99709741D01*
X126873003Y-99709741D01*
X127069126Y-99690425D01*
X127069127Y-99690424D01*
X127069132Y-99690424D01*
X127257727Y-99633214D01*
X127431538Y-99540310D01*
X127583883Y-99415283D01*
X127708910Y-99262938D01*
X127801814Y-99089127D01*
X127859024Y-98900532D01*
X127878341Y-98704400D01*
X127878341Y-98704396D01*
X127859025Y-98508273D01*
X127859024Y-98508270D01*
X127859024Y-98508268D01*
X127801814Y-98319673D01*
X127708910Y-98145862D01*
X127708906Y-98145857D01*
X127583887Y-97993521D01*
X127583878Y-97993512D01*
X127431542Y-97868493D01*
X127431540Y-97868492D01*
X127431538Y-97868490D01*
X127390618Y-97846618D01*
X127257732Y-97775588D01*
X127257730Y-97775587D01*
X127069129Y-97718375D01*
X127069126Y-97718374D01*
X126873003Y-97699059D01*
X126872997Y-97699059D01*
X126676873Y-97718374D01*
X126676870Y-97718375D01*
X126488269Y-97775587D01*
X126488267Y-97775588D01*
X126314467Y-97868487D01*
X126314457Y-97868493D01*
X126162121Y-97993512D01*
X126162112Y-97993521D01*
X126037093Y-98145857D01*
X126037087Y-98145867D01*
X125944188Y-98319667D01*
X125944187Y-98319669D01*
X125886975Y-98508270D01*
X125886974Y-98508273D01*
X125867659Y-98704396D01*
X125867659Y-98704403D01*
X122580400Y-98704403D01*
X122580400Y-96009400D01*
X122599307Y-95951209D01*
X122648807Y-95915245D01*
X122679400Y-95910400D01*
X168150600Y-95910400D01*
X168208791Y-95929307D01*
G37*
%TD.AperFunction*%
%TD*%
M02*
