%TF.GenerationSoftware,KiCad,Pcbnew,7.0.7*%
%TF.CreationDate,2023-11-19T15:36:35+03:00*%
%TF.ProjectId,Main_PCB_002,4d61696e-5f50-4434-925f-3030322e6b69,rev?*%
%TF.SameCoordinates,Original*%
%TF.FileFunction,Paste,Top*%
%TF.FilePolarity,Positive*%
%FSLAX46Y46*%
G04 Gerber Fmt 4.6, Leading zero omitted, Abs format (unit mm)*
G04 Created by KiCad (PCBNEW 7.0.7) date 2023-11-19 15:36:35*
%MOMM*%
%LPD*%
G01*
G04 APERTURE LIST*
G04 Aperture macros list*
%AMRoundRect*
0 Rectangle with rounded corners*
0 $1 Rounding radius*
0 $2 $3 $4 $5 $6 $7 $8 $9 X,Y pos of 4 corners*
0 Add a 4 corners polygon primitive as box body*
4,1,4,$2,$3,$4,$5,$6,$7,$8,$9,$2,$3,0*
0 Add four circle primitives for the rounded corners*
1,1,$1+$1,$2,$3*
1,1,$1+$1,$4,$5*
1,1,$1+$1,$6,$7*
1,1,$1+$1,$8,$9*
0 Add four rect primitives between the rounded corners*
20,1,$1+$1,$2,$3,$4,$5,0*
20,1,$1+$1,$4,$5,$6,$7,0*
20,1,$1+$1,$6,$7,$8,$9,0*
20,1,$1+$1,$8,$9,$2,$3,0*%
G04 Aperture macros list end*
%ADD10R,1.117600X3.302000*%
%ADD11R,5.689600X6.400800*%
%ADD12RoundRect,0.237500X0.237500X-0.300000X0.237500X0.300000X-0.237500X0.300000X-0.237500X-0.300000X0*%
%ADD13RoundRect,0.237500X-0.237500X0.250000X-0.237500X-0.250000X0.237500X-0.250000X0.237500X0.250000X0*%
%ADD14R,1.295400X1.295400*%
%ADD15R,2.006600X1.295400*%
%ADD16RoundRect,0.250000X0.475000X-0.337500X0.475000X0.337500X-0.475000X0.337500X-0.475000X-0.337500X0*%
%ADD17R,1.320800X0.558800*%
%ADD18R,1.981200X0.558800*%
%ADD19RoundRect,0.237500X-0.237500X0.300000X-0.237500X-0.300000X0.237500X-0.300000X0.237500X0.300000X0*%
%ADD20RoundRect,0.237500X0.237500X-0.287500X0.237500X0.287500X-0.237500X0.287500X-0.237500X-0.287500X0*%
%ADD21RoundRect,0.237500X0.237500X-0.250000X0.237500X0.250000X-0.237500X0.250000X-0.237500X-0.250000X0*%
%ADD22R,1.016000X0.406400*%
%ADD23R,0.762000X1.219200*%
%ADD24RoundRect,0.150000X0.150000X-0.587500X0.150000X0.587500X-0.150000X0.587500X-0.150000X-0.587500X0*%
G04 APERTURE END LIST*
%TO.C,U12*%
G36*
X163014567Y-101178267D02*
G01*
X161936100Y-101178267D01*
X161936100Y-100074400D01*
X163014567Y-100074400D01*
X163014567Y-101178267D01*
G37*
G36*
X163014567Y-102482134D02*
G01*
X161936100Y-102482134D01*
X161936100Y-101378266D01*
X163014567Y-101378266D01*
X163014567Y-102482134D01*
G37*
G36*
X163014567Y-103786000D02*
G01*
X161936100Y-103786000D01*
X161936100Y-102682133D01*
X163014567Y-102682133D01*
X163014567Y-103786000D01*
G37*
G36*
X164293034Y-101178267D02*
G01*
X163214566Y-101178267D01*
X163214566Y-100074400D01*
X164293034Y-100074400D01*
X164293034Y-101178267D01*
G37*
G36*
X164293034Y-102482134D02*
G01*
X163214566Y-102482134D01*
X163214566Y-101378266D01*
X164293034Y-101378266D01*
X164293034Y-102482134D01*
G37*
G36*
X164293034Y-103786000D02*
G01*
X163214566Y-103786000D01*
X163214566Y-102682133D01*
X164293034Y-102682133D01*
X164293034Y-103786000D01*
G37*
G36*
X165571500Y-101178267D02*
G01*
X164493033Y-101178267D01*
X164493033Y-100074400D01*
X165571500Y-100074400D01*
X165571500Y-101178267D01*
G37*
G36*
X165571500Y-102482134D02*
G01*
X164493033Y-102482134D01*
X164493033Y-101378266D01*
X165571500Y-101378266D01*
X165571500Y-102482134D01*
G37*
G36*
X165571500Y-103786000D02*
G01*
X164493033Y-103786000D01*
X164493033Y-102682133D01*
X165571500Y-102682133D01*
X165571500Y-103786000D01*
G37*
G36*
X167182800Y-100228400D02*
G01*
X166166800Y-100228400D01*
X166166800Y-101092000D01*
X167182800Y-101092000D01*
X167182800Y-101498400D01*
X166166800Y-101498400D01*
X166166800Y-102362000D01*
X167182800Y-102362000D01*
X167182800Y-102768400D01*
X166166800Y-102768400D01*
X166166800Y-103632000D01*
X167182800Y-103632000D01*
X167182800Y-104038400D01*
X166166800Y-104038400D01*
X166166800Y-103886000D01*
X162331400Y-103886000D01*
X162331400Y-99974400D01*
X166166800Y-99974400D01*
X166166800Y-99822000D01*
X167182800Y-99822000D01*
X167182800Y-100228400D01*
G37*
%TD*%
D10*
%TO.C,U8*%
X142875000Y-106438700D03*
D11*
X145161000Y-99885500D03*
D10*
X147447000Y-106438700D03*
%TD*%
D12*
%TO.C,C24*%
X148259800Y-113693200D03*
X148259800Y-111968200D03*
%TD*%
D13*
%TO.C,R24*%
X155168600Y-99442900D03*
X155168600Y-101267900D03*
%TD*%
D14*
%TO.C,R18*%
X130632200Y-111760000D03*
D15*
X129463800Y-106222800D03*
D14*
X128295400Y-111760000D03*
%TD*%
D16*
%TO.C,C23*%
X137185400Y-102027900D03*
X137185400Y-99952900D03*
%TD*%
D13*
%TO.C,R22*%
X155143200Y-103710100D03*
X155143200Y-105535100D03*
%TD*%
D17*
%TO.C,U13*%
X151663400Y-107111800D03*
X151663400Y-109016800D03*
X154051000Y-108064300D03*
%TD*%
D14*
%TO.C,R19*%
X130632200Y-119888000D03*
D15*
X129463800Y-114350800D03*
D14*
X128295400Y-119888000D03*
%TD*%
D18*
%TO.C,U7*%
X151765000Y-120142000D03*
X151765000Y-118872000D03*
X151765000Y-117602000D03*
X151765000Y-116332000D03*
X146837400Y-116332000D03*
X146837400Y-117602000D03*
X146837400Y-118872000D03*
X146837400Y-120142000D03*
%TD*%
D19*
%TO.C,C22*%
X140284200Y-102592800D03*
X140284200Y-104317800D03*
%TD*%
D16*
%TO.C,C25*%
X150926800Y-113639600D03*
X150926800Y-111564600D03*
%TD*%
D14*
%TO.C,R20*%
X137922000Y-119989600D03*
D15*
X136753600Y-114452400D03*
D14*
X135585200Y-119989600D03*
%TD*%
D20*
%TO.C,D21*%
X159791400Y-115669000D03*
X159791400Y-113919000D03*
%TD*%
D21*
%TO.C,R23*%
X159791400Y-112123200D03*
X159791400Y-110298200D03*
%TD*%
D17*
%TO.C,U14*%
X155448000Y-116560600D03*
X155448000Y-118465600D03*
X157835600Y-117513100D03*
%TD*%
D21*
%TO.C,R25*%
X162026600Y-113872000D03*
X162026600Y-112047000D03*
%TD*%
D22*
%TO.C,U12*%
X160832800Y-100025200D03*
X160832800Y-101295200D03*
X160832800Y-102565200D03*
X160832800Y-103835200D03*
X166674800Y-103835200D03*
X166674800Y-102565200D03*
X166674800Y-101295200D03*
X166674800Y-100025200D03*
%TD*%
D14*
%TO.C,R21*%
X137922000Y-111556800D03*
D15*
X136753600Y-106019600D03*
D14*
X135585200Y-111556800D03*
%TD*%
D23*
%TO.C,U11*%
X157734000Y-103581200D03*
X157734000Y-100228400D03*
%TD*%
D12*
%TO.C,C21*%
X150063200Y-105003600D03*
X150063200Y-103278600D03*
%TD*%
D24*
%TO.C,D20*%
X132212000Y-103962200D03*
X134112000Y-103962200D03*
X133162000Y-102087200D03*
%TD*%
M02*
